<!-- Generator: Adobe Illustrator 20.1.0, SVG Export Plug-In  -->
<svg version="1.1"
	 xmlns="http://www.w3.org/2000/svg" xmlns:xlink="http://www.w3.org/1999/xlink" xmlns:a="http://ns.adobe.com/AdobeSVGViewerExtensions/3.0/"
	 x="0px" y="0px" width="291.5px" height="386.6px" viewBox="0 0 291.5 386.6" style="enable-background:new 0 0 291.5 386.6;"
	 xml:space="preserve">
<style type="text/css">
	.st0{fill:#FFFFFF;}
</style>
<defs>
</defs>
<g>
	<path d="M118.9,192.1c0.5-0.7,0.8-1.5,1.4-2c2.5-2.2,5-4.4,8.1-5.8c0.9-0.4,1.9-0.9,2.7-1.5c2-1.3,3.5-2.9,2.9-5.5
		c1.2-0.6,2.3-1.1,3.8-1.8c-1.8-0.9-3.2-1.5-4.6-2.3c-5.2-2.8-10.2-5.7-15.4-8.4c-10.6-5.4-20.8-11.7-30.5-18.5
		c-4.2-2.9-8.8-4.6-13.8-5.7c-13.4-2.8-26.9-3.9-40.6-2.1c-8,1-15.9,2.6-22.9,6.9c-2.7,1.6-5.3,3.3-7.9,4.9
		c-0.5,0.3-1.2,0.2-1.8,0.3c-0.1-0.6-0.4-1.2-0.3-1.8c0.7-5,1.5-10,2.3-14.8c4.8-3.4,9.7-5.9,15-7.3c3.2-0.8,6.5-1.1,9.7-1.5
		c2.6-0.3,5.3-0.6,7.9-0.7c4.8-0.1,9.6,0,14.5,0c0.8,0,1.7,0,2.8,0c-6.7-5.6-13.4-10.9-19.6-16.6c-6.4-5.8-12.3-12-16.7-19.7
		c4.6-3.8,9.2-7.6,14.1-11.7c0.8,0.9,1.7,1.8,2.5,2.8c5.9,7.3,12.3,14.1,19.1,20.5c3.8,3.6,7.5,7.3,11.3,10.7
		c2.6,2.3,5.3,4.5,8.1,6.6c3.9,2.8,7.9,5.6,11.9,8.2c1.4,0.9,3.1,1.6,4.7,1.8c9.5,1.3,18.7,4,27.7,7.1c5.2,1.8,10.1,4.2,15.6,6.1
		c-0.3-0.3-0.7-0.7-1-1c-9-10.4-17.9-20.8-28.4-29.7c-7.8-6.6-15.7-13-23.8-19.3c-4.4-3.4-9.1-6.4-13.7-9.6c-1-0.7-2.1-1.4-2.9-2.2
		c-2.2-2.1-4.7-3.1-7.7-3.2c-0.6,0-1.2-0.4-1.7-0.8c-0.7-0.6-1.3-1.3-2.1-2.2c0.8-0.1,1.4-0.1,2.6-0.3C39.1,63.1,25.2,56.7,9.7,52.7
		c0.9-3.7,4-6,5.5-9.2c3.9,0.3,7.2,1.8,10.5,3.1c5.4,2,10.6,4.6,15.9,6.7c4.9,1.8,9.4,4.4,14,6.8c1.7,0.9,3.7,1.4,5.6,1.9
		c7.9,1.9,15.9,3.3,23.6,6c2.9,1,5.8,2.2,8.9,2.9c-0.7-0.6-1.4-1.2-2.1-1.7c-6.9-5-13.8-9.8-21.5-13.6c-3.7-1.8-7.1-4.4-10.7-6.5
		c-3.4-2-6.9-3.9-10.4-5.8c-2.4-1.3-5-2.3-7.3-3.7c-4.4-2.5-9.2-3.8-14-5.4c-2.9-1-5.7-1.9-8.6-2.9c-0.6-0.2-1-0.7-1.4-1
		c3.1-4.1,6-8,9.3-12.3c1.7-0.2,3.7,1.2,5.7,2C41,23.4,49.2,27,57.4,30.8c12.5,5.8,25,11.6,36.9,18.7c2.9,1.7,5.8,3.6,8.7,5.3
		c0.4,0.3,1,0.5,1.9,0.9c-2.2-3.6-4.1-6.7-6.1-9.8C93.3,37.9,88,29.8,82.3,21.9c-3.1-4.3-6.9-8-10.4-12C71.4,9.4,70.6,9,70,8.6
		c-2-1.3-2.1-2-0.1-3.2c2.9-1.8,5.8-3.5,9-5.4c0.6,0.5,1.4,1.1,2,1.7C88.9,10.6,97,19.5,105,28.5c3.4,3.8,6.4,7.9,9.6,11.9
		c4.8,6,9.7,11.9,14.4,17.9c4.8,6,9.1,12.3,12.7,19.1c2,3.9,4.2,7.8,6.4,11.6c0.7,1.3,1.9,2.3,2.9,3.4c1.9,2.1,3.8,4.2,5.9,6.4
		c0.4-1.1-0.2-1.9-0.4-2.8c-2.3-10.9-6.1-21.2-10.5-31.4c-2.9-6.7-6-13.4-9.6-19.8c-4.3-7.6-9-14.9-15-21.2
		c-0.1-0.1-0.2-0.3-0.4-0.4c-2.6-2.8-2.7-2.9,0.5-5.3c1.6-1.2,3.5-2.2,5.3-3.3c0.6,0.5,1.1,0.8,1.5,1.2c4.6,6.1,9.4,12.1,13.8,18.3
		c4.6,6.5,8.9,13.1,13.1,19.8c4.4,6.9,8.9,13.8,12,21.5c2.2,5.5,4.2,11.1,5.8,16.8c2.3,8.3,4.1,16.7,6.2,25c2,7.9,2.9,15.9,2.7,24.1
		c0,3.3,0.6,6.6,1,9.8c0,0.3,0.3,0.7,0.3,0.7c4.2-0.3,8.2-0.8,12.3-1c6.7-0.2,13.4-0.4,20.1-0.3c10.5,0.2,20.3,3,29.5,8
		c6.7,3.6,13.2,7.4,18.9,12.4c7.7,6.7,14.3,14.1,19,23.3c4.4,8.6,6.1,17.8,7.6,27.1c1.9,11.8,0.6,23.5-2,35.1
		c-0.1,0.5-0.2,0.9-0.3,1.4c-0.3,2,0,4.5-1,6c-1.1,1.6-1.9,3.4-2.8,5.1c-1.2,2.4-1.8,5-3.1,7.3c-1.9,3.4-3.5,6.9-4.8,10.5
		c-0.9,2.5-1.5,5-2.5,7.5c-2,5.1-4.1,10.1-6.2,15.2c-2.5,6-3.9,12.2-3.9,18.7c0,1.7,0,3.4,0.2,5.1c0.4,4,1.8,7.6,3.8,11.3
		c1.4,2.5,3.5,4.7,4.4,7.6c0.9,2.8,1.5,5.6,1.6,8.6c0.1,2.9,0.8,5.8,1.3,8.7c0.2,0.9,0.6,1.8,1,2.6c1.5,2.7,3.1,5.4,4.8,8
		c1.1,1.7,2.4,3.2,3.5,4.8c0.3,0.4,0.6,0.9,1.1,1.8c-1-0.1-1.6-0.1-2.1-0.2c-0.1,0-0.3-0.2-0.4-0.4c-4.1-5.7-8.8-11.1-11.2-18
		c-1-2.9-0.8-6-0.8-9c0-3.2-1.5-5-4.4-6.2c-1.9-0.8-3.7-1.9-5.4-3c-0.7-0.4-1.3-1.2-1.5-2c-1.3-4.1-4.5-6.1-8.1-7.5
		c-7.8-3-15.7-5.9-24.1-7c-2.7-0.4-5.5-0.3-8.2-0.2c-7.8,0.4-15.6,1.1-23.5,1.5c-4.2,0.2-8.5,0-12.7-0.2c-3.3-0.2-6.6-1-9.9-0.9
		c-3.7,0.1-7.1-1.1-10.7-1.6c-3.6-0.5-7.2-1.3-10.9-2c-6.6-1.3-12.9-3.6-18.7-7.2c-6.1-3.8-11.9-7.8-16.6-13.4
		c-8.1-9.6-14.6-20.2-19-32c-3.1-8.2-4.6-16.7-5.1-25.5c0-0.7-0.3-1.4-0.5-2.2c-0.1-0.3-0.5-0.6-0.4-0.7c1.8-3.7,0.7-7.7,1.3-11.6
		c1.4-8.1,3.4-15.9,7.1-23.2c3.1-6.2,7.4-11.6,12.5-16.3c0.1-0.1,0.5-0.1,0.8-0.1l0-0.1c-1.4,1.6-2.7,3.1-4,4.7
		c-1,1.2-1.8,2.4-2.8,3.6c0.2,0.2,0.3,0.4,0.5,0.6c3.1-1.7,6.1-3.3,9.2-5c-0.4,1-1,1.7-1.7,2.2c-3.2,2.2-6.4,4.3-10.1,5.1
		c-5.6,8.9-8.5,18.6-10.1,29.3c5.1-1.8,9.7-3.4,14.2-5.1c-4.3,3.5-9.8,4.6-14.6,7.1c0,2.6-0.6,5.1,0.3,7.8c3.4-1.3,6.6-2.6,9.9-3.9
		c0.1,0.2,0.2,0.4,0.3,0.6c-3.5,1.7-6.9,3.4-10.5,5.1c0.1,0.6,0.3,1.3,0.5,2.1c4-1.5,7.7-2.7,11.3-4.3c3.5-1.6,6.8-3.8,10.2-5.6
		c0,0,0.1,0.3,0,0.4c-0.6,0.6-1.1,1.3-1.8,1.8c-3.9,2.9-8.2,4.9-12.8,6.6c-2.5,0.9-4.9,2-7.2,3c0.1,1.3,0.2,2.4,0.3,3.5
		c6.6-0.7,12.4-3.5,18.6-5.1c-2.9,1.5-5.8,2.8-8.8,3.9c-3.1,1.1-6.3,2-9.5,3c0.2,1.5,0.4,2.6,0.6,3.9c4.3-1.6,8.5-2.8,12.5-4.5
		c4-1.7,7.8-4,11.6-6c-0.9,1.1-1.8,2.1-3,2.8c-4.8,2.9-9.8,5.2-15.2,6.9c-1.9,0.6-4,1.3-5.5,2.9c0.9,3,0.8,6.2,2.3,8.9
		c6-1.2,11.1-3.8,15.8-7.3c-4,4.7-9.4,7.1-15.2,9c1.6,4.4,2.9,8.7,5.7,12.3c6.7-2.1,12.7-5.4,18.4-9.1c5.7-3.7,11.1-7.9,16.7-11.8
		c-9.8,9.9-21.8,16.6-34.7,22.5c1.3,2.1,2.4,3.9,3.7,6c1.6-0.8,3-1.4,4.4-2.2c5.2-3.2,10.5-6.4,15.6-9.8c8.1-5.3,16.6-10.1,23-17.6
		c1,0.5,1,1.1,0.3,1.7c-2,1.9-3.9,3.9-6.1,5.5c-8.5,5.9-17,11.6-25.6,17.3c-3.5,2.3-7.1,4.4-10.9,6.7c1.2,1.6,2.4,3.2,3.7,5
		c5.5-3.3,11-6.5,16.3-9.9c5.4-3.3,10.7-6.7,16-10.3c5.2-3.5,10.2-7.2,15.3-10.9c0.2,0.2,0.3,0.3,0.5,0.5c-0.4,0.5-0.7,1.2-1.2,1.6
		c-3,2.3-5.9,4.8-9,6.8c-9.6,6.2-19.3,12.3-29,18.4c-2.6,1.7-5.2,3.3-8.1,5.2c1.1,1.2,1.9,2.2,2.9,3.3c7-4.5,14.3-7.6,20.8-12.7
		c0,0.6,0.1,1,0,1.1c-0.7,0.7-1.3,1.4-2.1,1.9c-5.7,3.8-11.7,7.3-17.8,10.5c1.2,1.3,2.5,2.7,4,4.4c4.4-2.4,8.8-4.4,12.8-7
		c7.5-4.7,14.8-9.8,22.1-14.8c1-0.7,1.7-1.7,2.6-2.5c1.2-1.2,2.4-2.2,5-2.4c-0.9,1-1.2,1.6-1.7,1.9c-6.7,4.8-13.3,9.7-20.1,14.2
		c-5.2,3.4-10.7,6.3-16.1,9.5c-1.1,0.6-2.1,1.4-3.4,2.2c1.7,1.3,3.1,2.3,4,3c1-0.7,1.6-1.4,2.4-1.7c2.6-1.3,5.5-2.2,7.9-3.7
		c6.3-3.9,12.5-8.1,18.7-12.3c6.8-4.6,13.4-9.5,20.2-14.2c0.7-0.5,1.3-1.1,2.5,0c-2.4,2.4-5.5,3.6-8.1,5.6c-2.7,2.1-5.6,3.9-8.4,5.8
		c-2.7,1.9-5.4,3.8-8.2,5.7c-2.8,1.9-5.5,3.9-8.4,5.8c-2.8,1.8-5.6,3.6-8.5,5.1c-2.9,1.6-6,2.9-9,4.8c0.9,0.6,1.4,0.8,1.8,1.2
		c1.8,1.3,3.6,1.4,5.4-0.1c0.8-0.6,1.8-1.1,2.7-1.6c7-4,14-7.9,20.9-12c5.1-3,10.2-6.1,15.2-9.3c9.4-6,18.8-12,27.3-19.3
		c0.6-0.5,1.3-0.9,1.9-1.3c0.2,0.2,0.3,0.3,0.5,0.5c-0.3,0.5-0.4,1.1-0.8,1.4c-5.2,3.9-10.3,8-15.7,11.7
		c-8.1,5.4-16.3,10.7-24.6,15.8c-7,4.3-14.3,8.2-21.4,12.3c-2.3,1.3-4.4,2.7-6.7,4.2c0.6,0.8,1.1,1.6,1.7,2.2
		c1.4,1.5,3.7,1.9,5.6,0.8c3.9-2.2,7.7-4.3,11.6-6.6c6-3.4,12-6.7,17.8-10.4c6.8-4.4,13.4-9.2,20.1-13.8c0.7-0.5,1.4-1.2,2.9-0.6
		c-0.6,0.7-0.9,1.3-1.4,1.7c-4.7,3.2-9.2,6.6-14,9.6c-9.7,5.9-19.5,11.6-29.2,17.3c-2.3,1.4-4.5,2.9-6.9,4.4
		c2.3,1.7,12.2,4.4,15.9,4.7c1.1-0.9,1.7-1.7,2.6-2.1c3-1.6,6.1-3.1,9.2-4.5c7.5-3.3,14.5-7.4,21-12.3c5.4-4,10.7-8.1,16-12.2
		c9.2-7.1,18.8-13.7,27.5-21.4c5-4.4,10.2-8.7,13.6-14.6c0.2-0.3,0.8-0.4,1.2-0.5c-0.4,1.7-0.9,3.1-1.8,4.2
		c-2.7,3.1-5.4,6.3-8.5,9.1c-6.7,6.2-13.9,11.6-21.2,17c-4.3,3.2-8.5,6.6-12.8,9.8c-6.2,4.6-12.2,9.7-18.7,13.7
		c-7.6,4.7-15.8,8.5-23.7,12.7c-0.6,0.3-1.1,0.7-2.3,1.4c3.7,0.6,6.7,1.1,9.7,1.5c0.5,0.1,1.1-0.2,1.6-0.4c7.5-3.2,14.6-7,21.1-12
		c7.3-5.6,14.7-11,21.8-16.8c8.3-6.7,17.3-12.5,24.6-20.5c0.4-0.4,1-0.5,1.7-0.8c0,0.5,0.1,0.8,0,0.9c-2.9,2.9-5.8,6-8.9,8.7
		c-2.9,2.6-6.1,4.7-9.2,7.1c-4.5,3.5-8.9,7.1-13.3,10.6c-5.4,4.2-10.8,8.5-16.4,12.6c-3.3,2.4-7,4.5-10.5,6.6c-2.6,1.5-5.3,2.7-8,4
		c3.3,0.8,6.5,1,9.7,1.5c2.5,0.3,4.6-0.5,6.6-1.8c-1.1-1.4,0.1-1.7,0.8-2.2c3.8-2.2,7.8-4.3,11.5-6.6c5.1-3.2,10-6.7,15-10.1
		c5.3-3.7,10.2-7.8,13.9-13.2c0.7-1,1.4-2,2.3-2.9c0.5-0.6,1.3-1.2,2.1-0.2c-1.7,2.2-3.3,4.5-5.1,6.6c-5.1,6.1-11.6,10.5-18.1,14.9
		c-5.6,3.8-11.5,7.3-17.2,11c-0.6,0.4-1.5,0.8-1.5,1.1c0,1.9-1.6,1.9-2.6,2.6c-0.4,0.3-0.7,0.6-1.1,0.9c3.1,0.2,6,0,8.9-0.2
		c0.3,0,0.6-0.1,0.8-0.3c2.1-2.4,5.3-2.9,7.9-4.4c3.6-2.1,7.2-4.2,10.7-6.4l-0.1-0.1c-0.8,0.9-1.3,2.1-2.3,2.8
		c-2.7,1.9-5.6,3.5-8.4,5.2c-1.5,0.9-3.2,1.6-4.8,2.4c3.5,0.1,6.9-0.1,10.2-0.3c2-0.1,3.9-0.5,5.7-1.7c5-3.2,10.2-6.1,14.1-10.8
		c0.5-0.6,1.2-1.5,2.6-1.2c-4,6-9.9,9.3-16.1,13c2.5,0.5,4.4,0.4,6.1-0.8c2.4-1.6,4.9-3.1,7.4-4.7c0.3-0.2,0.6-0.2,0.9-0.3
		c0.1,0.1,0.1,0.2,0.2,0.4c-2.5,1.8-5,3.6-7.9,5.7c2.6,0.5,4.5,0.8,6.5,1.2c2.4-1.1,4-3.7,7.2-3.7c0,0.8-0.1,1.4-0.1,2
		c1-0.2,2-0.4,3.1-0.7c0.7,1.6,1.3,2.9,1.9,4.3c1.2-0.3,2-2,3.8-1.2c0,0.6,0.1,1.3,0.1,1.9c0.9-0.2,1.7-0.4,2.7-0.6
		c0,1,0,1.8-0.1,2.7c2.2-1.8,3.8,0.9,5.9,0.6c0.3-0.6,0.5-1.2,0.8-1.8c-1,0.1-1.9,0.1-3,0.2c0.4-1.4,0.7-2.3,1.1-3.4
		c-1.5-0.7-1.4-1.7-0.5-2.9c0.6-0.8,1-1.7,1.4-2.3c-2.4-1.6-3.7,1-5.6,1.3c3-3.1,5.8-6.2,8.9-9.1c1.8-1.7,2.2-3.7,2.7-6.5
		c-1.6,1.5-2.8,2.6-4,3.7c1.4-3.5,5.3-5.1,6-9.6c-1.5,1.2-2.5,2-3.4,2.8c-1,0.8-1.7,2-3.1,2.2c3.4-4.2,9.1-6.7,9.8-13.3
		c-2.7,2.4-5.2,4.6-7.7,6.9c-0.2-0.2-0.3-0.3-0.5-0.5c4-3.9,8.7-7.1,10.9-12.5c-2.8,2.6-5.7,5.2-8.5,7.9c-0.2-0.2-0.4-0.4-0.5-0.6
		c1.4-1.3,2.8-2.6,4.2-3.9c1.5-1.4,3-2.8,4.4-4.4c1.2-1.4,2.1-3,3.2-4.6c-0.2-0.1-0.3-0.3-0.5-0.4c-0.7,0.7-1.4,1.4-2.2,2.1
		c-0.8,0.6-1.6,1.1-2.4,1.7l0,0.1c1.6-1.8,3.1-3.7,4.6-5.5c-0.4-0.7-0.6-1.3-1-2c-0.9,0.8-1.7,1.6-2.6,2.3c-0.8,0.6-1.1,2-2.8,1.7
		c3.1-3.5,6.9-6,9.3-9.7c-3.3,1.6-5.9,4.2-9.4,5.4c0.5-0.6,1-1.1,1.6-1.5c2.8-2.2,5.7-4.2,8.5-6.5c1.6-1.3,2.8-2.9,2.8-5.3
		c-4.3,3-8.5,5.8-12.7,8.7c-0.1-0.2-0.3-0.4-0.4-0.6c1-0.7,2-1.5,3-2.2c3.2-2.4,6.4-4.7,9.5-7.1c1.7-1.3,3.1-3,3.2-5.8
		c-1.6,1.3-2.8,2.4-4.1,3.4c-1.4,1.1-2.8,2.3-4.4,3c-1.4,0.7-2,2.7-4,2.3c2.3-2,4.7-3.7,7-5.5c2.5-2,5.1-4,6.7-6.8
		c0.3-0.5,0.3-1.1,0.4-1.6c-0.2-0.1-0.3-0.2-0.5-0.2c-2.6,2.1-5.2,4.2-7.8,6.4c0-0.6,0.2-1,0.5-1.3c2.3-2,4.5-4,6.9-5.9
		c1.1-0.9,1.8-1.9,2.1-3.2c2-8.7,2.9-17.5,1.4-26.4c-0.1-0.4,0-1.2,0.1-1.2c1.3-0.3,0.7-1.2,0.6-1.8c-0.6-3.8-1.3-7.7-2-11.5
		c-0.5-2.4-1-4.8-1.7-7.2c-1.1-3.5-2.5-6.9-3.8-10.4c-1.7-4.6-3.7-8.9-7.5-12.1c-1.3-1.2-2.9-2.4-3.6-4c-0.6-1.4-1.5-2.3-2.4-3.2
		c-7.7-7.1-16.5-12.6-25.9-17.1c-6.5-3.2-13.5-5.1-20.7-5.6c-7.7-0.5-15.4-0.1-23,0c-1.6,2.2-2.8,4.4-5.1,5.8
		c0.4-2.1,2.6-3.2,3.1-5.4c-5.9-0.1-5.9-0.1-6.4,1.2c0.4,0,0.8,0.1,1.8,0.2c-3.7,3.7-7.1,7-10.4,10.3c0.2,0.2,0.3,0.3,0.5,0.5
		c4.2-3.2,8.3-6.5,11.4-11.4c0.4,1.5-0.1,2.4-0.8,3.1c-1.6,1.7-3.3,3.4-5,5c-1,0.9-2.2,1.5-2,3.3c0.1,1.1-0.9,2.4-2.4,2.7
		c-0.6,0.1-1.2,0.4-1.8,0.8c-6.6,4.3-13.4,8-20.5,11.4c-0.4,0.2-0.8,0.5-1.2,0.8c11-3.9,21.3-9,30.3-16.5c-0.9,1.3-2,2.4-3.2,3.4
		c-6.7,5.3-14.1,9.5-22,12.8c-1.4,0.6-3.2,1-4,2c-1.9,2.7-5.9,2.4-7.4,5.6c-0.3,0.6-1.7,0.7-2.6,0.9c-7.6,1.7-15.2,1.6-22.6-0.8
		c-1.2-0.4-2.1-0.4-3.2,0.4C122,190,120.4,191,118.9,192.1L118.9,192.1z M143,141.1c-0.6-1.4-1.2-2.7-1.8-4.1
		c-0.1-0.5,0-0.9-0.2-1.3c-3.1-7.1-6.6-14-12.5-19.3c-0.6-0.5-1.5-1-1.5-2.1c0.4,0,0.6-0.1,0.7,0c0.3,0.1,0.5,0.3,0.7,0.4
		c3.3,3,6.3,6.2,8.5,10.1c1.4,2.5,2.8,5.1,4.2,7.6c0.1,0.4,0,0.8,0.2,1.1c1.8,4.6,3.7,9.2,5.5,13.9c1.2,3.1,2.1,6.4,3.1,9.5
		c0.4-0.5,0.5-1,0.4-1.4c-1.5-5-2.8-10.2-4.5-15.1c-1-2.9-2.8-5.5-4.3-8.2c0.1-0.5,0.3-1,0.6-2c1,2.7,3.4,2.7,4.8,4.2
		c-0.2-0.8-0.4-1.6-0.7-2.2c-5.9-10.7-11.8-21.3-20.7-30c-0.5-0.5-1.3-1.1-0.7-2.6c8,7.2,13.3,16.1,19,24.8c-0.5-1.9-1.2-3.7-2-5.3
		c-3.8-7.2-8.7-13.5-14.5-19.1c-5-4.8-10.4-9.4-15.3-14.2c-4.8-4.8-10.3-8.5-16.3-11.6c-7.7-3.9-16-6.4-24.4-8.3
		c-3-0.7-6.1-1.4-9.1-2c-2.6-0.5-3.4,0.1-3.7,2.9c8.2,1.7,16.3,4,23.7,8.1c-0.6,0.2-1.1,0.1-1.5-0.1c-4.2-1.4-8.4-2.9-12.5-4.4
		c-0.8-0.3-1.7-0.5-2.5-0.4c-1.9,0.3-3.8,0.8-5.7,1.3c2.7,0.7,5.4,1.1,8.2,1.6c0.5,0.1,0.9,0.6,1.7,1.1c-4.1,1.2-7.5-1.5-11.4-0.4
		c0.5,0.4,0.7,0.6,1,0.7c4.8,1.7,9.7,3.1,14.4,5c4.8,2,9.5,4.2,14,6.8c4.8,2.8,9.2,6.3,13.9,9.3c6,3.9,11.3,8.5,16.4,13.5
		c9.2,8.9,16.3,19.3,21.5,31c0.2,0.3,0.5,0.6,0.7,0.9c0-1.7-0.5-3.2-1.1-4.6c-0.7-1.5-1.6-2.8-2.4-4.2c0.2-0.2,0.4-0.3,0.6-0.5
		c0.5,0.4,1.1,0.8,1.4,1.3c0.8,1.4,1.6,2.8,2.3,4.2c0.6,1.4,1.1,2.8,1.7,4.1c0.8,4.8,2.4,9.3,4.7,13.6c0-1.3-0.3-2.5-0.7-3.7
		C145.5,147.8,144.3,144.5,143,141.1z M155,175.4c2.9-1.1,5.8-2.3,8.7-3.4c-0.3,0.8-0.8,1.4-1.4,1.7c-3.5,1.6-7,3.2-10.5,4.9
		c-0.7,0.3-1.4,0.9-2.1,1.3c-0.4,1.1-1.9,1.8-1.4,3.7c3.6-1.5,7-2.9,10.4-4.3c-0.1-0.2-0.1-0.4-0.2-0.7c-0.7,0.1-1.4,0.2-2,0.5
		c-1.5,0.6-2.9,1.4-4.4,2c-1.6,0.7-2,0.4-2.5-1.3c0.9,0.9,1.8,0.2,2.6-0.2c3.4-1.6,6.8-3.2,10.2-4.8c0.6-0.3,1.6-0.8,1.8-0.6
		c1.2,1.3,2.2,0.2,3.1-0.3c1.8-1,3.6-2.1,5.3-3.1c1-0.6,2.1-1.1,3.2-1.6c-0.1-0.2-0.1-0.4-0.2-0.6c-4.5-0.5-9-0.6-13.5,0.6
		c-0.3,0.1-0.5,0.9-0.7,1.3c-0.2-0.1-0.5-0.5-0.7-0.4c-2,0.6-3.9,1.4-5.4,3.1c2-0.9,4-1.8,6-2.7c0.3,0.1,0.6,0.2,0.9,0.3
		c-0.5,0.4-0.9,0.9-1.5,1.2c-2,1.1-4,2.1-6,3.2c-1,0.2-2.2,0-2.8,1.9C153.3,176.3,154.2,175.9,155,175.4z M141,48.5
		c0.1,0.7,0,1.5,0.3,2.2c1.2,2.8,2.5,5.5,3.9,8.2c2.6,5,4.9,10.2,6.7,15.6c0.3,0.8,0.7,1.6,1,2.4c0.4-0.5,0.3-0.8,0.2-1.2
		c-1.9-6.9-4.3-13.7-7.7-20.1c-0.4-0.7-1-1.4-0.1-2.5c0.4,0.4,1,0.6,1.1,1c1.8,4.1,3.7,8.1,5.1,12.3c2.7,8,5.3,16.2,7.7,24.3
		c1.5,4.9,2.6,9.9,3.9,14.8c0.4,1.4,1,2.8,1.4,4.2c0.2-0.1,0.5-0.1,0.7-0.2c-0.8-5-2.5-9.8-3-14.9c0.6,0.9,1,1.9,1.3,2.9
		c1.2,4.2,2.2,8.4,3.4,12.6c0.8,2.7,1.2,5.5,3.2,7.7c0-1.3,0-2.6-0.4-3.8c-1.9-6.1-3.7-12.3-5.8-18.3c-1.6-4.5-3.6-8.8-5.4-13.1
		c-0.3-0.8-0.5-1.5,0.8-1.7c1.5,3.9,3.1,7.9,4.6,11.8c1.7,4.6,3.4,9.2,5,13.8c0.7,2,1.3,4.1,1.9,6.2c0.3,1.2,0.9,1.1,1.8,0.5
		c-0.5-1.9-0.9-3.7-1.4-5.5c-3.3-12.1-8.6-23.4-13.2-34.9c-4.1-10.2-9.6-19.7-15-29.2c-2.5-4.4-5.3-8.7-8.9-12.4
		c-0.1-0.1-0.1-0.5-0.1-1c0.6,0.1,1.1,0,1.3,0.2c0.8,0.7,1.4,1.5,2.1,2.3c4.9,6.1,8.4,13,12.1,19.8c3,5.6,5.9,11.2,8.8,16.8
		l-0.1-0.1c2.2,5.6,4,11.5,7.2,16.7c-0.6-2.3-1.6-4.4-2.2-6.6c-0.6-2.1-2.2-4.1-1.9-6.4c0.3-0.1,0.5-0.2,0.8-0.2
		c3.3,8.5,6.6,17,10,25.6c0.4-0.7,0.3-1.3,0.1-1.8c-1.1-3.5-2.2-7-3.3-10.5c-2.7-8-5.8-15.8-10.3-23c-4.9-7.7-9.8-15.5-14.8-23.2
		c-2.4-3.7-5-7.3-7.7-10.8c-2.9-3.8-6-7.5-9.1-11.2c-0.1-0.2-0.5-0.2-0.7-0.2c0.1,1.7,2.4,2.7,1.5,5.1c-1.4-1.6-2-3.6-4.3-4.3
		c1.6,2.6,3.7,4.6,4.1,7.5c-2.1-1.5-2.5-4.9-5.8-5c2.7,3.6,5.5,7,7.9,10.7c3.4,5.2,6.6,10.5,10,15.8c0.3,0.5,0.9,0.9,1.3,1.4
		L141,48.5z M156.1,149.2c1.1,3,0.8,6.2,2.1,9.1c0.2-0.9,0.3-1.8,0.1-2.7c-0.9-4.9-1.9-9.8-2.9-14.7c-0.2-0.8-0.6-2.1-0.3-2.4
		c1.2-1,0.5-2,0.2-2.8c-3.4-10.5-7-21-13.7-30c-0.3-0.4-0.3-1-0.4-1.5c0.9,0,1.5,0.2,1.7,0.7c2,3.3,4.3,6.5,5.9,10
		c2.5,5.7,4.8,11.5,6.8,17.4c1.7,5,3.1,10.1,4.6,15.1c1.6-4.4-1.1-8.3-1.2-12.6c0.5,0.7,1,1.4,1.2,2.2c1.2,4.6,2.4,9.3,3.6,13.9
		c0.7,2.7,1.3,5.5,2.1,8.3c0.1,0.4,0.5,0.8,0.8,1.2c0.2-0.1,0.4-0.1,0.6-0.2c-0.2-1.2-0.3-2.5-0.7-3.7c-1-4.1-2.3-8.2-3.2-12.3
		c-2.3-10.3-5.9-20.1-11.4-29.2c-1.5-2.5-3.2-4.9-4.8-7.4c-6.2-9.5-13.3-18.1-22.5-24.9c-5.1-3.8-10.4-7.5-15.7-11.3
		c0.1-1,0.7-1.3,1.7-0.7c2.3,1.5,4.6,2.9,6.8,4.6c4.4,3.4,8.9,6.7,13.1,10.3c9.7,8.2,16.5,18.8,23.1,29.6c4,6.5,6.9,13.4,9,20.8
		c0.8,2.8,1.4,5.7,2.2,8.5c0.3,1,0.8,2,1.2,3.1c1.3-2,0.9-3.7,0.3-5.3c-1.1-3.2-2.4-6.4-3.6-9.6c-0.3-0.9-0.8-1.8-1.3-2.8
		c0.8,0.1,1.3,0.1,1.8,0.1c-0.5-2.6-2.6-4.3-2.8-6.9c0.5,0,0.9,0,1,0.1c4.8,8,9,16.2,11.3,25.2c0.2,0,0.4-0.1,0.6-0.1
		c-0.3-1.8-0.6-3.5-0.9-5.4c0.5,0.1,0.8,0.1,1.6,0.2c-2.6-5.8-4.8-11.5-7.6-16.8c-3.1-5.7-6.5-11.3-10.1-16.7
		c-4.7-7.1-10.3-13.5-16.4-19.4c-7.8-7.5-16.6-13.7-25.3-20.1c-2.4-1.8-5-3.4-7.5-5.1c-1.5-1-2.9-2.1-4.5-2.9
		c-6.3-3.5-12.3-7.4-19.1-10c-1.6-0.6-3.1-1.6-4.2-3.3c0.6,0.1,0.9,0.1,1.1,0.2c5.6,2.8,11.1,5.5,16.6,8.4c3.1,1.6,6.2,3.3,9,5.3
		c6.2,4.2,12.2,8.6,18.3,12.9c8.2,5.7,15.7,12.2,22.4,19.6c5.3,5.9,9.9,12.3,14.2,19c4.1,6.5,7.7,13.2,10.9,20.1
		c0.3,0.7,0.8,1.4,1.2,2c-1-5.6-3.3-10.7-5.6-15.7c0.5-0.1,0.9-0.1,1.3-0.2c-0.3-0.7-0.6-1.3-0.9-1.8c-4.5-8-9.9-15.4-16-22.3
		c-1.2-1.4-2.1-3.2-4.2-3.6c-0.3-0.1-0.5-0.7-0.8-1.1c-0.8-1.1-1.4-2.3-2.4-3.1c-3.1-2.9-6.4-5.6-9.5-8.5
		c-6.3-5.7-13-10.9-20.2-15.5c-2-1.2-4.1-2.3-6.1-3.6c-6-3.7-11.9-7.7-18-11.2c-6.1-3.5-12.5-6.6-18.8-9.9
		c-4.1-2.1-8.2-4.4-12.4-6.3c-8.1-3.6-16.3-7-24.5-10.5c-2.4-1-4.9-2-7.4-3.1c-1,1.6-1.9,3-2.9,4.5c3.8,1.6,7.3,3.2,11,4.5
		c8.2,2.9,15.8,7.2,23.6,11.1c0.3,0.2,0.5,0.8,1,1.8c-1.2-0.4-1.8-0.5-2.4-0.7C47.5,35.2,36.4,30.6,25,26.5
		c-0.5-0.2-1.1,0.1-1.7,0.1c1.3,1,2.9,1.3,4.1,2.1c1.2,0.7,3.2,0.4,3.8,2.4c-8.5-2.6-8.5-2.6-10.4-1.1c1.2,0.5,2.3,1,3.5,1.3
		c2.6,0.8,5.3,1.3,7.8,2.4c6.8,3,13.6,6,20.3,9.3c3.8,1.9,7.3,4.4,10.9,6.5c5.8,3.4,11.7,6.6,17.3,10.2c10.7,6.9,21,14.4,30.3,23.2
		c5.5,5.2,11.1,10.2,16.7,15.3c6.9,6.2,12.3,13.5,16.6,21.7c1,1.9,1.7,4,2.7,5.9c2.6,4.6,4.1,9.5,5.6,14.5c1,3.5,1.8,7.1,2.7,10.7
		c0,0.1,0.2,0.2,0.5,0.5C155.9,150.6,156,149.9,156.1,149.2z M162.7,164.2c-2.4-1-4.5-2.3-6.8-2.7c-3.3-0.6-6.3-1.9-9.4-2.8
		c-1.6-0.5-3.3-0.9-4.9-1.6c-6.1-2.4-12.1-4.8-18.1-7.3c-9.5-4-19-7.9-27.6-13.7c-7.8-5.2-15.5-10.5-23.1-15.8
		c-3.2-2.2-6.3-4.5-9.3-7c-4.2-3.6-8.4-7.4-12.3-11.3c-6.6-6.7-13.1-13.6-19.6-20.4c-0.6-0.7-1.2-1.4-1.9-2.2
		c-1.7,1.4-3.2,2.7-4.8,4.1c6.1,10,14.6,17.5,22.8,25.2c-7.8-5.7-14.5-12.4-20.7-19.8c-0.4,0.2-0.8,0.4-1.1,0.5
		c-1-1.1-2.1-2.1-3.1-3.1c-0.2,0.1-0.3,0.3-0.5,0.4c1,1.4,2.1,2.9,3.4,4.7c-2.6-0.6-3.1-3.1-5.2-3.5c3.4,3.9,6.7,7.7,10.1,11.6
		c-2.3-1.6-4.2-3.5-6.2-5.4c-1.9-1.8-3.3-4.3-5.8-5.5c0.2,1,0.5,2,1.1,2.7c1.9,2.4,3.9,4.8,6,7.2c6.2,7.2,13.5,13.2,20.9,19
		c2.3,1.8,4.8,3.4,6.9,5.4c2.2,2.1,5.1,2.8,7.3,4.8c2.8,2.5,6.2,4.2,9.4,6.2c4.3,2.7,8.6,5.4,13,8c2.6,1.5,5,3.8,8.4,3.4
		c0.4,0,0.9,0.3,1.3,0.5c3.2,1.6,6.4,3.2,9.6,4.9c3,1.6,5.9,3.4,8.9,4.9c2.4,1.2,5,2.3,7.5,3.3c3.3,1.4,6.3,3.4,10.4,3.6
		c-2-1.1-3.5-2-5.1-2.8c-1.5-0.7-2.3-2.2-3.9-2.9c-7.4-3.4-14.7-6.9-21.9-10.6c-4.1-2.1-8.1-4.5-12.1-6.9
		c-6.4-3.8-12.8-7.5-19.2-11.4c-0.4-0.3-0.6-0.8-1-1.3c0.1-0.2,0.3-0.3,0.4-0.5c1.2,0.7,2.4,1.3,3.6,2c6.4,3.9,12.7,7.9,19.2,11.5
		c8.2,4.5,16.6,8.6,24.9,12.8c7.7,3.9,15.6,7.3,23.7,10.2c1.2,0.4,2.4,0.6,3.6,0.8c0.1-0.2,0.1-0.4,0.2-0.6c-0.8-0.4-2.2-1-2.2-1.3
		c0.4-2.1-1.4-1.7-2.3-2.1c-1.6-0.7-3.3-1-4.8-1.6c-4.3-1.7-8.6-3.4-12.9-5.1c-0.4-0.2-0.7-0.6-1-1c3.8,0.9,7.2,2.3,10.7,3.5
		c3.6,1.3,7.3,2.6,11,3.7c3.6,1,7.4,1.6,11,2.6C155,162.8,158.5,164.7,162.7,164.2z M110.5,41c0.6-0.6,1-0.9,1.4-1.4
		c-3.3-3.9-6.4-7.9-9.7-11.6c-3.5-4-7-7.9-10.6-11.8C87.8,12,83.9,8,80,3.8c-0.8-0.9-1.6-1.6-2.9-0.3c1.4,1.6,2.9,3,4.2,4.6
		c1.2,1.5,2.3,3.2,3.4,4.9c1.1,1.6,2.1,3.3,3.1,4.9c-0.2,0.1-0.3,0.2-0.5,0.3c-3.6-4.6-6.5-10-11.5-13.4c1.7,2.4,3.8,4.5,5,7.5
		c-1.4,0.1-1.8-2.3-3.3-0.8c0,0-0.6-0.4-0.8-0.7c-0.6-0.6-1-1.4-1.7-1.9c-0.9-0.9-1.8-2-3.9-2.3c2.4,2.5,4.3,4.5,6.2,6.6
		c7.5,8.4,13.1,18.2,19.5,27.4c3.2,4.6,6,9.4,9.2,13.9c1.4,2,3.3,3.6,5.1,5.2c1.4,1.2,3,2,4.5,3c-0.9-2.2-2-4-3.2-5.9
		c-1.2-1.8-2.3-3.7-3.6-5.4c-1.3-1.8-2.8-3.6-4.1-5.4c-1.3-1.7-2.7-3.4-3.9-5.2c-1.2-1.7-3-2.9-3.4-5.2c0.8,0.4,1.5,1,2.1,1.7
		c3.5,4.4,7,8.7,10.3,13.2c2.9,4,5.4,8.2,8.1,12.3c1.8,2.8,4.4,4.6,7.3,6.1c-1.3-2.2-2.8-4.3-4.2-6.4c-1.4-2-2.6-4.2-4-6.2
		c-1.4-2.1-2.8-4.3-4.3-6.3c-1.5-2-3.3-3.9-4.9-5.9c-1.6-2-3-4.2-4.5-6.2c-1.4-2-2.8-4-4.4-5.9c-1.6-2-3.4-3.8-4.9-5.8
		c-1.5-1.9-3.5-3.5-4.4-5.9c0.8,0.1,1.4,0.3,1.8,0.7c0.5,0.5,0.9,1.2,1.3,1.8c3.4,4.1,6.9,8.2,10.3,12.4c1.9,2.4,3.5,4.9,5.3,7.3
		c4.3,5.5,8.9,10.8,12.2,17c2.3,4.3,6.6,7.2,7.8,12.2c0,0.1,0.3,0.2,0.4,0.4c2.7,2.3,5.4,4.7,8.1,7C130.1,65.1,120.3,53.2,110.5,41z
		 M139.5,144.8c-1.3-4.2-3.4-7.7-5.3-11.3c-5.4-10.7-13.4-19.4-22.1-27.5c-4.4-4.1-9.3-7.4-14.2-10.9c-9.4-6.8-19.5-12.3-30.5-16.1
		c-0.9-0.3-1.8-0.8-3.1-0.4c0.7,0.5,1,0.8,1.4,1.1c10.2,7.1,20,14.9,29.7,22.7c10.5,8.5,19.8,18,28.7,28.1c3.3,3.7,6.6,7.3,9.7,11.1
		C135.4,143.3,136.9,144.4,139.5,144.8z M73.3,138.4c-2.7-1.9-5-3.8-8.5-3.8c-3.3,0-6.6-0.4-9.9-0.7c-1.5-0.1-3-0.3-4.5-0.4
		c-6.3-0.2-12.5-0.4-19.5-0.6c0.8-0.6,1.2-1.2,1.7-1.2c1-0.1,2.1-0.1,3.1,0c9.1,0.6,18.1,1.1,27.2,1.7c0.6,0,1.1-0.1,1.9-0.1
		c-2.2-2.6-5-2.8-7.7-2.9c-8.7-0.2-17.3-0.6-26,0.1c-6.4,0.5-12.8,1.2-18.6,4.4c-0.2,0.1-0.5,0-1.1-0.1c0.5-0.5,0.8-0.9,1.2-1.1
		c2.8-1.7,5.8-2.6,9-3.2c7.9-1.4,15.8-1.7,23.7-1.6c3.7,0.1,7.4,0,11,0c0.6,0,1.1,0.1,1.9,0.1c-1.8-2.6-4.4-2.4-6.6-2.6
		c-10.1-0.8-20.2-0.4-30.2,1.4c-5.4,1-10.5,3.2-15.1,6.2c-2.3,1.4-3.1,3.6-2.7,6.3c1.4-0.3,2.7-0.6,4-0.7c1.3,0,2.4-1.6,4.2-0.3
		c-1,0.5-1.8,0.8-2.5,1.1c-0.8,0.4-1.7,0.8-2.5,1.2c0.5,0.5,0.9,0.8,1.3,1.2c-3.8,2.1-5.2,3.3-5.5,4.9c1.5-0.9,2.8-1.8,4.2-2.6
		c3.8-2.3,7.6-4.5,12-5.7c12.1-3.2,24.4-4.2,36.8-3C61.4,136.8,67.2,137.6,73.3,138.4z M57,62.7c-5.1-2.5-10-4.9-14.9-7.3
		c-2.2-1.1-4.5-1.9-6.7-3c-5.5-2.6-11.2-4.6-17-6.2c-2.1-0.6-2.1-0.5-3.5,1.6c3.5,1.8,3.5,1.8,4.1,3.9c-1.2-0.2-2.3-0.4-3.4-0.7
		c-1-0.2-2.1-0.6-3.1,0.4c14.8,4.6,28.6,10.9,41.8,19.7C55.3,68.2,56.1,65.7,57,62.7z M138,150.7c0-1.9-1-2.4-2.1-2.8
		c-4-1.6-8-3.3-12.1-4.7c-6-2-12.1-3.7-18.2-5.4c-1.3-0.4-2.6-0.6-3.9-0.8c12.7,7.3,26.2,12.6,39.8,17.7c-1.2-2.4-3.9-2.3-5.8-3.4
		c-2.1-1.2-4.4-2.1-6.7-3.1c-2.1-1-4.3-1.9-6.5-2.8c-2.3-0.9-4.6-1.8-6.9-2.6c-2.1-0.8-4.2-1.5-6.3-2.3
		C119.5,142,128.6,146.4,138,150.7z M143.1,83.9c-3.3-6.7-6.7-13.2-11.1-18.9c-4.4-5.7-8.5-11.7-13.7-16.7c0.5,1.2,1.1,2.2,1.9,3.1
		c5.8,6.5,10.3,13.9,15,21.2c1.6,2.4,3.2,4.9,4.4,7.6C140.3,81.8,141.1,83.1,143.1,83.9z M96.5,133.5c-0.1,0.2-0.2,0.4-0.3,0.6
		c0.7,0.4,1.4,1.1,2,1c2.6-0.3,5,0.8,7.4,1.4c9.1,2.4,18.2,4.9,26.9,8.6c0.3,0.1,0.7,0.3,1.1,0.3c0.4,0.1,0.7,0.1,1.1,0.1
		C122.6,139.3,109.6,136.2,96.5,133.5z M116.9,161.6c-7.2-5-14.5-9.9-22.8-13.1C101.5,153.2,108.7,158.4,116.9,161.6z M140.4,189.1
		c-2.6-1.4-5.3-2.8-8.1-4.1c-0.5-0.3-1.3-0.4-1.8-0.2c-1.1,0.5-2,1.2-3.2,1.9C130.9,188.7,135,189.4,140.4,189.1z M90.1,129.9
		c0.5,0.4,0.9,1,1.5,1.1c8.9,2.1,17.7,4.1,26.6,6.2C109.1,133.9,99.8,131.1,90.1,129.9z M165.8,134c-0.2,0.1-0.4,0.1-0.6,0.2
		c1.5,4.9,3.1,9.7,4.6,14.6C170.6,143.2,168.1,138.6,165.8,134z M154.7,184.4c-6.1,1.7-12.1,2.4-18.3,1
		C142.7,188.6,148.7,187.3,154.7,184.4z M146.5,138c1.6,5.1,3,9.8,4.5,14.9C151.5,149.4,149,141,146.5,138z M142.1,181.4
		c-1.5-2.4-3.8-2-5.7-2.8c-0.3,0.7-0.5,1.3-0.8,1.9C137.7,181.6,139.6,182.3,142.1,181.4z M171.1,161.1c0.4-3.1-0.5-5.8-1.9-8.4
		C169.6,155.6,169.7,158.5,171.1,161.1z M132.9,170c-0.1,0.2-0.1,0.3-0.2,0.5c2.9,2,6.1,3.3,9.6,3.8c0.1-0.2,0.2-0.4,0.2-0.6
		C139.2,172.5,136,171.2,132.9,170z M179.6,160.1c-1,0.3-1.9,0.7-3.4,1.2c3,1.3-0.3,2.3,0.1,3.6c0.9-0.6,1.6-1.1,2.5-1.6
		C177,161.7,180,161.4,179.6,160.1z M176.1,155c0.6-3,0-5.8-1.7-8.3C175,149.5,175.6,152.3,176.1,155z M175.9,111.2
		c-0.2,0-0.5,0.1-0.7,0.1c0.5,2.3,1,4.6,1.6,6.9c0.2,0,0.4-0.1,0.7-0.1C176.9,115.8,176.4,113.5,175.9,111.2z M164.4,160.5
		c-0.5-2.1-0.8-3.6-1.1-5.1C162.6,157.7,162.8,158.7,164.4,160.5z M237.6,333.4c0.3-0.9,0.6-1.7,1.1-3c-1.3,0.9-2.2,1.5-3.3,2.3
		C236.3,333,236.8,333.1,237.6,333.4z M239.4,333.3c0.8,0.5,1.3,0.9,2,1.3c0.3-1,0.6-1.8,0.9-3C241.1,332.2,240.4,332.7,239.4,333.3
		z M151.5,143.8c-0.2,0.1-0.4,0.2-0.7,0.3c0.4,1.5,0.8,3,1.2,4.4c0.2-0.1,0.4-0.1,0.6-0.2C152.3,146.9,151.9,145.4,151.5,143.8z
		 M139.7,184.2c0-0.2,0.1-0.4,0.1-0.6c-1.6-0.4-3.2-0.8-4.7-1.2c0,0.2-0.1,0.4-0.1,0.6C136.5,183.4,138.1,183.8,139.7,184.2z
		 M131.8,162.3c-0.1,0.1-0.2,0.2-0.3,0.3c1.2,0.4,2.4,0.7,3.5,1.1c0-0.1,0.1-0.2,0.1-0.3C134.1,163,133,162.7,131.8,162.3z M5.1,143
		c-1.9-0.9-1.9-0.9-2.1,1C3.6,143.7,4.2,143.4,5.1,143z M176.2,131.6c0.5-1.9,0.5-1.9-0.7-2.5C175.7,130,175.9,130.8,176.2,131.6z
		 M157.8,167.7c0-0.2,0-0.3,0-0.5c-0.8-0.2-1.5-0.3-2.3-0.5c0,0.1,0,0.2,0,0.2C156.3,167.2,157,167.4,157.8,167.7z M138.3,146.4
		c1.1,1.3,1.1,1.3,2.7,1.2C140,147.2,139.3,146.9,138.3,146.4z M144.7,181.5c0,0.2,0,0.4,0,0.7c0.5-0.1,1-0.1,1.5-0.2
		c0-0.2,0-0.3,0-0.5C145.8,181.6,145.2,181.6,144.7,181.5z M168.5,93.8c0.2-0.1,0.3-0.1,0.5-0.2c-0.1-0.3-0.1-0.7-0.2-0.9
		c-0.2-0.3-0.5-0.5-0.7-0.8c-0.1,0.1-0.1,0.1-0.2,0.2C168,92.7,168.2,93.2,168.5,93.8z"/>
	<path d="M113.6,197.6c1-2.6,2.9-4.3,5.3-5.5l-0.1-0.1C117.1,193.9,115.3,195.7,113.6,197.6L113.6,197.6z"/>
	<path class="st0" d="M113.5,197.6c1.8-1.8,3.5-3.7,5.3-5.5c1.6-1,3.2-2,4.6-3.1c1-0.8,2-0.7,3.2-0.4c7.5,2.3,15,2.5,22.6,0.8
		c0.9-0.2,2.4-0.3,2.6-0.9c1.5-3.2,5.5-2.9,7.4-5.6c0.8-1.1,2.6-1.5,4-2c7.9-3.3,15.3-7.5,22-12.8c1.2-1,2.3-2.1,3.2-3.4
		c-9,7.6-19.3,12.7-30.3,16.5c0.4-0.3,0.7-0.6,1.2-0.8c7.1-3.4,14-7.1,20.5-11.4c0.5-0.4,1.2-0.7,1.8-0.8c1.6-0.3,2.5-1.6,2.4-2.7
		c-0.1-1.8,1.1-2.4,2-3.3c1.7-1.6,3.4-3.3,5-5c0.7-0.7,1.1-1.6,0.8-3.1c-3.1,4.9-7.2,8.2-11.4,11.4c-0.2-0.2-0.3-0.3-0.5-0.5
		c3.3-3.3,6.7-6.6,10.4-10.3c-1.1-0.1-1.5-0.2-1.8-0.2c0.5-1.3,0.5-1.3,6.4-1.2c-0.5,2.1-2.7,3.3-3.1,5.4c2.3-1.3,3.5-3.6,5.1-5.8
		c7.6,0,15.3-0.5,23,0c7.2,0.5,14.1,2.4,20.7,5.6c9.4,4.5,18.2,10,25.9,17.1c1,0.9,1.9,1.8,2.4,3.2c0.6,1.5,2.2,2.8,3.6,4
		c3.8,3.3,5.8,7.6,7.5,12.1c1.3,3.5,2.7,6.9,3.8,10.4c0.8,2.3,1.3,4.7,1.7,7.2c0.7,3.8,1.4,7.6,2,11.5c0.1,0.6,0.7,1.5-0.6,1.8
		c-0.1,0-0.1,0.8-0.1,1.2c1.5,8.9,0.6,17.7-1.4,26.4c-0.3,1.3-1,2.3-2.1,3.2c-2.4,1.9-4.6,3.9-6.9,5.9c-0.3,0.3-0.5,0.7-0.5,1.3
		c2.6-2.1,5.2-4.2,7.8-6.4c0.2,0.1,0.3,0.2,0.5,0.2c-0.1,0.5-0.1,1.2-0.4,1.6c-1.7,2.8-4.3,4.8-6.7,6.8c-2.3,1.9-4.8,3.5-7,5.5
		c2,0.4,2.6-1.6,4-2.3c1.6-0.7,3-1.9,4.4-3c1.3-1,2.6-2.1,4.1-3.4c-0.1,2.8-1.5,4.5-3.2,5.8c-3.1,2.5-6.3,4.8-9.5,7.1
		c-1,0.7-2,1.5-3,2.2c0.1,0.2,0.3,0.4,0.4,0.6c4.2-2.9,8.4-5.7,12.7-8.7c0,2.4-1.2,4-2.8,5.3c-2.8,2.2-5.7,4.3-8.5,6.5
		c-0.6,0.4-1.2,0.9-1.6,1.5c3.5-1.1,6.2-3.7,9.4-5.4c-2.4,3.7-6.2,6.1-9.3,9.7c1.7,0.2,2-1.2,2.8-1.7c0.9-0.6,1.7-1.5,2.6-2.3
		c0.3,0.7,0.6,1.3,1,2c-1.5,1.8-3.1,3.6-4.6,5.5c-1.9,0.7-3.1,2.1-3.9,3.9c1.3-1.3,3.4-1.8,3.9-3.9c0.8-0.6,1.7-1.1,2.4-1.7
		c0.8-0.6,1.5-1.4,2.2-2.1c0.2,0.1,0.3,0.3,0.5,0.4c-1,1.5-2,3.2-3.2,4.6c-1.3,1.6-2.9,3-4.4,4.4c-1.4,1.3-2.8,2.6-4.2,3.9
		c0.2,0.2,0.4,0.4,0.5,0.6c2.8-2.6,5.7-5.2,8.5-7.9c-2.3,5.4-6.9,8.7-10.9,12.5c0.2,0.2,0.3,0.3,0.5,0.5c2.5-2.2,5-4.5,7.7-6.9
		c-0.7,6.6-6.4,9.1-9.8,13.3c1.4-0.2,2.1-1.4,3.1-2.2c1-0.8,2-1.6,3.4-2.8c-0.7,4.6-4.6,6.2-6,9.6c1.2-1.1,2.4-2.2,4-3.7
		c-0.4,2.8-0.9,4.8-2.7,6.5c-3,2.9-5.9,6-8.9,9.1c1.9-0.3,3.2-2.9,5.6-1.3c-0.4,0.6-0.8,1.5-1.4,2.3c-1,1.2-1,2.2,0.5,2.9
		c-0.3,1.1-0.6,2.1-1.1,3.4c1.1-0.1,2-0.1,3-0.2c-0.3,0.6-0.5,1.2-0.8,1.8c-2.1,0.3-3.7-2.4-5.9-0.6c0-1,0-1.7,0.1-2.7
		c-1,0.2-1.8,0.4-2.7,0.6c0-0.6-0.1-1.3-0.1-1.9c-1.8-0.8-2.7,0.9-3.8,1.2c-0.6-1.4-1.2-2.8-1.9-4.3c-1.1,0.2-2.1,0.4-3.1,0.7
		c0-0.6,0.1-1.2,0.1-2c-3.2,0-4.8,2.6-7.2,3.7c-2-0.4-3.9-0.7-6.5-1.2c2.9-2.1,5.4-3.9,7.9-5.7c-0.1-0.1-0.1-0.2-0.2-0.4
		c-0.3,0.1-0.7,0.1-0.9,0.3c-2.5,1.5-5,3.1-7.4,4.7c-1.8,1.2-3.6,1.3-6.1,0.8c6.2-3.7,12-7,16.1-13c-1.4-0.3-2.1,0.6-2.6,1.2
		c-3.8,4.8-9.1,7.6-14.1,10.8c-1.8,1.2-3.7,1.5-5.7,1.7c-3.4,0.2-6.7,0.4-10.2,0.3c1.6-0.8,3.2-1.5,4.8-2.4c2.8-1.7,5.7-3.3,8.4-5.2
		c1-0.6,1.5-1.8,2.3-2.8c1,0.8,1.7,0.1,2.5-0.5c5-3.5,8.8-8.1,13-12.4c0.1-0.1,0-0.5,0-1c-1.7,0.7-2.9,1.7-3.9,2.9
		c-2.4,3.1-5.3,5.6-8.3,8c-1.2,0.9-2.2,2-3.3,3c-3.6,2.1-7.1,4.3-10.7,6.4c-2.6,1.5-5.8,2-7.9,4.4c-0.2,0.2-0.5,0.3-0.8,0.3
		c-2.9,0.2-5.8,0.4-8.9,0.2c0.4-0.3,0.7-0.6,1.1-0.9c0.9-0.8,2.6-0.7,2.6-2.6c0-0.4,1-0.8,1.5-1.1c5.7-3.6,11.6-7.1,17.2-11
		c6.5-4.4,13-8.8,18.1-14.9c1.7-2.1,3.4-4.3,5.1-6.6c-0.8-1-1.5-0.3-2.1,0.2c-0.8,0.9-1.6,1.9-2.3,2.9c-3.7,5.4-8.6,9.5-13.9,13.2
		c-4.9,3.5-9.9,6.9-15,10.1c-3.7,2.4-7.7,4.4-11.5,6.6c-0.8,0.4-1.9,0.8-0.8,2.2c-2,1.3-4.1,2.1-6.6,1.8c-3.2-0.4-6.4-0.7-9.7-1.5
		c2.7-1.3,5.4-2.5,8-4c3.6-2.1,7.2-4.2,10.5-6.6c5.6-4,11-8.3,16.4-12.6c4.5-3.5,8.9-7.1,13.3-10.6c3-2.4,6.3-4.6,9.2-7.1
		c3.1-2.7,5.9-5.8,8.9-8.7c0.1-0.1,0-0.4,0-0.9c-0.7,0.3-1.3,0.4-1.7,0.8c-7.3,7.9-16.3,13.8-24.6,20.5
		c-7.1,5.7-14.5,11.2-21.8,16.8c-6.5,5-13.6,8.8-21.1,12c-0.5,0.2-1.1,0.4-1.6,0.4c-3-0.4-6-0.9-9.7-1.5c1.2-0.7,1.7-1.1,2.3-1.4
		c7.9-4.2,16.1-8,23.7-12.7c6.6-4.1,12.5-9.1,18.7-13.7c4.3-3.2,8.5-6.6,12.8-9.8c7.3-5.4,14.5-10.9,21.2-17c3-2.8,5.7-6,8.5-9.1
		c0.9-1.1,1.5-2.5,1.8-4.2c-0.4,0.2-1,0.2-1.2,0.5c-3.4,5.9-8.6,10.2-13.6,14.6c-8.8,7.7-18.4,14.2-27.5,21.4
		c-5.3,4.1-10.6,8.2-16,12.2c-6.5,4.9-13.6,9-21,12.3c-3.1,1.4-6.1,2.9-9.2,4.5c-0.9,0.4-1.5,1.2-2.6,2.1c-3.7-0.3-13.6-3-15.9-4.7
		c2.4-1.5,4.6-3.1,6.9-4.4c9.7-5.8,19.6-11.4,29.2-17.3c4.8-2.9,9.4-6.3,14-9.6c0.5-0.4,0.9-1,1.4-1.7c-1.4-0.6-2.1,0.1-2.9,0.6
		c-6.7,4.6-13.3,9.4-20.1,13.8c-5.8,3.7-11.9,7-17.8,10.4c-3.8,2.2-7.7,4.4-11.6,6.6c-1.8,1-4.1,0.7-5.6-0.8c-0.6-0.6-1-1.3-1.7-2.2
		c2.3-1.4,4.4-2.8,6.7-4.2c7.1-4.1,14.4-8,21.4-12.3c8.3-5.1,16.5-10.3,24.6-15.8c5.4-3.6,10.5-7.7,15.7-11.7
		c0.4-0.3,0.5-0.9,0.8-1.4c-0.2-0.2-0.3-0.3-0.5-0.5c-0.7,0.4-1.3,0.8-1.9,1.3c-8.5,7.3-17.9,13.3-27.3,19.3
		c-5,3.2-10.1,6.3-15.2,9.3c-6.9,4.1-13.9,8-20.9,12c-0.9,0.5-1.9,0.9-2.7,1.6c-1.8,1.5-3.6,1.4-5.4,0.1c-0.5-0.3-0.9-0.6-1.8-1.2
		c3-1.9,6.1-3.2,9-4.8c2.9-1.6,5.7-3.3,8.5-5.1c2.8-1.9,5.6-3.8,8.4-5.8c2.7-1.9,5.4-3.8,8.2-5.7c2.8-1.9,5.7-3.8,8.4-5.8
		c2.5-2,5.7-3.2,8.1-5.6c-1.2-1.1-1.8-0.4-2.5,0c-6.7,4.7-13.4,9.5-20.2,14.2c-6.2,4.2-12.4,8.3-18.7,12.3c-2.5,1.5-5.3,2.4-7.9,3.7
		c-0.8,0.4-1.4,1-2.4,1.7c-1-0.7-2.3-1.7-4-3c1.3-0.8,2.3-1.6,3.4-2.2c5.4-3.2,10.9-6.1,16.1-9.5c6.9-4.5,13.5-9.4,20.1-14.2
		c0.5-0.4,0.9-1,1.7-1.9c-2.6,0.1-3.8,1.2-5,2.4c-0.8,0.9-1.6,1.9-2.6,2.5c-7.3,5-14.7,10-22.1,14.8c-4.1,2.6-8.4,4.6-12.8,7
		c-1.5-1.6-2.8-3.1-4-4.4c6.1-3.3,12.1-6.7,17.8-10.5c0.8-0.5,1.4-1.2,2.1-1.9c0.1-0.1,0-0.5,0-1.1c-6.4,5.1-13.8,8.2-20.8,12.7
		c-1-1.1-1.8-2.1-2.9-3.3c2.9-1.9,5.5-3.5,8.1-5.2c9.7-6.1,19.4-12.2,29-18.4c3.2-2,6.1-4.5,9-6.8c0.5-0.4,0.8-1,1.2-1.6
		c-0.2-0.2-0.3-0.3-0.5-0.5c-5.1,3.6-10.1,7.4-15.3,10.9c-5.2,3.5-10.6,6.9-16,10.3c-5.4,3.3-10.8,6.5-16.3,9.9
		c-1.3-1.8-2.6-3.4-3.7-5c3.7-2.3,7.4-4.4,10.9-6.7c8.6-5.7,17.1-11.4,25.6-17.3c2.2-1.5,4.1-3.6,6.1-5.5c0.7-0.6,0.7-1.3-0.3-1.7
		c-6.4,7.5-14.9,12.3-23,17.6c-5.1,3.4-10.4,6.6-15.6,9.8c-1.3,0.8-2.8,1.4-4.4,2.2c-1.3-2.1-2.4-3.9-3.7-6
		c12.9-5.9,24.8-12.6,34.7-22.5c-5.5,4-10.9,8.1-16.7,11.8c-5.7,3.7-11.7,7-18.4,9.1c-2.8-3.6-4.1-7.9-5.7-12.3
		c5.8-2,11.2-4.4,15.2-9c-4.8,3.4-9.9,6.1-15.8,7.3c-1.5-2.7-1.4-5.9-2.3-8.9c1.5-1.7,3.6-2.3,5.5-2.9c5.3-1.8,10.4-4,15.2-6.9
		c1.2-0.7,2.1-1.7,3-2.8c-3.9,2-7.6,4.2-11.6,6c-4,1.7-8.1,3-12.5,4.5c-0.2-1.3-0.4-2.4-0.6-3.9c3.3-1,6.4-1.9,9.5-3
		c3-1.1,5.9-2.4,8.8-3.9c-6.2,1.5-12,4.4-18.6,5.1c-0.1-1.1-0.2-2.1-0.3-3.5c2.4-1,4.8-2.1,7.2-3c4.6-1.7,8.9-3.7,12.8-6.6
		c0.7-0.5,1.2-1.2,1.8-1.8c0.1-0.1,0-0.4,0-0.4c-3.3,1.9-6.6,4-10.2,5.6c-3.6,1.7-7.4,2.9-11.3,4.3c-0.2-0.8-0.3-1.4-0.5-2.1
		c3.6-1.7,7.1-3.4,10.5-5.1c-0.1-0.2-0.2-0.4-0.3-0.6c-3.3,1.3-6.5,2.6-9.9,3.9c-0.9-2.7-0.2-5.2-0.3-7.8c4.8-2.5,10.3-3.6,14.6-7.1
		c-4.6,1.6-9.1,3.2-14.2,5.1c1.7-10.7,4.5-20.4,10.1-29.3c3.7-0.7,6.9-2.9,10.1-5.1c0.7-0.5,1.4-1.2,1.7-2.2c-3.1,1.7-6.1,3.3-9.2,5
		c-0.2-0.2-0.3-0.4-0.5-0.6c0.9-1.2,1.8-2.4,2.8-3.6C110.8,200.7,112.2,199.1,113.5,197.6z M155.4,190.8c-0.8,0.2-1.7,0.3-2.5,0.6
		c-10.3,2.8-20.6,3.9-31,0.5c-0.3-0.1-0.6-0.1-1.3-0.2c0.6,0.6,0.8,1.1,1,1.1c1.7,0.6,3.4,1.2,5.1,1.5c7.9,1.4,15.6,0.7,23.3-1.2
		c1.8-0.4,4-0.5,5.4-2.1c3.8-0.5,8.6-2.6,10.3-4.5C162.3,187.9,158.9,189.3,155.4,190.8z M150.7,326.1c0.7,1.3,1.4,1.1,2.2,0.5
		c1.4-0.9,2.9-1.8,4.4-2.6c9.8-4.9,19.1-10.7,28.3-16.6c8.7-5.5,17.3-11.1,25.2-17.7c1.1-0.9,2.2-1.8,3.2-2.7
		c0.3-0.3,0.3-0.9,0.4-1.3c-6.8,5.1-13.5,10.1-20.5,14.6c-7.1,4.5-14.1,9.2-21.3,13.5C165.5,318,158.1,322,150.7,326.1z M238.2,174
		c-1.1,1.6-2.1,3.3-3.2,4.8c-8.8,12.4-19.7,22.9-31.1,32.8c-5.2,4.5-10.5,8.9-15.7,13.4c-0.5,0.4-0.8,1-1.3,1.5
		c0.8,0.2,1.3,0.1,1.7-0.2c1-0.7,1.9-1.6,2.8-2.3c11.7-9.8,23.3-19.6,33.7-30.7c4.6-5,9.1-10.2,12.7-15.9
		C238.4,176.4,239.2,175.6,238.2,174z M248,172.6c-0.9,1.8-1.6,3.4-2.5,4.9c-3.1,5.1-7,9.6-11,14c-8.3,8.8-16.8,17.3-26.1,25.2
		c-0.4,0.3-0.6,0.8-0.9,1.2c0.8,0.2,1.5,0.2,1.9-0.2c1.7-1.5,3.4-3,5-4.6c3.9-3.7,7.8-7.4,11.6-11.2c3.2-3.2,6.3-6.5,9.5-9.8
		c3.9-4,7.6-8.1,10.6-12.9c0.9-1.4,1.6-3,2.5-4.4C249.2,173.9,249.1,173.3,248,172.6z M200.6,204.5c1.3,1.3,1.9,0.4,2.4-0.1
		c1.1-1.1,2-2.2,3.1-3.3c7.5-7.9,15-15.7,22.4-23.6c1.5-1.6,2.8-3.6,4-5.4c0.5-0.7,1.2-1.8-0.1-2.7c-1.4,2.1-2.6,4.2-4.2,6.1
		c-3.3,4-6.8,7.8-10.3,11.6c-4.1,4.3-8.2,8.5-12.4,12.7C203.9,201.4,202.3,202.9,200.6,204.5z M187.5,195.7
		c8.5-2.4,33.6-28.7,34.8-36c-1.4,0-1.6,1.1-2.1,1.9c-3.8,6.1-8,11.8-13.2,16.9c-5.5,5.4-11.2,10.7-17.6,15
		C188.8,193.9,188.4,194.6,187.5,195.7z M226,165.9c-0.2-0.1-0.5-0.2-0.7-0.3c-0.5,0.8-0.9,1.5-1.4,2.3c-0.7,1.1-1.2,2.3-1.9,3.4
		c-4,6.3-9.4,11.3-14.8,16.3c-3.8,3.6-7.8,6.8-11.8,10.1c-0.7,0.6-1.2,1.2-1.8,1.9c0.2,0.2,0.3,0.4,0.5,0.6c0.6-0.3,1.3-0.4,1.8-0.8
		c6-5.4,12.1-10.8,18-16.4c4-3.7,7.6-7.9,10.4-12.6C225.2,169,226.1,167.6,226,165.9z M225.9,210.6c0.2,0.2,0.4,0.4,0.6,0.6
		c0.5-0.2,1-0.3,1.4-0.7c1.5-1.5,3-3.1,4.5-4.7c8.1-8,15.7-16.3,21.4-26.2c0.5-0.9,1.2-1.6,0.6-3.4c-0.9,1.2-1.5,2-2,2.8
		c-2.1,3.1-4,6.4-6.2,9.4c-5.5,7.4-11.8,13.9-18.6,20.1C227,209.2,226.5,210,225.9,210.6z M161.8,183.2c1.1,0.9,2,0.7,2.9,0.3
		c2.5-1,5-1.8,7.3-3c6.4-3.4,12.1-7.9,17.6-12.7c2.9-2.5,5.4-5.5,8-8.3c0.3-0.3,0.4-0.8,0.7-1.7C187.7,169,176.6,178.6,161.8,183.2z
		 M236.4,207.4c1.1,0.7,1.8-0.3,2.3-0.8c7.4-6.4,14.1-13.5,18.7-22.3c-4.2,3.2-6.2,8.3-10,11.9C243.6,199.8,240.1,203.6,236.4,207.4
		z M101.5,279.9c3.9-0.5,7.2-2.5,10.6-4.3c3.5-1.8,6.9-3.9,10.4-5.8c3.4-1.9,6.6-4.2,9.5-6.8C122.2,269.4,111.9,274.7,101.5,279.9z
		 M262.6,189.4c-2,0.3-2.4,2.1-3.1,3.4c-2.9,6-7.3,10.7-12.3,15c-0.6,0.5-1.2,1.1-1.7,1.7c1.1,1.3,1.7,0.4,2.3-0.1
		c6.3-5.3,11.2-11.7,14.8-19C262.8,190.1,262.7,189.8,262.6,189.4z M253.3,212.9c1.4-1.4,2.6-2.5,3.7-3.7c2.3-2.5,4.7-4.9,6.9-7.4
		c1.8-2.1,2.8-4.7,3.4-7.4c0.1-0.4-0.2-0.9-0.3-1.4c-0.2,0-0.4-0.1-0.6-0.1c-0.3,0.8-0.8,1.6-1,2.4c-0.7,2.9-2.3,5.4-4.3,7.5
		c-2.2,2.3-4.5,4.6-6.6,6.9C253.8,210.5,252.6,211,253.3,212.9z M193.3,182.1c0.2,0.2,0.4,0.4,0.6,0.5c3.4-2.9,7-5.6,9.9-9
		c2.9-3.3,6.1-6.5,8.7-10.3c-0.7-0.2-1.1-0.4-1.2-0.4c-5.4,6.1-10.3,12.7-17,17.6C193.9,181,193.6,181.6,193.3,182.1z M99.3,270.6
		c6.1-1.6,22.1-9.4,22.9-13.1c-2,1.4-4.1,2.8-6.1,4.1c-4.2,2.8-8.9,4.6-13.5,6.4C101.4,268.5,100,268.8,99.3,270.6z M259.7,213.2
		c0.1,0.2,0.2,0.4,0.3,0.6c0.5-0.1,1.1-0.1,1.4-0.4c3-2.7,6-5.5,8.8-8.3c1.5-1.6,2.5-3.5,2.7-5.8c0.1-0.9,0-1.7-1-1.7
		c-0.4,1.4-0.8,2.6-1.2,3.8c-1,2.8-3.2,4.6-5.3,6.5C263.6,209.7,261.6,211.4,259.7,213.2z M95.1,243.5c0.5,0.1,1,0.4,1.4,0.2
		c4.9-2.6,9.9-5.1,14.7-7.8c1.1-0.6,2-1.8,2.9-2.8c-0.1-0.2-0.3-0.3-0.4-0.5C108.3,237.5,101.2,239.5,95.1,243.5z M259.5,287.6
		c-0.1-0.2-0.2-0.4-0.4-0.6c-0.5,0.2-1.1,0.2-1.4,0.5c-1.1,1.1-2.1,2.4-3.3,3.5c-2.7,2.5-5.5,4.8-8.3,7.2c-0.6,0.5-1.5,1-0.2,1.9
		c2.4-2,4.9-3.9,7.2-5.9C255.4,292.2,257.7,290.1,259.5,287.6z M114,223.6c-5.3,4.4-12,6-17.8,9.5c0.6,0.3,1.2,0.5,1.5,0.3
		C103.5,230.5,109.9,229,114,223.6z M206.7,163.1c-1,0-1.4-0.1-1.5,0c-3.7,4.3-7.5,8.4-11.9,12c-0.1,0,0.1,0.3,0.3,1.1
		C198.8,172.7,202.5,168.1,206.7,163.1z M265.5,216.2c0.3-0.1,0.7-0.1,0.9-0.3c2.6-2.5,5.3-4.8,7.6-7.5c1-1.1,1.3-2.9,1.8-4.4
		c0.1-0.3-0.3-0.8-0.5-1.2C273.7,208.6,269,212,265.5,216.2z M114.1,215.8c-4.1,3.5-9.4,4.8-14.3,7.6c2.1,0.6,2.1,0.6,8.7-2.6
		C110.8,219.6,113.2,218.6,114.1,215.8z M101.6,216.1c2,0.6,6.1-1.2,10.6-4.3c1.2-0.8,2.6-1.6,2.8-3.9
		C111.2,212.1,106,213,101.6,216.1z M277.6,208.5c-2.2,3.5-3.8,7.4-7.3,10C274.4,217.4,278,212.5,277.6,208.5z M192.1,171.1
		c0.5,0.1,0.8,0.4,0.9,0.3c3.1-2.3,5.8-5,7.9-8.3c0.1-0.2-0.2-0.7-0.4-1.1C197.7,165,195,168,192.1,171.1z M272.4,223.4
		c3.6-1.2,6.8-5.4,6-7.6C276.4,218.3,274.5,220.8,272.4,223.4z M172.5,263.7c-2.7,1.5-5.9,2.3-8.3,4.9c0.7,0.2,1.1,0.4,1.3,0.3
		C167.7,266.9,170.9,266.4,172.5,263.7z M238.5,327.3c-1.9-0.5-6.1,1.8-7.5,4.1C232.9,331.2,234.5,330.3,238.5,327.3z M257.6,255.6
		c0.2,0.2,0.4,0.3,0.7,0.5c1.1-1.2,2.2-2.3,3.3-3.5c0.2-0.2,0.1-0.8-0.1-1c-0.2-0.2-0.9-0.4-0.9-0.3
		C259.5,252.6,257.6,253.5,257.6,255.6z M282.1,226.4c-1.7,1.1-2.8,2.8-3.6,4.7C280.4,230.1,281.9,228.8,282.1,226.4z M280.5,222.3
		c-1.5,1.5-3,2.9-4.8,4.7C278.2,226.6,279.8,225,280.5,222.3z M257.2,320.4c-2.2,0.2-3.5,1.4-4,3.4
		C254.6,323.3,255.6,322.6,257.2,320.4z M279.5,235.1c2.9-0.8,3.5-1.5,3.4-3.8C281.2,232.2,280.4,233.7,279.5,235.1z M255.4,310.3
		c-0.7-0.2-1.2-0.5-1.4-0.4c-1.5,0.8-2.3,2.2-2.7,3.9C252.6,312.7,253.9,311.6,255.4,310.3z M248.1,273.5c-0.3,0.1-0.7,0.2-1,0.3
		c-0.7,1.1-1.5,2.2-2.2,3.3c1.7-0.1,2.7-1,3.3-2.3C248.4,274.5,248.2,273.9,248.1,273.5z M252.7,221.1c0.2,0.2,0.4,0.4,0.6,0.6
		c1-0.7,2.2-1,2.3-3.2C254.4,219.5,253.5,220.3,252.7,221.1z M137.3,235.5c-0.5-0.5-0.9-1-1.2-1c-0.4,0-0.9,0.5-1.3,0.7
		c0.2,0.3,0.4,0.9,0.7,1C135.9,236.2,136.3,235.9,137.3,235.5z M272.1,231.9c0.8-0.5,0.8-1.1,0.2-1.8c-0.1-0.1-0.8-0.1-0.9,0.1
		C271,231,271.3,231.5,272.1,231.9z M256.7,305.3c0.7-1.5,0.7-1.5-0.7-2.4C255.4,304,255.5,304.7,256.7,305.3z M140.8,199.6
		c-0.5-0.5-0.8-1-1.1-1c-0.3,0-0.7,0.4-1,0.7c0.2,0.3,0.4,0.9,0.7,0.9C139.8,200.3,140.2,199.9,140.8,199.6z M246.6,312.9
		c-0.3-0.6-0.5-1-0.8-1.2c-0.1-0.1-0.8,0.2-0.8,0.4c0,0.4,0.2,0.8,0.4,1.1C245.6,313.3,246,313,246.6,312.9z M125.1,199.7
		c-0.5,0.3-1,0.5-1,0.6c0,0.4,0.3,0.8,0.4,1.1c0.3-0.1,0.8-0.2,0.9-0.4C125.4,200.7,125.2,200.3,125.1,199.7z M246.1,328.1
		c-0.4,0.3-0.9,0.6-0.9,0.7c0.1,0.4,0.3,0.8,0.6,1c0.1,0.1,0.9-0.3,0.9-0.4C246.6,329,246.4,328.6,246.1,328.1z M156.5,202.3
		c-0.5,0.3-1,0.5-1,0.7c0,0.4,0.2,0.7,0.4,1.1c0.3-0.1,0.8-0.2,0.9-0.4C156.9,203.3,156.7,202.9,156.5,202.3z M133.7,211
		c-0.2,0-0.5-0.1-0.7-0.1c-0.2,0.5-0.4,1-0.6,1.4c0.4,0.1,0.8,0.2,1.2,0.3C133.7,212,133.7,211.5,133.7,211z M240.3,315.3
		c-0.5,0.4-1,0.7-0.9,0.8c0.1,0.4,0.4,0.7,0.7,1c0.1,0.1,0.6-0.2,0.6-0.3C240.7,316.3,240.5,315.9,240.3,315.3z M170.9,195.4
		c-0.5,0.3-1,0.5-1,0.7c0,0.3,0.2,0.8,0.4,1c0.1,0.1,0.8-0.2,0.9-0.3C171.3,196.5,171.1,196.1,170.9,195.4z M271.9,251.7
		c-0.8-0.9-1-1.3-1.3-1.3c-0.3-0.1-0.6,0.3-0.9,0.4c0.2,0.3,0.4,0.8,0.7,1C270.7,251.9,271.2,251.7,271.9,251.7z M164.4,224.1
		c0.2-0.2,0.4-0.3,0.5-0.5c-0.3-0.3-0.6-0.7-1-0.8c-0.2-0.1-0.9,0.3-0.9,0.4c0,0.4,0.2,0.8,0.5,1
		C163.7,224.4,164.1,224.2,164.4,224.1z M120.3,220c-0.2-0.2-0.3-0.4-0.5-0.5c-0.3,0.3-0.8,0.6-0.8,1c-0.1,0.3,0.2,0.8,0.5,1.1
		c0.1,0.1,0.8-0.1,0.9-0.4C120.5,220.9,120.4,220.4,120.3,220z M253,274.3c-0.5,0.2-1.1,0.3-1.1,0.5c0,0.4,0.2,0.7,0.4,1.1
		c0.3-0.1,0.8-0.2,0.9-0.4C253.3,275.2,253.1,274.8,253,274.3z M242.8,291.7c0.2-0.2,0.4-0.4,0.6-0.5c-0.4-0.3-0.8-0.7-1.2-1
		c-0.2,0.2-0.5,0.6-0.5,0.6C242.1,291,242.4,291.3,242.8,291.7z M240.7,308.5c0.5-0.3,1-0.5,1-0.7c0.1-0.3-0.2-0.6-0.3-1
		c-0.3,0.1-0.8,0.2-0.9,0.4C240.4,307.4,240.6,307.9,240.7,308.5z M255.6,317.1c0.3-0.2,0.7-0.4,0.7-0.5c-0.1-0.3-0.3-0.6-0.4-0.9
		c-0.3,0.2-0.6,0.3-0.9,0.5C255.2,316.4,255.4,316.7,255.6,317.1z M246.9,320.6c0.4,0.6,0.7,1,1.1,1.6
		C248.6,320.7,248.6,320.7,246.9,320.6z M263.1,278.7c-0.6-0.5-0.9-0.8-1.2-1c-0.1-0.1-0.6,0.3-0.6,0.4c0.1,0.3,0.2,0.7,0.5,0.9
		C262,279.1,262.4,278.9,263.1,278.7z M241.2,323.2c-0.5-0.4-0.8-0.8-1-0.8c-0.3,0-0.6,0.3-0.9,0.4c0.2,0.3,0.4,0.7,0.6,0.8
		C240.2,323.7,240.5,323.4,241.2,323.2z M246.8,242.9c0.2,0,0.4,0.1,0.7,0.1c0.8-0.7,0.4-1.4-0.4-2.6
		C246.9,241.6,246.8,242.2,246.8,242.9z M254.5,333.9c-0.5-0.5-0.7-0.9-1-1.1c-0.1-0.1-0.7,0.3-0.7,0.5c0,0.3,0.2,0.7,0.5,0.8
		C253.5,334.2,253.8,334,254.5,333.9z M250.1,303.4c0.2-0.2,0.4-0.3,0.5-0.5c-0.3-0.4-0.6-0.8-0.9-1.1c-0.3,0.2-0.5,0.4-0.8,0.7
		C249.3,302.7,249.7,303,250.1,303.4z M172.2,183c0.2,0.2,0.4,0.3,0.4,0.3c0.7-0.2,1.3-0.4,2-0.5c-0.1-0.3-0.3-0.5-0.4-0.8
		C173.6,182.3,172.9,182.7,172.2,183z M257.6,296.4c0.4-0.6,0.6-0.8,0.7-1.1c0-0.2-0.2-0.5-0.3-0.7c-0.3,0.2-0.8,0.3-0.8,0.5
		C257.1,295.3,257.4,295.7,257.6,296.4z"/>
	<path class="st0" d="M156.1,149.2c-0.1,0.7-0.2,1.4-0.4,2.2c-0.3-0.3-0.4-0.3-0.5-0.5c-0.9-3.6-1.6-7.2-2.7-10.7
		c-1.5-5-3-9.9-5.6-14.5c-1.1-1.9-1.7-4-2.7-5.9c-4.3-8.2-9.7-15.5-16.6-21.7c-5.6-5.1-11.2-10.1-16.7-15.3
		c-9.3-8.7-19.6-16.2-30.3-23.2c-5.6-3.6-11.5-6.8-17.3-10.2c-3.7-2.2-7.1-4.6-10.9-6.5c-6.7-3.3-13.5-6.4-20.3-9.3
		c-2.5-1.1-5.2-1.5-7.8-2.4c-1.1-0.4-2.2-0.8-3.5-1.3c1.9-1.5,1.9-1.5,10.4,1.1c-0.6-2-2.6-1.6-3.8-2.4c-1.2-0.8-2.7-1.1-4.1-2.1
		c0.6,0,1.2-0.3,1.7-0.1c11.4,4.1,22.5,8.7,33.1,14.7c0.5,0.3,1.2,0.4,2.4,0.7c-0.5-1-0.7-1.6-1-1.8C51.7,36.2,44.1,32,35.9,29
		c-3.6-1.3-7.1-2.9-11-4.5c1-1.5,1.9-2.9,2.9-4.5c2.6,1.1,5,2,7.4,3.1c8.2,3.5,16.4,6.9,24.5,10.5c4.2,1.9,8.3,4.1,12.4,6.3
		c6.3,3.3,12.6,6.4,18.8,9.9c6.1,3.5,12,7.5,18,11.2c2,1.2,4.1,2.3,6.1,3.6c7.2,4.5,13.9,9.7,20.2,15.5c3.1,2.9,6.4,5.6,9.5,8.5
		c0.9,0.9,1.6,2.1,2.4,3.1c0.3,0.4,0.5,1,0.8,1.1c2.1,0.4,3,2.2,4.2,3.6c6.1,6.9,11.5,14.2,16,22.3c0.3,0.6,0.6,1.2,0.9,1.8
		c-0.5,0.1-0.8,0.1-1.3,0.2c2.3,5.1,4.6,10.2,5.6,15.7c-0.4-0.7-0.9-1.3-1.2-2c-3.2-6.9-6.8-13.6-10.9-20.1
		c-4.3-6.7-8.8-13.1-14.2-19c-6.7-7.4-14.2-13.9-22.4-19.6c-6.1-4.3-12.1-8.7-18.3-12.9c-2.9-2-6-3.6-9-5.3
		c-5.5-2.9-11.1-5.6-16.6-8.4c-0.2-0.1-0.5-0.1-1.1-0.2c1.2,1.7,2.7,2.7,4.2,3.3c6.8,2.6,12.8,6.5,19.1,10c1.6,0.9,3,1.9,4.5,2.9
		c2.5,1.7,5,3.3,7.5,5.1c8.7,6.4,17.5,12.5,25.3,20.1c6.1,6,11.7,12.3,16.4,19.4c3.6,5.4,7,11,10.1,16.7c2.8,5.3,5,10.9,7.6,16.8
		c-0.8-0.1-1.1-0.2-1.6-0.2c0.3,1.8,0.6,3.6,0.9,5.4c-0.2,0-0.4,0.1-0.6,0.1c-2.4-9.1-6.6-17.3-11.3-25.2c-0.1-0.1-0.5-0.1-1-0.1
		c0.3,2.6,2.4,4.3,2.8,6.9c-0.5,0-0.9-0.1-1.8-0.1c0.5,1,0.9,1.9,1.3,2.8c1.2,3.2,2.4,6.4,3.6,9.6c0.6,1.6,1,3.3-0.3,5.3
		c-0.5-1.1-0.9-2.1-1.2-3.1c-0.8-2.8-1.4-5.7-2.2-8.5c-2-7.3-5-14.3-9-20.8c-6.6-10.7-13.4-21.3-23.1-29.6c-4.2-3.6-8.7-7-13.1-10.3
		c-2.2-1.6-4.5-3.1-6.8-4.6c-1-0.6-1.6-0.3-1.7,0.7c5.3,3.8,10.5,7.5,15.7,11.3c9.2,6.8,16.3,15.4,22.5,24.9
		c1.6,2.5,3.3,4.9,4.8,7.4c5.5,9.1,9.1,18.9,11.4,29.2c0.9,4.1,2.2,8.2,3.2,12.3c0.3,1.2,0.4,2.5,0.7,3.7c-0.2,0.1-0.4,0.1-0.6,0.2
		c-0.3-0.4-0.7-0.7-0.8-1.2c-0.7-2.7-1.3-5.5-2.1-8.3c-1.2-4.6-2.4-9.3-3.6-13.9c-0.2-0.8-0.6-1.5-1.2-2.2c0.1,4.2,2.8,8.2,1.2,12.6
		c-1.5-5.1-2.8-10.2-4.6-15.1c-2.1-5.9-4.3-11.7-6.8-17.4c-1.6-3.5-3.9-6.7-5.9-10c-0.3-0.4-0.9-0.7-1.7-0.7
		c0.1,0.5,0.1,1.1,0.4,1.5c6.8,9,10.3,19.5,13.7,30c0.3,0.9,1,1.8-0.2,2.8c-0.3,0.3,0.1,1.6,0.3,2.4c1,4.9,1.9,9.8,2.9,14.7
		c0.2,0.9,0.1,1.8-0.1,2.7C156.9,155.4,157.2,152.2,156.1,149.2z M111.3,77.8c1.7,2.4,4.1,3.3,5.8,4.8c1.8,1.5,3.7,2.9,5.6,4.2
		c1.8,1.4,3.2,3.4,6.2,4.2c-2.4-2.9-13.5-12-16-13.2C112.6,77.7,112.2,77.8,111.3,77.8z M105.1,68.5c-1.9-2.7-5.1-4.5-7.4-4.5
		c1.2,1.9,3.3,2.2,4.7,3.4C103,68,103.8,68.1,105.1,68.5z M159.4,120.7c0.3-0.1,0.5-0.3,0.8-0.4c-0.5-1.2-0.9-2.4-1.5-3.5
		c-0.5-1-0.9-2.4-2.9-2.6C157.2,116.5,157.6,119,159.4,120.7z M72.4,48.4c-2-1.4-3.8-3.1-6.4-3.2C67.8,46.8,69.9,48.1,72.4,48.4z
		 M139.7,100.7c-1.9-2.2-3.4-3.9-5.1-5.9C134.5,97.4,136.9,100.2,139.7,100.7z"/>
	<path class="st0" d="M162.7,164.2c-4.2,0.4-7.7-1.4-11.4-2.3c-3.7-0.9-7.4-1.5-11-2.6c-3.7-1.1-7.4-2.4-11-3.7
		c-3.5-1.3-6.9-2.7-10.7-3.5c0.3,0.3,0.6,0.8,1,1c4.3,1.7,8.6,3.5,12.9,5.1c1.6,0.6,3.3,0.9,4.8,1.6c0.9,0.4,2.7,0.1,2.3,2.1
		c-0.1,0.3,1.4,0.9,2.2,1.3c-0.1,0.2-0.1,0.4-0.2,0.6c-1.2-0.3-2.5-0.4-3.6-0.8c-8.1-2.9-16-6.3-23.7-10.2
		c-8.3-4.2-16.7-8.3-24.9-12.8c-6.5-3.6-12.8-7.7-19.2-11.5c-1.2-0.7-2.4-1.3-3.6-2c-0.1,0.2-0.3,0.3-0.4,0.5c0.3,0.4,0.5,1,1,1.3
		c6.4,3.8,12.8,7.6,19.2,11.4c4,2.3,7.9,4.8,12.1,6.9c7.2,3.7,14.5,7.3,21.9,10.6c1.6,0.7,2.4,2.2,3.9,2.9c1.6,0.8,3.1,1.7,5.1,2.8
		c-4.1-0.3-7.2-2.3-10.4-3.6c-2.5-1.1-5.1-2.1-7.5-3.3c-3-1.5-5.9-3.3-8.9-4.9c-3.2-1.7-6.4-3.3-9.6-4.9c-0.4-0.2-0.9-0.6-1.3-0.5
		c-3.4,0.4-5.8-1.9-8.4-3.4c-4.4-2.6-8.7-5.3-13-8c-3.2-2-6.7-3.7-9.4-6.2c-2.3-2-5.2-2.8-7.3-4.8c-2.1-2-4.6-3.6-6.9-5.4
		c-7.4-5.8-14.7-11.8-20.9-19c-2-2.4-4-4.8-6-7.2c-0.6-0.7-0.9-1.7-1.1-2.7c2.6,1.3,3.9,3.7,5.8,5.5c1.9,1.9,3.8,3.8,6.2,5.4
		c-3.4-3.9-6.7-7.7-10.1-11.6c2.1,0.3,2.6,2.9,5.2,3.5c-1.3-1.8-2.3-3.3-3.4-4.7c0.2-0.1,0.3-0.3,0.5-0.4c1,1,2.1,2.1,3.1,3.1
		c0.3-0.1,0.6-0.3,1.1-0.5c6.2,7.3,12.9,14.1,20.7,19.8c-8.3-7.7-16.7-15.1-22.8-25.2c1.6-1.3,3.2-2.7,4.8-4.1
		c0.7,0.8,1.3,1.5,1.9,2.2c6.5,6.8,13,13.7,19.6,20.4c3.9,4,8.1,7.7,12.3,11.3c2.9,2.5,6.1,4.8,9.3,7c7.7,5.3,15.3,10.7,23.1,15.8
		c8.6,5.7,18.1,9.7,27.6,13.7c6,2.5,12.1,4.9,18.1,7.3c1.6,0.6,3.2,1.1,4.9,1.6c3.1,0.9,6.1,2.2,9.4,2.8
		C158.2,161.9,160.3,163.2,162.7,164.2z M102.2,143.1c0.1-0.2,0.2-0.5,0.3-0.7c-1.5-0.7-3-1.5-4.5-2.2c-8.6-4.3-16.6-9.7-24.5-15.2
		c-4-2.8-8.1-5.5-11.8-8.7c-8.7-7.5-17.2-15.2-25.9-22.8c-0.3-0.3-0.8-0.5-1.2-0.7c-0.1,0.2-0.2,0.3-0.4,0.5c1.4,1.3,2.8,2.7,4.2,4
		c5,4.5,10,8.9,15,13.4c5.2,4.7,10.3,9.4,16.2,13.3c3.7,2.5,7.3,5.1,11,7.5c6.4,4.1,12.7,8.4,19.9,11.3
		C101,142.7,101.6,142.9,102.2,143.1z M106.5,147c1.9,1.1,3.8,2.3,5.7,3.3c0.7,0.4,1.4,0.5,1.7-0.7
		C111.4,148.8,109.4,146.9,106.5,147z M56.6,120.1c-0.1,0.2-0.2,0.3-0.4,0.5c3.3,3.8,4.3,4.4,6.1,3.8
		C60.4,122.9,58.5,121.5,56.6,120.1z"/>
	<path class="st0" d="M141.2,132.5c-1.4-2.5-2.8-5.1-4.2-7.6c-2.2-3.9-5.2-7.2-8.5-10.1c-0.2-0.2-0.5-0.3-0.7-0.4
		c-0.2-0.1-0.4,0-0.7,0c-0.1,1.1,0.9,1.6,1.5,2.1c5.9,5.3,9.4,12.2,12.5,19.3c0.2,0.4,0.1,0.9,0.2,1.3l-0.2,0.1
		c-0.8-1.4-1.5-2.8-2.3-4.2c-0.3-0.5-0.9-0.9-1.4-1.3c-0.2,0.2-0.4,0.3-0.6,0.5c0.8,1.4,1.7,2.8,2.4,4.2c0.7,1.4,1.1,2.9,1.1,4.6
		c-0.2-0.3-0.5-0.6-0.7-0.9c-5.2-11.7-12.3-22-21.5-31c-5.1-4.9-10.4-9.6-16.4-13.5c-4.7-3-9.1-6.5-13.9-9.3
		c-4.5-2.6-9.2-4.8-14-6.8c-4.7-1.9-9.6-3.4-14.4-5c-0.2-0.1-0.4-0.3-1-0.7c3.9-1.1,7.3,1.6,11.4,0.4c-0.8-0.5-1.2-1-1.7-1.1
		c-2.8-0.5-5.5-0.9-8.2-1.6c1.9-0.4,3.8-1,5.7-1.3c0.8-0.1,1.7,0.1,2.5,0.4c4.2,1.4,8.4,2.9,12.5,4.4c0.5,0.2,1,0.2,1.5,0.1
		c-7.4-4.1-15.5-6.4-23.7-8.1c0.4-2.8,1.1-3.4,3.7-2.9c3.1,0.6,6.1,1.3,9.1,2c8.4,1.9,16.7,4.3,24.4,8.3c6,3.1,11.5,6.9,16.3,11.6
		c5,4.9,10.3,9.4,15.3,14.2c5.8,5.6,10.7,11.9,14.5,19.1c0.9,1.7,1.5,3.4,2,5.3c-5.6-8.7-11-17.6-19-24.8c-0.6,1.5,0.1,2.1,0.7,2.6
		c8.8,8.6,14.8,19.3,20.7,30c0.4,0.7,0.6,1.4,0.7,2.2c-1.4-1.4-3.8-1.5-4.8-4.2c-0.3,1-0.5,1.5-0.6,2
		C141.5,132.4,141.3,132.4,141.2,132.5z M89.7,78.8c0.4,2,1.6,2.3,2.8,3c3.4,1.8,6.9,3.5,10,5.8c4.7,3.6,9.1,7.6,13.7,11.4
		c2.5,2.1,5,4.1,7.3,6.3c3.6,3.4,6.4,7.4,9.1,11.5c0.4,0.6,1,1.1,1.5,1.7c0.3-0.4,0.5-0.4,0.5-0.5c0-0.3,0.1-0.6-0.1-0.8
		c-3.7-5.1-7.1-10.5-12.1-14.6c-3.3-2.7-6.5-5.4-9.7-8.2c-4.9-4.4-9.9-8.7-15.7-12C94.8,81,92.4,80,89.7,78.8z M140.5,125.5
		c-0.2,1.6-0.1,2.5,1.5,2.9C142.2,127,141.8,126.3,140.5,125.5z"/>
	<path class="st0" d="M110.5,41c9.8,12.2,19.6,24.1,26.5,38.1c-2.7-2.3-5.4-4.7-8.1-7c-0.1-0.1-0.4-0.2-0.4-0.4
		c-1.2-4.9-5.5-7.9-7.8-12.2c-3.3-6.2-8-11.4-12.2-17c-1.8-2.4-3.4-5-5.3-7.3c-3.4-4.2-6.8-8.3-10.3-12.4c-0.5-0.6-0.8-1.3-1.3-1.8
		c-0.4-0.4-1-0.6-1.8-0.7c0.9,2.4,2.9,4,4.4,5.9c1.6,2,3.4,3.8,4.9,5.8c1.5,1.9,2.9,3.9,4.4,5.9c1.5,2.1,2.9,4.2,4.5,6.2
		c1.6,2,3.4,3.8,4.9,5.9c1.5,2,2.9,4.2,4.3,6.3c1.4,2,2.6,4.2,4,6.2c1.4,2.1,2.9,4.2,4.2,6.4c-2.9-1.5-5.5-3.3-7.3-6.1
		c-2.7-4.1-5.2-8.3-8.1-12.3c-3.3-4.5-6.8-8.8-10.3-13.2c-0.5-0.7-1.2-1.3-2.1-1.7c0.4,2.3,2.2,3.5,3.4,5.2c1.2,1.8,2.6,3.5,3.9,5.2
		c1.4,1.8,2.8,3.5,4.1,5.4c1.3,1.8,2.4,3.6,3.6,5.4c1.2,1.8,2.3,3.6,3.2,5.9c-1.5-1-3.2-1.8-4.5-3c-1.8-1.6-3.7-3.3-5.1-5.2
		c-3.2-4.5-6-9.4-9.2-13.9c-6.4-9.2-12-19-19.5-27.4c-1.9-2.1-3.8-4.1-6.2-6.6C73.4,7,74.3,8.1,75.2,9c0.6,0.6,1.1,1.3,1.7,1.9
		c0.2,0.3,0.8,0.7,0.8,0.7c1.5-1.5,1.9,1,3.3,0.8c-1.2-3-3.4-5.1-5-7.5c5,3.4,7.8,8.8,11.5,13.4c0.2-0.1,0.3-0.2,0.5-0.3
		c-1-1.6-2.1-3.3-3.1-4.9c-1.1-1.7-2.1-3.4-3.4-4.9c-1.3-1.6-2.8-3.1-4.2-4.6c1.2-1.4,2-0.6,2.9,0.3C83.9,8,87.8,12,91.6,16.2
		c3.6,3.9,7.1,7.8,10.6,11.8c3.3,3.8,6.4,7.7,9.7,11.6C111.5,40.1,111.1,40.5,110.5,41z M108.7,38.5c-1.1-1.5-1.9-3-4.1-3.5
		C106.2,38.2,106.7,38.7,108.7,38.5z"/>
	<path class="st0" d="M141,48.6c-0.4-0.5-1-0.9-1.3-1.4c-3.3-5.3-6.5-10.6-10-15.8c-2.4-3.6-5.2-7.1-7.9-10.7c3.4,0.2,3.8,3.5,5.8,5
		c-0.4-2.9-2.5-4.9-4.1-7.5c2.3,0.7,2.9,2.7,4.3,4.3c0.9-2.4-1.4-3.4-1.5-5.1c0.3,0.1,0.6,0.1,0.7,0.2c3,3.7,6.2,7.4,9.1,11.2
		c2.7,3.5,5.3,7.1,7.7,10.8c5,7.7,9.9,15.4,14.8,23.2c4.5,7.2,7.6,15,10.3,23c1.2,3.5,2.2,7,3.3,10.5c0.2,0.5,0.2,1.1-0.1,1.8
		c-3.3-8.5-6.6-17-10-25.6c-0.3,0.1-0.5,0.2-0.8,0.2c-0.3,2.3,1.3,4.3,1.9,6.4c0.6,2.2,1.6,4.3,2.2,6.6c-3.2-5.2-5-11-7.2-16.7
		c0.8,0.1,1.2,1.8,2.4,0.3c-0.9-0.8-0.7-2.6-2.5-2.9c0.1,1,0.2,1.8,0.2,2.6c-2.9-5.6-5.8-11.2-8.8-16.8c-3.7-6.8-7.2-13.7-12.1-19.8
		c-0.7-0.8-1.3-1.6-2.1-2.3c-0.2-0.2-0.8-0.1-1.3-0.2c0.1,0.5,0,0.8,0.1,1c3.5,3.7,6.4,8,8.9,12.4c5.4,9.5,10.9,19,15,29.2
		c4.7,11.5,9.9,22.9,13.2,34.9c0.5,1.8,0.9,3.7,1.4,5.5c-0.9,0.6-1.5,0.7-1.8-0.5c-0.6-2.1-1.2-4.2-1.9-6.2c-1.6-4.6-3.3-9.2-5-13.8
		c-1.5-4-3.1-7.9-4.6-11.8c-1.3,0.3-1.1,0.9-0.8,1.7c1.8,4.4,3.8,8.7,5.4,13.1c2.1,6.1,3.9,12.2,5.8,18.3c0.4,1.2,0.4,2.5,0.4,3.8
		c-2-2.2-2.5-5.1-3.2-7.7c-1.2-4.2-2.3-8.4-3.4-12.6c-0.3-1-0.7-2-1.3-2.9c0.5,5,2.1,9.9,3,14.9c-0.2,0.1-0.5,0.1-0.7,0.2
		c-0.5-1.4-1.1-2.8-1.4-4.2c-1.3-4.9-2.4-9.9-3.9-14.8c-2.5-8.1-5-16.2-7.7-24.3c-1.4-4.2-3.4-8.2-5.1-12.3c-0.2-0.4-0.7-0.7-1.1-1
		c-0.9,1-0.3,1.8,0.1,2.5c3.4,6.4,5.7,13.1,7.7,20.1c0.1,0.3,0.1,0.7-0.2,1.2c-0.3-0.8-0.7-1.6-1-2.4c-1.8-5.4-4-10.6-6.7-15.6
		c-1.4-2.7-2.6-5.4-3.9-8.2c-0.3-0.6-0.2-1.5-0.3-2.2c0.5,0.3,1,0.6,1.8,1.1c-0.1-1.6-0.2-2.7-2-2.9C140.9,47.4,141,48,141,48.6z
		 M156.6,78.6c1.5-1.5,0.7-2.2-0.1-3.1C155.1,76.6,156.1,77.4,156.6,78.6z"/>
	<path class="st0" d="M139.5,144.8c-2.5-0.4-4.1-1.5-5.5-3.2c-3.1-3.8-6.5-7.4-9.7-11.1c-8.9-10.1-18.3-19.6-28.7-28.1
		C85.8,94.6,76,86.9,65.8,79.7c-0.4-0.3-0.7-0.6-1.4-1.1c1.3-0.4,2.3,0.1,3.1,0.4c11,3.8,21,9.3,30.5,16.1
		c4.8,3.5,9.8,6.8,14.2,10.9c8.7,8.1,16.7,16.8,22.1,27.5C136,137.1,138.1,140.6,139.5,144.8z M99.4,101.6c-0.1,0.2-0.3,0.3-0.4,0.5
		c0.2,0.2,0.3,0.4,0.6,0.6c5.7,3.6,10.2,8.7,14.9,13.4c2.9,2.9,5.5,5.9,8.1,9.1c2.6,3.1,4.9,6.4,7.4,9.6c1.8,2.4,3.6,4.8,5.4,7.3
		c0.5,0.7,1.1,1.3,2.4,0.5c-1.1-1.3-2.2-2.4-3.2-3.6c-4.4-5.6-8.8-11.3-13.2-16.9c-5-6.3-11-11.7-16.7-17.3
		C103.2,103.3,101.5,102.1,99.4,101.6z M90,93.8c-0.3,2.1,1.5,3.3,3.5,2.6C92.4,95.5,91.4,94.8,90,93.8z"/>
	<path class="st0" d="M73.3,138.4c-6.1-0.7-11.9-1.6-17.6-2.1c-12.4-1.1-24.7-0.2-36.8,3c-4.4,1.2-8.2,3.4-12,5.7
		c-1.4,0.8-2.7,1.7-4.2,2.6c0.3-1.6,1.7-2.8,5.5-4.9c-0.4-0.4-0.8-0.7-1.3-1.2c0.9-0.4,1.7-0.8,2.5-1.2c0.7-0.3,1.5-0.7,2.5-1.1
		c-1.8-1.4-2.9,0.2-4.2,0.3c-1.3,0-2.6,0.4-4,0.7c-0.3-2.7,0.4-4.8,2.7-6.3c4.7-3,9.7-5.2,15.1-6.2c10-1.8,20.1-2.1,30.2-1.4
		c2.2,0.2,4.8,0,6.6,2.6c-0.8,0-1.3-0.1-1.9-0.1c-3.7,0-7.4,0.1-11,0c-8-0.1-15.9,0.2-23.7,1.6c-3.2,0.6-6.2,1.5-9,3.2
		c-0.4,0.2-0.6,0.6-1.2,1.1c0.6,0.1,0.9,0.2,1.1,0.1c5.8-3.2,12.2-3.8,18.6-4.4c8.6-0.7,17.3-0.3,26-0.1c2.7,0.1,5.5,0.3,7.7,2.9
		c-0.8,0.1-1.4,0.1-1.9,0.1c-9.1-0.6-18.1-1.1-27.2-1.7c-1-0.1-2.1-0.1-3.1,0c-0.5,0.1-0.9,0.6-1.7,1.2c6.9,0.2,13.2,0.4,19.5,0.6
		c1.5,0.1,3,0.3,4.5,0.4c3.3,0.3,6.6,0.7,9.9,0.7C68.2,134.6,70.5,136.5,73.3,138.4z M29,134c-1.5-1.9-3.3-1.8-4.8,0.1
		C25.8,134.1,27.1,134.1,29,134z"/>
	<path class="st0" d="M57,62.7c-0.9,3-1.7,5.5-2.6,8.4c-13.2-8.8-27-15-41.8-19.7c1-1,2.1-0.6,3.1-0.4c1.1,0.2,2.2,0.4,3.4,0.7
		c-0.6-2.1-0.6-2.1-4.1-3.9c1.4-2.1,1.4-2.2,3.5-1.6c5.8,1.6,11.5,3.7,17,6.2c2.2,1,4.5,1.9,6.7,3C47,57.8,51.9,60.2,57,62.7z
		 M54.1,65.8c0.2-0.2,0.3-0.4,0.5-0.6c-0.4-0.4-0.6-1-1.1-1.2c-1.1-0.6-2.4-1-3.6-1.7c-3.4-1.9-6.6-3.9-10-5.8
		c-2.3-1.3-4.7-2.3-7.1-3.4c-0.6-0.3-1.4-0.6-1.9,0.5C39.2,56.5,46.3,61.9,54.1,65.8z M28.2,51.9c-0.3-0.5-0.5-0.9-0.7-1
		c-0.3-0.1-0.7,0.1-0.9,0.3c-0.1,0.2,0.1,0.7,0.3,0.8C27.2,52.2,27.6,52,28.2,51.9z"/>
	<path class="st0" d="M138,150.7c-9.4-4.3-18.5-8.6-28.6-10.2c2.1,0.7,4.2,1.5,6.3,2.3c2.3,0.9,4.6,1.7,6.9,2.6
		c2.2,0.9,4.3,1.9,6.5,2.8c2.2,1,4.5,1.9,6.7,3.1c2,1.1,4.6,1,5.8,3.4c-13.6-5.1-27.2-10.4-39.8-17.7c1.3,0.3,2.6,0.5,3.9,0.8
		c6.1,1.8,12.2,3.5,18.2,5.4c4.1,1.3,8.1,3.1,12.1,4.7C137,148.3,138,148.8,138,150.7z"/>
	<path class="st0" d="M161.5,170.4c0.2-0.5,0.4-1.2,0.7-1.3c4.5-1.2,9-1.1,13.5-0.6c0.1,0.2,0.1,0.4,0.2,0.6c-1.1,0.5-2.1,1-3.2,1.6
		c-1.8,1-3.5,2.2-5.3,3.1c-0.9,0.5-1.8,1.6-3.1,0.3c-0.2-0.2-1.2,0.3-1.8,0.6c-3.4,1.6-6.8,3.2-10.2,4.8c-0.8,0.4-1.6,1.1-2.6,0.2
		l0,0c0.7-0.4,1.3-0.9,2.1-1.3c3.5-1.6,7-3.2,10.5-4.9c0.6-0.3,1.2-0.9,1.4-1.7c-2.9,1.1-5.8,2.3-8.7,3.4c-0.1-0.1-0.1-0.2-0.2-0.3
		c2-1,4-2.1,6-3.2c0.6-0.3,1-0.8,1.5-1.2C162,170.6,161.8,170.5,161.5,170.4L161.5,170.4z"/>
	<path class="st0" d="M143.1,83.9c-1.9-0.8-2.7-2.1-3.5-3.8c-1.1-2.7-2.8-5.1-4.4-7.6c-4.7-7.3-9.2-14.7-15-21.2
		c-0.8-0.9-1.4-2-1.9-3.1c5.2,5.1,9.4,11,13.7,16.7C136.4,70.7,139.7,77.2,143.1,83.9z"/>
	<path class="st0" d="M96.5,133.5c13.1,2.7,26.1,5.8,38.2,12.1c-0.4,0-0.7-0.1-1.1-0.1c-0.4-0.1-0.7-0.2-1.1-0.3
		c-8.7-3.7-17.8-6.2-26.9-8.6c-2.4-0.6-4.7-1.7-7.4-1.4c-0.6,0.1-1.3-0.7-2-1C96.3,133.9,96.4,133.7,96.5,133.5z"/>
	<path class="st0" d="M116.9,161.6c-8.3-3.2-15.4-8.4-22.8-13.1C102.4,151.7,109.7,156.6,116.9,161.6z"/>
	<path class="st0" d="M141.6,132.3c1.4,2.7,3.2,5.3,4.3,8.2c1.8,4.9,3.1,10.1,4.5,15.1c0.1,0.4,0.1,0.8-0.4,1.4
		c-1-3.2-1.9-6.4-3.1-9.5c-1.7-4.7-3.6-9.3-5.5-13.9c-0.1-0.3-0.1-0.7-0.2-1.1C141.3,132.4,141.5,132.4,141.6,132.3z"/>
	<path class="st0" d="M140.4,189.1c-5.4,0.3-9.5-0.4-13.1-2.4c1.2-0.7,2.1-1.4,3.2-1.9c0.5-0.2,1.3-0.1,1.8,0.2
		C135.1,186.3,137.8,187.7,140.4,189.1z"/>
	<path class="st0" d="M90.1,129.9c9.8,1.1,19,4,28.1,7.3c-8.9-2.1-17.7-4.1-26.6-6.2C91,130.9,90.6,130.3,90.1,129.9z"/>
	<path class="st0" d="M165.8,134c2.3,4.6,4.8,9.2,4.1,14.8c-1.5-4.9-3.1-9.7-4.6-14.6C165.4,134.1,165.6,134,165.8,134z"/>
	<path class="st0" d="M154.7,184.4c-5.9,2.9-12,4.1-18.3,1C142.6,186.8,148.6,186.2,154.7,184.4z"/>
	<path class="st0" d="M143,141.1c1.2,3.3,2.5,6.7,3.7,10c0.4,1.2,0.7,2.4,0.7,3.7c-2.3-4.3-3.9-8.8-4.7-13.6
		C142.8,141.2,142.9,141.2,143,141.1z"/>
	<path class="st0" d="M146.5,138c2.4,2.9,5,11.4,4.5,14.9C149.5,147.8,148.1,143.2,146.5,138z"/>
	<path class="st0" d="M142.1,181.4c-2.4,1-4.4,0.3-6.5-0.8c0.2-0.6,0.5-1.2,0.8-1.9C138.3,179.4,140.6,179,142.1,181.4z"/>
	<path class="st0" d="M149.7,179.8c0.5,1.7,0.9,1.9,2.5,1.3c1.5-0.6,2.9-1.4,4.4-2c0.6-0.3,1.3-0.3,2-0.5c0.1,0.2,0.1,0.4,0.2,0.7
		c-3.4,1.4-6.8,2.8-10.4,4.3C147.8,181.7,149.3,181,149.7,179.8C149.7,179.8,149.7,179.8,149.7,179.8z"/>
	<path class="st0" d="M171.1,161.1c-1.4-2.6-1.5-5.5-1.9-8.4C170.6,155.3,171.5,158,171.1,161.1z"/>
	<path class="st0" d="M132.9,170c3.2,1.2,6.4,2.5,9.6,3.7c-0.1,0.2-0.2,0.4-0.2,0.6c-3.5-0.5-6.7-1.8-9.6-3.8
		C132.7,170.4,132.8,170.2,132.9,170z"/>
	<path class="st0" d="M179.6,160.1c0.5,1.4-2.6,1.6-0.8,3.2c-0.8,0.5-1.6,1.1-2.5,1.6c-0.4-1.4,2.9-2.3-0.1-3.6
		C177.7,160.7,178.6,160.4,179.6,160.1z"/>
	<path class="st0" d="M176.1,155c-0.6-2.8-1.1-5.6-1.7-8.3C176.1,149.3,176.7,152,176.1,155z"/>
	<path class="st0" d="M175.9,111.2c0.5,2.3,1,4.6,1.5,6.9c-0.2,0-0.4,0.1-0.7,0.1c-0.5-2.3-1-4.6-1.6-6.9
		C175.4,111.3,175.7,111.2,175.9,111.2z"/>
	<path class="st0" d="M161.5,170.4c-2,0.9-4,1.8-6,2.7c1.4-1.7,3.4-2.5,5.4-3.1C161,170,161.2,170.3,161.5,170.4
		C161.5,170.4,161.5,170.4,161.5,170.4z"/>
	<path class="st0" d="M164.4,160.5c-1.6-1.8-1.8-2.8-1.1-5.1C163.6,156.9,164,158.4,164.4,160.5z"/>
	<path d="M141,48.6c-0.1-0.6-0.1-1.2-0.2-2c1.8,0.2,1.9,1.3,2,2.9c-0.8-0.5-1.3-0.8-1.8-1.1L141,48.6z"/>
	<path class="st0" d="M237.6,333.4c-0.8-0.2-1.3-0.4-2.2-0.7c1.1-0.8,2-1.4,3.3-2.3C238.3,331.6,238,332.4,237.6,333.4z"/>
	<path class="st0" d="M239.4,333.3c1-0.6,1.8-1,2.9-1.7c-0.4,1.2-0.6,2-0.9,3C240.7,334.1,240.1,333.8,239.4,333.3z"/>
	<path class="st0" d="M151.5,143.8c0.4,1.5,0.8,3,1.2,4.5c-0.2,0.1-0.4,0.1-0.6,0.2c-0.4-1.5-0.8-3-1.2-4.4
		C151,144,151.3,143.9,151.5,143.8z"/>
	<path class="st0" d="M139.7,184.2c-1.6-0.4-3.2-0.8-4.7-1.2c0-0.2,0.1-0.4,0.1-0.6c1.6,0.4,3.2,0.8,4.7,1.2
		C139.8,183.8,139.7,184,139.7,184.2z"/>
	<path class="st0" d="M142.7,141.3c-0.6-1.4-1.1-2.8-1.7-4.1l0.2-0.1c0.6,1.4,1.2,2.7,1.8,4.1C142.9,141.2,142.8,141.2,142.7,141.3z
		"/>
	<path class="st0" d="M131.8,162.3c1.1,0.3,2.3,0.7,3.4,1c0,0.1-0.1,0.2-0.1,0.3c-1.2-0.4-2.4-0.7-3.5-1.1
		C131.7,162.5,131.8,162.4,131.8,162.3z"/>
	<path class="st0" d="M5.1,143c-0.9,0.4-1.4,0.7-2.1,1C3.2,142.1,3.2,142.1,5.1,143z"/>
	<path class="st0" d="M176.2,131.6c-0.2-0.8-0.4-1.5-0.7-2.5C176.7,129.7,176.7,129.7,176.2,131.6z"/>
	<path class="st0" d="M157.8,167.7c-0.8-0.2-1.6-0.5-2.3-0.7c0-0.1,0-0.2,0-0.2c0.8,0.2,1.5,0.3,2.3,0.5
		C157.8,167.4,157.8,167.5,157.8,167.7z"/>
	<path class="st0" d="M138.3,146.4c1,0.5,1.7,0.8,2.7,1.2C139.4,147.8,139.4,147.8,138.3,146.4z"/>
	<path class="st0" d="M155,175.4c-0.8,0.5-1.7,0.9-3,1.6c0.6-1.9,1.8-1.7,2.8-1.9C154.9,175.2,155,175.3,155,175.4z"/>
	<path class="st0" d="M144.7,181.5c0.5,0,1,0,1.5,0.1c0,0.2,0,0.3,0,0.5c-0.5,0.1-1,0.1-1.5,0.2C144.7,182,144.7,181.8,144.7,181.5z
		"/>
	<path class="st0" d="M168.5,93.8c-0.2-0.6-0.5-1.1-0.7-1.7c0.1-0.1,0.1-0.1,0.2-0.2c0.2,0.3,0.6,0.5,0.7,0.8
		c0.2,0.3,0.2,0.6,0.2,0.9C168.8,93.7,168.6,93.7,168.5,93.8z"/>
	<path d="M150.7,326.1c7.5-4.2,14.9-8.1,22-12.4c7.2-4.3,14.2-8.9,21.3-13.5c7-4.5,13.7-9.5,20.5-14.6c-0.1,0.4-0.1,1-0.4,1.3
		c-1,1-2.1,1.8-3.2,2.7c-7.9,6.6-16.6,12.2-25.2,17.7c-9.2,5.9-18.5,11.7-28.3,16.6c-1.5,0.8-3,1.7-4.4,2.6
		C152.1,327.2,151.4,327.5,150.7,326.1z"/>
	<path d="M238.2,174c1,1.6,0.2,2.4-0.4,3.3c-3.6,5.8-8,11-12.7,15.9c-10.4,11.1-22,21-33.7,30.7c-0.9,0.8-1.9,1.6-2.8,2.3
		c-0.4,0.3-0.9,0.4-1.7,0.2c0.4-0.5,0.8-1.1,1.3-1.5c5.2-4.5,10.5-8.9,15.7-13.4c11.4-9.9,22.3-20.4,31.1-32.8
		C236.1,177.3,237.1,175.6,238.2,174z"/>
	<path d="M248,172.6c1.1,0.7,1.2,1.3,0.7,2.3c-0.9,1.4-1.6,3-2.5,4.4c-3,4.7-6.7,8.9-10.6,12.9c-3.2,3.2-6.2,6.6-9.5,9.8
		c-3.8,3.8-7.7,7.5-11.6,11.2c-1.6,1.6-3.3,3.1-5,4.6c-0.4,0.3-1.1,0.4-1.9,0.2c0.3-0.4,0.5-0.9,0.9-1.2
		c9.2-7.8,17.8-16.4,26.1-25.2c4.1-4.3,7.9-8.9,11-14C246.4,176,247.1,174.3,248,172.6z"/>
	<path d="M200.6,204.5c1.7-1.6,3.4-3.1,4.9-4.7c4.2-4.2,8.4-8.4,12.4-12.7c3.5-3.8,7-7.7,10.3-11.6c1.5-1.8,2.7-4,4.2-6.1
		c1.3,0.9,0.6,1.9,0.1,2.7c-1.2,1.9-2.5,3.8-4,5.4c-7.4,7.9-14.9,15.7-22.4,23.6c-1,1.1-2,2.3-3.1,3.3
		C202.4,204.9,201.8,205.8,200.6,204.5z"/>
	<path d="M187.5,195.7c0.9-1.1,1.3-1.8,1.9-2.2c6.4-4.3,12.1-9.6,17.6-15c5.1-5,9.4-10.7,13.2-16.9c0.5-0.8,0.7-2,2.1-1.9
		C221.1,167,196,193.3,187.5,195.7z"/>
	<path d="M226,165.9c0.1,1.7-0.9,3.1-1.7,4.5c-2.9,4.7-6.4,8.9-10.4,12.6c-5.9,5.5-12,11-18,16.4c-0.5,0.4-1.2,0.6-1.8,0.8
		c-0.2-0.2-0.3-0.4-0.5-0.6c0.6-0.6,1.2-1.3,1.8-1.9c3.9-3.4,8-6.6,11.8-10.1c5.3-5,10.8-10,14.8-16.3c0.7-1.1,1.3-2.3,1.9-3.4
		c0.4-0.8,0.9-1.5,1.4-2.3C225.6,165.6,225.8,165.7,226,165.9z"/>
	<path d="M225.9,210.6c0.6-0.7,1.1-1.4,1.7-2c6.7-6.2,13.1-12.7,18.6-20.1c2.2-3,4.2-6.3,6.2-9.4c0.5-0.8,1.1-1.6,2-2.8
		c0.5,1.7-0.1,2.5-0.6,3.4c-5.7,9.9-13.4,18.2-21.4,26.2c-1.5,1.5-3,3.1-4.5,4.7c-0.3,0.3-0.9,0.5-1.4,0.7
		C226.3,211.1,226.1,210.8,225.9,210.6z"/>
	<path d="M161.8,183.2c14.8-4.7,25.9-14.2,36.5-25.4c-0.4,0.9-0.4,1.4-0.7,1.7c-2.6,2.8-5.1,5.8-8,8.3c-5.5,4.8-11.2,9.2-17.6,12.7
		c-2.3,1.2-4.8,2.1-7.3,3C163.8,183.9,162.9,184.1,161.8,183.2z"/>
	<path d="M236.4,207.4c3.7-3.8,7.2-7.7,11-11.3c3.8-3.6,5.8-8.6,10-11.9c-4.5,8.8-11.3,15.8-18.7,22.3
		C238.1,207.1,237.5,208.2,236.4,207.4z"/>
	<path d="M101.5,279.9c10.4-5.2,20.8-10.5,30.5-16.9c-2.9,2.6-6.1,4.9-9.5,6.8c-3.5,1.9-6.9,3.9-10.4,5.8
		C108.7,277.4,105.4,279.5,101.5,279.9z"/>
	<path d="M262.6,189.4c0,0.4,0.1,0.7,0,0.9c-3.7,7.3-8.5,13.8-14.8,19c-0.6,0.5-1.2,1.4-2.3,0.1c0.6-0.6,1.1-1.2,1.7-1.7
		c5-4.3,9.3-9,12.3-15C260.2,191.5,260.6,189.7,262.6,189.4z"/>
	<path d="M155.5,190.9c-1.4,1.6-3.6,1.7-5.4,2.1c-7.7,1.9-15.5,2.6-23.3,1.2c-1.8-0.3-3.4-0.9-5.1-1.5c-0.3-0.1-0.5-0.5-1-1.1
		c0.7,0.1,1.1,0.1,1.3,0.2c10.4,3.3,20.7,2.2,31-0.5c0.8-0.2,1.6-0.4,2.5-0.6L155.5,190.9z"/>
	<path d="M253.3,212.9c-0.7-1.9,0.5-2.4,1.1-3.1c2.2-2.3,4.4-4.6,6.6-6.9c2-2.2,3.6-4.6,4.3-7.5c0.2-0.8,0.7-1.6,1-2.4
		c0.2,0,0.4,0.1,0.6,0.1c0.1,0.5,0.4,1,0.3,1.4c-0.6,2.7-1.5,5.3-3.4,7.4c-2.2,2.5-4.6,5-6.9,7.4
		C255.9,210.4,254.7,211.5,253.3,212.9z"/>
	<path d="M193.3,182.1c0.3-0.5,0.6-1.1,1.1-1.5c6.7-4.8,11.6-11.5,17-17.6c0.1-0.1,0.5,0.1,1.2,0.4c-2.6,3.8-5.8,6.9-8.7,10.3
		c-3,3.4-6.6,6.1-9.9,9C193.7,182.5,193.5,182.3,193.3,182.1z"/>
	<path d="M99.3,270.6c0.8-1.8,2.1-2.1,3.3-2.5c4.7-1.8,9.4-3.6,13.5-6.4c2-1.4,4-2.7,6.1-4.1C121.4,261.2,105.4,269,99.3,270.6z"/>
	<path d="M259.7,213.2c1.9-1.8,3.9-3.6,5.7-5.4c2-1.9,4.3-3.8,5.3-6.5c0.4-1.2,0.8-2.4,1.2-3.8c1,0.1,1.1,0.9,1,1.7
		c-0.2,2.3-1.2,4.2-2.7,5.8c-2.8,2.9-5.8,5.6-8.8,8.3c-0.3,0.3-0.9,0.3-1.4,0.4C259.9,213.6,259.8,213.4,259.7,213.2z"/>
	<path d="M219.1,321.7c1.1-1,2.2-2.1,3.3-3c3.1-2.4,5.9-4.9,8.3-8c1-1.3,2.2-2.2,3.9-2.9c0,0.5,0.1,0.8,0,1
		c-4.2,4.3-8.1,8.9-13,12.4C220.8,321.7,220.1,322.4,219.1,321.7C219.1,321.6,219.1,321.7,219.1,321.7z"/>
	<path d="M95.1,243.5c6.1-4,13.2-6,18.6-10.9c0.1,0.2,0.3,0.3,0.4,0.5c-1,0.9-1.8,2.1-2.9,2.8c-4.9,2.7-9.8,5.3-14.7,7.8
		C96.1,243.8,95.5,243.5,95.1,243.5z"/>
	<path d="M259.5,287.6c-1.8,2.5-4.1,4.5-6.3,6.6c-2.3,2.1-4.8,4-7.2,5.9c-1.3-0.8-0.4-1.3,0.2-1.9c2.8-2.4,5.6-4.8,8.3-7.2
		c1.2-1.1,2.1-2.4,3.3-3.5c0.3-0.3,1-0.3,1.4-0.5C259.2,287.2,259.3,287.4,259.5,287.6z"/>
	<path d="M114,223.6c-4.2,5.4-10.6,7-16.2,9.8c-0.4,0.2-1,0-1.5-0.3C102.1,229.6,108.8,227.9,114,223.6z"/>
	<path d="M206.7,163.1c-4.2,5-7.8,9.6-13.1,13.1c-0.2-0.7-0.3-1-0.3-1.1c4.4-3.6,8.2-7.7,11.9-12C205.3,163,205.7,163.1,206.7,163.1
		z"/>
	<path d="M265.5,216.2c3.5-4.3,8.2-7.6,9.8-13.5c0.2,0.4,0.6,0.9,0.5,1.2c-0.5,1.5-0.8,3.3-1.8,4.4c-2.3,2.7-5,5-7.6,7.5
		C266.2,216.1,265.8,216.1,265.5,216.2z"/>
	<path d="M114.1,215.8c-0.9,2.8-3.3,3.8-5.6,4.9c-6.6,3.2-6.6,3.2-8.7,2.6C104.7,220.6,110,219.3,114.1,215.8z"/>
	<path d="M101.6,216.1c4.4-3.1,9.6-4,13.4-8.2c-0.2,2.3-1.6,3-2.8,3.9C107.7,214.9,103.6,216.7,101.6,216.1z"/>
	<path d="M277.6,208.5c0.4,4-3.2,8.8-7.3,10C273.8,216,275.4,212.1,277.6,208.5z"/>
	<path d="M192.1,171.1c2.9-3.1,5.6-6.1,8.4-9.2c0.1,0.4,0.5,0.9,0.4,1.1c-2.1,3.3-4.8,6-7.9,8.3
		C192.9,171.5,192.5,171.3,192.1,171.1z"/>
	<path d="M272.4,223.4c2.1-2.6,4-5.1,6-7.6C279.3,218,276,222.2,272.4,223.4z"/>
	<path d="M172.5,263.7c-1.7,2.7-4.9,3.2-7.1,5.2c-0.1,0.1-0.6-0.1-1.3-0.3C166.6,266,169.8,265.2,172.5,263.7z"/>
	<path d="M238.5,327.3c-4,3-5.7,3.9-7.5,4.1C232.4,329.1,236.6,326.8,238.5,327.3z"/>
	<path d="M257.6,255.6c-0.1-2.1,1.9-2.9,2.9-4.3c0.1-0.1,0.8,0.1,0.9,0.3c0.2,0.2,0.3,0.8,0.1,1c-1.1,1.2-2.2,2.4-3.3,3.5
		C258.1,255.9,257.9,255.7,257.6,255.6z"/>
	<path d="M155.4,190.8c3.5-1.4,6.9-2.8,10.4-4.3c-1.8,1.9-6.5,3.9-10.3,4.5L155.4,190.8z"/>
	<path d="M282.1,226.4c-0.1,2.4-1.7,3.7-3.6,4.7C279.2,229.2,280.3,227.5,282.1,226.4z"/>
	<path d="M280.5,222.3c-0.6,2.7-2.3,4.3-4.8,4.7C277.5,225.2,279,223.7,280.5,222.3z"/>
	<path d="M257.2,320.4c-1.6,2.2-2.6,2.9-4,3.4C253.7,321.8,255,320.6,257.2,320.4z"/>
	<path d="M279.5,235.1c0.9-1.4,1.7-2.9,3.4-3.8C283,233.5,282.4,234.2,279.5,235.1z"/>
	<path d="M255.4,310.3c-1.6,1.3-2.9,2.4-4.2,3.5c0.5-1.7,1.2-3.2,2.7-3.9C254.3,309.7,254.8,310.1,255.4,310.3z"/>
	<path d="M248.1,273.5c0,0.4,0.2,1,0,1.3c-0.6,1.2-1.6,2.1-3.3,2.3c0.7-1.1,1.5-2.2,2.2-3.3C247.5,273.7,247.8,273.6,248.1,273.5z"
		/>
	<path d="M269.1,290.7c-0.5,2.1-2.6,2.7-3.9,3.9C266.1,292.9,267.3,291.5,269.1,290.7C269.2,290.8,269.1,290.7,269.1,290.7z"/>
	<path d="M252.7,221.1c0.8-0.8,1.7-1.5,2.9-2.6c-0.1,2.2-1.4,2.5-2.3,3.2C253,221.5,252.9,221.3,252.7,221.1z"/>
	<path d="M137.3,235.5c-1,0.4-1.5,0.7-1.7,0.6c-0.3-0.1-0.5-0.6-0.7-1c0.4-0.3,0.8-0.7,1.3-0.7C136.5,234.4,136.8,235,137.3,235.5z"
		/>
	<path d="M272.1,231.9c-0.8-0.3-1.2-0.9-0.6-1.6c0.1-0.2,0.8-0.2,0.9-0.1C273,230.7,273,231.4,272.1,231.9z"/>
	<path d="M256.7,305.3c-1.2-0.5-1.4-1.3-0.7-2.4C257.4,303.7,257.4,303.7,256.7,305.3z"/>
	<path d="M140.8,199.6c-0.6,0.3-1,0.7-1.3,0.6c-0.3-0.1-0.5-0.6-0.7-0.9c0.3-0.3,0.7-0.7,1-0.7C140,198.6,140.3,199.1,140.8,199.6z"
		/>
	<path d="M246.6,312.9c-0.6,0.1-1,0.4-1.1,0.2c-0.3-0.3-0.4-0.7-0.4-1.1c0-0.1,0.7-0.5,0.8-0.4C246.1,311.9,246.3,312.3,246.6,312.9
		z"/>
	<path d="M125.1,199.7c0.1,0.6,0.3,1,0.3,1.3c0,0.2-0.6,0.3-0.9,0.4c-0.2-0.4-0.4-0.8-0.4-1.1C124.1,200.2,124.6,200,125.1,199.7z"
		/>
	<path d="M246.1,328.1c0.3,0.6,0.5,0.9,0.6,1.3c0,0.1-0.7,0.5-0.9,0.4c-0.3-0.2-0.5-0.7-0.6-1C245.2,328.6,245.7,328.4,246.1,328.1z
		"/>
	<path d="M156.5,202.3c0.1,0.6,0.4,1,0.3,1.4c0,0.2-0.6,0.3-0.9,0.4c-0.1-0.4-0.4-0.7-0.4-1.1C155.6,202.8,156.1,202.6,156.5,202.3z
		"/>
	<path d="M133.7,211c0,0.5,0,1,0,1.6c-0.4-0.1-0.8-0.2-1.2-0.3c0.2-0.5,0.4-1,0.6-1.4C133.2,210.9,133.5,210.9,133.7,211z"/>
	<path d="M240.3,315.3c0.2,0.6,0.4,1,0.4,1.4c0,0.1-0.6,0.4-0.6,0.3c-0.3-0.3-0.6-0.6-0.7-1C239.4,316,239.9,315.7,240.3,315.3z"/>
	<path d="M170.9,195.4c0.2,0.6,0.3,1.1,0.3,1.5c0,0.1-0.8,0.4-0.9,0.3c-0.2-0.3-0.5-0.7-0.4-1C170,195.9,170.5,195.7,170.9,195.4z"
		/>
	<path d="M271.9,251.7c-0.7,0-1.2,0.2-1.5,0c-0.3-0.2-0.5-0.6-0.7-1c0.3-0.2,0.6-0.5,0.9-0.4C270.9,250.4,271.1,250.8,271.9,251.7z"
		/>
	<path d="M164.4,224.1c-0.3,0-0.7,0.2-0.9,0.1c-0.3-0.2-0.5-0.7-0.5-1c0-0.1,0.6-0.5,0.9-0.4c0.4,0.1,0.7,0.5,1,0.8
		C164.8,223.8,164.6,224,164.4,224.1z"/>
	<path d="M120.3,220c0,0.4,0.2,0.9,0.1,1.2c-0.1,0.2-0.8,0.5-0.9,0.4c-0.3-0.3-0.6-0.8-0.5-1.1c0.1-0.4,0.5-0.7,0.8-1
		C120,219.7,120.2,219.8,120.3,220z"/>
	<path d="M253,274.3c0.1,0.5,0.3,0.9,0.2,1.2c-0.1,0.2-0.6,0.3-0.9,0.4c-0.1-0.4-0.4-0.7-0.4-1.1C251.9,274.7,252.5,274.5,253,274.3
		z"/>
	<path d="M242.8,291.7c-0.4-0.3-0.7-0.6-1-1c0,0,0.3-0.4,0.5-0.6c0.4,0.3,0.8,0.7,1.2,1C243.2,291.3,243,291.5,242.8,291.7z"/>
	<path d="M240.7,308.5c-0.1-0.6-0.3-1-0.1-1.2c0.1-0.2,0.6-0.3,0.9-0.4c0.1,0.3,0.4,0.7,0.3,1C241.7,308,241.2,308.1,240.7,308.5z"
		/>
	<path d="M255.6,317.1c-0.2-0.4-0.4-0.7-0.5-1c0.3-0.2,0.6-0.3,0.9-0.5c0.1,0.3,0.3,0.6,0.4,0.9
		C256.3,316.7,255.9,316.9,255.6,317.1z"/>
	<path d="M246.9,320.6c1.7,0,1.7,0,1.1,1.6C247.6,321.7,247.3,321.2,246.9,320.6z"/>
	<path d="M263.1,278.7c-0.7,0.2-1.1,0.4-1.3,0.3c-0.3-0.2-0.4-0.6-0.5-0.9c0-0.1,0.5-0.5,0.6-0.4
		C262.3,277.9,262.5,278.2,263.1,278.7z"/>
	<path d="M241.2,323.2c-0.6,0.2-1,0.5-1.2,0.4c-0.3-0.1-0.4-0.5-0.6-0.8c0.3-0.2,0.6-0.5,0.9-0.4
		C240.4,322.4,240.7,322.7,241.2,323.2z"/>
	<path d="M246.8,242.9c0.1-0.6,0.1-1.3,0.3-2.4c0.8,1.2,1.2,1.9,0.4,2.6C247.2,243,247,242.9,246.8,242.9z"/>
	<path d="M254.5,333.9c-0.6,0.1-1,0.3-1.2,0.2c-0.3-0.1-0.5-0.6-0.5-0.8c0-0.2,0.6-0.5,0.7-0.5C253.8,333,254,333.3,254.5,333.9z"/>
	<path d="M250.1,303.4c-0.4-0.3-0.7-0.7-1.1-1c0.3-0.2,0.5-0.4,0.8-0.7c0.3,0.4,0.6,0.8,0.9,1.1C250.4,303,250.3,303.2,250.1,303.4z
		"/>
	<path d="M172.2,183c0.7-0.4,1.4-0.7,2.1-1c0.1,0.3,0.3,0.5,0.4,0.8c-0.7,0.2-1.3,0.4-2,0.5C172.6,183.3,172.4,183.2,172.2,183z"/>
	<path d="M257.6,296.4c-0.2-0.7-0.5-1-0.4-1.3c0.1-0.2,0.5-0.3,0.8-0.5c0.1,0.2,0.3,0.5,0.3,0.7C258.2,295.6,258,295.8,257.6,296.4z
		"/>
	<path d="M111.3,77.8c0.9,0,1.3-0.1,1.6,0c2.5,1.2,13.6,10.3,16,13.2c-3-0.8-4.3-2.8-6.2-4.2c-1.9-1.4-3.8-2.8-5.6-4.2
		C115.3,81.1,113,80.2,111.3,77.8z"/>
	<path d="M105.1,68.5c-1.3-0.5-2.1-0.6-2.7-1.1c-1.4-1.3-3.6-1.5-4.7-3.4C100,64,103.2,65.9,105.1,68.5z"/>
	<path d="M159.4,120.7c-1.8-1.7-2.1-4.2-3.7-6.6c2.1,0.2,2.4,1.6,2.9,2.6c0.6,1.1,1,2.3,1.5,3.5
		C159.9,120.4,159.6,120.5,159.4,120.7z"/>
	<path d="M72.4,48.4c-2.5-0.3-4.6-1.6-6.4-3.2C68.6,45.3,70.5,47,72.4,48.4z"/>
	<path d="M139.7,100.7c-2.8-0.4-5.2-3.3-5.1-5.9C136.3,96.8,137.8,98.5,139.7,100.7z"/>
	<path d="M102.2,143.1c-0.6-0.2-1.2-0.3-1.7-0.5c-7.1-2.9-13.5-7.2-19.9-11.3c-3.7-2.4-7.3-5-11-7.5c-5.8-3.9-11-8.6-16.2-13.3
		c-5-4.5-10-8.9-15-13.4c-1.4-1.3-2.8-2.7-4.2-4c0.1-0.2,0.2-0.3,0.4-0.5c0.4,0.2,0.9,0.4,1.2,0.7c8.6,7.6,17.1,15.4,25.9,22.8
		c3.7,3.2,7.8,5.9,11.8,8.7c7.9,5.6,15.8,10.9,24.5,15.2c1.5,0.7,3,1.5,4.5,2.2C102.4,142.6,102.3,142.8,102.2,143.1z"/>
	<path d="M106.5,147c2.9-0.2,4.9,1.8,7.4,2.6c-0.3,1.3-1,1.1-1.7,0.7C110.3,149.3,108.4,148.2,106.5,147z"/>
	<path d="M56.6,120.1c1.9,1.4,3.8,2.8,5.8,4.3c-1.8,0.7-2.9,0-6.1-3.8C56.3,120.4,56.4,120.3,56.6,120.1z"/>
	<path d="M89.7,78.8c2.7,1.3,5.1,2.2,7.3,3.5c5.8,3.3,10.8,7.6,15.7,12c3.1,2.8,6.4,5.5,9.7,8.2c5,4.1,8.3,9.5,12.1,14.6
		c0.1,0.2,0.1,0.5,0.1,0.8c0,0.1-0.1,0.1-0.5,0.5c-0.5-0.6-1.1-1.1-1.5-1.7c-2.7-4.1-5.5-8.2-9.1-11.5c-2.3-2.2-4.9-4.2-7.3-6.3
		c-4.5-3.8-8.9-7.9-13.7-11.4c-3.1-2.3-6.6-4-10-5.8C91.4,81.1,90.1,80.7,89.7,78.8z"/>
	<path d="M140.5,125.5c1.3,0.8,1.8,1.6,1.5,2.9C140.4,128,140.3,127.1,140.5,125.5z"/>
	<path d="M108.7,38.5c-2,0.2-2.5-0.3-4.1-3.5C106.8,35.5,107.7,37,108.7,38.5z"/>
	<path d="M158.5,69.3c-0.1-0.8-0.1-1.6-0.2-2.6c1.8,0.2,1.6,2.1,2.5,2.9C159.7,71,159.2,69.3,158.5,69.3L158.5,69.3z"/>
	<path d="M156.6,78.6c-0.5-1.2-1.5-2-0.1-3.1C157.3,76.4,158.1,77.1,156.6,78.6z"/>
	<path d="M99.4,101.6c2.1,0.5,3.8,1.7,5.2,3.1c5.7,5.6,11.7,10.9,16.7,17.3c4.4,5.6,8.8,11.3,13.2,16.9c1,1.2,2,2.3,3.2,3.6
		c-1.3,0.8-1.8,0.2-2.4-0.5c-1.8-2.4-3.6-4.9-5.4-7.3c-2.4-3.2-4.8-6.5-7.4-9.6c-2.6-3.1-5.2-6.2-8.1-9.1
		c-4.7-4.7-9.2-9.8-14.9-13.4c-0.2-0.1-0.4-0.4-0.6-0.6C99.1,101.9,99.3,101.8,99.4,101.6z"/>
	<path d="M90,93.8c1.3,1,2.3,1.7,3.5,2.6C91.5,97.1,89.8,95.9,90,93.8z"/>
	<path d="M29,134c-1.9,0.1-3.2,0.1-4.8,0.1C25.6,132.2,27.4,132.2,29,134z"/>
	<path d="M54.1,65.8c-7.8-3.9-14.9-9.2-23.3-12.2c0.5-1.2,1.3-0.8,1.9-0.5c2.4,1.1,4.8,2.2,7.1,3.4c3.4,1.8,6.7,3.9,10,5.8
		c1.1,0.6,2.4,1.1,3.6,1.7c0.5,0.2,0.7,0.8,1.1,1.2C54.4,65.4,54.3,65.6,54.1,65.8z"/>
	<path d="M28.2,51.9c-0.6,0.1-1,0.3-1.2,0.2c-0.2-0.1-0.4-0.6-0.3-0.8c0.1-0.2,0.6-0.4,0.9-0.3C27.8,51,27.9,51.4,28.2,51.9z"/>
</g>
</svg>
