<!-- Generator: Adobe Illustrator 20.1.0, SVG Export Plug-In  -->
<svg version="1.1"
	 xmlns="http://www.w3.org/2000/svg" xmlns:xlink="http://www.w3.org/1999/xlink" xmlns:a="http://ns.adobe.com/AdobeSVGViewerExtensions/3.0/"
	 x="0px" y="0px" width="240.7px" height="303.2px" viewBox="0 0 240.7 303.2" style="enable-background:new 0 0 240.7 303.2;"
	 xml:space="preserve">
<style type="text/css">
	.st0{fill:#FFFFFF;}
</style>
<defs>
</defs>
<g>
	<path d="M203.6,274.5c-5.4,4.3-10.8,8.8-16.4,13c-6.6,5-14.2,7.9-21.8,11c-9.5,3.8-19.4,4.6-29.4,4.7c-8.1,0.1-16.1-0.6-23.9-2.7
		c-0.3-0.1-0.7-0.1-1.1-0.2c-7.6-3-15.3-5.9-22.9-8.9c-2.6-1-5.2-2.2-7.7-3.5c-4.5-2.4-9-5-13.4-7.5c-9.5-5.4-18.5-11.7-26.6-19.2
		c-2.7-2.5-5.7-4.8-8.5-7.3c-2.7-2.4-5.1-5.1-6.9-8.3c-2.1-3.6-4.5-7.1-7.2-10.3c-5.2-6.3-9.1-13.3-11.5-21.1c-4-13-6.7-26.3-6.4-40
		c0.1-5.8,1-11.5,2.4-17.1c3-12.2,8.1-23.6,13.8-34.8c3.4-6.5,7-12.9,11.9-18.4c4.8-5.4,9.7-10.6,15.2-15.4
		c7-6.1,13.3-12.9,20.1-19.2c3.5-3.3,7.4-6.1,11-9.3c7.7-6.8,16.8-11.6,24.8-18c8-6.4,16-12.7,22.8-20.4c4-4.6,8.5-8.8,12.8-13.2
		c3.9-4.1,9.1-5.7,14.4-7c4.9-1.2,9.7-1.7,14.5,0.4c1.1,0.5,2.9,0.1,4.1-0.5c4.3-2.3,8.3-0.7,12.1,1.1c2.5,1.2,3.6,3.9,4.4,6.4
		c0.7,2,1.9,3.3,3.7,4.2c5.2,2.7,8.7,6.9,11,12.3c1.8,4.2,4.1,8.1,6.4,12.1c4.6,8,7.8,16.5,10.8,25.2c2.2,6.4,4.6,12.6,7,18.9
		c3.9,10.4,7.2,20.9,9.2,31.9c0.3,1.4,0.7,2.8,1,4.2c1.6,6.3,3,12.6,4.8,18.9c2.1,7.7,2.3,15.7,2.4,23.6c0.2,9.5,0.1,18.9-0.5,28.4
		c-0.4,6.1-1.9,12.1-3.1,18.1c-2.3,11.3-6.3,22-11.1,32.4c-3.6,7.7-6.9,15.6-12,22.6c-1.6,2.1-2.6,4.7-4.2,6.7
		c-1.9,2.3-4.3,4.2-6.4,6.3C203.4,274.3,203.5,274.4,203.6,274.5z M35.8,254c0.2,0,0.5,0,0.7,0.1c1.8,1.6,3.6,3.2,5.4,4.8
		c1.7,1.5,3.3,3.1,5.4,5.1c-0.4-2.3-0.6-3.8-0.9-5.4c-3.1,0.5-2.8-1.8-2.9-4c-0.6,1-1,1.6-1.5,2.3c-2.3-1.4-0.7-3.5-1.5-5.1
		c-2-1.2-4.1-2.5-6.2-3.6c-2.1-1.1-3.6-3.5-7-3.7C29.9,248.5,32.9,251.2,35.8,254z M152,269.8c0.1,2.5,0.1,5,0.2,7.5
		c0.1,2.6-0.7,5.7,0.4,7.8c1.4,2.7-0.8,4.8-0.2,7.1c0.2,0.6,0.2,1.2,0.3,1.7c0.3,1.4,0.6,2.8,0.9,4.2c0.1,0.3,0.3,0.6,0.4,1.1
		c0.8-0.3,1.6-0.5,2.4-0.7c0-3.6-0.1-7.1-0.1-10.6c0-3.9,0.3-7.9,0.1-11.8c-0.1-2.1-1-4.1-1.5-6.2c0.5-0.7,1-1.5,1.4-2.2
		c0.2,0,0.5,0.1,0.7,0.1c0.3,1.2,0.7,2.5,0.8,3.7c0.2,5.4,0.4,10.8,0.5,16.2c0,3.3,0.2,6.6,1.4,10.2c1.6-0.7,3-1.3,4.1-1.8
		c-0.3-2.7-0.7-5.2-0.9-7.7c-0.1-2.4,0.1-4.8,0-7.2c-0.1-2.5-0.4-5-0.3-7.6c0-2.3-1.4-4.7,0.2-7.1c0.7,0.7,1.3,1.5,1.3,2.4
		c0.3,2.8,0.3,5.5,0.5,8.3c0.2,2.9-0.2,6,0.8,8.5c0.7,1.9,1.1,3.5,1.1,5.4c0,1.3,0.1,2.5,0.2,3.8c2.9-0.4,3.6-2.1,3.5-4.4
		c-0.3-6.5-0.5-13-0.7-19.5c-0.1-1.4-0.1-2.7-0.1-4.2c2.1,0.1,1.9,1.4,1.9,2.4c0.3,5.6,0.5,11.3,0.8,16.9c0.1,2,0.4,3.9,0.6,5.9
		c2.6-0.4,3.6-1.3,3.5-3.7c-0.4-7.1,0.1-14.2-1.2-21.2c-0.1-0.6,0.1-1.3,0.3-2.4c0.8,0.7,1.4,0.9,1.6,1.4c0.4,1.4,0.8,2.8,0.9,4.2
		c0.2,4.8,0.3,9.6,0.5,14.4c0.1,1.4,0.4,2.7,0.7,4.8c4-2.6,7.4-4.9,10.9-7.2c-0.4-1-0.9-1.6-0.9-2.3c-0.5-5.4-0.9-10.8-1.2-16.2
		c0-0.5,0.6-1,1.3-1.9c2.6,6.1,0.5,12.4,2.6,18.1c3.3-1.6,3.3-1.6,3.1-4.6c-0.3-4.7-0.6-9.4-0.9-14c-0.1-0.9,0.1-1.7,0.1-2.8
		c2.1,0.7,2,2.2,2,3.3c0.2,3,0.3,6,0.4,9c0.1,1.5-0.3,3.2,1.4,4.2c3.1-3,6.1-5.9,9-8.7c-1.3-2.9-2-14.2-1.2-19.3
		c0.6,0.5,1.4,0.8,1.5,1.2c0.4,1.1,0.5,2.4,0.6,3.5c0.3,3.1,0.6,6.3,1,9.7c2.1-1,2.6-2.1,2.5-4c-0.4-5.5-0.4-11.1-0.5-16.6
		c0-0.6,0.5-1.2,1.1-2.4c2.4,5.7,0.7,11.1,2.1,16.1c0.6-0.7,1.2-1.4,1.2-2.1c0.1-3.7,0-7.4,0-11.2c0-2-0.2-4.1-0.3-6.1
		c0-0.9,0-1.8,1.6-1.5c2.1,4.5,0.2,9.7,1.6,14.8c1.7-3.4,3.2-6.4,4.6-9.4c0.4-0.9,0.7-2.1,0.6-3.1c-0.7-5.4-1.5-10.7-2.3-16
		c-0.1-0.7,0.2-1.4,0.5-2.8c1.9,2.8,1.8,5.4,2.2,7.8c0.5,2.5,0.1,5.2,1.4,7.8c1.3-1.5,1.5-2.7,1.1-4.2c-0.4-1.4-0.7-2.8-0.7-4.3
		c0-5.1-0.4-10.1-2.1-14.9c-0.1-0.2,0.1-0.5,0.2-0.8c1.5-0.2,2.1-1.1,1.9-2.7c-0.2-1.3-0.2-2.6-0.3-4l0,0.1c0.3-1.2,0.6-2.4,1-4
		c1.1,0.8,1.8,1.1,2.1,1.6c2.7,3.9,2.7,8.6,3.9,13.3c1.5-1.9,1.3-3.6,1.2-5.4c-0.4-5.2-1.3-10.3-3.9-14.9c-1-1.8-1.8-3.6-2.6-5.5
		c-0.2-0.5-0.3-1.6,0-1.9c0.9-0.8,1.5,0.1,2,0.8c0.3,0.5,0.6,1,0.9,1.6c1.6,3.1,3.2,6.3,5,9.9c-0.1-4.2-0.8-7.7-2.4-10.9
		c-1.6-3.1-3.4-6.1-5.1-9.1c-0.5-0.9-1.6-1.7-0.3-2.9c2.4,2,5.4,3.4,6.3,6.8c0.7,2.6,1.6,5,2.5,7.5c0.3,0.9,0.7,1.8,1.3,3.4
		c0.2-1.3,0.4-1.6,0.3-1.9c-1-9.4-4.3-18.1-9-26.3c-0.5-0.8-1.5-1.6-0.5-2.5c1.1-0.9,2.1-0.2,2.6,0.9c1,1.9,2.1,3.8,2.9,5.8
		c1.7,4.3,3.1,8.6,4.7,13c-0.4-11-4.4-20.7-10.8-29.6c1.7-1.4,2.8-0.3,3.5,0.9c1.8,2.8,3.5,5.7,5.1,8.7c0.8,1.4,1.2,3,1.8,4.5
		c0.3-0.1,0.6-0.2,0.9-0.4c-0.7-9.4-5.9-17-11.2-24.6c2.6-0.4,2.9-0.1,5.8,4.3c1.4,2.1,2.7,4.2,4.2,6.5c-0.1-0.5-0.1-0.9-0.2-1.2
		c-1.6-6-4.6-11.3-8.5-16.2c-0.9-1.1-1.9-2.1-0.8-4.3c3.5,3,5.6,6.9,8.5,10.1c-0.5-2.1-0.9-4.3-2.1-6c-2.4-3.6-5.1-6.9-7.8-10.3
		c-0.6-0.8-1.4-1.4-0.4-2.8c3.6,1.2,5.1,4.8,7.8,7.1c-0.4-2-0.9-4.1-2-5.7c-4-5.7-8.2-11.3-12.2-16.9c-0.3-0.5-0.3-1.2-0.5-2
		c0.7,0,1.2-0.2,1.3,0c3.3,3.9,6.6,7.9,9.9,11.9c-0.2-2.4-0.5-4.7-1.8-6.8c-2.1-3.2-4.3-6.4-6.7-9.4c-2.1-2.6-4.6-4.8-6.8-7.3
		c-0.4-0.5-0.3-1.4-0.4-2.2c0.7,0,1.5-0.2,1.9,0.1c1.6,1.3,3.1,2.6,4.4,4.2c2,2.4,3.9,5,5.8,7.5c-2.2-8.9-8-15.3-13.5-21.2
		c-1.9,0-3.1,0-4.2,0c2.3,2.2,4.3,4.8,4.1,8.3c-0.2,0.1-0.5,0.3-0.7,0.4c-1-1.3-2.1-2.7-3.2-4.1c-1,1.6,0.1,2.2,0.9,3.2
		c1.3,1.6,3.3,2.9,2.3,5.8c-1-0.6-1.9-1.2-2.8-1.7c1.1,3.2,4.7,5.1,3.4,9.5c-1.2-1.2-2-2.1-2.8-2.9c-0.2,0.1-0.4,0.3-0.6,0.4
		c0.4,0.6,0.8,1.2,1.2,1.8c1.4,2.1,2.7,4.2,4,6.3c0.2,0.3-0.3,1-0.4,1.5c-0.5-0.2-1.2-0.2-1.5-0.5c-0.7-0.8-1.2-1.7-1.8-2.5
		c-0.2,0.1-0.5,0.2-0.7,0.3c0.4,1.2,0.6,2.4,1.1,3.5c0.8,1.5,1.8,2.8,2.7,4.3c0.5,0.9,1.3,1.9-0.2,2.9c-0.9-0.7-1.8-1.5-3-2.4
		c0.3,3.2,3.6,4.9,2.7,8.5c-1.1-0.6-1.9-1.1-3-1.7c0.1,3.6,3.4,6.2,3.1,10.6c-1.4-1.4-2.3-2.4-3.5-3.7c0.1,4.3,3.8,6.5,4.2,10.1
		c-2.3,1.3-2.1-2-4-1.8c-0.1,3.6,3.9,5.5,4.2,9.2c-2.4,0.3-2.9-2.2-4.5-2.7c-1.1,4,2.8,5.9,3.8,9.7c-1.7-0.6-2.9-1.1-4.1-1.5
		c0.3,3.2,3.8,4.7,3.7,7.7c-0.3,0.2-0.5,0.4-0.8,0.6c-1.1-0.9-2.3-1.8-3.4-2.7c1.2,3.4,3.5,6.3,4.2,10.2c-3.8,0-2.9-4.2-5.3-5
		c-1,1.3,0.2,2,0.7,2.9c1.4,2.1,2.8,4.2,4,6.4c0.3,0.5,0,1.4,0,2.1c-0.2,0.1-0.5,0.1-0.7,0.2c-1.5-2.1-3-4.2-4.9-6.8
		c-0.4,1.7-0.8,3-1,4c2.7,3,4.3,6.1,5.3,10c-2,0-2.3-1.4-3-2.3c-0.7-0.9-1.2-1.9-1.8-2.9c-0.6,3.3,3,5.3,2.1,9.4
		c-1.3-1.5-2.2-2.6-3.2-3.8c-1.1,1.8-0.9,3.3,0.1,4.9c1,1.5,1.7,3.2,2.3,4.9c0.2,0.5-0.1,1.2-0.2,1.8c-0.2,0.1-0.5,0.2-0.7,0.2
		c-0.9-1.4-1.9-2.8-3-4.3c-1.3,1.8-1.5,3.2-0.3,4.8c0.8,1.1,1.4,2.5,1.9,3.9c0.2,0.5-0.2,1.2-0.4,2.2c-1.3-1.3-2.2-2.3-3.2-3.3
		c-1.8,1.6-1.2,3.1-0.5,4.7c1,2.2,1.7,4.6,1.6,7c-0.2,0.1-0.5,0.2-0.7,0.3c-1-1.7-2-3.5-3.2-5.5c-1.1,2.5,0.4,4.2,0.6,6
		c0.2,1.7,1.8,3.4-0.2,5.6c-0.9-1.8-1.6-3.4-2.4-4.9c-2,1.6-1.8,3.2-1.2,5.1c0.7,2.2,1.6,4.4,1.5,7.4c-2.6-1.7-2.4-4.5-4-6.3
		c-2.3,2-0.6,4-0.4,5.8c0.3,1.9,1,3.8,1.7,6.4c-3.5-1.6-2.6-5.1-4.4-6.7c-1.5,0.8-1.8,2-1.4,3.5c0.4,1.6,0.9,3.3,1.2,4.9
		c0.2,1,0.2,1.9,0.3,3.4c-3.2-1.5-2-4.7-3.9-6.3c-1.5,0.6-1.6,1.8-1.3,3.3c0.4,1.8,0.8,3.5,1.1,5.3c0.1,0.7-0.2,1.4-0.3,2.1
		c-0.3,0-0.6,0.1-0.8,0.1c-0.8-2-1.5-4.1-2.3-6.2c-2.2,1-2.8,2.3-2,4.4c0.4,1.1,1.4,2.4-0.2,4c-0.9-1.3-1.7-2.5-2.5-3.7
		c-4.2,1.3-0.8,4.8-1.8,6.9c-0.4,0-0.6,0.1-0.6,0c-0.8-0.8-1.6-1.6-2.5-2.6c-1.1,1-2.2,2.1-3.3,3.2c-0.6,1.6,1.5,3.2-0.3,5.3
		c-0.8-1.4-1.5-2.5-2.1-3.6c-1.6,0.4-1.4,1.5-1.3,2.6c0.1,1,0.2,2,0.2,3c-2,0.4-2-2.7-4.1-1.4c-0.1,0.8-0.1,1.7-0.2,2.5
		c-1.3-0.2-2.6-0.9-3.3-0.5c-4.6,2.5-9.2,5.2-13.7,7.9c-8.1,4.9-16.8,8.3-26.2,9.8c-2.1,0.3-4.2,0.7-6.3,1
		c0.8,6.7,0.9,13.2,0.5,19.7c-2.4-2.9-1.4-6.3-1.8-9.5c-0.4-3.4-0.3-6.9-1.4-10.1c-1.7-0.3-1.7,0.8-1.6,1.8c0.1,3.5,0.2,7,0.2,10.5
		c0,0.7-0.4,1.4-0.6,2.1c-0.2,0-0.5,0-0.7-0.1c-0.1-0.9-0.3-1.7-0.4-2.6c-0.2-3.4-0.4-6.7-0.6-10.1c-0.1-1.2-0.4-2.2-2.4-1.5
		c0,3.7,0.1,7.6,0.1,11.5c-0.7-0.2-1-0.1-1.1-0.3c-1.9-3.7-0.4-7.8-1.4-11.9c-1.4-0.1-2.8-0.3-4.5-0.4c0.2,1.6,0.3,2.9,0.4,4.2
		c0.1,1.2,0.9,2.5-0.7,3.8c-2-2.6-1-6.3-3.4-8.7c-2.2,2.4,1.1,5.6-1.6,7.7c-2.1-2.6-0.3-6.1-3-8.2c-0.3,1.5-0.2,2.8-0.1,4.2
		c0.1,1.2-0.6,1.4-1.5,1.5l0,0c-1.1-2,0-4.7-1.9-6.6c-1.6,1.4,1.1,3.8-1.8,4.9c-0.4-1.8-0.8-3.5-1.2-5.2c0-0.1-0.2-0.1-0.4-0.2
		c-0.4,0.7-0.7,1.5-1.5,2.9c-0.8-1.9-1.3-3.2-1.9-4.5c-4.6-1.5-9.3-3-14-4.5c2.2,4.3,5,7.9,8.5,10.9c5.7,4.8,11.1,9.9,16.6,14.9
		c5.2,4.8,11.4,7.9,17.8,10.6c3.1,1.3,6.3,3.1,10,0.3c0.6,3,2.7,3.4,4.8,3.5c6,0.2,12,0.4,18,0.4c3.3,0,6.6-0.4,9.8-0.7
		c-0.1-4.2-0.2-7.9-0.3-11.6c-0.1-3.7-0.3-7.4-0.3-11.2c0.1-3.6-1.1-7.2-0.6-11.1C151.9,266.8,151.3,268.7,152,269.8z M105,258.8
		c1,2.8,1.8,5.2,2.6,7.6c2.4-0.1,4.4-0.2,6.3-0.3c0.7-2.6-1.3-5.2,1.6-7.1c0.6,2.4,1,4.4,1.6,6.7c2.1-0.3,3.8-0.6,5.4-0.9
		c0.6-2.5-1.3-4.7,0.3-6.8c0.4,0.1,0.7,0.1,0.8,0.3c0.3,0.4,0.5,0.8,0.6,1.2c1.4,5.2,1.4,5.2,6.1,2.7c0.2-0.1,0.3-0.4,0.3-0.5
		c0.6-2.1-1.7-4.1,0.3-6.8c1,2.2,1.7,3.9,2.5,5.6c2.1-1.1,3.9-2.1,5.6-3c0.2-2.1-2-3.6-0.6-6.2c1.2,1.8,2.2,3.4,3.3,5.1
		c1.9-1.2,3.6-2.2,5-3.1c0.2-2.1-2.2-3.7-0.1-5.8c1.1,1.6,2.1,2.9,3.2,4.3c1.5-0.7,2.8-1.2,3.8-1.7c0.1-1.9-2.6-3.1-0.1-4.8
		c1,1.1,1.9,2.2,2.8,3.2c2.4,0.2,3.3-1.8,4.4-2.7c0.8-1.7-1.6-3.1,0.5-4.8c0.8,1,1.6,2,2.7,3.2c1.6-1.4,3.1-2.7,4.6-4
		c-0.8-1.6-1.5-2.9-2.1-4.2c0.2-0.2,0.4-0.3,0.6-0.5c1.3,0.8,2.6,1.7,3.9,2.5c1.6-1.6,3.1-3,4.6-4.5c-1-1.4-1.9-2.7-2.8-4
		c0.2-0.2,0.4-0.4,0.6-0.6c1.4,0.8,2.7,1.6,4.3,2.5c1.5-1.4,3-2.9,4.3-4.2c-0.6-2.6-3.8-3.4-3.6-7c2.1,1.7,3.6,3,5.5,4.6
		c1.2-1.7,2.2-3.1,3.2-4.4c-1.4-2.4-4.2-3.7-3.8-7.3c2,1.7,3.7,3.2,5.5,4.7c1-1.9,1.8-3.3,2.5-4.6c-1.7-2.3-4.9-2.8-5.5-5.9
		c3.2-0.6,4.2,3.3,7.1,3c1.5-2.8,1.5-2.8-0.7-4.7c-0.7-0.6-1.3-1.2-2.2-2c2.4-1.1,3.7,1,5.8,0.7c0.7-1.6,1.4-3.3,2.1-4.9
		c-5.8-4.1-5.8-4.1-5.9-5.7c2.3,0.9,4.5,1.8,6.6,2.6c2.5-4.7,2.4-5.1-1.4-7.8c-0.7-0.5-1.2-1.2-2.1-2.1c2.6-1.1,4.1,1.6,6.5,0.8
		c0.3-1.9,0.7-3.9,1.1-6c-6.5-1.4-7.4-1.8-7.9-4.4c0.9,0.2,1.7,0.4,2.4,0.5c1.4,0.3,2.8,0.6,4.2,0.7c0.6,0,1.2-0.5,1.7-0.8
		c-0.4-0.5-0.7-1.2-1.2-1.5c-1.4-0.7-2.9-1.2-4.3-1.9c-0.6-0.3-0.9-1-1.4-1.6c0.1-0.2,0.3-0.4,0.4-0.6c2.2,0.5,4.3,0.9,6.7,1.4
		c0.1-1.3,0.2-2.3,0.2-3.3c-2.1-1.3-4.8-1.6-5.5-4.6c2.1,0.7,4,1.2,5.8,1.8c1-3.9,1-3.9-1.9-4.9c-1.2-0.4-2.5-0.8-3.7-1.4
		c-0.6-0.3-0.9-1.1-1.8-2.3c3.5,0.8,6.1,1.4,8.7,2c1.2-4.6,1.1-4.6-2.6-6.2c-0.7-0.3-1.4-0.5-2-0.9c-0.4-0.3-0.7-0.9-1.5-2.1
		c2.9,0.5,4.9,0.9,7.4,1.4c0.1-2.2,0.2-4,0.3-5.7c-2.1-1.2-3.8-2.1-5.8-3.2c1.9-2.5,3.5,0.5,5.5-0.6c0.2-1.3,0.5-2.8,0.7-4.2
		c-2.4-2.1-5.4,0.4-7.6-2c2.4-1.6,5-1.1,7.6-1.5c0-1.2,0-2.3,0-3.3c-2.1-1.3-4.9,0.4-6.5-2.5c2.4-0.2,4.5-0.4,6.7-0.7
		c0.1-1.7,0.3-3.2,0.4-4.5c-2.9-1.8-6.3-1.4-8.2-4.4c2.5,0.3,5,0.7,7.4,1c1.3-4.5,1.9-6.5-3.6-6.1c-1,0.1-2.2-0.3-3.2-0.6
		c-0.5-0.1-0.8-0.7-1.7-1.7c3.5-0.1,6.3-0.1,9-0.2c0.5-4.8,0.5-4.8-3.4-6c-0.8-0.2-1.5-0.8-2.2-1.1c0.1-0.2,0.1-0.5,0.2-0.7
		c1.5-0.1,3-0.1,4.9-0.2c-0.1-1.9-0.2-3.8-0.3-5.8c-1.6-0.1-2.9-0.1-4.2-0.1c-1.3,0-2.9,0.7-3.1-1.7c2.4-0.4,4.6-0.7,7.1-1
		c-0.1-2.8-0.2-5.4-0.3-8.3c-2.2,0.5-3.9,1.1-5.7,1.4c-1.6,0.2-3.5,1.1-5-1.2c3.6-1.2,7.5-1,10.4-3.6c-0.1-2.2-0.3-4.4-0.4-6.6
		c-8.5,0.7-7.4,0.6-7.8-1.6c2.5-0.4,5.1-0.9,7.8-1.4c-0.1-1.4-0.1-2.6-0.2-3.6c-2.6-1-5.1,0.2-7.3-1.2c0.8-1.6,2.1-1.2,3.2-1.4
		c1.3-0.2,2.6-0.3,4.1-0.5c-0.2-1.6-0.3-2.8-0.5-4.3c-1.6,0.1-2.9,0.2-4.2,0.1c-1.2-0.1-2.9,0.9-3.6-1.5c2.5-0.4,4.9-0.8,7.4-1.2
		c0-1.4,0-2.7,0-4.3c-1.9,0.1-3.5,0.2-5.2,0.4c-3.3,0.3-3.3,0.4-4.3-1.5c2.9-0.5,5.8-1,8.9-1.6c-0.2-1.5-0.4-2.6-0.6-3.9
		c-1.9-0.1-3.6,0-5.3-0.3c-1.5-0.3-3.6,0.8-4.8-1.7c3.2-0.3,6.2-0.6,9.4-0.8c-0.3-1.4-0.6-2.4-0.8-3.3c-2.6-0.9-5.4,0-8-1.5
		c2.4-2,5-0.6,7.5-1.6c-0.4-1.3-0.7-2.7-1.1-3.9c-3.6-0.2-6.8-1.5-9.9,0.5c-1.5-2.9-1.4-3.3,1-3.6c2.3-0.4,4.6-0.8,7.2-1.3
		c-0.4-1.5-0.7-2.7-1-3.6c-2.6-0.5-4.2,2.5-6.7,1.2c0-0.4,0-0.7,0.1-0.8c0.6-0.4,1.2-0.8,1.8-1.1c3.4-2.1,3.4-4.4-0.1-6.8
		c-1.9,0.4-2.3,3.3-5.3,3.3c1.4-2.3,2.5-4.2,3.8-6.4c-1.1-0.7-2.1-1.3-3.4-2.1c-1.8,2.6-3.5,4.9-5.2,7.3c-0.3-0.1-0.6-0.3-0.8-0.4
		c0.2-3,2.7-5.2,3-8.4c-0.9-0.4-1.7-0.7-2.5-1c-1.6,1.8-3.1,3.4-4.5,4.9c-0.2-0.2-0.5-0.3-0.7-0.5c0.6-1.8,1.2-3.7,1.9-5.7
		c-1.2-0.5-2.2-1-3-1.3c-2.5,1.2-1.9,4.7-5.4,5.4c0.9-2.9,1.6-5.1,2.4-7.6c-1.4-0.6-2.5-1-3.9-1.6c-0.5,2-0.8,3.7-1.4,5.2
		c-0.5,1.5,0,3.4-2,4.8C164.6,13,166.3,9.6,167,6c-0.7-0.3-1.5-0.6-2.3-0.9c-1.2,3.2-0.4,6.8-3.1,10.1c-0.2-1.5-0.4-2.2-0.4-3
		c0.1-1.9,0.4-3.8,0.6-5.8c0.2-2.5-0.1-2.9-2.6-3.4c-0.7-0.2-1.4-0.3-2.3-0.5c-0.1,2.2-0.1,3.9-0.4,5.5c-0.3,1.6,1.1,3.5-0.7,5.2
		c-2.4-3.1-1.1-6.7-1.8-10.1c-2.2,0.5-4.3,1-6.6,1.5c0.7,3,1.2,5.5,1.9,8.7c-3.9-1.8-2.7-5.9-5.1-7.8c-1.8,0.8-3.8,0.9-4.6,3
		c0.8,2.1,1.5,4.2,2.3,6.2c-0.2,0.1-0.5,0.3-0.7,0.4c-1.4-1.5-2.9-3-4.7-4.9c-1.7,1.8-3.1,3.3-4.4,4.8c1.2,2.6,2.3,4.9,3.4,7.2
		c-0.3,0.2-0.6,0.4-0.9,0.6c-1.5-1.7-3-3.4-4.8-5.4c-1.1,1.1-2.1,2.2-2.9,3.1c0.4,2.9,3.7,3.7,3.4,6.5c-1.6,0.7-2.2-0.6-3.1-1.3
		c-0.9-0.8-1.7-1.6-2.5-2.4c-1.2,1.1-2.1,2-2.9,2.8c0.7,2.5,3.6,3.8,3.1,7.2c-1.9-1.8-3.5-3.2-4.9-4.6c-3.7,1.9-3.7,2-1.7,5
		c0.7,1.1,2.1,2,1.2,4.2c-1.9-1.7-3.5-3.2-5.2-4.8c-1.4,1.4-2.7,2.6-3.8,3.6c0,2.1,2.5,2.9,1.7,5.5c-1.4-1.5-2.6-2.7-4-4.1
		c-1.3,1.1-2.3,2-3.2,2.8c0.9,2.3,2.9,3.6,2.9,5.9c-0.5,0.1-0.9,0.2-1,0.1c-1-0.9-1.9-1.8-2.8-2.7c-1.4-1.4-2-1.3-4.1,0.1
		c-1.3,0.9-2.3,1.8-1.2,3.5c0.6,0.9,1.4,1.9,1,3.6c-1.7-1.3-3.1-2.3-4.6-3.3c-1.8,1.2-3.5,2.3-5.3,3.6c0.9,1.6,1.7,3,2.5,4.4
		c-0.2,0.2-0.4,0.4-0.7,0.6c-1.5-1.1-2.9-2.1-4.6-3.4c-1.6,1-3.3,2.1-5.1,3.3c1.1,2,2.1,3.7,3,5.4c-0.2,0.2-0.4,0.3-0.6,0.5
		c-1.4-1.3-2.9-2.5-4.5-3.9c-2,1.6-3.7,2.9-5.1,4c0.2,2.3,2.6,3.2,1.7,5.8c-1.5-1.3-2.7-2.3-4.2-3.6c-1.2,0.9-2.4,1.8-3.7,2.8
		c1,1.5,1.9,2.8,2.8,4.1c-0.2,0.2-0.4,0.4-0.6,0.7c-1.5-0.8-2.9-1.7-4.4-2.5c-1.7,1.6-3.2,3.1-4.6,4.4c0.7,1.6,2.9,2.3,1.8,4.6
		c-1.5-0.9-2.7-1.8-4.1-2.6c-1,1-1.8,1.7-2.5,2.5c-0.8,0.8-1.7,1.6-2.5,2.4c0.7,1.5,3.2,1.9,2.2,4.1c-1.8-0.6-3.5-1.8-5-1.5
		c-1.5,0.4-2.6,2.2-3.4,3c-0.1,3,3.8,2.6,3.3,5.9c-2.1-1.1-4-2-6.2-3.1c-1.5,1.3-3.5,2.3-4.1,4.3c0.8,1.8,3.4,1.7,3.5,4.6
		c-2.2-0.9-4-1.6-6.3-2.6c-1.9,2.1-3.9,4.3-5.7,6.3c0.9,2.1,3.8,2.1,3.7,4.8c-0.5,0-0.9,0.1-1.2,0c-5.2-2.4-5.2-2.4-8.4,2.2
		c-0.1,0.1,0,0.2,0,0.6c1.1,2.2,4.8,1.7,5.8,5.3c-2.9-1-5.3-1.7-7.8-2.6c-0.9,1.3-1.7,2.5-2.5,3.6c1.2,2.4,4.5,1.7,5.4,5
		c-2.7-0.8-4.9-1.3-7.2-2c-1.3,2.4-3.2,4.6-3.5,7.6c4.8,3,4.8,3,5,4.5c-0.9-0.2-1.7-0.4-2.4-0.7c-4.3-1.6-4.6-1.5-6.3,2.8
		c-0.3,0.7-0.4,1.6-0.5,2.3c4.7,1.9,4.7,1.9,5.5,4c-2.4-0.5-4.6-0.9-7.1-1.4c-0.7,1.8-1.4,3.6-2,5.2c2.1,1.6,4.9,0.7,6.5,3.1
		c-2,0.7-3.8,0-5.5,0.2c-0.9,0.1-2.3,0.5-2.7,1.2c-0.9,2-2.1,4.1-1.8,6.4c2,1.2,4.8-0.7,6.4,2.5c-1.5,0.1-2.6,0.3-3.8,0.3
		c-1.2,0.1-2.3,0.1-3.8,0.1c-0.6,2.9-1.1,5.5-1.7,8c2.7,1.8,6-0.9,8.8,2.2c-3.5,0.5-6.3,1-9.3,1.5c-0.1,2.9-0.2,5.6-0.2,8.2
		c2.5,0.7,5-0.9,7.7,1.2c-2.9,0.9-5.2,1.6-7.6,2.4c0,3-0.4,5.8,0.9,8.3c2.3,0.8,4.7-2,7,1c-1.8,0.5-3.2,1-4.7,1.4
		c-1.1,0.3-2.1,0.9-1.9,2.3c0.4,2.1,0.3,4.3,2,6.4c1.1-0.3,2.1-0.6,3.1-1c1-0.3,1.9-1.2,2.9-0.1c-1.1,1.8-1.1,1.8-3,2.8
		c-3.2,1.7-3.3,2-1.3,5.6c1-0.4,1.9-0.8,2.9-1.1c0.9-0.3,1.9-0.4,2.9-0.6c0.1,0.2,0.2,0.4,0.3,0.7c-1.9,1.5-3.8,3-5.9,4.6
		c0.8,2.3,1.6,4.4,2.4,6.6c1.9-0.9,3.2-1.7,4.7-2.2c1.4-0.5,2.6-1.8,4.7-0.8c-2.9,2.1-5.4,3.9-8,5.8c1.2,2.9,1.8,5.6,4.2,7.2
		c3.1,0.1,4.6-4.3,8.5-2.4c-2.5,1.9-4.6,3.6-7,5.4c1.2,1.4,2.1,2.6,3.1,3.8c1,1.1,2.1,1,3.1,0.1c0.9-0.8,1.7-1.7,2.7-2.4
		c0.7-0.5,1.5-0.8,2.3-1.1c0.2,0.2,0.4,0.5,0.6,0.7c-1.5,2-3.1,4-4.7,6.1c1.3,1,2.3,1.7,3.2,2.3c2.4-1.6,2.6-5.1,6.4-5.5
		c-1.3,2.6-2.4,4.8-3.6,7.4c1.7,1.2,3.3,2.3,4.8,3.4c1.9-1.4,1.4-4.6,4.8-4.5c-0.5,1.6-1,2.9-1.2,4.3c-0.1,0.8,0,2.2,0.6,2.5
		c2.4,1.5,4.7,3.2,7.6,3.6c2.1-5.7,2.1-5.7,4.1-5.7c-0.3,2.3-0.6,4.7-1,7.2c1.6,0.4,2.9,0.8,4,1.1c1.6-1.6,0.7-4.5,3.9-4.8
		c-0.3,1.8-0.5,3.4-0.8,5.2c1.8,0.3,3.2,0.5,4.4,0.7c1.2-1.4,0.6-4,3.5-3.8c-0.2,1.7-0.5,3.3-0.7,5c2.1,0.9,4,1.6,5.8,2.4
		c1.3-2.4-0.4-5.6,2.8-7.4c0.9,3-0.8,6.1,1.2,8.8c1.7,0.5,3.4,1,5.2,1.5c0.4-2,0.8-3.7,1.3-6.1c2.5,2.4,0.6,5,2.1,7.2
		c1,0.3,2.4,0.6,4.3,1.2c-0.2-1.5-0.4-2.4-0.3-3.4c0-0.9,0.4-1.7,0.6-2.5c0.3,0,0.6,0,0.9-0.1c0.2,0.8,0.6,1.6,0.7,2.4
		c0.6,4.1,0.6,4.2,4.7,5c0.8,0.1,1.6,0.1,2.5,0.2c0.2-2.5-0.5-5,1.4-7.1c1.7,1,0.5,2.6,1,3.7c0.6,1.4,1.4,2.8,2.4,3.8
		c0.5,0.5,1.9,0.1,2.7,0.1C104.6,263.3,102.7,261.1,105,258.8z M222,86.1c0.2-0.2,0.4-0.3,0.6-0.5c-4-6.3-7.1-13.1-13.4-18.4
		c1,2,1.8,3.5,2.5,5.1c0.1,0.2-0.1,0.6-0.2,1.2c-1.1-0.5-1.9-0.8-3.5-1.5c0.8,1.8,1.3,2.9,1.8,4.1c2-2,3-0.6,4,0.6
		C216.6,79.9,219.3,83,222,86.1z M228.4,224.3c1.7-2,2.3-4.1,1.9-6.6c-0.7-4.6-0.6-9.3-2.9-13.5
		C226.9,210.9,227.4,217.6,228.4,224.3z M208.4,59c-0.3,0.1-0.6,0.3-0.8,0.4c0.3,1.2,0.3,2.7,1.1,3.5c2.3,2.7,4.8,5.1,7.3,7.7
		c0.2-0.2,0.4-0.3,0.6-0.5C214.4,65.9,211.6,62.3,208.4,59z M59.6,272.5c0.3,0,0.6,0,0.9,0c0.3-4.8,0.3-9.5-1.5-14.1
		C59.2,263.1,59.4,267.8,59.6,272.5z M56.7,258.3c-0.3,0-0.7,0-1,0c0,3.8-0.1,7.6-0.1,11.4c0,0.3,0.7,0.7,1.7,1.5
		C57,266.4,56.8,262.3,56.7,258.3z M49.5,264.4c-0.1,0.3-0.3,0.5-0.4,0.8c1.3,0.9,2.5,1.8,4.3,3.1c0-2-0.1-3.4-0.1-5.3
		c-0.8,0.7-1.1,1.1-1.5,1.2C51.1,264.4,50.3,264.4,49.5,264.4z M70.3,271.8c-0.3,5.2,0.1,6.5,2.1,8C71.7,277,71,274.4,70.3,271.8z
		 M49.9,261.8c0.4-1.9,1.2-3.9-0.2-6.3C48.5,257.9,48.8,259.9,49.9,261.8z M63.7,266.3c-1.2,3.7-1.2,4,0.7,6.5
		C64.2,270.3,64,268.3,63.7,266.3z M209.8,56c-0.9-1.7-1.6-3-2.5-4.7C207.1,54,207.1,54,209.8,56z M82.4,283.3c0,1-0.4,2.3,1.7,2.1
		C83.4,284.6,82.9,284,82.4,283.3z"/>
	<path class="st0" d="M105,258.8c-2.3,2.2-0.4,4.5-1.2,6.9c-0.8,0-2.2,0.4-2.7-0.1c-1.1-1-1.8-2.4-2.4-3.8c-0.5-1.1,0.7-2.6-1-3.7
		c-1.9,2-1.2,4.5-1.4,7.1c-0.9-0.1-1.7-0.1-2.5-0.2c-4.2-0.8-4.1-0.8-4.7-5c-0.1-0.8-0.5-1.6-0.7-2.4c-0.3,0-0.6,0-0.9,0.1
		c-0.2,0.8-0.5,1.7-0.6,2.5c0,0.9,0.2,1.9,0.3,3.4c-2-0.5-3.3-0.9-4.3-1.2c-1.4-2.2,0.5-4.8-2.1-7.2c-0.5,2.4-0.9,4.1-1.3,6.1
		c-1.8-0.5-3.6-1-5.2-1.5c-2-2.7-0.4-5.8-1.2-8.8c-3.2,1.8-1.5,4.9-2.8,7.4c-1.8-0.7-3.7-1.5-5.8-2.4c0.2-1.7,0.5-3.3,0.7-5
		c-2.9-0.2-2.3,2.4-3.5,3.8c-1.2-0.2-2.6-0.4-4.4-0.7c0.3-1.8,0.5-3.3,0.8-5.2c-3.1,0.3-2.2,3.2-3.9,4.8c-1-0.3-2.3-0.6-4-1.1
		c0.3-2.6,0.7-4.9,1-7.2c-2,0-2,0-4.1,5.7c-2.9-0.4-5.3-2.1-7.6-3.6c-0.5-0.3-0.7-1.7-0.6-2.5c0.2-1.4,0.7-2.7,1.2-4.3
		c-3.4-0.2-2.9,3-4.8,4.5c-1.5-1-3.1-2.2-4.8-3.4c1.3-2.6,2.3-4.8,3.6-7.4c-3.8,0.4-4,3.9-6.4,5.5c-0.8-0.6-1.8-1.4-3.2-2.3
		c1.6-2.1,3.2-4.1,4.7-6.1c-0.2-0.2-0.4-0.5-0.6-0.7c-0.8,0.4-1.6,0.6-2.3,1.1c-1,0.7-1.8,1.6-2.7,2.4c-1.1,1-2.1,1.1-3.1-0.1
		c-1-1.2-1.9-2.4-3.1-3.8c2.4-1.9,4.6-3.5,7-5.4c-3.9-1.9-5.4,2.5-8.5,2.4c-2.3-1.5-3-4.3-4.2-7.2c2.6-1.9,5.1-3.7,8-5.8
		c-2.1-1-3.4,0.3-4.7,0.8c-1.5,0.5-2.8,1.3-4.7,2.2c-0.8-2.2-1.5-4.2-2.4-6.6c2-1.6,3.9-3.1,5.9-4.6c-0.1-0.2-0.2-0.4-0.3-0.7
		c-1,0.2-2,0.3-2.9,0.6c-1,0.3-2,0.8-2.9,1.1c-2-3.5-1.9-3.9,1.3-5.6c1.8-0.9,1.9-1,3-2.8c-1-1.1-1.9-0.2-2.9,0.1
		c-1,0.3-2,0.6-3.1,1c-1.6-2.1-1.6-4.3-2-6.4c-0.2-1.3,0.7-1.9,1.9-2.3c1.5-0.4,2.9-0.9,4.7-1.4c-2.2-3-4.6-0.2-7-1
		c-1.3-2.5-0.9-5.3-0.9-8.3c2.4-0.8,4.8-1.5,7.6-2.4c-2.7-2.1-5.2-0.5-7.7-1.2c0.1-2.6,0.2-5.3,0.2-8.2c3-0.5,5.8-0.9,9.3-1.5
		c-2.8-3.1-6.1-0.3-8.8-2.2c0.5-2.5,1.1-5.1,1.7-8c1.4,0,2.6-0.1,3.8-0.1c1.1-0.1,2.3-0.2,3.8-0.3c-1.6-3.2-4.4-1.3-6.4-2.5
		c-0.3-2.3,0.9-4.3,1.8-6.4c0.3-0.7,1.7-1.1,2.7-1.2c1.7-0.2,3.5,0.6,5.5-0.2c-1.6-2.4-4.4-1.5-6.5-3.1c0.6-1.6,1.3-3.3,2-5.2
		c2.5,0.5,4.6,0.9,7.1,1.4c-0.9-2.1-0.9-2.1-5.5-4c0.2-0.7,0.2-1.6,0.5-2.3c1.8-4.3,2-4.4,6.3-2.8c0.8,0.3,1.6,0.4,2.4,0.7
		c-0.2-1.5-0.2-1.5-5-4.5c0.3-2.9,2.2-5.1,3.5-7.6c2.3,0.6,4.4,1.2,7.2,2c-0.9-3.3-4.2-2.6-5.4-5c0.7-1,1.6-2.3,2.5-3.6
		c2.6,0.8,4.9,1.6,7.8,2.6c-1-3.7-4.8-3.1-5.8-5.3c0-0.3,0-0.5,0-0.6c3.1-4.5,3.1-4.5,8.4-2.2c0.3,0.1,0.7,0,1.2,0
		c0.1-2.6-2.8-2.7-3.7-4.8c1.9-2.1,3.8-4.2,5.7-6.3c2.3,0.9,4.1,1.7,6.3,2.6c0-2.9-2.7-2.8-3.5-4.6c0.6-2.1,2.6-3,4.1-4.3
		c2.2,1.1,4,2.1,6.2,3.1c0.5-3.3-3.4-2.9-3.3-5.9c0.8-0.8,1.9-2.7,3.4-3c1.4-0.3,3.2,0.9,5,1.5c1.1-2.3-1.5-2.6-2.2-4.1
		c0.8-0.8,1.6-1.6,2.5-2.4c0.8-0.7,1.6-1.5,2.5-2.5c1.3,0.9,2.6,1.7,4.1,2.6c1.1-2.2-1-3-1.8-4.6c1.4-1.4,2.9-2.8,4.6-4.4
		c1.4,0.8,2.9,1.6,4.4,2.5c0.2-0.2,0.4-0.4,0.6-0.7c-0.9-1.3-1.7-2.6-2.8-4.1c1.3-1,2.5-1.9,3.7-2.8c1.5,1.3,2.7,2.3,4.2,3.6
		c0.9-2.6-1.5-3.5-1.7-5.8c1.4-1.1,3.1-2.5,5.1-4c1.6,1.4,3,2.7,4.5,3.9c0.2-0.2,0.4-0.3,0.6-0.5c-0.9-1.7-1.9-3.4-3-5.4
		c1.8-1.1,3.4-2.2,5.1-3.3c1.7,1.2,3.2,2.3,4.6,3.4c0.2-0.2,0.4-0.4,0.7-0.6c-0.8-1.4-1.6-2.8-2.5-4.4c1.8-1.2,3.5-2.3,5.3-3.6
		c1.4,1,2.8,2.1,4.6,3.3c0.3-1.8-0.5-2.7-1-3.6c-1.1-1.7-0.1-2.6,1.2-3.5c2.1-1.5,2.6-1.5,4.1-0.1c0.9,0.9,1.8,1.9,2.8,2.7
		c0.1,0.1,0.4,0,1-0.1c0-2.3-2.1-3.6-2.9-5.9c0.9-0.8,1.9-1.7,3.2-2.8c1.4,1.4,2.6,2.7,4,4.1c0.8-2.6-1.7-3.4-1.7-5.5
		c1.1-1.1,2.3-2.3,3.8-3.6c1.7,1.5,3.3,3,5.2,4.8c0.9-2.2-0.6-3.2-1.2-4.2c-1.9-3-1.9-3.2,1.7-5c1.5,1.4,3,2.8,4.9,4.6
		c0.5-3.5-2.4-4.7-3.1-7.2c0.8-0.8,1.7-1.7,2.9-2.8c0.8,0.8,1.7,1.6,2.5,2.4c0.8,0.7,1.5,2,3.1,1.3c0.3-2.8-3-3.6-3.4-6.5
		c0.8-0.8,1.8-1.9,2.9-3.1c1.7,2,3.3,3.7,4.8,5.4c0.3-0.2,0.6-0.4,0.9-0.6c-1.1-2.3-2.2-4.6-3.4-7.2c1.3-1.5,2.8-3,4.4-4.8
		c1.8,1.9,3.3,3.4,4.7,4.9c0.2-0.1,0.5-0.3,0.7-0.4c-0.8-2-1.5-4.1-2.3-6.2c0.8-2.1,2.9-2.2,4.6-3c2.4,1.9,1.2,6,5.1,7.8
		c-0.7-3.2-1.3-5.8-1.9-8.7c2.3-0.5,4.4-1,6.6-1.5c0.8,3.4-0.5,7,1.8,10.1c1.7-1.7,0.4-3.6,0.7-5.2c0.3-1.6,0.3-3.3,0.4-5.5
		c1,0.2,1.7,0.3,2.3,0.5c2.5,0.6,2.8,1,2.6,3.4c-0.2,1.9-0.5,3.8-0.6,5.8c-0.1,0.7,0.2,1.5,0.4,3c2.7-3.3,1.9-6.9,3.1-10.1
		c0.8,0.3,1.6,0.6,2.3,0.9c-0.7,3.6-2.3,7-1.2,11.1c2-1.4,1.5-3.3,2-4.8c0.6-1.6,0.9-3.2,1.4-5.2c1.3,0.5,2.5,1,3.9,1.6
		c-0.8,2.5-1.5,4.7-2.4,7.6c3.4-0.8,2.8-4.3,5.4-5.4c0.7,0.3,1.8,0.8,3,1.3c-0.7,2.1-1.3,3.9-1.9,5.7c0.2,0.2,0.5,0.3,0.7,0.5
		c1.5-1.6,2.9-3.2,4.5-4.9c0.8,0.3,1.6,0.7,2.5,1c-0.4,3.2-2.9,5.4-3,8.4c0.3,0.2,0.6,0.3,0.8,0.4c1.7-2.3,3.3-4.7,5.2-7.3
		c1.3,0.8,2.3,1.4,3.4,2.1c-1.3,2.2-2.4,4.1-3.8,6.4c3,0.1,3.4-2.8,5.3-3.3c3.5,2.4,3.5,4.7,0.1,6.8c-0.6,0.4-1.2,0.7-1.8,1.1
		c-0.1,0.1-0.1,0.4-0.1,0.8c2.4,1.3,4.1-1.7,6.7-1.2c0.3,1,0.6,2.1,1,3.6c-2.5,0.5-4.8,0.9-7.2,1.3c-2.4,0.4-2.5,0.7-1,3.6
		c3-1.9,6.3-0.7,9.9-0.5c0.3,1.2,0.7,2.6,1.1,3.9c-2.5,1-5.1-0.4-7.5,1.6c2.6,1.5,5.4,0.7,8,1.5c0.2,0.9,0.5,1.9,0.8,3.3
		c-3.2,0.3-6.1,0.6-9.4,0.8c1.2,2.5,3.3,1.4,4.8,1.7c1.6,0.3,3.3,0.2,5.3,0.3c0.2,1.3,0.4,2.5,0.6,3.9c-3,0.5-5.9,1.1-8.9,1.6
		c1,1.9,1,1.9,4.3,1.5c1.6-0.2,3.3-0.3,5.2-0.4c0,1.6,0,2.9,0,4.3c-2.5,0.4-4.9,0.8-7.4,1.2c0.7,2.4,2.4,1.4,3.6,1.5
		c1.3,0.1,2.6-0.1,4.2-0.1c0.2,1.4,0.3,2.7,0.5,4.3c-1.6,0.2-2.9,0.2-4.1,0.5c-1.1,0.2-2.5-0.2-3.2,1.4c2.2,1.4,4.8,0.3,7.3,1.2
		c0,1,0.1,2.1,0.2,3.6c-2.7,0.5-5.3,0.9-7.8,1.4c0.4,2.2-0.7,2.3,7.8,1.6c0.1,2.2,0.3,4.4,0.4,6.6c-3,2.6-6.8,2.4-10.4,3.6
		c1.5,2.3,3.4,1.5,5,1.2c1.8-0.3,3.5-0.8,5.7-1.4c0.1,2.9,0.2,5.5,0.3,8.3c-2.4,0.4-4.7,0.7-7.1,1c0.2,2.4,1.9,1.7,3.1,1.7
		c1.3,0,2.6,0.1,4.2,0.1c0.1,2,0.2,3.9,0.3,5.8c-1.9,0.1-3.4,0.1-4.9,0.2c-0.1,0.2-0.1,0.5-0.2,0.7c0.7,0.4,1.4,0.9,2.2,1.1
		c3.9,1.2,3.9,1.2,3.4,6c-2.7,0.1-5.5,0.1-9,0.2c0.9,1,1.2,1.6,1.7,1.7c1,0.3,2.1,0.7,3.2,0.6c5.5-0.4,4.9,1.7,3.6,6.1
		c-2.4-0.3-4.9-0.7-7.4-1c1.9,3.1,5.2,2.6,8.2,4.4c-0.1,1.3-0.2,2.8-0.4,4.5c-2.2,0.2-4.3,0.4-6.7,0.7c1.7,2.9,4.5,1.3,6.5,2.5
		c0,1,0,2.1,0,3.3c-2.6,0.4-5.2-0.1-7.6,1.5c2.2,2.4,5.2-0.1,7.6,2c-0.2,1.3-0.5,2.9-0.7,4.2c-2,1.1-3.6-1.9-5.5,0.6
		c1.9,1.1,3.6,2,5.8,3.2c-0.1,1.7-0.2,3.5-0.3,5.7c-2.5-0.5-4.5-0.9-7.4-1.4c0.8,1.1,1,1.7,1.5,2.1c0.6,0.4,1.3,0.6,2,0.9
		c3.7,1.6,3.8,1.7,2.6,6.2c-2.6-0.6-5.2-1.2-8.7-2c0.9,1.2,1.2,2,1.8,2.3c1.2,0.6,2.4,1,3.7,1.4c2.9,1,2.9,1,1.9,4.9
		c-1.9-0.6-3.7-1.2-5.8-1.8c0.7,3.1,3.5,3.3,5.5,4.6c-0.1,1-0.1,2-0.2,3.3c-2.4-0.5-4.6-1-6.7-1.4c-0.1,0.2-0.3,0.4-0.4,0.6
		c0.4,0.5,0.8,1.3,1.4,1.6c1.4,0.7,2.9,1.2,4.3,1.9c0.5,0.3,0.8,1,1.2,1.5c-0.6,0.3-1.2,0.9-1.7,0.8c-1.4-0.1-2.8-0.5-4.2-0.7
		c-0.8-0.2-1.5-0.3-2.4-0.5c0.5,2.5,1.4,3,7.9,4.4c-0.4,2-0.7,4.1-1.1,6c-2.4,0.7-3.9-2-6.5-0.8c0.8,0.9,1.4,1.6,2.1,2.1
		c3.8,2.7,3.9,3.1,1.4,7.8c-2.1-0.8-4.2-1.7-6.6-2.6c0.1,1.7,0.1,1.7,5.9,5.7c-0.7,1.6-1.4,3.3-2.1,4.9c-2,0.3-3.4-1.9-5.8-0.7
		c0.9,0.8,1.5,1.4,2.2,2c2.2,1.9,2.2,1.9,0.7,4.7c-2.8,0.4-3.9-3.6-7.1-3c0.7,3.1,3.8,3.6,5.5,5.9c-0.7,1.3-1.5,2.8-2.5,4.6
		c-1.8-1.6-3.5-3-5.5-4.7c-0.4,3.6,2.4,4.9,3.8,7.3c-1,1.4-2,2.8-3.2,4.4c-1.9-1.6-3.5-2.9-5.5-4.6c-0.2,3.6,2.9,4.4,3.6,7
		c-1.4,1.3-2.9,2.8-4.3,4.2c-1.6-0.9-3-1.7-4.3-2.5c-0.2,0.2-0.4,0.4-0.6,0.6c0.9,1.3,1.8,2.6,2.8,4c-1.5,1.5-3,2.9-4.6,4.5
		c-1.3-0.8-2.6-1.6-3.9-2.5c-0.2,0.2-0.4,0.3-0.6,0.5c0.7,1.3,1.3,2.6,2.1,4.2c-1.5,1.3-3,2.6-4.6,4c-1.1-1.3-1.9-2.2-2.7-3.2
		c-2,1.7,0.3,3.1-0.5,4.8c-1.1,0.9-2,2.9-4.4,2.7c-0.9-1-1.8-2-2.8-3.2c-2.5,1.7,0.2,3,0.1,4.8c-1,0.5-2.3,1-3.8,1.7
		c-1.1-1.5-2-2.7-3.2-4.3c-2,2.1,0.3,3.7,0.1,5.8c-1.4,0.9-3.1,1.9-5,3.1c-1.1-1.8-2.1-3.3-3.3-5.1c-1.5,2.6,0.7,4.1,0.6,6.2
		c-1.7,0.9-3.5,1.9-5.6,3c-0.7-1.7-1.5-3.4-2.5-5.6c-2,2.7,0.2,4.7-0.3,6.8c-0.1,0.1-0.1,0.4-0.3,0.5c-4.7,2.5-4.7,2.5-6.1-2.7
		c-0.1-0.4-0.4-0.9-0.6-1.2c-0.1-0.2-0.4-0.2-0.8-0.3c-1.6,2.1,0.3,4.4-0.3,6.8c-1.6,0.3-3.3,0.6-5.4,0.9c-0.5-2.3-1-4.3-1.6-6.7
		c-2.9,1.9-0.9,4.5-1.6,7.1c-1.9,0.1-3.9,0.2-6.3,0.3C106.8,264,106,261.7,105,258.8z M82.8,74.5c2.6-0.9,4.9-2.2,6.7-5.1
		c-3.1,1-5,2.7-6.7,4.7c-0.8,0.5-1.7,0.9-2.4,1.4C76.2,78.9,72,82.3,68,85.9c-4.1,3.6-8.1,7.4-12.2,11.2c-0.7,0.6-1.2,1.5-1.7,2.3
		c-0.2,0.5-0.1,1.1-0.3,2.5c2.2-2.6,3.7-4.8,5.6-6.6c4.5-4.2,9.1-8.2,13.7-12.3c0.4-0.4,1-0.7,1.4-1.1C77.3,79.5,80.1,77,82.8,74.5z
		 M57.3,116.8c-0.7,0.7-1.5,1.3-2,2c-3.2,5.1-6.6,10.1-9.4,15.4c-4.9,9.2-8.2,19-10.8,29c-0.9,3.4-1.1,7.1-1.4,10.7
		c-0.2,2.5,0.4,5.1,0,7.6c-1.2,8.2,1.3,15.7,4.2,23.2c2.2,5.7,5.4,10.7,10.5,14.3c2,1.5,3.8,3.3,5.9,4.8c2.6,1.8,5.3,3.3,8,4.8
		c0.5,0.3,1.4-0.1,2.8-0.2c-1.1-0.9-1.4-1.4-1.9-1.6c-3.7-1.5-6.8-4-9.8-6.6c-3.5-3.1-7.5-5.7-9.9-9.8c-1.2-2.1-2.5-4.1-3.5-6.3
		c-2.7-6-4.9-12.2-4.8-19c0.1-3.8,0-7.7,0.2-11.5c0.1-2.6,0.1-5.3,0.8-7.9c1.1-4.5,2.8-8.9,4.1-13.4c2.2-7.4,5.4-14.4,9.2-21.1
		c2.7-4.8,5.7-9.4,8.5-14.2c2.8-3.2,5.5-6.3,8.3-9.5c4-4.4,7.9-8.7,13.1-11.7c1.5-0.9,2.8-2,4.2-3c-0.1-0.2-0.3-0.4-0.4-0.7
		c-0.5,0.2-1,0.3-1.5,0.5c-6.2,3.4-11.2,8.3-15.9,13.4C62.5,109.3,60.1,113.2,57.3,116.8z M54.2,111.6c-0.7,0.8-1.6,1.5-2.1,2.5
		c-6.9,11.7-13.7,23.5-17.1,36.8c-0.6,2.2-1.5,4.3-2.3,6.5c-3.4,9.5-5.2,19.3-4.4,29.4c0.3,3.3,1,6.7,1.5,10
		c1,6.5,3.3,12.6,6.8,18.1c2.9,4.5,6.2,8.9,9.9,12.8c5.8,6,12.2,11.3,21,12.4c0.8,0.1,1.6,0.5,2.4,0.7c7.3,1.7,14.5,3.4,21.8,4.9
		c2.1,0.4,4.3,0.2,6.5,0.1c1,0,1.8-0.6,1.3-1.8c-2.9-0.3-5.8-0.3-8.6-0.8c-6.5-1.2-12.9-2.8-19.4-4.1c-10.5-2-19-7.3-25.9-15.3
		c-5.6-6.5-10-13.8-12.7-22c-0.8-2.4-1.3-4.9-1.8-7.3c-0.3-1.5-0.5-3.1-0.7-4.6c-0.3-2.9-0.9-5.7-0.7-8.6c0.6-9,1.9-17.9,5.6-26.3
		c0.7-1.5,1.3-3.1,1.7-4.8c2.9-11.9,8.7-22.6,15-33c1.1-1.7,1.9-3.6,2.9-5.4c2.1-2.5,4.2-5,6.8-8.1C58.5,105,56.4,107.4,54.2,111.6z
		 M173.6,150.7c-0.5,0-0.9,0.1-1.4,0.1c-0.2-2.2-0.5-4.5-0.5-6.7c-0.1-6.5-1.1-12.9-3.1-19.2c-0.7-2.4-1.5-4.8-2.1-7.3
		c-2.5-10.9-7.3-20.9-13.8-30c-2.8-3.9-6.1-7.2-11.4-8.1c-3.6-0.6-7.2-0.7-10.7-0.6c-4.4,0.1-9,0.6-13.1,1.9
		c-8,2.6-15.8,5.7-23.2,9.9c-12.6,7.1-22.4,17-30.7,28.5c-5.5,7.6-10.2,15.7-15,23.8c-3.3,5.6-6.4,11.3-7.8,17.8
		c-0.8,3.9-1.4,7.8-2.2,11.7c-1,4.9-0.8,9.9,0,14.7c0.6,3.8,1.4,7.7,3.1,11.1c2.9,5.9,6.6,11.3,11.5,15.9c4.4,4.2,9.1,7.4,14.9,9
		c3.9,1.1,7.9,2.3,11.8,3.4c1,0.3,2.2,0.5,3.3,2.1c-3.2-0.6-5.7-1-8.4-1.5c1,2,1,2,2.6,2.3c6.1,1.2,12.3,2.4,18.4,3.5
		c2.1,0.4,4.3,0.7,6.4,0.7c7,0.1,14-1,20.7-2.8c10-2.5,19.3-6.9,27.2-13.6c3.3-2.8,6.5-5.8,9-9.3c4.9-6.7,8.5-14.3,10.3-22.5
		c1.6-7.1,3.4-14.3,4.4-21.5c0.9-6.9,0.9-13.9,1.2-20.9c0.1-2.1-0.2-4.3-0.4-6.5c-0.1-0.5-0.6-1-0.8-1.4
		C173.9,140.5,173.7,145.6,173.6,150.7z M196,126.5c-0.3,0-0.5-0.1-0.8-0.1c-0.3,0.5-0.8,0.9-0.8,1.4c0,3,0.1,6,0.2,9
		c0.4,10.2-0.7,20.2-2.9,30.1c-1.7,7.5-4.1,14.8-6.2,22.2c-4.1,14.9-11.8,27.8-22.3,39.1c-2,2.1-4,4.3-6.4,5.8
		c-5.8,3.5-11.6,6.7-17.7,9.6c-3.9,1.8-8.1,2.8-12.2,4.2c-1.7,0.6-3.4,1.3-5.1,1.7c-8.7,2.2-17.5,1.4-26.2,1
		c-12.2-0.6-23.6-4.4-34.8-8.8c-10.5-4.2-18.9-10.9-25.3-20.2c-6.7-9.7-10.6-20.4-11.5-32.2c-0.7-9.4,0-18.8,1.5-28
		c2-12.4,6.2-23.9,13.1-34.5c0.6-1,1.1-2,2-3.5c-0.9,0.4-1.2,0.4-1.3,0.5c-0.4,0.4-0.8,0.9-1.2,1.4c-4.8,7.8-9,15.9-11.5,24.8
		c-2.6,9.2-3.4,18.7-4.2,28.1c-0.9,10.5,0.3,20.8,4,30.5c6.1,16.1,16.9,28.2,33.2,34.7c7.6,3,15.5,5.2,23.3,7.6
		c2.1,0.7,4.4,1,6.7,1.2c5.8,0.4,11.5,0.7,17.3,0.9c3,0.1,6-0.1,9-0.4c7.6-0.7,14.6-3.8,21.8-6.1c5-1.6,9.6-4.3,14.3-6.9
		c4.2-2.3,8.2-5.1,11.3-8.9c1.2-1.4,2.3-2.8,3.5-4.1c6.3-7,12-14.5,15.2-23.5c1.7-4.6,3.6-9.2,5.2-13.8c2.8-7.9,5-16.1,6.6-24.4
		c2.4-12.3,2.6-24.6,2.4-37C196.2,127.6,196.1,127.1,196,126.5z M70.9,77.9c-0.3-0.2-0.6-0.4-0.8-0.6c-2.7,2.3-5.7,4.5-8.1,7.1
		c-4.2,4.4-8.3,9-12.1,13.8c-3.8,4.9-7.7,9.9-10.6,15.4c-5.6,10.5-11.4,20.9-14.5,32.5c-1.7,6.1-3.9,12.1-4.6,18.5
		c-0.7,6.1-1.6,12.1-2.5,18.2c-1.2,8.5-0.6,16.8,2,24.9c2.2,7,6,13.1,10.3,18.9c2.2,3,5.1,5.4,7.7,8c0.3,0.3,1.2,0.1,1.9,0.2
		c-0.2-0.6-0.2-1.4-0.5-1.8c-1.2-1.3-2.7-2.3-3.9-3.7c-4.9-5.5-8.7-11.8-11.8-18.4c-3.6-7.5-4.5-15.4-4.1-23.5
		c0.2-4.4,0.8-8.9,1.3-13.3c1-8.8,2.4-17.6,5-26.2c2.2-7.1,4.9-14,8.3-20.7c4.6-9.3,9.2-18.4,15.9-26.5c6.2-7.4,12-15,19.9-20.8
		C70.1,79.5,70.4,78.6,70.9,77.9z M98.4,64.3c1.3,0,1.9,0.2,2.2,0c5.4-4.1,11.6-6.1,17.9-8.4c4-1.4,7.9-3,11.8-4.5
		c8.6-3.4,17.2-6.8,25.9-10.1c1.2-0.5,2.6-0.7,3.9-0.9c2.8-0.3,5,0.5,7.1,2.6c3.9,3.9,6.9,8.3,10.2,12.6c4,5.2,6.2,11.1,7.9,17.3
		c1.6,5.9,2.8,11.9,4,17.9c0.9,4.4,1.5,8.8,2.3,13.2c0.2,1.1-0.1,2.5,1.6,2.9c0.1-0.4,0.3-0.8,0.3-1.1c-1.2-6.5-2.4-13-3.6-19.5
		c-0.7-3.8-1.8-7.5-2.5-11.3c-0.9-5.1-2.5-10.1-5.1-14.5c-3-5.2-6.6-10-10-15c-4.5-6.6-10.2-8.2-17.6-5.2
		c-8.6,3.5-17.2,6.9-25.8,10.3c-7.8,3.1-15.7,6-23.6,9.1C102.9,60.5,100.6,61.6,98.4,64.3z M179.3,164.2c0.5-0.3,0.8-0.4,0.9-0.5
		c0.2-0.7,0.4-1.4,0.5-2.1c2.3-13.3,1.7-26.6,0.3-39.9c-0.5-4.7-1.5-9.3-2-13.9c-1.4-11.5-4.1-22.7-9.1-33.2
		c-1.8-3.8-4.1-7.3-7.3-10.2c-2-1.7-2.9-1.7-4.8-0.5c1.6,0.9,3.5,1.6,4.8,2.9c1.9,2.1,3.8,4.5,5,7c2.3,5.1,4.7,10.4,5.9,15.8
		c2.3,9.9,4.2,20,5.4,30.1c1.8,14,2.4,28,0.1,42.1C178.9,162.6,179.2,163.4,179.3,164.2z M114.9,244.5c0.1,0.3,0.2,0.6,0.3,0.8
		c2.3-0.2,4.6-0.5,6.8-1.4c6.7-2.9,13.5-5.6,20.1-8.8c4.4-2.2,8.8-4.7,12.6-7.7c7.1-5.7,12.6-12.9,17.4-20.6
		c6.8-10.9,11.2-22.8,15.2-35c0.4-1.3,0.4-2.6,0.6-4c-0.3-0.1-0.5-0.1-0.8-0.2c-0.3,0.6-0.7,1.1-0.9,1.7c-0.4,1.4-0.5,2.8-1,4.2
		c-3.5,10.6-7.6,21.1-13.4,30.7c-3.5,5.7-7.9,10.8-12,16.2c-2.9,3.8-6.5,6.7-10.7,9c-4.3,2.3-8.8,4.3-13.1,6.7
		c-6,3.4-12.4,5.8-19.1,7.4C116.1,243.6,115.5,244.1,114.9,244.5z M176.9,79.1c1.1,2.7,2.2,4.7,2.9,6.8c3.7,11.7,7.1,23.5,6.2,36
		c-0.1,0.8,0,1.7,0.1,2.5c0.5,10.9,0.9,21.9,0,32.8c-0.1,1.3-0.2,2.5-0.3,4c1.8-0.2,2.2-1.2,2.3-2.5c0.2-3.2,0.5-6.5,0.5-9.7
		c-0.1-10.3-0.4-20.6-0.5-31c-0.1-5.8-0.6-11.5-2.2-17.1c-0.2-0.6-0.2-1.2-0.3-1.8c-1.7-5.7-3.4-11.5-5.2-17.2
		C179.9,80.8,179.3,79.6,176.9,79.1z M174.5,126.7c0.3,0,0.7,0,1,0c0.1-0.8,0.4-1.6,0.3-2.3c-1.3-10.1-2.7-20.2-6.6-29.8
		c-3.6-9-9.6-15.9-16.8-22.1c-1.1-0.9-2.4-1.6-3.8-2.1c-2.8-1-6.9,0-9.4,2.5c1.2-0.2,2-0.2,2.7-0.4c3.5-1.1,6.8-0.7,9.4,1.9
		c3.2,3.3,6.2,6.7,9.2,10.1c1.6,1.8,3.2,3.6,4.4,5.6c4.6,8.1,6.7,16.9,8.1,26C173.6,119.6,174,123.2,174.5,126.7z M73.8,92
		c0.4,0.2,0.6,0.3,0.6,0.2c1.5-1.3,3-2.7,4.6-4c9.6-7.5,19.7-14.1,30.7-19.4c12.7-6.2,25.7-11.4,38.8-16.5c2.8-1.1,5.7-1.9,8.8-1
		c0.3,0.1,0.8-0.3,1.4-0.5c-1.3-1.7-2.9-1.8-4.4-1.5c-2.4,0.4-4.7,1-6.9,1.8c-7.8,3.1-15.6,6.2-23.4,9.6
		c-7.4,3.2-14.8,6.4-21.8,10.3c-9.4,5.2-18.3,11.5-26.8,18.1C74.5,89.8,73.3,90.4,73.8,92z M91.8,62.8c0.2,0.3,0.5,0.6,0.7,0.8
		c1-0.8,2-1.5,2.9-2.3c4-3.7,8.3-6.9,13-9.6c4-2.2,7.9-4.6,11.8-6.9c14.2-8.4,28.3-16.8,44.7-20.3c1.3-0.3,1.4-1.1,1.1-2.5
		c-1.5,0.3-3,0.5-4.5,1c-10.9,3.6-21.3,8.3-31.2,14c-5,2.9-9.8,6.1-14.9,8.8c-8.1,4.2-15.5,9.5-22.5,15.5
		C92.6,61.7,92.3,62.3,91.8,62.8z M112.2,239.5c0.1,0.3,0.1,0.7,0.2,1c1.8,0.5,3.7,0.1,5.4-0.5c5.3-1.9,10.5-4,15.8-5.9
		c13.5-5,23.6-14.2,31.1-26.3c3.9-6.4,7-13.4,10.5-20.1c0.6-1.2,1.2-2.4,0.3-4.2c-0.5,0.9-0.9,1.5-1.2,2.1
		c-3.9,7.6-7.3,15.5-11.7,22.7c-5.5,9-12.6,16.6-22.6,21c-8.6,3.8-16.9,8.2-26.3,9.5C113.2,238.9,112.7,239.3,112.2,239.5z
		 M193.4,76.5c0.3,0,0.6,0,0.8-0.1c1-2,0.8-4,0.1-6c-2.4-6.8-3.5-14.2-7.4-20.5c-1.6-2.6-3-5.5-4.7-8c-1-1.5-2.6-2.6-4.8-3.2
		c0,2.5,1.4,3.9,2.6,5.2c2.4,2.7,4.6,5.5,5.7,9.1c2,6.5,4.1,13,6.2,19.5C192.3,73.9,192.9,75.2,193.4,76.5z M123.6,47.9
		c0.6,0.2,0.8,0.2,0.9,0.2c0.4-0.2,0.9-0.4,1.3-0.6c11.7-7,23.9-12.7,37.1-16.2c4.1-1.1,7.8-0.8,10.7,2.9c0.7,0.9,1.6,1.5,2.5,2.3
		c1.2-1.7,0.4-2.6-0.3-3.6c-3-3.8-6.9-4.8-11.6-3.9c-6.2,1.3-11.8,3.9-17.6,6.4c-6.8,3-13.6,6.1-19.9,10
		C125.7,46,124.8,46.9,123.6,47.9z M99.9,83.5c1.5-0.8,2.6-1.2,3.6-1.8c4.3-2.6,8.3-5.8,12.9-7.9c10.6-4.9,21.4-9.4,32.9-11.7
		c0.6-0.1,1.1-0.6,1.9-1.2C141.7,59.7,105.3,75.8,99.9,83.5z M176.9,73.4c1.8-1.7,1.3-3,0.6-4.4c-1-1.9-2.3-3.8-2.8-5.8
		c-1-4.3-4-7.2-6.7-10.4c-0.6-0.7-1.5-1-2.2-1.5c-1.1,1.3-0.5,1.9,0.2,2.6c2.6,2.9,5.1,5.9,6.3,9.9C173.2,67.1,175.2,70,176.9,73.4z
		 M96.7,240.2c0.1-0.3,0.2-0.5,0.3-0.8c-1-0.5-1.9-1.1-3-1.3c-6.9-1.7-13.9-2.8-19.9-6.8c-0.7-0.4-1.6-0.5-2.8-0.8
		C73.5,235.2,90.6,241.4,96.7,240.2z M182.6,34.8c-0.1-0.6,0-1-0.2-1.2c-2-3.4-5.2-5.5-8.6-7.4c-1-0.5-2.3-0.5-2.9,0.7
		c2.2,1.3,4.2,2.6,6.2,3.8C179,31.8,179.6,34.8,182.6,34.8z M191.7,110.3c-0.4,4,0.9,8.7,3,10.4
		C193.8,116.8,193.2,113.4,191.7,110.3z M51.2,105.1c-1.6,1.9-3.3,3.2-4.2,4.9c-0.9,1.7-3.2,2.7-3.1,5.4
		C47,112.5,50.7,107.4,51.2,105.1z M133,72.1c-2.7-1.5-6.9-0.3-9.4,2.9C126.8,74.1,130,73.1,133,72.1z M103.4,243.4
		c1.3,2.3,3,2,4.4,1.9c1,0,2.5,0.5,2.9-1.8C108.3,243.4,106.1,243.4,103.4,243.4z M84.5,67c-2.5-1-3.5,1-4.8,1.9
		c-1.4,1-2.7,2.2-4,3.4c0.2,0.3,0.4,0.5,0.6,0.8C78.9,71.1,81.5,69.2,84.5,67z M107,241.1c-2.3-2.6-2.9-2.7-5.3-0.3
		C103.7,240.9,105.1,241,107,241.1z M179.1,171.2c-1.9,1.9-1.9,1.9-0.6,4.7C179.9,174.7,179.3,173.2,179.1,171.2z"/>
	<path class="st0" d="M88,273.3c0.9-0.1,1.6-0.3,1.5-1.5c-0.2-1.4-0.2-2.7,0.1-4.2c2.7,2,0.9,5.6,3,8.2c2.7-2.1-0.6-5.3,1.6-7.7
		c2.4,2.4,1.4,6.1,3.4,8.7c1.5-1.2,0.7-2.6,0.7-3.8c-0.1-1.3-0.3-2.6-0.4-4.2c1.7,0.2,3,0.3,4.5,0.4c1,4.1-0.5,8.2,1.4,11.9
		c0.1,0.1,0.4,0.1,1.1,0.3c0-3.9-0.1-7.8-0.1-11.5c2-0.7,2.3,0.2,2.4,1.5c0.2,3.4,0.4,6.7,0.6,10.1c0.1,0.9,0.2,1.7,0.4,2.6
		c0.2,0,0.5,0,0.7,0.1c0.2-0.7,0.6-1.4,0.6-2.1c0-3.5-0.1-7-0.2-10.5c0-1-0.1-2.1,1.6-1.8c1.1,3.3,1,6.7,1.4,10.1
		c0.4,3.2-0.5,6.6,1.8,9.5c0.4-6.5,0.3-13-0.5-19.7c2.1-0.3,4.2-0.7,6.3-1c9.4-1.5,18.1-4.8,26.2-9.8c4.5-2.7,9.1-5.4,13.7-7.9
		c0.7-0.4,2.1,0.3,3.3,0.5c0.1-0.8,0.1-1.7,0.2-2.5c2.1-1.3,2.1,1.8,4.1,1.4c-0.1-1-0.1-2-0.2-3c-0.1-1.1-0.4-2.2,1.3-2.6
		c0.7,1.1,1.3,2.2,2.1,3.6c1.8-2.1-0.2-3.7,0.3-5.3c1.1-1.1,2.2-2.1,3.3-3.2c0.9,0.9,1.7,1.7,2.5,2.6c0.1,0.1,0.2,0,0.6,0
		c1.1-2.1-2.3-5.5,1.8-6.9c0.8,1.2,1.6,2.4,2.5,3.7c1.6-1.6,0.7-2.9,0.2-4c-0.8-2.1-0.2-3.5,2-4.4c0.8,2.1,1.5,4.1,2.3,6.2
		c0.3,0,0.6-0.1,0.8-0.1c0.1-0.7,0.4-1.5,0.3-2.1c-0.3-1.8-0.7-3.5-1.1-5.3c-0.3-1.4-0.2-2.6,1.3-3.3c1.9,1.5,0.8,4.8,3.9,6.3
		c-0.1-1.4-0.1-2.4-0.3-3.4c-0.3-1.7-0.8-3.3-1.2-4.9c-0.3-1.4-0.1-2.6,1.4-3.5c1.8,1.7,0.9,5.1,4.4,6.7c-0.7-2.6-1.4-4.4-1.7-6.4
		c-0.3-1.8-2-3.8,0.4-5.8c1.5,1.8,1.3,4.7,4,6.3c0.1-3-0.8-5.2-1.5-7.4c-0.6-1.9-0.7-3.5,1.2-5.1c0.8,1.6,1.5,3.1,2.4,4.9
		c1.9-2.1,0.3-3.9,0.2-5.6c-0.2-1.8-1.7-3.5-0.6-6c1.2,2.1,2.2,3.8,3.2,5.5c0.2-0.1,0.5-0.2,0.7-0.3c0.1-2.4-0.6-4.8-1.6-7
		c-0.7-1.6-1.3-3.1,0.5-4.7c1,1,1.9,2,3.2,3.3c0.2-1,0.6-1.7,0.4-2.2c-0.5-1.3-1-2.7-1.9-3.9c-1.2-1.7-1-3,0.3-4.8
		c1.1,1.6,2,3,3,4.3c0.2-0.1,0.5-0.2,0.7-0.2c0.1-0.6,0.4-1.3,0.2-1.8c-0.7-1.7-1.3-3.4-2.3-4.9c-1.1-1.6-1.2-3-0.1-4.9
		c1,1.2,1.9,2.3,3.2,3.8c0.9-4.1-2.6-6.1-2.1-9.4c0.6,1,1.1,2,1.8,2.9c0.7,0.9,1,2.2,3,2.3c-1-3.9-2.6-7-5.3-10c0.3-1,0.6-2.2,1-4
		c1.9,2.6,3.4,4.7,4.9,6.8c0.2-0.1,0.5-0.1,0.7-0.2c0-0.7,0.3-1.5,0-2.1c-1.3-2.2-2.7-4.3-4-6.4c-0.5-0.8-1.7-1.5-0.7-2.9
		c2.4,0.8,1.5,5,5.3,5c-0.8-3.8-3.1-6.7-4.2-10.2c1.1,0.9,2.3,1.8,3.4,2.7c0.3-0.2,0.5-0.4,0.8-0.6c0.1-3.1-3.4-4.6-3.7-7.7
		c1.2,0.4,2.3,0.9,4.1,1.5c-0.9-3.8-4.9-5.7-3.8-9.7c1.7,0.5,2.1,3,4.5,2.7c-0.3-3.6-4.3-5.5-4.2-9.2c1.9-0.2,1.6,3.1,4,1.8
		c-0.3-3.6-4.1-5.8-4.2-10.1c1.3,1.3,2.2,2.2,3.5,3.7c0.3-4.4-3-6.9-3.1-10.6c1,0.6,1.9,1.1,3,1.7c0.9-3.6-2.5-5.3-2.7-8.5
		c1.2,0.9,2.1,1.7,3,2.4c1.5-1,0.7-2.1,0.2-2.9c-0.8-1.5-1.9-2.8-2.7-4.3c-0.6-1.1-0.8-2.3-1.1-3.5c0.2-0.1,0.5-0.2,0.7-0.3
		c0.6,0.9,1.1,1.8,1.8,2.5c0.3,0.3,1,0.4,1.5,0.5c0.2-0.5,0.6-1.2,0.4-1.5c-1.3-2.2-2.6-4.2-4-6.3c-0.4-0.6-0.8-1.2-1.2-1.8
		c0.2-0.1,0.4-0.3,0.6-0.4c0.8,0.9,1.7,1.7,2.8,2.9c1.3-4.4-2.3-6.4-3.4-9.5c0.9,0.5,1.7,1.1,2.8,1.7c1.1-2.9-1-4.2-2.3-5.8
		c-0.8-0.9-1.8-1.6-0.9-3.2c1.1,1.4,2.2,2.8,3.2,4.1c0.2-0.1,0.5-0.3,0.7-0.4c0.1-3.5-1.9-6.1-4.1-8.3c1.1,0,2.3,0,4.2,0
		c5.5,5.8,11.3,12.3,13.5,21.2c-1.9-2.5-3.8-5.1-5.8-7.5c-1.3-1.5-2.9-2.9-4.4-4.2c-0.4-0.3-1.3-0.1-1.9-0.1c0.1,0.7,0,1.7,0.4,2.2
		c2.2,2.5,4.7,4.7,6.8,7.3c2.4,3,4.6,6.2,6.7,9.4c1.4,2,1.6,4.4,1.8,6.8c-3.4-4.1-6.6-8-9.9-11.9c-0.1-0.2-0.7,0-1.3,0
		c0.2,0.8,0.1,1.5,0.5,2c4.1,5.7,8.3,11.2,12.2,16.9c1.1,1.6,1.6,3.6,2,5.7c-2.7-2.3-4.2-5.9-7.8-7.1c-1,1.4-0.3,2,0.4,2.8
		c2.7,3.4,5.4,6.8,7.8,10.3c1.1,1.7,1.6,3.9,2.1,6c-3-3.2-5-7.1-8.5-10.1c-1.1,2.2,0,3.2,0.8,4.3c3.8,4.9,6.8,10.2,8.5,16.2
		c0.1,0.3,0.1,0.7,0.2,1.2c-1.5-2.3-2.8-4.4-4.2-6.5c-2.9-4.4-3.3-4.7-5.8-4.3c5.3,7.6,10.5,15.2,11.2,24.6
		c-0.3,0.1-0.6,0.2-0.9,0.4c-0.6-1.5-1-3.1-1.8-4.5c-1.6-2.9-3.3-5.8-5.1-8.7c-0.8-1.2-1.8-2.3-3.5-0.9c6.4,8.9,10.4,18.6,10.8,29.6
		c-1.6-4.3-3-8.7-4.7-13c-0.8-2-1.9-3.9-2.9-5.8c-0.6-1-1.5-1.8-2.6-0.9c-1,0.8,0,1.6,0.5,2.5c4.7,8.2,8,16.9,9,26.3
		c0,0.3-0.1,0.7-0.3,1.9c-0.6-1.6-1-2.5-1.3-3.4c-0.9-2.5-1.8-5-2.5-7.5c-0.9-3.5-3.9-4.8-6.3-6.8c-1.3,1.3-0.2,2.1,0.3,2.9
		c1.7,3,3.6,6,5.1,9.1c1.6,3.2,2.4,6.8,2.4,10.9c-1.8-3.6-3.4-6.8-5-9.9c-0.3-0.5-0.5-1.1-0.9-1.6c-0.5-0.7-1.1-1.6-2-0.8
		c-0.3,0.3-0.2,1.3,0,1.9c0.8,1.9,1.6,3.7,2.6,5.5c2.6,4.6,3.5,9.7,3.9,14.9c0.1,1.8,0.3,3.5-1.2,5.4c-1.2-4.7-1.2-9.4-3.9-13.3
		c-0.4-0.5-1.1-0.8-2.1-1.6c-0.4,1.6-0.7,2.8-1,4c-0.3-0.4-0.6-0.9-1-1c-0.5-0.1-1.1-0.1-1.5,0.2c-0.3,0.2-0.4,1-0.2,1.2
		c0.3,0.4,1,0.8,1.4,0.7c0.5-0.1,0.8-0.8,1.3-1.2c0.1,1.3,0.1,2.6,0.3,4c0.2,1.6-0.5,2.5-1.9,2.7c-0.1,0.4-0.2,0.7-0.2,0.8
		c1.7,4.8,2.1,9.8,2.1,14.9c0,1.4,0.3,2.9,0.7,4.3c0.4,1.5,0.2,2.8-1.1,4.2c-1.3-2.7-0.9-5.3-1.4-7.8c-0.4-2.4-0.3-5-2.2-7.8
		c-0.3,1.4-0.6,2.1-0.5,2.8c0.7,5.4,1.6,10.7,2.3,16c0.1,1-0.1,2.1-0.6,3.1c-1.4,3.1-3,6-4.6,9.4c-1.4-5,0.5-10.2-1.6-14.8
		c-1.6-0.3-1.6,0.6-1.6,1.5c0.1,2,0.3,4.1,0.3,6.1c0.1,3.7,0.1,7.4,0,11.2c0,0.7-0.6,1.4-1.2,2.1c-1.5-5,0.2-10.4-2.1-16.1
		c-0.6,1.2-1.1,1.8-1.1,2.4c0.1,5.5,0.2,11.1,0.5,16.6c0.1,1.9-0.4,3-2.5,4c-0.3-3.4-0.6-6.5-1-9.7c-0.1-1.2-0.2-2.4-0.6-3.5
		c-0.1-0.5-0.9-0.7-1.5-1.2c-0.7,5.2,0,16.4,1.2,19.3c-2.9,2.8-5.9,5.7-9,8.7c-1.7-1-1.3-2.7-1.4-4.2c-0.2-3-0.2-6-0.4-9
		c-0.1-1.2,0.1-2.7-2-3.3c-0.1,1.1-0.2,2-0.1,2.8c0.3,4.7,0.6,9.4,0.9,14c0.2,3,0.2,3-3.1,4.6c-2.1-5.7,0-12-2.6-18.1
		c-0.6,0.9-1.3,1.4-1.3,1.9c0.3,5.4,0.7,10.8,1.2,16.2c0.1,0.7,0.5,1.3,0.9,2.3c-3.5,2.3-6.9,4.6-10.9,7.2c-0.3-2.1-0.7-3.4-0.7-4.8
		c-0.2-4.8-0.2-9.6-0.5-14.4c-0.1-1.4-0.5-2.8-0.9-4.2c-0.1-0.4-0.8-0.7-1.6-1.4c-0.1,1.1-0.4,1.8-0.3,2.4c1.4,7,0.8,14.1,1.2,21.2
		c0.1,2.4-0.8,3.3-3.5,3.7c-0.2-2-0.5-3.9-0.6-5.9c-0.3-5.6-0.5-11.3-0.8-16.9c0-1,0.2-2.3-1.9-2.4c0,1.4,0,2.8,0.1,4.2
		c0.2,6.5,0.5,13,0.7,19.5c0.1,2.3-0.6,4-3.5,4.4c-0.1-1.3-0.2-2.5-0.2-3.8c0-1.9-0.4-3.6-1.1-5.4c-1-2.6-0.6-5.7-0.8-8.5
		c-0.2-2.8-0.3-5.5-0.5-8.3c-0.1-0.8-0.6-1.6-1.3-2.4c-1.5,2.4-0.2,4.8-0.2,7.1c0,2.5,0.3,5,0.3,7.6c0.1,2.4-0.1,4.8,0,7.2
		c0.1,2.5,0.5,5,0.9,7.7c-1.1,0.5-2.5,1.1-4.1,1.8c-1.2-3.5-1.3-6.8-1.4-10.2c-0.1-5.4-0.3-10.8-0.5-16.2c-0.1-1.2-0.5-2.5-0.8-3.7
		c-0.2,0-0.5-0.1-0.7-0.1c-0.5,0.7-1,1.5-1.4,2.2l0.1,0c-1-1.3-2.1-1.7-3.1-0.1l0.1,0c-0.7-1.1-0.1-3-2.4-3.7
		c-0.5,3.9,0.7,7.5,0.6,11.1c-0.1,3.7,0.2,7.4,0.3,11.2c0.1,3.7,0.2,7.4,0.3,11.6c-3.1,0.2-6.4,0.7-9.8,0.7c-6,0-12-0.2-18-0.4
		c-2-0.1-4.2-0.4-4.8-3.5c-3.6,2.8-6.8,1.1-10-0.3c-6.4-2.7-12.6-5.9-17.8-10.6c-5.5-5-10.9-10.1-16.6-14.9c-3.5-3-6.3-6.5-8.5-10.9
		c4.7,1.5,9.4,3,14,4.5c0.6,1.3,1.1,2.6,1.9,4.5c0.7-1.4,1.1-2.2,1.5-2.9c0.3,0.1,0.4,0.1,0.4,0.2c0.4,1.7,0.8,3.4,1.2,5.2
		c3-1.1,0.3-3.5,1.8-4.9C87.9,268.6,86.8,271.3,88,273.3c-0.3,0-0.5,0.1-0.7,0.1c-1,0.3-1.4,0.9-0.8,1.8c0.3,0.4,0.9,0.6,1.4,0.9
		c0.3-0.7,0.6-1.3,0.7-2C88.6,273.9,88.2,273.6,88,273.3z M142.6,299.6c0-2.2,0-3.7-0.1-5.1c-0.3-4.5-0.8-9.1-0.9-13.6
		c-0.1-4,0-7.9,0.1-11.9c0-1,0.1-2.1-1.2-2.1c-0.4,0-1,1.2-1,1.9c0,5.9,0,11.8,0,17.7c0,1.9-0.2,3.7-0.3,5.9
		C142,293.4,139.3,297.3,142.6,299.6z M146.9,298.6c1.6-1,1.3-2.4,1.1-3.8c-0.4-3.2-0.8-6.4-1-9.7c-0.3-5.5-0.5-11-0.8-16.6
		c0-0.7-0.5-1.4-0.7-2.2c-1.7,1-1.2,2.3-1.2,3.5c0,1.6,0.3,3.1,0.3,4.7c0.3,6.6,0.5,13.2,0.8,19.8
		C145.4,295.8,145.2,297.5,146.9,298.6z M133.7,265.9c-0.1,1.3-0.1,2.3-0.1,3.4c0,2.8,0.1,5.5,0.2,8.3c0.1,4.8,0.1,9.6,0.3,14.4
		c0,1.1,0.2,2.2,0.5,3.2c0.2,0.5,1,0.8,1.5,1.2c0.3-0.6,0.6-1.2,0.9-1.8c0.1-0.2,0-0.5-0.1-0.7c-1.6-3.1-0.9-6.4-1-9.6
		c-0.1-4.7-0.1-9.4-0.3-14.1C135.6,268.8,136,267,133.7,265.9z M127.9,268.9c-0.1,1.2-0.1,1.8-0.1,2.3c0.1,6.2,0.2,12.5,0.5,18.7
		c0.1,2.2,0.4,4.3,0.7,6.4c0.1,0.5,0.9,0.8,1.4,1.3c0.2-0.6,0.7-1.2,0.7-1.7c-0.2-3.7-0.5-7.4-0.7-11.1c-0.1-3.6,0-7.2-0.2-10.8
		C130.1,272.4,130.3,270.4,127.9,268.9z M120.7,270.7c0.4,3.8,0.8,7.3,1,10.7c0.2,3.1,0,6.2,0.1,9.3c0,1.1,0.2,2.2,0.5,3.2
		c0.4,1.2,1.3,1.3,2.2,0.3c-0.2-1.4-0.6-2.8-0.6-4.2c-0.1-3.8,0-7.7-0.2-11.5c-0.1-2.3-0.5-4.5-0.9-6.7
		C122.6,270.5,121.9,269.9,120.7,270.7z M118.4,292.7c0.3,0,0.6-0.1,0.9-0.1c0.2-0.5,0.4-1.1,0.4-1.6c-0.1-3.6-1.5-7.3,0.3-10.9
		c0.1-0.3,0-0.8-0.2-1c-1.6-1.9-1.2-4.3-1.6-6.5c-0.2-0.9,0-2-1.9-1.9c-0.2,6.5,0.8,13,1.1,19.5C117.4,291,118.1,291.8,118.4,292.7z
		 M183.9,284.5c0.5-0.8,0.9-1.2,0.9-1.5c-0.4-6.2-0.8-12.4-1.3-18.6c0-0.4-0.6-0.7-1-1.1c-0.2,0.1-0.5,0.1-0.7,0.2
		c0,1.2,0,2.5,0.1,3.7c0.1,3.4,1.2,7,0.2,10C180.9,280.5,182.8,281.9,183.9,284.5z M218.5,224c-0.3,0.2-0.6,0.4-0.9,0.6
		c0.3,2,0.7,3.9,0.9,5.9c0.2,1.9,0.2,3.8,0.4,5.7c0.2,1.9-0.6,3.9,0.8,5.7c0.5-0.4,0.8-0.5,0.8-0.6c0.7-5,0.8-10-0.3-15
		C220,225.4,219.1,224.7,218.5,224z M201.9,270.6c1.6-2.5,1.8-5.7,0.7-12.2c-0.3-1.6,0.1-3.7-1.9-4.6c-0.3,0.3-0.7,0.4-0.7,0.5
		c0.3,4.9,0.7,9.8,1,14.7C201.1,269.4,201.5,269.7,201.9,270.6z M219.5,130.2c-1,0.1-1.7,0.1-2.2,0.4c-0.3,0.2-0.5,1.4-0.3,1.4
		c0.5,0.3,1.4,0.6,1.8,0.4C219.2,132.1,219.2,131.2,219.5,130.2z M214.9,203.4c-0.3-1.8-0.2-2.5-0.5-2.9c-0.2-0.3-1-0.1-1.5-0.1
		c0,0.7-0.2,1.5,0.1,2.2C213.1,202.9,213.9,203,214.9,203.4z M210.7,234.2c0.2,0.9,0.1,1.7,0.5,2.1c0.2,0.2,1,0,1.5,0
		c0-0.6,0-1.3-0.2-1.8C212.3,234.2,211.5,234.2,210.7,234.2z M221.5,151.4c-1.6,1.6-1.8,2.5-0.8,3.2c0.2,0.2,0.8-0.1,1.2-0.1
		C221.8,153.7,221.7,152.9,221.5,151.4z M217.6,177.8c0-1,0.2-1.8-0.1-2.3c-0.1-0.3-0.9-0.3-1.4-0.4c-0.1,0.6-0.3,1.3-0.2,1.8
		C216,177.3,216.7,177.4,217.6,177.8z M203.9,225.4c0-0.9,0.1-1.8-0.1-1.9c-0.5-0.2-1.3-0.3-1.8-0.1c-0.2,0.1-0.3,1.3-0.1,1.5
		C202.3,225.2,203,225.2,203.9,225.4z M193.2,249.5c-0.4,0.8-1.1,1.6,0.1,2.3c0.3,0.2,1.3-0.1,1.4-0.4
		C195.2,250.2,194.5,249.7,193.2,249.5z M225.3,116.8c-0.8,0.2-1.5,0.3-1.7,0.6c-0.3,0.4-0.1,1-0.1,1.6c0.6-0.1,1.3,0,1.8-0.3
		C225.6,118.5,225.4,117.6,225.3,116.8z M177.3,253c-0.1-0.3-0.1-0.7-0.2-1c-0.4,0.2-1,0.4-1.2,0.7c-0.3,0.5-0.3,1.2-0.3,1.8
		c0,0.1,1.1,0.3,1.1,0.2C177,254.2,177.1,253.6,177.3,253z M103.7,290c-0.9,0.1-1.6,0-1.9,0.3c-0.2,0.3-0.1,1,0.1,1.4
		c0.1,0.1,1,0.1,1.2-0.1C103.4,291.4,103.5,290.8,103.7,290z M150.3,263c-0.9,0.1-1.4,0-1.9,0.2c-0.2,0.1-0.3,1-0.1,1.2
		c0.4,0.3,1,0.3,1.5,0.5C149.9,264.3,150,263.8,150.3,263z M218.8,97.4c-0.3-1-0.5-1.6-0.8-2.1c-0.1-0.1-1.1,0-1.1,0.2
		c-0.1,0.6-0.2,1.3,0.1,1.8C217,97.4,217.9,97.3,218.8,97.4z"/>
	<path class="st0" d="M155,269.9c0.5,2.1,1.4,4.1,1.5,6.2c0.2,3.9-0.1,7.9-0.1,11.8c0,3.5,0.1,6.9,0.1,10.6
		c-0.8,0.2-1.5,0.5-2.4,0.7c-0.2-0.4-0.4-0.7-0.4-1.1c-0.3-1.4-0.6-2.8-0.9-4.2c-0.1-0.6-0.2-1.2-0.3-1.7c-0.6-2.3,1.5-4.4,0.2-7.1
		c-1.1-2.1-0.3-5.2-0.4-7.8c-0.1-2.5-0.1-5-0.2-7.5l-0.1,0C153.5,271.8,153.5,271.8,155,269.9L155,269.9z"/>
	<path class="st0" d="M35.8,254c-2.9-2.8-5.9-5.5-8.4-9.4c3.4,0.2,4.9,2.6,7,3.7c2.1,1.1,4.1,2.4,6.2,3.6c0.8,1.6-0.8,3.7,1.5,5.1
		c0.4-0.7,0.8-1.3,1.5-2.3c0.1,2.2-0.2,4.5,2.9,4c0.3,1.6,0.5,3.1,0.9,5.4c-2.1-2-3.7-3.6-5.4-5.1c-1.8-1.6-3.6-3.2-5.4-4.8
		c1.3-0.3,1.8-1.1,1.3-2.3c-0.1-0.2-0.8-0.5-0.8-0.5c-0.5,0.7-1,1.3-1.4,2C35.5,253.5,35.7,253.8,35.8,254z"/>
	<path class="st0" d="M222,86.1c-2.7-3.1-5.4-6.2-8.1-9.4c-1-1.2-2-2.6-4-0.6c-0.5-1.3-1-2.4-1.8-4.1c1.6,0.7,2.5,1.1,3.5,1.5
		c0.1-0.6,0.3-0.9,0.2-1.2c-0.7-1.6-1.5-3.2-2.5-5.1c6.2,5.3,9.4,12.1,13.4,18.4C222.4,85.8,222.2,86,222,86.1z"/>
	<path class="st0" d="M228.4,224.3c-1.1-6.7-1.6-13.4-1.1-20.1c2.4,4.3,2.3,9,2.9,13.5C230.7,220.2,230.1,222.3,228.4,224.3z"/>
	<path class="st0" d="M208.4,59c3.2,3.4,6,7,8.1,11.1c-0.2,0.2-0.4,0.3-0.6,0.5c-2.5-2.5-5-5-7.3-7.7c-0.7-0.9-0.7-2.3-1.1-3.5
		C207.8,59.2,208.1,59.1,208.4,59z"/>
	<path class="st0" d="M59.6,272.5c-0.2-4.7-0.4-9.4-0.6-14.1c1.8,4.6,1.8,9.4,1.5,14.1C60.2,272.5,59.9,272.5,59.6,272.5z"/>
	<path class="st0" d="M56.7,258.3c0.2,4,0.4,8.1,0.6,12.8c-0.9-0.8-1.7-1.1-1.7-1.5c0-3.8,0-7.6,0.1-11.4
		C56,258.3,56.3,258.3,56.7,258.3z"/>
	<path class="st0" d="M49.5,264.4c0.8,0,1.6,0,2.3-0.1c0.4-0.1,0.7-0.5,1.5-1.2c0,1.9,0.1,3.2,0.1,5.3c-1.8-1.3-3.1-2.2-4.3-3.1
		C49.3,265,49.4,264.7,49.5,264.4z"/>
	<path class="st0" d="M70.3,271.8c0.7,2.6,1.4,5.1,2.1,8C70.4,278.3,70,277,70.3,271.8z"/>
	<path class="st0" d="M49.9,261.8c-1.1-2-1.4-3.9-0.2-6.3C51.1,257.9,50.3,259.9,49.9,261.8z"/>
	<path class="st0" d="M63.7,266.3c0.2,2,0.4,4,0.7,6.5C62.6,270.2,62.5,270,63.7,266.3z"/>
	<path class="st0" d="M209.8,56c-2.7-2-2.7-2-2.5-4.7C208.2,53,208.9,54.3,209.8,56z"/>
	<path class="st0" d="M82.4,283.3c0.5,0.6,1,1.3,1.7,2.1C82,285.7,82.4,284.3,82.4,283.3z"/>
	<path d="M173.6,150.7c0.2-5.1,0.3-10.2,0.4-15.3c0.2,0.3,0.8,0.8,0.8,1.4c0.2,2.1,0.5,4.3,0.4,6.5c-0.3,7-0.3,14-1.2,20.9
		c-1,7.2-2.8,14.4-4.4,21.5c-1.9,8.2-5.4,15.7-10.3,22.5c-2.5,3.5-5.7,6.5-9,9.3c-8,6.7-17.2,11.1-27.2,13.6
		c-6.7,1.7-13.7,2.9-20.7,2.8c-2.1,0-4.3-0.3-6.4-0.7c-6.1-1.1-12.3-2.3-18.4-3.5c-1.6-0.3-1.6-0.4-2.6-2.3c2.8,0.5,5.3,1,8.4,1.5
		c-1.1-1.6-2.3-1.8-3.3-2.1c-3.9-1.1-7.8-2.3-11.8-3.4c-5.8-1.6-10.5-4.8-14.9-9c-4.9-4.7-8.6-10.1-11.5-15.9
		c-1.7-3.4-2.4-7.3-3.1-11.1c-0.8-4.9-1-9.8,0-14.7c0.8-3.9,1.4-7.8,2.2-11.7c1.3-6.5,4.4-12.2,7.8-17.8c4.8-8,9.5-16.2,15-23.8
		c8.3-11.5,18.1-21.4,30.7-28.5c7.4-4.2,15.2-7.3,23.2-9.9c4.2-1.3,8.7-1.8,13.1-1.9c3.5-0.1,7.1,0,10.7,0.6
		c5.3,0.9,8.6,4.2,11.4,8.1c6.5,9.1,11.2,19,13.8,30c0.6,2.5,1.3,4.9,2.1,7.3c1.9,6.2,3,12.6,3.1,19.2c0,2.2,0.3,4.5,0.5,6.7
		C172.7,150.7,173.1,150.7,173.6,150.7z M42.7,174.3c0.2-1.3,0.4-2.6,0.6-3.9c0.7-3.8,1.4-7.6,2.1-11.4c-0.8,0.1-1.1,0.3-1.2,0.6
		c-0.7,4.1-1.5,8.2-2.1,12.4C42,172.7,42.5,173.5,42.7,174.3c-2.6,2.6-1.2,5.3,0.1,8C42.8,179.7,42.8,177,42.7,174.3z M148.6,195.6
		c-0.9,1.1-1.8,2.2-2.7,3.4c-2,2.4-3.8,5-6,7.2c-2.8,2.8-5.8,5.3-8.8,7.9c-2.1,1.8-4.4,3.6-6.6,5.3c0.6,0.1,1.2,0.1,1.6-0.2
		c4.1-3.1,8.4-6,12.2-9.4c4.4-3.9,7.9-8.6,10.3-14c0.6-0.9,1.2-1.9,1.9-2.8c-0.3-0.1-0.5-0.3-0.8-0.4
		C149.4,193.5,149,194.6,148.6,195.6z M156.5,154.9c-0.5,1.5-1.3,2.9-1.3,4.4c0.1,6.5-1.5,12.6-3.7,18.6c-1.7,4.4-3.5,8.7-5.1,13.1
		c-0.9,2.6-1.6,5.2-2.4,7.8c1.3-1.3,2.5-2.7,3.3-4.3c1.4-2.7,2.6-5.4,3.8-8.2c0.6-1.5,1-3.1,3.1-2.3c2.1-6.6,2.3-13.2,2.5-19.8
		c0.1-3.1,0-6.2,0-9.3c0.2-1.1,0.4-2.3,0.7-3.4c-0.3,0-0.6,0-0.9-0.1C156.4,152.6,156.4,153.7,156.5,154.9z M72.4,156.4
		c0.2,0,0.4,0,0.5,0c-0.2,1.4-0.2,2.9-0.5,4.3c-2,10.3-2,20.6,1.3,30.7c0.8,2.4,1.8,4.8,2.7,7.1c0.3-0.1,0.6-0.1,0.9-0.2
		c-6-16.3-5.8-32.4,1.2-48.2c-2.3,13-5.7,25.9-1.5,39.1c0.2-0.6,0.3-1.1,0.3-1.7c-0.4-6.2,0-12.3,1.3-18.3
		c1.3-5.9,2.5-11.8,4.1-17.6c3.3-11.8,7.9-23,14.4-33.3c8.4-13.3,19.3-24.3,30.8-34.8c0.6-0.5,1-1.1,1.7-1.9
		c-3.6-0.1-10.8,1.3-13.7,2.6c-0.9,0.4-1.8,0.8-2.4,1.5c-5.8,6.9-11.5,13.9-17.3,20.8c-0.5,0.6-1.2,1.1-1.9,1.7
		c-0.2-0.2-0.3-0.4-0.5-0.6c4.3-8.2,11.6-14.1,17.1-21.5c-3.8,1.3-7.4,2.8-10.9,4.6c-7.9,3.9-14.8,8.9-19.5,16.6
		c-0.9,1.5-2,3-3.1,4.4c-6.3,8.5-11.2,17.7-14.8,27.6c-1.6,4.5-3,9.2-4,13.8c-0.8,3.6-0.9,7.3-1.4,11.2c0.8-0.3,1-0.4,1.2-0.5
		c0.2-0.3,0.5-0.6,0.5-0.9c-0.2-4.6,1.5-8.9,2.4-13.4c0.9-4.6,2.4-9.1,3.6-13.6c0.1-0.2,0.5-0.4,0.9-0.6c0.1,0.5,0.2,0.9,0.2,1.2
		c-0.2,0.8-0.4,1.6-0.6,2.4c-2.2,7.5-4.5,15-3.6,23c0.5,4.4,0.4,8.9,1.6,13c0.5-6.3,1.1-12.6,1.6-18.9c0-0.6,0.1-1.4-0.3-1.6
		c-1.5-1.1-1.2-2.7-0.8-4c1.9-6.8,3.3-13.9,6.2-20.3c5.7-12.4,14.5-22.9,23.6-33.1c0.3-0.3,0.8-0.4,1.9-0.9c-1,2.4-2.1,3.9-3.3,5.4
		c-3,3.6-6,7.1-8.9,10.8c-7.2,9.2-13,19.1-15.8,30.5c-0.1,0.6-0.2,1.1-0.3,1.8c0.7,0,1.1-0.1,1.7-0.1c-3.7,12.4-5.7,24.8-2.2,37.5
		c-1-11.7,0.1-23.1,3.4-34.4c3.4-11.3,8.4-21.8,15.9-31c-4.2,7.9-8.8,15.6-11.6,24.2c-2.8,8.5-5.5,17-4.9,26.2
		c0.6-0.8,0.9-1.6,1.1-2.5C71.3,161.8,71.8,159.1,72.4,156.4z M92.7,184.4c0.5-1.8,1-3.7,1.5-5.5c4.2-15.5,10.2-30.3,18.4-44.1
		c2-3.4,4.5-6.5,6.7-9.8c0.2,0,0.5,0.1,0.7,0.1c-1,1.8-1.8,3.6-2.9,5.3c-9.9,15.7-17,32.5-21.2,50.5c-0.8,3.2-1.2,6.5-1.7,9.7
		c0.3,0.1,0.6,0.1,0.9,0.2c0.4-1.4,0.8-2.9,1.1-4.3c2.6-12.2,7.5-23.5,13-34.6c0.2,0,0.4,0,0.6,0.1c-0.9,2.1-1.7,4.2-2.6,6.3
		c-0.4,1.1-0.9,2.2-1.3,3.3c-0.6,1.9-0.9,3.9-1.5,5.8c-1.8,5.5-3.7,10.9-5.5,16.4c-0.3,0.8-0.2,1.6-0.3,2.5
		c2.1-4.6,3.9-9.2,5.6-13.8c1.8-4.6,2.6-9.6,5.4-13.8c-1,5.5-3.2,10.7-5.1,15.9c-2,5.5-3.8,11-5.7,16.5c5.2-7.5,6.9-16.3,10.3-24.4
		c3.4-8.1,6.8-16.2,10.1-24.3c-0.6,7.2-3.8,13.4-6.3,19.8c-2.4,6.4-4.6,12.9-6.8,19.4c-2.2,6.5-5.8,12.4-7.3,19.1
		c5.8-12.1,11.5-24.3,17.1-36.6c0.1-0.3,0.4-0.6,0.6-0.9c0.1-0.1,0.2-0.1,0.3,0c0.1,0,0.2,0.1,0.6,0.4c-1.3,5.9-4.5,11.1-7,16.7
		c-2.5,5.6-4.8,11.3-7.1,16.9c1.8-2.2,3.2-4.5,4.6-6.9c6-10.3,12-20.5,16.7-31.5c0.5-1.2,1.1-2.3,2.6-2.7c0.7-0.2,1.4-1.2,1.8-2
		c2.6-6.1,5.4-12.1,7.6-18.3c4.9-13.8,8.6-28,11.8-42.3c0.1-0.6,0.6-1.1,0.9-1.6c0.4,1.3,0.3,2.5,0.1,3.7
		c-1.2,5.5-2.2,11.1-3.6,16.6c-3.9,15.2-8.6,30.1-15.3,44.3c-4.9,10.3-10.8,20.1-16.8,29.8c-1.6,2.7-3,5.4-4.5,8.2
		c-1.1,1.3-2.1,2.6-3.2,3.8c0.2,0.1,0.4,0.3,0.6,0.4c0.8-1.4,1.7-2.8,2.5-4.3c0.9-1,1.8-1.9,2.5-3c1.9-2.9,4.1-5.8,5.4-8.9
		c1.4-3.5,5.1-4.9,6.4-8.2c0.9,0.6,1.8,1.2,2.7,1.8c-0.8,2.4-1.7,4.8-2.6,7.2c1.1,0.1,1.8-0.2,2.1-0.6c1.1-1.9,2.1-3.8,3-5.8
		c1.5-3.5,2.3-7.5,4.4-10.6c2.2-3.2,2.6-6.6,3.2-10.1c0.1-0.8,0.4-1.6,0.8-2.3c0.5-1.1,1.2-2,1.5-3.2c1.2-4.8,2.3-9.6,3.5-14.4
		c0.2-0.6,0.6-1.2,0.9-2c0.6,0.5,1,0.9,1.5,1.4c1-5.4,1.9-10.6,2.9-15.8c1-5.2,1.4-10.5,3.1-15.6c0.1,3.8,0.1,7.7-0.5,11.4
		c-1.9,11.9-3.9,23.7-6.2,35.5c-1.2,6.1-2.3,12.5-4.9,18.1c-4.3,9.5-8.6,19.1-16,26.8c-4.3,4.5-8.1,9.5-12.3,14.2
		c-1.5,1.7-3.2,3.1-4.8,4.6c2.2-1.7,4.1-3.7,6.2-5.5c6.5-5.6,12.4-11.7,16.9-19.1c0.4-0.7,0.9-1.6,1.6-1.9c2.7-1,3.8-3.3,4.7-5.6
		c1.7-4.1,3.1-8.3,4.6-12.5c0.2-0.6,0.6-1.1,1-1.8c0.6,0.8,0.9,1.3,1.3,1.9c1-2.8,2.2-5.3,2.9-7.9c0.7-2.5,1-5.2,1.7-7.7
		c0.7-2.5-0.7-5.3,1.2-8.3c0.3,1.2,0.5,1.7,0.6,2.3c0.4,5.1-0.3,10-2.2,14.8c-0.8,2.1-1,4.4-1.7,6.6c-0.9,3-1.1,6.4-4.9,7.7
		c-0.5,0.2-0.8,1.1-1.2,1.7c-0.7,1.2-1.4,2.5-2,3.8c-1.3,2.5-2.6,5.1-4,7.9c2.2-0.8,2.3-3.7,5.3-4.2c-1.9,4.9-5.3,8.2-7.7,12
		c-2.4,3.9-5.4,7.4-7,9.6c5.8-5.3,11.1-13.1,16.2-21.1c0.7-1.2,1.8-2.2,2.6-3.3c0.6-0.7,1.2-1.5,1.5-2.4c3.5-9.8,6.3-19.7,6.1-30.3
		c0-1.6,0-3.2,1.2-4.6c2.1,8.7,0.3,17.2-1.9,25.6c-2.2,8.7-6.3,16.6-10.5,24.5c-4.1,7.9-10.7,13.5-16.7,19.8
		c1.4-0.4,2.7-0.8,3.8-1.5c5.6-3.8,10.1-8.7,13.4-14.4c3.5-6.1,5.9-12.9,8.9-19.3c5.6-12,6-24.6,5-37.4c0-0.5-0.2-0.9-0.4-1.4
		c-1.9-3.7-2.3-8.8-1-12.6c2.2,2.4,2.3,2.4,2.5,6c0.2,3.7,1.2,7.2,2.9,10.5c-0.4-8-0.8-16.1-1.1-24.1c0.3,0,0.6-0.1,0.9-0.1
		c0.4,1.7,1.1,3.3,1.3,5c0.5,5.9,1.3,11.8,1.3,17.6c0,9.1-0.5,18.3-0.9,27.4c-0.5,9.7-3.8,18.6-8.8,26.8c-0.4,0.6-0.6,1.2-0.9,1.7
		c1.1,1.1,1.7,0.6,2.1-0.3c1.1-2.2,2-4.4,3.2-6.5c2-3.6,3.8-7.3,4.4-11.4c0.6-4,1.2-8.1,1.7-12.1c0.2-1.3-0.2-2.9,1.8-3.8
		c0.4,18.2-7,33-18.1,46.4c3.1-3.3,6.2-6.6,8.8-10.2c8-11,11.5-23.7,13-37c0.1-1,0-2.3-0.6-3c-1-1.2-1-2.4-0.7-3.7
		c0.7-4,0.1-7.9-0.7-11.8c-0.8-3.5-1.2-7.1-1.7-10.7c-0.2-1.2-0.5-2.5,1.1-4c1,5.5,1.8,10.5,2.7,15.4c0.3,0,0.6-0.1,0.8-0.1
		c-0.2-4.8,0-9.7-0.8-14.4c-1-6-2.6-12-4.5-17.8c-2.5-7.5-5.2-15-8.4-22.3c-2.5-5.6-5.6-11.1-13-11.4c-0.7,0-1.4-0.5-2.1-0.6
		c-3.4-0.5-6.4-0.6-9.1,2.5c-4.8,5.5-10.2,10.5-15.2,15.9c-6.2,6.7-11.6,14.1-16.4,21.9c-6.9,11.3-10.7,23.8-14.3,36.5
		c-4.5,16-4.1,31.8,0.6,47.7c0.7,2.2,0.6,2.2,2.1,3.6c0-0.4-0.1-0.7-0.1-1.1c-1.5-8.9-3.8-17.7-3.5-26.8c0.2-5.5,0.5-11,0.9-16.6
		c0-0.8,0.4-1.9,0.9-2.1c1.4-0.7,1.4-1.9,1.6-3c1.2-10.9,5.2-21,9.8-30.8c0.3-0.6,0.8-1,1.4-1.8c0.1,2.3,0.1,2.3-1.2,5
		c-3.6,7.7-6.5,15.5-8.2,23.8c-1.1,5.7-1.3,11.4-3.5,17.1c-1.5,4-0.6,8.9,0.2,13.4c2.1-13.8,5.1-27.3,11.9-39.7
		c-2.4,9.1-6.3,17.7-7.5,27.2c0.8-0.5,1.4-0.9,2.6-1.7c-1.5,6.5-2.5,12.4-2,18.4c0.5-0.7,0.7-1.5,0.8-2.3c0.4-3.7,0.8-7.4,1.2-11.1
		c1.3-9.8,4.3-19,8.9-27.7c0.6-1.2,1-2.6,3-2.8c-0.4,1-0.5,1.7-0.8,2.3c-3.2,6.5-5.9,13.2-7.3,20.3c-0.9,4.8-1.4,9.7-2,14.6
		c-0.2,0.8-0.4,1.6-0.5,2.4c0.2,0,0.4,0,0.6,0C92.6,186.1,92.7,185.2,92.7,184.4z M61.7,206.4c-2.5-3.5-4.6-7-6-11.1
		c-2.3-7-3.6-14.2-4.5-21.5c-0.4-3.3-1.3-7.2,1.8-10.1c0.2-0.2,0.2-0.7,0.2-1c0.6-9.9,4.1-19,6.5-28.4c0.3-1.1,0.8-2.1,1.2-3.2
		c0.3,0.1,0.5,0.2,0.8,0.2c-0.4,2-0.9,4.1-1.3,6.1c4.1-9.7,9.4-18.8,15.2-27.7c-3.2,3.3-6.2,6.8-8.9,10.4
		c-5.7,7.8-11.1,15.7-15.5,24.4c-1.1,2.2-3.1,4.1-2.1,6.9c0.2,0.5-0.6,1.2-0.8,1.9c-2.2,5.8-3.2,11.6-1.9,17.8c1.4-4.3,1-9,3.5-13.1
		c0.4,0.9,0.4,1.8,0.3,2.6c-0.4,4.8-1.2,9.6-1.2,14.3c0.1,7,1.7,13.8,4.5,20.3C55.3,199.6,58.4,203.1,61.7,206.4z M130.4,180.3
		c9.1-11.4,10-25.5,13.1-39C139.7,154.5,136.4,167.8,130.4,180.3z M82.2,213.5c0.3-0.2,0.5-0.4,0.8-0.6c-2.1-3.5-4.5-7-6.4-10.6
		c-1.9-3.7-3.3-7.6-5.1-11.7c0,1-0.1,1.7-0.1,2.5c0.2,4.3,3.3,7.6,4.5,11.7C76.9,208,80,210.6,82.2,213.5z M114.8,217.7
		c6.5-2.1,19.6-15.6,20.9-22.1C129.8,204.6,122.9,211.5,114.8,217.7z M108.2,216.4c4.7-1,7.8-4.3,11-7.5c6.6-6.6,7.9-8.2,8.2-11
		C121.1,204.5,116,211.9,108.2,216.4z M116,196.4c-5.8,6.5-11.6,13-17.4,19.5C106.4,211.1,111,203.5,116,196.4z M77.4,213.6
		c-6.7-6.9-11.7-14-15.5-21.9C64.7,200.3,68.9,208,77.4,213.6z M89.8,229.1c6.6,3,14.2,3.5,18,1.7
		C101.8,230.3,95.8,229.7,89.8,229.1z M86.6,185.9c-0.5,7.6-1.1,15.2,1.8,22.5C87.9,200.9,87.2,193.4,86.6,185.9z M126.6,222.2
		c3.9-0.6,7.4-2,10.9-5.2C133.4,218.9,130,220.6,126.6,222.2z M45.3,179.4c-0.3,0.1-0.5,0.1-0.8,0.2c0.8,2.8,0.4,6,2.2,8.5
		c0.3-0.1,0.5-0.1,0.8-0.2C46.8,185.1,46.1,182.3,45.3,179.4z M119.2,186.7c-0.1-0.1-0.2-0.1-0.3-0.2c-1.1,1.7-2.3,3.5-3.4,5.2
		c0.2,0.1,0.3,0.2,0.5,0.3C117.1,190.2,118.2,188.4,119.2,186.7z M116.6,186.7c0.1,0.1,0.3,0.2,0.4,0.2c0.8-1.5,1.7-3,2.5-4.5
		c-0.1-0.1-0.2-0.1-0.3-0.2C118.3,183.8,117.5,185.3,116.6,186.7z M105.7,204.3c0.1,0,0.2,0.1,0.3,0.1c1.3-1.7,2.7-3.5,4-5.2
		c-0.1-0.1-0.2-0.1-0.2-0.2C108.4,200.8,107,202.6,105.7,204.3z M110.9,195.2c0.1,0.1,0.2,0.2,0.3,0.2c0.5-0.9,1.1-1.9,1.6-2.8
		c-0.1-0.1-0.2-0.1-0.3-0.2C112,193.4,111.5,194.3,110.9,195.2z M113.5,210.1C113.5,210,113.5,210,113.5,210.1
		c-0.3,0.3-0.7,0.6-1,0.9c0,0,0,0,0,0C112.8,210.7,113.1,210.4,113.5,210.1z M138.9,212.8c0,0.2,0,0.4,0,0.6
		c0.2-0.1,0.5-0.2,0.6-0.3c0.1-0.1,0-0.3,0-0.5C139.3,212.7,139.1,212.7,138.9,212.8z M54.9,161c0.1,0,0.3,0,0.4,0
		c0-0.6,0-1.2,0-1.7c-0.4,0.3-0.6,0.6-0.6,0.9C54.6,160.4,54.8,160.7,54.9,161z"/>
	<path d="M196,126.5c0.1,0.6,0.3,1.1,0.3,1.7c0.2,12.4,0,24.8-2.4,37c-1.6,8.3-3.8,16.4-6.6,24.4c-1.6,4.6-3.6,9.2-5.2,13.8
		c-3.3,9-8.9,16.4-15.2,23.5c-1.2,1.3-2.4,2.7-3.5,4.1c-3.1,3.8-7.1,6.5-11.3,8.9c-4.6,2.6-9.3,5.3-14.3,6.9
		c-7.2,2.3-14.2,5.4-21.8,6.1c-3,0.3-6,0.5-9,0.4c-5.8-0.2-11.5-0.5-17.3-0.9c-2.2-0.2-4.5-0.5-6.7-1.2c-7.8-2.4-15.7-4.6-23.3-7.6
		c-16.2-6.5-27.1-18.6-33.2-34.7c-3.7-9.7-4.9-20-4-30.5c0.9-9.5,1.7-18.9,4.2-28.1c2.5-8.9,6.7-17,11.5-24.8
		c0.3-0.5,0.7-0.9,1.2-1.4c0.1-0.2,0.4-0.2,1.3-0.5c-0.8,1.5-1.3,2.6-2,3.5c-6.9,10.5-11.1,22.1-13.1,34.5c-1.5,9.3-2.2,18.6-1.5,28
		c0.9,11.8,4.8,22.5,11.5,32.2c6.4,9.2,14.8,16,25.3,20.2c11.2,4.4,22.7,8.3,34.8,8.8c8.7,0.4,17.6,1.2,26.2-1
		c1.7-0.4,3.4-1.2,5.1-1.7c4.1-1.4,8.4-2.4,12.2-4.2c6.1-2.9,12-6.2,17.7-9.6c2.4-1.5,4.4-3.7,6.4-5.8
		c10.5-11.3,18.1-24.2,22.3-39.1c2.1-7.4,4.5-14.7,6.2-22.2c2.2-9.9,3.2-19.9,2.9-30.1c-0.1-3-0.2-6-0.2-9c0-0.5,0.5-0.9,0.8-1.4
		C195.5,126.4,195.7,126.4,196,126.5z"/>
	<path d="M54.9,111.7c-1,1.8-1.8,3.7-2.9,5.4c-6.4,10.4-12.1,21-15,33c-0.4,1.6-1,3.2-1.7,4.8c-3.7,8.4-5,17.3-5.6,26.3
		c-0.2,2.8,0.4,5.7,0.7,8.6c0.2,1.5,0.3,3.1,0.7,4.6c0.5,2.5,1.1,4.9,1.8,7.3c2.7,8.2,7.1,15.5,12.7,22c6.8,8,15.4,13.3,25.9,15.3
		c6.5,1.3,12.9,2.8,19.4,4.1c2.8,0.5,5.7,0.6,8.6,0.8c0.5,1.2-0.3,1.8-1.3,1.8c-2.2,0.1-4.4,0.4-6.5-0.1c-7.3-1.5-14.5-3.3-21.8-4.9
		c-0.8-0.2-1.6-0.6-2.4-0.7c-8.8-1.2-15.2-6.4-21-12.4c-3.7-3.9-7-8.2-9.9-12.8c-3.5-5.5-5.9-11.6-6.8-18.1c-0.5-3.3-1.2-6.6-1.5-10
		c-0.8-10.1,1-19.9,4.4-29.4c0.8-2.2,1.7-4.3,2.3-6.5c3.4-13.4,10.2-25.1,17.1-36.8c0.5-0.9,1.4-1.6,2.1-2.5
		C54.4,111.6,54.7,111.7,54.9,111.7z"/>
	<path d="M70.9,77.9c-0.5,0.7-0.8,1.6-1.5,2.1c-7.9,5.8-13.7,13.4-19.9,20.8c-6.7,8-11.2,17.2-15.9,26.5c-3.3,6.7-6.1,13.6-8.3,20.7
		c-2.6,8.5-4,17.3-5,26.2c-0.5,4.4-1,8.8-1.3,13.3c-0.4,8.1,0.5,16,4.1,23.5c3.2,6.7,7,12.9,11.8,18.4c1.2,1.3,2.7,2.4,3.9,3.7
		c0.4,0.4,0.4,1.2,0.5,1.8c-0.6,0-1.5,0.2-1.9-0.2c-2.7-2.6-5.6-5.1-7.7-8c-4.2-5.8-8.1-11.9-10.3-18.9c-2.5-8.2-3.1-16.5-2-24.9
		c0.8-6.1,1.8-12.1,2.5-18.2c0.7-6.4,3-12.4,4.6-18.5c3.1-11.6,8.9-22,14.5-32.5c2.9-5.5,6.8-10.5,10.6-15.4
		c3.8-4.8,7.9-9.4,12.1-13.8c2.5-2.6,5.4-4.7,8.1-7.1C70.3,77.5,70.6,77.7,70.9,77.9z"/>
	<path d="M98.4,64.3c2.2-2.7,4.5-3.8,6.9-4.7c7.8-3.1,15.7-6,23.6-9.1c8.6-3.4,17.2-6.8,25.8-10.3c7.4-3,13-1.4,17.6,5.2
		c3.4,5,7,9.8,10,15c2.6,4.5,4.2,9.4,5.1,14.5c0.7,3.8,1.8,7.5,2.5,11.3c1.3,6.5,2.5,13,3.6,19.5c0.1,0.3-0.2,0.7-0.3,1.1
		c-1.7-0.4-1.4-1.8-1.6-2.9c-0.8-4.4-1.4-8.8-2.3-13.2c-1.2-6-2.4-12-4-17.9c-1.7-6.1-3.9-12.1-7.9-17.3c-3.3-4.3-6.4-8.7-10.2-12.6
		c-2.1-2.1-4.4-2.9-7.1-2.6c-1.3,0.1-2.6,0.4-3.9,0.9c-8.6,3.3-17.2,6.7-25.9,10.1c-3.9,1.5-7.8,3.1-11.8,4.5
		c-6.2,2.2-12.5,4.3-17.9,8.4C100.4,64.6,99.7,64.3,98.4,64.3z"/>
	<path d="M57.8,116.8c-2.8,4.7-5.8,9.4-8.5,14.2c-3.8,6.7-7,13.7-9.2,21.1c-1.3,4.5-3,8.9-4.1,13.4c-0.6,2.5-0.7,5.2-0.8,7.9
		c-0.2,3.8-0.1,7.7-0.2,11.5c-0.2,6.8,2,13,4.8,19c1,2.2,2.3,4.2,3.5,6.3c2.4,4.2,6.5,6.7,9.9,9.8c3,2.6,6.1,5.1,9.8,6.6
		c0.5,0.2,0.9,0.7,1.9,1.6c-1.4,0.1-2.3,0.5-2.8,0.2c-2.7-1.5-5.4-3-8-4.8c-2.1-1.4-3.8-3.3-5.9-4.8c-5.1-3.6-8.3-8.6-10.5-14.3
		c-2.8-7.4-5.3-15-4.2-23.2c0.4-2.5-0.2-5.1,0-7.6c0.3-3.6,0.5-7.2,1.4-10.7c2.6-10,6-19.8,10.8-29c2.8-5.3,6.2-10.3,9.4-15.4
		c0.5-0.8,1.3-1.4,2-2C57.5,116.8,57.6,116.8,57.8,116.8z"/>
	<path d="M179.3,164.2c-0.1-0.9-0.4-1.6-0.3-2.3c2.3-14,1.7-28.1-0.1-42.1c-1.3-10.1-3.2-20.2-5.4-30.1c-1.2-5.4-3.6-10.7-5.9-15.8
		c-1.1-2.6-3-4.9-5-7c-1.2-1.3-3.2-2-4.8-2.9c1.9-1.2,2.8-1.2,4.8,0.5c3.2,2.8,5.5,6.3,7.3,10.2c5,10.5,7.6,21.7,9.1,33.2
		c0.6,4.6,1.5,9.2,2,13.9c1.4,13.3,2,26.6-0.3,39.9c-0.1,0.7-0.3,1.4-0.5,2.1C180.1,163.8,179.8,163.9,179.3,164.2z"/>
	<path d="M114.9,244.5c0.6-0.4,1.2-0.9,1.8-1.1c6.7-1.6,13.1-4,19.1-7.4c4.3-2.4,8.8-4.4,13.1-6.7c4.2-2.2,7.8-5.2,10.7-9
		c4.1-5.4,8.5-10.5,12-16.2c5.8-9.6,9.9-20,13.4-30.7c0.5-1.4,0.6-2.8,1-4.2c0.2-0.6,0.6-1.1,0.9-1.7c0.3,0.1,0.5,0.1,0.8,0.2
		c-0.2,1.3-0.2,2.7-0.6,4c-3.9,12.2-8.4,24.1-15.2,35c-4.8,7.7-10.3,14.9-17.4,20.6c-3.8,3.1-8.2,5.6-12.6,7.7
		c-6.6,3.2-13.4,6-20.1,8.8c-2.2,0.9-4.5,1.3-6.8,1.4C115.1,245.1,115,244.8,114.9,244.5z"/>
	<path d="M176.9,79.1c2.4,0.4,3.1,1.7,3.4,2.9c1.8,5.7,3.5,11.5,5.2,17.2c0.2,0.6,0.2,1.2,0.3,1.8c1.6,5.6,2.1,11.3,2.2,17.1
		c0.1,10.3,0.4,20.6,0.5,31c0,3.2-0.3,6.5-0.5,9.7c-0.1,1.3-0.5,2.3-2.3,2.5c0.1-1.5,0.2-2.7,0.3-4c0.9-10.9,0.5-21.9,0-32.8
		c0-0.8-0.1-1.7-0.1-2.5c0.9-12.5-2.5-24.3-6.2-36C179.1,83.8,178,81.8,176.9,79.1z"/>
	<path d="M174.5,126.7c-0.5-3.5-0.9-7-1.5-10.6c-1.4-9.1-3.5-17.9-8.1-26c-1.2-2-2.8-3.8-4.4-5.6c-3-3.4-6-6.8-9.2-10.1
		c-2.6-2.7-5.9-3-9.4-1.9c-0.7,0.2-1.5,0.2-2.7,0.4c2.5-2.5,6.6-3.5,9.4-2.5c1.3,0.5,2.7,1.1,3.8,2.1c7.1,6.2,13.1,13.1,16.8,22.1
		c3.9,9.6,5.3,19.6,6.6,29.8c0.1,0.8-0.2,1.6-0.3,2.3C175.2,126.7,174.9,126.7,174.5,126.7z"/>
	<path d="M73.8,92c-0.4-1.6,0.7-2.2,1.6-2.9c8.5-6.6,17.4-12.9,26.8-18.1c7-3.9,14.5-7.1,21.8-10.3c7.7-3.4,15.5-6.5,23.4-9.6
		c2.2-0.9,4.6-1.4,6.9-1.8c1.5-0.3,3.1-0.2,4.4,1.5c-0.6,0.3-1.1,0.6-1.4,0.5c-3.1-0.8-6,0-8.8,1c-13.1,5-26.2,10.3-38.8,16.5
		c-11,5.4-21.1,12-30.7,19.4c-1.6,1.2-3.1,2.6-4.6,4C74.4,92.3,74.2,92.2,73.8,92z"/>
	<path d="M91.8,62.8c0.4-0.5,0.8-1.2,1.3-1.6c6.9-5.9,14.3-11.2,22.5-15.5c5.1-2.7,9.9-5.9,14.9-8.8c9.9-5.7,20.3-10.4,31.2-14
		c1.4-0.5,3-0.7,4.5-1c0.3,1.5,0.1,2.3-1.1,2.5c-16.4,3.5-30.6,11.9-44.7,20.3c-3.9,2.3-7.8,4.7-11.8,6.9c-4.8,2.6-9,5.9-13,9.6
		c-0.9,0.8-1.9,1.6-2.9,2.3C92.3,63.4,92.1,63.1,91.8,62.8z"/>
	<path d="M112.2,239.5c0.5-0.2,0.9-0.6,1.4-0.7c9.4-1.3,17.8-5.7,26.3-9.5c10-4.4,17.1-12,22.6-21c4.4-7.3,7.8-15.1,11.7-22.7
		c0.3-0.6,0.7-1.2,1.2-2.1c0.9,1.7,0.3,3-0.3,4.2c-3.4,6.7-6.5,13.7-10.5,20.1c-7.4,12.1-17.5,21.3-31.1,26.3
		c-5.3,2-10.5,4-15.8,5.9c-1.7,0.6-3.6,1-5.4,0.5C112.4,240.2,112.3,239.9,112.2,239.5z"/>
	<path d="M193.4,76.5c-0.5-1.3-1.1-2.6-1.5-4c-2.1-6.5-4.2-12.9-6.2-19.5c-1.1-3.6-3.2-6.4-5.7-9.1c-1.3-1.4-2.6-2.7-2.6-5.2
		c2.2,0.5,3.8,1.7,4.8,3.2c1.8,2.6,3.1,5.4,4.7,8c3.9,6.3,5,13.6,7.4,20.5c0.7,2,0.9,4.1-0.1,6C193.9,76.4,193.6,76.4,193.4,76.5z"
		/>
	<path d="M123.6,47.9c1.2-1,2.2-1.8,3.2-2.5c6.3-3.9,13.1-7,19.9-10c5.7-2.5,11.4-5.1,17.6-6.4c4.6-1,8.6,0,11.6,3.9
		c0.7,0.9,1.5,1.9,0.3,3.6c-0.9-0.8-1.8-1.4-2.5-2.3c-2.9-3.6-6.6-4-10.7-2.9c-13.2,3.5-25.5,9.2-37.1,16.2
		c-0.4,0.2-0.8,0.4-1.3,0.6C124.4,48.1,124.2,48,123.6,47.9z"/>
	<path d="M99.9,83.5c5.4-7.7,41.9-23.7,51.2-22.6c-0.8,0.5-1.3,1.1-1.9,1.2c-11.5,2.3-22.3,6.8-32.9,11.7c-4.5,2.1-8.6,5.3-12.9,7.9
		C102.5,82.3,101.4,82.7,99.9,83.5z"/>
	<path d="M176.9,73.4c-1.7-3.4-3.7-6.3-4.7-9.5c-1.2-4-3.7-7-6.3-9.9c-0.7-0.8-1.3-1.4-0.2-2.6c0.7,0.5,1.6,0.8,2.2,1.5
		c2.7,3.1,5.7,6,6.7,10.4c0.5,2,1.8,3.9,2.8,5.8C178.1,70.3,178.7,71.6,176.9,73.4z"/>
	<path d="M96.7,240.2c-6.1,1.1-23.2-5.1-25.4-9.7c1.2,0.3,2.1,0.3,2.8,0.8c6.1,4,13.1,5.1,19.9,6.8c1,0.3,2,0.9,3,1.3
		C96.9,239.7,96.8,240,96.7,240.2z"/>
	<path d="M82.8,74.5c-2.7,2.5-5.5,5-8.2,7.5c-0.4,0.4-1,0.7-1.4,1.1c-4.6,4.1-9.2,8.1-13.7,12.3c-1.9,1.8-3.4,4-5.6,6.6
		c0.1-1.4,0-2,0.3-2.5c0.4-0.8,1-1.7,1.7-2.3c4-3.8,8-7.5,12.2-11.2c4.1-3.6,8.2-7,12.4-10.4c0.7-0.6,1.6-1,2.4-1.4
		C82.8,74.2,82.8,74.3,82.8,74.5z"/>
	<path d="M57.3,116.8c2.7-3.6,5.2-7.5,8.3-10.8c4.7-5.1,9.7-10,15.9-13.4c0.5-0.2,1-0.4,1.5-0.5c0.1,0.2,0.3,0.4,0.4,0.7
		c-1.4,1-2.7,2.1-4.2,3c-5.2,3-9.1,7.4-13.1,11.7c-2.8,3.1-5.5,6.3-8.3,9.5C57.6,116.8,57.5,116.8,57.3,116.8z"/>
	<path d="M182.6,34.8c-3,0-3.5-2.9-5.4-4.1c-2-1.2-4-2.5-6.2-3.8c0.6-1.2,1.9-1.2,2.9-0.7c3.3,1.9,6.6,3.9,8.6,7.4
		C182.6,33.8,182.5,34.2,182.6,34.8z"/>
	<path d="M191.7,110.3c1.4,3.2,2,6.5,3,10.4C192.6,119,191.3,114.3,191.7,110.3z"/>
	<path d="M51.2,105.1c-0.5,2.3-4.2,7.4-7.3,10.2c-0.1-2.7,2.2-3.7,3.1-5.4C48,108.3,49.6,107,51.2,105.1z"/>
	<path d="M133,72.1c-3,0.9-6.2,1.9-9.4,2.9C126.1,71.9,130.4,70.7,133,72.1z"/>
	<path d="M103.4,243.4c2.7,0,4.9,0,7.3,0.1c-0.3,2.3-1.9,1.8-2.9,1.8C106.4,245.3,104.7,245.7,103.4,243.4z"/>
	<path d="M84.5,67c-3,2.2-5.6,4.1-8.2,6c-0.2-0.3-0.4-0.5-0.6-0.8c1.3-1.1,2.6-2.4,4-3.4C81,67.9,82,66,84.5,67z"/>
	<path d="M54.2,111.6c2.2-4.2,4.4-6.6,7.5-8.1c-2.6,3.1-4.7,5.6-6.8,8.1C54.7,111.7,54.4,111.6,54.2,111.6z"/>
	<path d="M107,241.1c-1.9-0.1-3.4-0.2-5.3-0.3C104.2,238.4,104.8,238.5,107,241.1z"/>
	<path d="M179.1,171.2c0.3,2,0.8,3.4-0.6,4.7C177.2,173.1,177.2,173.1,179.1,171.2z"/>
	<path d="M82.8,74.1c1.7-2,3.7-3.7,6.7-4.7c-1.8,2.9-4.1,4.2-6.7,5.1C82.8,74.3,82.8,74.2,82.8,74.1z"/>
	<path d="M142.6,299.6c-3.3-2.2-0.7-6.2-3.5-7.3c0.1-2.2,0.3-4,0.3-5.9c0-5.9-0.1-11.8,0-17.7c0-0.7,0.7-1.8,1-1.9
		c1.3,0,1.2,1.1,1.2,2.1c-0.1,4-0.2,7.9-0.1,11.9c0.2,4.6,0.7,9.1,0.9,13.6C142.7,295.9,142.6,297.4,142.6,299.6z"/>
	<path d="M146.9,298.6c-1.7-1.1-1.5-2.8-1.5-4.2c-0.3-6.6-0.5-13.2-0.8-19.8c-0.1-1.6-0.3-3.1-0.3-4.7c0-1.1-0.5-2.4,1.2-3.5
		c0.3,0.8,0.7,1.5,0.7,2.2c0.3,5.5,0.5,11.1,0.8,16.6c0.2,3.2,0.6,6.4,1,9.7C148.2,296.2,148.5,297.5,146.9,298.6z"/>
	<path d="M133.7,265.9c2.2,1.1,1.9,2.9,1.9,4.3c0.2,4.7,0.1,9.4,0.3,14.1c0.1,3.2-0.6,6.5,1,9.6c0.1,0.2,0.2,0.5,0.1,0.7
		c-0.3,0.6-0.6,1.2-0.9,1.8c-0.5-0.4-1.3-0.7-1.5-1.2c-0.4-1-0.5-2.1-0.5-3.2c-0.1-4.8-0.2-9.6-0.3-14.4c-0.1-2.8-0.1-5.5-0.2-8.3
		C133.6,268.2,133.7,267.2,133.7,265.9z"/>
	<path d="M127.9,268.9c2.4,1.5,2.2,3.4,2.3,5.1c0.2,3.6,0,7.2,0.2,10.8c0.1,3.7,0.5,7.4,0.7,11.1c0,0.6-0.4,1.2-0.7,1.7
		c-0.5-0.4-1.3-0.8-1.4-1.3c-0.4-2.1-0.7-4.3-0.7-6.4c-0.2-6.2-0.3-12.5-0.5-18.7C127.8,270.7,127.8,270.1,127.9,268.9z"/>
	<path d="M120.7,270.7c1.2-0.8,2-0.2,2.2,1.1c0.4,2.2,0.8,4.5,0.9,6.7c0.2,3.8,0,7.7,0.2,11.5c0,1.4,0.4,2.8,0.6,4.2
		c-0.9,0.9-1.8,0.9-2.2-0.3c-0.4-1-0.5-2.1-0.5-3.2c-0.1-3.1,0-6.2-0.1-9.3C121.5,278,121,274.6,120.7,270.7z"/>
	<path d="M118.4,292.7c-0.3-0.8-1-1.6-1-2.5c-0.3-6.5-1.3-13-1.1-19.5c1.9-0.1,1.8,1,1.9,1.9c0.4,2.2,0,4.6,1.6,6.5
		c0.2,0.2,0.3,0.8,0.2,1c-1.8,3.6-0.4,7.2-0.3,10.9c0,0.5-0.3,1.1-0.4,1.6C119,292.6,118.7,292.6,118.4,292.7z"/>
	<path d="M183.9,284.5c-1.1-2.6-3-4-1.9-7.3c1-3,0-6.6-0.2-10c0-1.2-0.1-2.5-0.1-3.7c0.2-0.1,0.5-0.1,0.7-0.2c0.3,0.4,1,0.7,1,1.1
		c0.5,6.2,0.9,12.4,1.3,18.6C184.9,283.3,184.4,283.7,183.9,284.5z"/>
	<path d="M218.5,224c0.6,0.8,1.5,1.4,1.7,2.3c1.1,4.9,1,10,0.3,15c0,0.2-0.3,0.3-0.8,0.6c-1.4-1.8-0.7-3.8-0.8-5.7
		c-0.2-1.9-0.1-3.8-0.4-5.7c-0.2-2-0.6-3.9-0.9-5.9C217.9,224.4,218.2,224.2,218.5,224z"/>
	<path d="M201.9,270.6c-0.4-0.8-0.8-1.2-0.8-1.6c-0.4-4.9-0.7-9.8-1-14.7c0-0.1,0.3-0.3,0.7-0.5c2,0.9,1.6,3,1.9,4.6
		C203.7,264.9,203.5,268.1,201.9,270.6z"/>
	<path d="M219.5,130.2c-0.3,1.1-0.3,2-0.7,2.2c-0.4,0.2-1.3-0.1-1.8-0.4c-0.2-0.1,0-1.2,0.3-1.4
		C217.8,130.2,218.5,130.3,219.5,130.2z"/>
	<path d="M88,273.3c0.2,0.3,0.6,0.6,0.5,0.9c-0.1,0.7-0.5,1.3-0.7,2c-0.5-0.3-1.1-0.5-1.4-0.9c-0.5-0.9-0.2-1.5,0.8-1.8
		C87.5,273.4,87.7,273.3,88,273.3L88,273.3z"/>
	<path d="M214.9,203.4c-1-0.4-1.8-0.5-2-0.9c-0.3-0.6-0.1-1.4-0.1-2.2c0.5,0,1.3-0.1,1.5,0.1C214.7,200.9,214.6,201.6,214.9,203.4z"
		/>
	<path d="M210.7,234.2c0.8,0.1,1.7,0,1.8,0.2c0.2,0.5,0.2,1.2,0.2,1.8c-0.5,0-1.3,0.3-1.5,0C210.8,235.8,210.8,235.1,210.7,234.2z"
		/>
	<path d="M221.5,151.4c0.2,1.5,0.3,2.3,0.4,3.1c-0.4,0.1-1,0.3-1.2,0.1C219.7,153.8,219.9,153,221.5,151.4z"/>
	<path d="M217.6,177.8c-0.8-0.4-1.6-0.5-1.7-0.9c-0.2-0.5,0.1-1.2,0.2-1.8c0.5,0.1,1.3,0.1,1.4,0.4
		C217.7,176,217.6,176.7,217.6,177.8z"/>
	<path d="M225.3,202.1c-0.4,0.4-0.8,1-1.3,1.2c-0.4,0.1-1.1-0.3-1.4-0.7c-0.2-0.2-0.1-1.1,0.2-1.2c0.4-0.3,1.1-0.3,1.5-0.2
		C224.7,201.2,224.9,201.8,225.3,202.1L225.3,202.1z"/>
	<path d="M203.9,225.4c-0.9-0.2-1.6-0.2-2.1-0.5c-0.2-0.2-0.1-1.4,0.1-1.5c0.6-0.2,1.3-0.2,1.8,0.1
		C204,223.6,203.9,224.5,203.9,225.4z"/>
	<path d="M193.2,249.5c1.3,0.2,2,0.7,1.5,1.9c-0.1,0.3-1.1,0.6-1.4,0.4C192.1,251.1,192.8,250.3,193.2,249.5z"/>
	<path d="M155.1,269.9c-1.5,1.9-1.6,1.9-3.1-0.1C153,268.2,154,268.6,155.1,269.9z"/>
	<path d="M225.3,116.8c0,0.8,0.2,1.7,0,1.8c-0.5,0.3-1.2,0.2-1.8,0.3c0-0.5-0.2-1.2,0.1-1.6C223.9,117.1,224.6,117,225.3,116.8z"/>
	<path d="M177.3,253c-0.2,0.6-0.3,1.2-0.5,1.7c-0.1,0.1-1.1-0.1-1.1-0.2c0-0.6,0-1.3,0.3-1.8c0.2-0.3,0.8-0.5,1.2-0.7
		C177.1,252.4,177.2,252.7,177.3,253z"/>
	<path d="M103.7,290c-0.3,0.8-0.3,1.4-0.6,1.7c-0.2,0.2-1.1,0.2-1.2,0.1c-0.2-0.5-0.3-1.2-0.1-1.4C102.1,290,102.8,290.1,103.7,290z
		"/>
	<path d="M150.3,263c-0.2,0.8-0.4,1.3-0.5,1.8c-0.5-0.2-1.1-0.2-1.5-0.5c-0.2-0.1-0.1-1.1,0.1-1.2C148.8,262.9,149.4,263,150.3,263z
		"/>
	<path d="M218.8,97.4c-0.9-0.1-1.7,0.1-1.9-0.2c-0.2-0.5-0.2-1.2-0.1-1.8c0-0.1,1-0.3,1.1-0.2C218.3,95.8,218.4,96.4,218.8,97.4z"/>
	<path d="M35.8,254c-0.1-0.2-0.3-0.5-0.2-0.6c0.4-0.7,0.9-1.4,1.4-2c0,0,0.7,0.2,0.8,0.5c0.5,1.2-0.1,2-1.3,2.3
		C36.2,254,36,254,35.8,254z"/>
	<path class="st0" d="M119.4,125c-2.3,3.3-4.7,6.4-6.7,9.8c-8.3,13.8-14.3,28.6-18.4,44.1c-0.5,1.8-1,3.7-1.5,5.5l-0.2,0
		c0.7-4.9,1.1-9.8,2-14.6c1.4-7.1,4-13.8,7.3-20.3c0.3-0.6,0.5-1.3,0.8-2.3c-2,0.2-2.4,1.6-3,2.8c-4.5,8.7-7.6,17.9-8.9,27.7
		c-0.5,3.7-0.8,7.4-1.2,11.1c-0.1,0.8-0.3,1.6-0.8,2.3c-0.5-6,0.6-11.9,2-18.4c-1.2,0.8-1.8,1.2-2.6,1.7c1.2-9.5,5.1-18.1,7.5-27.2
		c-6.8,12.4-9.8,25.8-11.9,39.7c-0.8-4.5-1.8-9.4-0.2-13.4c2.2-5.6,2.4-11.4,3.5-17.1c1.6-8.3,4.6-16.2,8.2-23.8
		c1.2-2.7,1.3-2.6,1.2-5c-0.6,0.8-1.1,1.3-1.4,1.8c-4.6,9.9-8.6,19.9-9.8,30.8c-0.1,1.1-0.1,2.4-1.6,3c-0.5,0.3-0.9,1.4-0.9,2.1
		c-0.4,5.5-0.7,11-0.9,16.6c-0.4,9.1,2,17.9,3.5,26.8c0.1,0.3,0.1,0.7,0.1,1.1c-1.5-1.4-1.5-1.4-2.1-3.6
		c-4.7-15.8-5.1-31.7-0.6-47.7c3.5-12.7,7.4-25.2,14.3-36.5c4.7-7.8,10.2-15.2,16.4-21.9c5-5.4,10.4-10.4,15.2-15.9
		c2.7-3.1,5.7-3,9.1-2.5c0.7,0.1,1.4,0.6,2.1,0.6c7.4,0.3,10.5,5.8,13,11.4c3.2,7.2,6,14.7,8.4,22.3c1.9,5.8,3.5,11.8,4.5,17.8
		c0.8,4.7,0.6,9.6,0.8,14.4c-0.3,0-0.6,0.1-0.8,0.1c-0.9-5-1.7-9.9-2.7-15.4c-1.6,1.5-1.3,2.8-1.1,4c0.5,3.6,1,7.2,1.7,10.7
		c0.9,3.9,1.4,7.8,0.7,11.8c-0.2,1.3-0.3,2.5,0.7,3.7c0.6,0.7,0.7,2,0.6,3c-1.6,13.3-5,26-13,37c-2.6,3.6-5.7,6.9-8.8,10.2
		C155,200,162.4,185.2,162,167c-2,0.9-1.6,2.5-1.8,3.8c-0.6,4-1.1,8.1-1.7,12.1c-0.7,4.1-2.4,7.8-4.4,11.4c-1.2,2.1-2.1,4.3-3.2,6.5
		c-0.4,0.9-1,1.4-2.1,0.3c0.3-0.5,0.5-1.2,0.9-1.7c5-8.2,8.3-17.1,8.8-26.8c0.4-9.1,0.9-18.3,0.9-27.4c0-5.9-0.7-11.8-1.3-17.6
		c-0.2-1.7-0.8-3.3-1.3-5c-0.3,0-0.6,0.1-0.9,0.1c0.4,8,0.8,16.1,1.1,24.1c-1.7-3.3-2.7-6.8-2.9-10.5c-0.2-3.6-0.3-3.6-2.5-6
		c-1.3,3.8-0.9,8.9,1,12.6c0.2,0.4,0.4,0.9,0.4,1.4c1,12.8,0.6,25.5-5,37.4c-3,6.4-5.4,13.2-8.9,19.3c-3.3,5.7-7.8,10.7-13.4,14.4
		c-1.1,0.7-2.4,1.1-3.8,1.5c6-6.2,12.6-11.9,16.7-19.8c4.1-7.9,8.3-15.7,10.5-24.5c2.1-8.5,3.9-16.9,1.9-25.6
		c-1.2,1.4-1.3,3-1.2,4.6c0.3,10.5-2.5,20.5-6.1,30.3c-0.3,0.9-1,1.6-1.5,2.4c-0.9,1.1-1.9,2.1-2.6,3.3c-5.1,8-10.5,15.9-16.2,21.1
		c1.7-2.3,4.6-5.8,7-9.6c2.4-3.8,5.8-7.1,7.7-12c-3.1,0.5-3.1,3.4-5.3,4.2c1.4-2.8,2.7-5.3,4-7.9c0.7-1.3,1.3-2.5,2-3.8
		c0.3-0.6,0.7-1.5,1.2-1.7c3.7-1.3,4-4.7,4.9-7.7c0.6-2.2,0.8-4.5,1.7-6.6c1.9-4.8,2.5-9.7,2.2-14.8c0-0.6-0.3-1.1-0.6-2.3
		c-1.9,3-0.4,5.8-1.2,8.3c-0.7,2.5-1,5.2-1.7,7.7c-0.8,2.6-1.9,5.1-2.9,7.9c-0.4-0.6-0.8-1.1-1.3-1.9c-0.4,0.7-0.8,1.3-1,1.8
		c-1.5,4.2-2.9,8.4-4.6,12.5c-0.9,2.3-2,4.6-4.7,5.6c-0.7,0.3-1.2,1.2-1.6,1.9c-4.4,7.4-10.3,13.6-16.9,19.1c-2.1,1.8-4,3.8-6.2,5.5
		c1.6-1.5,3.3-3,4.8-4.6c4.1-4.7,8-9.7,12.3-14.2c7.4-7.8,11.7-17.3,16-26.8c2.5-5.6,3.7-12,4.9-18.1c2.3-11.8,4.3-23.7,6.2-35.5
		c0.6-3.7,0.7-7.5,0.5-11.4c-1.7,5.1-2.1,10.4-3.1,15.6c-1,5.2-1.9,10.4-2.9,15.8c-0.6-0.5-0.9-0.9-1.5-1.4c-0.4,0.8-0.7,1.3-0.9,2
		c-1.2,4.8-2.2,9.6-3.5,14.4c-0.3,1.1-1,2.1-1.5,3.2c-0.3,0.7-0.6,1.5-0.8,2.3c-0.6,3.5-1.1,6.9-3.2,10.1c-2.1,3.1-2.9,7.1-4.4,10.6
		c-0.8,2-1.9,3.9-3,5.8c-0.3,0.5-1,0.7-2.1,0.6c0.9-2.4,1.7-4.8,2.6-7.2c-1-0.7-1.8-1.2-2.7-1.8c-1.3,3.4-4.9,4.8-6.4,8.2
		c-1.3,3.2-3.5,6-5.4,8.9c-0.7,1.1-1.7,2-2.5,3l0.1,0c1.5-2.7,2.9-5.5,4.5-8.2c5.9-9.8,11.9-19.5,16.8-29.8
		c6.7-14.2,11.4-29.1,15.3-44.3c1.4-5.5,2.5-11,3.6-16.6c0.2-1.1,0.3-2.3-0.1-3.7c-0.3,0.5-0.8,1-0.9,1.6
		c-3.2,14.3-6.9,28.5-11.8,42.3c-2.2,6.2-5,12.2-7.6,18.3c-0.3,0.8-1.1,1.8-1.8,2c-1.5,0.4-2.1,1.5-2.6,2.7
		c-4.7,11-10.7,21.2-16.7,31.5c-1.4,2.4-2.8,4.7-4.6,6.9c2.4-5.6,4.6-11.3,7.1-16.9c2.5-5.5,5.7-10.8,7-16.7
		c-0.4-0.3-0.5-0.3-0.6-0.4c-0.1,0-0.3,0-0.3,0c-0.2,0.3-0.5,0.5-0.6,0.9c-5.6,12.2-11.3,24.4-17.1,36.6c1.5-6.7,5.1-12.7,7.3-19.1
		c2.2-6.5,4.4-13,6.8-19.4c2.5-6.5,5.8-12.7,6.3-19.8c-3.4,8.1-6.7,16.2-10.1,24.3c-3.4,8.1-5.1,17-10.3,24.4
		c1.9-5.5,3.7-11,5.7-16.5c1.9-5.3,4.1-10.4,5.1-15.9c-2.8,4.2-3.6,9.2-5.4,13.8c-1.8,4.6-3.5,9.2-5.6,13.8c0.1-0.8,0-1.7,0.3-2.5
		c1.8-5.5,3.7-10.9,5.5-16.4c0.6-1.9,1-3.9,1.5-5.8c0.3-1.1,0.8-2.2,1.3-3.3c0.8-2.1,1.7-4.2,2.6-6.3c6-10.2,9.6-18.2,9.1-20.3
		c-0.2,0-0.6,0-0.7,0.1c-3,6.7-6,13.5-9.1,20.2c-5.5,11.1-10.4,22.4-13,34.6c-0.3,1.5-0.7,2.9-1.1,4.3c-0.3-0.1-0.6-0.1-0.9-0.2
		c0.6-3.2,1-6.5,1.7-9.7c4.3-18,11.3-34.9,21.2-50.5c1.1-1.7,1.9-3.6,2.9-5.3c0.8-1,2-1.8,1.2-3.6C120.7,122.7,120,123.9,119.4,125z
		 M101.3,122.8c0.3,0.2,0.6,0.4,0.9,0.5c3.4-6.4,6.6-13,11.3-18.6c4.7-5.6,9.3-11.4,15.7-15.9c-0.1,0.9-0.1,1.2-0.2,1.4
		c-2.9,4.4-6,8.6-8.8,13.1c-3.6,5.7-6.9,11.5-10.3,17.3c-0.5,0.8-1.3,1.7,0,3.2c7.4-12.4,14-24.9,22.8-36c0.3-0.4,0.4-0.8,0.6-1.3
		c0-0.1,0-0.2,0-0.3c-0.1-0.1-0.2-0.2-0.3-0.3c-2.2,0.3-4.3,1.1-6,2.7c-10.1,9.2-18.9,19.5-24.9,31.9
		C101.7,121.3,101.5,122.1,101.3,122.8z M138.1,113.6c-0.3-0.1-0.7-0.1-1-0.2c-0.4,1.1-0.7,2.1-1.1,3.2c-1.4,4.7-2.9,9.4-4.3,14.1
		c-0.4,1.4-0.9,2.7-1.3,4.1c-1.2,5.3-3,10.4-5.8,15c-0.8,1.3-1.5,2.7-2.1,4.2c-0.2,0.5-0.1,1.2-0.1,1.7c4.4-5.2,7.3-11.1,9-17.5
		c0.8-2.9,1.8-5.7,2.6-8.6c1.4-4.8,2.8-9.7,4.2-14.5C138.3,114.7,138.1,114.2,138.1,113.6z M144,85.8c-0.4,0.5-0.8,0.7-0.9,1.1
		c-2.2,6.3-4.3,12.7-6.4,19c-0.2,0.5,0.2,1.1,0.4,2C140.2,104.3,144.9,89.2,144,85.8z M124.1,115.7c0.7-0.4,1.2-0.6,1.4-0.9
		c2.6-4.7,5.2-9.3,7.8-14.1c0.2-0.4,0.1-1,0.1-1.4c-3.7,4.7-7.4,9.2-9.7,14.6C123.5,114.3,123.9,114.9,124.1,115.7z M131.1,121.4
		c-2.6,2.5-7.8,13.7-8,16.7C125,136.8,130.5,125.6,131.1,121.4z M156.7,119.7c1.6-3,1.2-6.6-0.8-8.2C155,116.6,155,117,156.7,119.7z
		 M104,133.5c-3.2,2.7-4.8,6.4-4,9.5C101.8,140,103.1,137.3,104,133.5z M131.3,161.6c-1.7,1.5-3.1,3.2-3.2,5.5c0,0.3,0.6,0.6,1.1,1
		C130.6,166,132,164.2,131.3,161.6z"/>
	<path class="st0" d="M72.4,156.4c-0.6,2.7-1.1,5.4-1.7,8.1c-0.2,0.9-0.5,1.7-1.1,2.5c-0.5-9.2,2.2-17.7,4.9-26.2
		c2.8-8.6,7.4-16.3,11.6-24.2c-7.5,9.2-12.5,19.7-15.9,31c-3.3,11.3-4.4,22.7-3.4,34.4c-3.5-12.7-1.5-25,2.2-37.5
		c-0.6,0-1.1,0-1.7,0.1c0.1-0.6,0.2-1.2,0.3-1.8c2.7-11.5,8.6-21.4,15.8-30.5c2.9-3.7,6-7.2,8.9-10.8c1.2-1.4,2.3-2.9,3.3-5.4
		c-1.2,0.5-1.7,0.6-1.9,0.9c-9,10.2-17.9,20.6-23.6,33.1c-2.9,6.4-4.3,13.5-6.2,20.3c-0.4,1.3-0.7,2.8,0.8,4
		c0.3,0.2,0.3,1.1,0.3,1.6c-0.5,6.3-1.1,12.7-1.6,18.9c-1.3-4.1-1.1-8.6-1.6-13c-0.9-8,1.4-15.5,3.6-23c0.2-0.8,0.5-1.6,0.6-2.4
		c0.1-0.3-0.1-0.7-0.2-1.2c-0.4,0.3-0.8,0.4-0.9,0.6c-1.3,4.5-2.7,9-3.6,13.6c-0.9,4.4-2.6,8.7-2.4,13.4c0,0.3-0.2,0.6-0.5,0.9
		c-0.1,0.2-0.4,0.2-1.2,0.5c0.5-3.9,0.6-7.6,1.4-11.2c1.1-4.7,2.4-9.3,4-13.8c3.6-9.9,8.6-19.1,14.8-27.6c1.1-1.4,2.2-2.9,3.1-4.4
		c4.7-7.7,11.7-12.7,19.5-16.6c3.5-1.7,7.2-3.2,10.9-4.6c-5.5,7.4-12.8,13.3-17.1,21.5c0.2,0.2,0.3,0.4,0.5,0.6
		c0.6-0.5,1.3-1,1.9-1.7c5.8-6.9,11.5-13.9,17.3-20.8c0.6-0.7,1.5-1.1,2.4-1.5c2.9-1.3,10.1-2.7,13.7-2.6c-0.7,0.8-1.2,1.4-1.7,1.9
		c-11.5,10.5-22.3,21.6-30.8,34.8C90.6,128.8,86,140,82.7,151.8c-1.6,5.8-2.9,11.7-4.1,17.6c-1.3,6-1.7,12.1-1.3,18.3
		c0,0.6-0.1,1.1-0.3,1.7c-4.2-13.2-0.8-26.2,1.5-39.1c-7,15.8-7.2,31.9-1.2,48.2c-0.3,0.1-0.6,0.1-0.9,0.2c-0.9-2.4-1.9-4.7-2.7-7.1
		c-3.2-10.1-3.2-20.4-1.3-30.7c0.3-1.4,0.3-2.9,0.5-4.3c1.1-3.7,2.2-7.4,3.2-11.1c1-3.6,3.2-6.9,3.7-11.1
		C77.1,137.1,73,149.9,72.4,156.4z M90.8,123.4c-0.2-0.2-0.4-0.3-0.6-0.5c-0.3,0.2-0.7,0.2-0.9,0.5c-2.7,4.4-5.6,8.6-8.1,13.2
		c-1.3,2.4-1.8,5.2-2.5,7.8c-0.3,1.1-0.5,2.4,1.1,2.6c1.5-4.2,2.6-8.4,4.4-12.3C86,130.8,88.6,127.2,90.8,123.4z"/>
	<path class="st0" d="M61.7,206.4c-3.3-3.2-6.4-6.7-8.2-11.1C50.7,188.8,49,182,49,175c0-4.8,0.8-9.6,1.2-14.3
		c0.1-0.8,0.1-1.7-0.3-2.6c-2.5,4-2.1,8.8-3.5,13.1c-1.3-6.2-0.3-12.1,1.9-17.8c0.3-0.7,1-1.4,0.8-1.9c-1-2.9,1-4.8,2.1-6.9
		c4.4-8.6,9.7-16.6,15.5-24.4c2.7-3.7,5.7-7.1,8.9-10.4c-5.7,8.9-11,17.9-15.2,27.7c0.4-2,0.9-4.1,1.3-6.1c-0.3-0.1-0.5-0.2-0.8-0.2
		c-0.4,1.1-0.9,2.1-1.2,3.2c-2.4,9.4-6,18.6-6.5,28.4c0,0.4,0,0.8-0.2,1c-3.1,2.9-2.2,6.8-1.8,10.1c0.9,7.3,2.2,14.5,4.5,21.5
		C57,199.3,59.1,202.9,61.7,206.4z M51.4,152c0.3,0,0.6,0,0.8-0.1c1.6-3,3.3-9.5,2.9-11.6c-2.5,2.7-2.9,6.1-3.8,9.2
		C51.1,150.3,51.3,151.2,51.4,152z"/>
	<path class="st0" d="M156.6,154.9c0,3.1,0.1,6.2,0,9.3c-0.2,6.6-0.4,13.2-2.5,19.8c-2.1-0.8-2.5,0.8-3.1,2.3
		c-1.2,2.8-2.4,5.5-3.8,8.2c-0.8,1.6-2,3-3.3,4.3c0.8-2.6,1.5-5.3,2.4-7.8c1.6-4.4,3.5-8.7,5.1-13.1c2.3-6,3.8-12.1,3.7-18.6
		c0-1.5,0.8-2.9,1.3-4.4L156.6,154.9z"/>
	<path class="st0" d="M130.4,180.3c6-12.4,9.3-25.8,13.1-39C140.4,154.7,139.5,168.8,130.4,180.3z"/>
	<path class="st0" d="M148.8,195.6c-2.5,5.4-6,10.1-10.3,14c-3.8,3.4-8.1,6.3-12.2,9.4c-0.4,0.3-1,0.4-1.6,0.2
		c2.2-1.8,4.4-3.5,6.6-5.3c3-2.6,6-5.1,8.8-7.9c2.2-2.2,4-4.8,6-7.2c0.9-1.1,1.8-2.2,2.7-3.4L148.8,195.6z"/>
	<path class="st0" d="M82.2,213.5c-2.2-2.9-5.3-5.5-6.3-8.7c-1.2-4-4.2-7.3-4.5-11.7c0-0.8,0.1-1.5,0.1-2.5c1.8,4.1,3.2,8,5.1,11.7
		c1.9,3.7,4.2,7.1,6.4,10.6C82.7,213.1,82.5,213.3,82.2,213.5z"/>
	<path class="st0" d="M114.8,217.7c8.1-6.1,15-13.1,20.9-22.1C134.4,202,121.3,215.5,114.8,217.7z"/>
	<path class="st0" d="M108.2,216.4c7.8-4.5,12.9-11.9,19.2-18.5c-0.3,2.8-1.6,4.4-8.2,11C116,212.1,112.9,215.4,108.2,216.4z"/>
	<path class="st0" d="M116,196.4c-5.1,7.1-9.6,14.7-17.4,19.5C104.5,209.4,110.2,202.9,116,196.4z"/>
	<path class="st0" d="M77.4,213.6c-8.5-5.6-12.7-13.3-15.5-21.9C65.6,199.6,70.6,206.7,77.4,213.6z"/>
	<path class="st0" d="M89.8,229.1c6,0.6,12,1.2,18,1.7C104,232.6,96.4,232.1,89.8,229.1z"/>
	<path class="st0" d="M86.6,185.9c0.6,7.5,1.2,15,1.8,22.5C85.6,201.1,86.1,193.5,86.6,185.9z"/>
	<path class="st0" d="M42.8,174.3c-0.3-0.8-0.8-1.6-0.7-2.3c0.6-4.1,1.4-8.3,2.1-12.4c0.1-0.3,0.4-0.5,1.2-0.6
		c-0.7,3.8-1.4,7.6-2.1,11.4C43.1,171.7,42.9,173,42.8,174.3L42.8,174.3z"/>
	<path class="st0" d="M126.6,222.2c3.4-1.6,6.8-3.2,10.9-5.2C134,220.2,130.6,221.6,126.6,222.2z"/>
	<path class="st0" d="M45.3,179.4c0.7,2.8,1.5,5.7,2.2,8.5c-0.3,0.1-0.5,0.1-0.8,0.2c-1.7-2.6-1.4-5.7-2.2-8.5
		C44.8,179.6,45.1,179.5,45.3,179.4z"/>
	<path class="st0" d="M42.7,174.3c0,2.7,0.1,5.3,0.1,8C41.5,179.6,40.2,176.9,42.7,174.3L42.7,174.3z"/>
	<path class="st0" d="M119.2,186.7c-1.1,1.8-2.1,3.6-3.2,5.4c-0.2-0.1-0.3-0.2-0.5-0.3c1.1-1.7,2.3-3.5,3.4-5.2
		C119,186.5,119.1,186.6,119.2,186.7z"/>
	<path class="st0" d="M116.6,186.7c0.9-1.5,1.7-3,2.6-4.5c0.1,0.1,0.2,0.1,0.3,0.2c-0.8,1.5-1.7,3-2.5,4.5
		C116.9,186.9,116.7,186.8,116.6,186.7z"/>
	<path class="st0" d="M105.7,204.3c1.4-1.8,2.8-3.5,4.1-5.3c0.1,0.1,0.2,0.1,0.2,0.2c-1.3,1.7-2.7,3.5-4,5.2
		C105.9,204.4,105.8,204.4,105.7,204.3z"/>
	<path class="st0" d="M109.3,194.4c-0.8,1.4-1.7,2.8-2.5,4.3c-0.2-0.1-0.4-0.3-0.6-0.4C107.3,197,108.3,195.7,109.3,194.4
		L109.3,194.4z"/>
	<path class="st0" d="M110.9,195.2c0.5-0.9,1.1-1.8,1.6-2.7c0.1,0.1,0.2,0.1,0.3,0.2c-0.5,0.9-1.1,1.9-1.6,2.8
		C111.1,195.4,111,195.3,110.9,195.2z"/>
	<path class="st0" d="M156.5,154.9c-0.1-1.2-0.1-2.3-0.2-3.5c0.3,0,0.6,0,0.9,0.1c-0.2,1.1-0.4,2.3-0.7,3.4L156.5,154.9z"/>
	<path class="st0" d="M148.6,195.6c0.4-1.1,0.8-2.1,1.3-3.2c0.3,0.1,0.5,0.3,0.8,0.4c-0.6,0.9-1.2,1.9-1.9,2.8L148.6,195.6z"/>
	<path class="st0" d="M113.5,210.1c-0.3,0.3-0.7,0.6-1,1c0,0,0,0,0,0C112.8,210.7,113.1,210.3,113.5,210.1
		C113.5,210,113.5,210,113.5,210.1z"/>
	<path class="st0" d="M92.7,184.4c0,0.8-0.1,1.6-0.1,2.5c-0.2,0-0.4,0-0.6,0c0.2-0.8,0.4-1.6,0.5-2.4L92.7,184.4z"/>
	<path class="st0" d="M138.9,212.8c0.2-0.1,0.4-0.2,0.6-0.2c0,0.2,0.1,0.4,0,0.5c-0.2,0.2-0.4,0.2-0.6,0.3
		C138.9,213.2,138.9,213,138.9,212.8z"/>
	<path class="st0" d="M54.9,161c-0.1-0.3-0.3-0.6-0.3-0.9c0-0.3,0.2-0.6,0.6-0.9c0,0.6,0,1.2,0,1.7C55.1,161,55,161,54.9,161z"/>
	<path d="M101.3,122.8c0.2-0.8,0.4-1.6,0.8-2.3c6-12.4,14.8-22.7,24.9-31.9c1.8-1.6,3.8-2.3,6-2.7c0.2,0.2,0.3,0.2,0.3,0.3
		c0,0.1,0.1,0.2,0,0.3c-0.2,0.4-0.3,0.9-0.6,1.3c-8.7,11.1-15.4,23.7-22.8,36c-1.3-1.5-0.5-2.4,0-3.2c3.4-5.8,6.7-11.6,10.3-17.3
		c2.8-4.5,5.9-8.7,8.8-13.1c0.1-0.2,0.1-0.5,0.2-1.4c-6.5,4.6-11,10.3-15.7,15.9c-4.7,5.6-7.9,12.2-11.3,18.6
		C101.9,123.2,101.6,123,101.3,122.8z"/>
	<path d="M138.1,113.6c0,0.5,0.2,1.1,0.1,1.6c-1.4,4.8-2.7,9.7-4.2,14.5c-0.8,2.9-1.8,5.7-2.6,8.6c-1.7,6.4-4.6,12.3-9,17.5
		c0-0.6-0.1-1.2,0.1-1.7c0.6-1.4,1.3-2.8,2.1-4.2c2.8-4.7,4.6-9.7,5.8-15c0.3-1.4,0.8-2.8,1.3-4.1c1.4-4.7,2.9-9.4,4.3-14.1
		c0.3-1.1,0.7-2.1,1.1-3.2C137.4,113.5,137.7,113.6,138.1,113.6z"/>
	<path d="M144,85.8c0.8,3.4-3.9,18.5-6.9,22.1c-0.2-0.8-0.6-1.5-0.4-2c2.1-6.4,4.2-12.7,6.4-19C143.3,86.6,143.7,86.3,144,85.8z"/>
	<path d="M124.1,115.7c-0.2-0.8-0.6-1.4-0.4-1.8c2.3-5.4,5.9-10,9.7-14.6c0,0.5,0.1,1.1-0.1,1.4c-2.6,4.7-5.2,9.4-7.8,14.1
		C125.3,115.1,124.8,115.3,124.1,115.7z"/>
	<path d="M131.1,121.4c-0.6,4.2-6.1,15.4-8,16.7C123.3,135.1,128.5,123.9,131.1,121.4z"/>
	<path d="M109.2,152c3-6.7,6-13.5,9.1-20.2c0-0.1,0.4-0.1,0.7-0.1c0.4,2.2-3.2,10.1-9.1,20.3C109.6,152,109.4,152,109.2,152z"/>
	<path d="M156.7,119.7c-1.7-2.7-1.7-3.1-0.8-8.2C157.9,113.1,158.3,116.7,156.7,119.7z"/>
	<path d="M104,133.5c-0.9,3.8-2.2,6.4-4,9.5C99.2,139.9,100.8,136.3,104,133.5z"/>
	<path d="M131.3,161.6c0.7,2.7-0.7,4.5-2.1,6.5c-0.5-0.4-1.1-0.7-1.1-1C128.2,164.7,129.6,163.1,131.3,161.6z"/>
	<path d="M119.4,125c0.6-1.2,1.2-2.3,1.9-3.5c0.9,1.8-0.4,2.6-1.2,3.6C119.9,125.1,119.6,125.1,119.4,125z"/>
	<path d="M90.8,123.4c-2.2,3.8-4.8,7.4-6.6,11.3c-1.8,3.9-2.9,8-4.4,12.3c-1.5-0.2-1.3-1.5-1.1-2.6c0.7-2.7,1.3-5.5,2.5-7.8
		c2.4-4.5,5.3-8.8,8.1-13.2c0.2-0.2,0.6-0.3,0.9-0.5C90.4,123.1,90.6,123.2,90.8,123.4z"/>
	<path d="M72.4,156.4c0.6-6.6,4.7-19.4,7.4-22.1c-0.5,4.2-2.7,7.5-3.7,11.1c-1,3.7-2.1,7.4-3.2,11.1
		C72.8,156.5,72.6,156.4,72.4,156.4z"/>
	<path d="M51.4,152c0-0.8-0.3-1.7-0.1-2.5c0.9-3.1,1.3-6.5,3.8-9.2c0.3,2.2-1.4,8.7-2.9,11.6C51.9,152,51.6,152,51.4,152z"/>
</g>
</svg>
