<?xml version="1.0" encoding="utf-8"?>
<!-- Generator: Adobe Illustrator 20.1.0, SVG Export Plug-In . SVG Version: 6.00 Build 0)  -->
<svg version="1.1" id="Layer_1" xmlns="http://www.w3.org/2000/svg" xmlns:xlink="http://www.w3.org/1999/xlink" x="0px" y="0px"
	 viewBox="0 0 800 110" style="enable-background:new 0 0 800 110;" xml:space="preserve">
<style type="text/css">
	.st0{fill:url(#SVGID_1_);}
</style>
<linearGradient id="SVGID_1_" gradientUnits="userSpaceOnUse" x1="399.8448" y1="110" x2="399.8448" y2="6.0683">
	<stop  offset="0" style="stop-color:#4ccba0"/>
	<stop  offset="1" style="stop-color:#fad588">
		<animate attributeName="offset" values="1;0.5;1" dur="2s" repeatCount="indefinite" />
	</stop>
</linearGradient>
<path class="st0" d="M619.2,106.3c0,1-0.4,2-1.1,2.6c-0.7,0.7-1.6,1.1-2.6,1.1c-1,0-2-0.4-2.6-1.1c-0.7-0.7-1.1-1.6-1.1-2.6
	c0-2.1,1.7-3.7,3.7-3.7C617.5,102.5,619.2,104.2,619.2,106.3z M615.4,94.5c1,0,1.9,0.4,2.5,1c0.6,0.6,1,1.5,1,2.5c0,1-0.4,1.9-1,2.5
	c-0.6,0.6-1.5,1-2.5,1c-1,0-1.9-0.4-2.5-1c-0.6-0.6-1-1.5-1-2.5c0-1,0.4-1.9,1-2.5C613.6,94.9,614.5,94.5,615.4,94.5z M615.4,86.4
	c0.9,0,1.8,0.4,2.4,1c0.6,0.6,1,1.5,1,2.4s-0.4,1.8-1,2.4c-0.6,0.6-1.5,1-2.4,1c-0.9,0-1.8-0.4-2.4-1c-0.6-0.6-1-1.5-1-2.4
	s0.4-1.8,1-2.4C613.7,86.8,614.5,86.4,615.4,86.4z M615.4,78.4c0.9,0,1.7,0.4,2.3,0.9c0.6,0.6,0.9,1.4,0.9,2.3
	c0,0.9-0.4,1.7-0.9,2.3c-0.6,0.6-1.4,0.9-2.3,0.9s-1.7-0.4-2.3-0.9c-0.6-0.6-0.9-1.4-0.9-2.3c0-0.9,0.4-1.7,0.9-2.3
	C613.7,78.8,614.6,78.4,615.4,78.4z M615.4,70.4c0.8,0,1.6,0.3,2.2,0.9c0.6,0.6,0.9,1.3,0.9,2.2c0,0.8-0.3,1.6-0.9,2.2
	c-0.6,0.6-1.3,0.9-2.2,0.9c-0.8,0-1.6-0.3-2.2-0.9c-0.6-0.6-0.9-1.3-0.9-2.2c0-0.8,0.3-1.6,0.9-2.2
	C613.8,70.7,614.6,70.4,615.4,70.4z M615.4,62.3c0.8,0,1.5,0.3,2,0.8c0.5,0.5,0.8,1.2,0.8,2c0,0.8-0.3,1.5-0.8,2
	c-0.5,0.5-1.2,0.8-2,0.8c-0.8,0-1.5-0.3-2-0.8c-0.5-0.5-0.8-1.2-0.8-2c0-0.8,0.3-1.5,0.8-2C613.9,62.6,614.6,62.3,615.4,62.3z
	 M658.4,106.3c0,1-0.4,2-1.1,2.6c-0.7,0.7-1.6,1.1-2.6,1.1c-1,0-2-0.4-2.6-1.1c-0.7-0.7-1.1-1.6-1.1-2.6c0-2.1,1.7-3.7,3.7-3.7
	C656.7,102.5,658.4,104.2,658.4,106.3z M654.6,94.5c1,0,1.9,0.4,2.5,1c0.6,0.6,1,1.5,1,2.5c0,1-0.4,1.9-1,2.5c-0.6,0.6-1.5,1-2.5,1
	c-1,0-1.9-0.4-2.5-1c-0.6-0.6-1-1.5-1-2.5c0-1,0.4-1.9,1-2.5C652.8,94.9,653.7,94.5,654.6,94.5z M654.6,86.4c0.9,0,1.8,0.4,2.4,1
	s1,1.5,1,2.4s-0.4,1.8-1,2.4c-0.6,0.6-1.5,1-2.4,1c-0.9,0-1.8-0.4-2.4-1c-0.6-0.6-1-1.5-1-2.4s0.4-1.8,1-2.4
	C652.9,86.8,653.7,86.4,654.6,86.4z M654.6,78.4c0.9,0,1.7,0.4,2.3,0.9c0.6,0.6,0.9,1.4,0.9,2.3c0,0.9-0.4,1.7-0.9,2.3
	c-0.6,0.6-1.4,0.9-2.3,0.9c-0.9,0-1.7-0.4-2.3-0.9c-0.6-0.6-0.9-1.4-0.9-2.3c0-0.9,0.4-1.7,0.9-2.3C653,78.8,653.8,78.4,654.6,78.4z
	 M654.6,70.4c0.8,0,1.6,0.3,2.2,0.9c0.6,0.6,0.9,1.3,0.9,2.2c0,0.8-0.3,1.6-0.9,2.2c-0.6,0.6-1.3,0.9-2.2,0.9
	c-0.8,0-1.6-0.3-2.2-0.9c-0.6-0.6-0.9-1.3-0.9-2.2c0-0.8,0.3-1.6,0.9-2.2C653,70.7,653.8,70.4,654.6,70.4z M654.6,62.3
	c0.8,0,1.5,0.3,2,0.8c0.5,0.5,0.8,1.2,0.8,2c0,0.8-0.3,1.5-0.8,2c-0.5,0.5-1.2,0.8-2,0.8c-0.8,0-1.5-0.3-2-0.8
	c-0.5-0.5-0.8-1.2-0.8-2c0-0.8,0.3-1.5,0.8-2C653.1,62.6,653.9,62.3,654.6,62.3z M654.6,54.3c0.7,0,1.4,0.3,1.9,0.8
	c0.5,0.5,0.8,1.2,0.8,1.9c0,0.7-0.3,1.4-0.8,1.9c-0.5,0.5-1.2,0.8-1.9,0.8c-0.7,0-1.4-0.3-1.9-0.8c-0.5-0.5-0.8-1.2-0.8-1.9
	c0-0.7,0.3-1.4,0.8-1.9C653.2,54.6,653.9,54.3,654.6,54.3z M606.1,106.3c0,1-0.4,2-1.1,2.6c-0.7,0.7-1.6,1.1-2.6,1.1s-2-0.4-2.6-1.1
	c-0.7-0.7-1.1-1.6-1.1-2.6c0-2.1,1.7-3.7,3.7-3.7C604.4,102.5,606.1,104.2,606.1,106.3z M602.4,94.5c1,0,1.9,0.4,2.5,1
	c0.6,0.6,1,1.5,1,2.5c0,1-0.4,1.9-1,2.5c-0.6,0.6-1.5,1-2.5,1c-1,0-1.9-0.4-2.5-1c-0.6-0.6-1-1.5-1-2.5c0-1,0.4-1.9,1-2.5
	C600.5,94.9,601.4,94.5,602.4,94.5z M602.4,86.4c0.9,0,1.8,0.4,2.4,1c0.6,0.6,1,1.5,1,2.4s-0.4,1.8-1,2.4c-0.6,0.6-1.5,1-2.4,1
	c-0.9,0-1.8-0.4-2.4-1c-0.6-0.6-1-1.5-1-2.4s0.4-1.8,1-2.4C600.6,86.8,601.4,86.4,602.4,86.4z M602.4,78.4c0.9,0,1.7,0.4,2.3,0.9
	c0.6,0.6,0.9,1.4,0.9,2.3c0,0.9-0.4,1.7-0.9,2.3c-0.6,0.6-1.4,0.9-2.3,0.9c-0.9,0-1.7-0.4-2.3-0.9c-0.6-0.6-0.9-1.4-0.9-2.3
	c0-0.9,0.4-1.7,0.9-2.3C600.7,78.8,601.5,78.4,602.4,78.4z M602.4,70.4c0.8,0,1.6,0.3,2.2,0.9c0.6,0.6,0.9,1.3,0.9,2.2
	c0,0.8-0.3,1.6-0.9,2.2c-0.6,0.6-1.3,0.9-2.2,0.9c-0.8,0-1.6-0.3-2.2-0.9c-0.6-0.6-0.9-1.3-0.9-2.2c0-0.8,0.3-1.6,0.9-2.2
	C600.8,70.7,601.5,70.4,602.4,70.4z M602.4,62.3c0.8,0,1.5,0.3,2,0.8c0.5,0.5,0.8,1.2,0.8,2c0,0.8-0.3,1.5-0.8,2
	c-0.5,0.5-1.2,0.8-2,0.8c-0.8,0-1.5-0.3-2-0.8c-0.5-0.5-0.8-1.2-0.8-2c0-0.8,0.3-1.5,0.8-2C600.9,62.6,601.6,62.3,602.4,62.3z
	 M602.4,54.3c0.7,0,1.4,0.3,1.9,0.8c0.5,0.5,0.8,1.2,0.8,1.9c0,0.7-0.3,1.4-0.8,1.9c-0.5,0.5-1.2,0.8-1.9,0.8
	c-0.7,0-1.4-0.3-1.9-0.8c-0.5-0.5-0.8-1.2-0.8-1.9c0-0.7,0.3-1.4,0.8-1.9C600.9,54.6,601.6,54.3,602.4,54.3z M602.4,46.3
	c0.7,0,1.3,0.3,1.8,0.7c0.5,0.5,0.7,1.1,0.7,1.8c0,0.7-0.3,1.3-0.7,1.8c-0.5,0.5-1.1,0.7-1.8,0.7c-0.7,0-1.3-0.3-1.8-0.7
	c-0.5-0.5-0.7-1.1-0.7-1.8c0-0.7,0.3-1.3,0.7-1.8C601,46.5,601.7,46.3,602.4,46.3z M632.3,106.3c0,1-0.4,2-1.1,2.6
	c-0.7,0.7-1.6,1.1-2.6,1.1c-1,0-2-0.4-2.6-1.1c-0.7-0.7-1.1-1.6-1.1-2.6c0-2.1,1.7-3.7,3.7-3.7C630.6,102.5,632.3,104.2,632.3,106.3
	z M628.5,94.5c1,0,1.9,0.4,2.5,1c0.6,0.6,1,1.5,1,2.5c0,1-0.4,1.9-1,2.5c-0.6,0.6-1.5,1-2.5,1c-1,0-1.9-0.4-2.5-1
	c-0.6-0.6-1-1.5-1-2.5c0-1,0.4-1.9,1-2.5C626.6,94.9,627.5,94.5,628.5,94.5z M628.5,78.4c0.9,0,1.7,0.4,2.3,0.9
	c0.6,0.6,0.9,1.4,0.9,2.3c0,0.9-0.4,1.7-0.9,2.3c-0.6,0.6-1.4,0.9-2.3,0.9s-1.7-0.4-2.3-0.9c-0.6-0.6-0.9-1.4-0.9-2.3
	c0-0.9,0.4-1.7,0.9-2.3C626.8,78.8,627.6,78.4,628.5,78.4z M628.5,70.4c0.8,0,1.6,0.3,2.2,0.9c0.6,0.6,0.9,1.3,0.9,2.2
	c0,0.8-0.3,1.6-0.9,2.2c-0.6,0.6-1.3,0.9-2.2,0.9c-0.8,0-1.6-0.3-2.2-0.9c-0.6-0.6-0.9-1.3-0.9-2.2c0-0.8,0.3-1.6,0.9-2.2
	C626.9,70.7,627.7,70.4,628.5,70.4z M628.5,62.3c0.8,0,1.5,0.3,2,0.8c0.5,0.5,0.8,1.2,0.8,2c0,0.8-0.3,1.5-0.8,2
	c-0.5,0.5-1.2,0.8-2,0.8c-0.8,0-1.5-0.3-2-0.8c-0.5-0.5-0.8-1.2-0.8-2c0-0.8,0.3-1.5,0.8-2C627,62.6,627.7,62.3,628.5,62.3z
	 M628.5,54.3c0.7,0,1.4,0.3,1.9,0.8c0.5,0.5,0.8,1.2,0.8,1.9c0,0.7-0.3,1.4-0.8,1.9c-0.5,0.5-1.2,0.8-1.9,0.8
	c-0.7,0-1.4-0.3-1.9-0.8c-0.5-0.5-0.8-1.2-0.8-1.9c0-0.7,0.3-1.4,0.8-1.9C627.1,54.6,627.8,54.3,628.5,54.3z M615.2,46.3
	c0.7,0,1.3,0.3,1.8,0.7c0.5,0.5,0.7,1.1,0.7,1.8c0,0.7-0.3,1.3-0.7,1.8c-0.5,0.5-1.1,0.7-1.8,0.7c-0.7,0-1.3-0.3-1.8-0.7
	c-0.5-0.5-0.7-1.1-0.7-1.8c0-0.7,0.3-1.3,0.7-1.8C613.9,46.5,614.5,46.3,615.2,46.3z M615.2,38.2c0.6,0,1.2,0.3,1.7,0.7
	c0.4,0.4,0.7,1,0.7,1.7c0,0.6-0.3,1.2-0.7,1.7c-0.4,0.4-1,0.7-1.7,0.7c-0.6,0-1.2-0.3-1.7-0.7c-0.4-0.4-0.7-1-0.7-1.7
	c0-0.6,0.3-1.2,0.7-1.7C614,38.5,614.6,38.2,615.2,38.2z M593,106.3c0,1-0.4,2-1.1,2.6c-0.7,0.7-1.6,1.1-2.6,1.1c-1,0-2-0.4-2.6-1.1
	c-0.7-0.7-1.1-1.6-1.1-2.6c0-2.1,1.7-3.7,3.7-3.7C591.4,102.5,593,104.2,593,106.3z M589.3,94.5c1,0,1.9,0.4,2.5,1
	c0.6,0.6,1,1.5,1,2.5c0,1-0.4,1.9-1,2.5c-0.6,0.6-1.5,1-2.5,1c-1,0-1.9-0.4-2.5-1c-0.6-0.6-1-1.5-1-2.5c0-1,0.4-1.9,1-2.5
	C587.4,94.9,588.3,94.5,589.3,94.5z M589.3,86.4c0.9,0,1.8,0.4,2.4,1c0.6,0.6,1,1.5,1,2.4s-0.4,1.8-1,2.4c-0.6,0.6-1.5,1-2.4,1
	c-0.9,0-1.8-0.4-2.4-1c-0.6-0.6-1-1.5-1-2.4s0.4-1.8,1-2.4C587.5,86.8,588.4,86.4,589.3,86.4z M589.3,78.4c0.9,0,1.7,0.4,2.3,0.9
	c0.6,0.6,0.9,1.4,0.9,2.3c0,0.9-0.4,1.7-0.9,2.3c-0.6,0.6-1.4,0.9-2.3,0.9c-0.9,0-1.7-0.4-2.3-0.9c-0.6-0.6-0.9-1.4-0.9-2.3
	c0-0.9,0.4-1.7,0.9-2.3C587.6,78.8,588.4,78.4,589.3,78.4z M589.3,70.4c0.8,0,1.6,0.3,2.2,0.9c0.6,0.6,0.9,1.3,0.9,2.2
	c0,0.8-0.3,1.6-0.9,2.2c-0.6,0.6-1.3,0.9-2.2,0.9c-0.8,0-1.6-0.3-2.2-0.9c-0.6-0.6-0.9-1.3-0.9-2.2c0-0.8,0.3-1.6,0.9-2.2
	C587.7,70.7,588.5,70.4,589.3,70.4z M589.3,62.3c0.8,0,1.5,0.3,2,0.8c0.5,0.5,0.8,1.2,0.8,2c0,0.8-0.3,1.5-0.8,2
	c-0.5,0.5-1.2,0.8-2,0.8c-0.8,0-1.5-0.3-2-0.8c-0.5-0.5-0.8-1.2-0.8-2c0-0.8,0.3-1.5,0.8-2C587.8,62.6,588.5,62.3,589.3,62.3z
	 M589.3,54.3c0.7,0,1.4,0.3,1.9,0.8c0.5,0.5,0.8,1.2,0.8,1.9c0,0.7-0.3,1.4-0.8,1.9c-0.5,0.5-1.2,0.8-1.9,0.8
	c-0.7,0-1.4-0.3-1.9-0.8c-0.5-0.5-0.8-1.2-0.8-1.9c0-0.7,0.3-1.4,0.8-1.9C587.9,54.6,588.6,54.3,589.3,54.3z M589.3,46.3
	c0.7,0,1.3,0.3,1.8,0.7c0.5,0.5,0.7,1.1,0.7,1.8c0,0.7-0.3,1.3-0.7,1.8c-0.5,0.5-1.1,0.7-1.8,0.7c-0.7,0-1.3-0.3-1.8-0.7
	c-0.5-0.5-0.7-1.1-0.7-1.8c0-0.7,0.3-1.3,0.7-1.8C588,46.5,588.6,46.3,589.3,46.3z M589.3,38.2c0.6,0,1.2,0.3,1.7,0.7s0.7,1,0.7,1.7
	c0,0.6-0.3,1.2-0.7,1.7c-0.4,0.4-1,0.7-1.7,0.7c-0.6,0-1.2-0.3-1.7-0.7c-0.4-0.4-0.7-1-0.7-1.7c0-0.6,0.3-1.2,0.7-1.7
	C588.1,38.5,588.7,38.2,589.3,38.2z M589.3,30.2c0.6,0,1.1,0.2,1.6,0.6c0.4,0.4,0.6,1,0.6,1.6c0,0.6-0.2,1.1-0.6,1.6
	c-0.4,0.4-1,0.6-1.6,0.6c-0.6,0-1.1-0.2-1.6-0.6c-0.4-0.4-0.6-1-0.6-1.6c0-0.6,0.2-1.1,0.6-1.6C588.2,30.4,588.7,30.2,589.3,30.2z
	 M755.2,102.5c2.1,0,3.7,1.7,3.7,3.7c0,1-0.4,2-1.1,2.6c-0.7,0.7-1.6,1.1-2.6,1.1c-1,0-2-0.4-2.6-1.1c-0.7-0.7-1.1-1.6-1.1-2.6
	C751.5,104.2,753.2,102.5,755.2,102.5z M757.8,95.5c0.6,0.6,1,1.5,1,2.5c0,1-0.4,1.9-1,2.5c-0.6,0.6-1.5,1-2.5,1c-1,0-1.9-0.4-2.5-1
	c-0.6-0.6-1-1.5-1-2.5c0-1,0.4-1.9,1-2.5c0.6-0.6,1.5-1,2.5-1C756.2,94.5,757.1,94.9,757.8,95.5z M757.6,87.4c0.6,0.6,1,1.5,1,2.4
	s-0.4,1.8-1,2.4c-0.6,0.6-1.5,1-2.4,1c-0.9,0-1.8-0.4-2.4-1c-0.6-0.6-1-1.5-1-2.4s0.4-1.8,1-2.4c0.6-0.6,1.5-1,2.4-1
	C756.2,86.4,757,86.8,757.6,87.4z M757.4,71.3c0.6,0.6,0.9,1.3,0.9,2.2c0,0.8-0.3,1.6-0.9,2.2c-0.6,0.6-1.3,0.9-2.2,0.9
	c-0.8,0-1.6-0.3-2.2-0.9c-0.6-0.6-0.9-1.3-0.9-2.2c0-0.8,0.3-1.6,0.9-2.2c0.6-0.6,1.3-0.9,2.2-0.9C756.1,70.4,756.8,70.7,757.4,71.3
	z M766.9,102.5c2.1,0,3.7,1.7,3.7,3.7c0,1-0.4,2-1.1,2.6c-0.7,0.7-1.6,1.1-2.6,1.1c-1,0-2-0.4-2.6-1.1c-0.7-0.7-1.1-1.6-1.1-2.6
	C763.1,104.2,764.8,102.5,766.9,102.5z M769.3,87.4c0.6,0.6,1,1.5,1,2.4s-0.4,1.8-1,2.4c-0.6,0.6-1.5,1-2.4,1c-0.9,0-1.8-0.4-2.4-1
	c-0.6-0.6-1-1.5-1-2.4s0.4-1.8,1-2.4c0.6-0.6,1.5-1,2.4-1C767.8,86.4,768.7,86.8,769.3,87.4z M778.5,102.5c2.1,0,3.7,1.7,3.7,3.7
	c0,1-0.4,2-1.1,2.6c-0.7,0.7-1.6,1.1-2.6,1.1c-1,0-2-0.4-2.6-1.1c-0.7-0.7-1.1-1.6-1.1-2.6C774.8,104.2,776.5,102.5,778.5,102.5z
	 M781.1,95.5c0.6,0.6,1,1.5,1,2.5c0,1-0.4,1.9-1,2.5c-0.6,0.6-1.5,1-2.5,1c-1,0-1.9-0.4-2.5-1c-0.6-0.6-1-1.5-1-2.5
	c0-1,0.4-1.9,1-2.5c0.6-0.6,1.5-1,2.5-1C779.5,94.5,780.4,94.9,781.1,95.5z M791.1,102.5c2.1,0,3.7,1.7,3.7,3.7c0,1-0.4,2-1.1,2.6
	c-0.7,0.7-1.6,1.1-2.6,1.1s-2-0.4-2.6-1.1c-0.7-0.7-1.1-1.6-1.1-2.6C787.4,104.2,789.1,102.5,791.1,102.5z M645.3,106.3
	c0,1-0.4,2-1.1,2.6c-0.7,0.7-1.6,1.1-2.6,1.1c-1,0-2-0.4-2.6-1.1c-0.7-0.7-1.1-1.6-1.1-2.6c0-2.1,1.7-3.7,3.7-3.7
	C643.6,102.5,645.3,104.2,645.3,106.3z M641.6,94.5c1,0,1.9,0.4,2.5,1c0.6,0.6,1,1.5,1,2.5c0,1-0.4,1.9-1,2.5c-0.6,0.6-1.5,1-2.5,1
	c-1,0-1.9-0.4-2.5-1c-0.6-0.6-1-1.5-1-2.5c0-1,0.4-1.9,1-2.5C639.7,94.9,640.6,94.5,641.6,94.5z M641.6,86.4c0.9,0,1.8,0.4,2.4,1
	s1,1.5,1,2.4s-0.4,1.8-1,2.4c-0.6,0.6-1.5,1-2.4,1c-0.9,0-1.8-0.4-2.4-1c-0.6-0.6-1-1.5-1-2.4s0.4-1.8,1-2.4S640.6,86.4,641.6,86.4z
	 M628.3,86.4c0.9,0,1.8,0.4,2.4,1s1,1.5,1,2.4s-0.4,1.8-1,2.4c-0.6,0.6-1.5,1-2.4,1c-0.9,0-1.8-0.4-2.4-1c-0.6-0.6-1-1.5-1-2.4
	s0.4-1.8,1-2.4S627.3,86.4,628.3,86.4z M641.6,78.4c0.9,0,1.7,0.4,2.3,0.9c0.6,0.6,0.9,1.4,0.9,2.3c0,0.9-0.4,1.7-0.9,2.3
	c-0.6,0.6-1.4,0.9-2.3,0.9c-0.9,0-1.7-0.4-2.3-0.9c-0.6-0.6-0.9-1.4-0.9-2.3c0-0.9,0.4-1.7,0.9-2.3
	C639.9,78.8,640.7,78.4,641.6,78.4z M641.6,70.4c0.8,0,1.6,0.3,2.2,0.9c0.6,0.6,0.9,1.3,0.9,2.2c0,0.8-0.3,1.6-0.9,2.2
	c-0.6,0.6-1.3,0.9-2.2,0.9c-0.8,0-1.6-0.3-2.2-0.9c-0.6-0.6-0.9-1.3-0.9-2.2c0-0.8,0.3-1.6,0.9-2.2C640,70.7,640.7,70.4,641.6,70.4z
	 M641.6,62.3c0.8,0,1.5,0.3,2,0.8c0.5,0.5,0.8,1.2,0.8,2c0,0.8-0.3,1.5-0.8,2c-0.5,0.5-1.2,0.8-2,0.8c-0.8,0-1.5-0.3-2-0.8
	c-0.5-0.5-0.8-1.2-0.8-2c0-0.8,0.3-1.5,0.8-2C640.1,62.6,640.8,62.3,641.6,62.3z M641.6,54.3c0.7,0,1.4,0.3,1.9,0.8
	c0.5,0.5,0.8,1.2,0.8,1.9c0,0.7-0.3,1.4-0.8,1.9c-0.5,0.5-1.2,0.8-1.9,0.8c-0.7,0-1.4-0.3-1.9-0.8c-0.5-0.5-0.8-1.2-0.8-1.9
	c0-0.7,0.3-1.4,0.8-1.9C640.2,54.6,640.8,54.3,641.6,54.3z M641.6,46.3c0.7,0,1.3,0.3,1.8,0.7c0.5,0.5,0.7,1.1,0.7,1.8
	c0,0.7-0.3,1.3-0.7,1.8c-0.5,0.5-1.1,0.7-1.8,0.7c-0.7,0-1.3-0.3-1.8-0.7c-0.5-0.5-0.7-1.1-0.7-1.8c0-0.7,0.3-1.3,0.7-1.8
	C640.2,46.5,640.9,46.3,641.6,46.3z M641.6,38.2c0.6,0,1.2,0.3,1.7,0.7c0.4,0.4,0.7,1,0.7,1.7c0,0.6-0.3,1.2-0.7,1.7
	c-0.4,0.4-1,0.7-1.7,0.7c-0.6,0-1.2-0.3-1.7-0.7c-0.4-0.4-0.7-1-0.7-1.7c0-0.6,0.3-1.2,0.7-1.7C640.3,38.5,640.9,38.2,641.6,38.2z
	 M641.6,30.2c0.6,0,1.1,0.2,1.6,0.6c0.4,0.4,0.6,1,0.6,1.6c0,0.6-0.2,1.1-0.6,1.6c-0.4,0.4-1,0.6-1.6,0.6c-0.6,0-1.1-0.2-1.6-0.6
	c-0.4-0.4-0.6-1-0.6-1.6c0-0.6,0.2-1.1,0.6-1.6C640.4,30.4,641,30.2,641.6,30.2z M641.6,22.1c0.5,0,1.1,0.2,1.4,0.6
	c0.4,0.4,0.6,0.9,0.6,1.4c0,0.5-0.2,1.1-0.6,1.4c-0.4,0.4-0.9,0.6-1.4,0.6c-0.5,0-1.1-0.2-1.4-0.6c-0.4-0.4-0.6-0.9-0.6-1.4
	c0-0.5,0.2-1.1,0.6-1.4C640.5,22.4,641,22.1,641.6,22.1z M654.9,38.2c0.6,0,1.2,0.3,1.7,0.7c0.4,0.4,0.7,1,0.7,1.7
	c0,0.6-0.3,1.2-0.7,1.7c-0.4,0.4-1,0.7-1.7,0.7c-0.6,0-1.2-0.3-1.7-0.7c-0.4-0.4-0.7-1-0.7-1.7c0-0.6,0.3-1.2,0.7-1.7
	C653.6,38.5,654.2,38.2,654.9,38.2z M654.9,30.2c0.6,0,1.1,0.2,1.6,0.6c0.4,0.4,0.6,1,0.6,1.6c0,0.6-0.2,1.1-0.6,1.6
	c-0.4,0.4-1,0.6-1.6,0.6s-1.1-0.2-1.6-0.6c-0.4-0.4-0.6-1-0.6-1.6c0-0.6,0.2-1.1,0.6-1.6C653.7,30.4,654.3,30.2,654.9,30.2z
	 M654.9,22.1c0.5,0,1.1,0.2,1.4,0.6c0.4,0.4,0.6,0.9,0.6,1.4c0,0.5-0.2,1.1-0.6,1.4c-0.4,0.4-0.9,0.6-1.4,0.6
	c-0.5,0-1.1-0.2-1.4-0.6c-0.4-0.4-0.6-0.9-0.6-1.4c0-0.5,0.2-1.1,0.6-1.4C653.8,22.4,654.3,22.1,654.9,22.1z M641.6,14.1
	c0.5,0,1,0.2,1.3,0.5c0.3,0.3,0.5,0.8,0.5,1.3c0,0.5-0.2,1-0.5,1.3c-0.3,0.3-0.8,0.5-1.3,0.5c-0.5,0-1-0.2-1.3-0.5
	c-0.3-0.3-0.5-0.8-0.5-1.3c0-0.5,0.2-1,0.5-1.3C640.6,14.3,641.1,14.1,641.6,14.1z M641.6,6.1c0.4,0,0.9,0.2,1.2,0.5
	c0.3,0.3,0.5,0.7,0.5,1.2c0,0.4-0.2,0.9-0.5,1.2c-0.3,0.3-0.7,0.5-1.2,0.5c-0.4,0-0.9-0.2-1.2-0.5c-0.3-0.3-0.5-0.7-0.5-1.2
	c0-0.4,0.2-0.9,0.5-1.2C640.7,6.2,641.1,6.1,641.6,6.1z M629.2,38.2c0.6,0,1.2,0.3,1.7,0.7c0.4,0.4,0.7,1,0.7,1.7
	c0,0.6-0.3,1.2-0.7,1.7c-0.4,0.4-1,0.7-1.7,0.7c-0.6,0-1.2-0.3-1.7-0.7c-0.4-0.4-0.7-1-0.7-1.7c0-0.6,0.3-1.2,0.7-1.7
	C627.9,38.5,628.5,38.2,629.2,38.2z M629.2,30.2c0.6,0,1.1,0.2,1.6,0.6c0.4,0.4,0.6,1,0.6,1.6c0,0.6-0.2,1.1-0.6,1.6
	c-0.4,0.4-1,0.6-1.6,0.6c-0.6,0-1.1-0.2-1.6-0.6c-0.4-0.4-0.6-1-0.6-1.6c0-0.6,0.2-1.1,0.6-1.6C628,30.4,628.6,30.2,629.2,30.2z
	 M629.2,22.1c0.5,0,1.1,0.2,1.4,0.6c0.4,0.4,0.6,0.9,0.6,1.4c0,0.5-0.2,1.1-0.6,1.4c-0.4,0.4-0.9,0.6-1.4,0.6
	c-0.5,0-1.1-0.2-1.4-0.6c-0.4-0.4-0.6-0.9-0.6-1.4c0-0.5,0.2-1.1,0.6-1.4C628.1,22.4,628.6,22.1,629.2,22.1z M615,22.1
	c0.5,0,1.1,0.2,1.4,0.6c0.4,0.4,0.6,0.9,0.6,1.4c0,0.5-0.2,1.1-0.6,1.4c-0.4,0.4-0.9,0.6-1.4,0.6c-0.5,0-1.1-0.2-1.4-0.6
	c-0.4-0.4-0.6-0.9-0.6-1.4c0-0.5,0.2-1.1,0.6-1.4C613.9,22.4,614.4,22.1,615,22.1z M615,14.1c0.5,0,1,0.2,1.3,0.5
	c0.3,0.3,0.5,0.8,0.5,1.3c0,0.5-0.2,1-0.5,1.3c-0.3,0.3-0.8,0.5-1.3,0.5c-0.5,0-1-0.2-1.3-0.5c-0.3-0.3-0.5-0.8-0.5-1.3
	c0-0.5,0.2-1,0.5-1.3C614,14.3,614.5,14.1,615,14.1z M615,6.1c0.4,0,0.9,0.2,1.2,0.5c0.3,0.3,0.5,0.7,0.5,1.2c0,0.4-0.2,0.9-0.5,1.2
	c-0.3,0.3-0.7,0.5-1.2,0.5c-0.4,0-0.9-0.2-1.2-0.5c-0.3-0.3-0.5-0.7-0.5-1.2c0-0.4,0.2-0.9,0.5-1.2C614.1,6.2,614.5,6.1,615,6.1z
	 M581,106.3c0,1-0.4,2-1.1,2.6c-0.7,0.7-1.6,1.1-2.6,1.1s-2-0.4-2.6-1.1c-0.7-0.7-1.1-1.6-1.1-2.6c0-2.1,1.7-3.7,3.7-3.7
	C579.4,102.5,581,104.2,581,106.3z M577.3,94.5c1,0,1.9,0.4,2.5,1c0.6,0.6,1,1.5,1,2.5c0,1-0.4,1.9-1,2.5c-0.6,0.6-1.5,1-2.5,1
	c-1,0-1.9-0.4-2.5-1c-0.6-0.6-1-1.5-1-2.5c0-1,0.4-1.9,1-2.5C575.4,94.9,576.3,94.5,577.3,94.5z M577.3,86.4c0.9,0,1.8,0.4,2.4,1
	c0.6,0.6,1,1.5,1,2.4s-0.4,1.8-1,2.4c-0.6,0.6-1.5,1-2.4,1s-1.8-0.4-2.4-1c-0.6-0.6-1-1.5-1-2.4s0.4-1.8,1-2.4
	C575.5,86.8,576.4,86.4,577.3,86.4z M577.3,78.4c0.9,0,1.7,0.4,2.3,0.9c0.6,0.6,0.9,1.4,0.9,2.3c0,0.9-0.4,1.7-0.9,2.3
	c-0.6,0.6-1.4,0.9-2.3,0.9c-0.9,0-1.7-0.4-2.3-0.9c-0.6-0.6-0.9-1.4-0.9-2.3c0-0.9,0.4-1.7,0.9-2.3
	C575.6,78.8,576.4,78.4,577.3,78.4z M577.3,70.4c0.8,0,1.6,0.3,2.2,0.9c0.6,0.6,0.9,1.3,0.9,2.2c0,0.8-0.3,1.6-0.9,2.2
	c-0.6,0.6-1.3,0.9-2.2,0.9c-0.8,0-1.6-0.3-2.2-0.9c-0.6-0.6-0.9-1.3-0.9-2.2c0-0.8,0.3-1.6,0.9-2.2
	C575.7,70.7,576.5,70.4,577.3,70.4z M577.3,62.3c0.8,0,1.5,0.3,2,0.8c0.5,0.5,0.8,1.2,0.8,2c0,0.8-0.3,1.5-0.8,2
	c-0.5,0.5-1.2,0.8-2,0.8s-1.5-0.3-2-0.8c-0.5-0.5-0.8-1.2-0.8-2c0-0.8,0.3-1.5,0.8-2C575.8,62.6,576.5,62.3,577.3,62.3z M568,106.3
	c0,1-0.4,2-1.1,2.6c-0.7,0.7-1.6,1.1-2.6,1.1c-1,0-2-0.4-2.6-1.1c-0.7-0.7-1.1-1.6-1.1-2.6c0-2.1,1.7-3.7,3.7-3.7
	C566.3,102.5,568,104.2,568,106.3z M564.2,94.5c1,0,1.9,0.4,2.5,1c0.6,0.6,1,1.5,1,2.5c0,1-0.4,1.9-1,2.5c-0.6,0.6-1.5,1-2.5,1
	c-1,0-1.9-0.4-2.5-1c-0.6-0.6-1-1.5-1-2.5c0-1,0.4-1.9,1-2.5C562.4,94.9,563.2,94.5,564.2,94.5z M564.2,86.4c0.9,0,1.8,0.4,2.4,1
	c0.6,0.6,1,1.5,1,2.4s-0.4,1.8-1,2.4c-0.6,0.6-1.5,1-2.4,1c-0.9,0-1.8-0.4-2.4-1c-0.6-0.6-1-1.5-1-2.4s0.4-1.8,1-2.4
	C562.4,86.8,563.3,86.4,564.2,86.4z M564.2,78.4c0.9,0,1.7,0.4,2.3,0.9c0.6,0.6,0.9,1.4,0.9,2.3c0,0.9-0.4,1.7-0.9,2.3
	c-0.6,0.6-1.4,0.9-2.3,0.9c-0.9,0-1.7-0.4-2.3-0.9c-0.6-0.6-0.9-1.4-0.9-2.3c0-0.9,0.4-1.7,0.9-2.3
	C562.5,78.8,563.3,78.4,564.2,78.4z M564.2,70.4c0.8,0,1.6,0.3,2.2,0.9c0.6,0.6,0.9,1.3,0.9,2.2c0,0.8-0.3,1.6-0.9,2.2
	c-0.6,0.6-1.3,0.9-2.2,0.9c-0.8,0-1.6-0.3-2.2-0.9c-0.6-0.6-0.9-1.3-0.9-2.2c0-0.8,0.3-1.6,0.9-2.2
	C562.6,70.7,563.4,70.4,564.2,70.4z M564.2,62.3c0.8,0,1.5,0.3,2,0.8c0.5,0.5,0.8,1.2,0.8,2c0,0.8-0.3,1.5-0.8,2
	c-0.5,0.5-1.2,0.8-2,0.8c-0.8,0-1.5-0.3-2-0.8c-0.5-0.5-0.8-1.2-0.8-2c0-0.8,0.3-1.5,0.8-2C562.7,62.6,563.4,62.3,564.2,62.3z
	 M564.2,54.3c0.7,0,1.4,0.3,1.9,0.8c0.5,0.5,0.8,1.2,0.8,1.9c0,0.7-0.3,1.4-0.8,1.9c-0.5,0.5-1.2,0.8-1.9,0.8
	c-0.7,0-1.4-0.3-1.9-0.8c-0.5-0.5-0.8-1.2-0.8-1.9c0-0.7,0.3-1.4,0.8-1.9C562.8,54.6,563.5,54.3,564.2,54.3z M564.2,46.3
	c0.7,0,1.3,0.3,1.8,0.7c0.5,0.5,0.7,1.1,0.7,1.8c0,0.7-0.3,1.3-0.7,1.8c-0.5,0.5-1.1,0.7-1.8,0.7c-0.7,0-1.3-0.3-1.8-0.7
	c-0.5-0.5-0.7-1.1-0.7-1.8c0-0.7,0.3-1.3,0.7-1.8C562.9,46.5,563.5,46.3,564.2,46.3z M577.1,46.3c0.7,0,1.3,0.3,1.8,0.7
	c0.5,0.5,0.7,1.1,0.7,1.8c0,0.7-0.3,1.3-0.7,1.8c-0.5,0.5-1.1,0.7-1.8,0.7c-0.7,0-1.3-0.3-1.8-0.7c-0.5-0.5-0.7-1.1-0.7-1.8
	c0-0.7,0.3-1.3,0.7-1.8C575.7,46.5,576.4,46.3,577.1,46.3z M577.1,38.2c0.6,0,1.2,0.3,1.7,0.7c0.4,0.4,0.7,1,0.7,1.7
	c0,0.6-0.3,1.2-0.7,1.7c-0.4,0.4-1,0.7-1.7,0.7c-0.6,0-1.2-0.3-1.7-0.7c-0.4-0.4-0.7-1-0.7-1.7c0-0.6,0.3-1.2,0.7-1.7
	C575.8,38.5,576.4,38.2,577.1,38.2z M555.8,106.3c0,1-0.4,2-1.1,2.6c-0.7,0.7-1.6,1.1-2.6,1.1c-1,0-2-0.4-2.6-1.1
	c-0.7-0.7-1.1-1.6-1.1-2.6c0-2.1,1.7-3.7,3.7-3.7C554.1,102.5,555.8,104.2,555.8,106.3z M552,94.5c1,0,1.9,0.4,2.5,1
	c0.6,0.6,1,1.5,1,2.5c0,1-0.4,1.9-1,2.5c-0.6,0.6-1.5,1-2.5,1c-1,0-1.9-0.4-2.5-1c-0.6-0.6-1-1.5-1-2.5c0-1,0.4-1.9,1-2.5
	C550.2,94.9,551.1,94.5,552,94.5z M552,86.4c0.9,0,1.8,0.4,2.4,1c0.6,0.6,1,1.5,1,2.4s-0.4,1.8-1,2.4c-0.6,0.6-1.5,1-2.4,1
	c-0.9,0-1.8-0.4-2.4-1c-0.6-0.6-1-1.5-1-2.4s0.4-1.8,1-2.4C550.3,86.8,551.1,86.4,552,86.4z M552,78.4c0.9,0,1.7,0.4,2.3,0.9
	c0.6,0.6,0.9,1.4,0.9,2.3c0,0.9-0.4,1.7-0.9,2.3c-0.6,0.6-1.4,0.9-2.3,0.9c-0.9,0-1.7-0.4-2.3-0.9c-0.6-0.6-0.9-1.4-0.9-2.3
	c0-0.9,0.4-1.7,0.9-2.3C550.4,78.8,551.2,78.4,552,78.4z M552,70.4c0.8,0,1.6,0.3,2.2,0.9c0.6,0.6,0.9,1.3,0.9,2.2
	c0,0.8-0.3,1.6-0.9,2.2c-0.6,0.6-1.3,0.9-2.2,0.9c-0.8,0-1.6-0.3-2.2-0.9c-0.6-0.6-0.9-1.3-0.9-2.2c0-0.8,0.3-1.6,0.9-2.2
	C550.4,70.7,551.2,70.4,552,70.4z M707.5,106.3c0,1-0.4,2-1.1,2.6c-0.7,0.7-1.6,1.1-2.6,1.1c-1,0-2-0.4-2.6-1.1
	c-0.7-0.7-1.1-1.6-1.1-2.6c0-2.1,1.7-3.7,3.7-3.7C705.8,102.5,707.5,104.2,707.5,106.3z M703.7,94.5c1,0,1.9,0.4,2.5,1
	c0.6,0.6,1,1.5,1,2.5c0,1-0.4,1.9-1,2.5c-0.6,0.6-1.5,1-2.5,1c-1,0-1.9-0.4-2.5-1c-0.6-0.6-1-1.5-1-2.5c0-1,0.4-1.9,1-2.5
	C701.9,94.9,702.8,94.5,703.7,94.5z M703.7,86.4c0.9,0,1.8,0.4,2.4,1c0.6,0.6,1,1.5,1,2.4s-0.4,1.8-1,2.4c-0.6,0.6-1.5,1-2.4,1
	s-1.8-0.4-2.4-1c-0.6-0.6-1-1.5-1-2.4s0.4-1.8,1-2.4C702,86.8,702.8,86.4,703.7,86.4z M703.7,78.4c0.9,0,1.7,0.4,2.3,0.9
	c0.6,0.6,0.9,1.4,0.9,2.3c0,0.9-0.4,1.7-0.9,2.3c-0.6,0.6-1.4,0.9-2.3,0.9c-0.9,0-1.7-0.4-2.3-0.9c-0.6-0.6-0.9-1.4-0.9-2.3
	c0-0.9,0.4-1.7,0.9-2.3C702,78.8,702.9,78.4,703.7,78.4z M717,78.4c0.9,0,1.7,0.4,2.3,0.9c0.6,0.6,0.9,1.4,0.9,2.3
	c0,0.9-0.4,1.7-0.9,2.3c-0.6,0.6-1.4,0.9-2.3,0.9c-0.9,0-1.7-0.4-2.3-0.9c-0.6-0.6-0.9-1.4-0.9-2.3c0-0.9,0.4-1.7,0.9-2.3
	C715.4,78.8,716.2,78.4,717,78.4z M730.4,78.4c0.9,0,1.7,0.4,2.3,0.9c0.6,0.6,0.9,1.4,0.9,2.3c0,0.9-0.4,1.7-0.9,2.3
	c-0.6,0.6-1.4,0.9-2.3,0.9c-0.9,0-1.7-0.4-2.3-0.9c-0.6-0.6-0.9-1.4-0.9-2.3c0-0.9,0.4-1.7,0.9-2.3
	C728.7,78.8,729.5,78.4,730.4,78.4z M703.7,62.3c0.8,0,1.5,0.3,2,0.8c0.5,0.5,0.8,1.2,0.8,2c0,0.8-0.3,1.5-0.8,2
	c-0.5,0.5-1.2,0.8-2,0.8c-0.8,0-1.5-0.3-2-0.8c-0.5-0.5-0.8-1.2-0.8-2c0-0.8,0.3-1.5,0.8-2C702.2,62.6,703,62.3,703.7,62.3z
	 M746.7,106.3c0,1-0.4,2-1.1,2.6c-0.7,0.7-1.6,1.1-2.6,1.1c-1,0-2-0.4-2.6-1.1c-0.7-0.7-1.1-1.6-1.1-2.6c0-2.1,1.7-3.7,3.7-3.7
	C745,102.5,746.7,104.2,746.7,106.3z M743,94.5c1,0,1.9,0.4,2.5,1c0.6,0.6,1,1.5,1,2.5c0,1-0.4,1.9-1,2.5c-0.6,0.6-1.5,1-2.5,1
	c-1,0-1.9-0.4-2.5-1c-0.6-0.6-1-1.5-1-2.5c0-1,0.4-1.9,1-2.5C741.1,94.9,742,94.5,743,94.5z M694.4,106.3c0,1-0.4,2-1.1,2.6
	c-0.7,0.7-1.6,1.1-2.6,1.1c-1,0-2-0.4-2.6-1.1c-0.7-0.7-1.1-1.6-1.1-2.6c0-2.1,1.7-3.7,3.7-3.7C692.7,102.5,694.4,104.2,694.4,106.3
	z M690.7,94.5c1,0,1.9,0.4,2.5,1c0.6,0.6,1,1.5,1,2.5c0,1-0.4,1.9-1,2.5c-0.6,0.6-1.5,1-2.5,1c-1,0-1.9-0.4-2.5-1
	c-0.6-0.6-1-1.5-1-2.5c0-1,0.4-1.9,1-2.5C688.8,94.9,689.7,94.5,690.7,94.5z M690.7,86.4c0.9,0,1.8,0.4,2.4,1c0.6,0.6,1,1.5,1,2.4
	s-0.4,1.8-1,2.4c-0.6,0.6-1.5,1-2.4,1c-0.9,0-1.8-0.4-2.4-1c-0.6-0.6-1-1.5-1-2.4s0.4-1.8,1-2.4C688.9,86.8,689.7,86.4,690.7,86.4z
	 M690.7,78.4c0.9,0,1.7,0.4,2.3,0.9c0.6,0.6,0.9,1.4,0.9,2.3c0,0.9-0.4,1.7-0.9,2.3c-0.6,0.6-1.4,0.9-2.3,0.9
	c-0.9,0-1.7-0.4-2.3-0.9c-0.6-0.6-0.9-1.4-0.9-2.3c0-0.9,0.4-1.7,0.9-2.3C689,78.8,689.8,78.4,690.7,78.4z M690.7,70.4
	c0.8,0,1.6,0.3,2.2,0.9c0.6,0.6,0.9,1.3,0.9,2.2c0,0.8-0.3,1.6-0.9,2.2c-0.6,0.6-1.3,0.9-2.2,0.9c-0.8,0-1.6-0.3-2.2-0.9
	c-0.6-0.6-0.9-1.3-0.9-2.2c0-0.8,0.3-1.6,0.9-2.2C689.1,70.7,689.8,70.4,690.7,70.4z M690.7,62.3c0.8,0,1.5,0.3,2,0.8
	c0.5,0.5,0.8,1.2,0.8,2c0,0.8-0.3,1.5-0.8,2c-0.5,0.5-1.2,0.8-2,0.8c-0.8,0-1.5-0.3-2-0.8c-0.5-0.5-0.8-1.2-0.8-2
	c0-0.8,0.3-1.5,0.8-2C689.2,62.6,689.9,62.3,690.7,62.3z M690.7,54.3c0.7,0,1.4,0.3,1.9,0.8c0.5,0.5,0.8,1.2,0.8,1.9
	c0,0.7-0.3,1.4-0.8,1.9c-0.5,0.5-1.2,0.8-1.9,0.8c-0.7,0-1.4-0.3-1.9-0.8c-0.5-0.5-0.8-1.2-0.8-1.9c0-0.7,0.3-1.4,0.8-1.9
	C689.3,54.6,689.9,54.3,690.7,54.3z M704,54.3c0.7,0,1.4,0.3,1.9,0.8c0.5,0.5,0.8,1.2,0.8,1.9c0,0.7-0.3,1.4-0.8,1.9
	c-0.5,0.5-1.2,0.8-1.9,0.8c-0.7,0-1.4-0.3-1.9-0.8c-0.5-0.5-0.8-1.2-0.8-1.9c0-0.7,0.3-1.4,0.8-1.9C702.6,54.6,703.2,54.3,704,54.3z
	 M690.7,46.3c0.7,0,1.3,0.3,1.8,0.7c0.5,0.5,0.7,1.1,0.7,1.8c0,0.7-0.3,1.3-0.7,1.8c-0.5,0.5-1.1,0.7-1.8,0.7
	c-0.7,0-1.3-0.3-1.8-0.7c-0.5-0.5-0.7-1.1-0.7-1.8c0-0.7,0.3-1.3,0.7-1.8C689.3,46.5,690,46.3,690.7,46.3z M690.7,38.2
	c0.6,0,1.2,0.3,1.7,0.7c0.4,0.4,0.7,1,0.7,1.7c0,0.6-0.3,1.2-0.7,1.7c-0.4,0.4-1,0.7-1.7,0.7c-0.6,0-1.2-0.3-1.7-0.7
	c-0.4-0.4-0.7-1-0.7-1.7c0-0.6,0.3-1.2,0.7-1.7C689.4,38.5,690,38.2,690.7,38.2z M720.6,106.3c0,1-0.4,2-1.1,2.6
	c-0.7,0.7-1.6,1.1-2.6,1.1s-2-0.4-2.6-1.1c-0.7-0.7-1.1-1.6-1.1-2.6c0-2.1,1.7-3.7,3.7-3.7C718.9,102.5,720.6,104.2,720.6,106.3z
	 M716.8,94.5c1,0,1.9,0.4,2.5,1c0.6,0.6,1,1.5,1,2.5c0,1-0.4,1.9-1,2.5c-0.6,0.6-1.5,1-2.5,1c-1,0-1.9-0.4-2.5-1
	c-0.6-0.6-1-1.5-1-2.5c0-1,0.4-1.9,1-2.5C714.9,94.9,715.8,94.5,716.8,94.5z M716.8,86.4c0.9,0,1.8,0.4,2.4,1s1,1.5,1,2.4
	s-0.4,1.8-1,2.4c-0.6,0.6-1.5,1-2.4,1c-0.9,0-1.8-0.4-2.4-1c-0.6-0.6-1-1.5-1-2.4s0.4-1.8,1-2.4C715,86.8,715.9,86.4,716.8,86.4z
	 M743.4,86.4c0.9,0,1.8,0.4,2.4,1c0.6,0.6,1,1.5,1,2.4s-0.4,1.8-1,2.4c-0.6,0.6-1.5,1-2.4,1c-0.9,0-1.8-0.4-2.4-1
	c-0.6-0.6-1-1.5-1-2.4s0.4-1.8,1-2.4C741.6,86.8,742.5,86.4,743.4,86.4z M681.4,106.3c0,1-0.4,2-1.1,2.6c-0.7,0.7-1.6,1.1-2.6,1.1
	c-1,0-2-0.4-2.6-1.1c-0.7-0.7-1.1-1.6-1.1-2.6c0-2.1,1.7-3.7,3.7-3.7C679.7,102.5,681.4,104.2,681.4,106.3z M677.6,86.4
	c0.9,0,1.8,0.4,2.4,1s1,1.5,1,2.4s-0.4,1.8-1,2.4c-0.6,0.6-1.5,1-2.4,1c-0.9,0-1.8-0.4-2.4-1c-0.6-0.6-1-1.5-1-2.4s0.4-1.8,1-2.4
	C675.8,86.8,676.7,86.4,677.6,86.4z M677.6,78.4c0.9,0,1.7,0.4,2.3,0.9c0.6,0.6,0.9,1.4,0.9,2.3c0,0.9-0.4,1.7-0.9,2.3
	c-0.6,0.6-1.4,0.9-2.3,0.9c-0.9,0-1.7-0.4-2.3-0.9c-0.6-0.6-0.9-1.4-0.9-2.3c0-0.9,0.4-1.7,0.9-2.3
	C675.9,78.8,676.7,78.4,677.6,78.4z M677.6,70.4c0.8,0,1.6,0.3,2.2,0.9c0.6,0.6,0.9,1.3,0.9,2.2c0,0.8-0.3,1.6-0.9,2.2
	c-0.6,0.6-1.3,0.9-2.2,0.9c-0.8,0-1.6-0.3-2.2-0.9c-0.6-0.6-0.9-1.3-0.9-2.2c0-0.8,0.3-1.6,0.9-2.2C676,70.7,676.8,70.4,677.6,70.4z
	 M677.6,62.3c0.8,0,1.5,0.3,2,0.8c0.5,0.5,0.8,1.2,0.8,2c0,0.8-0.3,1.5-0.8,2c-0.5,0.5-1.2,0.8-2,0.8c-0.8,0-1.5-0.3-2-0.8
	c-0.5-0.5-0.8-1.2-0.8-2c0-0.8,0.3-1.5,0.8-2C676.1,62.6,676.8,62.3,677.6,62.3z M677.6,54.3c0.7,0,1.4,0.3,1.9,0.8
	c0.5,0.5,0.8,1.2,0.8,1.9c0,0.7-0.3,1.4-0.8,1.9c-0.5,0.5-1.2,0.8-1.9,0.8c-0.7,0-1.4-0.3-1.9-0.8c-0.5-0.5-0.8-1.2-0.8-1.9
	c0-0.7,0.3-1.4,0.8-1.9C676.2,54.6,676.9,54.3,677.6,54.3z M677.6,46.3c0.7,0,1.3,0.3,1.8,0.7c0.5,0.5,0.7,1.1,0.7,1.8
	c0,0.7-0.3,1.3-0.7,1.8c-0.5,0.5-1.1,0.7-1.8,0.7c-0.7,0-1.3-0.3-1.8-0.7c-0.5-0.5-0.7-1.1-0.7-1.8c0-0.7,0.3-1.3,0.7-1.8
	C676.3,46.5,676.9,46.3,677.6,46.3z M666.1,62.3c0.8,0,1.5,0.3,2,0.8c0.5,0.5,0.8,1.2,0.8,2c0,0.8-0.3,1.5-0.8,2
	c-0.5,0.5-1.2,0.8-2,0.8c-0.8,0-1.5-0.3-2-0.8c-0.5-0.5-0.8-1.2-0.8-2c0-0.8,0.3-1.5,0.8-2C664.6,62.6,665.3,62.3,666.1,62.3z
	 M666.1,54.3c0.7,0,1.4,0.3,1.9,0.8c0.5,0.5,0.8,1.2,0.8,1.9c0,0.7-0.3,1.4-0.8,1.9c-0.5,0.5-1.2,0.8-1.9,0.8
	c-0.7,0-1.4-0.3-1.9-0.8c-0.5-0.5-0.8-1.2-0.8-1.9c0-0.7,0.3-1.4,0.8-1.9C664.7,54.6,665.3,54.3,666.1,54.3z M666.1,46.3
	c0.7,0,1.3,0.3,1.8,0.7c0.5,0.5,0.7,1.1,0.7,1.8c0,0.7-0.3,1.3-0.7,1.8c-0.5,0.5-1.1,0.7-1.8,0.7c-0.7,0-1.3-0.3-1.8-0.7
	c-0.5-0.5-0.7-1.1-0.7-1.8c0-0.7,0.3-1.3,0.7-1.8C664.7,46.5,665.4,46.3,666.1,46.3z M666.1,38.2c0.6,0,1.2,0.3,1.7,0.7
	s0.7,1,0.7,1.7c0,0.6-0.3,1.2-0.7,1.7c-0.4,0.4-1,0.7-1.7,0.7c-0.6,0-1.2-0.3-1.7-0.7c-0.4-0.4-0.7-1-0.7-1.7c0-0.6,0.3-1.2,0.7-1.7
	C664.8,38.5,665.4,38.2,666.1,38.2z M666.1,30.2c0.6,0,1.1,0.2,1.6,0.6c0.4,0.4,0.6,1,0.6,1.6c0,0.6-0.2,1.1-0.6,1.6
	c-0.4,0.4-1,0.6-1.6,0.6c-0.6,0-1.1-0.2-1.6-0.6c-0.4-0.4-0.6-1-0.6-1.6c0-0.6,0.2-1.1,0.6-1.6C664.9,30.4,665.5,30.2,666.1,30.2z
	 M733.6,106.3c0,1-0.4,2-1.1,2.6c-0.7,0.7-1.6,1.1-2.6,1.1c-1,0-2-0.4-2.6-1.1c-0.7-0.7-1.1-1.6-1.1-2.6c0-2.1,1.7-3.7,3.7-3.7
	C731.9,102.5,733.6,104.2,733.6,106.3z M729.9,94.5c1,0,1.9,0.4,2.5,1c0.6,0.6,1,1.5,1,2.5c0,1-0.4,1.9-1,2.5c-0.6,0.6-1.5,1-2.5,1
	c-1,0-1.9-0.4-2.5-1c-0.6-0.6-1-1.5-1-2.5c0-1,0.4-1.9,1-2.5C728,94.9,728.9,94.5,729.9,94.5z M729.9,86.4c0.9,0,1.8,0.4,2.4,1
	s1,1.5,1,2.4s-0.4,1.8-1,2.4c-0.6,0.6-1.5,1-2.4,1c-0.9,0-1.8-0.4-2.4-1c-0.6-0.6-1-1.5-1-2.4s0.4-1.8,1-2.4
	C728.1,86.8,728.9,86.4,729.9,86.4z M729.9,70.4c0.8,0,1.6,0.3,2.2,0.9c0.6,0.6,0.9,1.3,0.9,2.2c0,0.8-0.3,1.6-0.9,2.2
	c-0.6,0.6-1.3,0.9-2.2,0.9c-0.8,0-1.6-0.3-2.2-0.9c-0.6-0.6-0.9-1.3-0.9-2.2c0-0.8,0.3-1.6,0.9-2.2C728.3,70.7,729,70.4,729.9,70.4z
	 M729.9,62.3c0.8,0,1.5,0.3,2,0.8c0.5,0.5,0.8,1.2,0.8,2c0,0.8-0.3,1.5-0.8,2c-0.5,0.5-1.2,0.8-2,0.8c-0.8,0-1.5-0.3-2-0.8
	c-0.5-0.5-0.8-1.2-0.8-2c0-0.8,0.3-1.5,0.8-2C728.4,62.6,729.1,62.3,729.9,62.3z M669.6,106.3c0,1-0.4,2-1.1,2.6
	c-0.7,0.7-1.6,1.1-2.6,1.1c-1,0-2-0.4-2.6-1.1c-0.7-0.7-1.1-1.6-1.1-2.6c0-2.1,1.7-3.7,3.7-3.7C667.9,102.5,669.6,104.2,669.6,106.3
	z M665.8,94.5c1,0,1.9,0.4,2.5,1c0.6,0.6,1,1.5,1,2.5c0,1-0.4,1.9-1,2.5c-0.6,0.6-1.5,1-2.5,1c-1,0-1.9-0.4-2.5-1
	c-0.6-0.6-1-1.5-1-2.5c0-1,0.4-1.9,1-2.5C664,94.9,664.9,94.5,665.8,94.5z M677.4,94.5c1,0,1.9,0.4,2.5,1c0.6,0.6,1,1.5,1,2.5
	c0,1-0.4,1.9-1,2.5c-0.6,0.6-1.5,1-2.5,1c-1,0-1.9-0.4-2.5-1c-0.6-0.6-1-1.5-1-2.5c0-1,0.4-1.9,1-2.5
	C675.5,94.9,676.4,94.5,677.4,94.5z M665.8,86.4c0.9,0,1.8,0.4,2.4,1s1,1.5,1,2.4s-0.4,1.8-1,2.4c-0.6,0.6-1.5,1-2.4,1
	c-0.9,0-1.8-0.4-2.4-1c-0.6-0.6-1-1.5-1-2.4s0.4-1.8,1-2.4C664,86.8,664.9,86.4,665.8,86.4z M665.8,78.4c0.9,0,1.7,0.4,2.3,0.9
	c0.6,0.6,0.9,1.4,0.9,2.3c0,0.9-0.4,1.7-0.9,2.3c-0.6,0.6-1.4,0.9-2.3,0.9c-0.9,0-1.7-0.4-2.3-0.9c-0.6-0.6-0.9-1.4-0.9-2.3
	c0-0.9,0.4-1.7,0.9-2.3C664.1,78.8,664.9,78.4,665.8,78.4z M475.7,102.5c2.1,0,3.7,1.7,3.7,3.7c0,1-0.4,2-1.1,2.6
	c-0.7,0.7-1.6,1.1-2.6,1.1c-1,0-2-0.4-2.6-1.1c-0.7-0.7-1.1-1.6-1.1-2.6C472,104.2,473.7,102.5,475.7,102.5z M478.3,95.5
	c0.6,0.6,1,1.5,1,2.5c0,1-0.4,1.9-1,2.5c-0.6,0.6-1.5,1-2.5,1c-1,0-1.9-0.4-2.5-1c-0.6-0.6-1-1.5-1-2.5c0-1,0.4-1.9,1-2.5
	c0.6-0.6,1.5-1,2.5-1C476.7,94.5,477.6,94.9,478.3,95.5z M478.2,87.4c0.6,0.6,1,1.5,1,2.4s-0.4,1.8-1,2.4c-0.6,0.6-1.5,1-2.4,1
	c-0.9,0-1.8-0.4-2.4-1c-0.6-0.6-1-1.5-1-2.4s0.4-1.8,1-2.4c0.6-0.6,1.5-1,2.4-1C476.7,86.4,477.5,86.8,478.2,87.4z M478,79.3
	c0.6,0.6,0.9,1.4,0.9,2.3c0,0.9-0.4,1.7-0.9,2.3c-0.6,0.6-1.4,0.9-2.3,0.9c-0.9,0-1.7-0.4-2.3-0.9c-0.6-0.6-0.9-1.4-0.9-2.3
	c0-0.9,0.4-1.7,0.9-2.3c0.6-0.6,1.4-0.9,2.3-0.9C476.6,78.4,477.4,78.8,478,79.3z M477.9,71.3c0.6,0.6,0.9,1.3,0.9,2.2
	c0,0.8-0.3,1.6-0.9,2.2c-0.6,0.6-1.3,0.9-2.2,0.9c-0.8,0-1.6-0.3-2.2-0.9c-0.6-0.6-0.9-1.3-0.9-2.2c0-0.8,0.3-1.6,0.9-2.2
	c0.6-0.6,1.3-0.9,2.2-0.9C476.6,70.4,477.4,70.7,477.9,71.3z M477.8,63.2c0.5,0.5,0.8,1.2,0.8,2c0,0.8-0.3,1.5-0.8,2
	c-0.5,0.5-1.2,0.8-2,0.8c-0.8,0-1.5-0.3-2-0.8c-0.5-0.5-0.8-1.2-0.8-2c0-0.8,0.3-1.5,0.8-2c0.5-0.5,1.2-0.8,2-0.8
	C476.5,62.3,477.3,62.6,477.8,63.2z M436.5,102.5c2.1,0,3.7,1.7,3.7,3.7c0,1-0.4,2-1.1,2.6c-0.7,0.7-1.6,1.1-2.6,1.1
	c-1,0-2-0.4-2.6-1.1c-0.7-0.7-1.1-1.6-1.1-2.6C432.8,104.2,434.5,102.5,436.5,102.5z M439.1,95.5c0.6,0.6,1,1.5,1,2.5
	c0,1-0.4,1.9-1,2.5c-0.6,0.6-1.5,1-2.5,1c-1,0-1.9-0.4-2.5-1c-0.6-0.6-1-1.5-1-2.5c0-1,0.4-1.9,1-2.5c0.6-0.6,1.5-1,2.5-1
	C437.5,94.5,438.4,94.9,439.1,95.5z M438.9,87.4c0.6,0.6,1,1.5,1,2.4s-0.4,1.8-1,2.4c-0.6,0.6-1.5,1-2.4,1c-0.9,0-1.8-0.4-2.4-1
	c-0.6-0.6-1-1.5-1-2.4s0.4-1.8,1-2.4s1.5-1,2.4-1C437.5,86.4,438.3,86.8,438.9,87.4z M438.8,79.3c0.6,0.6,0.9,1.4,0.9,2.3
	c0,0.9-0.4,1.7-0.9,2.3c-0.6,0.6-1.4,0.9-2.3,0.9c-0.9,0-1.7-0.4-2.3-0.9c-0.6-0.6-0.9-1.4-0.9-2.3c0-0.9,0.4-1.7,0.9-2.3
	c0.6-0.6,1.4-0.9,2.3-0.9C437.4,78.4,438.2,78.8,438.8,79.3z M438.7,71.3c0.6,0.6,0.9,1.3,0.9,2.2c0,0.8-0.3,1.6-0.9,2.2
	c-0.6,0.6-1.3,0.9-2.2,0.9c-0.8,0-1.6-0.3-2.2-0.9c-0.6-0.6-0.9-1.3-0.9-2.2c0-0.8,0.3-1.6,0.9-2.2c0.6-0.6,1.3-0.9,2.2-0.9
	C437.4,70.4,438.1,70.7,438.7,71.3z M438.6,63.2c0.5,0.5,0.8,1.2,0.8,2c0,0.8-0.3,1.5-0.8,2c-0.5,0.5-1.2,0.8-2,0.8
	c-0.8,0-1.5-0.3-2-0.8c-0.5-0.5-0.8-1.2-0.8-2c0-0.8,0.3-1.5,0.8-2c0.5-0.5,1.2-0.8,2-0.8C437.3,62.3,438.1,62.6,438.6,63.2z
	 M438.5,55.1c0.5,0.5,0.8,1.2,0.8,1.9c0,0.7-0.3,1.4-0.8,1.9c-0.5,0.5-1.2,0.8-1.9,0.8c-0.7,0-1.4-0.3-1.9-0.8
	c-0.5-0.5-0.8-1.2-0.8-1.9c0-0.7,0.3-1.4,0.8-1.9c0.5-0.5,1.2-0.8,1.9-0.8C437.3,54.3,438,54.6,438.5,55.1z M488.8,102.5
	c2.1,0,3.7,1.7,3.7,3.7c0,1-0.4,2-1.1,2.6c-0.7,0.7-1.6,1.1-2.6,1.1c-1,0-2-0.4-2.6-1.1c-0.7-0.7-1.1-1.6-1.1-2.6
	C485.1,104.2,486.7,102.5,488.8,102.5z M491.3,95.5c0.6,0.6,1,1.5,1,2.5c0,1-0.4,1.9-1,2.5c-0.6,0.6-1.5,1-2.5,1c-1,0-1.9-0.4-2.5-1
	c-0.6-0.6-1-1.5-1-2.5c0-1,0.4-1.9,1-2.5c0.6-0.6,1.5-1,2.5-1C489.8,94.5,490.7,94.9,491.3,95.5z M491.2,87.4c0.6,0.6,1,1.5,1,2.4
	s-0.4,1.8-1,2.4c-0.6,0.6-1.5,1-2.4,1c-0.9,0-1.8-0.4-2.4-1c-0.6-0.6-1-1.5-1-2.4s0.4-1.8,1-2.4c0.6-0.6,1.5-1,2.4-1
	C489.8,86.4,490.6,86.8,491.2,87.4z M491.1,79.3c0.6,0.6,0.9,1.4,0.9,2.3c0,0.9-0.4,1.7-0.9,2.3c-0.6,0.6-1.4,0.9-2.3,0.9
	c-0.9,0-1.7-0.4-2.3-0.9c-0.6-0.6-0.9-1.4-0.9-2.3c0-0.9,0.4-1.7,0.9-2.3c0.6-0.6,1.4-0.9,2.3-0.9C489.7,78.4,490.5,78.8,491.1,79.3
	z M491,71.3c0.6,0.6,0.9,1.3,0.9,2.2c0,0.8-0.3,1.6-0.9,2.2c-0.6,0.6-1.3,0.9-2.2,0.9c-0.8,0-1.6-0.3-2.2-0.9
	c-0.6-0.6-0.9-1.3-0.9-2.2c0-0.8,0.3-1.6,0.9-2.2c0.6-0.6,1.3-0.9,2.2-0.9C489.7,70.4,490.4,70.7,491,71.3z M490.9,63.2
	c0.5,0.5,0.8,1.2,0.8,2c0,0.8-0.3,1.5-0.8,2c-0.5,0.5-1.2,0.8-2,0.8c-0.8,0-1.5-0.3-2-0.8c-0.5-0.5-0.8-1.2-0.8-2
	c0-0.8,0.3-1.5,0.8-2c0.5-0.5,1.2-0.8,2-0.8C489.6,62.3,490.3,62.6,490.9,63.2z M490.7,55.1c0.5,0.5,0.8,1.2,0.8,1.9
	c0,0.7-0.3,1.4-0.8,1.9c-0.5,0.5-1.2,0.8-1.9,0.8c-0.7,0-1.4-0.3-1.9-0.8c-0.5-0.5-0.8-1.2-0.8-1.9c0-0.7,0.3-1.4,0.8-1.9
	c0.5-0.5,1.2-0.8,1.9-0.8C489.6,54.3,490.2,54.6,490.7,55.1z M490.6,47c0.5,0.5,0.7,1.1,0.7,1.8c0,0.7-0.3,1.3-0.7,1.8
	s-1.1,0.7-1.8,0.7c-0.7,0-1.3-0.3-1.8-0.7c-0.5-0.5-0.7-1.1-0.7-1.8c0-0.7,0.3-1.3,0.7-1.8c0.5-0.5,1.1-0.7,1.8-0.7
	C489.5,46.3,490.1,46.5,490.6,47z M462.7,102.5c2.1,0,3.7,1.7,3.7,3.7c0,1-0.4,2-1.1,2.6c-0.7,0.7-1.6,1.1-2.6,1.1
	c-1,0-2-0.4-2.6-1.1c-0.7-0.7-1.1-1.6-1.1-2.6C458.9,104.2,460.6,102.5,462.7,102.5z M465.2,95.5c0.6,0.6,1,1.5,1,2.5
	c0,1-0.4,1.9-1,2.5c-0.6,0.6-1.5,1-2.5,1c-1,0-1.9-0.4-2.5-1c-0.6-0.6-1-1.5-1-2.5c0-1,0.4-1.9,1-2.5c0.6-0.6,1.5-1,2.5-1
	C463.7,94.5,464.6,94.9,465.2,95.5z M465,79.3c0.6,0.6,0.9,1.4,0.9,2.3c0,0.9-0.4,1.7-0.9,2.3c-0.6,0.6-1.4,0.9-2.3,0.9
	c-0.9,0-1.7-0.4-2.3-0.9c-0.6-0.6-0.9-1.4-0.9-2.3c0-0.9,0.4-1.7,0.9-2.3c0.6-0.6,1.4-0.9,2.3-0.9C463.6,78.4,464.4,78.8,465,79.3z
	 M464.8,71.3c0.6,0.6,0.9,1.3,0.9,2.2c0,0.8-0.3,1.6-0.9,2.2c-0.6,0.6-1.3,0.9-2.2,0.9c-0.8,0-1.6-0.3-2.2-0.9
	c-0.6-0.6-0.9-1.3-0.9-2.2c0-0.8,0.3-1.6,0.9-2.2c0.6-0.6,1.3-0.9,2.2-0.9C463.5,70.4,464.3,70.7,464.8,71.3z M464.7,63.2
	c0.5,0.5,0.8,1.2,0.8,2c0,0.8-0.3,1.5-0.8,2c-0.5,0.5-1.2,0.8-2,0.8c-0.8,0-1.5-0.3-2-0.8c-0.5-0.5-0.8-1.2-0.8-2
	c0-0.8,0.3-1.5,0.8-2c0.5-0.5,1.2-0.8,2-0.8C463.5,62.3,464.2,62.6,464.7,63.2z M464.6,55.1c0.5,0.5,0.8,1.2,0.8,1.9
	c0,0.7-0.3,1.4-0.8,1.9c-0.5,0.5-1.2,0.8-1.9,0.8c-0.7,0-1.4-0.3-1.9-0.8c-0.5-0.5-0.8-1.2-0.8-1.9c0-0.7,0.3-1.4,0.8-1.9
	c0.5-0.5,1.2-0.8,1.9-0.8C463.4,54.3,464.1,54.6,464.6,55.1z M477.8,47c0.5,0.5,0.7,1.1,0.7,1.8c0,0.7-0.3,1.3-0.7,1.8
	c-0.5,0.5-1.1,0.7-1.8,0.7c-0.7,0-1.3-0.3-1.8-0.7c-0.5-0.5-0.7-1.1-0.7-1.8c0-0.7,0.3-1.3,0.7-1.8c0.5-0.5,1.1-0.7,1.8-0.7
	C476.7,46.3,477.3,46.5,477.8,47z M477.7,38.9c0.4,0.4,0.7,1,0.7,1.7c0,0.6-0.3,1.2-0.7,1.7c-0.4,0.4-1,0.7-1.7,0.7
	c-0.6,0-1.2-0.3-1.7-0.7c-0.4-0.4-0.7-1-0.7-1.7c0-0.6,0.3-1.2,0.7-1.7c0.4-0.4,1-0.7,1.7-0.7C476.6,38.2,477.2,38.5,477.7,38.9z
	 M501.9,102.5c2.1,0,3.7,1.7,3.7,3.7c0,1-0.4,2-1.1,2.6c-0.7,0.7-1.6,1.1-2.6,1.1c-1,0-2-0.4-2.6-1.1c-0.7-0.7-1.1-1.6-1.1-2.6
	C498.1,104.2,499.8,102.5,501.9,102.5z M504.4,95.5c0.6,0.6,1,1.5,1,2.5c0,1-0.4,1.9-1,2.5c-0.6,0.6-1.5,1-2.5,1c-1,0-1.9-0.4-2.5-1
	c-0.6-0.6-1-1.5-1-2.5c0-1,0.4-1.9,1-2.5c0.6-0.6,1.5-1,2.5-1C502.9,94.5,503.8,94.9,504.4,95.5z M504.3,87.4c0.6,0.6,1,1.5,1,2.4
	s-0.4,1.8-1,2.4c-0.6,0.6-1.5,1-2.4,1c-0.9,0-1.8-0.4-2.4-1c-0.6-0.6-1-1.5-1-2.4s0.4-1.8,1-2.4s1.5-1,2.4-1
	C502.8,86.4,503.7,86.8,504.3,87.4z M504.2,79.3c0.6,0.6,0.9,1.4,0.9,2.3c0,0.9-0.4,1.7-0.9,2.3c-0.6,0.6-1.4,0.9-2.3,0.9
	c-0.9,0-1.7-0.4-2.3-0.9c-0.6-0.6-0.9-1.4-0.9-2.3c0-0.9,0.4-1.7,0.9-2.3c0.6-0.6,1.4-0.9,2.3-0.9C502.8,78.4,503.6,78.8,504.2,79.3
	z M504,71.3c0.6,0.6,0.9,1.3,0.9,2.2c0,0.8-0.3,1.6-0.9,2.2c-0.6,0.6-1.3,0.9-2.2,0.9s-1.6-0.3-2.2-0.9c-0.6-0.6-0.9-1.3-0.9-2.2
	c0-0.8,0.3-1.6,0.9-2.2c0.6-0.6,1.3-0.9,2.2-0.9S503.5,70.7,504,71.3z M503.9,63.2c0.5,0.5,0.8,1.2,0.8,2c0,0.8-0.3,1.5-0.8,2
	c-0.5,0.5-1.2,0.8-2,0.8c-0.8,0-1.5-0.3-2-0.8c-0.5-0.5-0.8-1.2-0.8-2c0-0.8,0.3-1.5,0.8-2c0.5-0.5,1.2-0.8,2-0.8
	C502.7,62.3,503.4,62.6,503.9,63.2z M503.8,55.1c0.5,0.5,0.8,1.2,0.8,1.9c0,0.7-0.3,1.4-0.8,1.9c-0.5,0.5-1.2,0.8-1.9,0.8
	c-0.7,0-1.4-0.3-1.9-0.8c-0.5-0.5-0.8-1.2-0.8-1.9c0-0.7,0.3-1.4,0.8-1.9c0.5-0.5,1.2-0.8,1.9-0.8C502.6,54.3,503.3,54.6,503.8,55.1
	z M503.7,47c0.5,0.5,0.7,1.1,0.7,1.8c0,0.7-0.3,1.3-0.7,1.8c-0.5,0.5-1.1,0.7-1.8,0.7c-0.7,0-1.3-0.3-1.8-0.7
	c-0.5-0.5-0.7-1.1-0.7-1.8c0-0.7,0.3-1.3,0.7-1.8c0.5-0.5,1.1-0.7,1.8-0.7C502.6,46.3,503.2,46.5,503.7,47z M503.6,38.9
	c0.4,0.4,0.7,1,0.7,1.7c0,0.6-0.3,1.2-0.7,1.7c-0.4,0.4-1,0.7-1.7,0.7c-0.6,0-1.2-0.3-1.7-0.7c-0.4-0.4-0.7-1-0.7-1.7
	c0-0.6,0.3-1.2,0.7-1.7c0.4-0.4,1-0.7,1.7-0.7C502.5,38.2,503.1,38.5,503.6,38.9z M503.4,30.8c0.4,0.4,0.6,1,0.6,1.6
	c0,0.6-0.2,1.1-0.6,1.6c-0.4,0.4-1,0.6-1.6,0.6s-1.1-0.2-1.6-0.6c-0.4-0.4-0.6-1-0.6-1.6c0-0.6,0.2-1.1,0.6-1.6
	c0.4-0.4,1-0.6,1.6-0.6S503,30.4,503.4,30.8z M339.7,106.3c0,1-0.4,2-1.1,2.6c-0.7,0.7-1.6,1.1-2.6,1.1s-2-0.4-2.6-1.1
	c-0.7-0.7-1.1-1.6-1.1-2.6c0-2.1,1.7-3.7,3.7-3.7C338,102.5,339.7,104.2,339.7,106.3z M336,94.5c1,0,1.9,0.4,2.5,1
	c0.6,0.6,1,1.5,1,2.5c0,1-0.4,1.9-1,2.5c-0.6,0.6-1.5,1-2.5,1c-1,0-1.9-0.4-2.5-1c-0.6-0.6-1-1.5-1-2.5c0-1,0.4-1.9,1-2.5
	C334.1,94.9,335,94.5,336,94.5z M336,86.4c0.9,0,1.8,0.4,2.4,1c0.6,0.6,1,1.5,1,2.4s-0.4,1.8-1,2.4c-0.6,0.6-1.5,1-2.4,1
	c-0.9,0-1.8-0.4-2.4-1c-0.6-0.6-1-1.5-1-2.4s0.4-1.8,1-2.4C334.2,86.8,335,86.4,336,86.4z M336,70.4c0.8,0,1.6,0.3,2.2,0.9
	c0.6,0.6,0.9,1.3,0.9,2.2c0,0.8-0.3,1.6-0.9,2.2c-0.6,0.6-1.3,0.9-2.2,0.9c-0.8,0-1.6-0.3-2.2-0.9c-0.6-0.6-0.9-1.3-0.9-2.2
	c0-0.8,0.3-1.6,0.9-2.2C334.3,70.7,335.1,70.4,336,70.4z M328.1,106.3c0,1-0.4,2-1.1,2.6c-0.7,0.7-1.6,1.1-2.6,1.1
	c-1,0-2-0.4-2.6-1.1c-0.7-0.7-1.1-1.6-1.1-2.6c0-2.1,1.7-3.7,3.7-3.7C326.4,102.5,328.1,104.2,328.1,106.3z M324.3,86.4
	c0.9,0,1.8,0.4,2.4,1c0.6,0.6,1,1.5,1,2.4s-0.4,1.8-1,2.4c-0.6,0.6-1.5,1-2.4,1c-0.9,0-1.8-0.4-2.4-1c-0.6-0.6-1-1.5-1-2.4
	s0.4-1.8,1-2.4C322.5,86.8,323.4,86.4,324.3,86.4z M316.4,106.3c0,1-0.4,2-1.1,2.6c-0.7,0.7-1.6,1.1-2.6,1.1c-1,0-2-0.4-2.6-1.1
	c-0.7-0.7-1.1-1.6-1.1-2.6c0-2.1,1.7-3.7,3.7-3.7C314.7,102.5,316.4,104.2,316.4,106.3z M312.7,94.5c1,0,1.9,0.4,2.5,1
	c0.6,0.6,1,1.5,1,2.5c0,1-0.4,1.9-1,2.5c-0.6,0.6-1.5,1-2.5,1c-1,0-1.9-0.4-2.5-1c-0.6-0.6-1-1.5-1-2.5c0-1,0.4-1.9,1-2.5
	C310.8,94.9,311.7,94.5,312.7,94.5z M303.8,106.3c0,1-0.4,2-1.1,2.6c-0.7,0.7-1.6,1.1-2.6,1.1c-1,0-2-0.4-2.6-1.1
	c-0.7-0.7-1.1-1.6-1.1-2.6c0-2.1,1.7-3.7,3.7-3.7C302.1,102.5,303.8,104.2,303.8,106.3z M449.6,102.5c2.1,0,3.7,1.7,3.7,3.7
	c0,1-0.4,2-1.1,2.6c-0.7,0.7-1.6,1.1-2.6,1.1c-1,0-2-0.4-2.6-1.1c-0.7-0.7-1.1-1.6-1.1-2.6C445.9,104.2,447.5,102.5,449.6,102.5z
	 M452.1,95.5c0.6,0.6,1,1.5,1,2.5c0,1-0.4,1.9-1,2.5c-0.6,0.6-1.5,1-2.5,1c-1,0-1.9-0.4-2.5-1c-0.6-0.6-1-1.5-1-2.5
	c0-1,0.4-1.9,1-2.5c0.6-0.6,1.5-1,2.5-1C450.6,94.5,451.5,94.9,452.1,95.5z M452,87.4c0.6,0.6,1,1.5,1,2.4s-0.4,1.8-1,2.4
	c-0.6,0.6-1.5,1-2.4,1c-0.9,0-1.8-0.4-2.4-1c-0.6-0.6-1-1.5-1-2.4s0.4-1.8,1-2.4s1.5-1,2.4-1C450.5,86.4,451.4,86.8,452,87.4z
	 M465.3,87.4c0.6,0.6,1,1.5,1,2.4s-0.4,1.8-1,2.4c-0.6,0.6-1.5,1-2.4,1c-0.9,0-1.8-0.4-2.4-1c-0.6-0.6-1-1.5-1-2.4s0.4-1.8,1-2.4
	s1.5-1,2.4-1C463.9,86.4,464.7,86.8,465.3,87.4z M451.9,79.3c0.6,0.6,0.9,1.4,0.9,2.3c0,0.9-0.4,1.7-0.9,2.3
	c-0.6,0.6-1.4,0.9-2.3,0.9c-0.9,0-1.7-0.4-2.3-0.9c-0.6-0.6-0.9-1.4-0.9-2.3c0-0.9,0.4-1.7,0.9-2.3c0.6-0.6,1.4-0.9,2.3-0.9
	C450.5,78.4,451.3,78.8,451.9,79.3z M451.8,71.3c0.6,0.6,0.9,1.3,0.9,2.2c0,0.8-0.3,1.6-0.9,2.2c-0.6,0.6-1.3,0.9-2.2,0.9
	c-0.8,0-1.6-0.3-2.2-0.9c-0.6-0.6-0.9-1.3-0.9-2.2c0-0.8,0.3-1.6,0.9-2.2c0.6-0.6,1.3-0.9,2.2-0.9C450.5,70.4,451.2,70.7,451.8,71.3
	z M451.7,63.2c0.5,0.5,0.8,1.2,0.8,2c0,0.8-0.3,1.5-0.8,2c-0.5,0.5-1.2,0.8-2,0.8c-0.8,0-1.5-0.3-2-0.8c-0.5-0.5-0.8-1.2-0.8-2
	c0-0.8,0.3-1.5,0.8-2c0.5-0.5,1.2-0.8,2-0.8C450.4,62.3,451.1,62.6,451.7,63.2z M451.5,55.1c0.5,0.5,0.8,1.2,0.8,1.9
	c0,0.7-0.3,1.4-0.8,1.9c-0.5,0.5-1.2,0.8-1.9,0.8c-0.7,0-1.4-0.3-1.9-0.8c-0.5-0.5-0.8-1.2-0.8-1.9c0-0.7,0.3-1.4,0.8-1.9
	c0.5-0.5,1.2-0.8,1.9-0.8C450.4,54.3,451,54.6,451.5,55.1z M451.4,47c0.5,0.5,0.7,1.1,0.7,1.8c0,0.7-0.3,1.3-0.7,1.8
	c-0.5,0.5-1.1,0.7-1.8,0.7c-0.7,0-1.3-0.3-1.8-0.7c-0.5-0.5-0.7-1.1-0.7-1.8c0-0.7,0.3-1.3,0.7-1.8c0.5-0.5,1.1-0.7,1.8-0.7
	C450.3,46.3,450.9,46.5,451.4,47z M451.3,38.9c0.4,0.4,0.7,1,0.7,1.7c0,0.6-0.3,1.2-0.7,1.7c-0.4,0.4-1,0.7-1.7,0.7
	c-0.6,0-1.2-0.3-1.7-0.7c-0.4-0.4-0.7-1-0.7-1.7c0-0.6,0.3-1.2,0.7-1.7c0.4-0.4,1-0.7,1.7-0.7C450.3,38.2,450.9,38.5,451.3,38.9z
	 M451.2,30.8c0.4,0.4,0.6,1,0.6,1.6c0,0.6-0.2,1.1-0.6,1.6c-0.4,0.4-1,0.6-1.6,0.6c-0.6,0-1.1-0.2-1.6-0.6c-0.4-0.4-0.6-1-0.6-1.6
	c0-0.6,0.2-1.1,0.6-1.6c0.4-0.4,1-0.6,1.6-0.6C450.2,30.2,450.8,30.4,451.2,30.8z M451,22.7c0.4,0.4,0.6,0.9,0.6,1.4
	c0,0.5-0.2,1.1-0.6,1.4c-0.4,0.4-0.9,0.6-1.4,0.6c-0.5,0-1.1-0.2-1.4-0.6c-0.4-0.4-0.6-0.9-0.6-1.4c0-0.5,0.2-1.1,0.6-1.4
	c0.4-0.4,0.9-0.6,1.4-0.6C450.2,22.1,450.7,22.4,451,22.7z M438,38.9c0.4,0.4,0.7,1,0.7,1.7c0,0.6-0.3,1.2-0.7,1.7
	c-0.4,0.4-1,0.7-1.7,0.7c-0.6,0-1.2-0.3-1.7-0.7c-0.4-0.4-0.7-1-0.7-1.7c0-0.6,0.3-1.2,0.7-1.7c0.4-0.4,1-0.7,1.7-0.7
	C436.9,38.2,437.5,38.5,438,38.9z M437.9,30.8c0.4,0.4,0.6,1,0.6,1.6c0,0.6-0.2,1.1-0.6,1.6c-0.4,0.4-1,0.6-1.6,0.6
	s-1.1-0.2-1.6-0.6c-0.4-0.4-0.6-1-0.6-1.6c0-0.6,0.2-1.1,0.6-1.6c0.4-0.4,1-0.6,1.6-0.6S437.5,30.4,437.9,30.8z M437.7,22.7
	c0.4,0.4,0.6,0.9,0.6,1.4c0,0.5-0.2,1.1-0.6,1.4c-0.4,0.4-0.9,0.6-1.4,0.6c-0.5,0-1.1-0.2-1.4-0.6c-0.4-0.4-0.6-0.9-0.6-1.4
	c0-0.5,0.2-1.1,0.6-1.4c0.4-0.4,0.9-0.6,1.4-0.6C436.9,22.1,437.4,22.4,437.7,22.7z M450.9,14.6c0.3,0.3,0.5,0.8,0.5,1.3
	c0,0.5-0.2,1-0.5,1.3c-0.3,0.3-0.8,0.5-1.3,0.5c-0.5,0-1-0.2-1.3-0.5c-0.3-0.3-0.5-0.8-0.5-1.3c0-0.5,0.2-1,0.5-1.3
	c0.3-0.3,0.8-0.5,1.3-0.5C450.1,14.1,450.6,14.3,450.9,14.6z M450.8,6.6c0.3,0.3,0.5,0.7,0.5,1.2c0,0.4-0.2,0.9-0.5,1.2
	c-0.3,0.3-0.7,0.5-1.2,0.5c-0.4,0-0.9-0.2-1.2-0.5c-0.3-0.3-0.5-0.7-0.5-1.2c0-0.4,0.2-0.9,0.5-1.2c0.3-0.3,0.7-0.5,1.2-0.5
	C450.1,6.1,450.5,6.2,450.8,6.6z M463.7,38.9c0.4,0.4,0.7,1,0.7,1.7c0,0.6-0.3,1.2-0.7,1.7c-0.4,0.4-1,0.7-1.7,0.7
	c-0.6,0-1.2-0.3-1.7-0.7c-0.4-0.4-0.7-1-0.7-1.7c0-0.6,0.3-1.2,0.7-1.7c0.4-0.4,1-0.7,1.7-0.7C462.7,38.2,463.3,38.5,463.7,38.9z
	 M463.6,30.8c0.4,0.4,0.6,1,0.6,1.6c0,0.6-0.2,1.1-0.6,1.6c-0.4,0.4-1,0.6-1.6,0.6c-0.6,0-1.1-0.2-1.6-0.6c-0.4-0.4-0.6-1-0.6-1.6
	c0-0.6,0.2-1.1,0.6-1.6c0.4-0.4,1-0.6,1.6-0.6C462.6,30.2,463.2,30.4,463.6,30.8z M463.5,22.7c0.4,0.4,0.6,0.9,0.6,1.4
	c0,0.5-0.2,1.1-0.6,1.4c-0.4,0.4-0.9,0.6-1.4,0.6c-0.5,0-1.1-0.2-1.4-0.6c-0.4-0.4-0.6-0.9-0.6-1.4c0-0.5,0.2-1.1,0.6-1.4
	c0.4-0.4,0.9-0.6,1.4-0.6C462.6,22.1,463.1,22.4,463.5,22.7z M477.7,22.7c0.4,0.4,0.6,0.9,0.6,1.4c0,0.5-0.2,1.1-0.6,1.4
	c-0.4,0.4-0.9,0.6-1.4,0.6c-0.5,0-1.1-0.2-1.4-0.6c-0.4-0.4-0.6-0.9-0.6-1.4c0-0.5,0.2-1.1,0.6-1.4c0.4-0.4,0.9-0.6,1.4-0.6
	C476.8,22.1,477.3,22.4,477.7,22.7z M477.5,14.6c0.3,0.3,0.5,0.8,0.5,1.3c0,0.5-0.2,1-0.5,1.3c-0.3,0.3-0.8,0.5-1.3,0.5
	c-0.5,0-1-0.2-1.3-0.5c-0.3-0.3-0.5-0.8-0.5-1.3c0-0.5,0.2-1,0.5-1.3c0.3-0.3,0.8-0.5,1.3-0.5C476.7,14.1,477.2,14.3,477.5,14.6z
	 M477.4,6.6c0.3,0.3,0.5,0.7,0.5,1.2c0,0.4-0.2,0.9-0.5,1.2c-0.3,0.3-0.7,0.5-1.2,0.5c-0.4,0-0.9-0.2-1.2-0.5
	c-0.3-0.3-0.5-0.7-0.5-1.2c0-0.4,0.2-0.9,0.5-1.2c0.3-0.3,0.7-0.5,1.2-0.5C476.7,6.1,477.1,6.2,477.4,6.6z M513.9,102.5
	c2.1,0,3.7,1.7,3.7,3.7c0,1-0.4,2-1.1,2.6c-0.7,0.7-1.6,1.1-2.6,1.1s-2-0.4-2.6-1.1c-0.7-0.7-1.1-1.6-1.1-2.6
	C510.1,104.2,511.8,102.5,513.9,102.5z M516.4,95.5c0.6,0.6,1,1.5,1,2.5c0,1-0.4,1.9-1,2.5c-0.6,0.6-1.5,1-2.5,1c-1,0-1.9-0.4-2.5-1
	c-0.6-0.6-1-1.5-1-2.5c0-1,0.4-1.9,1-2.5c0.6-0.6,1.5-1,2.5-1C514.9,94.5,515.8,94.9,516.4,95.5z M516.3,87.4c0.6,0.6,1,1.5,1,2.4
	s-0.4,1.8-1,2.4c-0.6,0.6-1.5,1-2.4,1s-1.8-0.4-2.4-1c-0.6-0.6-1-1.5-1-2.4s0.4-1.8,1-2.4c0.6-0.6,1.5-1,2.4-1
	S515.7,86.8,516.3,87.4z M516.2,79.3c0.6,0.6,0.9,1.4,0.9,2.3c0,0.9-0.4,1.7-0.9,2.3c-0.6,0.6-1.4,0.9-2.3,0.9
	c-0.9,0-1.7-0.4-2.3-0.9c-0.6-0.6-0.9-1.4-0.9-2.3c0-0.9,0.4-1.7,0.9-2.3c0.6-0.6,1.4-0.9,2.3-0.9C514.8,78.4,515.6,78.8,516.2,79.3
	z M516.1,71.3c0.6,0.6,0.9,1.3,0.9,2.2c0,0.8-0.3,1.6-0.9,2.2c-0.6,0.6-1.3,0.9-2.2,0.9c-0.8,0-1.6-0.3-2.2-0.9
	c-0.6-0.6-0.9-1.3-0.9-2.2c0-0.8,0.3-1.6,0.9-2.2c0.6-0.6,1.3-0.9,2.2-0.9C514.7,70.4,515.5,70.7,516.1,71.3z M515.9,63.2
	c0.5,0.5,0.8,1.2,0.8,2c0,0.8-0.3,1.5-0.8,2c-0.5,0.5-1.2,0.8-2,0.8s-1.5-0.3-2-0.8c-0.5-0.5-0.8-1.2-0.8-2c0-0.8,0.3-1.5,0.8-2
	c0.5-0.5,1.2-0.8,2-0.8S515.4,62.6,515.9,63.2z M527,102.5c2.1,0,3.7,1.7,3.7,3.7c0,1-0.4,2-1.1,2.6c-0.7,0.7-1.6,1.1-2.6,1.1
	c-1,0-2-0.4-2.6-1.1c-0.7-0.7-1.1-1.6-1.1-2.6C523.2,104.2,524.9,102.5,527,102.5z M529.5,95.5c0.6,0.6,1,1.5,1,2.5
	c0,1-0.4,1.9-1,2.5c-0.6,0.6-1.5,1-2.5,1c-1,0-1.9-0.4-2.5-1c-0.6-0.6-1-1.5-1-2.5c0-1,0.4-1.9,1-2.5c0.6-0.6,1.5-1,2.5-1
	C527.9,94.5,528.8,94.9,529.5,95.5z M529.4,87.4c0.6,0.6,1,1.5,1,2.4s-0.4,1.8-1,2.4c-0.6,0.6-1.5,1-2.4,1c-0.9,0-1.8-0.4-2.4-1
	c-0.6-0.6-1-1.5-1-2.4s0.4-1.8,1-2.4c0.6-0.6,1.5-1,2.4-1C527.9,86.4,528.7,86.8,529.4,87.4z M529.2,79.3c0.6,0.6,0.9,1.4,0.9,2.3
	c0,0.9-0.4,1.7-0.9,2.3c-0.6,0.6-1.4,0.9-2.3,0.9c-0.9,0-1.7-0.4-2.3-0.9c-0.6-0.6-0.9-1.4-0.9-2.3c0-0.9,0.4-1.7,0.9-2.3
	c0.6-0.6,1.4-0.9,2.3-0.9C527.8,78.4,528.7,78.8,529.2,79.3z M529.1,71.3c0.6,0.6,0.9,1.3,0.9,2.2c0,0.8-0.3,1.6-0.9,2.2
	c-0.6,0.6-1.3,0.9-2.2,0.9c-0.8,0-1.6-0.3-2.2-0.9c-0.6-0.6-0.9-1.3-0.9-2.2c0-0.8,0.3-1.6,0.9-2.2c0.6-0.6,1.3-0.9,2.2-0.9
	C527.8,70.4,528.6,70.7,529.1,71.3z M529,63.2c0.5,0.5,0.8,1.2,0.8,2c0,0.8-0.3,1.5-0.8,2c-0.5,0.5-1.2,0.8-2,0.8
	c-0.8,0-1.5-0.3-2-0.8c-0.5-0.5-0.8-1.2-0.8-2c0-0.8,0.3-1.5,0.8-2c0.5-0.5,1.2-0.8,2-0.8C527.7,62.3,528.5,62.6,529,63.2z
	 M528.9,55.1c0.5,0.5,0.8,1.2,0.8,1.9c0,0.7-0.3,1.4-0.8,1.9c-0.5,0.5-1.2,0.8-1.9,0.8c-0.7,0-1.4-0.3-1.9-0.8
	c-0.5-0.5-0.8-1.2-0.8-1.9c0-0.7,0.3-1.4,0.8-1.9c0.5-0.5,1.2-0.8,1.9-0.8C527.7,54.3,528.4,54.6,528.9,55.1z M528.8,47
	c0.5,0.5,0.7,1.1,0.7,1.8c0,0.7-0.3,1.3-0.7,1.8c-0.5,0.5-1.1,0.7-1.8,0.7c-0.7,0-1.3-0.3-1.8-0.7c-0.5-0.5-0.7-1.1-0.7-1.8
	c0-0.7,0.3-1.3,0.7-1.8c0.5-0.5,1.1-0.7,1.8-0.7C527.7,46.3,528.3,46.5,528.8,47z M515.9,47c0.5,0.5,0.7,1.1,0.7,1.8
	c0,0.7-0.3,1.3-0.7,1.8c-0.5,0.5-1.1,0.7-1.8,0.7c-0.7,0-1.3-0.3-1.8-0.7c-0.5-0.5-0.7-1.1-0.7-1.8c0-0.7,0.3-1.3,0.7-1.8
	c0.5-0.5,1.1-0.7,1.8-0.7C514.8,46.3,515.5,46.5,515.9,47z M515.8,38.9c0.4,0.4,0.7,1,0.7,1.7c0,0.6-0.3,1.2-0.7,1.7
	c-0.4,0.4-1,0.7-1.7,0.7c-0.6,0-1.2-0.3-1.7-0.7c-0.4-0.4-0.7-1-0.7-1.7c0-0.6,0.3-1.2,0.7-1.7c0.4-0.4,1-0.7,1.7-0.7
	C514.8,38.2,515.4,38.5,515.8,38.9z M539.1,102.5c2.1,0,3.7,1.7,3.7,3.7c0,1-0.4,2-1.1,2.6c-0.7,0.7-1.6,1.1-2.6,1.1
	c-1,0-2-0.4-2.6-1.1c-0.7-0.7-1.1-1.6-1.1-2.6C535.4,104.2,537.1,102.5,539.1,102.5z M541.7,95.5c0.6,0.6,1,1.5,1,2.5
	c0,1-0.4,1.9-1,2.5c-0.6,0.6-1.5,1-2.5,1c-1,0-1.9-0.4-2.5-1c-0.6-0.6-1-1.5-1-2.5c0-1,0.4-1.9,1-2.5c0.6-0.6,1.5-1,2.5-1
	C540.1,94.5,541,94.9,541.7,95.5z M541.5,87.4c0.6,0.6,1,1.5,1,2.4s-0.4,1.8-1,2.4c-0.6,0.6-1.5,1-2.4,1c-0.9,0-1.8-0.4-2.4-1
	c-0.6-0.6-1-1.5-1-2.4s0.4-1.8,1-2.4s1.5-1,2.4-1C540.1,86.4,540.9,86.8,541.5,87.4z M541.4,79.3c0.6,0.6,0.9,1.4,0.9,2.3
	c0,0.9-0.4,1.7-0.9,2.3c-0.6,0.6-1.4,0.9-2.3,0.9c-0.9,0-1.7-0.4-2.3-0.9c-0.6-0.6-0.9-1.4-0.9-2.3c0-0.9,0.4-1.7,0.9-2.3
	c0.6-0.6,1.4-0.9,2.3-0.9C540,78.4,540.8,78.8,541.4,79.3z M541.3,71.3c0.6,0.6,0.9,1.3,0.9,2.2c0,0.8-0.3,1.6-0.9,2.2
	c-0.6,0.6-1.3,0.9-2.2,0.9c-0.8,0-1.6-0.3-2.2-0.9c-0.6-0.6-0.9-1.3-0.9-2.2c0-0.8,0.3-1.6,0.9-2.2c0.6-0.6,1.3-0.9,2.2-0.9
	C540,70.4,540.7,70.7,541.3,71.3z M387.4,102.5c2.1,0,3.7,1.7,3.7,3.7c0,1-0.4,2-1.1,2.6c-0.7,0.7-1.6,1.1-2.6,1.1
	c-1,0-2-0.4-2.6-1.1c-0.7-0.7-1.1-1.6-1.1-2.6C383.7,104.2,385.4,102.5,387.4,102.5z M390,95.5c0.6,0.6,1,1.5,1,2.5
	c0,1-0.4,1.9-1,2.5c-0.6,0.6-1.5,1-2.5,1c-1,0-1.9-0.4-2.5-1c-0.6-0.6-1-1.5-1-2.5c0-1,0.4-1.9,1-2.5c0.6-0.6,1.5-1,2.5-1
	C388.4,94.5,389.3,94.9,390,95.5z M389.8,87.4c0.6,0.6,1,1.5,1,2.4s-0.4,1.8-1,2.4c-0.6,0.6-1.5,1-2.4,1c-0.9,0-1.8-0.4-2.4-1
	c-0.6-0.6-1-1.5-1-2.4s0.4-1.8,1-2.4c0.6-0.6,1.5-1,2.4-1C388.4,86.4,389.2,86.8,389.8,87.4z M389.7,79.3c0.6,0.6,0.9,1.4,0.9,2.3
	c0,0.9-0.4,1.7-0.9,2.3c-0.6,0.6-1.4,0.9-2.3,0.9c-0.9,0-1.7-0.4-2.3-0.9c-0.6-0.6-0.9-1.4-0.9-2.3c0-0.9,0.4-1.7,0.9-2.3
	c0.6-0.6,1.4-0.9,2.3-0.9C388.3,78.4,389.1,78.8,389.7,79.3z M376.4,79.3c0.6,0.6,0.9,1.4,0.9,2.3c0,0.9-0.4,1.7-0.9,2.3
	c-0.6,0.6-1.4,0.9-2.3,0.9c-0.9,0-1.7-0.4-2.3-0.9c-0.6-0.6-0.9-1.4-0.9-2.3c0-0.9,0.4-1.7,0.9-2.3c0.6-0.6,1.4-0.9,2.3-0.9
	C375,78.4,375.8,78.8,376.4,79.3z M363.1,79.3c0.6,0.6,0.9,1.4,0.9,2.3c0,0.9-0.4,1.7-0.9,2.3c-0.6,0.6-1.4,0.9-2.3,0.9
	c-0.9,0-1.7-0.4-2.3-0.9c-0.6-0.6-0.9-1.4-0.9-2.3c0-0.9,0.4-1.7,0.9-2.3c0.6-0.6,1.4-0.9,2.3-0.9C361.7,78.4,362.5,78.8,363.1,79.3
	z M389.5,63.2c0.5,0.5,0.8,1.2,0.8,2c0,0.8-0.3,1.5-0.8,2c-0.5,0.5-1.2,0.8-2,0.8s-1.5-0.3-2-0.8c-0.5-0.5-0.8-1.2-0.8-2
	c0-0.8,0.3-1.5,0.8-2c0.5-0.5,1.2-0.8,2-0.8S389,62.6,389.5,63.2z M348.2,102.5c2.1,0,3.7,1.7,3.7,3.7c0,1-0.4,2-1.1,2.6
	c-0.7,0.7-1.6,1.1-2.6,1.1c-1,0-2-0.4-2.6-1.1c-0.7-0.7-1.1-1.6-1.1-2.6C344.5,104.2,346.2,102.5,348.2,102.5z M350.8,95.5
	c0.6,0.6,1,1.5,1,2.5c0,1-0.4,1.9-1,2.5c-0.6,0.6-1.5,1-2.5,1c-1,0-1.9-0.4-2.5-1c-0.6-0.6-1-1.5-1-2.5c0-1,0.4-1.9,1-2.5
	c0.6-0.6,1.5-1,2.5-1C349.2,94.5,350.1,94.9,350.8,95.5z M400.5,102.5c2.1,0,3.7,1.7,3.7,3.7c0,1-0.4,2-1.1,2.6
	c-0.7,0.7-1.6,1.1-2.6,1.1s-2-0.4-2.6-1.1c-0.7-0.7-1.1-1.6-1.1-2.6C396.8,104.2,398.4,102.5,400.5,102.5z M403,95.5
	c0.6,0.6,1,1.5,1,2.5c0,1-0.4,1.9-1,2.5c-0.6,0.6-1.5,1-2.5,1c-1,0-1.9-0.4-2.5-1c-0.6-0.6-1-1.5-1-2.5c0-1,0.4-1.9,1-2.5
	c0.6-0.6,1.5-1,2.5-1C401.5,94.5,402.4,94.9,403,95.5z M402.9,87.4c0.6,0.6,1,1.5,1,2.4s-0.4,1.8-1,2.4c-0.6,0.6-1.5,1-2.4,1
	c-0.9,0-1.8-0.4-2.4-1c-0.6-0.6-1-1.5-1-2.4s0.4-1.8,1-2.4c0.6-0.6,1.5-1,2.4-1C401.4,86.4,402.3,86.8,402.9,87.4z M402.8,79.3
	c0.6,0.6,0.9,1.4,0.9,2.3c0,0.9-0.4,1.7-0.9,2.3c-0.6,0.6-1.4,0.9-2.3,0.9c-0.9,0-1.7-0.4-2.3-0.9c-0.6-0.6-0.9-1.4-0.9-2.3
	c0-0.9,0.4-1.7,0.9-2.3c0.6-0.6,1.4-0.9,2.3-0.9C401.4,78.4,402.2,78.8,402.8,79.3z M402.7,71.3c0.6,0.6,0.9,1.3,0.9,2.2
	c0,0.8-0.3,1.6-0.9,2.2c-0.6,0.6-1.3,0.9-2.2,0.9c-0.8,0-1.6-0.3-2.2-0.9c-0.6-0.6-0.9-1.3-0.9-2.2c0-0.8,0.3-1.6,0.9-2.2
	c0.6-0.6,1.3-0.9,2.2-0.9C401.4,70.4,402.1,70.7,402.7,71.3z M402.6,63.2c0.5,0.5,0.8,1.2,0.8,2c0,0.8-0.3,1.5-0.8,2
	c-0.5,0.5-1.2,0.8-2,0.8c-0.8,0-1.5-0.3-2-0.8c-0.5-0.5-0.8-1.2-0.8-2c0-0.8,0.3-1.5,0.8-2c0.5-0.5,1.2-0.8,2-0.8
	C401.3,62.3,402,62.6,402.6,63.2z M402.4,55.1c0.5,0.5,0.8,1.2,0.8,1.9c0,0.7-0.3,1.4-0.8,1.9c-0.5,0.5-1.2,0.8-1.9,0.8
	c-0.7,0-1.4-0.3-1.9-0.8c-0.5-0.5-0.8-1.2-0.8-1.9c0-0.7,0.3-1.4,0.8-1.9c0.5-0.5,1.2-0.8,1.9-0.8C401.3,54.3,401.9,54.6,402.4,55.1
	z M389.1,55.1c0.5,0.5,0.8,1.2,0.8,1.9c0,0.7-0.3,1.4-0.8,1.9c-0.5,0.5-1.2,0.8-1.9,0.8c-0.7,0-1.4-0.3-1.9-0.8
	c-0.5-0.5-0.8-1.2-0.8-1.9c0-0.7,0.3-1.4,0.8-1.9c0.5-0.5,1.2-0.8,1.9-0.8C387.9,54.3,388.6,54.6,389.1,55.1z M402.3,47
	c0.5,0.5,0.7,1.1,0.7,1.8c0,0.7-0.3,1.3-0.7,1.8c-0.5,0.5-1.1,0.7-1.8,0.7c-0.7,0-1.3-0.3-1.8-0.7c-0.5-0.5-0.7-1.1-0.7-1.8
	c0-0.7,0.3-1.3,0.7-1.8c0.5-0.5,1.1-0.7,1.8-0.7C401.2,46.3,401.8,46.5,402.3,47z M402.2,38.9c0.4,0.4,0.7,1,0.7,1.7
	c0,0.6-0.3,1.2-0.7,1.7c-0.4,0.4-1,0.7-1.7,0.7c-0.6,0-1.2-0.3-1.7-0.7c-0.4-0.4-0.7-1-0.7-1.7c0-0.6,0.3-1.2,0.7-1.7
	c0.4-0.4,1-0.7,1.7-0.7C401.2,38.2,401.8,38.5,402.2,38.9z M374.4,102.5c2.1,0,3.7,1.7,3.7,3.7c0,1-0.4,2-1.1,2.6
	c-0.7,0.7-1.6,1.1-2.6,1.1c-1,0-2-0.4-2.6-1.1c-0.7-0.7-1.1-1.6-1.1-2.6C370.6,104.2,372.3,102.5,374.4,102.5z M376.9,95.5
	c0.6,0.6,1,1.5,1,2.5c0,1-0.4,1.9-1,2.5c-0.6,0.6-1.5,1-2.5,1c-1,0-1.9-0.4-2.5-1c-0.6-0.6-1-1.5-1-2.5c0-1,0.4-1.9,1-2.5
	c0.6-0.6,1.5-1,2.5-1C375.4,94.5,376.3,94.9,376.9,95.5z M376.8,87.4c0.6,0.6,1,1.5,1,2.4s-0.4,1.8-1,2.4c-0.6,0.6-1.5,1-2.4,1
	c-0.9,0-1.8-0.4-2.4-1c-0.6-0.6-1-1.5-1-2.4s0.4-1.8,1-2.4s1.5-1,2.4-1C375.3,86.4,376.2,86.8,376.8,87.4z M350.2,87.4
	c0.6,0.6,1,1.5,1,2.4s-0.4,1.8-1,2.4c-0.6,0.6-1.5,1-2.4,1c-0.9,0-1.8-0.4-2.4-1c-0.6-0.6-1-1.5-1-2.4s0.4-1.8,1-2.4
	c0.6-0.6,1.5-1,2.4-1C348.7,86.4,349.6,86.8,350.2,87.4z M413.6,102.5c2.1,0,3.7,1.7,3.7,3.7c0,1-0.4,2-1.1,2.6
	c-0.7,0.7-1.6,1.1-2.6,1.1c-1,0-2-0.4-2.6-1.1c-0.7-0.7-1.1-1.6-1.1-2.6C409.8,104.2,411.5,102.5,413.6,102.5z M416,87.4
	c0.6,0.6,1,1.5,1,2.4s-0.4,1.8-1,2.4c-0.6,0.6-1.5,1-2.4,1c-0.9,0-1.8-0.4-2.4-1c-0.6-0.6-1-1.5-1-2.4s0.4-1.8,1-2.4
	c0.6-0.6,1.5-1,2.4-1C414.5,86.4,415.4,86.8,416,87.4z M415.9,79.3c0.6,0.6,0.9,1.4,0.9,2.3c0,0.9-0.4,1.7-0.9,2.3
	c-0.6,0.6-1.4,0.9-2.3,0.9c-0.9,0-1.7-0.4-2.3-0.9c-0.6-0.6-0.9-1.4-0.9-2.3c0-0.9,0.4-1.7,0.9-2.3c0.6-0.6,1.4-0.9,2.3-0.9
	C414.5,78.4,415.3,78.8,415.9,79.3z M415.7,71.3c0.6,0.6,0.9,1.3,0.9,2.2c0,0.8-0.3,1.6-0.9,2.2c-0.6,0.6-1.3,0.9-2.2,0.9
	s-1.6-0.3-2.2-0.9c-0.6-0.6-0.9-1.3-0.9-2.2c0-0.8,0.3-1.6,0.9-2.2c0.6-0.6,1.3-0.9,2.2-0.9S415.2,70.7,415.7,71.3z M415.6,63.2
	c0.5,0.5,0.8,1.2,0.8,2c0,0.8-0.3,1.5-0.8,2c-0.5,0.5-1.2,0.8-2,0.8c-0.8,0-1.5-0.3-2-0.8c-0.5-0.5-0.8-1.2-0.8-2
	c0-0.8,0.3-1.5,0.8-2c0.5-0.5,1.2-0.8,2-0.8C414.4,62.3,415.1,62.6,415.6,63.2z M415.5,55.1c0.5,0.5,0.8,1.2,0.8,1.9
	c0,0.7-0.3,1.4-0.8,1.9c-0.5,0.5-1.2,0.8-1.9,0.8c-0.7,0-1.4-0.3-1.9-0.8c-0.5-0.5-0.8-1.2-0.8-1.9c0-0.7,0.3-1.4,0.8-1.9
	c0.5-0.5,1.2-0.8,1.9-0.8C414.3,54.3,415,54.6,415.5,55.1z M415.4,47c0.5,0.5,0.7,1.1,0.7,1.8c0,0.7-0.3,1.3-0.7,1.8
	c-0.5,0.5-1.1,0.7-1.8,0.7c-0.7,0-1.3-0.3-1.8-0.7c-0.5-0.5-0.7-1.1-0.7-1.8c0-0.7,0.3-1.3,0.7-1.8c0.5-0.5,1.1-0.7,1.8-0.7
	C414.3,46.3,414.9,46.5,415.4,47z M427.2,63.2c0.5,0.5,0.8,1.2,0.8,2c0,0.8-0.3,1.5-0.8,2c-0.5,0.5-1.2,0.8-2,0.8
	c-0.8,0-1.5-0.3-2-0.8c-0.5-0.5-0.8-1.2-0.8-2c0-0.8,0.3-1.5,0.8-2c0.5-0.5,1.2-0.8,2-0.8C425.9,62.3,426.6,62.6,427.2,63.2z
	 M427,55.1c0.5,0.5,0.8,1.2,0.8,1.9c0,0.7-0.3,1.4-0.8,1.9c-0.5,0.5-1.2,0.8-1.9,0.8c-0.7,0-1.4-0.3-1.9-0.8
	c-0.5-0.5-0.8-1.2-0.8-1.9c0-0.7,0.3-1.4,0.8-1.9c0.5-0.5,1.2-0.8,1.9-0.8C425.9,54.3,426.5,54.6,427,55.1z M426.9,47
	c0.5,0.5,0.7,1.1,0.7,1.8c0,0.7-0.3,1.3-0.7,1.8c-0.5,0.5-1.1,0.7-1.8,0.7c-0.7,0-1.3-0.3-1.8-0.7c-0.5-0.5-0.7-1.1-0.7-1.8
	c0-0.7,0.3-1.3,0.7-1.8c0.5-0.5,1.1-0.7,1.8-0.7C425.8,46.3,426.4,46.5,426.9,47z M426.8,38.9c0.4,0.4,0.7,1,0.7,1.7
	c0,0.6-0.3,1.2-0.7,1.7c-0.4,0.4-1,0.7-1.7,0.7c-0.6,0-1.2-0.3-1.7-0.7c-0.4-0.4-0.7-1-0.7-1.7c0-0.6,0.3-1.2,0.7-1.7s1-0.7,1.7-0.7
	C425.8,38.2,426.4,38.5,426.8,38.9z M426.7,30.8c0.4,0.4,0.6,1,0.6,1.6c0,0.6-0.2,1.1-0.6,1.6c-0.4,0.4-1,0.6-1.6,0.6
	c-0.6,0-1.1-0.2-1.6-0.6c-0.4-0.4-0.6-1-0.6-1.6c0-0.6,0.2-1.1,0.6-1.6c0.4-0.4,1-0.6,1.6-0.6C425.7,30.2,426.3,30.4,426.7,30.8z
	 M361.3,102.5c2.1,0,3.7,1.7,3.7,3.7c0,1-0.4,2-1.1,2.6c-0.7,0.7-1.6,1.1-2.6,1.1c-1,0-2-0.4-2.6-1.1c-0.7-0.7-1.1-1.6-1.1-2.6
	C357.6,104.2,359.2,102.5,361.3,102.5z M363.8,95.5c0.6,0.6,1,1.5,1,2.5c0,1-0.4,1.9-1,2.5c-0.6,0.6-1.5,1-2.5,1c-1,0-1.9-0.4-2.5-1
	c-0.6-0.6-1-1.5-1-2.5c0-1,0.4-1.9,1-2.5c0.6-0.6,1.5-1,2.5-1C362.3,94.5,363.2,94.9,363.8,95.5z M363.7,87.4c0.6,0.6,1,1.5,1,2.4
	s-0.4,1.8-1,2.4c-0.6,0.6-1.5,1-2.4,1c-0.9,0-1.8-0.4-2.4-1c-0.6-0.6-1-1.5-1-2.4s0.4-1.8,1-2.4c0.6-0.6,1.5-1,2.4-1
	C362.2,86.4,363.1,86.8,363.7,87.4z M363.5,71.3c0.6,0.6,0.9,1.3,0.9,2.2c0,0.8-0.3,1.6-0.9,2.2c-0.6,0.6-1.3,0.9-2.2,0.9
	c-0.8,0-1.6-0.3-2.2-0.9c-0.6-0.6-0.9-1.3-0.9-2.2c0-0.8,0.3-1.6,0.9-2.2c0.6-0.6,1.3-0.9,2.2-0.9C362.1,70.4,362.9,70.7,363.5,71.3
	z M363.3,63.2c0.5,0.5,0.8,1.2,0.8,2c0,0.8-0.3,1.5-0.8,2c-0.5,0.5-1.2,0.8-2,0.8c-0.8,0-1.5-0.3-2-0.8c-0.5-0.5-0.8-1.2-0.8-2
	c0-0.8,0.3-1.5,0.8-2c0.5-0.5,1.2-0.8,2-0.8C362.1,62.3,362.8,62.6,363.3,63.2z M425.4,102.5c2.1,0,3.7,1.7,3.7,3.7
	c0,1-0.4,2-1.1,2.6c-0.7,0.7-1.6,1.1-2.6,1.1c-1,0-2-0.4-2.6-1.1c-0.7-0.7-1.1-1.6-1.1-2.6C421.6,104.2,423.3,102.5,425.4,102.5z
	 M427.9,95.5c0.6,0.6,1,1.5,1,2.5c0,1-0.4,1.9-1,2.5c-0.6,0.6-1.5,1-2.5,1c-1,0-1.9-0.4-2.5-1c-0.6-0.6-1-1.5-1-2.5
	c0-1,0.4-1.9,1-2.5c0.6-0.6,1.5-1,2.5-1C426.3,94.5,427.2,94.9,427.9,95.5z M416.3,95.5c0.6,0.6,1,1.5,1,2.5c0,1-0.4,1.9-1,2.5
	c-0.6,0.6-1.5,1-2.5,1c-1,0-1.9-0.4-2.5-1c-0.6-0.6-1-1.5-1-2.5c0-1,0.4-1.9,1-2.5c0.6-0.6,1.5-1,2.5-1
	C414.8,94.5,415.7,94.9,416.3,95.5z M427.8,87.4c0.6,0.6,1,1.5,1,2.4s-0.4,1.8-1,2.4c-0.6,0.6-1.5,1-2.4,1c-0.9,0-1.8-0.4-2.4-1
	c-0.6-0.6-1-1.5-1-2.4s0.4-1.8,1-2.4c0.6-0.6,1.5-1,2.4-1C426.3,86.4,427.1,86.8,427.8,87.4z M427.6,79.3c0.6,0.6,0.9,1.4,0.9,2.3
	c0,0.9-0.4,1.7-0.9,2.3c-0.6,0.6-1.4,0.9-2.3,0.9c-0.9,0-1.7-0.4-2.3-0.9c-0.6-0.6-0.9-1.4-0.9-2.3c0-0.9,0.4-1.7,0.9-2.3
	c0.6-0.6,1.4-0.9,2.3-0.9C426.2,78.4,427,78.8,427.6,79.3z M224.6,93.2c0.9,0,1.8-0.4,2.4-1c0.6-0.6,1-1.5,1-2.4
	c0-0.9-0.4-1.8-1-2.4s-1.5-1-2.4-1c-0.9,0-1.8,0.4-2.4,1c-0.6,0.6-1,1.5-1,2.4c0,0.9,0.4,1.8,1,2.4
	C222.8,92.9,223.6,93.2,224.6,93.2z M211.5,43c0.6,0,1.2-0.3,1.7-0.7c0.4-0.4,0.7-1,0.7-1.7c0-0.6-0.3-1.2-0.7-1.7
	c-0.4-0.4-1-0.7-1.7-0.7c-0.6,0-1.2,0.3-1.7,0.7c-0.4,0.4-0.7,1-0.7,1.7c0,0.6,0.3,1.2,0.7,1.7C210.3,42.7,210.8,43,211.5,43z
	 M224.6,101.6c1,0,1.9-0.4,2.5-1c0.6-0.6,1-1.5,1-2.5c0-1-0.4-1.9-1-2.5c-0.6-0.6-1.5-1-2.5-1c-1,0-1.9,0.4-2.5,1
	c-0.6,0.6-1,1.5-1,2.5c0,1,0.4,1.9,1,2.5C222.7,101.2,223.6,101.6,224.6,101.6z M211.5,26.2c0.5,0,1.1-0.2,1.4-0.6
	c0.4-0.4,0.6-0.9,0.6-1.4c0-0.5-0.2-1.1-0.6-1.4c-0.4-0.4-0.9-0.6-1.4-0.6c-0.5,0-1.1,0.2-1.4,0.6c-0.4,0.4-0.6,0.9-0.6,1.4
	c0,0.5,0.2,1.1,0.6,1.4C210.4,26,210.9,26.2,211.5,26.2z M211.5,34.6c0.6,0,1.1-0.2,1.6-0.6c0.4-0.4,0.6-1,0.6-1.6
	c0-0.6-0.2-1.1-0.6-1.6c-0.4-0.4-1-0.6-1.6-0.6c-0.6,0-1.1,0.2-1.6,0.6c-0.4,0.4-0.6,1-0.6,1.6c0,0.6,0.2,1.1,0.6,1.6
	C210.3,34.3,210.9,34.6,211.5,34.6z M211.5,17.8c0.5,0,1-0.2,1.3-0.5c0.3-0.3,0.5-0.8,0.5-1.3c0-0.5-0.2-1-0.5-1.3
	c-0.3-0.3-0.8-0.5-1.3-0.5c-0.5,0-1,0.2-1.3,0.5c-0.3,0.3-0.5,0.8-0.5,1.3c0,0.5,0.2,1,0.5,1.3C210.5,17.6,211,17.8,211.5,17.8z
	 M211.5,9.4c0.4,0,0.9-0.2,1.2-0.5c0.3-0.3,0.5-0.7,0.5-1.2c0-0.4-0.2-0.9-0.5-1.2c-0.3-0.3-0.7-0.5-1.2-0.5c-0.4,0-0.9,0.2-1.2,0.5
	c-0.3,0.3-0.5,0.7-0.5,1.2c0,0.4,0.2,0.9,0.5,1.2C210.6,9.3,211,9.4,211.5,9.4z M224.6,84.9c0.9,0,1.7-0.4,2.3-0.9
	c0.6-0.6,0.9-1.4,0.9-2.3c0-0.9-0.4-1.7-0.9-2.3c-0.6-0.6-1.4-0.9-2.3-0.9c-0.9,0-1.7,0.4-2.3,0.9c-0.6,0.6-0.9,1.4-0.9,2.3
	c0,0.9,0.4,1.7,0.9,2.3C222.9,84.5,223.7,84.9,224.6,84.9z M224.8,34.6c0.6,0,1.1-0.2,1.6-0.6c0.4-0.4,0.6-1,0.6-1.6
	c0-0.6-0.2-1.1-0.6-1.6c-0.4-0.4-1-0.6-1.6-0.6s-1.1,0.2-1.6,0.6c-0.4,0.4-0.6,1-0.6,1.6c0,0.6,0.2,1.1,0.6,1.6
	C223.7,34.3,224.2,34.6,224.8,34.6z M224.8,26.2c0.5,0,1.1-0.2,1.4-0.6c0.4-0.4,0.6-0.9,0.6-1.4c0-0.5-0.2-1.1-0.6-1.4
	c-0.4-0.4-0.9-0.6-1.4-0.6c-0.5,0-1.1,0.2-1.4,0.6c-0.4,0.4-0.6,0.9-0.6,1.4c0,0.5,0.2,1.1,0.6,1.4C223.7,26,224.3,26.2,224.8,26.2z
	 M235.8,101.6c1,0,1.9-0.4,2.5-1c0.6-0.6,1-1.5,1-2.5c0-1-0.4-1.9-1-2.5c-0.6-0.6-1.5-1-2.5-1c-1,0-1.9,0.4-2.5,1
	c-0.6,0.6-1,1.5-1,2.5c0,1,0.4,1.9,1,2.5C233.9,101.2,234.8,101.6,235.8,101.6z M224.8,43c0.6,0,1.2-0.3,1.7-0.7
	c0.4-0.4,0.7-1,0.7-1.7c0-0.6-0.3-1.2-0.7-1.7c-0.4-0.4-1-0.7-1.7-0.7c-0.6,0-1.2,0.3-1.7,0.7c-0.4,0.4-0.7,1-0.7,1.7
	c0,0.6,0.3,1.2,0.7,1.7C223.6,42.7,224.2,43,224.8,43z M224.6,68.1c0.8,0,1.5-0.3,2-0.8c0.5-0.5,0.8-1.2,0.8-2c0-0.8-0.3-1.5-0.8-2
	c-0.5-0.5-1.2-0.8-2-0.8c-0.8,0-1.5,0.3-2,0.8c-0.5,0.5-0.8,1.2-0.8,2c0,0.8,0.3,1.5,0.8,2C223,67.8,223.8,68.1,224.6,68.1z
	 M224.6,76.5c0.8,0,1.6-0.3,2.2-0.9c0.6-0.6,0.9-1.3,0.9-2.2c0-0.8-0.3-1.6-0.9-2.2c-0.6-0.6-1.3-0.9-2.2-0.9
	c-0.8,0-1.6,0.3-2.2,0.9c-0.6,0.6-0.9,1.3-0.9,2.2c0,0.8,0.3,1.6,0.9,2.2C223,76.1,223.7,76.5,224.6,76.5z M224.6,59.7
	c0.7,0,1.4-0.3,1.9-0.8c0.5-0.5,0.8-1.2,0.8-1.9c0-0.7-0.3-1.4-0.8-1.9c-0.5-0.5-1.2-0.8-1.9-0.8c-0.7,0-1.4,0.3-1.9,0.8
	c-0.5,0.5-0.8,1.2-0.8,1.9c0,0.7,0.3,1.4,0.8,1.9C223.1,59.4,223.8,59.7,224.6,59.7z M198.4,84.9c0.9,0,1.7-0.4,2.3-0.9
	c0.6-0.6,0.9-1.4,0.9-2.3c0-0.9-0.4-1.7-0.9-2.3c-0.6-0.6-1.4-0.9-2.3-0.9s-1.7,0.4-2.3,0.9c-0.6,0.6-0.9,1.4-0.9,2.3
	c0,0.9,0.4,1.7,0.9,2.3C196.7,84.5,197.5,84.9,198.4,84.9z M199.1,43c0.6,0,1.2-0.3,1.7-0.7c0.4-0.4,0.7-1,0.7-1.7
	c0-0.6-0.3-1.2-0.7-1.7c-0.4-0.4-1-0.7-1.7-0.7c-0.6,0-1.2,0.3-1.7,0.7c-0.4,0.4-0.7,1-0.7,1.7c0,0.6,0.3,1.2,0.7,1.7
	C197.8,42.7,198.4,43,199.1,43z M199.1,26.2c0.5,0,1.1-0.2,1.4-0.6c0.4-0.4,0.6-0.9,0.6-1.4c0-0.5-0.2-1.1-0.6-1.4
	c-0.4-0.4-0.9-0.6-1.4-0.6c-0.5,0-1.1,0.2-1.4,0.6c-0.4,0.4-0.6,0.9-0.6,1.4c0,0.5,0.2,1.1,0.6,1.4C198,26,198.5,26.2,199.1,26.2z
	 M199.1,34.6c0.6,0,1.1-0.2,1.6-0.6c0.4-0.4,0.6-1,0.6-1.6c0-0.6-0.2-1.1-0.6-1.6c-0.4-0.4-1-0.6-1.6-0.6c-0.6,0-1.1,0.2-1.6,0.6
	c-0.4,0.4-0.6,1-0.6,1.6c0,0.6,0.2,1.1,0.6,1.6C197.9,34.3,198.5,34.6,199.1,34.6z M198.4,59.7c0.7,0,1.4-0.3,1.9-0.8
	c0.5-0.5,0.8-1.2,0.8-1.9c0-0.7-0.3-1.4-0.8-1.9c-0.5-0.5-1.2-0.8-1.9-0.8c-0.7,0-1.4,0.3-1.9,0.8c-0.5,0.5-0.8,1.2-0.8,1.9
	c0,0.7,0.3,1.4,0.8,1.9C197,59.4,197.7,59.7,198.4,59.7z M235.8,93.2c0.9,0,1.8-0.4,2.4-1c0.6-0.6,1-1.5,1-2.4c0-0.9-0.4-1.8-1-2.4
	s-1.5-1-2.4-1c-0.9,0-1.8,0.4-2.4,1c-0.6,0.6-1,1.5-1,2.4c0,0.9,0.4,1.8,1,2.4C234,92.9,234.8,93.2,235.8,93.2z M211.5,51.3
	c0.7,0,1.3-0.3,1.8-0.7c0.5-0.5,0.7-1.1,0.7-1.8c0-0.7-0.3-1.3-0.7-1.8c-0.5-0.5-1.1-0.7-1.8-0.7c-0.7,0-1.3,0.3-1.8,0.7
	c-0.5,0.5-0.7,1.1-0.7,1.8c0,0.7,0.3,1.3,0.7,1.8C210.2,51.1,210.8,51.3,211.5,51.3z M198.4,68.1c0.8,0,1.5-0.3,2-0.8
	c0.5-0.5,0.8-1.2,0.8-2c0-0.8-0.3-1.5-0.8-2c-0.5-0.5-1.2-0.8-2-0.8c-0.8,0-1.5,0.3-2,0.8c-0.5,0.5-0.8,1.2-0.8,2
	c0,0.8,0.3,1.5,0.8,2C196.9,67.8,197.6,68.1,198.4,68.1z M198.4,76.5c0.8,0,1.6-0.3,2.2-0.9c0.6-0.6,0.9-1.3,0.9-2.2
	c0-0.8-0.3-1.6-0.9-2.2c-0.6-0.6-1.3-0.9-2.2-0.9c-0.8,0-1.6,0.3-2.2,0.9c-0.6,0.6-0.9,1.3-0.9,2.2c0,0.8,0.3,1.6,0.9,2.2
	C196.8,76.1,197.6,76.5,198.4,76.5z M211.5,76.5c0.8,0,1.6-0.3,2.2-0.9c0.6-0.6,0.9-1.3,0.9-2.2c0-0.8-0.3-1.6-0.9-2.2
	c-0.6-0.6-1.3-0.9-2.2-0.9c-0.8,0-1.6,0.3-2.2,0.9c-0.6,0.6-0.9,1.3-0.9,2.2c0,0.8,0.3,1.6,0.9,2.2
	C209.9,76.1,210.7,76.5,211.5,76.5z M211.5,68.1c0.8,0,1.5-0.3,2-0.8c0.5-0.5,0.8-1.2,0.8-2c0-0.8-0.3-1.5-0.8-2
	c-0.5-0.5-1.2-0.8-2-0.8c-0.8,0-1.5,0.3-2,0.8c-0.5,0.5-0.8,1.2-0.8,2c0,0.8,0.3,1.5,0.8,2C210,67.8,210.7,68.1,211.5,68.1z
	 M211.5,59.7c0.7,0,1.4-0.3,1.9-0.8c0.5-0.5,0.8-1.2,0.8-1.9c0-0.7-0.3-1.4-0.8-1.9c-0.5-0.5-1.2-0.8-1.9-0.8
	c-0.7,0-1.4,0.3-1.9,0.8c-0.5,0.5-0.8,1.2-0.8,1.9c0,0.7,0.3,1.4,0.8,1.9C210.1,59.4,210.8,59.7,211.5,59.7z M211.5,93.2
	c0.9,0,1.8-0.4,2.4-1c0.6-0.6,1-1.5,1-2.4c0-0.9-0.4-1.8-1-2.4s-1.5-1-2.4-1c-0.9,0-1.8,0.4-2.4,1s-1,1.5-1,2.4c0,0.9,0.4,1.8,1,2.4
	C209.7,92.9,210.6,93.2,211.5,93.2z M211.5,84.9c0.9,0,1.7-0.4,2.3-0.9c0.6-0.6,0.9-1.4,0.9-2.3c0-0.9-0.4-1.7-0.9-2.3
	c-0.6-0.6-1.4-0.9-2.3-0.9c-0.9,0-1.7,0.4-2.3,0.9c-0.6,0.6-0.9,1.4-0.9,2.3c0,0.9,0.4,1.7,0.9,2.3
	C209.8,84.5,210.6,84.9,211.5,84.9z M211.5,101.6c1,0,1.9-0.4,2.5-1c0.6-0.6,1-1.5,1-2.5c0-1-0.4-1.9-1-2.5c-0.6-0.6-1.5-1-2.5-1
	c-1,0-1.9,0.4-2.5,1c-0.6,0.6-1,1.5-1,2.5c0,1,0.4,1.9,1,2.5C209.6,101.2,210.5,101.6,211.5,101.6z M260.6,93.2c0.9,0,1.8-0.4,2.4-1
	c0.6-0.6,1-1.5,1-2.4c0-0.9-0.4-1.8-1-2.4c-0.6-0.6-1.5-1-2.4-1c-0.9,0-1.8,0.4-2.4,1c-0.6,0.6-1,1.5-1,2.4c0,0.9,0.4,1.8,1,2.4
	C258.8,92.9,259.7,93.2,260.6,93.2z M260.6,43c0.6,0,1.2-0.3,1.7-0.7c0.4-0.4,0.7-1,0.7-1.7c0-0.6-0.3-1.2-0.7-1.7
	c-0.4-0.4-1-0.7-1.7-0.7c-0.6,0-1.2,0.3-1.7,0.7c-0.4,0.4-0.7,1-0.7,1.7c0,0.6,0.3,1.2,0.7,1.7C259.4,42.7,259.9,43,260.6,43z
	 M273.7,68.1c0.8,0,1.5-0.3,2-0.8c0.5-0.5,0.8-1.2,0.8-2c0-0.8-0.3-1.5-0.8-2c-0.5-0.5-1.2-0.8-2-0.8c-0.8,0-1.5,0.3-2,0.8
	c-0.5,0.5-0.8,1.2-0.8,2c0,0.8,0.3,1.5,0.8,2C272.1,67.8,272.9,68.1,273.7,68.1z M273.7,93.2c0.9,0,1.8-0.4,2.4-1
	c0.6-0.6,1-1.5,1-2.4c0-0.9-0.4-1.8-1-2.4c-0.6-0.6-1.5-1-2.4-1s-1.8,0.4-2.4,1c-0.6,0.6-1,1.5-1,2.4c0,0.9,0.4,1.8,1,2.4
	C271.9,92.9,272.7,93.2,273.7,93.2z M273.7,101.6c1,0,1.9-0.4,2.5-1c0.6-0.6,1-1.5,1-2.5c0-1-0.4-1.9-1-2.5c-0.6-0.6-1.5-1-2.5-1
	c-1,0-1.9,0.4-2.5,1c-0.6,0.6-1,1.5-1,2.5c0,1,0.4,1.9,1,2.5C271.8,101.2,272.7,101.6,273.7,101.6z M260.6,51.3
	c0.7,0,1.3-0.3,1.8-0.7c0.5-0.5,0.7-1.1,0.7-1.8c0-0.7-0.3-1.3-0.7-1.8c-0.5-0.5-1.1-0.7-1.8-0.7c-0.7,0-1.3,0.3-1.8,0.7
	c-0.5,0.5-0.7,1.1-0.7,1.8c0,0.7,0.3,1.3,0.7,1.8C259.3,51.1,259.9,51.3,260.6,51.3z M260.6,68.1c0.8,0,1.5-0.3,2-0.8
	c0.5-0.5,0.8-1.2,0.8-2c0-0.8-0.3-1.5-0.8-2c-0.5-0.5-1.2-0.8-2-0.8c-0.8,0-1.5,0.3-2,0.8c-0.5,0.5-0.8,1.2-0.8,2
	c0,0.8,0.3,1.5,0.8,2C259.1,67.8,259.8,68.1,260.6,68.1z M260.6,59.7c0.7,0,1.4-0.3,1.9-0.8c0.5-0.5,0.8-1.2,0.8-1.9
	c0-0.7-0.3-1.4-0.8-1.9c-0.5-0.5-1.2-0.8-1.9-0.8c-0.7,0-1.4,0.3-1.9,0.8c-0.5,0.5-0.8,1.2-0.8,1.9c0,0.7,0.3,1.4,0.8,1.9
	C259.2,59.4,259.9,59.7,260.6,59.7z M286.7,93.2c0.9,0,1.8-0.4,2.4-1c0.6-0.6,1-1.5,1-2.4c0-0.9-0.4-1.8-1-2.4s-1.5-1-2.4-1
	c-0.9,0-1.8,0.4-2.4,1c-0.6,0.6-1,1.5-1,2.4c0,0.9,0.4,1.8,1,2.4C284.9,92.9,285.8,93.2,286.7,93.2z M287,84.9
	c0.9,0,1.7-0.4,2.3-0.9c0.6-0.6,0.9-1.4,0.9-2.3c0-0.9-0.4-1.7-0.9-2.3c-0.6-0.6-1.4-0.9-2.3-0.9c-0.9,0-1.7,0.4-2.3,0.9
	c-0.6,0.6-0.9,1.4-0.9,2.3c0,0.9,0.4,1.7,0.9,2.3C285.3,84.5,286.1,84.9,287,84.9z M260.6,76.5c0.8,0,1.6-0.3,2.2-0.9
	c0.6-0.6,0.9-1.3,0.9-2.2c0-0.8-0.3-1.6-0.9-2.2c-0.6-0.6-1.3-0.9-2.2-0.9c-0.8,0-1.6,0.3-2.2,0.9c-0.6,0.6-0.9,1.3-0.9,2.2
	c0,0.8,0.3,1.6,0.9,2.2C259,76.1,259.8,76.5,260.6,76.5z M273.9,59.7c0.7,0,1.4-0.3,1.9-0.8c0.5-0.5,0.8-1.2,0.8-1.9
	c0-0.7-0.3-1.4-0.8-1.9c-0.5-0.5-1.2-0.8-1.9-0.8c-0.7,0-1.4,0.3-1.9,0.8c-0.5,0.5-0.8,1.2-0.8,1.9c0,0.7,0.3,1.4,0.8,1.9
	C272.5,59.4,273.2,59.7,273.9,59.7z M286.7,101.6c1,0,1.9-0.4,2.5-1c0.6-0.6,1-1.5,1-2.5c0-1-0.4-1.9-1-2.5c-0.6-0.6-1.5-1-2.5-1
	c-1,0-1.9,0.4-2.5,1c-0.6,0.6-1,1.5-1,2.5c0,1,0.4,1.9,1,2.5C284.9,101.2,285.7,101.6,286.7,101.6z M260.6,101.6c1,0,1.9-0.4,2.5-1
	c0.6-0.6,1-1.5,1-2.5c0-1-0.4-1.9-1-2.5c-0.6-0.6-1.5-1-2.5-1c-1,0-1.9,0.4-2.5,1c-0.6,0.6-1,1.5-1,2.5c0,1,0.4,1.9,1,2.5
	C258.7,101.2,259.6,101.6,260.6,101.6z M236,34.6c0.6,0,1.1-0.2,1.6-0.6c0.4-0.4,0.6-1,0.6-1.6c0-0.6-0.2-1.1-0.6-1.6
	c-0.4-0.4-1-0.6-1.6-0.6c-0.6,0-1.1,0.2-1.6,0.6c-0.4,0.4-0.6,1-0.6,1.6c0,0.6,0.2,1.1,0.6,1.6C234.8,34.3,235.4,34.6,236,34.6z
	 M260.6,84.9c0.9,0,1.7-0.4,2.3-0.9c0.6-0.6,0.9-1.4,0.9-2.3c0-0.9-0.4-1.7-0.9-2.3c-0.6-0.6-1.4-0.9-2.3-0.9
	c-0.9,0-1.7,0.4-2.3,0.9c-0.6,0.6-0.9,1.4-0.9,2.3c0,0.9,0.4,1.7,0.9,2.3C258.9,84.5,259.7,84.9,260.6,84.9z M247.5,84.9
	c0.9,0,1.7-0.4,2.3-0.9c0.6-0.6,0.9-1.4,0.9-2.3c0-0.9-0.4-1.7-0.9-2.3c-0.6-0.6-1.4-0.9-2.3-0.9c-0.9,0-1.7,0.4-2.3,0.9
	c-0.6,0.6-0.9,1.4-0.9,2.3c0,0.9,0.4,1.7,0.9,2.3C245.8,84.5,246.6,84.9,247.5,84.9z M247.5,93.2c0.9,0,1.8-0.4,2.4-1
	c0.6-0.6,1-1.5,1-2.4c0-0.9-0.4-1.8-1-2.4s-1.5-1-2.4-1c-0.9,0-1.8,0.4-2.4,1c-0.6,0.6-1,1.5-1,2.4c0,0.9,0.4,1.8,1,2.4
	C245.7,92.9,246.6,93.2,247.5,93.2z M236,68.1c0.8,0,1.5-0.3,2-0.8c0.5-0.5,0.8-1.2,0.8-2c0-0.8-0.3-1.5-0.8-2
	c-0.5-0.5-1.2-0.8-2-0.8c-0.8,0-1.5,0.3-2,0.8c-0.5,0.5-0.8,1.2-0.8,2c0,0.8,0.3,1.5,0.8,2C234.5,67.8,235.2,68.1,236,68.1z
	 M236,51.3c0.7,0,1.3-0.3,1.8-0.7c0.5-0.5,0.7-1.1,0.7-1.8c0-0.7-0.3-1.3-0.7-1.8c-0.5-0.5-1.1-0.7-1.8-0.7c-0.7,0-1.3,0.3-1.8,0.7
	c-0.5,0.5-0.7,1.1-0.7,1.8c0,0.7,0.3,1.3,0.7,1.8C234.7,51.1,235.3,51.3,236,51.3z M236,59.7c0.7,0,1.4-0.3,1.9-0.8
	c0.5-0.5,0.8-1.2,0.8-1.9c0-0.7-0.3-1.4-0.8-1.9c-0.5-0.5-1.2-0.8-1.9-0.8c-0.7,0-1.4,0.3-1.9,0.8c-0.5,0.5-0.8,1.2-0.8,1.9
	c0,0.7,0.3,1.4,0.8,1.9C234.6,59.4,235.3,59.7,236,59.7z M236,43c0.6,0,1.2-0.3,1.7-0.7c0.4-0.4,0.7-1,0.7-1.7
	c0-0.6-0.3-1.2-0.7-1.7s-1-0.7-1.7-0.7c-0.6,0-1.2,0.3-1.7,0.7c-0.4,0.4-0.7,1-0.7,1.7c0,0.6,0.3,1.2,0.7,1.7
	C234.8,42.7,235.3,43,236,43z M235.8,84.9c0.9,0,1.7-0.4,2.3-0.9c0.6-0.6,0.9-1.4,0.9-2.3c0-0.9-0.4-1.7-0.9-2.3
	c-0.6-0.6-1.4-0.9-2.3-0.9c-0.9,0-1.7,0.4-2.3,0.9c-0.6,0.6-0.9,1.4-0.9,2.3c0,0.9,0.4,1.7,0.9,2.3
	C234.1,84.5,234.9,84.9,235.8,84.9z M247.5,51.3c0.7,0,1.3-0.3,1.8-0.7c0.5-0.5,0.7-1.1,0.7-1.8c0-0.7-0.3-1.3-0.7-1.8
	c-0.5-0.5-1.1-0.7-1.8-0.7c-0.7,0-1.3,0.3-1.8,0.7c-0.5,0.5-0.7,1.1-0.7,1.8c0,0.7,0.3,1.3,0.7,1.8
	C246.2,51.1,246.8,51.3,247.5,51.3z M198.4,94.5c-1,0-1.9,0.4-2.5,1c-0.6,0.6-1,1.5-1,2.5c0,1,0.4,1.9,1,2.5c0.6,0.6,1.5,1,2.5,1
	c1,0,1.9-0.4,2.5-1c0.6-0.6,1-1.5,1-2.5c0-1-0.4-1.9-1-2.5C200.3,94.9,199.4,94.5,198.4,94.5z M247.5,68.1c0.8,0,1.5-0.3,2-0.8
	c0.5-0.5,0.8-1.2,0.8-2c0-0.8-0.3-1.5-0.8-2c-0.5-0.5-1.2-0.8-2-0.8c-0.8,0-1.5,0.3-2,0.8c-0.5,0.5-0.8,1.2-0.8,2
	c0,0.8,0.3,1.5,0.8,2C246,67.8,246.7,68.1,247.5,68.1z M247.5,59.7c0.7,0,1.4-0.3,1.9-0.8c0.5-0.5,0.8-1.2,0.8-1.9
	c0-0.7-0.3-1.4-0.8-1.9c-0.5-0.5-1.2-0.8-1.9-0.8c-0.7,0-1.4,0.3-1.9,0.8c-0.5,0.5-0.8,1.2-0.8,1.9c0,0.7,0.3,1.4,0.8,1.9
	C246.1,59.4,246.8,59.7,247.5,59.7z M247.5,76.5c0.8,0,1.6-0.3,2.2-0.9c0.6-0.6,0.9-1.3,0.9-2.2c0-0.8-0.3-1.6-0.9-2.2
	c-0.6-0.6-1.3-0.9-2.2-0.9c-0.8,0-1.6,0.3-2.2,0.9c-0.6,0.6-0.9,1.3-0.9,2.2c0,0.8,0.3,1.6,0.9,2.2
	C245.9,76.1,246.7,76.5,247.5,76.5z M273.7,84.9c0.9,0,1.7-0.4,2.3-0.9c0.6-0.6,0.9-1.4,0.9-2.3c0-0.9-0.4-1.7-0.9-2.3
	c-0.6-0.6-1.4-0.9-2.3-0.9c-0.9,0-1.7,0.4-2.3,0.9c-0.6,0.6-0.9,1.4-0.9,2.3c0,0.9,0.4,1.7,0.9,2.3C272,84.5,272.8,84.9,273.7,84.9z
	 M122,76.5c0.8,0,1.6-0.3,2.2-0.9c0.6-0.6,0.9-1.3,0.9-2.2c0-0.8-0.3-1.6-0.9-2.2c-0.6-0.6-1.3-0.9-2.2-0.9c-0.8,0-1.6,0.3-2.2,0.9
	c-0.6,0.6-0.9,1.3-0.9,2.2c0,0.8,0.3,1.6,0.9,2.2C120.4,76.1,121.1,76.5,122,76.5z M134.1,101.6c1,0,1.9-0.4,2.5-1
	c0.6-0.6,1-1.5,1-2.5c0-1-0.4-1.9-1-2.5c-0.6-0.6-1.5-1-2.5-1c-1,0-1.9,0.4-2.5,1c-0.6,0.6-1,1.5-1,2.5c0,1,0.4,1.9,1,2.5
	C132.3,101.2,133.2,101.6,134.1,101.6z M134.1,93.2c0.9,0,1.8-0.4,2.4-1c0.6-0.6,1-1.5,1-2.4c0-0.9-0.4-1.8-1-2.4
	c-0.6-0.6-1.5-1-2.4-1c-0.9,0-1.8,0.4-2.4,1c-0.6,0.6-1,1.5-1,2.4c0,0.9,0.4,1.8,1,2.4C132.4,92.9,133.2,93.2,134.1,93.2z M122,93.2
	c0.9,0,1.8-0.4,2.4-1c0.6-0.6,1-1.5,1-2.4c0-0.9-0.4-1.8-1-2.4c-0.6-0.6-1.5-1-2.4-1c-0.9,0-1.8,0.4-2.4,1c-0.6,0.6-1,1.5-1,2.4
	c0,0.9,0.4,1.8,1,2.4C120.2,92.9,121,93.2,122,93.2z M122,101.6c1,0,1.9-0.4,2.5-1c0.6-0.6,1-1.5,1-2.5c0-1-0.4-1.9-1-2.5
	c-0.6-0.6-1.5-1-2.5-1c-1,0-1.9,0.4-2.5,1c-0.6,0.6-1,1.5-1,2.5c0,1,0.4,1.9,1,2.5C120.1,101.2,121,101.6,122,101.6z M122,84.9
	c0.9,0,1.7-0.4,2.3-0.9c0.6-0.6,0.9-1.4,0.9-2.3c0-0.9-0.4-1.7-0.9-2.3c-0.6-0.6-1.4-0.9-2.3-0.9c-0.9,0-1.7,0.4-2.3,0.9
	c-0.6,0.6-0.9,1.4-0.9,2.3c0,0.9,0.4,1.7,0.9,2.3C120.3,84.5,121.1,84.9,122,84.9z M134.1,84.9c0.9,0,1.7-0.4,2.3-0.9
	c0.6-0.6,0.9-1.4,0.9-2.3c0-0.9-0.4-1.7-0.9-2.3c-0.6-0.6-1.4-0.9-2.3-0.9c-0.9,0-1.7,0.4-2.3,0.9c-0.6,0.6-0.9,1.4-0.9,2.3
	c0,0.9,0.4,1.7,0.9,2.3C132.4,84.5,133.3,84.9,134.1,84.9z M147.2,84.9c0.9,0,1.7-0.4,2.3-0.9c0.6-0.6,0.9-1.4,0.9-2.3
	c0-0.9-0.4-1.7-0.9-2.3c-0.6-0.6-1.4-0.9-2.3-0.9c-0.9,0-1.7,0.4-2.3,0.9c-0.6,0.6-0.9,1.4-0.9,2.3c0,0.9,0.4,1.7,0.9,2.3
	C145.5,84.5,146.3,84.9,147.2,84.9z M147.2,93.2c0.9,0,1.8-0.4,2.4-1c0.6-0.6,1-1.5,1-2.4c0-0.9-0.4-1.8-1-2.4c-0.6-0.6-1.5-1-2.4-1
	s-1.8,0.4-2.4,1c-0.6,0.6-1,1.5-1,2.4c0,0.9,0.4,1.8,1,2.4C145.4,92.9,146.3,93.2,147.2,93.2z M147.2,101.6c1,0,1.9-0.4,2.5-1
	c0.6-0.6,1-1.5,1-2.5c0-1-0.4-1.9-1-2.5c-0.6-0.6-1.5-1-2.5-1c-1,0-1.9,0.4-2.5,1c-0.6,0.6-1,1.5-1,2.5c0,1,0.4,1.9,1,2.5
	C145.3,101.2,146.2,101.6,147.2,101.6z M122,102.5c-2.1,0-3.7,1.7-3.7,3.7c0,1,0.4,2,1.1,2.6c0.7,0.7,1.6,1.1,2.6,1.1
	c1,0,2-0.4,2.6-1.1c0.7-0.7,1.1-1.6,1.1-2.6C125.7,104.2,124,102.5,122,102.5z M134.1,59.7c0.7,0,1.4-0.3,1.9-0.8
	c0.5-0.5,0.8-1.2,0.8-1.9c0-0.7-0.3-1.4-0.8-1.9c-0.5-0.5-1.2-0.8-1.9-0.8c-0.7,0-1.4,0.3-1.9,0.8c-0.5,0.5-0.8,1.2-0.8,1.9
	c0,0.7,0.3,1.4,0.8,1.9C132.7,59.4,133.4,59.7,134.1,59.7z M134.1,68.1c0.8,0,1.5-0.3,2-0.8c0.5-0.5,0.8-1.2,0.8-2
	c0-0.8-0.3-1.5-0.8-2c-0.5-0.5-1.2-0.8-2-0.8c-0.8,0-1.5,0.3-2,0.8c-0.5,0.5-0.8,1.2-0.8,2c0,0.8,0.3,1.5,0.8,2
	C132.6,67.8,133.4,68.1,134.1,68.1z M134.1,76.5c0.8,0,1.6-0.3,2.2-0.9c0.6-0.6,0.9-1.3,0.9-2.2c0-0.8-0.3-1.6-0.9-2.2
	c-0.6-0.6-1.3-0.9-2.2-0.9c-0.8,0-1.6,0.3-2.2,0.9c-0.6,0.6-0.9,1.3-0.9,2.2c0,0.8,0.3,1.6,0.9,2.2
	C132.5,76.1,133.3,76.5,134.1,76.5z M134.1,51.3c0.7,0,1.3-0.3,1.8-0.7c0.5-0.5,0.7-1.1,0.7-1.8c0-0.7-0.3-1.3-0.7-1.8
	c-0.5-0.5-1.1-0.7-1.8-0.7c-0.7,0-1.3,0.3-1.8,0.7c-0.5,0.5-0.7,1.1-0.7,1.8c0,0.7,0.3,1.3,0.7,1.8
	C132.8,51.1,133.5,51.3,134.1,51.3z M211.5,102.5c-2.1,0-3.7,1.7-3.7,3.7c0,1,0.4,2,1.1,2.6c0.7,0.7,1.6,1.1,2.6,1.1
	c1,0,2-0.4,2.6-1.1c0.7-0.7,1.1-1.6,1.1-2.6C215.2,104.2,213.6,102.5,211.5,102.5z M247.3,101.6c1,0,1.9-0.4,2.5-1
	c0.6-0.6,1-1.5,1-2.5c0-1-0.4-1.9-1-2.5c-0.6-0.6-1.5-1-2.5-1c-1,0-1.9,0.4-2.5,1c-0.6,0.6-1,1.5-1,2.5c0,1,0.4,1.9,1,2.5
	C245.4,101.2,246.3,101.6,247.3,101.6z M247.5,102.5c-2.1,0-3.7,1.7-3.7,3.7c0,1,0.4,2,1.1,2.6c0.7,0.7,1.6,1.1,2.6,1.1
	c1,0,2-0.4,2.6-1.1c0.7-0.7,1.1-1.6,1.1-2.6C251.3,104.2,249.6,102.5,247.5,102.5z M224.6,102.5c-2.1,0-3.7,1.7-3.7,3.7
	c0,1,0.4,2,1.1,2.6c0.7,0.7,1.6,1.1,2.6,1.1c1,0,2-0.4,2.6-1.1c0.7-0.7,1.1-1.6,1.1-2.6C228.3,104.2,226.6,102.5,224.6,102.5z
	 M235.8,102.5c-2.1,0-3.7,1.7-3.7,3.7c0,1,0.4,2,1.1,2.6c0.7,0.7,1.6,1.1,2.6,1.1c1,0,2-0.4,2.6-1.1c0.7-0.7,1.1-1.6,1.1-2.6
	C239.5,104.2,237.8,102.5,235.8,102.5z M134.1,102.5c-2.1,0-3.7,1.7-3.7,3.7c0,1,0.4,2,1.1,2.6c0.7,0.7,1.6,1.1,2.6,1.1
	c1,0,2-0.4,2.6-1.1c0.7-0.7,1.1-1.6,1.1-2.6C137.9,104.2,136.2,102.5,134.1,102.5z M260.6,102.5c-2.1,0-3.7,1.7-3.7,3.7
	c0,1,0.4,2,1.1,2.6c0.7,0.7,1.6,1.1,2.6,1.1c1,0,2-0.4,2.6-1.1c0.7-0.7,1.1-1.6,1.1-2.6C264.3,104.2,262.7,102.5,260.6,102.5z
	 M273.7,102.5c-2.1,0-3.7,1.7-3.7,3.7c0,1,0.4,2,1.1,2.6c0.7,0.7,1.6,1.1,2.6,1.1c1,0,2-0.4,2.6-1.1c0.7-0.7,1.1-1.6,1.1-2.6
	C277.4,104.2,275.7,102.5,273.7,102.5z M286.7,102.5c-2.1,0-3.7,1.7-3.7,3.7c0,1,0.4,2,1.1,2.6c0.7,0.7,1.6,1.1,2.6,1.1
	s2-0.4,2.6-1.1c0.7-0.7,1.1-1.6,1.1-2.6C290.5,104.2,288.8,102.5,286.7,102.5z M147.2,76.5c0.8,0,1.6-0.3,2.2-0.9
	c0.6-0.6,0.9-1.3,0.9-2.2c0-0.8-0.3-1.6-0.9-2.2c-0.6-0.6-1.3-0.9-2.2-0.9c-0.8,0-1.6,0.3-2.2,0.9c-0.6,0.6-0.9,1.3-0.9,2.2
	c0,0.8,0.3,1.6,0.9,2.2C145.6,76.1,146.4,76.5,147.2,76.5z M147.2,102.5c-2.1,0-3.7,1.7-3.7,3.7c0,1,0.4,2,1.1,2.6
	c0.7,0.7,1.6,1.1,2.6,1.1s2-0.4,2.6-1.1c0.7-0.7,1.1-1.6,1.1-2.6C151,104.2,149.3,102.5,147.2,102.5z M172.3,102.5
	c-2.1,0-3.7,1.7-3.7,3.7c0,1,0.4,2,1.1,2.6c0.7,0.7,1.6,1.1,2.6,1.1s2-0.4,2.6-1.1c0.7-0.7,1.1-1.6,1.1-2.6
	C176,104.2,174.4,102.5,172.3,102.5z M159.2,102.5c-2.1,0-3.7,1.7-3.7,3.7c0,1,0.4,2,1.1,2.6c0.7,0.7,1.6,1.1,2.6,1.1
	c1,0,2-0.4,2.6-1.1c0.7-0.7,1.1-1.6,1.1-2.6C163,104.2,161.3,102.5,159.2,102.5z M198.4,102.5c-2.1,0-3.7,1.7-3.7,3.7
	c0,1,0.4,2,1.1,2.6c0.7,0.7,1.6,1.1,2.6,1.1c1,0,2-0.4,2.6-1.1c0.7-0.7,1.1-1.6,1.1-2.6C202.2,104.2,200.5,102.5,198.4,102.5z
	 M185.4,102.5c-2.1,0-3.7,1.7-3.7,3.7c0,1,0.4,2,1.1,2.6c0.7,0.7,1.6,1.1,2.6,1.1c1,0,2-0.4,2.6-1.1c0.7-0.7,1.1-1.6,1.1-2.6
	C189.1,104.2,187.4,102.5,185.4,102.5z M184.9,26.2c0.5,0,1.1-0.2,1.4-0.6c0.4-0.4,0.6-0.9,0.6-1.4c0-0.5-0.2-1.1-0.6-1.4
	c-0.4-0.4-0.9-0.6-1.4-0.6c-0.5,0-1.1,0.2-1.4,0.6c-0.4,0.4-0.6,0.9-0.6,1.4c0,0.5,0.2,1.1,0.6,1.4C183.8,26,184.3,26.2,184.9,26.2z
	 M185.4,93.2c0.9,0,1.8-0.4,2.4-1c0.6-0.6,1-1.5,1-2.4c0-0.9-0.4-1.8-1-2.4c-0.6-0.6-1.5-1-2.4-1c-0.9,0-1.8,0.4-2.4,1
	c-0.6,0.6-1,1.5-1,2.4c0,0.9,0.4,1.8,1,2.4C183.6,92.9,184.4,93.2,185.4,93.2z M185.4,76.5c0.8,0,1.6-0.3,2.2-0.9
	c0.6-0.6,0.9-1.3,0.9-2.2c0-0.8-0.3-1.6-0.9-2.2c-0.6-0.6-1.3-0.9-2.2-0.9c-0.8,0-1.6,0.3-2.2,0.9c-0.6,0.6-0.9,1.3-0.9,2.2
	c0,0.8,0.3,1.6,0.9,2.2C183.8,76.1,184.5,76.5,185.4,76.5z M172.3,76.5c0.8,0,1.6-0.3,2.2-0.9c0.6-0.6,0.9-1.3,0.9-2.2
	c0-0.8-0.3-1.6-0.9-2.2c-0.6-0.6-1.3-0.9-2.2-0.9c-0.8,0-1.6,0.3-2.2,0.9c-0.6,0.6-0.9,1.3-0.9,2.2c0,0.8,0.3,1.6,0.9,2.2
	C170.7,76.1,171.4,76.5,172.3,76.5z M185.4,101.6c1,0,1.9-0.4,2.5-1c0.6-0.6,1-1.5,1-2.5c0-1-0.4-1.9-1-2.5c-0.6-0.6-1.5-1-2.5-1
	c-1,0-1.9,0.4-2.5,1c-0.6,0.6-1,1.5-1,2.5c0,1,0.4,1.9,1,2.5C183.5,101.2,184.4,101.6,185.4,101.6z M172.3,51.3
	c0.7,0,1.3-0.3,1.8-0.7c0.5-0.5,0.7-1.1,0.7-1.8c0-0.7-0.3-1.3-0.7-1.8c-0.5-0.5-1.1-0.7-1.8-0.7c-0.7,0-1.3,0.3-1.8,0.7
	c-0.5,0.5-0.7,1.1-0.7,1.8c0,0.7,0.3,1.3,0.7,1.8C171,51.1,171.6,51.3,172.3,51.3z M172.3,68.1c0.8,0,1.5-0.3,2-0.8
	c0.5-0.5,0.8-1.2,0.8-2c0-0.8-0.3-1.5-0.8-2c-0.5-0.5-1.2-0.8-2-0.8c-0.8,0-1.5,0.3-2,0.8c-0.5,0.5-0.8,1.2-0.8,2
	c0,0.8,0.3,1.5,0.8,2C170.8,67.8,171.5,68.1,172.3,68.1z M172.3,59.7c0.7,0,1.4-0.3,1.9-0.8c0.5-0.5,0.8-1.2,0.8-1.9
	c0-0.7-0.3-1.4-0.8-1.9c-0.5-0.5-1.2-0.8-1.9-0.8c-0.7,0-1.4,0.3-1.9,0.8c-0.5,0.5-0.8,1.2-0.8,1.9c0,0.7,0.3,1.4,0.8,1.9
	C170.9,59.4,171.5,59.7,172.3,59.7z M185.4,84.9c0.9,0,1.7-0.4,2.3-0.9c0.6-0.6,0.9-1.4,0.9-2.3c0-0.9-0.4-1.7-0.9-2.3
	c-0.6-0.6-1.4-0.9-2.3-0.9s-1.7,0.4-2.3,0.9c-0.6,0.6-0.9,1.4-0.9,2.3c0,0.9,0.4,1.7,0.9,2.3C183.7,84.5,184.5,84.9,185.4,84.9z
	 M184.9,17.8c0.5,0,1-0.2,1.3-0.5c0.3-0.3,0.5-0.8,0.5-1.3c0-0.5-0.2-1-0.5-1.3c-0.3-0.3-0.8-0.5-1.3-0.5c-0.5,0-1,0.2-1.3,0.5
	c-0.3,0.3-0.5,0.8-0.5,1.3c0,0.5,0.2,1,0.5,1.3C183.9,17.6,184.4,17.8,184.9,17.8z M185.4,68.1c0.8,0,1.5-0.3,2-0.8
	c0.5-0.5,0.8-1.2,0.8-2c0-0.8-0.3-1.5-0.8-2c-0.5-0.5-1.2-0.8-2-0.8c-0.8,0-1.5,0.3-2,0.8c-0.5,0.5-0.8,1.2-0.8,2
	c0,0.8,0.3,1.5,0.8,2C183.8,67.8,184.6,68.1,185.4,68.1z M184.9,9.4c0.4,0,0.9-0.2,1.2-0.5c0.3-0.3,0.5-0.7,0.5-1.2
	c0-0.4-0.2-0.9-0.5-1.2c-0.3-0.3-0.7-0.5-1.2-0.5c-0.4,0-0.9,0.2-1.2,0.5c-0.3,0.3-0.5,0.7-0.5,1.2c0,0.4,0.2,0.9,0.5,1.2
	C184,9.3,184.4,9.4,184.9,9.4z M198.2,93.2c0.9,0,1.8-0.4,2.4-1c0.6-0.6,1-1.5,1-2.4c0-0.9-0.4-1.8-1-2.4s-1.5-1-2.4-1
	c-0.9,0-1.8,0.4-2.4,1s-1,1.5-1,2.4c0,0.9,0.4,1.8,1,2.4C196.4,92.9,197.3,93.2,198.2,93.2z M185.1,51.3c0.7,0,1.3-0.3,1.8-0.7
	c0.5-0.5,0.7-1.1,0.7-1.8c0-0.7-0.3-1.3-0.7-1.8c-0.5-0.5-1.1-0.7-1.8-0.7c-0.7,0-1.3,0.3-1.8,0.7c-0.5,0.5-0.7,1.1-0.7,1.8
	c0,0.7,0.3,1.3,0.7,1.8C183.8,51.1,184.4,51.3,185.1,51.3z M185.1,43c0.6,0,1.2-0.3,1.7-0.7c0.4-0.4,0.7-1,0.7-1.7
	c0-0.6-0.3-1.2-0.7-1.7c-0.4-0.4-1-0.7-1.7-0.7c-0.6,0-1.2,0.3-1.7,0.7c-0.4,0.4-0.7,1-0.7,1.7c0,0.6,0.3,1.2,0.7,1.7
	C183.9,42.7,184.5,43,185.1,43z M159.2,76.5c0.8,0,1.6-0.3,2.2-0.9c0.6-0.6,0.9-1.3,0.9-2.2c0-0.8-0.3-1.6-0.9-2.2
	c-0.6-0.6-1.3-0.9-2.2-0.9c-0.8,0-1.6,0.3-2.2,0.9c-0.6,0.6-0.9,1.3-0.9,2.2c0,0.8,0.3,1.6,0.9,2.2
	C157.6,76.1,158.4,76.5,159.2,76.5z M159.2,84.9c0.9,0,1.7-0.4,2.3-0.9c0.6-0.6,0.9-1.4,0.9-2.3c0-0.9-0.4-1.7-0.9-2.3
	c-0.6-0.6-1.4-0.9-2.3-0.9c-0.9,0-1.7,0.4-2.3,0.9c-0.6,0.6-0.9,1.4-0.9,2.3c0,0.9,0.4,1.7,0.9,2.3
	C157.5,84.5,158.3,84.9,159.2,84.9z M159.2,93.2c0.9,0,1.8-0.4,2.4-1c0.6-0.6,1-1.5,1-2.4c0-0.9-0.4-1.8-1-2.4c-0.6-0.6-1.5-1-2.4-1
	c-0.9,0-1.8,0.4-2.4,1c-0.6,0.6-1,1.5-1,2.4c0,0.9,0.4,1.8,1,2.4C157.4,92.9,158.3,93.2,159.2,93.2z M147.2,68.1
	c0.8,0,1.5-0.3,2-0.8c0.5-0.5,0.8-1.2,0.8-2c0-0.8-0.3-1.5-0.8-2c-0.5-0.5-1.2-0.8-2-0.8s-1.5,0.3-2,0.8c-0.5,0.5-0.8,1.2-0.8,2
	c0,0.8,0.3,1.5,0.8,2C145.7,67.8,146.4,68.1,147.2,68.1z M159.2,101.6c1,0,1.9-0.4,2.5-1c0.6-0.6,1-1.5,1-2.5c0-1-0.4-1.9-1-2.5
	c-0.6-0.6-1.5-1-2.5-1c-1,0-1.9,0.4-2.5,1c-0.6,0.6-1,1.5-1,2.5c0,1,0.4,1.9,1,2.5C157.3,101.2,158.2,101.6,159.2,101.6z M147,51.3
	c0.7,0,1.3-0.3,1.8-0.7c0.5-0.5,0.7-1.1,0.7-1.8c0-0.7-0.3-1.3-0.7-1.8c-0.5-0.5-1.1-0.7-1.8-0.7c-0.7,0-1.3,0.3-1.8,0.7
	c-0.5,0.5-0.7,1.1-0.7,1.8c0,0.7,0.3,1.3,0.7,1.8C145.6,51.1,146.3,51.3,147,51.3z M159.2,68.1c0.8,0,1.5-0.3,2-0.8
	c0.5-0.5,0.8-1.2,0.8-2c0-0.8-0.3-1.5-0.8-2c-0.5-0.5-1.2-0.8-2-0.8c-0.8,0-1.5,0.3-2,0.8c-0.5,0.5-0.8,1.2-0.8,2
	c0,0.8,0.3,1.5,0.8,2C157.7,67.8,158.4,68.1,159.2,68.1z M147,43c0.6,0,1.2-0.3,1.7-0.7c0.4-0.4,0.7-1,0.7-1.7
	c0-0.6-0.3-1.2-0.7-1.7c-0.4-0.4-1-0.7-1.7-0.7c-0.6,0-1.2,0.3-1.7,0.7c-0.4,0.4-0.7,1-0.7,1.7c0,0.6,0.3,1.2,0.7,1.7
	C145.7,42.7,146.3,43,147,43z M159.2,34.6c0.6,0,1.1-0.2,1.6-0.6c0.4-0.4,0.6-1,0.6-1.6c0-0.6-0.2-1.1-0.6-1.6
	c-0.4-0.4-1-0.6-1.6-0.6c-0.6,0-1.1,0.2-1.6,0.6c-0.4,0.4-0.6,1-0.6,1.6c0,0.6,0.2,1.1,0.6,1.6C158.1,34.3,158.6,34.6,159.2,34.6z
	 M159.2,59.7c0.7,0,1.4-0.3,1.9-0.8c0.5-0.5,0.8-1.2,0.8-1.9c0-0.7-0.3-1.4-0.8-1.9c-0.5-0.5-1.2-0.8-1.9-0.8
	c-0.7,0-1.4,0.3-1.9,0.8c-0.5,0.5-0.8,1.2-0.8,1.9c0,0.7,0.3,1.4,0.8,1.9C157.8,59.4,158.5,59.7,159.2,59.7z M172.3,93.2
	c0.9,0,1.8-0.4,2.4-1c0.6-0.6,1-1.5,1-2.4c0-0.9-0.4-1.8-1-2.4c-0.6-0.6-1.5-1-2.4-1c-0.9,0-1.8,0.4-2.4,1c-0.6,0.6-1,1.5-1,2.4
	c0,0.9,0.4,1.8,1,2.4C170.5,92.9,171.4,93.2,172.3,93.2z M172.3,84.9c0.9,0,1.7-0.4,2.3-0.9c0.6-0.6,0.9-1.4,0.9-2.3
	c0-0.9-0.4-1.7-0.9-2.3c-0.6-0.6-1.4-0.9-2.3-0.9c-0.9,0-1.7,0.4-2.3,0.9c-0.6,0.6-0.9,1.4-0.9,2.3c0,0.9,0.4,1.7,0.9,2.3
	C170.6,84.5,171.4,84.9,172.3,84.9z M172.3,101.6c1,0,1.9-0.4,2.5-1c0.6-0.6,1-1.5,1-2.5c0-1-0.4-1.9-1-2.5c-0.6-0.6-1.5-1-2.5-1
	c-1,0-1.9,0.4-2.5,1c-0.6,0.6-1,1.5-1,2.5c0,1,0.4,1.9,1,2.5C170.4,101.2,171.3,101.6,172.3,101.6z M159.2,43c0.6,0,1.2-0.3,1.7-0.7
	c0.4-0.4,0.7-1,0.7-1.7c0-0.6-0.3-1.2-0.7-1.7s-1-0.7-1.7-0.7c-0.6,0-1.2,0.3-1.7,0.7c-0.4,0.4-0.7,1-0.7,1.7c0,0.6,0.3,1.2,0.7,1.7
	C158,42.7,158.6,43,159.2,43z M159.2,51.3c0.7,0,1.3-0.3,1.8-0.7c0.5-0.5,0.7-1.1,0.7-1.8c0-0.7-0.3-1.3-0.7-1.8
	c-0.5-0.5-1.1-0.7-1.8-0.7c-0.7,0-1.3,0.3-1.8,0.7c-0.5,0.5-0.7,1.1-0.7,1.8c0,0.7,0.3,1.3,0.7,1.8
	C157.9,51.1,158.5,51.3,159.2,51.3z M31.9,101.5c0.9,0,1.8-0.4,2.4-1c0.6-0.6,1-1.5,1-2.4c0-0.9-0.4-1.8-1-2.4c-0.6-0.6-1.5-1-2.4-1
	c-0.9,0-1.8,0.4-2.4,1c-0.6,0.6-1,1.5-1,2.4c0,0.9,0.4,1.8,1,2.4C30.1,101.2,31,101.5,31.9,101.5z M31.9,84.6c0.8,0,1.6-0.3,2.2-0.9
	c0.6-0.6,0.9-1.3,0.9-2.2c0-0.8-0.3-1.6-0.9-2.2c-0.6-0.6-1.3-0.9-2.2-0.9c-0.8,0-1.6,0.3-2.2,0.9c-0.6,0.6-0.9,1.3-0.9,2.2
	c0,0.8,0.3,1.6,0.9,2.2C30.3,84.3,31.1,84.6,31.9,84.6z M8.4,102.8c-1,0-1.9,0.4-2.5,1.1c-0.7,0.7-1.1,1.6-1.1,2.5
	c0,1,0.4,1.9,1.1,2.5c0.7,0.7,1.6,1.1,2.5,1.1c1,0,1.9-0.4,2.5-1.1c0.7-0.7,1.1-1.6,1.1-2.5c0-1-0.4-1.9-1.1-2.5
	C10.3,103.2,9.4,102.8,8.4,102.8z M57.5,94.7c-0.9,0-1.8,0.4-2.4,1c-0.6,0.6-1,1.5-1,2.4c0,0.9,0.4,1.8,1,2.4c0.6,0.6,1.5,1,2.4,1
	c0.9,0,1.8-0.4,2.4-1c0.6-0.6,1-1.5,1-2.4c0-0.9-0.4-1.8-1-2.4C59.3,95.1,58.4,94.7,57.5,94.7z M31.9,102.8c-1,0-1.9,0.4-2.5,1.1
	c-0.7,0.7-1.1,1.6-1.1,2.5c0,1,0.4,1.9,1.1,2.5c0.7,0.7,1.6,1.1,2.5,1.1c1,0,1.9-0.4,2.5-1.1c0.7-0.7,1.1-1.6,1.1-2.5
	c0-1-0.4-1.9-1.1-2.5C33.8,103.2,32.9,102.8,31.9,102.8z M20.2,94.7c-0.9,0-1.8,0.4-2.4,1c-0.6,0.6-1,1.5-1,2.4c0,0.9,0.4,1.8,1,2.4
	c0.6,0.6,1.5,1,2.4,1c0.9,0,1.8-0.4,2.4-1c0.6-0.6,1-1.5,1-2.4c0-0.9-0.4-1.8-1-2.4C22,95.1,21.1,94.7,20.2,94.7z M83.9,101.5
	c0.9,0,1.8-0.4,2.4-1c0.6-0.6,1-1.5,1-2.4c0-0.9-0.4-1.8-1-2.4c-0.6-0.6-1.5-1-2.4-1c-0.9,0-1.8,0.4-2.4,1c-0.6,0.6-1,1.5-1,2.4
	c0,0.9,0.4,1.8,1,2.4C82.1,101.2,82.9,101.5,83.9,101.5z M70.4,93.1c0.9,0,1.7-0.4,2.3-1c0.6-0.6,1-1.4,1-2.3c0-0.9-0.4-1.7-1-2.3
	c-0.6-0.6-1.4-1-2.3-1c-0.9,0-1.7,0.4-2.3,1c-0.6,0.6-1,1.4-1,2.3c0,0.9,0.4,1.7,1,2.3C68.7,92.7,69.5,93.1,70.4,93.1z M57.5,84.6
	c0.8,0,1.6-0.3,2.2-0.9c0.6-0.6,0.9-1.3,0.9-2.2c0-0.8-0.3-1.6-0.9-2.2c-0.6-0.6-1.3-0.9-2.2-0.9c-0.8,0-1.6,0.3-2.2,0.9
	c-0.6,0.6-0.9,1.3-0.9,2.2c0,0.8,0.3,1.6,0.9,2.2C55.9,84.3,56.6,84.6,57.5,84.6z M57.5,76.2c0.8,0,1.5-0.3,2.1-0.9
	c0.5-0.5,0.9-1.3,0.9-2.1c0-0.8-0.3-1.5-0.9-2.1c-0.5-0.5-1.3-0.9-2.1-0.9c-0.8,0-1.5,0.3-2.1,0.9c-0.5,0.5-0.9,1.3-0.9,2.1
	c0,0.8,0.3,1.5,0.9,2.1C56,75.9,56.7,76.2,57.5,76.2z M70.7,94.7c-0.9,0-1.8,0.4-2.4,1c-0.6,0.6-1,1.5-1,2.4c0,0.9,0.4,1.8,1,2.4
	c0.6,0.6,1.5,1,2.4,1c0.9,0,1.8-0.4,2.4-1c0.6-0.6,1-1.5,1-2.4c0-0.9-0.4-1.8-1-2.4C72.5,95.1,71.6,94.7,70.7,94.7z M110.2,101.5
	c0.9,0,1.8-0.4,2.4-1c0.6-0.6,1-1.5,1-2.4c0-0.9-0.4-1.8-1-2.4c-0.6-0.6-1.5-1-2.4-1c-0.9,0-1.8,0.4-2.4,1c-0.6,0.6-1,1.5-1,2.4
	c0,0.9,0.4,1.8,1,2.4C108.4,101.2,109.3,101.5,110.2,101.5z M97,102.8c-1,0-1.9,0.4-2.5,1.1c-0.7,0.7-1.1,1.6-1.1,2.5
	c0,1,0.4,1.9,1.1,2.5c0.7,0.7,1.6,1.1,2.5,1.1c1,0,1.9-0.4,2.5-1.1c0.7-0.7,1.1-1.6,1.1-2.5c0-1-0.4-1.9-1.1-2.5
	C98.9,103.2,98,102.8,97,102.8z M43.8,101.5c0.9,0,1.8-0.4,2.4-1c0.6-0.6,1-1.5,1-2.4c0-0.9-0.4-1.8-1-2.4c-0.6-0.6-1.5-1-2.4-1
	c-0.9,0-1.8,0.4-2.4,1c-0.6,0.6-1,1.5-1,2.4c0,0.9,0.4,1.8,1,2.4C42,101.2,42.9,101.5,43.8,101.5z M110.5,102.8
	c-1,0-1.9,0.4-2.5,1.1c-0.7,0.7-1.1,1.6-1.1,2.5c0,1,0.4,1.9,1.1,2.5c0.7,0.7,1.6,1.1,2.5,1.1c1,0,1.9-0.4,2.5-1.1
	c0.7-0.7,1.1-1.6,1.1-2.5c0-1-0.4-1.9-1.1-2.5C112.4,103.2,111.5,102.8,110.5,102.8z M83.9,93.1c0.9,0,1.7-0.4,2.3-1
	c0.6-0.6,1-1.4,1-2.3c0-0.9-0.4-1.7-1-2.3c-0.6-0.6-1.4-1-2.3-1c-0.9,0-1.7,0.4-2.3,1c-0.6,0.6-1,1.4-1,2.3c0,0.9,0.4,1.7,1,2.3
	C82.1,92.7,83,93.1,83.9,93.1z M83.9,102.8c-1,0-1.9,0.4-2.5,1.1c-0.7,0.7-1.1,1.6-1.1,2.5c0,1,0.4,1.9,1.1,2.5
	c0.7,0.7,1.6,1.1,2.5,1.1c1,0,1.9-0.4,2.5-1.1c0.7-0.7,1.1-1.6,1.1-2.5c0-1-0.4-1.9-1.1-2.5C85.7,103.2,84.8,102.8,83.9,102.8z
	 M57,93.1c0.9,0,1.7-0.4,2.3-1c0.6-0.6,1-1.4,1-2.3c0-0.9-0.4-1.7-1-2.3c-0.6-0.6-1.4-1-2.3-1c-0.9,0-1.7,0.4-2.3,1
	c-0.6,0.6-1,1.4-1,2.3c0,0.9,0.4,1.7,1,2.3C55.3,92.7,56.1,93.1,57,93.1z M44.3,102.8c-1,0-1.9,0.4-2.5,1.1
	c-0.7,0.7-1.1,1.6-1.1,2.5c0,1,0.4,1.9,1.1,2.5c0.7,0.7,1.6,1.1,2.5,1.1c1,0,1.9-0.4,2.5-1.1c0.7-0.7,1.1-1.6,1.1-2.5
	c0-1-0.4-1.9-1.1-2.5C46.2,103.2,45.3,102.8,44.3,102.8z M70.7,102.8c-1,0-1.9,0.4-2.5,1.1c-0.7,0.7-1.1,1.6-1.1,2.5
	c0,1,0.4,1.9,1.1,2.5c0.7,0.7,1.6,1.1,2.5,1.1s1.9-0.4,2.5-1.1c0.7-0.7,1.1-1.6,1.1-2.5c0-1-0.4-1.9-1.1-2.5
	C72.6,103.2,71.7,102.8,70.7,102.8z M57.5,102.8c-1,0-1.9,0.4-2.5,1.1c-0.7,0.7-1.1,1.6-1.1,2.5c0,1,0.4,1.9,1.1,2.5
	c0.7,0.7,1.6,1.1,2.5,1.1c1,0,1.9-0.4,2.5-1.1c0.7-0.7,1.1-1.6,1.1-2.5c0-1-0.4-1.9-1.1-2.5C59.4,103.2,58.5,102.8,57.5,102.8z
	 M83.9,70.4c-0.8,0-1.5,0.3-2.1,0.9c-0.5,0.5-0.9,1.3-0.9,2.1c0,0.8,0.3,1.5,0.9,2.1c0.5,0.5,1.3,0.9,2.1,0.9c0.8,0,1.5-0.3,2.1-0.9
	c0.5-0.5,0.9-1.3,0.9-2.1c0-0.8-0.3-1.5-0.9-2.1C85.4,70.7,84.7,70.4,83.9,70.4z M110.2,59.3c0.7,0,1.3-0.3,1.8-0.7
	c0.5-0.5,0.8-1.1,0.8-1.8c0-0.7-0.3-1.3-0.8-1.8c-0.5-0.5-1.1-0.8-1.8-0.8c-0.7,0-1.3,0.3-1.8,0.8c-0.5,0.5-0.8,1.1-0.8,1.8
	c0,0.7,0.3,1.3,0.8,1.8C108.9,59,109.5,59.3,110.2,59.3z M110.2,67.7c0.7,0,1.4-0.3,1.9-0.8c0.5-0.5,0.8-1.2,0.8-1.9
	c0-0.7-0.3-1.4-0.8-1.9c-0.5-0.5-1.2-0.8-1.9-0.8c-0.7,0-1.4,0.3-1.9,0.8c-0.5,0.5-0.8,1.2-0.8,1.9c0,0.7,0.3,1.4,0.8,1.9
	C108.8,67.4,109.5,67.7,110.2,67.7z M110.2,76.2c0.8,0,1.5-0.3,2.1-0.9c0.5-0.5,0.9-1.3,0.9-2.1c0-0.8-0.3-1.5-0.9-2.1
	c-0.5-0.5-1.3-0.9-2.1-0.9c-0.8,0-1.5,0.3-2.1,0.9c-0.5,0.5-0.9,1.3-0.9,2.1c0,0.8,0.3,1.5,0.9,2.1
	C108.7,75.9,109.4,76.2,110.2,76.2z M97,93.1c0.9,0,1.7-0.4,2.3-1c0.6-0.6,1-1.4,1-2.3c0-0.9-0.4-1.7-1-2.3c-0.6-0.6-1.4-1-2.3-1
	c-0.9,0-1.7,0.4-2.3,1c-0.6,0.6-1,1.4-1,2.3c0,0.9,0.4,1.7,1,2.3C95.3,92.7,96.1,93.1,97,93.1z M97,84.6c0.8,0,1.6-0.3,2.2-0.9
	c0.6-0.6,0.9-1.3,0.9-2.2c0-0.8-0.3-1.6-0.9-2.2c-0.6-0.6-1.3-0.9-2.2-0.9c-0.8,0-1.6,0.3-2.2,0.9c-0.6,0.6-0.9,1.3-0.9,2.2
	c0,0.8,0.3,1.6,0.9,2.2C95.4,84.3,96.2,84.6,97,84.6z M110.2,84.6c0.8,0,1.6-0.3,2.2-0.9c0.6-0.6,0.9-1.3,0.9-2.2
	c0-0.8-0.3-1.6-0.9-2.2c-0.6-0.6-1.3-0.9-2.2-0.9c-0.8,0-1.6,0.3-2.2,0.9c-0.6,0.6-0.9,1.3-0.9,2.2c0,0.8,0.3,1.6,0.9,2.2
	C108.6,84.3,109.4,84.6,110.2,84.6z M97,76.2c0.8,0,1.5-0.3,2.1-0.9c0.5-0.5,0.9-1.3,0.9-2.1c0-0.8-0.3-1.5-0.9-2.1
	c-0.5-0.5-1.3-0.9-2.1-0.9c-0.8,0-1.5,0.3-2.1,0.9c-0.5,0.5-0.9,1.3-0.9,2.1c0,0.8,0.3,1.5,0.9,2.1C95.5,75.9,96.2,76.2,97,76.2z
	 M97,101.5c0.9,0,1.8-0.4,2.4-1c0.6-0.6,1-1.5,1-2.4c0-0.9-0.4-1.8-1-2.4c-0.6-0.6-1.5-1-2.4-1c-0.9,0-1.8,0.4-2.4,1
	c-0.6,0.6-1,1.5-1,2.4c0,0.9,0.4,1.8,1,2.4C95.2,101.2,96.1,101.5,97,101.5z M83.6,67.7c0.7,0,1.4-0.3,1.9-0.8
	c0.5-0.5,0.8-1.2,0.8-1.9c0-0.7-0.3-1.4-0.8-1.9c-0.5-0.5-1.2-0.8-1.9-0.8c-0.7,0-1.4,0.3-1.9,0.8c-0.5,0.5-0.8,1.2-0.8,1.9
	c0,0.7,0.3,1.4,0.8,1.9C82.2,67.4,82.9,67.7,83.6,67.7z M97,67.7c0.7,0,1.4-0.3,1.9-0.8c0.5-0.5,0.8-1.2,0.8-1.9
	c0-0.7-0.3-1.4-0.8-1.9c-0.5-0.5-1.2-0.8-1.9-0.8c-0.7,0-1.4,0.3-1.9,0.8c-0.5,0.5-0.8,1.2-0.8,1.9c0,0.7,0.3,1.4,0.8,1.9
	C95.6,67.4,96.3,67.7,97,67.7z M110.2,93.1c0.9,0,1.7-0.4,2.3-1c0.6-0.6,1-1.4,1-2.3c0-0.9-0.4-1.7-1-2.3c-0.6-0.6-1.4-1-2.3-1
	c-0.9,0-1.7,0.4-2.3,1c-0.6,0.6-1,1.4-1,2.3c0,0.9,0.4,1.7,1,2.3C108.5,92.7,109.3,93.1,110.2,93.1z M97,50.8c0.7,0,1.3-0.3,1.7-0.7
	c0.4-0.4,0.7-1,0.7-1.7c0-0.7-0.3-1.2-0.7-1.7c-0.4-0.4-1-0.7-1.7-0.7c-0.6,0-1.2,0.3-1.7,0.7c-0.4,0.4-0.7,1-0.7,1.7
	c0,0.6,0.3,1.2,0.7,1.7C95.8,50.6,96.4,50.8,97,50.8z M97,59.3c0.7,0,1.3-0.3,1.8-0.7c0.5-0.5,0.8-1.1,0.8-1.8
	c0-0.7-0.3-1.3-0.8-1.8c-0.5-0.5-1.1-0.8-1.8-0.8c-0.7,0-1.3,0.3-1.8,0.8c-0.5,0.5-0.8,1.1-0.8,1.8c0,0.7,0.3,1.3,0.8,1.8
	C95.7,59,96.3,59.3,97,59.3z"/>
</svg>
