<?xml version="1.0" encoding="utf-8"?>
<!-- Generator: Adobe Illustrator 20.1.0, SVG Export Plug-In . SVG Version: 6.00 Build 0)  -->
<svg version="1.1" id="Layer_1" xmlns="http://www.w3.org/2000/svg" xmlns:xlink="http://www.w3.org/1999/xlink" x="0px" y="0px"
	 viewBox="0 0 800 110" style="enable-background:new 0 0 800 110;" xml:space="preserve">
<style type="text/css">
	.st0{fill:url(#SVGID_1_);}
</style>
<linearGradient id="SVGID_1_" gradientUnits="userSpaceOnUse" x1="400" y1="110" x2="400" y2="4.5">
	<stop  offset="0" style="stop-color:#ff80ab"/>
	<stop  offset="1" style="stop-color:#81d4fa">
		<animate attributeName="offset" values="1;0.5;1" dur="2s" repeatCount="indefinite" />
	</stop>
</linearGradient>
<path class="st0" d="M91.8,106.2c0,1.1-0.4,2-1.1,2.7C90,109.6,89,110,88,110c-1.1,0-2-0.4-2.7-1.1s-1.1-1.6-1.1-2.7
	c0-2.1,1.7-3.8,3.8-3.8C90.1,102.4,91.8,104.1,91.8,106.2z M88,94.2c1,0,1.9,0.4,2.6,1.1s1.1,1.6,1.1,2.6s-0.4,1.9-1.1,2.6
	s-1.6,1.1-2.6,1.1s-1.9-0.4-2.6-1.1s-1.1-1.6-1.1-2.6s0.4-1.9,1.1-2.6S87,94.2,88,94.2z M88,86.1c0.9,0,1.8,0.4,2.4,1s1,1.5,1,2.4
	c0,1-0.4,1.8-1,2.4s-1.5,1-2.4,1c-1,0-1.8-0.4-2.4-1s-1-1.5-1-2.4c0-1,0.4-1.8,1-2.4S87,86.1,88,86.1z M88,77.9c0.9,0,1.7,0.4,2.3,1
	c0.6,0.6,1,1.4,1,2.3s-0.4,1.7-1,2.3c-0.6,0.6-1.4,1-2.3,1s-1.7-0.4-2.3-1c-0.6-0.6-1-1.4-1-2.3s0.4-1.7,1-2.3
	C86.3,78.3,87.1,77.9,88,77.9z M88,69.8c0.9,0,1.6,0.3,2.2,0.9s0.9,1.3,0.9,2.2c0,0.9-0.3,1.6-0.9,2.2C89.6,75.6,88.8,76,88,76
	c-0.9,0-1.6-0.3-2.2-0.9s-0.9-1.3-0.9-2.2c0-0.9,0.3-1.6,0.9-2.2C86.4,70.1,87.1,69.8,88,69.8z M88,61.6c0.8,0,1.5,0.3,2.1,0.9
	c0.5,0.5,0.9,1.3,0.9,2.1c0,0.8-0.3,1.5-0.9,2.1c-0.5,0.5-1.3,0.9-2.1,0.9s-1.5-0.3-2.1-0.9c-0.5-0.5-0.9-1.3-0.9-2.1
	c0-0.8,0.3-1.5,0.9-2.1C86.4,61.9,87.2,61.6,88,61.6z M131.6,106.2c0,1.1-0.4,2-1.1,2.7c-0.7,0.7-1.6,1.1-2.7,1.1
	c-1.1,0-2-0.4-2.7-1.1s-1.1-1.6-1.1-2.7c0-2.1,1.7-3.8,3.8-3.8C129.9,102.4,131.6,104.1,131.6,106.2z M127.8,94.2
	c1,0,1.9,0.4,2.6,1.1c0.7,0.7,1.1,1.6,1.1,2.6s-0.4,1.9-1.1,2.6c-0.7,0.7-1.6,1.1-2.6,1.1c-1,0-1.9-0.4-2.6-1.1s-1.1-1.6-1.1-2.6
	s0.4-1.9,1.1-2.6C125.9,94.6,126.8,94.2,127.8,94.2z M127.8,86.1c0.9,0,1.8,0.4,2.4,1c0.6,0.6,1,1.5,1,2.4c0,1-0.4,1.8-1,2.4
	s-1.5,1-2.4,1c-1,0-1.8-0.4-2.4-1s-1-1.5-1-2.4c0-1,0.4-1.8,1-2.4C126,86.5,126.8,86.1,127.8,86.1z M127.8,77.9c0.9,0,1.7,0.4,2.3,1
	s1,1.4,1,2.3s-0.4,1.7-1,2.3c-0.6,0.6-1.4,1-2.3,1c-0.9,0-1.7-0.4-2.3-1c-0.6-0.6-1-1.4-1-2.3s0.4-1.7,1-2.3
	C126.1,78.3,126.9,77.9,127.8,77.9z M127.8,69.8c0.9,0,1.6,0.3,2.2,0.9c0.6,0.6,0.9,1.3,0.9,2.2c0,0.9-0.3,1.6-0.9,2.2
	c-0.6,0.6-1.3,0.9-2.2,0.9c-0.9,0-1.6-0.3-2.2-0.9s-0.9-1.3-0.9-2.2c0-0.9,0.3-1.6,0.9-2.2C126.2,70.1,126.9,69.8,127.8,69.8z
	 M139.5,69.8c0.9,0,1.6,0.3,2.2,0.9c0.6,0.6,0.9,1.3,0.9,2.2c0,0.9-0.3,1.6-0.9,2.2c-0.6,0.6-1.3,0.9-2.2,0.9s-1.6-0.3-2.2-0.9
	c-0.6-0.6-0.9-1.3-0.9-2.2c0-0.9,0.3-1.6,0.9-2.2C137.9,70.1,138.6,69.8,139.5,69.8z M127.8,61.6c0.8,0,1.5,0.3,2.1,0.9
	c0.5,0.5,0.9,1.3,0.9,2.1c0,0.8-0.3,1.5-0.9,2.1c-0.5,0.5-1.3,0.9-2.1,0.9c-0.8,0-1.5-0.3-2.1-0.9c-0.5-0.5-0.9-1.3-0.9-2.1
	c0-0.8,0.3-1.5,0.9-2.1C126.3,61.9,127,61.6,127.8,61.6z M127.8,53.4c0.8,0,1.4,0.3,1.9,0.8s0.8,1.2,0.8,1.9c0,0.8-0.3,1.4-0.8,1.9
	s-1.2,0.8-1.9,0.8c-0.8,0-1.4-0.3-1.9-0.8s-0.8-1.2-0.8-1.9c0-0.8,0.3-1.4,0.8-1.9C126.3,53.7,127,53.4,127.8,53.4z M78.5,106.2
	c0,1.1-0.4,2-1.1,2.7s-1.6,1.1-2.7,1.1c-1,0-2-0.4-2.7-1.1s-1.1-1.6-1.1-2.7c0-2.1,1.7-3.8,3.8-3.8
	C76.8,102.4,78.5,104.1,78.5,106.2z M74.7,94.2c1,0,1.9,0.4,2.6,1.1s1.1,1.6,1.1,2.6s-0.4,1.9-1.1,2.6s-1.6,1.1-2.6,1.1
	s-1.9-0.4-2.6-1.1S71,98.9,71,97.9s0.4-1.9,1.1-2.6C72.8,94.6,73.7,94.2,74.7,94.2z M74.7,86.1c1,0,1.8,0.4,2.4,1s1,1.5,1,2.4
	c0,1-0.4,1.8-1,2.4s-1.5,1-2.4,1c-1,0-1.8-0.4-2.4-1s-1-1.5-1-2.4c0-1,0.4-1.8,1-2.4C72.9,86.5,73.8,86.1,74.7,86.1z M74.7,77.9
	c0.9,0,1.7,0.4,2.3,1c0.6,0.6,1,1.4,1,2.3s-0.4,1.7-1,2.3c-0.6,0.6-1.4,1-2.3,1s-1.7-0.4-2.3-1c-0.6-0.6-1-1.4-1-2.3s0.4-1.7,1-2.3
	C73,78.3,73.8,77.9,74.7,77.9z M74.7,69.8c0.9,0,1.6,0.3,2.2,0.9s0.9,1.3,0.9,2.2c0,0.9-0.3,1.6-0.9,2.2S75.6,76,74.7,76
	c-0.9,0-1.6-0.3-2.2-0.9s-0.9-1.3-0.9-2.2c0-0.9,0.3-1.6,0.9-2.2C73.1,70.1,73.9,69.8,74.7,69.8z M74.7,61.6c0.8,0,1.5,0.3,2.1,0.9
	c0.5,0.5,0.9,1.3,0.9,2.1c0,0.8-0.3,1.5-0.9,2.1c-0.5,0.5-1.3,0.9-2.1,0.9c-0.8,0-1.5-0.3-2.1-0.9c-0.5-0.5-0.9-1.3-0.9-2.1
	c0-0.8,0.3-1.5,0.9-2.1S73.9,61.6,74.7,61.6z M74.7,53.4c0.8,0,1.4,0.3,1.9,0.8s0.8,1.2,0.8,1.9c0,0.8-0.3,1.4-0.8,1.9
	s-1.2,0.8-1.9,0.8c-0.8,0-1.4-0.3-1.9-0.8S72,56.8,72,56.1c0-0.8,0.3-1.4,0.8-1.9C73.3,53.7,74,53.4,74.7,53.4z M105.1,106.2
	c0,1.1-0.4,2-1.1,2.7s-1.6,1.1-2.7,1.1s-2-0.4-2.7-1.1s-1.1-1.6-1.1-2.7c0-2.1,1.7-3.8,3.8-3.8C103.4,102.4,105.1,104.1,105.1,106.2
	z M101.3,94.2c1,0,1.9,0.4,2.6,1.1s1.1,1.6,1.1,2.6s-0.4,1.9-1.1,2.6s-1.6,1.1-2.6,1.1s-1.9-0.4-2.6-1.1s-1.1-1.6-1.1-2.6
	s0.4-1.9,1.1-2.6C99.3,94.6,100.3,94.2,101.3,94.2z M101.3,77.9c0.9,0,1.7,0.4,2.3,1c0.6,0.6,1,1.4,1,2.3s-0.4,1.7-1,2.3
	c-0.6,0.6-1.4,1-2.3,1s-1.7-0.4-2.3-1c-0.6-0.6-1-1.4-1-2.3s0.4-1.7,1-2.3C99.5,78.3,100.4,77.9,101.3,77.9z M101.3,69.8
	c0.9,0,1.6,0.3,2.2,0.9s0.9,1.3,0.9,2.2c0,0.9-0.3,1.6-0.9,2.2s-1.3,0.9-2.2,0.9c-0.9,0-1.6-0.3-2.2-0.9s-0.9-1.3-0.9-2.2
	c0-0.9,0.3-1.6,0.9-2.2C99.6,70.1,100.4,69.8,101.3,69.8z M101.3,61.6c0.8,0,1.5,0.3,2.1,0.9c0.5,0.5,0.9,1.3,0.9,2.1
	c0,0.8-0.3,1.5-0.9,2.1c-0.5,0.5-1.3,0.9-2.1,0.9c-0.8,0-1.5-0.3-2.1-0.9c-0.5-0.5-0.9-1.3-0.9-2.1c0-0.8,0.3-1.5,0.9-2.1
	C99.7,61.9,100.5,61.6,101.3,61.6z M101.3,53.4c0.8,0,1.4,0.3,1.9,0.8s0.8,1.2,0.8,1.9c0,0.8-0.3,1.4-0.8,1.9s-1.2,0.8-1.9,0.8
	c-0.8,0-1.4-0.3-1.9-0.8s-0.8-1.2-0.8-1.9c0-0.8,0.3-1.4,0.8-1.9C99.8,53.7,100.5,53.4,101.3,53.4z M65.2,106.2c0,1.1-0.4,2-1.1,2.7
	c-0.7,0.7-1.6,1.1-2.7,1.1s-2-0.4-2.7-1.1s-1.1-1.6-1.1-2.7c0-2.1,1.7-3.8,3.8-3.8C63.5,102.4,65.2,104.1,65.2,106.2z M61.4,94.2
	c1,0,1.9,0.4,2.6,1.1s1.1,1.6,1.1,2.6s-0.4,1.9-1.1,2.6c-0.7,0.7-1.6,1.1-2.6,1.1s-1.9-0.4-2.6-1.1c-0.7-0.7-1.1-1.6-1.1-2.6
	s0.4-1.9,1.1-2.6S60.4,94.2,61.4,94.2z M61.4,86.1c1,0,1.8,0.4,2.4,1c0.6,0.6,1,1.5,1,2.4c0,1-0.4,1.8-1,2.4s-1.5,1-2.4,1
	s-1.8-0.4-2.4-1c-0.6-0.6-1-1.5-1-2.4c0-1,0.4-1.8,1-2.4S60.5,86.1,61.4,86.1z M229.9,102.4c2.1,0,3.8,1.7,3.8,3.8
	c0,1.1-0.4,2-1.1,2.7c-0.7,0.7-1.6,1.1-2.7,1.1c-1,0-2-0.4-2.7-1.1s-1.1-1.6-1.1-2.7C226.1,104.1,227.8,102.4,229.9,102.4z
	 M232.5,95.3c0.7,0.7,1.1,1.6,1.1,2.6s-0.4,1.9-1.1,2.6c-0.7,0.7-1.6,1.1-2.6,1.1s-1.9-0.4-2.6-1.1c-0.7-0.7-1.1-1.6-1.1-2.6
	s0.4-1.9,1.1-2.6c0.7-0.7,1.6-1.1,2.6-1.1C230.9,94.2,231.8,94.6,232.5,95.3z M244.2,95.3c0.7,0.7,1.1,1.6,1.1,2.6s-0.4,1.9-1.1,2.6
	c-0.7,0.7-1.6,1.1-2.6,1.1s-1.9-0.4-2.6-1.1c-0.7-0.7-1.1-1.6-1.1-2.6s0.4-1.9,1.1-2.6c0.7-0.7,1.6-1.1,2.6-1.1
	C242.6,94.2,243.5,94.6,244.2,95.3z M232.4,87.1c0.6,0.6,1,1.5,1,2.4c0,1-0.4,1.8-1,2.4s-1.5,1-2.4,1c-1,0-1.8-0.4-2.4-1
	c-0.6-0.6-1-1.5-1-2.4c0-1,0.4-1.8,1-2.4s1.5-1,2.4-1S231.7,86.5,232.4,87.1z M241.7,102.4c2.1,0,3.8,1.7,3.8,3.8
	c0,1.1-0.4,2-1.1,2.7c-0.7,0.7-1.6,1.1-2.7,1.1c-1.1,0-2-0.4-2.7-1.1s-1.1-1.6-1.1-2.7C237.9,104.1,239.7,102.4,241.7,102.4z
	 M244.2,87.1c0.6,0.6,1,1.5,1,2.4c0,1-0.4,1.8-1,2.4s-1.5,1-2.4,1c-1,0-1.8-0.4-2.4-1c-0.6-0.6-1-1.5-1-2.4c0-1,0.4-1.8,1-2.4
	s1.5-1,2.4-1S243.6,86.5,244.2,87.1z M253.6,102.4c2.1,0,3.8,1.7,3.8,3.8c0,1.1-0.4,2-1.1,2.7c-0.7,0.7-1.6,1.1-2.7,1.1
	c-1.1,0-2-0.4-2.7-1.1s-1.1-1.6-1.1-2.7C249.8,104.1,251.5,102.4,253.6,102.4z M266.4,102.4c2.1,0,3.8,1.7,3.8,3.8
	c0,1.1-0.4,2-1.1,2.7s-1.6,1.1-2.7,1.1c-1,0-2-0.4-2.7-1.1s-1.1-1.6-1.1-2.7C262.6,104.1,264.3,102.4,266.4,102.4z M118.3,106.2
	c0,1.1-0.4,2-1.1,2.7s-1.6,1.1-2.7,1.1c-1,0-2-0.4-2.7-1.1s-1.1-1.6-1.1-2.7c0-2.1,1.7-3.8,3.8-3.8
	C116.6,102.4,118.3,104.1,118.3,106.2z M114.5,94.2c1,0,1.9,0.4,2.6,1.1s1.1,1.6,1.1,2.6s-0.4,1.9-1.1,2.6s-1.6,1.1-2.6,1.1
	s-1.9-0.4-2.6-1.1s-1.1-1.6-1.1-2.6s0.4-1.9,1.1-2.6S113.5,94.2,114.5,94.2z M114.5,86.1c1,0,1.8,0.4,2.4,1s1,1.5,1,2.4
	c0,1-0.4,1.8-1,2.4s-1.5,1-2.4,1c-1,0-1.8-0.4-2.4-1s-1-1.5-1-2.4c0-1,0.4-1.8,1-2.4S113.6,86.1,114.5,86.1z M101,86.1
	c1,0,1.8,0.4,2.4,1s1,1.5,1,2.4c0,1-0.4,1.8-1,2.4s-1.5,1-2.4,1c-1,0-1.8-0.4-2.4-1s-1-1.5-1-2.4c0-1,0.4-1.8,1-2.4
	S100.1,86.1,101,86.1z M114.5,77.9c0.9,0,1.7,0.4,2.3,1c0.6,0.6,1,1.4,1,2.3s-0.4,1.7-1,2.3c-0.6,0.6-1.4,1-2.3,1s-1.7-0.4-2.3-1
	c-0.6-0.6-1-1.4-1-2.3s0.4-1.7,1-2.3C112.8,78.3,113.6,77.9,114.5,77.9z M114.5,69.8c0.9,0,1.6,0.3,2.2,0.9s0.9,1.3,0.9,2.2
	c0,0.9-0.3,1.6-0.9,2.2s-1.3,0.9-2.2,0.9c-0.9,0-1.6-0.3-2.2-0.9s-0.9-1.3-0.9-2.2c0-0.9,0.3-1.6,0.9-2.2
	C112.9,70.1,113.7,69.8,114.5,69.8z M114.5,61.6c0.8,0,1.5,0.3,2.1,0.9c0.5,0.5,0.9,1.3,0.9,2.1c0,0.8-0.3,1.5-0.9,2.1
	c-0.5,0.5-1.3,0.9-2.1,0.9c-0.8,0-1.5-0.3-2.1-0.9c-0.5-0.5-0.9-1.3-0.9-2.1c0-0.8,0.3-1.5,0.9-2.1S113.7,61.6,114.5,61.6z
	 M114.5,53.4c0.8,0,1.4,0.3,1.9,0.8s0.8,1.2,0.8,1.9c0,0.8-0.3,1.4-0.8,1.9s-1.2,0.8-1.9,0.8c-0.8,0-1.4-0.3-1.9-0.8
	s-0.8-1.2-0.8-1.9c0-0.8,0.3-1.4,0.8-1.9S113.8,53.4,114.5,53.4z M114.5,45.3c0.7,0,1.4,0.3,1.8,0.8c0.5,0.5,0.8,1.1,0.8,1.8
	s-0.3,1.4-0.8,1.8c-0.5,0.5-1.1,0.8-1.8,0.8c-0.7,0-1.4-0.3-1.8-0.8c-0.5-0.5-0.8-1.1-0.8-1.8s0.3-1.4,0.8-1.8
	C113.2,45.6,113.8,45.3,114.5,45.3z M128,45.3c0.7,0,1.4,0.3,1.8,0.8c0.5,0.5,0.8,1.1,0.8,1.8s-0.3,1.4-0.8,1.8
	c-0.5,0.5-1.1,0.8-1.8,0.8s-1.4-0.3-1.8-0.8c-0.5-0.5-0.8-1.1-0.8-1.8s0.3-1.4,0.8-1.8C126.7,45.6,127.3,45.3,128,45.3z M101.9,45.3
	c0.7,0,1.4,0.3,1.8,0.8c0.5,0.5,0.8,1.1,0.8,1.8s-0.3,1.4-0.8,1.8c-0.5,0.5-1.1,0.8-1.8,0.8c-0.7,0-1.4-0.3-1.8-0.8
	c-0.5-0.5-0.8-1.1-0.8-1.8s0.3-1.4,0.8-1.8C100.6,45.6,101.2,45.3,101.9,45.3z M114.5,37.1c0.7,0,1.3,0.3,1.7,0.7
	c0.4,0.4,0.7,1,0.7,1.7s-0.3,1.3-0.7,1.7c-0.4,0.4-1,0.7-1.7,0.7s-1.3-0.3-1.7-0.7c-0.4-0.4-0.7-1-0.7-1.7s0.3-1.3,0.7-1.7
	C113.3,37.4,113.9,37.1,114.5,37.1z M114.5,29c0.6,0,1.2,0.2,1.6,0.7c0.4,0.4,0.7,1,0.7,1.6s-0.2,1.2-0.7,1.6
	c-0.4,0.4-1,0.7-1.6,0.7s-1.2-0.2-1.6-0.7c-0.4-0.4-0.7-1-0.7-1.6s0.2-1.2,0.7-1.6C113.4,29.2,113.9,29,114.5,29z M114.5,20.8
	c0.6,0,1.1,0.2,1.5,0.6s0.6,0.9,0.6,1.5s-0.2,1.1-0.6,1.5s-0.9,0.6-1.5,0.6s-1.1-0.2-1.5-0.6s-0.6-0.9-0.6-1.5s0.2-1.1,0.6-1.5
	C113.5,21,114,20.8,114.5,20.8z M114.5,12.6c0.5,0,1,0.2,1.3,0.6c0.4,0.4,0.6,0.8,0.6,1.3s-0.2,1-0.6,1.3c-0.4,0.4-0.8,0.6-1.3,0.6
	s-1-0.2-1.3-0.6c-0.4-0.4-0.6-0.8-0.6-1.3s0.2-1,0.6-1.3C113.5,12.8,114,12.6,114.5,12.6z M114.5,4.5c0.5,0,0.9,0.2,1.2,0.5
	c0.3,0.3,0.5,0.8,0.5,1.2c0,0.5-0.2,0.9-0.5,1.2c-0.3,0.3-0.8,0.5-1.2,0.5c-0.5,0-0.9-0.2-1.2-0.5c-0.3-0.3-0.5-0.8-0.5-1.2
	c0-0.5,0.2-0.9,0.5-1.2C113.6,4.7,114.1,4.5,114.5,4.5z M101.9,37.1c0.7,0,1.3,0.3,1.7,0.7c0.4,0.4,0.7,1,0.7,1.7s-0.3,1.3-0.7,1.7
	c-0.4,0.4-1,0.7-1.7,0.7s-1.3-0.3-1.7-0.7c-0.4-0.4-0.7-1-0.7-1.7s0.3-1.3,0.7-1.7C100.7,37.4,101.3,37.1,101.9,37.1z M101.9,29
	c0.6,0,1.2,0.2,1.6,0.7c0.4,0.4,0.7,1,0.7,1.6s-0.2,1.2-0.7,1.6c-0.4,0.4-1,0.7-1.6,0.7s-1.2-0.2-1.6-0.7c-0.4-0.4-0.7-1-0.7-1.6
	s0.2-1.2,0.7-1.6C100.7,29.2,101.3,29,101.9,29z M53.1,106.2c0,1.1-0.4,2-1.1,2.7c-0.7,0.7-1.6,1.1-2.7,1.1c-1.1,0-2-0.4-2.7-1.1
	s-1.1-1.6-1.1-2.7c0-2.1,1.7-3.8,3.8-3.8C51.4,102.4,53.1,104.1,53.1,106.2z M49.3,94.2c1,0,1.9,0.4,2.6,1.1
	c0.7,0.7,1.1,1.6,1.1,2.6s-0.4,1.9-1.1,2.6c-0.7,0.7-1.6,1.1-2.6,1.1s-1.9-0.4-2.6-1.1c-0.7-0.7-1.1-1.6-1.1-2.6s0.4-1.9,1.1-2.6
	C47.4,94.6,48.3,94.2,49.3,94.2z M49.3,86.1c0.9,0,1.8,0.4,2.4,1c0.6,0.6,1,1.5,1,2.4c0,1-0.4,1.8-1,2.4s-1.5,1-2.4,1
	c-1,0-1.8-0.4-2.4-1c-0.6-0.6-1-1.5-1-2.4c0-1,0.4-1.8,1-2.4C47.4,86.5,48.3,86.1,49.3,86.1z M49.3,77.9c0.9,0,1.7,0.4,2.3,1
	s1,1.4,1,2.3s-0.4,1.7-1,2.3c-0.6,0.6-1.4,1-2.3,1c-0.9,0-1.7-0.4-2.3-1s-1-1.4-1-2.3s0.4-1.7,1-2.3C47.5,78.3,48.4,77.9,49.3,77.9z
	 M39.8,106.2c0,1.1-0.4,2-1.1,2.7C38,109.6,37,110,36,110s-2-0.4-2.7-1.1s-1.1-1.6-1.1-2.7c0-2.1,1.7-3.8,3.8-3.8
	S39.8,104.1,39.8,106.2z M36,94.2c1,0,1.9,0.4,2.6,1.1c0.7,0.7,1.1,1.6,1.1,2.6s-0.4,1.9-1.1,2.6c-0.7,0.7-1.6,1.1-2.6,1.1
	s-1.9-0.4-2.6-1.1c-0.7-0.7-1.1-1.6-1.1-2.6s0.4-1.9,1.1-2.6S35,94.2,36,94.2z M27.4,106.2c0,1.1-0.4,2-1.1,2.7s-1.6,1.1-2.7,1.1
	s-2-0.4-2.7-1.1s-1.1-1.6-1.1-2.7c0-2.1,1.7-3.8,3.8-3.8C25.7,102.4,27.4,104.1,27.4,106.2z M181.4,106.2c0,1.1-0.4,2-1.1,2.7
	c-0.7,0.7-1.6,1.1-2.7,1.1c-1.1,0-2-0.4-2.7-1.1s-1.1-1.6-1.1-2.7c0-2.1,1.7-3.8,3.8-3.8C179.7,102.4,181.4,104.1,181.4,106.2z
	 M177.6,94.2c1,0,1.9,0.4,2.6,1.1c0.7,0.7,1.1,1.6,1.1,2.6s-0.4,1.9-1.1,2.6c-0.7,0.7-1.6,1.1-2.6,1.1s-1.9-0.4-2.6-1.1
	c-0.7-0.7-1.1-1.6-1.1-2.6s0.4-1.9,1.1-2.6C175.7,94.6,176.6,94.2,177.6,94.2z M177.6,86.1c1,0,1.8,0.4,2.4,1c0.6,0.6,1,1.5,1,2.4
	c0,1-0.4,1.8-1,2.4s-1.5,1-2.4,1c-1,0-1.8-0.4-2.4-1c-0.6-0.6-1-1.5-1-2.4c0-1,0.4-1.8,1-2.4C175.8,86.5,176.7,86.1,177.6,86.1z
	 M177.6,77.9c0.9,0,1.7,0.4,2.3,1s1,1.4,1,2.3s-0.4,1.7-1,2.3c-0.6,0.6-1.4,1-2.3,1c-0.9,0-1.7-0.4-2.3-1s-1-1.4-1-2.3
	s0.4-1.7,1-2.3C175.9,78.3,176.7,77.9,177.6,77.9z M191.2,77.9c0.9,0,1.7,0.4,2.3,1s1,1.4,1,2.3s-0.4,1.7-1,2.3
	c-0.6,0.6-1.4,1-2.3,1c-0.9,0-1.7-0.4-2.3-1s-1-1.4-1-2.3s0.4-1.7,1-2.3C189.4,78.3,190.3,77.9,191.2,77.9z M229.9,77.9
	c0.9,0,1.7,0.4,2.3,1s1,1.4,1,2.3s-0.4,1.7-1,2.3c-0.6,0.6-1.4,1-2.3,1c-0.9,0-1.7-0.4-2.3-1s-1-1.4-1-2.3s0.4-1.7,1-2.3
	C228.2,78.3,229,77.9,229.9,77.9z M221.3,106.2c0,1.1-0.4,2-1.1,2.7c-0.7,0.7-1.6,1.1-2.7,1.1c-1,0-2-0.4-2.7-1.1s-1.1-1.6-1.1-2.7
	c0-2.1,1.7-3.8,3.8-3.8C219.5,102.4,221.3,104.1,221.3,106.2z M217.5,94.2c1,0,1.9,0.4,2.6,1.1c0.7,0.7,1.1,1.6,1.1,2.6
	s-0.4,1.9-1.1,2.6c-0.7,0.7-1.6,1.1-2.6,1.1s-1.9-0.4-2.6-1.1c-0.7-0.7-1.1-1.6-1.1-2.6s0.4-1.9,1.1-2.6
	C215.5,94.6,216.5,94.2,217.5,94.2z M168.2,106.2c0,1.1-0.4,2-1.1,2.7c-0.7,0.7-1.6,1.1-2.7,1.1c-1,0-2-0.4-2.7-1.1
	s-1.1-1.6-1.1-2.7c0-2.1,1.7-3.8,3.8-3.8C166.5,102.4,168.2,104.1,168.2,106.2z M164.4,94.2c1,0,1.9,0.4,2.6,1.1
	c0.7,0.7,1.1,1.6,1.1,2.6s-0.4,1.9-1.1,2.6c-0.7,0.7-1.6,1.1-2.6,1.1s-1.9-0.4-2.6-1.1c-0.7-0.7-1.1-1.6-1.1-2.6s0.4-1.9,1.1-2.6
	S163.4,94.2,164.4,94.2z M164.4,86.1c1,0,1.8,0.4,2.4,1c0.6,0.6,1,1.5,1,2.4c0,1-0.4,1.8-1,2.4s-1.5,1-2.4,1c-1,0-1.8-0.4-2.4-1
	c-0.6-0.6-1-1.5-1-2.4c0-1,0.4-1.8,1-2.4S163.4,86.1,164.4,86.1z M164.4,77.9c0.9,0,1.7,0.4,2.3,1s1,1.4,1,2.3s-0.4,1.7-1,2.3
	c-0.6,0.6-1.4,1-2.3,1c-0.9,0-1.7-0.4-2.3-1s-1-1.4-1-2.3s0.4-1.7,1-2.3C162.7,78.3,163.5,77.9,164.4,77.9z M164.4,69.8
	c0.9,0,1.6,0.3,2.2,0.9c0.6,0.6,0.9,1.3,0.9,2.2c0,0.9-0.3,1.6-0.9,2.2c-0.6,0.6-1.3,0.9-2.2,0.9s-1.6-0.3-2.2-0.9
	c-0.6-0.6-0.9-1.3-0.9-2.2c0-0.9,0.3-1.6,0.9-2.2C162.7,70.1,163.5,69.8,164.4,69.8z M177.9,69.8c0.9,0,1.6,0.3,2.2,0.9
	c0.6,0.6,0.9,1.3,0.9,2.2c0,0.9-0.3,1.6-0.9,2.2c-0.6,0.6-1.3,0.9-2.2,0.9s-1.6-0.3-2.2-0.9c-0.6-0.6-0.9-1.3-0.9-2.2
	c0-0.9,0.3-1.6,0.9-2.2C176.3,70.1,177,69.8,177.9,69.8z M164.4,61.6c0.8,0,1.5,0.3,2.1,0.9c0.5,0.5,0.9,1.3,0.9,2.1
	c0,0.8-0.3,1.5-0.9,2.1c-0.5,0.5-1.3,0.9-2.1,0.9s-1.5-0.3-2.1-0.9c-0.5-0.5-0.9-1.3-0.9-2.1c0-0.8,0.3-1.5,0.9-2.1
	C162.8,61.9,163.6,61.6,164.4,61.6z M164.4,53.4c0.8,0,1.4,0.3,1.9,0.8s0.8,1.2,0.8,1.9c0,0.8-0.3,1.4-0.8,1.9s-1.2,0.8-1.9,0.8
	c-0.8,0-1.4-0.3-1.9-0.8s-0.8-1.2-0.8-1.9c0-0.8,0.3-1.4,0.8-1.9C162.9,53.7,163.6,53.4,164.4,53.4z M194.7,106.2
	c0,1.1-0.4,2-1.1,2.7c-0.7,0.7-1.6,1.1-2.7,1.1c-1.1,0-2-0.4-2.7-1.1s-1.1-1.6-1.1-2.7c0-2.1,1.7-3.8,3.8-3.8
	C193,102.4,194.7,104.1,194.7,106.2z M190.9,94.2c1,0,1.9,0.4,2.6,1.1c0.7,0.7,1.1,1.6,1.1,2.6s-0.4,1.9-1.1,2.6
	c-0.7,0.7-1.6,1.1-2.6,1.1s-1.9-0.4-2.6-1.1c-0.7-0.7-1.1-1.6-1.1-2.6s0.4-1.9,1.1-2.6S189.9,94.2,190.9,94.2z M190.9,86.1
	c0.9,0,1.8,0.4,2.4,1c0.6,0.6,1,1.5,1,2.4c0,1-0.4,1.8-1,2.4s-1.5,1-2.4,1c-1,0-1.8-0.4-2.4-1c-0.6-0.6-1-1.5-1-2.4
	c0-1,0.4-1.8,1-2.4S190,86.1,190.9,86.1z M217.9,86.1c0.9,0,1.8,0.4,2.4,1c0.6,0.6,1,1.5,1,2.4c0,1-0.4,1.8-1,2.4s-1.5,1-2.4,1
	c-1,0-1.8-0.4-2.4-1c-0.6-0.6-1-1.5-1-2.4c0-1,0.4-1.8,1-2.4S217,86.1,217.9,86.1z M154.9,106.2c0,1.1-0.4,2-1.1,2.7
	c-0.7,0.7-1.6,1.1-2.7,1.1c-1.1,0-2-0.4-2.7-1.1s-1.1-1.6-1.1-2.7c0-2.1,1.7-3.8,3.8-3.8C153.2,102.4,154.9,104.1,154.9,106.2z
	 M151.1,86.1c0.9,0,1.8,0.4,2.4,1c0.6,0.6,1,1.5,1,2.4c0,1-0.4,1.8-1,2.4s-1.5,1-2.4,1c-1,0-1.8-0.4-2.4-1c-0.6-0.6-1-1.5-1-2.4
	c0-1,0.4-1.8,1-2.4C149.3,86.5,150.2,86.1,151.1,86.1z M151.1,77.9c0.9,0,1.7,0.4,2.3,1s1,1.4,1,2.3s-0.4,1.7-1,2.3
	c-0.6,0.6-1.4,1-2.3,1c-0.9,0-1.7-0.4-2.3-1s-1-1.4-1-2.3s0.4-1.7,1-2.3C149.4,78.3,150.2,77.9,151.1,77.9z M151.1,69.8
	c0.9,0,1.6,0.3,2.2,0.9c0.6,0.6,0.9,1.3,0.9,2.2c0,0.9-0.3,1.6-0.9,2.2c-0.6,0.6-1.3,0.9-2.2,0.9s-1.6-0.3-2.2-0.9
	c-0.6-0.6-0.9-1.3-0.9-2.2c0-0.9,0.3-1.6,0.9-2.2C149.5,70.1,150.3,69.8,151.1,69.8z M139.4,61.6c0.8,0,1.5,0.3,2.1,0.9
	c0.5,0.5,0.9,1.3,0.9,2.1c0,0.8-0.3,1.5-0.9,2.1c-0.5,0.5-1.3,0.9-2.1,0.9s-1.5-0.3-2.1-0.9c-0.5-0.5-0.9-1.3-0.9-2.1
	c0-0.8,0.3-1.5,0.9-2.1C137.9,61.9,138.6,61.6,139.4,61.6z M208,106.2c0,1.1-0.4,2-1.1,2.7c-0.7,0.7-1.6,1.1-2.7,1.1
	c-1,0-2-0.4-2.7-1.1s-1.1-1.6-1.1-2.7c0-2.1,1.7-3.8,3.8-3.8C206.3,102.4,208,104.1,208,106.2z M204.2,94.2c1,0,1.9,0.4,2.6,1.1
	c0.7,0.7,1.1,1.6,1.1,2.6s-0.4,1.9-1.1,2.6c-0.7,0.7-1.6,1.1-2.6,1.1s-1.9-0.4-2.6-1.1c-0.7-0.7-1.1-1.6-1.1-2.6s0.4-1.9,1.1-2.6
	S203.2,94.2,204.2,94.2z M143,106.2c0,1.1-0.4,2-1.1,2.7c-0.7,0.7-1.6,1.1-2.7,1.1c-1.1,0-2-0.4-2.7-1.1s-1.1-1.6-1.1-2.7
	c0-2.1,1.7-3.8,3.8-3.8C141.3,102.4,143,104.1,143,106.2z M139.2,94.2c1,0,1.9,0.4,2.6,1.1c0.7,0.7,1.1,1.6,1.1,2.6
	s-0.4,1.9-1.1,2.6c-0.7,0.7-1.6,1.1-2.6,1.1s-1.9-0.4-2.6-1.1c-0.7-0.7-1.1-1.6-1.1-2.6s0.4-1.9,1.1-2.6
	C137.2,94.6,138.2,94.2,139.2,94.2z M150.9,94.2c1,0,1.9,0.4,2.6,1.1c0.7,0.7,1.1,1.6,1.1,2.6s-0.4,1.9-1.1,2.6
	c-0.7,0.7-1.6,1.1-2.6,1.1s-1.9-0.4-2.6-1.1c-0.7-0.7-1.1-1.6-1.1-2.6s0.4-1.9,1.1-2.6S149.9,94.2,150.9,94.2z M139.2,86.1
	c1,0,1.8,0.4,2.4,1c0.6,0.6,1,1.5,1,2.4c0,1-0.4,1.8-1,2.4s-1.5,1-2.4,1s-1.8-0.4-2.4-1c-0.6-0.6-1-1.5-1-2.4c0-1,0.4-1.8,1-2.4
	C137.3,86.5,138.2,86.1,139.2,86.1z M139.2,77.9c0.9,0,1.7,0.4,2.3,1s1,1.4,1,2.3s-0.4,1.7-1,2.3c-0.6,0.6-1.4,1-2.3,1
	c-0.9,0-1.7-0.4-2.3-1s-1-1.4-1-2.3s0.4-1.7,1-2.3C137.4,78.3,138.3,77.9,139.2,77.9z M345.8,106.2c0,1.1-0.4,2-1.1,2.7
	s-1.6,1.1-2.7,1.1s-2-0.4-2.7-1.1s-1.1-1.6-1.1-2.7c0-2.1,1.7-3.8,3.8-3.8C344.1,102.4,345.8,104.1,345.8,106.2z M342,94.2
	c1,0,1.9,0.4,2.6,1.1s1.1,1.6,1.1,2.6s-0.4,1.9-1.1,2.6s-1.6,1.1-2.6,1.1s-1.9-0.4-2.6-1.1s-1.1-1.6-1.1-2.6s0.4-1.9,1.1-2.6
	S341,94.2,342,94.2z M342,86.1c0.9,0,1.8,0.4,2.4,1s1,1.5,1,2.4c0,1-0.4,1.8-1,2.4s-1.5,1-2.4,1c-1,0-1.8-0.4-2.4-1s-1-1.5-1-2.4
	c0-1,0.4-1.8,1-2.4S341,86.1,342,86.1z M342,77.9c0.9,0,1.7,0.4,2.3,1c0.6,0.6,1,1.4,1,2.3s-0.4,1.7-1,2.3c-0.6,0.6-1.4,1-2.3,1
	s-1.7-0.4-2.3-1c-0.6-0.6-1-1.4-1-2.3s0.4-1.7,1-2.3C340.3,78.3,341.1,77.9,342,77.9z M342,69.8c0.9,0,1.6,0.3,2.2,0.9
	s0.9,1.3,0.9,2.2c0,0.9-0.3,1.6-0.9,2.2S342.9,76,342,76c-0.9,0-1.6-0.3-2.2-0.9s-0.9-1.3-0.9-2.2c0-0.9,0.3-1.6,0.9-2.2
	C340.4,70.1,341.1,69.8,342,69.8z M342,61.6c0.8,0,1.5,0.3,2.1,0.9c0.5,0.5,0.9,1.3,0.9,2.1c0,0.8-0.3,1.5-0.9,2.1
	c-0.5,0.5-1.3,0.9-2.1,0.9s-1.5-0.3-2.1-0.9c-0.5-0.5-0.9-1.3-0.9-2.1c0-0.8,0.3-1.5,0.9-2.1C340.4,61.9,341.2,61.6,342,61.6z
	 M385.6,106.2c0,1.1-0.4,2-1.1,2.7s-1.6,1.1-2.7,1.1s-2-0.4-2.7-1.1s-1.1-1.6-1.1-2.7c0-2.1,1.7-3.8,3.8-3.8
	C383.9,102.4,385.6,104.1,385.6,106.2z M381.8,94.2c1,0,1.9,0.4,2.6,1.1s1.1,1.6,1.1,2.6s-0.4,1.9-1.1,2.6s-1.6,1.1-2.6,1.1
	s-1.9-0.4-2.6-1.1s-1.1-1.6-1.1-2.6s0.4-1.9,1.1-2.6S380.8,94.2,381.8,94.2z M381.8,86.1c0.9,0,1.8,0.4,2.4,1s1,1.5,1,2.4
	c0,1-0.4,1.8-1,2.4s-1.5,1-2.4,1c-1,0-1.8-0.4-2.4-1s-1-1.5-1-2.4c0-1,0.4-1.8,1-2.4S380.8,86.1,381.8,86.1z M381.8,77.9
	c0.9,0,1.7,0.4,2.3,1c0.6,0.6,1,1.4,1,2.3s-0.4,1.7-1,2.3c-0.6,0.6-1.4,1-2.3,1s-1.7-0.4-2.3-1c-0.6-0.6-1-1.4-1-2.3s0.4-1.7,1-2.3
	C380.1,78.3,380.9,77.9,381.8,77.9z M381.8,69.8c0.9,0,1.6,0.3,2.2,0.9s0.9,1.3,0.9,2.2c0,0.9-0.3,1.6-0.9,2.2s-1.3,0.9-2.2,0.9
	c-0.9,0-1.6-0.3-2.2-0.9s-0.9-1.3-0.9-2.2c0-0.9,0.3-1.6,0.9-2.2C380.2,70.1,380.9,69.8,381.8,69.8z M393.5,69.8
	c0.9,0,1.6,0.3,2.2,0.9s0.9,1.3,0.9,2.2c0,0.9-0.3,1.6-0.9,2.2s-1.3,0.9-2.2,0.9c-0.9,0-1.6-0.3-2.2-0.9s-0.9-1.3-0.9-2.2
	c0-0.9,0.3-1.6,0.9-2.2C391.9,70.1,392.6,69.8,393.5,69.8z M381.8,61.6c0.8,0,1.5,0.3,2.1,0.9c0.5,0.5,0.9,1.3,0.9,2.1
	c0,0.8-0.3,1.5-0.9,2.1c-0.5,0.5-1.3,0.9-2.1,0.9c-0.8,0-1.5-0.3-2.1-0.9c-0.5-0.5-0.9-1.3-0.9-2.1c0-0.8,0.3-1.5,0.9-2.1
	S381,61.6,381.8,61.6z M381.8,53.4c0.8,0,1.4,0.3,1.9,0.8s0.8,1.2,0.8,1.9c0,0.8-0.3,1.4-0.8,1.9s-1.2,0.8-1.9,0.8
	c-0.8,0-1.4-0.3-1.9-0.8s-0.8-1.2-0.8-1.9c0-0.8,0.3-1.4,0.8-1.9C380.3,53.7,381,53.4,381.8,53.4z M332.5,106.2c0,1.1-0.4,2-1.1,2.7
	s-1.6,1.1-2.7,1.1c-1,0-2-0.4-2.7-1.1s-1.1-1.6-1.1-2.7c0-2.1,1.7-3.8,3.8-3.8C330.8,102.4,332.5,104.1,332.5,106.2z M328.7,94.2
	c1,0,1.9,0.4,2.6,1.1s1.1,1.6,1.1,2.6s-0.4,1.9-1.1,2.6s-1.6,1.1-2.6,1.1s-1.9-0.4-2.6-1.1s-1.1-1.6-1.1-2.6s0.4-1.9,1.1-2.6
	C326.8,94.6,327.7,94.2,328.7,94.2z M328.7,86.1c1,0,1.8,0.4,2.4,1s1,1.5,1,2.4c0,1-0.4,1.8-1,2.4s-1.5,1-2.4,1c-1,0-1.8-0.4-2.4-1
	s-1-1.5-1-2.4c0-1,0.4-1.8,1-2.4C326.9,86.5,327.8,86.1,328.7,86.1z M328.7,77.9c0.9,0,1.7,0.4,2.3,1c0.6,0.6,1,1.4,1,2.3
	s-0.4,1.7-1,2.3c-0.6,0.6-1.4,1-2.3,1s-1.7-0.4-2.3-1c-0.6-0.6-1-1.4-1-2.3s0.4-1.7,1-2.3C327,78.3,327.8,77.9,328.7,77.9z
	 M328.7,69.8c0.9,0,1.6,0.3,2.2,0.9s0.9,1.3,0.9,2.2c0,0.9-0.3,1.6-0.9,2.2s-1.3,0.9-2.2,0.9c-0.9,0-1.6-0.3-2.2-0.9
	s-0.9-1.3-0.9-2.2c0-0.9,0.3-1.6,0.9-2.2C327.1,70.1,327.9,69.8,328.7,69.8z M328.7,61.6c0.8,0,1.5,0.3,2.1,0.9
	c0.5,0.5,0.9,1.3,0.9,2.1c0,0.8-0.3,1.5-0.9,2.1c-0.5,0.5-1.3,0.9-2.1,0.9c-0.8,0-1.5-0.3-2.1-0.9c-0.5-0.5-0.9-1.3-0.9-2.1
	c0-0.8,0.3-1.5,0.9-2.1S327.9,61.6,328.7,61.6z M328.7,53.4c0.8,0,1.4,0.3,1.9,0.8s0.8,1.2,0.8,1.9c0,0.8-0.3,1.4-0.8,1.9
	s-1.2,0.8-1.9,0.8c-0.8,0-1.4-0.3-1.9-0.8s-0.8-1.2-0.8-1.9c0-0.8,0.3-1.4,0.8-1.9C327.3,53.7,328,53.4,328.7,53.4z M359.1,106.2
	c0,1.1-0.4,2-1.1,2.7s-1.6,1.1-2.7,1.1s-2-0.4-2.7-1.1s-1.1-1.6-1.1-2.7c0-2.1,1.7-3.8,3.8-3.8C357.4,102.4,359.1,104.1,359.1,106.2
	z M355.3,94.2c1,0,1.9,0.4,2.6,1.1s1.1,1.6,1.1,2.6s-0.4,1.9-1.1,2.6s-1.6,1.1-2.6,1.1s-1.9-0.4-2.6-1.1s-1.1-1.6-1.1-2.6
	s0.4-1.9,1.1-2.6C353.3,94.6,354.3,94.2,355.3,94.2z M355.3,77.9c0.9,0,1.7,0.4,2.3,1c0.6,0.6,1,1.4,1,2.3s-0.4,1.7-1,2.3
	c-0.6,0.6-1.4,1-2.3,1s-1.7-0.4-2.3-1c-0.6-0.6-1-1.4-1-2.3s0.4-1.7,1-2.3C353.5,78.3,354.4,77.9,355.3,77.9z M355.3,69.8
	c0.9,0,1.6,0.3,2.2,0.9s0.9,1.3,0.9,2.2c0,0.9-0.3,1.6-0.9,2.2s-1.3,0.9-2.2,0.9c-0.9,0-1.6-0.3-2.2-0.9s-0.9-1.3-0.9-2.2
	c0-0.9,0.3-1.6,0.9-2.2C353.6,70.1,354.4,69.8,355.3,69.8z M355.3,61.6c0.8,0,1.5,0.3,2.1,0.9c0.5,0.5,0.9,1.3,0.9,2.1
	c0,0.8-0.3,1.5-0.9,2.1c-0.5,0.5-1.3,0.9-2.1,0.9c-0.8,0-1.5-0.3-2.1-0.9c-0.5-0.5-0.9-1.3-0.9-2.1c0-0.8,0.3-1.5,0.9-2.1
	C353.7,61.9,354.5,61.6,355.3,61.6z M355.3,53.4c0.8,0,1.4,0.3,1.9,0.8s0.8,1.2,0.8,1.9c0,0.8-0.3,1.4-0.8,1.9s-1.2,0.8-1.9,0.8
	c-0.8,0-1.4-0.3-1.9-0.8s-0.8-1.2-0.8-1.9c0-0.8,0.3-1.4,0.8-1.9C353.8,53.7,354.5,53.4,355.3,53.4z M319.2,106.2
	c0,1.1-0.4,2-1.1,2.7s-1.6,1.1-2.7,1.1s-2-0.4-2.7-1.1s-1.1-1.6-1.1-2.7c0-2.1,1.7-3.8,3.8-3.8C317.5,102.4,319.2,104.1,319.2,106.2
	z M315.4,94.2c1,0,1.9,0.4,2.6,1.1s1.1,1.6,1.1,2.6s-0.4,1.9-1.1,2.6s-1.6,1.1-2.6,1.1s-1.9-0.4-2.6-1.1s-1.1-1.6-1.1-2.6
	s0.4-1.9,1.1-2.6S314.4,94.2,315.4,94.2z M315.4,86.1c1,0,1.8,0.4,2.4,1s1,1.5,1,2.4c0,1-0.4,1.8-1,2.4s-1.5,1-2.4,1s-1.8-0.4-2.4-1
	s-1-1.5-1-2.4c0-1,0.4-1.8,1-2.4S314.5,86.1,315.4,86.1z M483.9,102.4c2.1,0,3.8,1.7,3.8,3.8c0,1.1-0.4,2-1.1,2.7s-1.6,1.1-2.7,1.1
	s-2-0.4-2.7-1.1s-1.1-1.6-1.1-2.7C480.1,104.1,481.8,102.4,483.9,102.4z M486.5,95.3c0.7,0.7,1.1,1.6,1.1,2.6s-0.4,1.9-1.1,2.6
	s-1.6,1.1-2.6,1.1s-1.9-0.4-2.6-1.1s-1.1-1.6-1.1-2.6s0.4-1.9,1.1-2.6s1.6-1.1,2.6-1.1S485.8,94.6,486.5,95.3z M498.2,95.3
	c0.7,0.7,1.1,1.6,1.1,2.6s-0.4,1.9-1.1,2.6s-1.6,1.1-2.6,1.1s-1.9-0.4-2.6-1.1s-1.1-1.6-1.1-2.6s0.4-1.9,1.1-2.6s1.6-1.1,2.6-1.1
	S497.5,94.6,498.2,95.3z M486.4,87.1c0.6,0.6,1,1.5,1,2.4c0,1-0.4,1.8-1,2.4s-1.5,1-2.4,1c-1,0-1.8-0.4-2.4-1s-1-1.5-1-2.4
	c0-1,0.4-1.8,1-2.4s1.5-1,2.4-1S485.7,86.5,486.4,87.1z M495.7,102.4c2.1,0,3.8,1.7,3.8,3.8c0,1.1-0.4,2-1.1,2.7s-1.6,1.1-2.7,1.1
	s-2-0.4-2.7-1.1s-1.1-1.6-1.1-2.7C491.9,104.1,493.7,102.4,495.7,102.4z M498.2,87.1c0.6,0.6,1,1.5,1,2.4c0,1-0.4,1.8-1,2.4
	s-1.5,1-2.4,1c-1,0-1.8-0.4-2.4-1s-1-1.5-1-2.4c0-1,0.4-1.8,1-2.4s1.5-1,2.4-1S497.6,86.5,498.2,87.1z M507.6,102.4
	c2.1,0,3.8,1.7,3.8,3.8c0,1.1-0.4,2-1.1,2.7s-1.6,1.1-2.7,1.1s-2-0.4-2.7-1.1s-1.1-1.6-1.1-2.7C503.8,104.1,505.5,102.4,507.6,102.4
	z M520.4,102.4c2.1,0,3.8,1.7,3.8,3.8c0,1.1-0.4,2-1.1,2.7c-0.7,0.7-1.6,1.1-2.7,1.1c-1,0-2-0.4-2.7-1.1s-1.1-1.6-1.1-2.7
	C516.6,104.1,518.3,102.4,520.4,102.4z M372.3,106.2c0,1.1-0.4,2-1.1,2.7s-1.6,1.1-2.7,1.1c-1,0-2-0.4-2.7-1.1s-1.1-1.6-1.1-2.7
	c0-2.1,1.7-3.8,3.8-3.8C370.6,102.4,372.3,104.1,372.3,106.2z M368.5,94.2c1,0,1.9,0.4,2.6,1.1s1.1,1.6,1.1,2.6s-0.4,1.9-1.1,2.6
	s-1.6,1.1-2.6,1.1s-1.9-0.4-2.6-1.1s-1.1-1.6-1.1-2.6s0.4-1.9,1.1-2.6S367.5,94.2,368.5,94.2z M368.5,86.1c1,0,1.8,0.4,2.4,1
	s1,1.5,1,2.4c0,1-0.4,1.8-1,2.4s-1.5,1-2.4,1c-1,0-1.8-0.4-2.4-1s-1-1.5-1-2.4c0-1,0.4-1.8,1-2.4S367.6,86.1,368.5,86.1z M355,86.1
	c1,0,1.8,0.4,2.4,1s1,1.5,1,2.4c0,1-0.4,1.8-1,2.4s-1.5,1-2.4,1c-1,0-1.8-0.4-2.4-1s-1-1.5-1-2.4c0-1,0.4-1.8,1-2.4
	S354.1,86.1,355,86.1z M368.5,77.9c0.9,0,1.7,0.4,2.3,1c0.6,0.6,1,1.4,1,2.3s-0.4,1.7-1,2.3c-0.6,0.6-1.4,1-2.3,1s-1.7-0.4-2.3-1
	c-0.6-0.6-1-1.4-1-2.3s0.4-1.7,1-2.3C366.8,78.3,367.6,77.9,368.5,77.9z M368.5,69.8c0.9,0,1.6,0.3,2.2,0.9s0.9,1.3,0.9,2.2
	c0,0.9-0.3,1.6-0.9,2.2s-1.3,0.9-2.2,0.9c-0.9,0-1.6-0.3-2.2-0.9s-0.9-1.3-0.9-2.2c0-0.9,0.3-1.6,0.9-2.2
	C366.9,70.1,367.7,69.8,368.5,69.8z M368.5,61.6c0.8,0,1.5,0.3,2.1,0.9c0.5,0.5,0.9,1.3,0.9,2.1c0,0.8-0.3,1.5-0.9,2.1
	c-0.5,0.5-1.3,0.9-2.1,0.9c-0.8,0-1.5-0.3-2.1-0.9c-0.5-0.5-0.9-1.3-0.9-2.1c0-0.8,0.3-1.5,0.9-2.1S367.7,61.6,368.5,61.6z
	 M368.5,53.4c0.8,0,1.4,0.3,1.9,0.8s0.8,1.2,0.8,1.9c0,0.8-0.3,1.4-0.8,1.9s-1.2,0.8-1.9,0.8c-0.8,0-1.4-0.3-1.9-0.8
	s-0.8-1.2-0.8-1.9c0-0.8,0.3-1.4,0.8-1.9S367.8,53.4,368.5,53.4z M368.5,45.3c0.7,0,1.4,0.3,1.8,0.8c0.5,0.5,0.8,1.1,0.8,1.8
	s-0.3,1.4-0.8,1.8c-0.5,0.5-1.1,0.8-1.8,0.8c-0.7,0-1.4-0.3-1.8-0.8c-0.5-0.5-0.8-1.1-0.8-1.8s0.3-1.4,0.8-1.8
	C367.2,45.6,367.8,45.3,368.5,45.3z M382,45.3c0.7,0,1.4,0.3,1.8,0.8c0.5,0.5,0.8,1.1,0.8,1.8s-0.3,1.4-0.8,1.8
	c-0.5,0.5-1.1,0.8-1.8,0.8c-0.7,0-1.4-0.3-1.8-0.8c-0.5-0.5-0.8-1.1-0.8-1.8s0.3-1.4,0.8-1.8C380.7,45.6,381.3,45.3,382,45.3z
	 M355.9,45.3c0.7,0,1.4,0.3,1.8,0.8c0.5,0.5,0.8,1.1,0.8,1.8s-0.3,1.4-0.8,1.8c-0.5,0.5-1.1,0.8-1.8,0.8c-0.7,0-1.4-0.3-1.8-0.8
	c-0.5-0.5-0.8-1.1-0.8-1.8s0.3-1.4,0.8-1.8C354.6,45.6,355.2,45.3,355.9,45.3z M368.5,37.1c0.7,0,1.3,0.3,1.7,0.7
	c0.4,0.4,0.7,1,0.7,1.7s-0.3,1.3-0.7,1.7c-0.4,0.4-1,0.7-1.7,0.7s-1.3-0.3-1.7-0.7c-0.4-0.4-0.7-1-0.7-1.7s0.3-1.3,0.7-1.7
	C367.3,37.4,367.9,37.1,368.5,37.1z M368.5,29c0.6,0,1.2,0.2,1.6,0.7c0.4,0.4,0.7,1,0.7,1.6s-0.2,1.2-0.7,1.6
	c-0.4,0.4-1,0.7-1.6,0.7s-1.2-0.2-1.6-0.7c-0.4-0.4-0.7-1-0.7-1.6s0.2-1.2,0.7-1.6C367.4,29.2,367.9,29,368.5,29z M368.5,20.8
	c0.6,0,1.1,0.2,1.5,0.6s0.6,0.9,0.6,1.5s-0.2,1.1-0.6,1.5s-0.9,0.6-1.5,0.6s-1.1-0.2-1.5-0.6s-0.6-0.9-0.6-1.5s0.2-1.1,0.6-1.5
	C367.5,21,368,20.8,368.5,20.8z M368.5,12.6c0.5,0,1,0.2,1.3,0.6c0.4,0.4,0.6,0.8,0.6,1.3s-0.2,1-0.6,1.3c-0.4,0.4-0.8,0.6-1.3,0.6
	s-1-0.2-1.3-0.6c-0.4-0.4-0.6-0.8-0.6-1.3s0.2-1,0.6-1.3C367.5,12.8,368,12.6,368.5,12.6z M368.5,4.5c0.5,0,0.9,0.2,1.2,0.5
	c0.3,0.3,0.5,0.8,0.5,1.2c0,0.5-0.2,0.9-0.5,1.2c-0.3,0.3-0.8,0.5-1.2,0.5c-0.5,0-0.9-0.2-1.2-0.5c-0.3-0.3-0.5-0.8-0.5-1.2
	c0-0.5,0.2-0.9,0.5-1.2C367.6,4.7,368.1,4.5,368.5,4.5z M355.9,37.1c0.7,0,1.3,0.3,1.7,0.7c0.4,0.4,0.7,1,0.7,1.7s-0.3,1.3-0.7,1.7
	c-0.4,0.4-1,0.7-1.7,0.7s-1.3-0.3-1.7-0.7c-0.4-0.4-0.7-1-0.7-1.7s0.3-1.3,0.7-1.7C354.7,37.4,355.3,37.1,355.9,37.1z M355.9,29
	c0.6,0,1.2,0.2,1.6,0.7c0.4,0.4,0.7,1,0.7,1.6s-0.2,1.2-0.7,1.6c-0.4,0.4-1,0.7-1.6,0.7s-1.2-0.2-1.6-0.7c-0.4-0.4-0.7-1-0.7-1.6
	s0.2-1.2,0.7-1.6C354.7,29.2,355.3,29,355.9,29z M307.1,106.2c0,1.1-0.4,2-1.1,2.7s-1.6,1.1-2.7,1.1s-2-0.4-2.7-1.1
	s-1.1-1.6-1.1-2.7c0-2.1,1.7-3.8,3.8-3.8C305.4,102.4,307.1,104.1,307.1,106.2z M303.3,94.2c1,0,1.9,0.4,2.6,1.1s1.1,1.6,1.1,2.6
	s-0.4,1.9-1.1,2.6s-1.6,1.1-2.6,1.1s-1.9-0.4-2.6-1.1s-1.1-1.6-1.1-2.6s0.4-1.9,1.1-2.6S302.3,94.2,303.3,94.2z M303.3,86.1
	c0.9,0,1.8,0.4,2.4,1s1,1.5,1,2.4c0,1-0.4,1.8-1,2.4s-1.5,1-2.4,1c-1,0-1.8-0.4-2.4-1s-1-1.5-1-2.4c0-1,0.4-1.8,1-2.4
	C301.4,86.5,302.3,86.1,303.3,86.1z M303.3,77.9c0.9,0,1.7,0.4,2.3,1c0.6,0.6,1,1.4,1,2.3s-0.4,1.7-1,2.3c-0.6,0.6-1.4,1-2.3,1
	s-1.7-0.4-2.3-1c-0.6-0.6-1-1.4-1-2.3s0.4-1.7,1-2.3C301.5,78.3,302.4,77.9,303.3,77.9z M293.8,106.2c0,1.1-0.4,2-1.1,2.7
	s-1.6,1.1-2.7,1.1c-1,0-2-0.4-2.7-1.1s-1.1-1.6-1.1-2.7c0-2.1,1.7-3.8,3.8-3.8C292.1,102.4,293.8,104.1,293.8,106.2z M290,94.2
	c1,0,1.9,0.4,2.6,1.1s1.1,1.6,1.1,2.6s-0.4,1.9-1.1,2.6s-1.6,1.1-2.6,1.1s-1.9-0.4-2.6-1.1s-1.1-1.6-1.1-2.6s0.4-1.9,1.1-2.6
	S289,94.2,290,94.2z M281.4,106.2c0,1.1-0.4,2-1.1,2.7s-1.6,1.1-2.7,1.1s-2-0.4-2.7-1.1s-1.1-1.6-1.1-2.7c0-2.1,1.7-3.8,3.8-3.8
	C279.7,102.4,281.4,104.1,281.4,106.2z M435.4,106.2c0,1.1-0.4,2-1.1,2.7s-1.6,1.1-2.7,1.1s-2-0.4-2.7-1.1s-1.1-1.6-1.1-2.7
	c0-2.1,1.7-3.8,3.8-3.8C433.7,102.4,435.4,104.1,435.4,106.2z M431.6,94.2c1,0,1.9,0.4,2.6,1.1s1.1,1.6,1.1,2.6s-0.4,1.9-1.1,2.6
	s-1.6,1.1-2.6,1.1s-1.9-0.4-2.6-1.1s-1.1-1.6-1.1-2.6s0.4-1.9,1.1-2.6S430.6,94.2,431.6,94.2z M431.6,86.1c1,0,1.8,0.4,2.4,1
	s1,1.5,1,2.4c0,1-0.4,1.8-1,2.4s-1.5,1-2.4,1c-1,0-1.8-0.4-2.4-1s-1-1.5-1-2.4c0-1,0.4-1.8,1-2.4C429.8,86.5,430.7,86.1,431.6,86.1z
	 M431.6,77.9c0.9,0,1.7,0.4,2.3,1c0.6,0.6,1,1.4,1,2.3s-0.4,1.7-1,2.3c-0.6,0.6-1.4,1-2.3,1s-1.7-0.4-2.3-1c-0.6-0.6-1-1.4-1-2.3
	s0.4-1.7,1-2.3C429.9,78.3,430.7,77.9,431.6,77.9z M445.2,77.9c0.9,0,1.7,0.4,2.3,1c0.6,0.6,1,1.4,1,2.3s-0.4,1.7-1,2.3
	c-0.6,0.6-1.4,1-2.3,1s-1.7-0.4-2.3-1c-0.6-0.6-1-1.4-1-2.3s0.4-1.7,1-2.3C443.4,78.3,444.3,77.9,445.2,77.9z M483.9,77.9
	c0.9,0,1.7,0.4,2.3,1c0.6,0.6,1,1.4,1,2.3s-0.4,1.7-1,2.3c-0.6,0.6-1.4,1-2.3,1s-1.7-0.4-2.3-1c-0.6-0.6-1-1.4-1-2.3s0.4-1.7,1-2.3
	C482.2,78.3,483,77.9,483.9,77.9z M475.3,106.2c0,1.1-0.4,2-1.1,2.7s-1.6,1.1-2.7,1.1c-1,0-2-0.4-2.7-1.1s-1.1-1.6-1.1-2.7
	c0-2.1,1.7-3.8,3.8-3.8C473.5,102.4,475.3,104.1,475.3,106.2z M471.5,94.2c1,0,1.9,0.4,2.6,1.1s1.1,1.6,1.1,2.6s-0.4,1.9-1.1,2.6
	s-1.6,1.1-2.6,1.1s-1.9-0.4-2.6-1.1s-1.1-1.6-1.1-2.6s0.4-1.9,1.1-2.6C469.5,94.6,470.5,94.2,471.5,94.2z M422.2,106.2
	c0,1.1-0.4,2-1.1,2.7s-1.6,1.1-2.7,1.1c-1,0-2-0.4-2.7-1.1s-1.1-1.6-1.1-2.7c0-2.1,1.7-3.8,3.8-3.8
	C420.5,102.4,422.2,104.1,422.2,106.2z M418.4,94.2c1,0,1.9,0.4,2.6,1.1s1.1,1.6,1.1,2.6s-0.4,1.9-1.1,2.6s-1.6,1.1-2.6,1.1
	s-1.9-0.4-2.6-1.1s-1.1-1.6-1.1-2.6s0.4-1.9,1.1-2.6S417.4,94.2,418.4,94.2z M418.4,86.1c1,0,1.8,0.4,2.4,1s1,1.5,1,2.4
	c0,1-0.4,1.8-1,2.4s-1.5,1-2.4,1c-1,0-1.8-0.4-2.4-1s-1-1.5-1-2.4c0-1,0.4-1.8,1-2.4S417.4,86.1,418.4,86.1z M418.4,77.9
	c0.9,0,1.7,0.4,2.3,1c0.6,0.6,1,1.4,1,2.3s-0.4,1.7-1,2.3c-0.6,0.6-1.4,1-2.3,1s-1.7-0.4-2.3-1c-0.6-0.6-1-1.4-1-2.3s0.4-1.7,1-2.3
	C416.7,78.3,417.5,77.9,418.4,77.9z M418.4,69.8c0.9,0,1.6,0.3,2.2,0.9s0.9,1.3,0.9,2.2c0,0.9-0.3,1.6-0.9,2.2s-1.3,0.9-2.2,0.9
	c-0.9,0-1.6-0.3-2.2-0.9s-0.9-1.3-0.9-2.2c0-0.9,0.3-1.6,0.9-2.2C416.7,70.1,417.5,69.8,418.4,69.8z M431.9,69.8
	c0.9,0,1.6,0.3,2.2,0.9s0.9,1.3,0.9,2.2c0,0.9-0.3,1.6-0.9,2.2s-1.3,0.9-2.2,0.9s-1.6-0.3-2.2-0.9s-0.9-1.3-0.9-2.2
	c0-0.9,0.3-1.6,0.9-2.2C430.3,70.1,431,69.8,431.9,69.8z M418.4,61.6c0.8,0,1.5,0.3,2.1,0.9c0.5,0.5,0.9,1.3,0.9,2.1
	c0,0.8-0.3,1.5-0.9,2.1c-0.5,0.5-1.3,0.9-2.1,0.9c-0.8,0-1.5-0.3-2.1-0.9c-0.5-0.5-0.9-1.3-0.9-2.1c0-0.8,0.3-1.5,0.9-2.1
	C416.8,61.9,417.6,61.6,418.4,61.6z M418.4,53.4c0.8,0,1.4,0.3,1.9,0.8s0.8,1.2,0.8,1.9c0,0.8-0.3,1.4-0.8,1.9s-1.2,0.8-1.9,0.8
	c-0.8,0-1.4-0.3-1.9-0.8s-0.8-1.2-0.8-1.9c0-0.8,0.3-1.4,0.8-1.9C416.9,53.7,417.6,53.4,418.4,53.4z M448.7,106.2
	c0,1.1-0.4,2-1.1,2.7s-1.6,1.1-2.7,1.1s-2-0.4-2.7-1.1s-1.1-1.6-1.1-2.7c0-2.1,1.7-3.8,3.8-3.8C447,102.4,448.7,104.1,448.7,106.2z
	 M444.9,94.2c1,0,1.9,0.4,2.6,1.1s1.1,1.6,1.1,2.6s-0.4,1.9-1.1,2.6s-1.6,1.1-2.6,1.1s-1.9-0.4-2.6-1.1s-1.1-1.6-1.1-2.6
	s0.4-1.9,1.1-2.6S443.9,94.2,444.9,94.2z M444.9,86.1c0.9,0,1.8,0.4,2.4,1s1,1.5,1,2.4c0,1-0.4,1.8-1,2.4s-1.5,1-2.4,1
	c-1,0-1.8-0.4-2.4-1s-1-1.5-1-2.4c0-1,0.4-1.8,1-2.4S444,86.1,444.9,86.1z M471.9,86.1c0.9,0,1.8,0.4,2.4,1s1,1.5,1,2.4
	c0,1-0.4,1.8-1,2.4s-1.5,1-2.4,1c-1,0-1.8-0.4-2.4-1s-1-1.5-1-2.4c0-1,0.4-1.8,1-2.4S471,86.1,471.9,86.1z M408.9,106.2
	c0,1.1-0.4,2-1.1,2.7s-1.6,1.1-2.7,1.1s-2-0.4-2.7-1.1s-1.1-1.6-1.1-2.7c0-2.1,1.7-3.8,3.8-3.8C407.2,102.4,408.9,104.1,408.9,106.2
	z M405.1,86.1c0.9,0,1.8,0.4,2.4,1s1,1.5,1,2.4c0,1-0.4,1.8-1,2.4s-1.5,1-2.4,1c-1,0-1.8-0.4-2.4-1s-1-1.5-1-2.4c0-1,0.4-1.8,1-2.4
	C403.3,86.5,404.2,86.1,405.1,86.1z M405.1,77.9c0.9,0,1.7,0.4,2.3,1c0.6,0.6,1,1.4,1,2.3s-0.4,1.7-1,2.3c-0.6,0.6-1.4,1-2.3,1
	s-1.7-0.4-2.3-1c-0.6-0.6-1-1.4-1-2.3s0.4-1.7,1-2.3C403.4,78.3,404.2,77.9,405.1,77.9z M405.1,69.8c0.9,0,1.6,0.3,2.2,0.9
	s0.9,1.3,0.9,2.2c0,0.9-0.3,1.6-0.9,2.2S406,76,405.1,76c-0.9,0-1.6-0.3-2.2-0.9s-0.9-1.3-0.9-2.2c0-0.9,0.3-1.6,0.9-2.2
	C403.5,70.1,404.3,69.8,405.1,69.8z M393.4,61.6c0.8,0,1.5,0.3,2.1,0.9c0.5,0.5,0.9,1.3,0.9,2.1c0,0.8-0.3,1.5-0.9,2.1
	c-0.5,0.5-1.3,0.9-2.1,0.9s-1.5-0.3-2.1-0.9c-0.5-0.5-0.9-1.3-0.9-2.1c0-0.8,0.3-1.5,0.9-2.1S392.6,61.6,393.4,61.6z M462,106.2
	c0,1.1-0.4,2-1.1,2.7s-1.6,1.1-2.7,1.1c-1,0-2-0.4-2.7-1.1s-1.1-1.6-1.1-2.7c0-2.1,1.7-3.8,3.8-3.8C460.3,102.4,462,104.1,462,106.2
	z M458.2,94.2c1,0,1.9,0.4,2.6,1.1s1.1,1.6,1.1,2.6s-0.4,1.9-1.1,2.6s-1.6,1.1-2.6,1.1s-1.9-0.4-2.6-1.1s-1.1-1.6-1.1-2.6
	s0.4-1.9,1.1-2.6C456.3,94.6,457.2,94.2,458.2,94.2z M397,106.2c0,1.1-0.4,2-1.1,2.7s-1.6,1.1-2.7,1.1s-2-0.4-2.7-1.1
	s-1.1-1.6-1.1-2.7c0-2.1,1.7-3.8,3.8-3.8C395.3,102.4,397,104.1,397,106.2z M393.2,94.2c1,0,1.9,0.4,2.6,1.1s1.1,1.6,1.1,2.6
	s-0.4,1.9-1.1,2.6s-1.6,1.1-2.6,1.1s-1.9-0.4-2.6-1.1s-1.1-1.6-1.1-2.6s0.4-1.9,1.1-2.6C391.2,94.6,392.2,94.2,393.2,94.2z
	 M404.9,94.2c1,0,1.9,0.4,2.6,1.1s1.1,1.6,1.1,2.6s-0.4,1.9-1.1,2.6s-1.6,1.1-2.6,1.1s-1.9-0.4-2.6-1.1s-1.1-1.6-1.1-2.6
	s0.4-1.9,1.1-2.6S403.9,94.2,404.9,94.2z M393.2,86.1c1,0,1.8,0.4,2.4,1s1,1.5,1,2.4c0,1-0.4,1.8-1,2.4s-1.5,1-2.4,1s-1.8-0.4-2.4-1
	s-1-1.5-1-2.4c0-1,0.4-1.8,1-2.4C391.3,86.5,392.2,86.1,393.2,86.1z M393.2,77.9c0.9,0,1.7,0.4,2.3,1c0.6,0.6,1,1.4,1,2.3
	s-0.4,1.7-1,2.3c-0.6,0.6-1.4,1-2.3,1s-1.7-0.4-2.3-1c-0.6-0.6-1-1.4-1-2.3s0.4-1.7,1-2.3C391.4,78.3,392.3,77.9,393.2,77.9z
	 M601.8,106.2c0,1.1-0.4,2-1.1,2.7c-0.7,0.7-1.6,1.1-2.7,1.1c-1.1,0-2-0.4-2.7-1.1s-1.1-1.6-1.1-2.7c0-2.1,1.7-3.8,3.8-3.8
	C600.1,102.4,601.8,104.1,601.8,106.2z M598,94.2c1,0,1.9,0.4,2.6,1.1c0.7,0.7,1.1,1.6,1.1,2.6s-0.4,1.9-1.1,2.6
	c-0.7,0.7-1.6,1.1-2.6,1.1s-1.9-0.4-2.6-1.1c-0.7-0.7-1.1-1.6-1.1-2.6s0.4-1.9,1.1-2.6S597,94.2,598,94.2z M598,86.1
	c0.9,0,1.8,0.4,2.4,1c0.6,0.6,1,1.5,1,2.4c0,1-0.4,1.8-1,2.4s-1.5,1-2.4,1c-1,0-1.8-0.4-2.4-1c-0.6-0.6-1-1.5-1-2.4
	c0-1,0.4-1.8,1-2.4C596.2,86.5,597,86.1,598,86.1z M598,77.9c0.9,0,1.7,0.4,2.3,1s1,1.4,1,2.3s-0.4,1.7-1,2.3c-0.6,0.6-1.4,1-2.3,1
	c-0.9,0-1.7-0.4-2.3-1s-1-1.4-1-2.3s0.4-1.7,1-2.3C596.3,78.3,597.1,77.9,598,77.9z M598,69.8c0.9,0,1.6,0.3,2.2,0.9
	c0.6,0.6,0.9,1.3,0.9,2.2c0,0.9-0.3,1.6-0.9,2.2c-0.6,0.6-1.3,0.9-2.2,0.9s-1.6-0.3-2.2-0.9c-0.6-0.6-0.9-1.3-0.9-2.2
	c0-0.9,0.3-1.6,0.9-2.2C596.4,70.1,597.1,69.8,598,69.8z M598,61.6c0.8,0,1.5,0.3,2.1,0.9c0.5,0.5,0.9,1.3,0.9,2.1
	c0,0.8-0.3,1.5-0.9,2.1c-0.5,0.5-1.3,0.9-2.1,0.9s-1.5-0.3-2.1-0.9c-0.5-0.5-0.9-1.3-0.9-2.1c0-0.8,0.3-1.5,0.9-2.1
	C596.4,61.9,597.2,61.6,598,61.6z M641.6,106.2c0,1.1-0.4,2-1.1,2.7c-0.7,0.7-1.6,1.1-2.7,1.1c-1.1,0-2-0.4-2.7-1.1
	s-1.1-1.6-1.1-2.7c0-2.1,1.7-3.8,3.8-3.8C639.9,102.4,641.6,104.1,641.6,106.2z M637.8,94.2c1,0,1.9,0.4,2.6,1.1
	c0.7,0.7,1.1,1.6,1.1,2.6s-0.4,1.9-1.1,2.6c-0.7,0.7-1.6,1.1-2.6,1.1s-1.9-0.4-2.6-1.1c-0.7-0.7-1.1-1.6-1.1-2.6s0.4-1.9,1.1-2.6
	C635.9,94.6,636.8,94.2,637.8,94.2z M637.8,86.1c0.9,0,1.8,0.4,2.4,1c0.6,0.6,1,1.5,1,2.4c0,1-0.4,1.8-1,2.4s-1.5,1-2.4,1
	c-1,0-1.8-0.4-2.4-1c-0.6-0.6-1-1.5-1-2.4c0-1,0.4-1.8,1-2.4C636,86.5,636.8,86.1,637.8,86.1z M637.8,77.9c0.9,0,1.7,0.4,2.3,1
	s1,1.4,1,2.3s-0.4,1.7-1,2.3c-0.6,0.6-1.4,1-2.3,1c-0.9,0-1.7-0.4-2.3-1s-1-1.4-1-2.3s0.4-1.7,1-2.3
	C636.1,78.3,636.9,77.9,637.8,77.9z M637.8,69.8c0.9,0,1.6,0.3,2.2,0.9c0.6,0.6,0.9,1.3,0.9,2.2c0,0.9-0.3,1.6-0.9,2.2
	c-0.6,0.6-1.3,0.9-2.2,0.9s-1.6-0.3-2.2-0.9c-0.6-0.6-0.9-1.3-0.9-2.2c0-0.9,0.3-1.6,0.9-2.2C636.2,70.1,636.9,69.8,637.8,69.8z
	 M649.5,69.8c0.9,0,1.6,0.3,2.2,0.9c0.6,0.6,0.9,1.3,0.9,2.2c0,0.9-0.3,1.6-0.9,2.2c-0.6,0.6-1.3,0.9-2.2,0.9s-1.6-0.3-2.2-0.9
	c-0.6-0.6-0.9-1.3-0.9-2.2c0-0.9,0.3-1.6,0.9-2.2C647.9,70.1,648.6,69.8,649.5,69.8z M637.8,61.6c0.8,0,1.5,0.3,2.1,0.9
	c0.5,0.5,0.9,1.3,0.9,2.1c0,0.8-0.3,1.5-0.9,2.1c-0.5,0.5-1.3,0.9-2.1,0.9s-1.5-0.3-2.1-0.9c-0.5-0.5-0.9-1.3-0.9-2.1
	c0-0.8,0.3-1.5,0.9-2.1C636.3,61.9,637,61.6,637.8,61.6z M637.8,53.4c0.8,0,1.4,0.3,1.9,0.8s0.8,1.2,0.8,1.9c0,0.8-0.3,1.4-0.8,1.9
	s-1.2,0.8-1.9,0.8c-0.8,0-1.4-0.3-1.9-0.8s-0.8-1.2-0.8-1.9c0-0.8,0.3-1.4,0.8-1.9C636.3,53.7,637,53.4,637.8,53.4z M588.5,106.2
	c0,1.1-0.4,2-1.1,2.7c-0.7,0.7-1.6,1.1-2.7,1.1c-1,0-2-0.4-2.7-1.1s-1.1-1.6-1.1-2.7c0-2.1,1.7-3.8,3.8-3.8
	C586.8,102.4,588.5,104.1,588.5,106.2z M584.7,94.2c1,0,1.9,0.4,2.6,1.1c0.7,0.7,1.1,1.6,1.1,2.6s-0.4,1.9-1.1,2.6
	c-0.7,0.7-1.6,1.1-2.6,1.1s-1.9-0.4-2.6-1.1c-0.7-0.7-1.1-1.6-1.1-2.6s0.4-1.9,1.1-2.6S583.7,94.2,584.7,94.2z M584.7,86.1
	c1,0,1.8,0.4,2.4,1c0.6,0.6,1,1.5,1,2.4c0,1-0.4,1.8-1,2.4s-1.5,1-2.4,1c-1,0-1.8-0.4-2.4-1c-0.6-0.6-1-1.5-1-2.4c0-1,0.4-1.8,1-2.4
	C582.9,86.5,583.8,86.1,584.7,86.1z M584.7,77.9c0.9,0,1.7,0.4,2.3,1s1,1.4,1,2.3s-0.4,1.7-1,2.3c-0.6,0.6-1.4,1-2.3,1
	s-1.7-0.4-2.3-1s-1-1.4-1-2.3s0.4-1.7,1-2.3C583,78.3,583.8,77.9,584.7,77.9z M584.7,69.8c0.9,0,1.6,0.3,2.2,0.9
	c0.6,0.6,0.9,1.3,0.9,2.2c0,0.9-0.3,1.6-0.9,2.2c-0.6,0.6-1.3,0.9-2.2,0.9s-1.6-0.3-2.2-0.9c-0.6-0.6-0.9-1.3-0.9-2.2
	c0-0.9,0.3-1.6,0.9-2.2C583.1,70.1,583.9,69.8,584.7,69.8z M584.7,61.6c0.8,0,1.5,0.3,2.1,0.9c0.5,0.5,0.9,1.3,0.9,2.1
	c0,0.8-0.3,1.5-0.9,2.1c-0.5,0.5-1.3,0.9-2.1,0.9s-1.5-0.3-2.1-0.9c-0.5-0.5-0.9-1.3-0.9-2.1c0-0.8,0.3-1.5,0.9-2.1
	C583.2,61.9,583.9,61.6,584.7,61.6z M584.7,53.4c0.8,0,1.4,0.3,1.9,0.8s0.8,1.2,0.8,1.9c0,0.8-0.3,1.4-0.8,1.9s-1.2,0.8-1.9,0.8
	c-0.8,0-1.4-0.3-1.9-0.8s-0.8-1.2-0.8-1.9c0-0.8,0.3-1.4,0.8-1.9S584,53.4,584.7,53.4z M615.1,106.2c0,1.1-0.4,2-1.1,2.7
	c-0.7,0.7-1.6,1.1-2.7,1.1c-1.1,0-2-0.4-2.7-1.1s-1.1-1.6-1.1-2.7c0-2.1,1.7-3.8,3.8-3.8C613.4,102.4,615.1,104.1,615.1,106.2z
	 M611.3,94.2c1,0,1.9,0.4,2.6,1.1c0.7,0.7,1.1,1.6,1.1,2.6s-0.4,1.9-1.1,2.6c-0.7,0.7-1.6,1.1-2.6,1.1s-1.9-0.4-2.6-1.1
	c-0.7-0.7-1.1-1.6-1.1-2.6s0.4-1.9,1.1-2.6C609.3,94.6,610.3,94.2,611.3,94.2z M611.3,77.9c0.9,0,1.7,0.4,2.3,1s1,1.4,1,2.3
	s-0.4,1.7-1,2.3c-0.6,0.6-1.4,1-2.3,1c-0.9,0-1.7-0.4-2.3-1s-1-1.4-1-2.3s0.4-1.7,1-2.3C609.5,78.3,610.4,77.9,611.3,77.9z
	 M611.3,69.8c0.9,0,1.6,0.3,2.2,0.9c0.6,0.6,0.9,1.3,0.9,2.2c0,0.9-0.3,1.6-0.9,2.2c-0.6,0.6-1.3,0.9-2.2,0.9s-1.6-0.3-2.2-0.9
	c-0.6-0.6-0.9-1.3-0.9-2.2c0-0.9,0.3-1.6,0.9-2.2C609.6,70.1,610.4,69.8,611.3,69.8z M611.3,61.6c0.8,0,1.5,0.3,2.1,0.9
	c0.5,0.5,0.9,1.3,0.9,2.1c0,0.8-0.3,1.5-0.9,2.1c-0.5,0.5-1.3,0.9-2.1,0.9s-1.5-0.3-2.1-0.9c-0.5-0.5-0.9-1.3-0.9-2.1
	c0-0.8,0.3-1.5,0.9-2.1C609.7,61.9,610.5,61.6,611.3,61.6z M611.3,53.4c0.8,0,1.4,0.3,1.9,0.8s0.8,1.2,0.8,1.9
	c0,0.8-0.3,1.4-0.8,1.9s-1.2,0.8-1.9,0.8c-0.8,0-1.4-0.3-1.9-0.8s-0.8-1.2-0.8-1.9c0-0.8,0.3-1.4,0.8-1.9
	C609.8,53.7,610.5,53.4,611.3,53.4z M575.2,106.2c0,1.1-0.4,2-1.1,2.7c-0.7,0.7-1.6,1.1-2.7,1.1c-1.1,0-2-0.4-2.7-1.1
	s-1.1-1.6-1.1-2.7c0-2.1,1.7-3.8,3.8-3.8C573.5,102.4,575.2,104.1,575.2,106.2z M571.4,94.2c1,0,1.9,0.4,2.6,1.1
	c0.7,0.7,1.1,1.6,1.1,2.6s-0.4,1.9-1.1,2.6c-0.7,0.7-1.6,1.1-2.6,1.1s-1.9-0.4-2.6-1.1c-0.7-0.7-1.1-1.6-1.1-2.6s0.4-1.9,1.1-2.6
	S570.4,94.2,571.4,94.2z M571.4,86.1c1,0,1.8,0.4,2.4,1c0.6,0.6,1,1.5,1,2.4c0,1-0.4,1.8-1,2.4s-1.5,1-2.4,1s-1.8-0.4-2.4-1
	c-0.6-0.6-1-1.5-1-2.4c0-1,0.4-1.8,1-2.4S570.5,86.1,571.4,86.1z M739.9,102.4c2.1,0,3.8,1.7,3.8,3.8c0,1.1-0.4,2-1.1,2.7
	c-0.7,0.7-1.6,1.1-2.7,1.1s-2-0.4-2.7-1.1s-1.1-1.6-1.1-2.7C736.1,104.1,737.8,102.4,739.9,102.4z M742.5,95.3
	c0.7,0.7,1.1,1.6,1.1,2.6s-0.4,1.9-1.1,2.6c-0.7,0.7-1.6,1.1-2.6,1.1s-1.9-0.4-2.6-1.1c-0.7-0.7-1.1-1.6-1.1-2.6s0.4-1.9,1.1-2.6
	c0.7-0.7,1.6-1.1,2.6-1.1S741.8,94.6,742.5,95.3z M754.2,95.3c0.7,0.7,1.1,1.6,1.1,2.6s-0.4,1.9-1.1,2.6c-0.7,0.7-1.6,1.1-2.6,1.1
	s-1.9-0.4-2.6-1.1c-0.7-0.7-1.1-1.6-1.1-2.6s0.4-1.9,1.1-2.6c0.7-0.7,1.6-1.1,2.6-1.1S753.5,94.6,754.2,95.3z M742.4,87.1
	c0.6,0.6,1,1.5,1,2.4c0,1-0.4,1.8-1,2.4s-1.5,1-2.4,1s-1.8-0.4-2.4-1c-0.6-0.6-1-1.5-1-2.4c0-1,0.4-1.8,1-2.4s1.5-1,2.4-1
	S741.7,86.5,742.4,87.1z M751.7,102.4c2.1,0,3.8,1.7,3.8,3.8c0,1.1-0.4,2-1.1,2.7c-0.7,0.7-1.6,1.1-2.7,1.1c-1.1,0-2-0.4-2.7-1.1
	s-1.1-1.6-1.1-2.7C747.9,104.1,749.7,102.4,751.7,102.4z M754.2,87.1c0.6,0.6,1,1.5,1,2.4c0,1-0.4,1.8-1,2.4s-1.5,1-2.4,1
	c-1,0-1.8-0.4-2.4-1c-0.6-0.6-1-1.5-1-2.4c0-1,0.4-1.8,1-2.4s1.5-1,2.4-1S753.6,86.5,754.2,87.1z M763.6,102.4
	c2.1,0,3.8,1.7,3.8,3.8c0,1.1-0.4,2-1.1,2.7c-0.7,0.7-1.6,1.1-2.7,1.1c-1.1,0-2-0.4-2.7-1.1s-1.1-1.6-1.1-2.7
	C759.8,104.1,761.5,102.4,763.6,102.4z M776.4,102.4c2.1,0,3.8,1.7,3.8,3.8c0,1.1-0.4,2-1.1,2.7c-0.7,0.7-1.6,1.1-2.7,1.1
	c-1,0-2-0.4-2.7-1.1s-1.1-1.6-1.1-2.7C772.6,104.1,774.3,102.4,776.4,102.4z M628.3,106.2c0,1.1-0.4,2-1.1,2.7
	c-0.7,0.7-1.6,1.1-2.7,1.1c-1,0-2-0.4-2.7-1.1s-1.1-1.6-1.1-2.7c0-2.1,1.7-3.8,3.8-3.8C626.6,102.4,628.3,104.1,628.3,106.2z
	 M624.5,94.2c1,0,1.9,0.4,2.6,1.1c0.7,0.7,1.1,1.6,1.1,2.6s-0.4,1.9-1.1,2.6c-0.7,0.7-1.6,1.1-2.6,1.1s-1.9-0.4-2.6-1.1
	c-0.7-0.7-1.1-1.6-1.1-2.6s0.4-1.9,1.1-2.6S623.5,94.2,624.5,94.2z M624.5,86.1c1,0,1.8,0.4,2.4,1c0.6,0.6,1,1.5,1,2.4
	c0,1-0.4,1.8-1,2.4s-1.5,1-2.4,1c-1,0-1.8-0.4-2.4-1c-0.6-0.6-1-1.5-1-2.4c0-1,0.4-1.8,1-2.4C622.7,86.5,623.6,86.1,624.5,86.1z
	 M611,86.1c1,0,1.8,0.4,2.4,1c0.6,0.6,1,1.5,1,2.4c0,1-0.4,1.8-1,2.4s-1.5,1-2.4,1c-1,0-1.8-0.4-2.4-1c-0.6-0.6-1-1.5-1-2.4
	c0-1,0.4-1.8,1-2.4C609.2,86.5,610.1,86.1,611,86.1z M624.5,77.9c0.9,0,1.7,0.4,2.3,1s1,1.4,1,2.3s-0.4,1.7-1,2.3
	c-0.6,0.6-1.4,1-2.3,1c-0.9,0-1.7-0.4-2.3-1s-1-1.4-1-2.3s0.4-1.7,1-2.3C622.8,78.3,623.6,77.9,624.5,77.9z M624.5,69.8
	c0.9,0,1.6,0.3,2.2,0.9c0.6,0.6,0.9,1.3,0.9,2.2c0,0.9-0.3,1.6-0.9,2.2c-0.6,0.6-1.3,0.9-2.2,0.9s-1.6-0.3-2.2-0.9
	c-0.6-0.6-0.9-1.3-0.9-2.2c0-0.9,0.3-1.6,0.9-2.2C622.9,70.1,623.7,69.8,624.5,69.8z M624.5,61.6c0.8,0,1.5,0.3,2.1,0.9
	c0.5,0.5,0.9,1.3,0.9,2.1c0,0.8-0.3,1.5-0.9,2.1c-0.5,0.5-1.3,0.9-2.1,0.9s-1.5-0.3-2.1-0.9c-0.5-0.5-0.9-1.3-0.9-2.1
	c0-0.8,0.3-1.5,0.9-2.1C623,61.9,623.7,61.6,624.5,61.6z M624.5,53.4c0.8,0,1.4,0.3,1.9,0.8s0.8,1.2,0.8,1.9c0,0.8-0.3,1.4-0.8,1.9
	s-1.2,0.8-1.9,0.8c-0.8,0-1.4-0.3-1.9-0.8s-0.8-1.2-0.8-1.9c0-0.8,0.3-1.4,0.8-1.9S623.8,53.4,624.5,53.4z M624.5,45.3
	c0.7,0,1.4,0.3,1.8,0.8c0.5,0.5,0.8,1.1,0.8,1.8s-0.3,1.4-0.8,1.8c-0.5,0.5-1.1,0.8-1.8,0.8s-1.4-0.3-1.8-0.8
	c-0.5-0.5-0.8-1.1-0.8-1.8s0.3-1.4,0.8-1.8C623.2,45.6,623.8,45.3,624.5,45.3z M638,45.3c0.7,0,1.4,0.3,1.8,0.8
	c0.5,0.5,0.8,1.1,0.8,1.8s-0.3,1.4-0.8,1.8c-0.5,0.5-1.1,0.8-1.8,0.8s-1.4-0.3-1.8-0.8c-0.5-0.5-0.8-1.1-0.8-1.8s0.3-1.4,0.8-1.8
	C636.7,45.6,637.3,45.3,638,45.3z M611.9,45.3c0.7,0,1.4,0.3,1.8,0.8c0.5,0.5,0.8,1.1,0.8,1.8s-0.3,1.4-0.8,1.8
	c-0.5,0.5-1.1,0.8-1.8,0.8s-1.4-0.3-1.8-0.8c-0.5-0.5-0.8-1.1-0.8-1.8s0.3-1.4,0.8-1.8C610.6,45.6,611.2,45.3,611.9,45.3z
	 M624.5,37.1c0.7,0,1.3,0.3,1.7,0.7s0.7,1,0.7,1.7s-0.3,1.3-0.7,1.7s-1,0.7-1.7,0.7s-1.3-0.3-1.7-0.7s-0.7-1-0.7-1.7
	s0.3-1.3,0.7-1.7C623.3,37.4,623.9,37.1,624.5,37.1z M624.5,29c0.6,0,1.2,0.2,1.6,0.7c0.4,0.4,0.7,1,0.7,1.6s-0.2,1.2-0.7,1.6
	c-0.4,0.4-1,0.7-1.6,0.7s-1.2-0.2-1.6-0.7c-0.4-0.4-0.7-1-0.7-1.6s0.2-1.2,0.7-1.6C623.4,29.2,623.9,29,624.5,29z M624.5,20.8
	c0.6,0,1.1,0.2,1.5,0.6s0.6,0.9,0.6,1.5s-0.2,1.1-0.6,1.5c-0.4,0.4-0.9,0.6-1.5,0.6s-1.1-0.2-1.5-0.6s-0.6-0.9-0.6-1.5
	s0.2-1.1,0.6-1.5C623.5,21,624,20.8,624.5,20.8z M624.5,12.6c0.5,0,1,0.2,1.3,0.6c0.4,0.4,0.6,0.8,0.6,1.3s-0.2,1-0.6,1.3
	c-0.4,0.4-0.8,0.6-1.3,0.6s-1-0.2-1.3-0.6c-0.4-0.4-0.6-0.8-0.6-1.3s0.2-1,0.6-1.3C623.5,12.8,624,12.6,624.5,12.6z M624.5,4.5
	c0.5,0,0.9,0.2,1.2,0.5s0.5,0.8,0.5,1.2c0,0.5-0.2,0.9-0.5,1.2c-0.3,0.3-0.8,0.5-1.2,0.5c-0.5,0-0.9-0.2-1.2-0.5s-0.5-0.8-0.5-1.2
	c0-0.5,0.2-0.9,0.5-1.2C623.6,4.7,624.1,4.5,624.5,4.5z M611.9,37.1c0.7,0,1.3,0.3,1.7,0.7s0.7,1,0.7,1.7s-0.3,1.3-0.7,1.7
	s-1,0.7-1.7,0.7s-1.3-0.3-1.7-0.7s-0.7-1-0.7-1.7s0.3-1.3,0.7-1.7C610.7,37.4,611.3,37.1,611.9,37.1z M611.9,29
	c0.6,0,1.2,0.2,1.6,0.7c0.4,0.4,0.7,1,0.7,1.6s-0.2,1.2-0.7,1.6c-0.4,0.4-1,0.7-1.6,0.7s-1.2-0.2-1.6-0.7c-0.4-0.4-0.7-1-0.7-1.6
	s0.2-1.2,0.7-1.6C610.7,29.2,611.3,29,611.9,29z M563.1,106.2c0,1.1-0.4,2-1.1,2.7c-0.7,0.7-1.6,1.1-2.7,1.1c-1.1,0-2-0.4-2.7-1.1
	s-1.1-1.6-1.1-2.7c0-2.1,1.7-3.8,3.8-3.8C561.4,102.4,563.1,104.1,563.1,106.2z M559.3,94.2c1,0,1.9,0.4,2.6,1.1
	c0.7,0.7,1.1,1.6,1.1,2.6s-0.4,1.9-1.1,2.6c-0.7,0.7-1.6,1.1-2.6,1.1s-1.9-0.4-2.6-1.1c-0.7-0.7-1.1-1.6-1.1-2.6s0.4-1.9,1.1-2.6
	C557.4,94.6,558.3,94.2,559.3,94.2z M559.3,86.1c0.9,0,1.8,0.4,2.4,1c0.6,0.6,1,1.5,1,2.4c0,1-0.4,1.8-1,2.4s-1.5,1-2.4,1
	c-1,0-1.8-0.4-2.4-1c-0.6-0.6-1-1.5-1-2.4c0-1,0.4-1.8,1-2.4C557.4,86.5,558.3,86.1,559.3,86.1z M559.3,77.9c0.9,0,1.7,0.4,2.3,1
	s1,1.4,1,2.3s-0.4,1.7-1,2.3c-0.6,0.6-1.4,1-2.3,1c-0.9,0-1.7-0.4-2.3-1s-1-1.4-1-2.3s0.4-1.7,1-2.3
	C557.5,78.3,558.4,77.9,559.3,77.9z M549.8,106.2c0,1.1-0.4,2-1.1,2.7c-0.7,0.7-1.6,1.1-2.7,1.1c-1,0-2-0.4-2.7-1.1
	s-1.1-1.6-1.1-2.7c0-2.1,1.7-3.8,3.8-3.8C548.1,102.4,549.8,104.1,549.8,106.2z M546,94.2c1,0,1.9,0.4,2.6,1.1
	c0.7,0.7,1.1,1.6,1.1,2.6s-0.4,1.9-1.1,2.6c-0.7,0.7-1.6,1.1-2.6,1.1s-1.9-0.4-2.6-1.1c-0.7-0.7-1.1-1.6-1.1-2.6s0.4-1.9,1.1-2.6
	S545,94.2,546,94.2z M537.4,106.2c0,1.1-0.4,2-1.1,2.7c-0.7,0.7-1.6,1.1-2.7,1.1c-1.1,0-2-0.4-2.7-1.1s-1.1-1.6-1.1-2.7
	c0-2.1,1.7-3.8,3.8-3.8C535.7,102.4,537.4,104.1,537.4,106.2z M691.4,106.2c0,1.1-0.4,2-1.1,2.7c-0.7,0.7-1.6,1.1-2.7,1.1
	c-1.1,0-2-0.4-2.7-1.1s-1.1-1.6-1.1-2.7c0-2.1,1.7-3.8,3.8-3.8C689.7,102.4,691.4,104.1,691.4,106.2z M687.6,94.2
	c1,0,1.9,0.4,2.6,1.1c0.7,0.7,1.1,1.6,1.1,2.6s-0.4,1.9-1.1,2.6c-0.7,0.7-1.6,1.1-2.6,1.1s-1.9-0.4-2.6-1.1
	c-0.7-0.7-1.1-1.6-1.1-2.6s0.4-1.9,1.1-2.6C685.7,94.6,686.6,94.2,687.6,94.2z M687.6,86.1c1,0,1.8,0.4,2.4,1c0.6,0.6,1,1.5,1,2.4
	c0,1-0.4,1.8-1,2.4s-1.5,1-2.4,1c-1,0-1.8-0.4-2.4-1c-0.6-0.6-1-1.5-1-2.4c0-1,0.4-1.8,1-2.4C685.8,86.5,686.7,86.1,687.6,86.1z
	 M687.6,77.9c0.9,0,1.7,0.4,2.3,1s1,1.4,1,2.3s-0.4,1.7-1,2.3c-0.6,0.6-1.4,1-2.3,1c-0.9,0-1.7-0.4-2.3-1s-1-1.4-1-2.3
	s0.4-1.7,1-2.3C685.9,78.3,686.7,77.9,687.6,77.9z M701.2,77.9c0.9,0,1.7,0.4,2.3,1s1,1.4,1,2.3s-0.4,1.7-1,2.3
	c-0.6,0.6-1.4,1-2.3,1c-0.9,0-1.7-0.4-2.3-1s-1-1.4-1-2.3s0.4-1.7,1-2.3C699.4,78.3,700.3,77.9,701.2,77.9z M739.9,77.9
	c0.9,0,1.7,0.4,2.3,1s1,1.4,1,2.3s-0.4,1.7-1,2.3c-0.6,0.6-1.4,1-2.3,1c-0.9,0-1.7-0.4-2.3-1s-1-1.4-1-2.3s0.4-1.7,1-2.3
	C738.2,78.3,739,77.9,739.9,77.9z M731.3,106.2c0,1.1-0.4,2-1.1,2.7c-0.7,0.7-1.6,1.1-2.7,1.1c-1,0-2-0.4-2.7-1.1s-1.1-1.6-1.1-2.7
	c0-2.1,1.7-3.8,3.8-3.8C729.5,102.4,731.3,104.1,731.3,106.2z M727.5,94.2c1,0,1.9,0.4,2.6,1.1c0.7,0.7,1.1,1.6,1.1,2.6
	s-0.4,1.9-1.1,2.6c-0.7,0.7-1.6,1.1-2.6,1.1s-1.9-0.4-2.6-1.1c-0.7-0.7-1.1-1.6-1.1-2.6s0.4-1.9,1.1-2.6
	C725.5,94.6,726.5,94.2,727.5,94.2z M678.2,106.2c0,1.1-0.4,2-1.1,2.7c-0.7,0.7-1.6,1.1-2.7,1.1c-1,0-2-0.4-2.7-1.1
	s-1.1-1.6-1.1-2.7c0-2.1,1.7-3.8,3.8-3.8C676.5,102.4,678.2,104.1,678.2,106.2z M674.4,94.2c1,0,1.9,0.4,2.6,1.1
	c0.7,0.7,1.1,1.6,1.1,2.6s-0.4,1.9-1.1,2.6c-0.7,0.7-1.6,1.1-2.6,1.1s-1.9-0.4-2.6-1.1c-0.7-0.7-1.1-1.6-1.1-2.6s0.4-1.9,1.1-2.6
	S673.4,94.2,674.4,94.2z M674.4,86.1c1,0,1.8,0.4,2.4,1c0.6,0.6,1,1.5,1,2.4c0,1-0.4,1.8-1,2.4s-1.5,1-2.4,1c-1,0-1.8-0.4-2.4-1
	c-0.6-0.6-1-1.5-1-2.4c0-1,0.4-1.8,1-2.4S673.4,86.1,674.4,86.1z M674.4,77.9c0.9,0,1.7,0.4,2.3,1s1,1.4,1,2.3s-0.4,1.7-1,2.3
	c-0.6,0.6-1.4,1-2.3,1c-0.9,0-1.7-0.4-2.3-1s-1-1.4-1-2.3s0.4-1.7,1-2.3C672.7,78.3,673.5,77.9,674.4,77.9z M674.4,69.8
	c0.9,0,1.6,0.3,2.2,0.9c0.6,0.6,0.9,1.3,0.9,2.2c0,0.9-0.3,1.6-0.9,2.2c-0.6,0.6-1.3,0.9-2.2,0.9s-1.6-0.3-2.2-0.9
	c-0.6-0.6-0.9-1.3-0.9-2.2c0-0.9,0.3-1.6,0.9-2.2C672.7,70.1,673.5,69.8,674.4,69.8z M687.9,69.8c0.9,0,1.6,0.3,2.2,0.9
	c0.6,0.6,0.9,1.3,0.9,2.2c0,0.9-0.3,1.6-0.9,2.2c-0.6,0.6-1.3,0.9-2.2,0.9s-1.6-0.3-2.2-0.9c-0.6-0.6-0.9-1.3-0.9-2.2
	c0-0.9,0.3-1.6,0.9-2.2C686.3,70.1,687,69.8,687.9,69.8z M674.4,61.6c0.8,0,1.5,0.3,2.1,0.9c0.5,0.5,0.9,1.3,0.9,2.1
	c0,0.8-0.3,1.5-0.9,2.1c-0.5,0.5-1.3,0.9-2.1,0.9s-1.5-0.3-2.1-0.9c-0.5-0.5-0.9-1.3-0.9-2.1c0-0.8,0.3-1.5,0.9-2.1
	C672.8,61.9,673.6,61.6,674.4,61.6z M674.4,53.4c0.8,0,1.4,0.3,1.9,0.8s0.8,1.2,0.8,1.9c0,0.8-0.3,1.4-0.8,1.9s-1.2,0.8-1.9,0.8
	c-0.8,0-1.4-0.3-1.9-0.8s-0.8-1.2-0.8-1.9c0-0.8,0.3-1.4,0.8-1.9C672.9,53.7,673.6,53.4,674.4,53.4z M704.7,106.2
	c0,1.1-0.4,2-1.1,2.7c-0.7,0.7-1.6,1.1-2.7,1.1c-1.1,0-2-0.4-2.7-1.1s-1.1-1.6-1.1-2.7c0-2.1,1.7-3.8,3.8-3.8
	C703,102.4,704.7,104.1,704.7,106.2z M700.9,94.2c1,0,1.9,0.4,2.6,1.1c0.7,0.7,1.1,1.6,1.1,2.6s-0.4,1.9-1.1,2.6
	c-0.7,0.7-1.6,1.1-2.6,1.1s-1.9-0.4-2.6-1.1c-0.7-0.7-1.1-1.6-1.1-2.6s0.4-1.9,1.1-2.6S699.9,94.2,700.9,94.2z M700.9,86.1
	c0.9,0,1.8,0.4,2.4,1c0.6,0.6,1,1.5,1,2.4c0,1-0.4,1.8-1,2.4s-1.5,1-2.4,1c-1,0-1.8-0.4-2.4-1c-0.6-0.6-1-1.5-1-2.4
	c0-1,0.4-1.8,1-2.4S700,86.1,700.9,86.1z M727.9,86.1c0.9,0,1.8,0.4,2.4,1c0.6,0.6,1,1.5,1,2.4c0,1-0.4,1.8-1,2.4s-1.5,1-2.4,1
	c-1,0-1.8-0.4-2.4-1c-0.6-0.6-1-1.5-1-2.4c0-1,0.4-1.8,1-2.4S727,86.1,727.9,86.1z M664.9,106.2c0,1.1-0.4,2-1.1,2.7
	c-0.7,0.7-1.6,1.1-2.7,1.1c-1.1,0-2-0.4-2.7-1.1s-1.1-1.6-1.1-2.7c0-2.1,1.7-3.8,3.8-3.8C663.2,102.4,664.9,104.1,664.9,106.2z
	 M661.1,86.1c0.9,0,1.8,0.4,2.4,1c0.6,0.6,1,1.5,1,2.4c0,1-0.4,1.8-1,2.4s-1.5,1-2.4,1c-1,0-1.8-0.4-2.4-1c-0.6-0.6-1-1.5-1-2.4
	c0-1,0.4-1.8,1-2.4C659.3,86.5,660.2,86.1,661.1,86.1z M661.1,77.9c0.9,0,1.7,0.4,2.3,1s1,1.4,1,2.3s-0.4,1.7-1,2.3
	c-0.6,0.6-1.4,1-2.3,1c-0.9,0-1.7-0.4-2.3-1s-1-1.4-1-2.3s0.4-1.7,1-2.3C659.4,78.3,660.2,77.9,661.1,77.9z M661.1,69.8
	c0.9,0,1.6,0.3,2.2,0.9c0.6,0.6,0.9,1.3,0.9,2.2c0,0.9-0.3,1.6-0.9,2.2c-0.6,0.6-1.3,0.9-2.2,0.9s-1.6-0.3-2.2-0.9
	c-0.6-0.6-0.9-1.3-0.9-2.2c0-0.9,0.3-1.6,0.9-2.2C659.5,70.1,660.3,69.8,661.1,69.8z M649.4,61.6c0.8,0,1.5,0.3,2.1,0.9
	c0.5,0.5,0.9,1.3,0.9,2.1c0,0.8-0.3,1.5-0.9,2.1c-0.5,0.5-1.3,0.9-2.1,0.9s-1.5-0.3-2.1-0.9c-0.5-0.5-0.9-1.3-0.9-2.1
	c0-0.8,0.3-1.5,0.9-2.1C647.9,61.9,648.6,61.6,649.4,61.6z M718,106.2c0,1.1-0.4,2-1.1,2.7c-0.7,0.7-1.6,1.1-2.7,1.1
	c-1,0-2-0.4-2.7-1.1s-1.1-1.6-1.1-2.7c0-2.1,1.7-3.8,3.8-3.8C716.3,102.4,718,104.1,718,106.2z M714.2,94.2c1,0,1.9,0.4,2.6,1.1
	c0.7,0.7,1.1,1.6,1.1,2.6s-0.4,1.9-1.1,2.6c-0.7,0.7-1.6,1.1-2.6,1.1s-1.9-0.4-2.6-1.1c-0.7-0.7-1.1-1.6-1.1-2.6s0.4-1.9,1.1-2.6
	S713.2,94.2,714.2,94.2z M653,106.2c0,1.1-0.4,2-1.1,2.7c-0.7,0.7-1.6,1.1-2.7,1.1c-1.1,0-2-0.4-2.7-1.1s-1.1-1.6-1.1-2.7
	c0-2.1,1.7-3.8,3.8-3.8C651.3,102.4,653,104.1,653,106.2z M649.2,94.2c1,0,1.9,0.4,2.6,1.1c0.7,0.7,1.1,1.6,1.1,2.6
	s-0.4,1.9-1.1,2.6c-0.7,0.7-1.6,1.1-2.6,1.1s-1.9-0.4-2.6-1.1c-0.7-0.7-1.1-1.6-1.1-2.6s0.4-1.9,1.1-2.6
	C647.2,94.6,648.2,94.2,649.2,94.2z M660.9,94.2c1,0,1.9,0.4,2.6,1.1c0.7,0.7,1.1,1.6,1.1,2.6s-0.4,1.9-1.1,2.6
	c-0.7,0.7-1.6,1.1-2.6,1.1s-1.9-0.4-2.6-1.1c-0.7-0.7-1.1-1.6-1.1-2.6s0.4-1.9,1.1-2.6S659.9,94.2,660.9,94.2z M649.2,86.1
	c1,0,1.8,0.4,2.4,1c0.6,0.6,1,1.5,1,2.4c0,1-0.4,1.8-1,2.4s-1.5,1-2.4,1s-1.8-0.4-2.4-1c-0.6-0.6-1-1.5-1-2.4c0-1,0.4-1.8,1-2.4
	C647.3,86.5,648.2,86.1,649.2,86.1z M649.2,77.9c0.9,0,1.7,0.4,2.3,1s1,1.4,1,2.3s-0.4,1.7-1,2.3c-0.6,0.6-1.4,1-2.3,1
	s-1.7-0.4-2.3-1s-1-1.4-1-2.3s0.4-1.7,1-2.3C647.4,78.3,648.3,77.9,649.2,77.9z"/>
</svg>
