<?xml version="1.0" encoding="utf-8"?>
<!-- Generator: Adobe Illustrator 20.1.0, SVG Export Plug-In . SVG Version: 6.00 Build 0)  -->
<svg version="1.1" id="Layer_1" xmlns="http://www.w3.org/2000/svg" xmlns:xlink="http://www.w3.org/1999/xlink" x="0px" y="0px"
	 viewBox="0 0 800 110" style="enable-background:new 0 0 800 110;" xml:space="preserve">
<style type="text/css">
	.st0{fill:url(#SVGID_1_);}
</style>
<g>
	
		<linearGradient id="SVGID_1_" gradientUnits="userSpaceOnUse" x1="205.55" y1="-9.094947e-13" x2="205.55" y2="105.2" gradientTransform="matrix(1 0 0 -1 0 110)">
		<stop  offset="0" style="stop-color:#68cff7"/>
		<stop  offset="1" style="stop-color:#ffb74d">
			<animate attributeName="offset" values="1;0.5;1" dur="2s" repeatCount="indefinite" />
         </stop>
	</linearGradient>

	<path class="st0" d="M22.2,105.5c0,1.2-0.5,2.4-1.3,3.2c-0.8,0.8-1.9,1.3-3.2,1.3c-1.2,0-2.4-0.5-3.2-1.3s-1.3-1.9-1.3-3.2
		c0-2.5,2-4.5,4.5-4.5S22.2,103.1,22.2,105.5z M37.9,105.5c0,1.2-0.5,2.4-1.3,3.2c-0.8,0.8-1.9,1.3-3.2,1.3c-1.2,0-2.4-0.5-3.2-1.3
		c-0.8-0.8-1.3-1.9-1.3-3.2c0-2.5,2-4.5,4.5-4.5S37.9,103.1,37.9,105.5z M53.5,105.5c0,1.2-0.5,2.4-1.3,3.2
		c-0.8,0.8-1.9,1.3-3.2,1.3c-1.2,0-2.4-0.5-3.2-1.3s-1.3-1.9-1.3-3.2c0-2.5,2-4.5,4.5-4.5S53.5,103.1,53.5,105.5z M69.2,105.5
		c0,1.2-0.5,2.4-1.3,3.2c-0.8,0.8-1.9,1.3-3.2,1.3c-1.2,0-2.4-0.5-3.2-1.3s-1.3-1.9-1.3-3.2c0-2.5,2-4.5,4.5-4.5
		S69.2,103.1,69.2,105.5z M84.8,105.5c0,1.2-0.5,2.4-1.3,3.2c-0.8,0.8-1.9,1.3-3.2,1.3c-1.2,0-2.4-0.5-3.2-1.3
		c-0.8-0.8-1.3-1.9-1.3-3.2c0-2.5,2-4.5,4.5-4.5S84.8,103.1,84.8,105.5z M100.5,105.5c0,1.2-0.5,2.4-1.3,3.2
		c-0.8,0.8-1.9,1.3-3.2,1.3c-1.2,0-2.4-0.5-3.2-1.3c-0.8-0.8-1.3-1.9-1.3-3.2c0-2.5,2-4.5,4.5-4.5S100.5,103.1,100.5,105.5z
		 M116.1,105.5c0,1.2-0.5,2.4-1.3,3.2c-0.8,0.8-1.9,1.3-3.2,1.3c-1.2,0-2.4-0.5-3.2-1.3c-0.8-0.8-1.3-1.9-1.3-3.2
		c0-2.5,2-4.5,4.5-4.5S116.1,103.1,116.1,105.5z M131.8,105.5c0,1.2-0.5,2.4-1.3,3.2c-0.8,0.8-1.9,1.3-3.2,1.3s-2.4-0.5-3.2-1.3
		c-0.8-0.8-1.3-1.9-1.3-3.2c0-2.5,2-4.5,4.5-4.5S131.8,103.1,131.8,105.5z M147.4,105.5c0,1.2-0.5,2.4-1.3,3.2
		c-0.8,0.8-1.9,1.3-3.2,1.3c-1.2,0-2.4-0.5-3.2-1.3s-1.3-1.9-1.3-3.2c0-2.5,2-4.5,4.5-4.5S147.4,103.1,147.4,105.5z M163.1,105.5
		c0,1.2-0.5,2.4-1.3,3.2c-0.8,0.8-1.9,1.3-3.2,1.3c-1.2,0-2.4-0.5-3.2-1.3s-1.3-1.9-1.3-3.2c0-2.5,2-4.5,4.5-4.5
		S163.1,103.1,163.1,105.5z M178.7,105.5c0,1.2-0.5,2.4-1.3,3.2c-0.8,0.8-1.9,1.3-3.2,1.3c-1.2,0-2.4-0.5-3.2-1.3s-1.3-1.9-1.3-3.2
		c0-2.5,2-4.5,4.5-4.5S178.7,103.1,178.7,105.5z M194.4,105.5c0,1.2-0.5,2.4-1.3,3.2c-0.8,0.8-1.9,1.3-3.2,1.3
		c-1.2,0-2.4-0.5-3.2-1.3s-1.3-1.9-1.3-3.2c0-2.5,2-4.5,4.5-4.5S194.4,103.1,194.4,105.5z M210.1,105.5c0,1.2-0.5,2.4-1.3,3.2
		c-0.8,0.8-1.9,1.3-3.2,1.3c-1.2,0-2.4-0.5-3.2-1.3s-1.3-1.9-1.3-3.2c0-2.5,2-4.5,4.5-4.5C208,101,210.1,103.1,210.1,105.5z
		 M225.7,105.5c0,1.2-0.5,2.4-1.3,3.2c-0.8,0.8-1.9,1.3-3.2,1.3c-1.2,0-2.4-0.5-3.2-1.3s-1.3-1.9-1.3-3.2c0-2.5,2-4.5,4.5-4.5
		S225.7,103.1,225.7,105.5z M241.4,105.5c0,1.2-0.5,2.4-1.3,3.2c-0.8,0.8-1.9,1.3-3.2,1.3c-1.2,0-2.4-0.5-3.2-1.3s-1.3-1.9-1.3-3.2
		c0-2.5,2-4.5,4.5-4.5S241.4,103.1,241.4,105.5z M257,105.5c0,1.2-0.5,2.4-1.3,3.2c-0.8,0.8-1.9,1.3-3.2,1.3c-1.2,0-2.4-0.5-3.2-1.3
		s-1.3-1.9-1.3-3.2c0-2.5,2-4.5,4.5-4.5S257,103.1,257,105.5z M272.7,105.5c0,1.2-0.5,2.4-1.3,3.2c-0.8,0.8-1.9,1.3-3.2,1.3
		c-1.2,0-2.4-0.5-3.2-1.3c-0.8-0.8-1.3-1.9-1.3-3.2c0-2.5,2-4.5,4.5-4.5S272.7,103.1,272.7,105.5z M288.3,105.5
		c0,1.2-0.5,2.4-1.3,3.2c-0.8,0.8-1.9,1.3-3.2,1.3c-1.2,0-2.4-0.5-3.2-1.3c-0.8-0.8-1.3-1.9-1.3-3.2c0-2.5,2-4.5,4.5-4.5
		S288.3,103.1,288.3,105.5z M304,105.5c0,1.2-0.5,2.4-1.3,3.2c-0.8,0.8-1.9,1.3-3.2,1.3c-1.2,0-2.4-0.5-3.2-1.3
		c-0.8-0.8-1.3-1.9-1.3-3.2c0-2.5,2-4.5,4.5-4.5S304,103.1,304,105.5z M319.6,105.5c0,1.2-0.5,2.4-1.3,3.2c-0.8,0.8-1.9,1.3-3.2,1.3
		c-1.2,0-2.4-0.5-3.2-1.3c-0.8-0.8-1.3-1.9-1.3-3.2c0-2.5,2-4.5,4.5-4.5S319.6,103.1,319.6,105.5z M335.3,105.5
		c0,1.2-0.5,2.4-1.3,3.2c-0.8,0.8-1.9,1.3-3.2,1.3c-1.2,0-2.4-0.5-3.2-1.3c-0.8-0.8-1.3-1.9-1.3-3.2c0-2.5,2-4.5,4.5-4.5
		S335.3,103.1,335.3,105.5z M350.9,105.5c0,1.2-0.5,2.4-1.3,3.2c-0.8,0.8-1.9,1.3-3.2,1.3c-1.2,0-2.4-0.5-3.2-1.3
		c-0.8-0.8-1.3-1.9-1.3-3.2c0-2.5,2-4.5,4.5-4.5S350.9,103.1,350.9,105.5z M366.6,105.5c0,1.2-0.5,2.4-1.3,3.2
		c-0.8,0.8-1.9,1.3-3.2,1.3c-1.2,0-2.4-0.5-3.2-1.3c-0.8-0.8-1.3-1.9-1.3-3.2c0-2.5,2-4.5,4.5-4.5S366.6,103.1,366.6,105.5z
		 M382.2,105.5c0,1.2-0.5,2.4-1.3,3.2c-0.8,0.8-1.9,1.3-3.2,1.3c-1.2,0-2.4-0.5-3.2-1.3c-0.8-0.8-1.3-1.9-1.3-3.2
		c0-2.5,2-4.5,4.5-4.5S382.2,103.1,382.2,105.5z M397.9,105.5c0,1.2-0.5,2.4-1.3,3.2c-0.8,0.8-1.9,1.3-3.2,1.3
		c-1.2,0-2.4-0.5-3.2-1.3c-0.8-0.8-1.3-1.9-1.3-3.2c0-2.5,2-4.5,4.5-4.5S397.9,103.1,397.9,105.5z M33.4,91.4c1.2,0,2.3,0.5,3,1.3
		c0.8,0.8,1.3,1.8,1.3,3s-0.5,2.3-1.3,3c-0.8,0.8-1.8,1.3-3,1.3s-2.2-0.5-3-1.3s-1.3-1.8-1.3-3s0.5-2.2,1.3-3
		C31.1,91.9,32.2,91.4,33.4,91.4z M49,91.4c1.2,0,2.3,0.5,3,1.3c0.8,0.8,1.3,1.8,1.3,3s-0.5,2.3-1.3,3c-0.8,0.8-1.8,1.3-3,1.3
		s-2.2-0.5-3-1.3s-1.3-1.8-1.3-3s0.5-2.2,1.3-3S47.9,91.4,49,91.4z M64.7,91.4c1.2,0,2.2,0.5,3,1.3s1.3,1.8,1.3,3s-0.5,2.3-1.3,3
		c-0.8,0.8-1.8,1.3-3,1.3c-1.2,0-2.2-0.5-3-1.3s-1.3-1.8-1.3-3s0.5-2.2,1.3-3C62.4,91.9,63.5,91.4,64.7,91.4z M80.3,91.4
		c1.2,0,2.2,0.5,3,1.3s1.3,1.8,1.3,3s-0.5,2.3-1.3,3c-0.8,0.8-1.8,1.3-3,1.3s-2.2-0.5-3-1.3s-1.3-1.8-1.3-3s0.5-2.2,1.3-3
		C78.1,91.9,79.2,91.4,80.3,91.4z M96,91.4c1.2,0,2.3,0.5,3,1.3c0.8,0.8,1.3,1.8,1.3,3s-0.5,2.3-1.3,3c-0.8,0.8-1.8,1.3-3,1.3
		s-2.3-0.5-3-1.3c-0.8-0.8-1.3-1.8-1.3-3s0.5-2.2,1.3-3S94.8,91.4,96,91.4z M111.7,91.4c1.2,0,2.3,0.5,3,1.3c0.8,0.8,1.3,1.8,1.3,3
		s-0.5,2.3-1.3,3c-0.8,0.8-1.8,1.3-3,1.3s-2.3-0.5-3-1.3c-0.8-0.8-1.3-1.8-1.3-3s0.5-2.2,1.3-3C109.4,91.9,110.5,91.4,111.7,91.4z
		 M127.3,91.4c1.2,0,2.3,0.5,3,1.3c0.8,0.8,1.3,1.8,1.3,3s-0.5,2.3-1.3,3c-0.8,0.8-1.8,1.3-3,1.3s-2.3-0.5-3-1.3
		c-0.8-0.8-1.3-1.8-1.3-3s0.5-2.2,1.3-3C125.1,91.9,126.1,91.4,127.3,91.4z M143,91.4c1.2,0,2.3,0.5,3,1.3c0.8,0.8,1.3,1.8,1.3,3
		s-0.5,2.3-1.3,3c-0.8,0.8-1.8,1.3-3,1.3s-2.2-0.5-3-1.3s-1.3-1.8-1.3-3s0.5-2.2,1.3-3C140.7,91.9,141.8,91.4,143,91.4z M158.6,91.4
		c1.2,0,2.2,0.5,3,1.3s1.3,1.8,1.3,3s-0.5,2.3-1.3,3c-0.8,0.8-1.8,1.3-3,1.3s-2.3-0.5-3-1.3c-0.8-0.8-1.3-1.8-1.3-3s0.5-2.2,1.3-3
		C156.4,91.9,157.4,91.4,158.6,91.4z M174.3,91.4c1.2,0,2.2,0.5,3,1.3s1.3,1.8,1.3,3s-0.5,2.3-1.3,3c-0.8,0.8-1.8,1.3-3,1.3
		s-2.2-0.5-3-1.3s-1.3-1.8-1.3-3s0.5-2.2,1.3-3C172,91.9,173.1,91.4,174.3,91.4z M189.9,91.4c1.2,0,2.2,0.5,3,1.3s1.3,1.8,1.3,3
		s-0.5,2.3-1.3,3c-0.8,0.8-1.8,1.3-3,1.3s-2.2-0.5-3-1.3s-1.3-1.8-1.3-3s0.5-2.2,1.3-3S188.7,91.4,189.9,91.4z M205.6,91.4
		c1.2,0,2.2,0.5,3,1.3s1.3,1.8,1.3,3s-0.5,2.3-1.3,3c-0.8,0.8-1.8,1.3-3,1.3s-2.3-0.5-3-1.3c-0.8-0.8-1.3-1.8-1.3-3s0.5-2.2,1.3-3
		C203.3,91.9,204.4,91.4,205.6,91.4z M221.2,91.4c1.2,0,2.2,0.5,3,1.3s1.3,1.8,1.3,3s-0.5,2.3-1.3,3c-0.8,0.8-1.8,1.3-3,1.3
		s-2.3-0.5-3-1.3c-0.8-0.8-1.3-1.8-1.3-3s0.5-2.2,1.3-3S220,91.4,221.2,91.4z M236.9,91.4c1.2,0,2.2,0.5,3,1.3s1.3,1.8,1.3,3
		s-0.5,2.3-1.3,3c-0.8,0.8-1.8,1.3-3,1.3s-2.2-0.5-3-1.3s-1.3-1.8-1.3-3s0.5-2.2,1.3-3C234.6,91.9,235.7,91.4,236.9,91.4z
		 M252.5,91.4c1.2,0,2.2,0.5,3,1.3c0.8,0.8,1.3,1.8,1.3,3s-0.5,2.3-1.3,3c-0.8,0.8-1.8,1.3-3,1.3s-2.2-0.5-3-1.3s-1.3-1.8-1.3-3
		s0.5-2.2,1.3-3C250.3,91.9,251.3,91.4,252.5,91.4z M268.2,91.4c1.2,0,2.2,0.5,3,1.3s1.3,1.8,1.3,3s-0.5,2.3-1.3,3
		c-0.8,0.8-1.8,1.3-3,1.3s-2.2-0.5-3-1.3s-1.3-1.8-1.3-3s0.5-2.2,1.3-3C265.9,91.9,267,91.4,268.2,91.4z M283.8,91.4
		c1.2,0,2.2,0.5,3,1.3s1.3,1.8,1.3,3s-0.5,2.3-1.3,3c-0.8,0.8-1.8,1.3-3,1.3s-2.2-0.5-3-1.3s-1.3-1.8-1.3-3s0.5-2.2,1.3-3
		C281.6,91.9,282.7,91.4,283.8,91.4z M299.5,91.4c1.2,0,2.2,0.5,3,1.3s1.3,1.8,1.3,3s-0.5,2.3-1.3,3c-0.8,0.8-1.8,1.3-3,1.3
		s-2.2-0.5-3-1.3s-1.3-1.8-1.3-3s0.5-2.2,1.3-3C297.2,91.9,298.3,91.4,299.5,91.4z M315.1,91.4c1.2,0,2.2,0.5,3,1.3s1.3,1.8,1.3,3
		s-0.5,2.3-1.3,3c-0.8,0.8-1.8,1.3-3,1.3s-2.2-0.5-3-1.3s-1.3-1.8-1.3-3s0.5-2.2,1.3-3S314,91.4,315.1,91.4z M330.8,91.4
		c1.2,0,2.2,0.5,3,1.3s1.3,1.8,1.3,3s-0.5,2.3-1.3,3c-0.8,0.8-1.8,1.3-3,1.3s-2.2-0.5-3-1.3s-1.3-1.8-1.3-3s0.5-2.2,1.3-3
		C328.5,91.9,329.6,91.4,330.8,91.4z M346.4,91.4c1.2,0,2.3,0.5,3,1.3c0.8,0.8,1.3,1.8,1.3,3s-0.5,2.3-1.3,3c-0.8,0.8-1.8,1.3-3,1.3
		s-2.2-0.5-3-1.3s-1.3-1.8-1.3-3s0.5-2.2,1.3-3C344.2,91.9,345.3,91.4,346.4,91.4z M362.1,91.4c1.2,0,2.2,0.5,3,1.3s1.3,1.8,1.3,3
		s-0.5,2.3-1.3,3c-0.8,0.8-1.8,1.3-3,1.3s-2.2-0.5-3-1.3s-1.3-1.8-1.3-3s0.5-2.2,1.3-3C359.8,91.9,360.9,91.4,362.1,91.4z
		 M377.8,91.4c1.2,0,2.2,0.5,3,1.3s1.3,1.8,1.3,3s-0.5,2.3-1.3,3c-0.8,0.8-1.8,1.3-3,1.3s-2.2-0.5-3-1.3s-1.3-1.8-1.3-3
		s0.5-2.2,1.3-3C375.5,91.9,376.6,91.4,377.8,91.4z M49,81.8c1.1,0,2.1,0.5,2.9,1.2c0.7,0.7,1.2,1.8,1.2,2.9s-0.5,2.1-1.2,2.9
		C51.2,89.5,50.1,90,49,90c-1.1,0-2.1-0.5-2.9-1.2c-0.7-0.7-1.2-1.8-1.2-2.9s0.5-2.1,1.2-2.9C46.9,82.2,47.9,81.8,49,81.8z
		 M80.3,81.8c1.1,0,2.1,0.5,2.9,1.2c0.7,0.7,1.2,1.8,1.2,2.9s-0.5,2.1-1.2,2.9c-0.7,0.7-1.8,1.2-2.9,1.2s-2.1-0.5-2.9-1.2
		c-0.7-0.7-1.2-1.8-1.2-2.9s0.5-2.1,1.2-2.9C78.2,82.2,79.2,81.8,80.3,81.8z M96,81.8c1.1,0,2.1,0.5,2.9,1.2
		c0.7,0.7,1.2,1.8,1.2,2.9s-0.5,2.1-1.2,2.9C98.2,89.5,97.1,90,96,90s-2.1-0.5-2.9-1.2c-0.7-0.7-1.2-1.8-1.2-2.9s0.5-2.1,1.2-2.9
		C93.9,82.2,94.9,81.8,96,81.8z M111.7,81.8c1.1,0,2.1,0.5,2.9,1.2c0.7,0.7,1.2,1.8,1.2,2.9s-0.5,2.1-1.2,2.9
		c-0.7,0.7-1.8,1.2-2.9,1.2s-2.1-0.5-2.9-1.2c-0.7-0.7-1.2-1.8-1.2-2.9s0.5-2.1,1.2-2.9C109.5,82.2,110.5,81.8,111.7,81.8z
		 M127.3,81.8c1.1,0,2.1,0.5,2.9,1.2c0.7,0.7,1.2,1.8,1.2,2.9s-0.5,2.1-1.2,2.9c-0.7,0.7-1.8,1.2-2.9,1.2s-2.1-0.5-2.9-1.2
		c-0.7-0.7-1.2-1.8-1.2-2.9s0.5-2.1,1.2-2.9C125.2,82.2,126.2,81.8,127.3,81.8z M143,81.8c1.1,0,2.1,0.5,2.9,1.2
		c0.7,0.7,1.2,1.8,1.2,2.9s-0.5,2.1-1.2,2.9c-0.7,0.7-1.8,1.2-2.9,1.2c-1.1,0-2.1-0.5-2.9-1.2c-0.7-0.7-1.2-1.8-1.2-2.9
		s0.5-2.1,1.2-2.9C140.8,82.2,141.8,81.8,143,81.8z M158.6,81.8c1.1,0,2.1,0.5,2.9,1.2c0.7,0.7,1.2,1.8,1.2,2.9s-0.5,2.1-1.2,2.9
		c-0.7,0.7-1.8,1.2-2.9,1.2s-2.1-0.5-2.9-1.2c-0.7-0.7-1.2-1.8-1.2-2.9s0.5-2.1,1.2-2.9C156.5,82.2,157.5,81.8,158.6,81.8z
		 M174.3,81.8c1.1,0,2.1,0.5,2.9,1.2c0.7,0.7,1.2,1.8,1.2,2.9s-0.5,2.1-1.2,2.9c-0.7,0.7-1.8,1.2-2.9,1.2s-2.1-0.5-2.9-1.2
		c-0.7-0.7-1.2-1.8-1.2-2.9s0.5-2.1,1.2-2.9C172.1,82.2,173.1,81.8,174.3,81.8z M189.9,81.8c1.1,0,2.1,0.5,2.9,1.2
		c0.7,0.7,1.2,1.8,1.2,2.9s-0.5,2.1-1.2,2.9c-0.7,0.7-1.8,1.2-2.9,1.2c-1.1,0-2.1-0.5-2.9-1.2c-0.7-0.7-1.2-1.8-1.2-2.9
		s0.5-2.1,1.2-2.9C187.8,82.2,188.8,81.8,189.9,81.8z M205.6,81.8c1.1,0,2.1,0.5,2.9,1.2c0.7,0.7,1.2,1.8,1.2,2.9s-0.5,2.1-1.2,2.9
		c-0.7,0.7-1.8,1.2-2.9,1.2c-1.1,0-2.1-0.5-2.9-1.2c-0.7-0.7-1.2-1.8-1.2-2.9s0.5-2.1,1.2-2.9C203.4,82.2,204.4,81.8,205.6,81.8z
		 M221.2,81.8c1.1,0,2.1,0.5,2.9,1.2c0.7,0.7,1.2,1.8,1.2,2.9s-0.5,2.1-1.2,2.9c-0.7,0.7-1.8,1.2-2.9,1.2c-1.1,0-2.1-0.5-2.9-1.2
		c-0.7-0.7-1.2-1.8-1.2-2.9s0.5-2.1,1.2-2.9C219.1,82.2,220.1,81.8,221.2,81.8z M236.9,81.8c1.1,0,2.1,0.5,2.9,1.2
		c0.7,0.7,1.2,1.8,1.2,2.9s-0.5,2.1-1.2,2.9c-0.7,0.7-1.8,1.2-2.9,1.2c-1.1,0-2.1-0.5-2.9-1.2c-0.7-0.7-1.2-1.8-1.2-2.9
		s0.5-2.1,1.2-2.9C234.7,82.2,235.8,81.8,236.9,81.8z M252.5,81.8c1.1,0,2.1,0.5,2.9,1.2c0.7,0.7,1.2,1.8,1.2,2.9s-0.5,2.1-1.2,2.9
		c-0.7,0.7-1.8,1.2-2.9,1.2c-1.1,0-2.1-0.5-2.9-1.2c-0.7-0.7-1.2-1.8-1.2-2.9s0.5-2.1,1.2-2.9C250.4,82.2,251.4,81.8,252.5,81.8z
		 M268.2,81.8c1.1,0,2.1,0.5,2.9,1.2c0.7,0.7,1.2,1.8,1.2,2.9s-0.5,2.1-1.2,2.9c-0.7,0.7-1.8,1.2-2.9,1.2s-2.1-0.5-2.9-1.2
		c-0.7-0.7-1.2-1.8-1.2-2.9s0.5-2.1,1.2-2.9C266,82.2,267.1,81.8,268.2,81.8z M283.8,81.8c1.1,0,2.1,0.5,2.9,1.2
		c0.7,0.7,1.2,1.8,1.2,2.9s-0.5,2.1-1.2,2.9c-0.7,0.7-1.8,1.2-2.9,1.2s-2.1-0.5-2.9-1.2c-0.7-0.7-1.2-1.8-1.2-2.9s0.5-2.1,1.2-2.9
		C281.7,82.2,282.7,81.8,283.8,81.8z M299.5,81.8c1.1,0,2.1,0.5,2.9,1.2c0.7,0.7,1.2,1.8,1.2,2.9s-0.5,2.1-1.2,2.9
		c-0.7,0.7-1.8,1.2-2.9,1.2s-2.1-0.5-2.9-1.2c-0.7-0.7-1.2-1.8-1.2-2.9s0.5-2.1,1.2-2.9C297.3,82.2,298.4,81.8,299.5,81.8z
		 M315.1,81.8c1.1,0,2.1,0.5,2.9,1.2c0.7,0.7,1.2,1.8,1.2,2.9s-0.5,2.1-1.2,2.9c-0.7,0.7-1.8,1.2-2.9,1.2s-2.1-0.5-2.9-1.2
		c-0.7-0.7-1.2-1.8-1.2-2.9s0.5-2.1,1.2-2.9C313,82.2,314,81.8,315.1,81.8z M330.8,81.8c1.1,0,2.1,0.5,2.9,1.2
		c0.7,0.7,1.2,1.8,1.2,2.9s-0.5,2.1-1.2,2.9c-0.7,0.7-1.8,1.2-2.9,1.2s-2.1-0.5-2.9-1.2c-0.7-0.7-1.2-1.8-1.2-2.9s0.5-2.1,1.2-2.9
		C328.7,82.2,329.7,81.8,330.8,81.8z M362.1,81.8c1.1,0,2.1,0.5,2.9,1.2c0.7,0.7,1.2,1.8,1.2,2.9s-0.5,2.1-1.2,2.9
		c-0.7,0.7-1.8,1.2-2.9,1.2s-2.1-0.5-2.9-1.2c-0.7-0.7-1.2-1.8-1.2-2.9s0.5-2.1,1.2-2.9C360,82.2,361,81.8,362.1,81.8z M80.3,72.2
		c1.1,0,2,0.4,2.7,1.1s1.1,1.7,1.1,2.7c0,1.1-0.4,2-1.1,2.7s-1.7,1.1-2.7,1.1c-1.1,0-2-0.4-2.7-1.1S76.5,77,76.5,76
		c0-1.1,0.4-2,1.1-2.7C78.3,72.6,79.3,72.2,80.3,72.2z M96,72.2c1.1,0,2,0.4,2.7,1.1s1.1,1.7,1.1,2.7c0,1.1-0.4,2-1.1,2.7
		S97,79.8,96,79.8c-1.1,0-2-0.4-2.7-1.1S92.2,77,92.2,76c0-1.1,0.4-2,1.1-2.7C94,72.6,94.9,72.2,96,72.2z M111.7,72.2
		c1.1,0,2,0.4,2.7,1.1s1.1,1.7,1.1,2.7c0,1.1-0.4,2-1.1,2.7s-1.7,1.1-2.7,1.1s-2-0.4-2.7-1.1s-1.1-1.7-1.1-2.7c0-1.1,0.4-2,1.1-2.7
		C109.6,72.6,110.6,72.2,111.7,72.2z M127.3,72.2c1.1,0,2,0.4,2.7,1.1s1.1,1.7,1.1,2.7c0,1.1-0.4,2-1.1,2.7
		c-0.7,0.7-1.7,1.1-2.7,1.1c-1.1,0-2-0.4-2.7-1.1s-1.1-1.7-1.1-2.7c0-1.1,0.4-2,1.1-2.7C125.3,72.6,126.2,72.2,127.3,72.2z
		 M143,72.2c1.1,0,2,0.4,2.7,1.1s1.1,1.7,1.1,2.7c0,1.1-0.4,2-1.1,2.7c-0.7,0.7-1.7,1.1-2.7,1.1c-1.1,0-2-0.4-2.7-1.1
		s-1.1-1.7-1.1-2.7c0-1.1,0.4-2,1.1-2.7C140.9,72.6,141.9,72.2,143,72.2z M158.6,72.2c1.1,0,2,0.4,2.7,1.1s1.1,1.7,1.1,2.7
		c0,1.1-0.4,2-1.1,2.7c-0.7,0.7-1.7,1.1-2.7,1.1c-1.1,0-2-0.4-2.7-1.1s-1.1-1.7-1.1-2.7c0-1.1,0.4-2,1.1-2.7
		C156.6,72.6,157.5,72.2,158.6,72.2z M174.3,72.2c1.1,0,2,0.4,2.7,1.1s1.1,1.7,1.1,2.7c0,1.1-0.4,2-1.1,2.7
		c-0.7,0.7-1.7,1.1-2.7,1.1c-1.1,0-2-0.4-2.7-1.1s-1.1-1.7-1.1-2.7c0-1.1,0.4-2,1.1-2.7C172.2,72.6,173.2,72.2,174.3,72.2z
		 M189.9,72.2c1.1,0,2,0.4,2.7,1.1s1.1,1.7,1.1,2.7c0,1.1-0.4,2-1.1,2.7c-0.7,0.7-1.7,1.1-2.7,1.1c-1.1,0-2-0.4-2.7-1.1
		s-1.1-1.7-1.1-2.7c0-1.1,0.4-2,1.1-2.7C187.9,72.6,188.9,72.2,189.9,72.2z M205.6,72.2c1.1,0,2,0.4,2.7,1.1s1.1,1.7,1.1,2.7
		c0,1.1-0.4,2-1.1,2.7c-0.7,0.7-1.7,1.1-2.7,1.1c-1.1,0-2-0.4-2.7-1.1s-1.1-1.7-1.1-2.7c0-1.1,0.4-2,1.1-2.7
		C203.5,72.6,204.5,72.2,205.6,72.2z M221.2,72.2c1.1,0,2,0.4,2.7,1.1S225,75,225,76c0,1.1-0.4,2-1.1,2.7c-0.7,0.7-1.7,1.1-2.7,1.1
		c-1.1,0-2-0.4-2.7-1.1s-1.1-1.7-1.1-2.7c0-1.1,0.4-2,1.1-2.7C219.2,72.6,220.2,72.2,221.2,72.2z M236.9,72.2c1.1,0,2,0.4,2.7,1.1
		s1.1,1.7,1.1,2.7c0,1.1-0.4,2-1.1,2.7c-0.7,0.7-1.7,1.1-2.7,1.1c-1.1,0-2-0.4-2.7-1.1s-1.1-1.7-1.1-2.7c0-1.1,0.4-2,1.1-2.7
		C234.8,72.6,235.8,72.2,236.9,72.2z M252.5,72.2c1.1,0,2,0.4,2.7,1.1s1.1,1.7,1.1,2.7c0,1.1-0.4,2-1.1,2.7
		c-0.7,0.7-1.7,1.1-2.7,1.1c-1.1,0-2-0.4-2.7-1.1s-1.1-1.7-1.1-2.7c0-1.1,0.4-2,1.1-2.7C250.5,72.6,251.5,72.2,252.5,72.2z
		 M268.2,72.2c1.1,0,2,0.4,2.7,1.1S272,75,272,76c0,1.1-0.4,2-1.1,2.7s-1.7,1.1-2.7,1.1c-1.1,0-2-0.4-2.7-1.1s-1.1-1.7-1.1-2.7
		c0-1.1,0.4-2,1.1-2.7C266.2,72.6,267.1,72.2,268.2,72.2z M283.8,72.2c1.1,0,2,0.4,2.7,1.1s1.1,1.7,1.1,2.7c0,1.1-0.4,2-1.1,2.7
		s-1.7,1.1-2.7,1.1c-1.1,0-2-0.4-2.7-1.1S280,77,280,76c0-1.1,0.4-2,1.1-2.7C281.8,72.6,282.8,72.2,283.8,72.2z M299.5,72.2
		c1.1,0,2,0.4,2.7,1.1s1.1,1.7,1.1,2.7c0,1.1-0.4,2-1.1,2.7s-1.7,1.1-2.7,1.1c-1.1,0-2-0.4-2.7-1.1s-1.1-1.7-1.1-2.7
		c0-1.1,0.4-2,1.1-2.7C297.5,72.6,298.4,72.2,299.5,72.2z M315.1,72.2c1.1,0,2,0.4,2.7,1.1s1.1,1.7,1.1,2.7c0,1.1-0.4,2-1.1,2.7
		s-1.7,1.1-2.7,1.1c-1.1,0-2-0.4-2.7-1.1s-1.1-1.7-1.1-2.7c0-1.1,0.4-2,1.1-2.7C313.1,72.6,314.1,72.2,315.1,72.2z M330.8,72.2
		c1.1,0,2,0.4,2.7,1.1s1.1,1.7,1.1,2.7c0,1.1-0.4,2-1.1,2.7s-1.7,1.1-2.7,1.1c-1.1,0-2-0.4-2.7-1.1S327,77,327,76
		c0-1.1,0.4-2,1.1-2.7C328.8,72.6,329.7,72.2,330.8,72.2z M80.3,62.5c1,0,1.9,0.4,2.6,1.1c0.7,0.7,1.1,1.6,1.1,2.6s-0.4,1.9-1.1,2.6
		s-1.6,1.1-2.6,1.1s-1.9-0.4-2.6-1.1s-1.1-1.6-1.1-2.6s0.4-1.9,1.1-2.6S79.3,62.5,80.3,62.5z M96,62.5c1,0,1.9,0.4,2.6,1.1
		c0.7,0.7,1.1,1.6,1.1,2.6s-0.4,1.9-1.1,2.6S97,69.9,96,69.9s-1.9-0.4-2.6-1.1s-1.1-1.6-1.1-2.6s0.4-1.9,1.1-2.6S95,62.5,96,62.5z
		 M111.7,62.5c1,0,1.9,0.4,2.6,1.1c0.7,0.7,1.1,1.6,1.1,2.6s-0.4,1.9-1.1,2.6s-1.6,1.1-2.6,1.1s-1.9-0.4-2.6-1.1s-1.1-1.6-1.1-2.6
		s0.4-1.9,1.1-2.6C109.7,62.9,110.6,62.5,111.7,62.5z M127.3,62.5c1,0,1.9,0.4,2.6,1.1c0.7,0.7,1.1,1.6,1.1,2.6s-0.4,1.9-1.1,2.6
		c-0.7,0.7-1.6,1.1-2.6,1.1c-1,0-1.9-0.4-2.6-1.1s-1.1-1.6-1.1-2.6s0.4-1.9,1.1-2.6C125.4,62.9,126.3,62.5,127.3,62.5z M143,62.5
		c1,0,1.9,0.4,2.6,1.1c0.7,0.7,1.1,1.6,1.1,2.6s-0.4,1.9-1.1,2.6c-0.7,0.7-1.6,1.1-2.6,1.1s-1.9-0.4-2.6-1.1
		c-0.7-0.7-1.1-1.6-1.1-2.6s0.4-1.9,1.1-2.6C141,62.9,142,62.5,143,62.5z M158.6,62.5c1,0,1.9,0.4,2.6,1.1c0.7,0.7,1.1,1.6,1.1,2.6
		s-0.4,1.9-1.1,2.6c-0.7,0.7-1.6,1.1-2.6,1.1s-1.9-0.4-2.6-1.1c-0.7-0.7-1.1-1.6-1.1-2.6s0.4-1.9,1.1-2.6
		C156.7,62.9,157.6,62.5,158.6,62.5z M174.3,62.5c1,0,1.9,0.4,2.6,1.1c0.7,0.7,1.1,1.6,1.1,2.6s-0.4,1.9-1.1,2.6
		c-0.7,0.7-1.6,1.1-2.6,1.1s-1.9-0.4-2.6-1.1c-0.7-0.7-1.1-1.6-1.1-2.6s0.4-1.9,1.1-2.6C172.3,62.9,173.3,62.5,174.3,62.5z
		 M189.9,62.5c1,0,1.9,0.4,2.6,1.1c0.7,0.7,1.1,1.6,1.1,2.6s-0.4,1.9-1.1,2.6c-0.7,0.7-1.6,1.1-2.6,1.1s-1.9-0.4-2.6-1.1
		c-0.7-0.7-1.1-1.6-1.1-2.6s0.4-1.9,1.1-2.6S188.9,62.5,189.9,62.5z M205.6,62.5c1,0,1.9,0.4,2.6,1.1c0.7,0.7,1.1,1.6,1.1,2.6
		s-0.4,1.9-1.1,2.6c-0.7,0.7-1.6,1.1-2.6,1.1s-1.9-0.4-2.6-1.1c-0.7-0.7-1.1-1.6-1.1-2.6s0.4-1.9,1.1-2.6
		C203.6,62.9,204.6,62.5,205.6,62.5z M221.2,62.5c1,0,1.9,0.4,2.6,1.1c0.7,0.7,1.1,1.6,1.1,2.6s-0.4,1.9-1.1,2.6
		c-0.7,0.7-1.6,1.1-2.6,1.1s-1.9-0.4-2.6-1.1c-0.7-0.7-1.1-1.6-1.1-2.6s0.4-1.9,1.1-2.6S220.2,62.5,221.2,62.5z M236.9,62.5
		c1,0,1.9,0.4,2.6,1.1c0.7,0.7,1.1,1.6,1.1,2.6s-0.4,1.9-1.1,2.6c-0.7,0.7-1.6,1.1-2.6,1.1s-1.9-0.4-2.6-1.1
		c-0.7-0.7-1.1-1.6-1.1-2.6s0.4-1.9,1.1-2.6S235.9,62.5,236.9,62.5z M252.5,62.5c1,0,1.9,0.4,2.6,1.1c0.7,0.7,1.1,1.6,1.1,2.6
		s-0.4,1.9-1.1,2.6c-0.7,0.7-1.6,1.1-2.6,1.1s-1.9-0.4-2.6-1.1c-0.7-0.7-1.1-1.6-1.1-2.6s0.4-1.9,1.1-2.6S251.5,62.5,252.5,62.5z
		 M268.2,62.5c1,0,1.9,0.4,2.6,1.1c0.7,0.7,1.1,1.6,1.1,2.6s-0.4,1.9-1.1,2.6s-1.6,1.1-2.6,1.1s-1.9-0.4-2.6-1.1s-1.1-1.6-1.1-2.6
		s0.4-1.9,1.1-2.6C266.3,62.9,267.2,62.5,268.2,62.5z M283.8,62.5c1,0,1.9,0.4,2.6,1.1c0.7,0.7,1.1,1.6,1.1,2.6s-0.4,1.9-1.1,2.6
		s-1.6,1.1-2.6,1.1s-1.9-0.4-2.6-1.1s-1.1-1.6-1.1-2.6s0.4-1.9,1.1-2.6S282.8,62.5,283.8,62.5z M299.5,62.5c1,0,1.9,0.4,2.6,1.1
		c0.7,0.7,1.1,1.6,1.1,2.6s-0.4,1.9-1.1,2.6s-1.6,1.1-2.6,1.1s-1.9-0.4-2.6-1.1s-1.1-1.6-1.1-2.6s0.4-1.9,1.1-2.6
		S298.5,62.5,299.5,62.5z M315.1,62.5c1,0,1.9,0.4,2.6,1.1c0.7,0.7,1.1,1.6,1.1,2.6s-0.4,1.9-1.1,2.6s-1.6,1.1-2.6,1.1
		s-1.9-0.4-2.6-1.1s-1.1-1.6-1.1-2.6s0.4-1.9,1.1-2.6S314.1,62.5,315.1,62.5z M330.8,62.5c1,0,1.9,0.4,2.6,1.1
		c0.7,0.7,1.1,1.6,1.1,2.6s-0.4,1.9-1.1,2.6s-1.6,1.1-2.6,1.1s-1.9-0.4-2.6-1.1s-1.1-1.6-1.1-2.6s0.4-1.9,1.1-2.6
		S329.8,62.5,330.8,62.5z M96,52.9c0.9,0,1.8,0.4,2.4,1s1,1.5,1,2.4s-0.4,1.8-1,2.4c-0.6,0.6-1.5,1-2.4,1s-1.8-0.4-2.4-1
		s-1-1.5-1-2.4s0.4-1.8,1-2.4C94.2,53.3,95.1,52.9,96,52.9z M111.7,52.9c0.9,0,1.8,0.4,2.4,1s1,1.5,1,2.4s-0.4,1.8-1,2.4
		c-0.6,0.6-1.5,1-2.4,1s-1.8-0.4-2.4-1s-1-1.5-1-2.4s0.4-1.8,1-2.4C109.8,53.3,110.7,52.9,111.7,52.9z M127.3,52.9
		c0.9,0,1.8,0.4,2.4,1c0.6,0.6,1,1.5,1,2.4s-0.4,1.8-1,2.4c-0.6,0.6-1.5,1-2.4,1s-1.8-0.4-2.4-1s-1-1.5-1-2.4s0.4-1.8,1-2.4
		C125.5,53.3,126.4,52.9,127.3,52.9z M143,52.9c0.9,0,1.8,0.4,2.4,1c0.6,0.6,1,1.5,1,2.4s-0.4,1.8-1,2.4c-0.6,0.6-1.5,1-2.4,1
		s-1.8-0.4-2.4-1c-0.6-0.6-1-1.5-1-2.4s0.4-1.8,1-2.4C141.1,53.3,142,52.9,143,52.9z M174.3,52.9c0.9,0,1.8,0.4,2.4,1
		c0.6,0.6,1,1.5,1,2.4s-0.4,1.8-1,2.4c-0.6,0.6-1.5,1-2.4,1s-1.8-0.4-2.4-1c-0.6-0.6-1-1.5-1-2.4s0.4-1.8,1-2.4
		C172.5,53.3,173.3,52.9,174.3,52.9z M189.9,52.9c0.9,0,1.8,0.4,2.4,1c0.6,0.6,1,1.5,1,2.4s-0.4,1.8-1,2.4c-0.6,0.6-1.5,1-2.4,1
		s-1.8-0.4-2.4-1c-0.6-0.6-1-1.5-1-2.4s0.4-1.8,1-2.4C188.1,53.3,189,52.9,189.9,52.9z M205.6,52.9c0.9,0,1.8,0.4,2.4,1
		c0.6,0.6,1,1.5,1,2.4s-0.4,1.8-1,2.4c-0.6,0.6-1.5,1-2.4,1s-1.8-0.4-2.4-1c-0.6-0.6-1-1.5-1-2.4s0.4-1.8,1-2.4
		C203.8,53.3,204.6,52.9,205.6,52.9z M221.2,52.9c0.9,0,1.8,0.4,2.4,1c0.6,0.6,1,1.5,1,2.4s-0.4,1.8-1,2.4c-0.6,0.6-1.5,1-2.4,1
		s-1.8-0.4-2.4-1c-0.6-0.6-1-1.5-1-2.4s0.4-1.8,1-2.4C219.4,53.3,220.3,52.9,221.2,52.9z M236.9,52.9c0.9,0,1.8,0.4,2.4,1
		c0.6,0.6,1,1.5,1,2.4s-0.4,1.8-1,2.4c-0.6,0.6-1.5,1-2.4,1s-1.8-0.4-2.4-1c-0.6-0.6-1-1.5-1-2.4s0.4-1.8,1-2.4
		C235.1,53.3,235.9,52.9,236.9,52.9z M252.5,52.9c0.9,0,1.8,0.4,2.4,1c0.6,0.6,1,1.5,1,2.4s-0.4,1.8-1,2.4c-0.6,0.6-1.5,1-2.4,1
		s-1.8-0.4-2.4-1c-0.6-0.6-1-1.5-1-2.4s0.4-1.8,1-2.4C250.7,53.3,251.6,52.9,252.5,52.9z M268.2,52.9c0.9,0,1.8,0.4,2.4,1
		s1,1.5,1,2.4s-0.4,1.8-1,2.4c-0.6,0.6-1.5,1-2.4,1s-1.8-0.4-2.4-1s-1-1.5-1-2.4s0.4-1.8,1-2.4C266.4,53.3,267.2,52.9,268.2,52.9z
		 M283.8,52.9c0.9,0,1.8,0.4,2.4,1s1,1.5,1,2.4s-0.4,1.8-1,2.4c-0.6,0.6-1.5,1-2.4,1s-1.8-0.4-2.4-1s-1-1.5-1-2.4s0.4-1.8,1-2.4
		C282,53.3,282.9,52.9,283.8,52.9z M299.5,52.9c0.9,0,1.8,0.4,2.4,1s1,1.5,1,2.4s-0.4,1.8-1,2.4c-0.6,0.6-1.5,1-2.4,1
		s-1.8-0.4-2.4-1s-1-1.5-1-2.4s0.4-1.8,1-2.4C297.7,53.3,298.5,52.9,299.5,52.9z M315.1,52.9c0.9,0,1.8,0.4,2.4,1s1,1.5,1,2.4
		s-0.4,1.8-1,2.4c-0.6,0.6-1.5,1-2.4,1s-1.8-0.4-2.4-1s-1-1.5-1-2.4s0.4-1.8,1-2.4C313.3,53.3,314.2,52.9,315.1,52.9z M111.7,43.3
		c0.9,0,1.7,0.4,2.3,1c0.6,0.6,1,1.4,1,2.3c0,0.9-0.4,1.7-1,2.3s-1.4,1-2.3,1s-1.7-0.4-2.3-1c-0.6-0.6-1-1.4-1-2.3
		c0-0.9,0.4-1.7,1-2.3C110,43.6,110.8,43.3,111.7,43.3z M127.3,43.3c0.9,0,1.7,0.4,2.3,1s1,1.4,1,2.3c0,0.9-0.4,1.7-1,2.3
		s-1.4,1-2.3,1c-0.9,0-1.7-0.4-2.3-1c-0.6-0.6-1-1.4-1-2.3c0-0.9,0.4-1.7,1-2.3C125.6,43.6,126.4,43.3,127.3,43.3z M143,43.3
		c0.9,0,1.7,0.4,2.3,1s1,1.4,1,2.3c0,0.9-0.4,1.7-1,2.3s-1.4,1-2.3,1c-0.9,0-1.7-0.4-2.3-1s-1-1.4-1-2.3c0-0.9,0.4-1.7,1-2.3
		C141.3,43.6,142.1,43.3,143,43.3z M174.3,43.3c0.9,0,1.7,0.4,2.3,1s1,1.4,1,2.3c0,0.9-0.4,1.7-1,2.3s-1.4,1-2.3,1
		c-0.9,0-1.7-0.4-2.3-1s-1-1.4-1-2.3c0-0.9,0.4-1.7,1-2.3C172.6,43.6,173.4,43.3,174.3,43.3z M189.9,43.3c0.9,0,1.7,0.4,2.3,1
		s1,1.4,1,2.3c0,0.9-0.4,1.7-1,2.3s-1.4,1-2.3,1c-0.9,0-1.7-0.4-2.3-1s-1-1.4-1-2.3c0-0.9,0.4-1.7,1-2.3
		C188.2,43.6,189,43.3,189.9,43.3z M205.6,43.3c0.9,0,1.7,0.4,2.3,1s1,1.4,1,2.3c0,0.9-0.4,1.7-1,2.3s-1.4,1-2.3,1
		c-0.9,0-1.7-0.4-2.3-1s-1-1.4-1-2.3c0-0.9,0.4-1.7,1-2.3C203.9,43.6,204.7,43.3,205.6,43.3z M221.2,43.3c0.9,0,1.7,0.4,2.3,1
		s1,1.4,1,2.3c0,0.9-0.4,1.7-1,2.3s-1.4,1-2.3,1c-0.9,0-1.7-0.4-2.3-1s-1-1.4-1-2.3c0-0.9,0.4-1.7,1-2.3
		C219.5,43.6,220.3,43.3,221.2,43.3z M236.9,43.3c0.9,0,1.7,0.4,2.3,1s1,1.4,1,2.3c0,0.9-0.4,1.7-1,2.3s-1.4,1-2.3,1
		c-0.9,0-1.7-0.4-2.3-1s-1-1.4-1-2.3c0-0.9,0.4-1.7,1-2.3C235.2,43.6,236,43.3,236.9,43.3z M252.5,43.3c0.9,0,1.7,0.4,2.3,1
		s1,1.4,1,2.3c0,0.9-0.4,1.7-1,2.3s-1.4,1-2.3,1c-0.9,0-1.7-0.4-2.3-1s-1-1.4-1-2.3c0-0.9,0.4-1.7,1-2.3
		C250.8,43.6,251.6,43.3,252.5,43.3z M268.2,43.3c0.9,0,1.7,0.4,2.3,1c0.6,0.6,1,1.4,1,2.3c0,0.9-0.4,1.7-1,2.3s-1.4,1-2.3,1
		s-1.7-0.4-2.3-1c-0.6-0.6-1-1.4-1-2.3c0-0.9,0.4-1.7,1-2.3C266.5,43.6,267.3,43.3,268.2,43.3z M283.8,43.3c0.9,0,1.7,0.4,2.3,1
		c0.6,0.6,1,1.4,1,2.3c0,0.9-0.4,1.7-1,2.3s-1.4,1-2.3,1s-1.7-0.4-2.3-1c-0.6-0.6-1-1.4-1-2.3c0-0.9,0.4-1.7,1-2.3
		C282.1,43.6,282.9,43.3,283.8,43.3z M299.5,43.3c0.9,0,1.7,0.4,2.3,1c0.6,0.6,1,1.4,1,2.3c0,0.9-0.4,1.7-1,2.3s-1.4,1-2.3,1
		s-1.7-0.4-2.3-1c-0.6-0.6-1-1.4-1-2.3c0-0.9,0.4-1.7,1-2.3C297.8,43.6,298.6,43.3,299.5,43.3z M315.1,43.3c0.9,0,1.7,0.4,2.3,1
		c0.6,0.6,1,1.4,1,2.3c0,0.9-0.4,1.7-1,2.3s-1.4,1-2.3,1s-1.7-0.4-2.3-1c-0.6-0.6-1-1.4-1-2.3c0-0.9,0.4-1.7,1-2.3
		C313.4,43.6,314.3,43.3,315.1,43.3z M111.7,33.7c0.8,0,1.6,0.3,2.2,0.9c0.6,0.6,0.9,1.3,0.9,2.2c0,0.8-0.3,1.6-0.9,2.2
		c-0.6,0.6-1.3,0.9-2.2,0.9c-0.8,0-1.6-0.3-2.2-0.9c-0.6-0.6-0.9-1.3-0.9-2.2c0-0.8,0.3-1.6,0.9-2.2S110.8,33.7,111.7,33.7z
		 M127.3,33.7c0.8,0,1.6,0.3,2.2,0.9c0.6,0.6,0.9,1.3,0.9,2.2c0,0.8-0.3,1.6-0.9,2.2c-0.6,0.6-1.3,0.9-2.2,0.9
		c-0.8,0-1.6-0.3-2.2-0.9c-0.6-0.6-0.9-1.3-0.9-2.2c0-0.8,0.3-1.6,0.9-2.2C125.7,34,126.5,33.7,127.3,33.7z M174.3,33.7
		c0.8,0,1.6,0.3,2.2,0.9c0.6,0.6,0.9,1.3,0.9,2.2c0,0.8-0.3,1.6-0.9,2.2c-0.6,0.6-1.3,0.9-2.2,0.9c-0.8,0-1.6-0.3-2.2-0.9
		c-0.6-0.6-0.9-1.3-0.9-2.2c0-0.8,0.3-1.6,0.9-2.2S173.4,33.7,174.3,33.7z M205.6,33.7c0.8,0,1.6,0.3,2.2,0.9
		c0.6,0.6,0.9,1.3,0.9,2.2c0,0.8-0.3,1.6-0.9,2.2c-0.6,0.6-1.3,0.9-2.2,0.9c-0.8,0-1.6-0.3-2.2-0.9c-0.6-0.6-0.9-1.3-0.9-2.2
		c0-0.8,0.3-1.6,0.9-2.2S204.7,33.7,205.6,33.7z M221.2,33.7c0.8,0,1.6,0.3,2.2,0.9c0.6,0.6,0.9,1.3,0.9,2.2c0,0.8-0.3,1.6-0.9,2.2
		c-0.6,0.6-1.3,0.9-2.2,0.9c-0.8,0-1.6-0.3-2.2-0.9c-0.6-0.6-0.9-1.3-0.9-2.2c0-0.8,0.3-1.6,0.9-2.2C219.6,34,220.4,33.7,221.2,33.7
		z M236.9,33.7c0.8,0,1.6,0.3,2.2,0.9c0.6,0.6,0.9,1.3,0.9,2.2c0,0.8-0.3,1.6-0.9,2.2c-0.6,0.6-1.3,0.9-2.2,0.9
		c-0.8,0-1.6-0.3-2.2-0.9c-0.6-0.6-0.9-1.3-0.9-2.2c0-0.8,0.3-1.6,0.9-2.2C235.3,34,236,33.7,236.9,33.7z M268.2,33.7
		c0.8,0,1.6,0.3,2.2,0.9c0.6,0.6,0.9,1.3,0.9,2.2c0,0.8-0.3,1.6-0.9,2.2c-0.6,0.6-1.3,0.9-2.2,0.9c-0.8,0-1.6-0.3-2.2-0.9
		c-0.6-0.6-0.9-1.3-0.9-2.2c0-0.8,0.3-1.6,0.9-2.2S267.4,33.7,268.2,33.7z M299.5,33.7c0.8,0,1.6,0.3,2.2,0.9
		c0.6,0.6,0.9,1.3,0.9,2.2c0,0.8-0.3,1.6-0.9,2.2c-0.6,0.6-1.3,0.9-2.2,0.9c-0.8,0-1.6-0.3-2.2-0.9c-0.6-0.6-0.9-1.3-0.9-2.2
		c0-0.8,0.3-1.6,0.9-2.2S298.7,33.7,299.5,33.7z M315.1,33.7c0.8,0,1.6,0.3,2.2,0.9c0.6,0.6,0.9,1.3,0.9,2.2c0,0.8-0.3,1.6-0.9,2.2
		c-0.6,0.6-1.3,0.9-2.2,0.9c-0.8,0-1.6-0.3-2.2-0.9c-0.6-0.6-0.9-1.3-0.9-2.2c0-0.8,0.3-1.6,0.9-2.2S314.3,33.7,315.1,33.7z
		 M127.3,24c0.8,0,1.5,0.3,2,0.8s0.8,1.2,0.8,2s-0.3,1.5-0.8,2s-1.2,0.8-2,0.8s-1.5-0.3-2-0.8s-0.8-1.2-0.8-2s0.3-1.5,0.8-2
		S126.5,24,127.3,24z M174.3,24c0.8,0,1.5,0.3,2,0.8s0.8,1.2,0.8,2s-0.3,1.5-0.8,2s-1.2,0.8-2,0.8s-1.5-0.3-2-0.8s-0.8-1.2-0.8-2
		s0.3-1.5,0.8-2S173.5,24,174.3,24z M205.6,24c0.8,0,1.5,0.3,2,0.8s0.8,1.2,0.8,2s-0.3,1.5-0.8,2s-1.2,0.8-2,0.8s-1.5-0.3-2-0.8
		s-0.8-1.2-0.8-2s0.3-1.5,0.8-2S204.8,24,205.6,24z M236.9,24c0.8,0,1.5,0.3,2,0.8s0.8,1.2,0.8,2s-0.3,1.5-0.8,2s-1.2,0.8-2,0.8
		s-1.5-0.3-2-0.8s-0.8-1.2-0.8-2s0.3-1.5,0.8-2S236.1,24,236.9,24z M268.2,24c0.8,0,1.5,0.3,2,0.8s0.8,1.2,0.8,2s-0.3,1.5-0.8,2
		s-1.2,0.8-2,0.8s-1.5-0.3-2-0.8s-0.8-1.2-0.8-2s0.3-1.5,0.8-2S267.4,24,268.2,24z M315.1,24c0.8,0,1.5,0.3,2,0.8s0.8,1.2,0.8,2
		s-0.3,1.5-0.8,2s-1.2,0.8-2,0.8s-1.5-0.3-2-0.8s-0.8-1.2-0.8-2s0.3-1.5,0.8-2C313.7,24.3,314.4,24,315.1,24z M127.3,14.4
		c0.7,0,1.4,0.3,1.9,0.8s0.8,1.1,0.8,1.9c0,0.7-0.3,1.4-0.8,1.9s-1.1,0.8-1.9,0.8c-0.7,0-1.4-0.3-1.9-0.8s-0.8-1.1-0.8-1.9
		c0-0.7,0.3-1.4,0.8-1.9C125.9,14.7,126.6,14.4,127.3,14.4z M205.6,14.4c0.7,0,1.4,0.3,1.9,0.8s0.8,1.1,0.8,1.9
		c0,0.7-0.3,1.4-0.8,1.9s-1.1,0.8-1.9,0.8c-0.7,0-1.4-0.3-1.9-0.8s-0.8-1.1-0.8-1.9c0-0.7,0.3-1.4,0.8-1.9
		C204.2,14.7,204.9,14.4,205.6,14.4z M236.9,14.4c0.7,0,1.4,0.3,1.9,0.8s0.8,1.1,0.8,1.9c0,0.7-0.3,1.4-0.8,1.9s-1.1,0.8-1.9,0.8
		c-0.7,0-1.4-0.3-1.9-0.8s-0.8-1.1-0.8-1.9c0-0.7,0.3-1.4,0.8-1.9C235.5,14.7,236.2,14.4,236.9,14.4z M315.1,14.4
		c0.7,0,1.4,0.3,1.9,0.8s0.8,1.1,0.8,1.9c0,0.7-0.3,1.4-0.8,1.9s-1.1,0.8-1.9,0.8c-0.7,0-1.4-0.3-1.9-0.8s-0.8-1.1-0.8-1.9
		c0-0.7,0.3-1.4,0.8-1.9C313.8,14.7,314.4,14.4,315.1,14.4z M127.3,4.8c0.7,0,1.3,0.3,1.7,0.7c0.4,0.4,0.7,1.1,0.7,1.7
		c0,0.7-0.3,1.3-0.7,1.7s-1.1,0.7-1.7,0.7c-0.7,0-1.3-0.3-1.7-0.7c-0.4-0.4-0.7-1.1-0.7-1.7c0-0.7,0.3-1.3,0.7-1.7
		C126,5,126.7,4.8,127.3,4.8z M205.6,4.8c0.7,0,1.3,0.3,1.7,0.7c0.4,0.4,0.7,1.1,0.7,1.7c0,0.7-0.3,1.3-0.7,1.7
		c-0.5,0.4-1.1,0.7-1.7,0.7c-0.7,0-1.3-0.3-1.7-0.7s-0.7-1.1-0.7-1.7c0-0.7,0.3-1.3,0.7-1.7C204.3,5,204.9,4.8,205.6,4.8z
		 M236.9,4.8c0.7,0,1.3,0.3,1.7,0.7c0.4,0.4,0.7,1.1,0.7,1.7c0,0.7-0.3,1.3-0.7,1.7s-1.1,0.7-1.7,0.7c-0.7,0-1.3-0.3-1.7-0.7
		s-0.7-1.1-0.7-1.7c0-0.7,0.3-1.3,0.7-1.7C235.6,5,236.2,4.8,236.9,4.8z"/>
	<path class="st0" d="M411.1,105.5c0,1.2-0.5,2.4-1.3,3.2c-0.8,0.8-1.9,1.3-3.2,1.3c-1.2,0-2.4-0.5-3.2-1.3
		c-0.8-0.8-1.3-1.9-1.3-3.2c0-2.5,2-4.5,4.5-4.5S411.1,103.1,411.1,105.5z M426.7,105.5c0,1.2-0.5,2.4-1.3,3.2
		c-0.8,0.8-1.9,1.3-3.2,1.3c-1.2,0-2.4-0.5-3.2-1.3c-0.8-0.8-1.3-1.9-1.3-3.2c0-2.5,2-4.5,4.5-4.5S426.7,103.1,426.7,105.5z
		 M442.4,105.5c0,1.2-0.5,2.4-1.3,3.2c-0.8,0.8-1.9,1.3-3.2,1.3c-1.2,0-2.4-0.5-3.2-1.3c-0.8-0.8-1.3-1.9-1.3-3.2
		c0-2.5,2-4.5,4.5-4.5S442.4,103.1,442.4,105.5z M458,105.5c0,1.2-0.5,2.4-1.3,3.2c-0.8,0.8-1.9,1.3-3.2,1.3c-1.2,0-2.4-0.5-3.2-1.3
		c-0.8-0.8-1.3-1.9-1.3-3.2c0-2.5,2-4.5,4.5-4.5S458,103.1,458,105.5z M473.7,105.5c0,1.2-0.5,2.4-1.3,3.2c-0.8,0.8-1.9,1.3-3.2,1.3
		c-1.2,0-2.4-0.5-3.2-1.3c-0.8-0.8-1.3-1.9-1.3-3.2c0-2.5,2-4.5,4.5-4.5S473.7,103.1,473.7,105.5z M489.3,105.5
		c0,1.2-0.5,2.4-1.3,3.2c-0.8,0.8-1.9,1.3-3.2,1.3c-1.2,0-2.4-0.5-3.2-1.3c-0.8-0.8-1.3-1.9-1.3-3.2c0-2.5,2-4.5,4.5-4.5
		S489.3,103.1,489.3,105.5z M505,105.5c0,1.2-0.5,2.4-1.3,3.2c-0.8,0.8-1.9,1.3-3.2,1.3s-2.4-0.5-3.2-1.3c-0.8-0.8-1.3-1.9-1.3-3.2
		c0-2.5,2-4.5,4.5-4.5S505,103.1,505,105.5z M520.6,105.5c0,1.2-0.5,2.4-1.3,3.2c-0.8,0.8-1.9,1.3-3.2,1.3c-1.2,0-2.4-0.5-3.2-1.3
		s-1.3-1.9-1.3-3.2c0-2.5,2-4.5,4.5-4.5S520.6,103.1,520.6,105.5z M536.3,105.5c0,1.2-0.5,2.4-1.3,3.2c-0.8,0.8-1.9,1.3-3.2,1.3
		c-1.2,0-2.4-0.5-3.2-1.3s-1.3-1.9-1.3-3.2c0-2.5,2-4.5,4.5-4.5S536.3,103.1,536.3,105.5z M552,105.5c0,1.2-0.5,2.4-1.3,3.2
		c-0.8,0.8-1.9,1.3-3.2,1.3c-1.2,0-2.4-0.5-3.2-1.3s-1.3-1.9-1.3-3.2c0-2.5,2-4.5,4.5-4.5C549.9,101,552,103.1,552,105.5z
		 M567.6,105.5c0,1.2-0.5,2.4-1.3,3.2c-0.8,0.8-1.9,1.3-3.2,1.3c-1.2,0-2.4-0.5-3.2-1.3s-1.3-1.9-1.3-3.2c0-2.5,2-4.5,4.5-4.5
		S567.6,103.1,567.6,105.5z M583.3,105.5c0,1.2-0.5,2.4-1.3,3.2c-0.8,0.8-1.9,1.3-3.2,1.3c-1.2,0-2.4-0.5-3.2-1.3s-1.3-1.9-1.3-3.2
		c0-2.5,2-4.5,4.5-4.5S583.3,103.1,583.3,105.5z M598.9,105.5c0,1.2-0.5,2.4-1.3,3.2c-0.8,0.8-1.9,1.3-3.2,1.3
		c-1.2,0-2.4-0.5-3.2-1.3s-1.3-1.9-1.3-3.2c0-2.5,2-4.5,4.5-4.5S598.9,103.1,598.9,105.5z M614.6,105.5c0,1.2-0.5,2.4-1.3,3.2
		c-0.8,0.8-1.9,1.3-3.2,1.3c-1.2,0-2.4-0.5-3.2-1.3s-1.3-1.9-1.3-3.2c0-2.5,2-4.5,4.5-4.5S614.6,103.1,614.6,105.5z M630.2,105.5
		c0,1.2-0.5,2.4-1.3,3.2c-0.8,0.8-1.9,1.3-3.2,1.3c-1.2,0-2.4-0.5-3.2-1.3s-1.3-1.9-1.3-3.2c0-2.5,2-4.5,4.5-4.5
		S630.2,103.1,630.2,105.5z M645.9,105.5c0,1.2-0.5,2.4-1.3,3.2c-0.8,0.8-1.9,1.3-3.2,1.3c-1.2,0-2.4-0.5-3.2-1.3s-1.3-1.9-1.3-3.2
		c0-2.5,2-4.5,4.5-4.5S645.9,103.1,645.9,105.5z M661.5,105.5c0,1.2-0.5,2.4-1.3,3.2c-0.8,0.8-1.9,1.3-3.2,1.3
		c-1.2,0-2.4-0.5-3.2-1.3s-1.3-1.9-1.3-3.2c0-2.5,2-4.5,4.5-4.5S661.5,103.1,661.5,105.5z M677.2,105.5c0,1.2-0.5,2.4-1.3,3.2
		c-0.8,0.8-1.9,1.3-3.2,1.3c-1.2,0-2.4-0.5-3.2-1.3s-1.3-1.9-1.3-3.2c0-2.5,2-4.5,4.5-4.5S677.2,103.1,677.2,105.5z M692.8,105.5
		c0,1.2-0.5,2.4-1.3,3.2c-0.8,0.8-1.9,1.3-3.2,1.3c-1.2,0-2.4-0.5-3.2-1.3s-1.3-1.9-1.3-3.2c0-2.5,2-4.5,4.5-4.5
		S692.8,103.1,692.8,105.5z M708.5,105.5c0,1.2-0.5,2.4-1.3,3.2c-0.8,0.8-1.9,1.3-3.2,1.3c-1.2,0-2.4-0.5-3.2-1.3s-1.3-1.9-1.3-3.2
		c0-2.5,2-4.5,4.5-4.5S708.5,103.1,708.5,105.5z M724.1,105.5c0,1.2-0.5,2.4-1.3,3.2c-0.8,0.8-1.9,1.3-3.2,1.3
		c-1.2,0-2.4-0.5-3.2-1.3s-1.3-1.9-1.3-3.2c0-2.5,2-4.5,4.5-4.5S724.1,103.1,724.1,105.5z M739.8,105.5c0,1.2-0.5,2.4-1.3,3.2
		c-0.8,0.8-1.9,1.3-3.2,1.3c-1.2,0-2.4-0.5-3.2-1.3s-1.3-1.9-1.3-3.2c0-2.5,2-4.5,4.5-4.5S739.8,103.1,739.8,105.5z M755.4,105.5
		c0,1.2-0.5,2.4-1.3,3.2c-0.8,0.8-1.9,1.3-3.2,1.3c-1.2,0-2.4-0.5-3.2-1.3s-1.3-1.9-1.3-3.2c0-2.5,2-4.5,4.5-4.5
		S755.4,103.1,755.4,105.5z M771.1,105.5c0,1.2-0.5,2.4-1.3,3.2c-0.8,0.8-1.9,1.3-3.2,1.3c-1.2,0-2.4-0.5-3.2-1.3s-1.3-1.9-1.3-3.2
		c0-2.5,2-4.5,4.5-4.5S771.1,103.1,771.1,105.5z M786.7,105.5c0,1.2-0.5,2.4-1.3,3.2c-0.8,0.8-1.9,1.3-3.2,1.3
		c-1.2,0-2.4-0.5-3.2-1.3s-1.3-1.9-1.3-3.2c0-2.5,2-4.5,4.5-4.5S786.7,103.1,786.7,105.5z M422.2,91.4c1.2,0,2.2,0.5,3,1.3
		s1.3,1.8,1.3,3s-0.5,2.3-1.3,3c-0.8,0.8-1.8,1.3-3,1.3s-2.2-0.5-3-1.3s-1.3-1.8-1.3-3s0.5-2.2,1.3-3S421.1,91.4,422.2,91.4z
		 M437.9,91.4c1.2,0,2.3,0.5,3,1.3c0.8,0.8,1.3,1.8,1.3,3s-0.5,2.3-1.3,3c-0.8,0.8-1.8,1.3-3,1.3s-2.2-0.5-3-1.3s-1.3-1.8-1.3-3
		s0.5-2.2,1.3-3C435.7,91.9,436.7,91.4,437.9,91.4z M453.6,91.4c1.2,0,2.2,0.5,3,1.3s1.3,1.8,1.3,3s-0.5,2.3-1.3,3
		c-0.8,0.8-1.8,1.3-3,1.3s-2.2-0.5-3-1.3s-1.3-1.8-1.3-3s0.5-2.2,1.3-3C451.3,91.9,452.4,91.4,453.6,91.4z M469.2,91.4
		c1.2,0,2.2,0.5,3,1.3s1.3,1.8,1.3,3s-0.5,2.3-1.3,3c-0.8,0.8-1.8,1.3-3,1.3s-2.2-0.5-3-1.3s-1.3-1.8-1.3-3s0.5-2.2,1.3-3
		S468,91.4,469.2,91.4z M484.9,91.4c1.2,0,2.3,0.5,3,1.3c0.8,0.8,1.3,1.8,1.3,3s-0.5,2.3-1.3,3c-0.8,0.8-1.8,1.3-3,1.3
		s-2.2-0.5-3-1.3s-1.3-1.8-1.3-3s0.5-2.2,1.3-3C482.6,91.9,483.7,91.4,484.9,91.4z M500.5,91.4c1.2,0,2.2,0.5,3,1.3s1.3,1.8,1.3,3
		s-0.5,2.3-1.3,3c-0.8,0.8-1.8,1.3-3,1.3s-2.2-0.5-3-1.3s-1.3-1.8-1.3-3s0.5-2.2,1.3-3S499.3,91.4,500.5,91.4z M516.2,91.4
		c1.2,0,2.3,0.5,3,1.3c0.8,0.8,1.3,1.8,1.3,3s-0.5,2.3-1.3,3c-0.8,0.8-1.8,1.3-3,1.3s-2.2-0.5-3-1.3s-1.3-1.8-1.3-3s0.5-2.2,1.3-3
		C513.9,91.9,515,91.4,516.2,91.4z M531.8,91.4c1.2,0,2.2,0.5,3,1.3s1.3,1.8,1.3,3s-0.5,2.3-1.3,3c-0.8,0.8-1.8,1.3-3,1.3
		s-2.2-0.5-3-1.3s-1.3-1.8-1.3-3s0.5-2.2,1.3-3S530.6,91.4,531.8,91.4z M547.5,91.4c1.2,0,2.2,0.5,3,1.3s1.3,1.8,1.3,3
		s-0.5,2.3-1.3,3c-0.8,0.8-1.8,1.3-3,1.3s-2.2-0.5-3-1.3s-1.3-1.8-1.3-3s0.5-2.2,1.3-3C545.2,91.9,546.3,91.4,547.5,91.4z
		 M563.1,91.4c1.2,0,2.2,0.5,3,1.3s1.3,1.8,1.3,3s-0.5,2.3-1.3,3c-0.8,0.8-1.8,1.3-3,1.3s-2.2-0.5-3-1.3s-1.3-1.8-1.3-3
		s0.5-2.2,1.3-3C560.9,91.9,561.9,91.4,563.1,91.4z M578.8,91.4c1.2,0,2.2,0.5,3,1.3s1.3,1.8,1.3,3s-0.5,2.3-1.3,3
		c-0.8,0.8-1.8,1.3-3,1.3s-2.2-0.5-3-1.3s-1.3-1.8-1.3-3s0.5-2.2,1.3-3C576.5,91.9,577.6,91.4,578.8,91.4z M594.4,91.4
		c1.2,0,2.2,0.5,3,1.3s1.3,1.8,1.3,3s-0.5,2.3-1.3,3c-0.8,0.8-1.8,1.3-3,1.3s-2.2-0.5-3-1.3s-1.3-1.8-1.3-3s0.5-2.2,1.3-3
		S593.3,91.4,594.4,91.4z M610.1,91.4c1.2,0,2.2,0.5,3,1.3s1.3,1.8,1.3,3s-0.5,2.3-1.3,3c-0.8,0.8-1.8,1.3-3,1.3s-2.2-0.5-3-1.3
		s-1.3-1.8-1.3-3s0.5-2.2,1.3-3C607.8,91.9,608.9,91.4,610.1,91.4z M625.7,91.4c1.2,0,2.2,0.5,3,1.3s1.3,1.8,1.3,3s-0.5,2.3-1.3,3
		c-0.8,0.8-1.8,1.3-3,1.3s-2.2-0.5-3-1.3s-1.3-1.8-1.3-3s0.5-2.2,1.3-3S624.6,91.4,625.7,91.4z M641.4,91.4c1.2,0,2.2,0.5,3,1.3
		s1.3,1.8,1.3,3s-0.5,2.3-1.3,3c-0.8,0.8-1.8,1.3-3,1.3s-2.2-0.5-3-1.3s-1.3-1.8-1.3-3s0.5-2.2,1.3-3
		C639.1,91.9,640.2,91.4,641.4,91.4z M657,91.4c1.2,0,2.2,0.5,3,1.3s1.3,1.8,1.3,3s-0.5,2.3-1.3,3c-0.8,0.8-1.8,1.3-3,1.3
		s-2.2-0.5-3-1.3s-1.3-1.8-1.3-3s0.5-2.2,1.3-3S655.9,91.4,657,91.4z M672.7,91.4c1.2,0,2.2,0.5,3,1.3s1.3,1.8,1.3,3s-0.5,2.3-1.3,3
		c-0.8,0.8-1.8,1.3-3,1.3s-2.2-0.5-3-1.3s-1.3-1.8-1.3-3s0.5-2.2,1.3-3C670.4,91.9,671.5,91.4,672.7,91.4z M688.3,91.4
		c1.2,0,2.2,0.5,3,1.3s1.3,1.8,1.3,3s-0.5,2.3-1.3,3c-0.8,0.8-1.8,1.3-3,1.3s-2.2-0.5-3-1.3s-1.3-1.8-1.3-3s0.5-2.2,1.3-3
		S687.2,91.4,688.3,91.4z M704,91.4c1.2,0,2.2,0.5,3,1.3s1.3,1.8,1.3,3s-0.5,2.3-1.3,3c-0.8,0.8-1.8,1.3-3,1.3s-2.2-0.5-3-1.3
		s-1.3-1.8-1.3-3s0.5-2.2,1.3-3S702.8,91.4,704,91.4z M719.7,91.4c1.2,0,2.2,0.5,3,1.3s1.3,1.8,1.3,3s-0.5,2.3-1.3,3
		c-0.8,0.8-1.8,1.3-3,1.3s-2.2-0.5-3-1.3s-1.3-1.8-1.3-3s0.5-2.2,1.3-3C717.4,91.9,718.5,91.4,719.7,91.4z M735.3,91.4
		c1.2,0,2.2,0.5,3,1.3s1.3,1.8,1.3,3s-0.5,2.3-1.3,3c-0.8,0.8-1.8,1.3-3,1.3s-2.2-0.5-3-1.3s-1.3-1.8-1.3-3s0.5-2.2,1.3-3
		S734.1,91.4,735.3,91.4z M751,91.4c1.2,0,2.2,0.5,3,1.3s1.3,1.8,1.3,3s-0.5,2.3-1.3,3c-0.8,0.8-1.8,1.3-3,1.3s-2.2-0.5-3-1.3
		s-1.3-1.8-1.3-3s0.5-2.2,1.3-3C748.7,91.9,749.8,91.4,751,91.4z M766.6,91.4c1.2,0,2.2,0.5,3,1.3s1.3,1.8,1.3,3s-0.5,2.3-1.3,3
		c-0.8,0.8-1.8,1.3-3,1.3s-2.2-0.5-3-1.3s-1.3-1.8-1.3-3s0.5-2.2,1.3-3C764.4,91.9,765.4,91.4,766.6,91.4z M437.9,81.8
		c1.1,0,2.1,0.5,2.9,1.2c0.7,0.7,1.2,1.8,1.2,2.9s-0.5,2.1-1.2,2.9c-0.7,0.7-1.8,1.2-2.9,1.2s-2.1-0.5-2.9-1.2
		c-0.7-0.7-1.2-1.8-1.2-2.9s0.5-2.1,1.2-2.9C435.8,82.2,436.8,81.8,437.9,81.8z M469.2,81.8c1.1,0,2.1,0.5,2.9,1.2
		c0.7,0.7,1.2,1.8,1.2,2.9s-0.5,2.1-1.2,2.9c-0.7,0.7-1.8,1.2-2.9,1.2s-2.1-0.5-2.9-1.2c-0.7-0.7-1.2-1.8-1.2-2.9s0.5-2.1,1.2-2.9
		C467.1,82.2,468.1,81.8,469.2,81.8z M484.9,81.8c1.1,0,2.1,0.5,2.9,1.2c0.7,0.7,1.2,1.8,1.2,2.9s-0.5,2.1-1.2,2.9
		c-0.7,0.7-1.8,1.2-2.9,1.2s-2.1-0.5-2.9-1.2c-0.7-0.7-1.2-1.8-1.2-2.9s0.5-2.1,1.2-2.9C482.7,82.2,483.7,81.8,484.9,81.8z
		 M500.5,81.8c1.1,0,2.1,0.5,2.9,1.2c0.7,0.7,1.2,1.8,1.2,2.9s-0.5,2.1-1.2,2.9c-0.7,0.7-1.8,1.2-2.9,1.2s-2.1-0.5-2.9-1.2
		c-0.7-0.7-1.2-1.8-1.2-2.9s0.5-2.1,1.2-2.9C498.4,82.2,499.4,81.8,500.5,81.8z M516.2,81.8c1.1,0,2.1,0.5,2.9,1.2
		c0.7,0.7,1.2,1.8,1.2,2.9s-0.5,2.1-1.2,2.9c-0.7,0.7-1.8,1.2-2.9,1.2c-1.1,0-2.1-0.5-2.9-1.2c-0.7-0.7-1.2-1.8-1.2-2.9
		s0.5-2.1,1.2-2.9C514,82.2,515,81.8,516.2,81.8z M531.8,81.8c1.1,0,2.1,0.5,2.9,1.2c0.7,0.7,1.2,1.8,1.2,2.9s-0.5,2.1-1.2,2.9
		c-0.7,0.7-1.8,1.2-2.9,1.2c-1.1,0-2.1-0.5-2.9-1.2c-0.7-0.7-1.2-1.8-1.2-2.9s0.5-2.1,1.2-2.9C529.7,82.2,530.7,81.8,531.8,81.8z
		 M547.5,81.8c1.1,0,2.1,0.5,2.9,1.2c0.7,0.7,1.2,1.8,1.2,2.9s-0.5,2.1-1.2,2.9c-0.7,0.7-1.8,1.2-2.9,1.2s-2.1-0.5-2.9-1.2
		c-0.7-0.7-1.2-1.8-1.2-2.9s0.5-2.1,1.2-2.9C545.3,82.2,546.3,81.8,547.5,81.8z M563.1,81.8c1.1,0,2.1,0.5,2.9,1.2
		c0.7,0.7,1.2,1.8,1.2,2.9s-0.5,2.1-1.2,2.9c-0.7,0.7-1.8,1.2-2.9,1.2s-2.1-0.5-2.9-1.2c-0.7-0.7-1.2-1.8-1.2-2.9s0.5-2.1,1.2-2.9
		C561,82.2,562,81.8,563.1,81.8z M578.8,81.8c1.1,0,2.1,0.5,2.9,1.2c0.7,0.7,1.2,1.8,1.2,2.9s-0.5,2.1-1.2,2.9
		c-0.7,0.7-1.8,1.2-2.9,1.2c-1.1,0-2.1-0.5-2.9-1.2c-0.7-0.7-1.2-1.8-1.2-2.9s0.5-2.1,1.2-2.9C576.6,82.2,577.7,81.8,578.8,81.8z
		 M594.4,81.8c1.1,0,2.1,0.5,2.9,1.2c0.7,0.7,1.2,1.8,1.2,2.9s-0.5,2.1-1.2,2.9c-0.7,0.7-1.8,1.2-2.9,1.2c-1.1,0-2.1-0.5-2.9-1.2
		c-0.7-0.7-1.2-1.8-1.2-2.9s0.5-2.1,1.2-2.9C592.3,82.2,593.3,81.8,594.4,81.8z M610.1,81.8c1.1,0,2.1,0.5,2.9,1.2
		c0.7,0.7,1.2,1.8,1.2,2.9s-0.5,2.1-1.2,2.9c-0.7,0.7-1.8,1.2-2.9,1.2c-1.1,0-2.1-0.5-2.9-1.2c-0.7-0.7-1.2-1.8-1.2-2.9
		s0.5-2.1,1.2-2.9C607.9,82.2,609,81.8,610.1,81.8z M625.7,81.8c1.1,0,2.1,0.5,2.9,1.2c0.7,0.7,1.2,1.8,1.2,2.9s-0.5,2.1-1.2,2.9
		c-0.7,0.7-1.8,1.2-2.9,1.2c-1.1,0-2.1-0.5-2.9-1.2c-0.7-0.7-1.2-1.8-1.2-2.9s0.5-2.1,1.2-2.9C623.6,82.2,624.6,81.8,625.7,81.8z
		 M641.4,81.8c1.1,0,2.1,0.5,2.9,1.2c0.7,0.7,1.2,1.8,1.2,2.9s-0.5,2.1-1.2,2.9c-0.7,0.7-1.8,1.2-2.9,1.2c-1.1,0-2.1-0.5-2.9-1.2
		c-0.7-0.7-1.2-1.8-1.2-2.9s0.5-2.1,1.2-2.9C639.2,82.2,640.3,81.8,641.4,81.8z M657,81.8c1.1,0,2.1,0.5,2.9,1.2
		c0.7,0.7,1.2,1.8,1.2,2.9s-0.5,2.1-1.2,2.9c-0.7,0.7-1.8,1.2-2.9,1.2c-1.1,0-2.1-0.5-2.9-1.2c-0.7-0.7-1.2-1.8-1.2-2.9
		s0.5-2.1,1.2-2.9C654.9,82.2,655.9,81.8,657,81.8z M672.7,81.8c1.1,0,2.1,0.5,2.9,1.2c0.7,0.7,1.2,1.8,1.2,2.9s-0.5,2.1-1.2,2.9
		c-0.7,0.7-1.8,1.2-2.9,1.2c-1.1,0-2.1-0.5-2.9-1.2c-0.7-0.7-1.2-1.8-1.2-2.9s0.5-2.1,1.2-2.9C670.6,82.2,671.6,81.8,672.7,81.8z
		 M688.3,81.8c1.1,0,2.1,0.5,2.9,1.2c0.7,0.7,1.2,1.8,1.2,2.9s-0.5,2.1-1.2,2.9c-0.7,0.7-1.8,1.2-2.9,1.2c-1.1,0-2.1-0.5-2.9-1.2
		c-0.7-0.7-1.2-1.8-1.2-2.9s0.5-2.1,1.2-2.9C686.2,82.2,687.2,81.8,688.3,81.8z M704,81.8c1.1,0,2.1,0.5,2.9,1.2
		c0.7,0.7,1.2,1.8,1.2,2.9s-0.5,2.1-1.2,2.9c-0.7,0.7-1.8,1.2-2.9,1.2c-1.1,0-2.1-0.5-2.9-1.2c-0.7-0.7-1.2-1.8-1.2-2.9
		s0.5-2.1,1.2-2.9C701.9,82.2,702.9,81.8,704,81.8z M719.7,81.8c1.1,0,2.1,0.5,2.9,1.2c0.7,0.7,1.2,1.8,1.2,2.9s-0.5,2.1-1.2,2.9
		c-0.7,0.7-1.8,1.2-2.9,1.2c-1.1,0-2.1-0.5-2.9-1.2c-0.7-0.7-1.2-1.8-1.2-2.9s0.5-2.1,1.2-2.9C717.5,82.2,718.5,81.8,719.7,81.8z
		 M751,81.8c1.1,0,2.1,0.5,2.9,1.2c0.7,0.7,1.2,1.8,1.2,2.9s-0.5,2.1-1.2,2.9c-0.7,0.7-1.8,1.2-2.9,1.2c-1.1,0-2.1-0.5-2.9-1.2
		c-0.7-0.7-1.2-1.8-1.2-2.9s0.5-2.1,1.2-2.9C748.8,82.2,749.8,81.8,751,81.8z M469.2,72.2c1.1,0,2,0.4,2.7,1.1S473,75,473,76
		c0,1.1-0.4,2-1.1,2.7s-1.7,1.1-2.7,1.1c-1.1,0-2-0.4-2.7-1.1s-1.1-1.7-1.1-2.7c0-1.1,0.4-2,1.1-2.7
		C467.2,72.6,468.1,72.2,469.2,72.2z M484.9,72.2c1.1,0,2,0.4,2.7,1.1s1.1,1.7,1.1,2.7c0,1.1-0.4,2-1.1,2.7s-1.7,1.1-2.7,1.1
		c-1.1,0-2-0.4-2.7-1.1s-1.1-1.7-1.1-2.7c0-1.1,0.4-2,1.1-2.7C482.8,72.6,483.8,72.2,484.9,72.2z M500.5,72.2c1.1,0,2,0.4,2.7,1.1
		s1.1,1.7,1.1,2.7c0,1.1-0.4,2-1.1,2.7s-1.7,1.1-2.7,1.1c-1.1,0-2-0.4-2.7-1.1s-1.1-1.7-1.1-2.7c0-1.1,0.4-2,1.1-2.7
		C498.5,72.6,499.4,72.2,500.5,72.2z M516.2,72.2c1.1,0,2,0.4,2.7,1.1S520,75,520,76c0,1.1-0.4,2-1.1,2.7c-0.7,0.7-1.7,1.1-2.7,1.1
		c-1.1,0-2-0.4-2.7-1.1s-1.1-1.7-1.1-2.7c0-1.1,0.4-2,1.1-2.7C514.1,72.6,515.1,72.2,516.2,72.2z M531.8,72.2c1.1,0,2,0.4,2.7,1.1
		s1.1,1.7,1.1,2.7c0,1.1-0.4,2-1.1,2.7c-0.7,0.7-1.7,1.1-2.7,1.1c-1.1,0-2-0.4-2.7-1.1S528,77,528,76c0-1.1,0.4-2,1.1-2.7
		C529.8,72.6,530.8,72.2,531.8,72.2z M547.5,72.2c1.1,0,2,0.4,2.7,1.1s1.1,1.7,1.1,2.7c0,1.1-0.4,2-1.1,2.7
		c-0.7,0.7-1.7,1.1-2.7,1.1c-1.1,0-2-0.4-2.7-1.1s-1.1-1.7-1.1-2.7c0-1.1,0.4-2,1.1-2.7C545.4,72.6,546.4,72.2,547.5,72.2z
		 M563.1,72.2c1.1,0,2,0.4,2.7,1.1s1.1,1.7,1.1,2.7c0,1.1-0.4,2-1.1,2.7c-0.7,0.7-1.7,1.1-2.7,1.1c-1.1,0-2-0.4-2.7-1.1
		s-1.1-1.7-1.1-2.7c0-1.1,0.4-2,1.1-2.7C561.1,72.6,562.1,72.2,563.1,72.2z M578.8,72.2c1.1,0,2,0.4,2.7,1.1s1.1,1.7,1.1,2.7
		c0,1.1-0.4,2-1.1,2.7c-0.7,0.7-1.7,1.1-2.7,1.1c-1.1,0-2-0.4-2.7-1.1S575,77,575,76c0-1.1,0.4-2,1.1-2.7
		C576.7,72.6,577.7,72.2,578.8,72.2z M594.4,72.2c1.1,0,2,0.4,2.7,1.1s1.1,1.7,1.1,2.7c0,1.1-0.4,2-1.1,2.7
		c-0.7,0.7-1.7,1.1-2.7,1.1c-1.1,0-2-0.4-2.7-1.1s-1.1-1.7-1.1-2.7c0-1.1,0.4-2,1.1-2.7C592.4,72.6,593.4,72.2,594.4,72.2z
		 M610.1,72.2c1.1,0,2,0.4,2.7,1.1s1.1,1.7,1.1,2.7c0,1.1-0.4,2-1.1,2.7c-0.7,0.7-1.7,1.1-2.7,1.1c-1.1,0-2-0.4-2.7-1.1
		s-1.1-1.7-1.1-2.7c0-1.1,0.4-2,1.1-2.7C608.1,72.6,609,72.2,610.1,72.2z M625.7,72.2c1.1,0,2,0.4,2.7,1.1s1.1,1.7,1.1,2.7
		c0,1.1-0.4,2-1.1,2.7c-0.7,0.7-1.7,1.1-2.7,1.1c-1.1,0-2-0.4-2.7-1.1s-1.1-1.7-1.1-2.7c0-1.1,0.4-2,1.1-2.7
		C623.7,72.6,624.7,72.2,625.7,72.2z M641.4,72.2c1.1,0,2,0.4,2.7,1.1s1.1,1.7,1.1,2.7c0,1.1-0.4,2-1.1,2.7
		c-0.7,0.7-1.7,1.1-2.7,1.1c-1.1,0-2-0.4-2.7-1.1s-1.1-1.7-1.1-2.7c0-1.1,0.4-2,1.1-2.7C639.4,72.6,640.3,72.2,641.4,72.2z
		 M657,72.2c1.1,0,2,0.4,2.7,1.1s1.1,1.7,1.1,2.7c0,1.1-0.4,2-1.1,2.7c-0.7,0.7-1.7,1.1-2.7,1.1c-1.1,0-2-0.4-2.7-1.1
		s-1.1-1.7-1.1-2.7c0-1.1,0.4-2,1.1-2.7C655,72.6,656,72.2,657,72.2z M672.7,72.2c1.1,0,2,0.4,2.7,1.1s1.1,1.7,1.1,2.7
		c0,1.1-0.4,2-1.1,2.7c-0.7,0.7-1.7,1.1-2.7,1.1c-1.1,0-2-0.4-2.7-1.1s-1.1-1.7-1.1-2.7c0-1.1,0.4-2,1.1-2.7
		C670.7,72.6,671.6,72.2,672.7,72.2z M688.3,72.2c1.1,0,2,0.4,2.7,1.1s1.1,1.7,1.1,2.7c0,1.1-0.4,2-1.1,2.7
		c-0.7,0.7-1.7,1.1-2.7,1.1c-1.1,0-2-0.4-2.7-1.1s-1.1-1.7-1.1-2.7c0-1.1,0.4-2,1.1-2.7C686.3,72.6,687.3,72.2,688.3,72.2z
		 M704,72.2c1.1,0,2,0.4,2.7,1.1s1.1,1.7,1.1,2.7c0,1.1-0.4,2-1.1,2.7c-0.7,0.7-1.7,1.1-2.7,1.1c-1.1,0-2-0.4-2.7-1.1
		s-1.1-1.7-1.1-2.7c0-1.1,0.4-2,1.1-2.7C702,72.6,702.9,72.2,704,72.2z M719.7,72.2c1.1,0,2,0.4,2.7,1.1s1.1,1.7,1.1,2.7
		c0,1.1-0.4,2-1.1,2.7c-0.7,0.7-1.7,1.1-2.7,1.1c-1.1,0-2-0.4-2.7-1.1s-1.1-1.7-1.1-2.7c0-1.1,0.4-2,1.1-2.7
		C717.6,72.6,718.6,72.2,719.7,72.2z M469.2,62.5c1,0,1.9,0.4,2.6,1.1c0.7,0.7,1.1,1.6,1.1,2.6s-0.4,1.9-1.1,2.6s-1.6,1.1-2.6,1.1
		s-1.9-0.4-2.6-1.1s-1.1-1.6-1.1-2.6s0.4-1.9,1.1-2.6C467.3,62.9,468.2,62.5,469.2,62.5z M484.9,62.5c1,0,1.9,0.4,2.6,1.1
		c0.7,0.7,1.1,1.6,1.1,2.6s-0.4,1.9-1.1,2.6s-1.6,1.1-2.6,1.1s-1.9-0.4-2.6-1.1s-1.1-1.6-1.1-2.6s0.4-1.9,1.1-2.6
		C482.9,62.9,483.9,62.5,484.9,62.5z M500.5,62.5c1,0,1.9,0.4,2.6,1.1c0.7,0.7,1.1,1.6,1.1,2.6s-0.4,1.9-1.1,2.6s-1.6,1.1-2.6,1.1
		s-1.9-0.4-2.6-1.1s-1.1-1.6-1.1-2.6s0.4-1.9,1.1-2.6S499.5,62.5,500.5,62.5z M516.2,62.5c1,0,1.9,0.4,2.6,1.1
		c0.7,0.7,1.1,1.6,1.1,2.6s-0.4,1.9-1.1,2.6c-0.7,0.7-1.6,1.1-2.6,1.1s-1.9-0.4-2.6-1.1c-0.7-0.7-1.1-1.6-1.1-2.6s0.4-1.9,1.1-2.6
		C514.2,62.9,515.2,62.5,516.2,62.5z M531.8,62.5c1,0,1.9,0.4,2.6,1.1c0.7,0.7,1.1,1.6,1.1,2.6s-0.4,1.9-1.1,2.6
		c-0.7,0.7-1.6,1.1-2.6,1.1s-1.9-0.4-2.6-1.1c-0.7-0.7-1.1-1.6-1.1-2.6s0.4-1.9,1.1-2.6C529.9,62.9,530.8,62.5,531.8,62.5z
		 M547.5,62.5c1,0,1.9,0.4,2.6,1.1c0.7,0.7,1.1,1.6,1.1,2.6s-0.4,1.9-1.1,2.6c-0.7,0.7-1.6,1.1-2.6,1.1s-1.9-0.4-2.6-1.1
		c-0.7-0.7-1.1-1.6-1.1-2.6s0.4-1.9,1.1-2.6C545.5,62.9,546.5,62.5,547.5,62.5z M563.1,62.5c1,0,1.9,0.4,2.6,1.1
		c0.7,0.7,1.1,1.6,1.1,2.6s-0.4,1.9-1.1,2.6c-0.7,0.7-1.6,1.1-2.6,1.1s-1.9-0.4-2.6-1.1c-0.7-0.7-1.1-1.6-1.1-2.6s0.4-1.9,1.1-2.6
		C561.2,62.9,562.1,62.5,563.1,62.5z M578.8,62.5c1,0,1.9,0.4,2.6,1.1c0.7,0.7,1.1,1.6,1.1,2.6s-0.4,1.9-1.1,2.6
		c-0.7,0.7-1.6,1.1-2.6,1.1s-1.9-0.4-2.6-1.1c-0.7-0.7-1.1-1.6-1.1-2.6s0.4-1.9,1.1-2.6C576.9,62.9,577.8,62.5,578.8,62.5z
		 M594.4,62.5c1,0,1.9,0.4,2.6,1.1c0.7,0.7,1.1,1.6,1.1,2.6s-0.4,1.9-1.1,2.6c-0.7,0.7-1.6,1.1-2.6,1.1s-1.9-0.4-2.6-1.1
		c-0.7-0.7-1.1-1.6-1.1-2.6s0.4-1.9,1.1-2.6S593.4,62.5,594.4,62.5z M610.1,62.5c1,0,1.9,0.4,2.6,1.1c0.7,0.7,1.1,1.6,1.1,2.6
		s-0.4,1.9-1.1,2.6c-0.7,0.7-1.6,1.1-2.6,1.1s-1.9-0.4-2.6-1.1c-0.7-0.7-1.1-1.6-1.1-2.6s0.4-1.9,1.1-2.6
		C608.2,62.9,609.1,62.5,610.1,62.5z M625.7,62.5c1,0,1.9,0.4,2.6,1.1c0.7,0.7,1.1,1.6,1.1,2.6s-0.4,1.9-1.1,2.6
		c-0.7,0.7-1.6,1.1-2.6,1.1s-1.9-0.4-2.6-1.1c-0.7-0.7-1.1-1.6-1.1-2.6s0.4-1.9,1.1-2.6S624.7,62.5,625.7,62.5z M641.4,62.5
		c1,0,1.9,0.4,2.6,1.1c0.7,0.7,1.1,1.6,1.1,2.6s-0.4,1.9-1.1,2.6c-0.7,0.7-1.6,1.1-2.6,1.1s-1.9-0.4-2.6-1.1
		c-0.7-0.7-1.1-1.6-1.1-2.6s0.4-1.9,1.1-2.6S640.4,62.5,641.4,62.5z M657,62.5c1,0,1.9,0.4,2.6,1.1c0.7,0.7,1.1,1.6,1.1,2.6
		s-0.4,1.9-1.1,2.6c-0.7,0.7-1.6,1.1-2.6,1.1s-1.9-0.4-2.6-1.1c-0.7-0.7-1.1-1.6-1.1-2.6s0.4-1.9,1.1-2.6S656,62.5,657,62.5z
		 M672.7,62.5c1,0,1.9,0.4,2.6,1.1c0.7,0.7,1.1,1.6,1.1,2.6s-0.4,1.9-1.1,2.6c-0.7,0.7-1.6,1.1-2.6,1.1s-1.9-0.4-2.6-1.1
		c-0.7-0.7-1.1-1.6-1.1-2.6s0.4-1.9,1.1-2.6S671.7,62.5,672.7,62.5z M688.3,62.5c1,0,1.9,0.4,2.6,1.1c0.7,0.7,1.1,1.6,1.1,2.6
		s-0.4,1.9-1.1,2.6c-0.7,0.7-1.6,1.1-2.6,1.1s-1.9-0.4-2.6-1.1c-0.7-0.7-1.1-1.6-1.1-2.6s0.4-1.9,1.1-2.6
		C686.4,62.9,687.3,62.5,688.3,62.5z M704,62.5c1,0,1.9,0.4,2.6,1.1c0.7,0.7,1.1,1.6,1.1,2.6s-0.4,1.9-1.1,2.6
		c-0.7,0.7-1.6,1.1-2.6,1.1s-1.9-0.4-2.6-1.1c-0.7-0.7-1.1-1.6-1.1-2.6s0.4-1.9,1.1-2.6S703,62.5,704,62.5z M719.7,62.5
		c1,0,1.9,0.4,2.6,1.1c0.7,0.7,1.1,1.6,1.1,2.6s-0.4,1.9-1.1,2.6c-0.7,0.7-1.6,1.1-2.6,1.1s-1.9-0.4-2.6-1.1
		c-0.7-0.7-1.1-1.6-1.1-2.6s0.4-1.9,1.1-2.6C717.7,62.9,718.6,62.5,719.7,62.5z M484.9,52.9c0.9,0,1.8,0.4,2.4,1s1,1.5,1,2.4
		s-0.4,1.8-1,2.4c-0.6,0.6-1.5,1-2.4,1s-1.8-0.4-2.4-1s-1-1.5-1-2.4s0.4-1.8,1-2.4C483,53.3,483.9,52.9,484.9,52.9z M500.5,52.9
		c0.9,0,1.8,0.4,2.4,1s1,1.5,1,2.4s-0.4,1.8-1,2.4c-0.6,0.6-1.5,1-2.4,1s-1.8-0.4-2.4-1s-1-1.5-1-2.4s0.4-1.8,1-2.4
		C498.7,53.3,499.6,52.9,500.5,52.9z M516.2,52.9c0.9,0,1.8,0.4,2.4,1c0.6,0.6,1,1.5,1,2.4s-0.4,1.8-1,2.4c-0.6,0.6-1.5,1-2.4,1
		s-1.8-0.4-2.4-1c-0.6-0.6-1-1.5-1-2.4s0.4-1.8,1-2.4C514.4,53.3,515.2,52.9,516.2,52.9z M531.8,52.9c0.9,0,1.8,0.4,2.4,1
		c0.6,0.6,1,1.5,1,2.4s-0.4,1.8-1,2.4c-0.6,0.6-1.5,1-2.4,1s-1.8-0.4-2.4-1c-0.6-0.6-1-1.5-1-2.4s0.4-1.8,1-2.4
		C530,53.3,530.9,52.9,531.8,52.9z M563.1,52.9c0.9,0,1.8,0.4,2.4,1c0.6,0.6,1,1.5,1,2.4s-0.4,1.8-1,2.4c-0.6,0.6-1.5,1-2.4,1
		s-1.8-0.4-2.4-1c-0.6-0.6-1-1.5-1-2.4s0.4-1.8,1-2.4C561.3,53.3,562.2,52.9,563.1,52.9z M578.8,52.9c0.9,0,1.8,0.4,2.4,1
		c0.6,0.6,1,1.5,1,2.4s-0.4,1.8-1,2.4c-0.6,0.6-1.5,1-2.4,1s-1.8-0.4-2.4-1c-0.6-0.6-1-1.5-1-2.4s0.4-1.8,1-2.4
		C577,53.3,577.8,52.9,578.8,52.9z M594.4,52.9c0.9,0,1.8,0.4,2.4,1c0.6,0.6,1,1.5,1,2.4s-0.4,1.8-1,2.4c-0.6,0.6-1.5,1-2.4,1
		s-1.8-0.4-2.4-1c-0.6-0.6-1-1.5-1-2.4s0.4-1.8,1-2.4C592.6,53.3,593.5,52.9,594.4,52.9z M610.1,52.9c0.9,0,1.8,0.4,2.4,1
		c0.6,0.6,1,1.5,1,2.4s-0.4,1.8-1,2.4c-0.6,0.6-1.5,1-2.4,1s-1.8-0.4-2.4-1c-0.6-0.6-1-1.5-1-2.4s0.4-1.8,1-2.4
		C608.3,53.3,609.1,52.9,610.1,52.9z M625.7,52.9c0.9,0,1.8,0.4,2.4,1c0.6,0.6,1,1.5,1,2.4s-0.4,1.8-1,2.4c-0.6,0.6-1.5,1-2.4,1
		s-1.8-0.4-2.4-1c-0.6-0.6-1-1.5-1-2.4s0.4-1.8,1-2.4C623.9,53.3,624.8,52.9,625.7,52.9z M641.4,52.9c0.9,0,1.8,0.4,2.4,1
		c0.6,0.6,1,1.5,1,2.4s-0.4,1.8-1,2.4c-0.6,0.6-1.5,1-2.4,1s-1.8-0.4-2.4-1c-0.6-0.6-1-1.5-1-2.4s0.4-1.8,1-2.4
		C639.6,53.3,640.4,52.9,641.4,52.9z M657,52.9c0.9,0,1.8,0.4,2.4,1c0.6,0.6,1,1.5,1,2.4s-0.4,1.8-1,2.4c-0.6,0.6-1.5,1-2.4,1
		s-1.8-0.4-2.4-1c-0.6-0.6-1-1.5-1-2.4s0.4-1.8,1-2.4C655.2,53.3,656.1,52.9,657,52.9z M672.7,52.9c0.9,0,1.8,0.4,2.4,1
		c0.6,0.6,1,1.5,1,2.4s-0.4,1.8-1,2.4c-0.6,0.6-1.5,1-2.4,1s-1.8-0.4-2.4-1c-0.6-0.6-1-1.5-1-2.4s0.4-1.8,1-2.4
		C670.9,53.3,671.7,52.9,672.7,52.9z M688.3,52.9c0.9,0,1.8,0.4,2.4,1c0.6,0.6,1,1.5,1,2.4s-0.4,1.8-1,2.4c-0.6,0.6-1.5,1-2.4,1
		s-1.8-0.4-2.4-1c-0.6-0.6-1-1.5-1-2.4s0.4-1.8,1-2.4C686.5,53.3,687.4,52.9,688.3,52.9z M704,52.9c0.9,0,1.8,0.4,2.4,1
		c0.6,0.6,1,1.5,1,2.4s-0.4,1.8-1,2.4c-0.6,0.6-1.5,1-2.4,1s-1.8-0.4-2.4-1c-0.6-0.6-1-1.5-1-2.4s0.4-1.8,1-2.4
		C702.2,53.3,703.1,52.9,704,52.9z M500.5,43.3c0.9,0,1.7,0.4,2.3,1c0.6,0.6,1,1.4,1,2.3c0,0.9-0.4,1.7-1,2.3s-1.4,1-2.3,1
		s-1.7-0.4-2.3-1c-0.6-0.6-1-1.4-1-2.3c0-0.9,0.4-1.7,1-2.3C498.8,43.6,499.6,43.3,500.5,43.3z M516.2,43.3c0.9,0,1.7,0.4,2.3,1
		s1,1.4,1,2.3c0,0.9-0.4,1.7-1,2.3s-1.4,1-2.3,1s-1.7-0.4-2.3-1s-1-1.4-1-2.3c0-0.9,0.4-1.7,1-2.3C514.5,43.6,515.3,43.3,516.2,43.3
		z M531.8,43.3c0.9,0,1.7,0.4,2.3,1s1,1.4,1,2.3c0,0.9-0.4,1.7-1,2.3s-1.4,1-2.3,1s-1.7-0.4-2.3-1s-1-1.4-1-2.3c0-0.9,0.4-1.7,1-2.3
		C530.1,43.6,530.9,43.3,531.8,43.3z M563.1,43.3c0.9,0,1.7,0.4,2.3,1s1,1.4,1,2.3c0,0.9-0.4,1.7-1,2.3s-1.4,1-2.3,1
		c-0.9,0-1.7-0.4-2.3-1s-1-1.4-1-2.3c0-0.9,0.4-1.7,1-2.3C561.4,43.6,562.2,43.3,563.1,43.3z M578.8,43.3c0.9,0,1.7,0.4,2.3,1
		s1,1.4,1,2.3c0,0.9-0.4,1.7-1,2.3s-1.4,1-2.3,1c-0.9,0-1.7-0.4-2.3-1s-1-1.4-1-2.3c0-0.9,0.4-1.7,1-2.3
		C577.1,43.6,577.9,43.3,578.8,43.3z M594.4,43.3c0.9,0,1.7,0.4,2.3,1s1,1.4,1,2.3c0,0.9-0.4,1.7-1,2.3s-1.4,1-2.3,1
		c-0.9,0-1.7-0.4-2.3-1s-1-1.4-1-2.3c0-0.9,0.4-1.7,1-2.3C592.7,43.6,593.5,43.3,594.4,43.3z M610.1,43.3c0.9,0,1.7,0.4,2.3,1
		s1,1.4,1,2.3c0,0.9-0.4,1.7-1,2.3s-1.4,1-2.3,1c-0.9,0-1.7-0.4-2.3-1s-1-1.4-1-2.3c0-0.9,0.4-1.7,1-2.3
		C608.4,43.6,609.2,43.3,610.1,43.3z M625.7,43.3c0.9,0,1.7,0.4,2.3,1s1,1.4,1,2.3c0,0.9-0.4,1.7-1,2.3s-1.4,1-2.3,1
		c-0.9,0-1.7-0.4-2.3-1s-1-1.4-1-2.3c0-0.9,0.4-1.7,1-2.3C624,43.6,624.8,43.3,625.7,43.3z M641.4,43.3c0.9,0,1.7,0.4,2.3,1
		s1,1.4,1,2.3c0,0.9-0.4,1.7-1,2.3s-1.4,1-2.3,1c-0.9,0-1.7-0.4-2.3-1s-1-1.4-1-2.3c0-0.9,0.4-1.7,1-2.3
		C639.7,43.6,640.5,43.3,641.4,43.3z M657,43.3c0.9,0,1.7,0.4,2.3,1s1,1.4,1,2.3c0,0.9-0.4,1.7-1,2.3s-1.4,1-2.3,1
		c-0.9,0-1.7-0.4-2.3-1s-1-1.4-1-2.3c0-0.9,0.4-1.7,1-2.3C655.3,43.6,656.2,43.3,657,43.3z M672.7,43.3c0.9,0,1.7,0.4,2.3,1
		s1,1.4,1,2.3c0,0.9-0.4,1.7-1,2.3s-1.4,1-2.3,1c-0.9,0-1.7-0.4-2.3-1s-1-1.4-1-2.3c0-0.9,0.4-1.7,1-2.3
		C671,43.6,671.8,43.3,672.7,43.3z M688.3,43.3c0.9,0,1.7,0.4,2.3,1s1,1.4,1,2.3c0,0.9-0.4,1.7-1,2.3s-1.4,1-2.3,1
		c-0.9,0-1.7-0.4-2.3-1s-1-1.4-1-2.3c0-0.9,0.4-1.7,1-2.3C686.6,43.6,687.5,43.3,688.3,43.3z M704,43.3c0.9,0,1.7,0.4,2.3,1
		s1,1.4,1,2.3c0,0.9-0.4,1.7-1,2.3s-1.4,1-2.3,1c-0.9,0-1.7-0.4-2.3-1s-1-1.4-1-2.3c0-0.9,0.4-1.7,1-2.3
		C702.3,43.6,703.1,43.3,704,43.3z M500.5,33.7c0.8,0,1.6,0.3,2.2,0.9c0.6,0.6,0.9,1.3,0.9,2.2c0,0.8-0.3,1.6-0.9,2.2
		c-0.6,0.6-1.3,0.9-2.2,0.9c-0.8,0-1.6-0.3-2.2-0.9c-0.6-0.6-0.9-1.3-0.9-2.2c0-0.8,0.3-1.6,0.9-2.2S499.7,33.7,500.5,33.7z
		 M516.2,33.7c0.8,0,1.6,0.3,2.2,0.9c0.6,0.6,0.9,1.3,0.9,2.2c0,0.8-0.3,1.6-0.9,2.2c-0.6,0.6-1.3,0.9-2.2,0.9
		c-0.8,0-1.6-0.3-2.2-0.9c-0.6-0.6-0.9-1.3-0.9-2.2c0-0.8,0.3-1.6,0.9-2.2C514.6,34,515.3,33.7,516.2,33.7z M563.1,33.7
		c0.8,0,1.6,0.3,2.2,0.9c0.6,0.6,0.9,1.3,0.9,2.2c0,0.8-0.3,1.6-0.9,2.2c-0.6,0.6-1.3,0.9-2.2,0.9c-0.8,0-1.6-0.3-2.2-0.9
		c-0.6-0.6-0.9-1.3-0.9-2.2c0-0.8,0.3-1.6,0.9-2.2S562.3,33.7,563.1,33.7z M594.4,33.7c0.8,0,1.6,0.3,2.2,0.9
		c0.6,0.6,0.9,1.3,0.9,2.2c0,0.8-0.3,1.6-0.9,2.2c-0.6,0.6-1.3,0.9-2.2,0.9c-0.8,0-1.6-0.3-2.2-0.9c-0.6-0.6-0.9-1.3-0.9-2.2
		c0-0.8,0.3-1.6,0.9-2.2C592.8,34,593.6,33.7,594.4,33.7z M610.1,33.7c0.8,0,1.6,0.3,2.2,0.9c0.6,0.6,0.9,1.3,0.9,2.2
		c0,0.8-0.3,1.6-0.9,2.2c-0.6,0.6-1.3,0.9-2.2,0.9c-0.8,0-1.6-0.3-2.2-0.9c-0.6-0.6-0.9-1.3-0.9-2.2c0-0.8,0.3-1.6,0.9-2.2
		S609.3,33.7,610.1,33.7z M625.7,33.7c0.8,0,1.6,0.3,2.2,0.9c0.6,0.6,0.9,1.3,0.9,2.2c0,0.8-0.3,1.6-0.9,2.2
		c-0.6,0.6-1.3,0.9-2.2,0.9c-0.8,0-1.6-0.3-2.2-0.9c-0.6-0.6-0.9-1.3-0.9-2.2c0-0.8,0.3-1.6,0.9-2.2C624.1,34,624.9,33.7,625.7,33.7
		z M657,33.7c0.8,0,1.6,0.3,2.2,0.9c0.6,0.6,0.9,1.3,0.9,2.2c0,0.8-0.3,1.6-0.9,2.2c-0.6,0.6-1.3,0.9-2.2,0.9
		c-0.8,0-1.6-0.3-2.2-0.9c-0.6-0.6-0.9-1.3-0.9-2.2c0-0.8,0.3-1.6,0.9-2.2S656.2,33.7,657,33.7z M688.3,33.7c0.8,0,1.6,0.3,2.2,0.9
		c0.6,0.6,0.9,1.3,0.9,2.2c0,0.8-0.3,1.6-0.9,2.2c-0.6,0.6-1.3,0.9-2.2,0.9c-0.8,0-1.6-0.3-2.2-0.9c-0.6-0.6-0.9-1.3-0.9-2.2
		c0-0.8,0.3-1.6,0.9-2.2C686.8,34,687.5,33.7,688.3,33.7z M704,33.7c0.8,0,1.6,0.3,2.2,0.9c0.6,0.6,0.9,1.3,0.9,2.2
		c0,0.8-0.3,1.6-0.9,2.2c-0.6,0.6-1.3,0.9-2.2,0.9c-0.8,0-1.6-0.3-2.2-0.9c-0.6-0.6-0.9-1.3-0.9-2.2c0-0.8,0.3-1.6,0.9-2.2
		S703.2,33.7,704,33.7z M516.2,24c0.8,0,1.5,0.3,2,0.8s0.8,1.2,0.8,2s-0.3,1.5-0.8,2s-1.2,0.8-2,0.8s-1.5-0.3-2-0.8s-0.8-1.2-0.8-2
		s0.3-1.5,0.8-2S515.4,24,516.2,24z M563.1,24c0.8,0,1.5,0.3,2,0.8s0.8,1.2,0.8,2s-0.3,1.5-0.8,2s-1.2,0.8-2,0.8s-1.5-0.3-2-0.8
		s-0.8-1.2-0.8-2s0.3-1.5,0.8-2S562.4,24,563.1,24z M594.4,24c0.8,0,1.5,0.3,2,0.8s0.8,1.2,0.8,2s-0.3,1.5-0.8,2s-1.2,0.8-2,0.8
		s-1.5-0.3-2-0.8s-0.8-1.2-0.8-2s0.3-1.5,0.8-2S593.7,24,594.4,24z M625.7,24c0.8,0,1.5,0.3,2,0.8s0.8,1.2,0.8,2s-0.3,1.5-0.8,2
		s-1.2,0.8-2,0.8s-1.5-0.3-2-0.8s-0.8-1.2-0.8-2s0.3-1.5,0.8-2C624.3,24.3,625,24,625.7,24z M657,24c0.8,0,1.5,0.3,2,0.8
		s0.8,1.2,0.8,2s-0.3,1.5-0.8,2s-1.2,0.8-2,0.8s-1.5-0.3-2-0.8s-0.8-1.2-0.8-2s0.3-1.5,0.8-2C655.6,24.3,656.3,24,657,24z M704,24
		c0.8,0,1.5,0.3,2,0.8s0.8,1.2,0.8,2s-0.3,1.5-0.8,2s-1.2,0.8-2,0.8s-1.5-0.3-2-0.8s-0.8-1.2-0.8-2s0.3-1.5,0.8-2S703.2,24,704,24z
		 M516.2,14.4c0.7,0,1.4,0.3,1.9,0.8s0.8,1.1,0.8,1.9c0,0.7-0.3,1.4-0.8,1.9s-1.1,0.8-1.9,0.8c-0.7,0-1.4-0.3-1.9-0.8
		s-0.8-1.1-0.8-1.9c0-0.7,0.3-1.4,0.8-1.9C514.8,14.7,515.5,14.4,516.2,14.4z M594.4,14.4c0.7,0,1.4,0.3,1.9,0.8s0.8,1.1,0.8,1.9
		c0,0.7-0.3,1.4-0.8,1.9s-1.1,0.8-1.9,0.8c-0.7,0-1.4-0.3-1.9-0.8s-0.8-1.1-0.8-1.9c0-0.7,0.3-1.4,0.8-1.9
		C593.1,14.7,593.7,14.4,594.4,14.4z M625.7,14.4c0.7,0,1.4,0.3,1.9,0.8s0.8,1.1,0.8,1.9c0,0.7-0.3,1.4-0.8,1.9s-1.1,0.8-1.9,0.8
		c-0.7,0-1.4-0.3-1.9-0.8s-0.8-1.1-0.8-1.9c0-0.7,0.3-1.4,0.8-1.9C624.4,14.7,625,14.4,625.7,14.4z M704,14.4c0.7,0,1.4,0.3,1.9,0.8
		s0.8,1.1,0.8,1.9c0,0.7-0.3,1.4-0.8,1.9s-1.1,0.8-1.9,0.8c-0.7,0-1.4-0.3-1.9-0.8s-0.8-1.1-0.8-1.9c0-0.7,0.3-1.4,0.8-1.9
		C702.6,14.7,703.3,14.4,704,14.4z M516.2,4.8c0.7,0,1.3,0.3,1.7,0.7c0.4,0.4,0.7,1.1,0.7,1.7c0,0.7-0.3,1.3-0.7,1.7
		s-1.1,0.7-1.7,0.7c-0.7,0-1.3-0.3-1.7-0.7s-0.7-1.1-0.7-1.7c0-0.7,0.3-1.3,0.7-1.7C514.9,5,515.5,4.8,516.2,4.8z M594.4,4.8
		c0.7,0,1.3,0.3,1.7,0.7c0.4,0.4,0.7,1.1,0.7,1.7c0,0.7-0.3,1.3-0.7,1.7c-0.5,0.4-1.1,0.7-1.7,0.7c-0.7,0-1.3-0.3-1.7-0.7
		S592,7.8,592,7.2c0-0.7,0.3-1.3,0.7-1.7C593.2,5,593.8,4.8,594.4,4.8z M625.7,4.8c0.7,0,1.3,0.3,1.7,0.7c0.4,0.4,0.7,1.1,0.7,1.7
		c0,0.7-0.3,1.3-0.7,1.7s-1.1,0.7-1.7,0.7c-0.7,0-1.3-0.3-1.7-0.7s-0.7-1.1-0.7-1.7c0-0.7,0.3-1.3,0.7-1.7
		C624.5,5,625.1,4.8,625.7,4.8z"/>
</g>
</svg>
