<?xml version="1.0" encoding="utf-8"?>
<!-- Generator: Adobe Illustrator 20.1.0, SVG Export Plug-In . SVG Version: 6.00 Build 0)  -->
<svg version="1.1" id="Layer_1" xmlns="http://www.w3.org/2000/svg" xmlns:xlink="http://www.w3.org/1999/xlink" x="0px" y="0px"
	 viewBox="0 0 800 110" style="enable-background:new 0 0 800 110;" xml:space="preserve">
<style type="text/css">
	.st0{fill:url(#SVGID_1_);}
</style>
<linearGradient id="SVGID_1_" gradientUnits="userSpaceOnUse" x1="398.4" y1="110" x2="398.4" y2="3.4">
	<stop  offset="0" style="stop-color:#7fe8c6"/>
	<stop  offset="1" style="stop-color:#f988af">
		<animate attributeName="offset" values="1;0.5;1" dur="2s" repeatCount="indefinite" />
	</stop>
</linearGradient>
<path class="st0" d="M15.3,106.2c0,1.1-0.4,2-1.1,2.7c-0.7,0.7-1.7,1.1-2.7,1.1c-1.1,0-2-0.4-2.7-1.1s-1.1-1.7-1.1-2.7
	c0-2.1,1.7-3.8,3.8-3.8S15.3,104,15.3,106.2z M28.7,106.2c0,1.1-0.4,2-1.1,2.7s-1.7,1.1-2.7,1.1c-1.1,0-2-0.4-2.7-1.1
	s-1.1-1.7-1.1-2.7c0-2.1,1.7-3.8,3.8-3.8S28.7,104,28.7,106.2z M42.1,106.2c0,1.1-0.4,2-1.1,2.7c-0.7,0.7-1.7,1.1-2.7,1.1
	c-1.1,0-2-0.4-2.7-1.1s-1.1-1.7-1.1-2.7c0-2.1,1.7-3.8,3.8-3.8C40.4,102.3,42.1,104,42.1,106.2z M55.5,106.2c0,1.1-0.4,2-1.1,2.7
	c-0.7,0.7-1.7,1.1-2.7,1.1c-1.1,0-2-0.4-2.7-1.1s-1.1-1.7-1.1-2.7c0-2.1,1.7-3.8,3.8-3.8C53.8,102.3,55.5,104,55.5,106.2z
	 M68.9,106.2c0,1.1-0.4,2-1.1,2.7s-1.7,1.1-2.7,1.1c-1.1,0-2-0.4-2.7-1.1s-1.1-1.7-1.1-2.7c0-2.1,1.7-3.8,3.8-3.8
	C67.2,102.3,68.9,104,68.9,106.2z M82.3,106.2c0,1.1-0.4,2-1.1,2.7s-1.7,1.1-2.7,1.1c-1.1,0-2-0.4-2.7-1.1s-1.1-1.7-1.1-2.7
	c0-2.1,1.7-3.8,3.8-3.8C80.6,102.3,82.3,104,82.3,106.2z M95.7,106.2c0,1.1-0.4,2-1.1,2.7s-1.7,1.1-2.7,1.1c-1.1,0-2-0.4-2.7-1.1
	s-1.1-1.7-1.1-2.7c0-2.1,1.7-3.8,3.8-3.8C94,102.3,95.7,104,95.7,106.2z M109.1,106.2c0,1.1-0.4,2-1.1,2.7s-1.7,1.1-2.7,1.1
	c-1.1,0-2-0.4-2.7-1.1s-1.1-1.7-1.1-2.7c0-2.1,1.7-3.8,3.8-3.8C107.4,102.3,109.1,104,109.1,106.2z M122.5,106.2
	c0,1.1-0.4,2-1.1,2.7s-1.7,1.1-2.7,1.1c-1.1,0-2-0.4-2.7-1.1s-1.1-1.7-1.1-2.7c0-2.1,1.7-3.8,3.8-3.8S122.5,104,122.5,106.2z
	 M135.9,106.2c0,1.1-0.4,2-1.1,2.7c-0.7,0.7-1.7,1.1-2.7,1.1c-1.1,0-2-0.4-2.7-1.1s-1.1-1.7-1.1-2.7c0-2.1,1.7-3.8,3.8-3.8
	S135.9,104,135.9,106.2z M149.3,106.2c0,1.1-0.4,2-1.1,2.7c-0.7,0.7-1.7,1.1-2.7,1.1c-1.1,0-2-0.4-2.7-1.1s-1.1-1.7-1.1-2.7
	c0-2.1,1.7-3.8,3.8-3.8C147.6,102.3,149.3,104,149.3,106.2z M162.7,106.2c0,1.1-0.4,2-1.1,2.7c-0.7,0.7-1.7,1.1-2.7,1.1
	c-1.1,0-2-0.4-2.7-1.1s-1.1-1.7-1.1-2.7c0-2.1,1.7-3.8,3.8-3.8C161,102.3,162.7,104,162.7,106.2z M176.1,106.2c0,1.1-0.4,2-1.1,2.7
	c-0.7,0.7-1.7,1.1-2.7,1.1c-1.1,0-2-0.4-2.7-1.1s-1.1-1.7-1.1-2.7c0-2.1,1.7-3.8,3.8-3.8C174.4,102.3,176.1,104,176.1,106.2z
	 M189.5,106.2c0,1.1-0.4,2-1.1,2.7c-0.7,0.7-1.7,1.1-2.7,1.1c-1.1,0-2-0.4-2.7-1.1s-1.1-1.7-1.1-2.7c0-2.1,1.7-3.8,3.8-3.8
	C187.8,102.3,189.5,104,189.5,106.2z M202.9,106.2c0,1.1-0.4,2-1.1,2.7c-0.7,0.7-1.7,1.1-2.7,1.1c-1.1,0-2-0.4-2.7-1.1
	s-1.1-1.7-1.1-2.7c0-2.1,1.7-3.8,3.8-3.8C201.2,102.3,202.9,104,202.9,106.2z M216.4,106.2c0,1.1-0.4,2-1.1,2.7
	c-0.7,0.7-1.7,1.1-2.7,1.1c-1.1,0-2-0.4-2.7-1.1s-1.1-1.7-1.1-2.7c0-2.1,1.7-3.8,3.8-3.8C214.6,102.3,216.4,104,216.4,106.2z
	 M229.8,106.2c0,1.1-0.4,2-1.1,2.7c-0.7,0.7-1.7,1.1-2.7,1.1c-1.1,0-2-0.4-2.7-1.1s-1.1-1.7-1.1-2.7c0-2.1,1.7-3.8,3.8-3.8
	C228,102.3,229.8,104,229.8,106.2z M243.2,106.2c0,1.1-0.4,2-1.1,2.7c-0.7,0.7-1.7,1.1-2.7,1.1c-1.1,0-2-0.4-2.7-1.1
	s-1.1-1.7-1.1-2.7c0-2.1,1.7-3.8,3.8-3.8C241.4,102.3,243.2,104,243.2,106.2z M256.6,106.2c0,1.1-0.4,2-1.1,2.7
	c-0.7,0.7-1.7,1.1-2.7,1.1c-1.1,0-2-0.4-2.7-1.1s-1.1-1.7-1.1-2.7c0-2.1,1.7-3.8,3.8-3.8C254.8,102.3,256.6,104,256.6,106.2z
	 M270,106.2c0,1.1-0.4,2-1.1,2.7s-1.7,1.1-2.7,1.1c-1.1,0-2-0.4-2.7-1.1s-1.1-1.7-1.1-2.7c0-2.1,1.7-3.8,3.8-3.8
	C268.2,102.3,270,104,270,106.2z M283.4,106.2c0,1.1-0.4,2-1.1,2.7s-1.7,1.1-2.7,1.1c-1.1,0-2-0.4-2.7-1.1s-1.1-1.7-1.1-2.7
	c0-2.1,1.7-3.8,3.8-3.8C281.7,102.3,283.4,104,283.4,106.2z M296.8,106.2c0,1.1-0.4,2-1.1,2.7S294,110,293,110c-1.1,0-2-0.4-2.7-1.1
	s-1.1-1.7-1.1-2.7c0-2.1,1.7-3.8,3.8-3.8C295.1,102.3,296.8,104,296.8,106.2z M310.2,106.2c0,1.1-0.4,2-1.1,2.7s-1.7,1.1-2.7,1.1
	c-1.1,0-2-0.4-2.7-1.1s-1.1-1.7-1.1-2.7c0-2.1,1.7-3.8,3.8-3.8C308.5,102.3,310.2,104,310.2,106.2z M323.6,106.2
	c0,1.1-0.4,2-1.1,2.7s-1.7,1.1-2.7,1.1c-1.1,0-2-0.4-2.7-1.1s-1.1-1.7-1.1-2.7c0-2.1,1.7-3.8,3.8-3.8
	C321.9,102.3,323.6,104,323.6,106.2z M337,106.2c0,1.1-0.4,2-1.1,2.7s-1.7,1.1-2.7,1.1c-1.1,0-2-0.4-2.7-1.1s-1.1-1.7-1.1-2.7
	c0-2.1,1.7-3.8,3.8-3.8C335.3,102.3,337,104,337,106.2z M24.9,94.1c1,0,1.9,0.4,2.6,1.1s1.1,1.6,1.1,2.6s-0.4,1.9-1.1,2.6
	s-1.6,1.1-2.6,1.1s-1.9-0.4-2.6-1.1s-1.1-1.6-1.1-2.6s0.4-1.9,1.1-2.6C22.9,94.5,23.8,94.1,24.9,94.1z M38.3,94.1
	c1,0,1.9,0.4,2.6,1.1c0.7,0.7,1.1,1.6,1.1,2.6s-0.4,1.9-1.1,2.6c-0.7,0.7-1.6,1.1-2.6,1.1s-1.9-0.4-2.6-1.1
	c-0.7-0.7-1.1-1.6-1.1-2.6s0.4-1.9,1.1-2.6C36.3,94.5,37.2,94.1,38.3,94.1z M51.7,94.1c1,0,1.9,0.4,2.6,1.1c0.7,0.7,1.1,1.6,1.1,2.6
	s-0.4,1.9-1.1,2.6c-0.7,0.7-1.6,1.1-2.6,1.1s-1.9-0.4-2.6-1.1c-0.7-0.7-1.1-1.6-1.1-2.6s0.4-1.9,1.1-2.6
	C49.7,94.5,50.7,94.1,51.7,94.1z M65.1,94.1c1,0,1.9,0.4,2.6,1.1s1.1,1.6,1.1,2.6s-0.4,1.9-1.1,2.6s-1.6,1.1-2.6,1.1
	s-1.9-0.4-2.6-1.1c-0.7-0.7-1.1-1.6-1.1-2.6s0.4-1.9,1.1-2.6C63.1,94.5,64.1,94.1,65.1,94.1z M78.5,94.1c1,0,1.9,0.4,2.6,1.1
	s1.1,1.6,1.1,2.6s-0.4,1.9-1.1,2.6s-1.6,1.1-2.6,1.1s-1.9-0.4-2.6-1.1s-1.1-1.6-1.1-2.6s0.4-1.9,1.1-2.6
	C76.5,94.5,77.5,94.1,78.5,94.1z M91.9,94.1c1,0,1.9,0.4,2.6,1.1s1.1,1.6,1.1,2.6s-0.4,1.9-1.1,2.6s-1.6,1.1-2.6,1.1
	s-1.9-0.4-2.6-1.1s-1.1-1.6-1.1-2.6s0.4-1.9,1.1-2.6C89.9,94.5,90.9,94.1,91.9,94.1z M105.3,94.1c1,0,1.9,0.4,2.6,1.1
	s1.1,1.6,1.1,2.6s-0.4,1.9-1.1,2.6s-1.6,1.1-2.6,1.1s-1.9-0.4-2.6-1.1s-1.1-1.6-1.1-2.6s0.4-1.9,1.1-2.6S104.3,94.1,105.3,94.1z
	 M118.7,94.1c1,0,1.9,0.4,2.6,1.1s1.1,1.6,1.1,2.6s-0.4,1.9-1.1,2.6s-1.6,1.1-2.6,1.1s-1.9-0.4-2.6-1.1s-1.1-1.6-1.1-2.6
	s0.4-1.9,1.1-2.6C116.8,94.5,117.7,94.1,118.7,94.1z M132.1,94.1c1,0,1.9,0.4,2.6,1.1c0.7,0.7,1.1,1.6,1.1,2.6s-0.4,1.9-1.1,2.6
	c-0.7,0.7-1.6,1.1-2.6,1.1s-1.9-0.4-2.6-1.1c-0.7-0.7-1.1-1.6-1.1-2.6s0.4-1.9,1.1-2.6C130.2,94.5,131.1,94.1,132.1,94.1z
	 M145.5,94.1c1,0,1.9,0.4,2.6,1.1c0.7,0.7,1.1,1.6,1.1,2.6s-0.4,1.9-1.1,2.6c-0.7,0.7-1.6,1.1-2.6,1.1s-1.9-0.4-2.6-1.1
	c-0.7-0.7-1.1-1.6-1.1-2.6s0.4-1.9,1.1-2.6S144.5,94.1,145.5,94.1z M158.9,94.1c1,0,1.9,0.4,2.6,1.1c0.7,0.7,1.1,1.6,1.1,2.6
	s-0.4,1.9-1.1,2.6c-0.7,0.7-1.6,1.1-2.6,1.1s-1.9-0.4-2.6-1.1c-0.7-0.7-1.1-1.6-1.1-2.6s0.4-1.9,1.1-2.6S157.9,94.1,158.9,94.1z
	 M172.3,94.1c1,0,1.9,0.4,2.6,1.1c0.7,0.7,1.1,1.6,1.1,2.6s-0.4,1.9-1.1,2.6c-0.7,0.7-1.6,1.1-2.6,1.1s-1.9-0.4-2.6-1.1
	c-0.7-0.7-1.1-1.6-1.1-2.6s0.4-1.9,1.1-2.6C170.4,94.5,171.3,94.1,172.3,94.1z M185.7,94.1c1,0,1.9,0.4,2.6,1.1
	c0.7,0.7,1.1,1.6,1.1,2.6s-0.4,1.9-1.1,2.6c-0.7,0.7-1.6,1.1-2.6,1.1s-1.9-0.4-2.6-1.1c-0.7-0.7-1.1-1.6-1.1-2.6s0.4-1.9,1.1-2.6
	S184.7,94.1,185.7,94.1z M199.1,94.1c1,0,1.9,0.4,2.6,1.1c0.7,0.7,1.1,1.6,1.1,2.6s-0.4,1.9-1.1,2.6c-0.7,0.7-1.6,1.1-2.6,1.1
	s-1.9-0.4-2.6-1.1c-0.7-0.7-1.1-1.6-1.1-2.6s0.4-1.9,1.1-2.6C197.2,94.5,198.1,94.1,199.1,94.1z M212.5,94.1c1,0,1.9,0.4,2.6,1.1
	c0.7,0.7,1.1,1.6,1.1,2.6s-0.4,1.9-1.1,2.6c-0.7,0.7-1.6,1.1-2.6,1.1s-1.9-0.4-2.6-1.1c-0.7-0.7-1.1-1.6-1.1-2.6s0.4-1.9,1.1-2.6
	S211.5,94.1,212.5,94.1z M225.9,94.1c1,0,1.9,0.4,2.6,1.1c0.7,0.7,1.1,1.6,1.1,2.6s-0.4,1.9-1.1,2.6c-0.7,0.7-1.6,1.1-2.6,1.1
	s-1.9-0.4-2.6-1.1c-0.7-0.7-1.1-1.6-1.1-2.6s0.4-1.9,1.1-2.6S224.9,94.1,225.9,94.1z M239.3,94.1c1,0,1.9,0.4,2.6,1.1
	c0.7,0.7,1.1,1.6,1.1,2.6s-0.4,1.9-1.1,2.6c-0.7,0.7-1.6,1.1-2.6,1.1s-1.9-0.4-2.6-1.1c-0.7-0.7-1.1-1.6-1.1-2.6s0.4-1.9,1.1-2.6
	C237.4,94.5,238.3,94.1,239.3,94.1z M252.7,94.1c1,0,1.9,0.4,2.6,1.1c0.7,0.7,1.1,1.6,1.1,2.6s-0.4,1.9-1.1,2.6
	c-0.7,0.7-1.6,1.1-2.6,1.1s-1.9-0.4-2.6-1.1c-0.7-0.7-1.1-1.6-1.1-2.6s0.4-1.9,1.1-2.6C250.8,94.5,251.7,94.1,252.7,94.1z
	 M266.1,94.1c1,0,1.9,0.4,2.6,1.1s1.1,1.6,1.1,2.6s-0.4,1.9-1.1,2.6s-1.6,1.1-2.6,1.1s-1.9-0.4-2.6-1.1s-1.1-1.6-1.1-2.6
	s0.4-1.9,1.1-2.6S265.1,94.1,266.1,94.1z M279.5,94.1c1,0,1.9,0.4,2.6,1.1s1.1,1.6,1.1,2.6s-0.4,1.9-1.1,2.6s-1.6,1.1-2.6,1.1
	s-1.9-0.4-2.6-1.1s-1.1-1.6-1.1-2.6s0.4-1.9,1.1-2.6S278.5,94.1,279.5,94.1z M292.9,94.1c1,0,1.9,0.4,2.6,1.1s1.1,1.6,1.1,2.6
	s-0.4,1.9-1.1,2.6s-1.6,1.1-2.6,1.1s-1.9-0.4-2.6-1.1s-1.1-1.6-1.1-2.6s0.4-1.9,1.1-2.6S291.9,94.1,292.9,94.1z M306.3,94.1
	c1,0,1.9,0.4,2.6,1.1s1.1,1.6,1.1,2.6s-0.4,1.9-1.1,2.6s-1.6,1.1-2.6,1.1s-1.9-0.4-2.6-1.1s-1.1-1.6-1.1-2.6s0.4-1.9,1.1-2.6
	S305.3,94.1,306.3,94.1z M319.7,94.1c1,0,1.9,0.4,2.6,1.1s1.1,1.6,1.1,2.6s-0.4,1.9-1.1,2.6s-1.6,1.1-2.6,1.1s-1.9-0.4-2.6-1.1
	s-1.1-1.6-1.1-2.6s0.4-1.9,1.1-2.6C317.8,94.5,318.7,94.1,319.7,94.1z M38.3,85.8c1,0,1.8,0.4,2.5,1s1,1.5,1,2.5s-0.4,1.8-1,2.5
	c-0.6,0.6-1.5,1-2.5,1s-1.8-0.4-2.5-1c-0.6-0.6-1-1.5-1-2.5s0.4-1.8,1-2.5C36.4,86.2,37.3,85.8,38.3,85.8z M51.7,85.8
	c1,0,1.8,0.4,2.5,1c0.6,0.6,1,1.5,1,2.5s-0.4,1.8-1,2.5c-0.6,0.6-1.5,1-2.5,1s-1.8-0.4-2.5-1c-0.6-0.6-1-1.5-1-2.5s0.4-1.8,1-2.5
	C49.8,86.2,50.7,85.8,51.7,85.8z M78.5,85.8c1,0,1.8,0.4,2.5,1c0.6,0.6,1,1.5,1,2.5s-0.4,1.8-1,2.5c-0.6,0.6-1.5,1-2.5,1
	s-1.8-0.4-2.5-1c-0.6-0.6-1-1.5-1-2.5s0.4-1.8,1-2.5C76.6,86.2,77.5,85.8,78.5,85.8z M91.9,85.8c1,0,1.8,0.4,2.5,1
	c0.6,0.6,1,1.5,1,2.5s-0.4,1.8-1,2.5c-0.6,0.6-1.5,1-2.5,1s-1.8-0.4-2.5-1c-0.6-0.6-1-1.5-1-2.5s0.4-1.8,1-2.5
	C90,86.2,90.9,85.8,91.9,85.8z M105.3,85.8c1,0,1.8,0.4,2.5,1c0.6,0.6,1,1.5,1,2.5s-0.4,1.8-1,2.5c-0.6,0.6-1.5,1-2.5,1
	s-1.8-0.4-2.5-1c-0.6-0.6-1-1.5-1-2.5s0.4-1.8,1-2.5C103.4,86.2,104.3,85.8,105.3,85.8z M118.7,85.8c1,0,1.8,0.4,2.5,1
	c0.6,0.6,1,1.5,1,2.5s-0.4,1.8-1,2.5c-0.6,0.6-1.5,1-2.5,1s-1.8-0.4-2.5-1c-0.6-0.6-1-1.5-1-2.5s0.4-1.8,1-2.5
	C116.8,86.2,117.7,85.8,118.7,85.8z M132.1,85.8c1,0,1.8,0.4,2.5,1s1,1.5,1,2.5s-0.4,1.8-1,2.5c-0.6,0.6-1.5,1-2.5,1s-1.8-0.4-2.5-1
	c-0.6-0.6-1-1.5-1-2.5s0.4-1.8,1-2.5C130.3,86.2,131.1,85.8,132.1,85.8z M145.5,85.8c1,0,1.8,0.4,2.5,1c0.6,0.6,1,1.5,1,2.5
	s-0.4,1.8-1,2.5c-0.6,0.6-1.5,1-2.5,1s-1.8-0.4-2.5-1c-0.6-0.6-1-1.5-1-2.5s0.4-1.8,1-2.5C143.7,86.2,144.5,85.8,145.5,85.8z
	 M158.9,85.8c1,0,1.8,0.4,2.5,1s1,1.5,1,2.5s-0.4,1.8-1,2.5c-0.6,0.6-1.5,1-2.5,1s-1.8-0.4-2.5-1c-0.6-0.6-1-1.5-1-2.5
	s0.4-1.8,1-2.5S157.9,85.8,158.9,85.8z M172.3,85.8c1,0,1.8,0.4,2.5,1c0.6,0.6,1,1.5,1,2.5s-0.4,1.8-1,2.5c-0.6,0.6-1.5,1-2.5,1
	s-1.8-0.4-2.5-1c-0.6-0.6-1-1.5-1-2.5s0.4-1.8,1-2.5C170.5,86.2,171.3,85.8,172.3,85.8z M185.7,85.8c1,0,1.8,0.4,2.5,1
	c0.6,0.6,1,1.5,1,2.5s-0.4,1.8-1,2.5c-0.6,0.6-1.5,1-2.5,1s-1.8-0.4-2.5-1c-0.6-0.6-1-1.5-1-2.5s0.4-1.8,1-2.5
	S184.7,85.8,185.7,85.8z M199.1,85.8c1,0,1.8,0.4,2.5,1c0.6,0.6,1,1.5,1,2.5s-0.4,1.8-1,2.5c-0.6,0.6-1.5,1-2.5,1s-1.8-0.4-2.5-1
	c-0.6-0.6-1-1.5-1-2.5s0.4-1.8,1-2.5C197.3,86.2,198.1,85.8,199.1,85.8z M212.5,85.8c1,0,1.8,0.4,2.5,1s1,1.5,1,2.5s-0.4,1.8-1,2.5
	c-0.6,0.6-1.5,1-2.5,1s-1.8-0.4-2.5-1c-0.6-0.6-1-1.5-1-2.5s0.4-1.8,1-2.5C210.7,86.2,211.6,85.8,212.5,85.8z M225.9,85.8
	c1,0,1.8,0.4,2.5,1c0.6,0.6,1,1.5,1,2.5s-0.4,1.8-1,2.5c-0.6,0.6-1.5,1-2.5,1s-1.8-0.4-2.5-1c-0.6-0.6-1-1.5-1-2.5s0.4-1.8,1-2.5
	C224.1,86.2,225,85.8,225.9,85.8z M239.3,85.8c1,0,1.8,0.4,2.5,1s1,1.5,1,2.5s-0.4,1.8-1,2.5c-0.6,0.6-1.5,1-2.5,1s-1.8-0.4-2.5-1
	c-0.6-0.6-1-1.5-1-2.5s0.4-1.8,1-2.5S238.4,85.8,239.3,85.8z M252.7,85.8c1,0,1.8,0.4,2.5,1c0.6,0.6,1,1.5,1,2.5s-0.4,1.8-1,2.5
	c-0.6,0.6-1.5,1-2.5,1s-1.8-0.4-2.5-1c-0.6-0.6-1-1.5-1-2.5s0.4-1.8,1-2.5C250.9,86.2,251.8,85.8,252.7,85.8z M266.1,85.8
	c1,0,1.8,0.4,2.5,1c0.6,0.6,1,1.5,1,2.5s-0.4,1.8-1,2.5c-0.6,0.6-1.5,1-2.5,1s-1.8-0.4-2.5-1c-0.6-0.6-1-1.5-1-2.5s0.4-1.8,1-2.5
	C264.3,86.2,265.2,85.8,266.1,85.8z M279.5,85.8c1,0,1.8,0.4,2.5,1c0.6,0.6,1,1.5,1,2.5s-0.4,1.8-1,2.5c-0.6,0.6-1.5,1-2.5,1
	s-1.8-0.4-2.5-1c-0.6-0.6-1-1.5-1-2.5s0.4-1.8,1-2.5C277.7,86.2,278.6,85.8,279.5,85.8z M292.9,85.8c1,0,1.8,0.4,2.5,1
	c0.6,0.6,1,1.5,1,2.5s-0.4,1.8-1,2.5c-0.6,0.6-1.5,1-2.5,1s-1.8-0.4-2.5-1c-0.6-0.6-1-1.5-1-2.5s0.4-1.8,1-2.5
	C291.1,86.2,292,85.8,292.9,85.8z M51.7,77.6c0.9,0,1.7,0.4,2.3,1s1,1.4,1,2.3s-0.4,1.7-1,2.3c-0.6,0.6-1.4,1-2.3,1
	c-0.9,0-1.7-0.4-2.3-1s-1-1.4-1-2.3s0.4-1.7,1-2.3C49.9,78,50.8,77.6,51.7,77.6z M78.5,77.6c0.9,0,1.7,0.4,2.3,1
	c0.6,0.6,1,1.4,1,2.3s-0.4,1.7-1,2.3c-0.6,0.6-1.4,1-2.3,1s-1.7-0.4-2.3-1c-0.6-0.6-1-1.4-1-2.3s0.4-1.7,1-2.3
	C76.7,78,77.6,77.6,78.5,77.6z M91.9,77.6c0.9,0,1.7,0.4,2.3,1c0.6,0.6,1,1.4,1,2.3s-0.4,1.7-1,2.3c-0.6,0.6-1.4,1-2.3,1
	s-1.7-0.4-2.3-1c-0.6-0.6-1-1.4-1-2.3s0.4-1.7,1-2.3C90.1,78,91,77.6,91.9,77.6z M105.3,77.6c0.9,0,1.7,0.4,2.3,1
	c0.6,0.6,1,1.4,1,2.3s-0.4,1.7-1,2.3c-0.6,0.6-1.4,1-2.3,1s-1.7-0.4-2.3-1c-0.6-0.6-1-1.4-1-2.3s0.4-1.7,1-2.3
	C103.5,78,104.4,77.6,105.3,77.6z M118.7,77.6c0.9,0,1.7,0.4,2.3,1c0.6,0.6,1,1.4,1,2.3s-0.4,1.7-1,2.3c-0.6,0.6-1.4,1-2.3,1
	s-1.7-0.4-2.3-1c-0.6-0.6-1-1.4-1-2.3s0.4-1.7,1-2.3C116.9,78,117.8,77.6,118.7,77.6z M132.1,77.6c0.9,0,1.7,0.4,2.3,1s1,1.4,1,2.3
	s-0.4,1.7-1,2.3c-0.6,0.6-1.4,1-2.3,1c-0.9,0-1.7-0.4-2.3-1s-1-1.4-1-2.3s0.4-1.7,1-2.3C130.3,78,131.2,77.6,132.1,77.6z
	 M145.5,77.6c0.9,0,1.7,0.4,2.3,1s1,1.4,1,2.3s-0.4,1.7-1,2.3c-0.6,0.6-1.4,1-2.3,1c-0.9,0-1.7-0.4-2.3-1s-1-1.4-1-2.3
	s0.4-1.7,1-2.3C143.8,78,144.6,77.6,145.5,77.6z M158.9,77.6c0.9,0,1.7,0.4,2.3,1s1,1.4,1,2.3s-0.4,1.7-1,2.3c-0.6,0.6-1.4,1-2.3,1
	c-0.9,0-1.7-0.4-2.3-1s-1-1.4-1-2.3s0.4-1.7,1-2.3C157.2,78,158,77.6,158.9,77.6z M172.3,77.6c0.9,0,1.7,0.4,2.3,1s1,1.4,1,2.3
	s-0.4,1.7-1,2.3c-0.6,0.6-1.4,1-2.3,1c-0.9,0-1.7-0.4-2.3-1s-1-1.4-1-2.3s0.4-1.7,1-2.3C170.6,78,171.4,77.6,172.3,77.6z
	 M185.7,77.6c0.9,0,1.7,0.4,2.3,1s1,1.4,1,2.3s-0.4,1.7-1,2.3c-0.6,0.6-1.4,1-2.3,1c-0.9,0-1.7-0.4-2.3-1s-1-1.4-1-2.3
	s0.4-1.7,1-2.3C184,78,184.8,77.6,185.7,77.6z M199.1,77.6c0.9,0,1.7,0.4,2.3,1s1,1.4,1,2.3s-0.4,1.7-1,2.3c-0.6,0.6-1.4,1-2.3,1
	c-0.9,0-1.7-0.4-2.3-1s-1-1.4-1-2.3s0.4-1.7,1-2.3C197.4,78,198.2,77.6,199.1,77.6z M212.5,77.6c0.9,0,1.7,0.4,2.3,1s1,1.4,1,2.3
	s-0.4,1.7-1,2.3c-0.6,0.6-1.4,1-2.3,1c-0.9,0-1.7-0.4-2.3-1s-1-1.4-1-2.3s0.4-1.7,1-2.3C210.8,78,211.6,77.6,212.5,77.6z
	 M225.9,77.6c0.9,0,1.7,0.4,2.3,1s1,1.4,1,2.3s-0.4,1.7-1,2.3c-0.6,0.6-1.4,1-2.3,1c-0.9,0-1.7-0.4-2.3-1s-1-1.4-1-2.3
	s0.4-1.7,1-2.3C224.2,78,225,77.6,225.9,77.6z M239.3,77.6c0.9,0,1.7,0.4,2.3,1s1,1.4,1,2.3s-0.4,1.7-1,2.3c-0.6,0.6-1.4,1-2.3,1
	c-0.9,0-1.7-0.4-2.3-1s-1-1.4-1-2.3s0.4-1.7,1-2.3C237.6,78,238.4,77.6,239.3,77.6z M252.7,77.6c0.9,0,1.7,0.4,2.3,1s1,1.4,1,2.3
	s-0.4,1.7-1,2.3c-0.6,0.6-1.4,1-2.3,1c-0.9,0-1.7-0.4-2.3-1s-1-1.4-1-2.3s0.4-1.7,1-2.3C251,78,251.8,77.6,252.7,77.6z M266.1,77.6
	c0.9,0,1.7,0.4,2.3,1c0.6,0.6,1,1.4,1,2.3s-0.4,1.7-1,2.3c-0.6,0.6-1.4,1-2.3,1s-1.7-0.4-2.3-1c-0.6-0.6-1-1.4-1-2.3s0.4-1.7,1-2.3
	C264.4,78,265.2,77.6,266.1,77.6z M279.5,77.6c0.9,0,1.7,0.4,2.3,1c0.6,0.6,1,1.4,1,2.3s-0.4,1.7-1,2.3c-0.6,0.6-1.4,1-2.3,1
	s-1.7-0.4-2.3-1c-0.6-0.6-1-1.4-1-2.3s0.4-1.7,1-2.3C277.8,78,278.6,77.6,279.5,77.6z M51.7,69.3c0.9,0,1.6,0.3,2.2,0.9
	c0.6,0.6,0.9,1.4,0.9,2.2c0,0.9-0.3,1.6-0.9,2.2c-0.6,0.6-1.4,0.9-2.2,0.9c-0.9,0-1.6-0.3-2.2-0.9c-0.6-0.6-0.9-1.4-0.9-2.2
	c0-0.9,0.3-1.6,0.9-2.2C50,69.7,50.8,69.3,51.7,69.3z M78.5,69.3c0.9,0,1.6,0.3,2.2,0.9s0.9,1.4,0.9,2.2c0,0.9-0.3,1.6-0.9,2.2
	s-1.4,0.9-2.2,0.9c-0.9,0-1.6-0.3-2.2-0.9s-0.9-1.4-0.9-2.2c0-0.9,0.3-1.6,0.9-2.2C76.8,69.7,77.6,69.3,78.5,69.3z M91.9,69.3
	c0.9,0,1.6,0.3,2.2,0.9s0.9,1.4,0.9,2.2c0,0.9-0.3,1.6-0.9,2.2s-1.4,0.9-2.2,0.9c-0.9,0-1.6-0.3-2.2-0.9s-0.9-1.4-0.9-2.2
	c0-0.9,0.3-1.6,0.9-2.2C90.2,69.7,91,69.3,91.9,69.3z M105.3,69.3c0.9,0,1.6,0.3,2.2,0.9s0.9,1.4,0.9,2.2c0,0.9-0.3,1.6-0.9,2.2
	s-1.4,0.9-2.2,0.9c-0.9,0-1.6-0.3-2.2-0.9s-0.9-1.4-0.9-2.2c0-0.9,0.3-1.6,0.9-2.2C103.6,69.7,104.4,69.3,105.3,69.3z M118.7,69.3
	c0.9,0,1.6,0.3,2.2,0.9s0.9,1.4,0.9,2.2c0,0.9-0.3,1.6-0.9,2.2s-1.4,0.9-2.2,0.9c-0.9,0-1.6-0.3-2.2-0.9s-0.9-1.4-0.9-2.2
	c0-0.9,0.3-1.6,0.9-2.2C117,69.7,117.8,69.3,118.7,69.3z M132.1,69.3c0.9,0,1.6,0.3,2.2,0.9c0.6,0.6,0.9,1.4,0.9,2.2
	c0,0.9-0.3,1.6-0.9,2.2c-0.6,0.6-1.4,0.9-2.2,0.9c-0.9,0-1.6-0.3-2.2-0.9c-0.6-0.6-0.9-1.4-0.9-2.2c0-0.9,0.3-1.6,0.9-2.2
	C130.4,69.7,131.2,69.3,132.1,69.3z M145.5,69.3c0.9,0,1.6,0.3,2.2,0.9c0.6,0.6,0.9,1.4,0.9,2.2c0,0.9-0.3,1.6-0.9,2.2
	c-0.6,0.6-1.4,0.9-2.2,0.9c-0.9,0-1.6-0.3-2.2-0.9c-0.6-0.6-0.9-1.4-0.9-2.2c0-0.9,0.3-1.6,0.9-2.2
	C143.8,69.7,144.6,69.3,145.5,69.3z M158.9,69.3c0.9,0,1.6,0.3,2.2,0.9c0.6,0.6,0.9,1.4,0.9,2.2c0,0.9-0.3,1.6-0.9,2.2
	c-0.6,0.6-1.4,0.9-2.2,0.9c-0.9,0-1.6-0.3-2.2-0.9c-0.6-0.6-0.9-1.4-0.9-2.2c0-0.9,0.3-1.6,0.9-2.2C157.2,69.7,158,69.3,158.9,69.3z
	 M172.3,69.3c0.9,0,1.6,0.3,2.2,0.9c0.6,0.6,0.9,1.4,0.9,2.2c0,0.9-0.3,1.6-0.9,2.2c-0.6,0.6-1.4,0.9-2.2,0.9
	c-0.9,0-1.6-0.3-2.2-0.9c-0.6-0.6-0.9-1.4-0.9-2.2c0-0.9,0.3-1.6,0.9-2.2C170.7,69.7,171.4,69.3,172.3,69.3z M185.7,69.3
	c0.9,0,1.6,0.3,2.2,0.9c0.6,0.6,0.9,1.4,0.9,2.2c0,0.9-0.3,1.6-0.9,2.2c-0.6,0.6-1.4,0.9-2.2,0.9c-0.9,0-1.6-0.3-2.2-0.9
	c-0.6-0.6-0.9-1.4-0.9-2.2c0-0.9,0.3-1.6,0.9-2.2C184.1,69.7,184.8,69.3,185.7,69.3z M199.1,69.3c0.9,0,1.6,0.3,2.2,0.9
	c0.6,0.6,0.9,1.4,0.9,2.2c0,0.9-0.3,1.6-0.9,2.2c-0.6,0.6-1.4,0.9-2.2,0.9c-0.9,0-1.6-0.3-2.2-0.9c-0.6-0.6-0.9-1.4-0.9-2.2
	c0-0.9,0.3-1.6,0.9-2.2C197.5,69.7,198.2,69.3,199.1,69.3z M225.9,69.3c0.9,0,1.6,0.3,2.2,0.9c0.6,0.6,0.9,1.4,0.9,2.2
	c0,0.9-0.3,1.6-0.9,2.2c-0.6,0.6-1.4,0.9-2.2,0.9c-0.9,0-1.6-0.3-2.2-0.9c-0.6-0.6-0.9-1.4-0.9-2.2c0-0.9,0.3-1.6,0.9-2.2
	C224.3,69.7,225.1,69.3,225.9,69.3z M239.3,69.3c0.9,0,1.6,0.3,2.2,0.9c0.6,0.6,0.9,1.4,0.9,2.2c0,0.9-0.3,1.6-0.9,2.2
	c-0.6,0.6-1.4,0.9-2.2,0.9c-0.9,0-1.6-0.3-2.2-0.9c-0.6-0.6-0.9-1.4-0.9-2.2c0-0.9,0.3-1.6,0.9-2.2
	C237.7,69.7,238.5,69.3,239.3,69.3z M266.1,69.3c0.9,0,1.6,0.3,2.2,0.9s0.9,1.4,0.9,2.2c0,0.9-0.3,1.6-0.9,2.2s-1.4,0.9-2.2,0.9
	c-0.9,0-1.6-0.3-2.2-0.9s-0.9-1.4-0.9-2.2c0-0.9,0.3-1.6,0.9-2.2C264.5,69.7,265.3,69.3,266.1,69.3z M279.5,69.3
	c0.9,0,1.6,0.3,2.2,0.9s0.9,1.4,0.9,2.2c0,0.9-0.3,1.6-0.9,2.2s-1.4,0.9-2.2,0.9c-0.9,0-1.6-0.3-2.2-0.9s-0.9-1.4-0.9-2.2
	c0-0.9,0.3-1.6,0.9-2.2C277.9,69.7,278.7,69.3,279.5,69.3z M78.5,61.1c0.8,0,1.6,0.3,2.1,0.9c0.5,0.5,0.9,1.3,0.9,2.1
	c0,0.8-0.3,1.6-0.9,2.1S79.3,67,78.5,67s-1.6-0.3-2.1-0.9c-0.5-0.5-0.9-1.3-0.9-2.1c0-0.8,0.3-1.6,0.9-2.1
	C76.9,61.4,77.7,61.1,78.5,61.1z M105.3,61.1c0.8,0,1.6,0.3,2.1,0.9c0.5,0.5,0.9,1.3,0.9,2.1c0,0.8-0.3,1.6-0.9,2.1
	c-0.5,0.5-1.3,0.9-2.1,0.9c-0.8,0-1.6-0.3-2.1-0.9c-0.5-0.5-0.9-1.3-0.9-2.1c0-0.8,0.3-1.6,0.9-2.1
	C103.7,61.4,104.5,61.1,105.3,61.1z M118.7,61.1c0.8,0,1.6,0.3,2.1,0.9c0.5,0.5,0.9,1.3,0.9,2.1c0,0.8-0.3,1.6-0.9,2.1
	c-0.5,0.5-1.3,0.9-2.1,0.9c-0.8,0-1.6-0.3-2.1-0.9c-0.5-0.5-0.9-1.3-0.9-2.1c0-0.8,0.3-1.6,0.9-2.1
	C117.1,61.4,117.9,61.1,118.7,61.1z M132.1,61.1c0.8,0,1.6,0.3,2.1,0.9c0.5,0.5,0.9,1.3,0.9,2.1c0,0.8-0.3,1.6-0.9,2.1
	c-0.5,0.5-1.3,0.9-2.1,0.9s-1.6-0.3-2.1-0.9c-0.5-0.5-0.9-1.3-0.9-2.1c0-0.8,0.3-1.6,0.9-2.1C130.5,61.4,131.3,61.1,132.1,61.1z
	 M145.5,61.1c0.8,0,1.6,0.3,2.1,0.9c0.5,0.5,0.9,1.3,0.9,2.1c0,0.8-0.3,1.6-0.9,2.1c-0.5,0.5-1.3,0.9-2.1,0.9s-1.6-0.3-2.1-0.9
	c-0.5-0.5-0.9-1.3-0.9-2.1c0-0.8,0.3-1.6,0.9-2.1C143.9,61.4,144.7,61.1,145.5,61.1z M158.9,61.1c0.8,0,1.6,0.3,2.1,0.9
	c0.5,0.5,0.9,1.3,0.9,2.1c0,0.8-0.3,1.6-0.9,2.1c-0.5,0.5-1.3,0.9-2.1,0.9s-1.6-0.3-2.1-0.9c-0.5-0.5-0.9-1.3-0.9-2.1
	c0-0.8,0.3-1.6,0.9-2.1C157.3,61.4,158.1,61.1,158.9,61.1z M185.7,61.1c0.8,0,1.6,0.3,2.1,0.9c0.5,0.5,0.9,1.3,0.9,2.1
	c0,0.8-0.3,1.6-0.9,2.1c-0.5,0.5-1.3,0.9-2.1,0.9s-1.6-0.3-2.1-0.9c-0.5-0.5-0.9-1.3-0.9-2.1c0-0.8,0.3-1.6,0.9-2.1
	C184.2,61.4,184.9,61.1,185.7,61.1z M225.9,61.1c0.8,0,1.6,0.3,2.1,0.9c0.5,0.5,0.9,1.3,0.9,2.1c0,0.8-0.3,1.6-0.9,2.1
	c-0.5,0.5-1.3,0.9-2.1,0.9s-1.6-0.3-2.1-0.9c-0.5-0.5-0.9-1.3-0.9-2.1c0-0.8,0.3-1.6,0.9-2.1C224.4,61.4,225.1,61.1,225.9,61.1z
	 M239.3,61.1c0.8,0,1.6,0.3,2.1,0.9c0.5,0.5,0.9,1.3,0.9,2.1c0,0.8-0.3,1.6-0.9,2.1c-0.5,0.5-1.3,0.9-2.1,0.9s-1.6-0.3-2.1-0.9
	c-0.5-0.5-0.9-1.3-0.9-2.1c0-0.8,0.3-1.6,0.9-2.1C237.8,61.4,238.5,61.1,239.3,61.1z M266.1,61.1c0.8,0,1.6,0.3,2.1,0.9
	c0.5,0.5,0.9,1.3,0.9,2.1c0,0.8-0.3,1.6-0.9,2.1c-0.5,0.5-1.3,0.9-2.1,0.9c-0.8,0-1.6-0.3-2.1-0.9c-0.5-0.5-0.9-1.3-0.9-2.1
	c0-0.8,0.3-1.6,0.9-2.1C264.6,61.4,265.3,61.1,266.1,61.1z M105.3,52.9c0.8,0,1.5,0.3,2,0.8s0.8,1.2,0.8,2s-0.3,1.5-0.8,2
	s-1.2,0.8-2,0.8s-1.5-0.3-2-0.8s-0.8-1.2-0.8-2s0.3-1.5,0.8-2S104.5,52.9,105.3,52.9z M118.7,52.9c0.8,0,1.5,0.3,2,0.8
	s0.8,1.2,0.8,2s-0.3,1.5-0.8,2s-1.2,0.8-2,0.8s-1.5-0.3-2-0.8s-0.8-1.2-0.8-2s0.3-1.5,0.8-2S117.9,52.9,118.7,52.9z M132.1,52.9
	c0.8,0,1.5,0.3,2,0.8s0.8,1.2,0.8,2s-0.3,1.5-0.8,2s-1.2,0.8-2,0.8s-1.5-0.3-2-0.8s-0.8-1.2-0.8-2s0.3-1.5,0.8-2
	S131.3,52.9,132.1,52.9z M145.5,52.9c0.8,0,1.5,0.3,2,0.8s0.8,1.2,0.8,2s-0.3,1.5-0.8,2s-1.2,0.8-2,0.8s-1.5-0.3-2-0.8
	s-0.8-1.2-0.8-2s0.3-1.5,0.8-2S144.7,52.9,145.5,52.9z M158.9,52.9c0.8,0,1.5,0.3,2,0.8s0.8,1.2,0.8,2s-0.3,1.5-0.8,2
	s-1.2,0.8-2,0.8s-1.5-0.3-2-0.8s-0.8-1.2-0.8-2s0.3-1.5,0.8-2S158.1,52.9,158.9,52.9z M239.3,52.9c0.8,0,1.5,0.3,2,0.8
	s0.8,1.2,0.8,2s-0.3,1.5-0.8,2s-1.2,0.8-2,0.8s-1.5-0.3-2-0.8s-0.8-1.2-0.8-2s0.3-1.5,0.8-2C237.9,53.2,238.6,52.9,239.3,52.9z
	 M266.1,52.9c0.8,0,1.5,0.3,2,0.8s0.8,1.2,0.8,2s-0.3,1.5-0.8,2s-1.2,0.8-2,0.8s-1.5-0.3-2-0.8s-0.8-1.2-0.8-2s0.3-1.5,0.8-2
	C264.7,53.2,265.4,52.9,266.1,52.9z M105.3,44.6c0.7,0,1.4,0.3,1.8,0.8c0.5,0.5,0.8,1.1,0.8,1.8s-0.3,1.4-0.8,1.8
	c-0.5,0.5-1.1,0.8-1.8,0.8c-0.7,0-1.4-0.3-1.8-0.8c-0.5-0.5-0.8-1.1-0.8-1.8s0.3-1.4,0.8-1.8C103.9,44.9,104.6,44.6,105.3,44.6z
	 M118.7,44.6c0.7,0,1.4,0.3,1.8,0.8c0.5,0.5,0.8,1.1,0.8,1.8s-0.3,1.4-0.8,1.8c-0.5,0.5-1.1,0.8-1.8,0.8c-0.7,0-1.4-0.3-1.8-0.8
	c-0.5-0.5-0.8-1.1-0.8-1.8s0.3-1.4,0.8-1.8C117.3,44.9,118,44.6,118.7,44.6z M132.1,44.6c0.7,0,1.4,0.3,1.8,0.8
	c0.5,0.5,0.8,1.1,0.8,1.8s-0.3,1.4-0.8,1.8c-0.5,0.5-1.1,0.8-1.8,0.8s-1.4-0.3-1.8-0.8c-0.5-0.5-0.8-1.1-0.8-1.8s0.3-1.4,0.8-1.8
	C130.7,44.9,131.4,44.6,132.1,44.6z M145.5,44.6c0.7,0,1.4,0.3,1.8,0.8c0.5,0.5,0.8,1.1,0.8,1.8s-0.3,1.4-0.8,1.8
	c-0.5,0.5-1.1,0.8-1.8,0.8s-1.4-0.3-1.8-0.8c-0.5-0.5-0.8-1.1-0.8-1.8s0.3-1.4,0.8-1.8C144.1,44.9,144.8,44.6,145.5,44.6z
	 M239.3,44.6c0.7,0,1.4,0.3,1.8,0.8c0.5,0.5,0.8,1.1,0.8,1.8s-0.3,1.4-0.8,1.8c-0.5,0.5-1.1,0.8-1.8,0.8s-1.4-0.3-1.8-0.8
	c-0.5-0.5-0.8-1.1-0.8-1.8s0.3-1.4,0.8-1.8C238,44.9,238.6,44.6,239.3,44.6z M266.1,44.6c0.7,0,1.4,0.3,1.8,0.8
	c0.5,0.5,0.8,1.1,0.8,1.8s-0.3,1.4-0.8,1.8c-0.5,0.5-1.1,0.8-1.8,0.8c-0.7,0-1.4-0.3-1.8-0.8c-0.5-0.5-0.8-1.1-0.8-1.8
	s0.3-1.4,0.8-1.8C264.8,44.9,265.4,44.6,266.1,44.6z M105.3,36.4c0.7,0,1.3,0.3,1.7,0.7c0.4,0.4,0.7,1.1,0.7,1.7
	c0,0.7-0.3,1.3-0.7,1.7c-0.4,0.4-1.1,0.7-1.7,0.7c-0.7,0-1.3-0.3-1.7-0.7c-0.4-0.4-0.7-1.1-0.7-1.7c0-0.7,0.3-1.3,0.7-1.7
	C104,36.6,104.6,36.4,105.3,36.4z M132.1,36.4c0.7,0,1.3,0.3,1.7,0.7s0.7,1.1,0.7,1.7c0,0.7-0.3,1.3-0.7,1.7s-1.1,0.7-1.7,0.7
	c-0.7,0-1.3-0.3-1.7-0.7s-0.7-1.1-0.7-1.7c0-0.7,0.3-1.3,0.7-1.7C130.8,36.6,131.4,36.4,132.1,36.4z M145.5,36.4
	c0.7,0,1.3,0.3,1.7,0.7s0.7,1.1,0.7,1.7c0,0.7-0.3,1.3-0.7,1.7s-1.1,0.7-1.7,0.7c-0.7,0-1.3-0.3-1.7-0.7s-0.7-1.1-0.7-1.7
	c0-0.7,0.3-1.3,0.7-1.7C144.2,36.6,144.8,36.4,145.5,36.4z M239.3,36.4c0.7,0,1.3,0.3,1.7,0.7s0.7,1.1,0.7,1.7
	c0,0.7-0.3,1.3-0.7,1.7s-1.1,0.7-1.7,0.7c-0.7,0-1.3-0.3-1.7-0.7s-0.7-1.1-0.7-1.7c0-0.7,0.3-1.3,0.7-1.7
	C238.1,36.6,238.7,36.4,239.3,36.4z M132.1,28.1c0.6,0,1.2,0.2,1.6,0.7c0.4,0.4,0.7,1,0.7,1.6s-0.2,1.2-0.7,1.6
	c-0.4,0.4-1,0.7-1.6,0.7s-1.2-0.2-1.6-0.7c-0.4-0.4-0.7-1-0.7-1.6s0.2-1.2,0.7-1.6C130.9,28.4,131.5,28.1,132.1,28.1z M145.5,28.1
	c0.6,0,1.2,0.2,1.6,0.7c0.4,0.4,0.7,1,0.7,1.6s-0.2,1.2-0.7,1.6c-0.4,0.4-1,0.7-1.6,0.7s-1.2-0.2-1.6-0.7c-0.4-0.4-0.7-1-0.7-1.6
	s0.2-1.2,0.7-1.6C144.3,28.4,144.9,28.1,145.5,28.1z M239.3,28.1c0.6,0,1.2,0.2,1.6,0.7c0.4,0.4,0.7,1,0.7,1.6s-0.2,1.2-0.7,1.6
	c-0.4,0.4-1,0.7-1.6,0.7s-1.2-0.2-1.6-0.7c-0.4-0.4-0.7-1-0.7-1.6s0.2-1.2,0.7-1.6C238.1,28.4,238.7,28.1,239.3,28.1z M132.1,19.9
	c0.6,0,1.1,0.2,1.5,0.6s0.6,0.9,0.6,1.5s-0.2,1.1-0.6,1.5c-0.4,0.4-0.9,0.6-1.5,0.6s-1.1-0.2-1.5-0.6S130,22.6,130,22
	s0.2-1.1,0.6-1.5C131,20.1,131.5,19.9,132.1,19.9z M145.5,19.9c0.6,0,1.1,0.2,1.5,0.6s0.6,0.9,0.6,1.5s-0.2,1.1-0.6,1.5
	c-0.4,0.4-0.9,0.6-1.5,0.6s-1.1-0.2-1.5-0.6s-0.6-0.9-0.6-1.5s0.2-1.1,0.6-1.5C144.4,20.1,144.9,19.9,145.5,19.9z M145.5,11.6
	c0.5,0,1,0.2,1.3,0.6c0.4,0.4,0.6,0.8,0.6,1.3s-0.2,1-0.6,1.3c-0.4,0.4-0.8,0.6-1.3,0.6s-1-0.2-1.3-0.6c-0.4-0.4-0.6-0.8-0.6-1.3
	s0.2-1,0.6-1.3C144.5,11.8,145,11.6,145.5,11.6z M145.5,3.4c0.5,0,0.9,0.2,1.2,0.5s0.5,0.8,0.5,1.2c0,0.5-0.2,0.9-0.5,1.2
	c-0.3,0.3-0.8,0.5-1.2,0.5c-0.5,0-0.9-0.2-1.2-0.5s-0.5-0.8-0.5-1.2c0-0.5,0.2-0.9,0.5-1.2C144.6,3.6,145,3.4,145.5,3.4z M11.4,110
	c-2.1,0-3.8-1.7-3.8-3.8c0-1.1,0.4-2,1.1-2.7s1.7-1.1,2.7-1.1c1.1,0,2,0.4,2.7,1.1s1.1,1.7,1.1,2.7C15.3,108.3,13.6,110,11.4,110z
	 M24.9,110c-2.1,0-3.8-1.7-3.8-3.8c0-1.1,0.4-2,1.1-2.7s1.7-1.1,2.7-1.1c1.1,0,2,0.4,2.7,1.1s1.1,1.7,1.1,2.7
	C28.7,108.3,27,110,24.9,110z M38.3,110c-2.1,0-3.8-1.7-3.8-3.8c0-1.1,0.4-2,1.1-2.7c0.7-0.7,1.7-1.1,2.7-1.1c1.1,0,2,0.4,2.7,1.1
	s1.1,1.7,1.1,2.7C42.1,108.3,40.4,110,38.3,110z M51.7,110c-2.1,0-3.8-1.7-3.8-3.8c0-1.1,0.4-2,1.1-2.7c0.7-0.7,1.7-1.1,2.7-1.1
	c1.1,0,2,0.4,2.7,1.1s1.1,1.7,1.1,2.7C55.5,108.3,53.8,110,51.7,110z M65.1,110c-2.1,0-3.8-1.7-3.8-3.8c0-1.1,0.4-2,1.1-2.7
	c0.7-0.7,1.7-1.1,2.7-1.1c1.1,0,2,0.4,2.7,1.1s1.1,1.7,1.1,2.7C68.9,108.3,67.2,110,65.1,110z M78.5,110c-2.1,0-3.8-1.7-3.8-3.8
	c0-1.1,0.4-2,1.1-2.7s1.7-1.1,2.7-1.1c1.1,0,2,0.4,2.7,1.1s1.1,1.7,1.1,2.7C82.3,108.3,80.6,110,78.5,110z M91.9,110
	c-2.1,0-3.8-1.7-3.8-3.8c0-1.1,0.4-2,1.1-2.7s1.7-1.1,2.7-1.1c1.1,0,2,0.4,2.7,1.1s1.1,1.7,1.1,2.7C95.7,108.3,94,110,91.9,110z
	 M105.3,110c-2.1,0-3.8-1.7-3.8-3.8c0-1.1,0.4-2,1.1-2.7s1.7-1.1,2.7-1.1c1.1,0,2,0.4,2.7,1.1s1.1,1.7,1.1,2.7
	C109.1,108.3,107.4,110,105.3,110z M118.7,110c-2.1,0-3.8-1.7-3.8-3.8c0-1.1,0.4-2,1.1-2.7s1.7-1.1,2.7-1.1c1.1,0,2,0.4,2.7,1.1
	s1.1,1.7,1.1,2.7C122.5,108.3,120.8,110,118.7,110z M132.1,110c-2.1,0-3.8-1.7-3.8-3.8c0-1.1,0.4-2,1.1-2.7c0.7-0.7,1.7-1.1,2.7-1.1
	c1.1,0,2,0.4,2.7,1.1s1.1,1.7,1.1,2.7C135.9,108.3,134.2,110,132.1,110z M145.5,110c-2.1,0-3.8-1.7-3.8-3.8c0-1.1,0.4-2,1.1-2.7
	c0.7-0.7,1.7-1.1,2.7-1.1c1.1,0,2,0.4,2.7,1.1s1.1,1.7,1.1,2.7C149.3,108.3,147.6,110,145.5,110z M158.9,110c-2.1,0-3.8-1.7-3.8-3.8
	c0-1.1,0.4-2,1.1-2.7c0.7-0.7,1.7-1.1,2.7-1.1c1.1,0,2,0.4,2.7,1.1s1.1,1.7,1.1,2.7C162.7,108.3,161,110,158.9,110z M172.3,110
	c-2.1,0-3.8-1.7-3.8-3.8c0-1.1,0.4-2,1.1-2.7c0.7-0.7,1.7-1.1,2.7-1.1c1.1,0,2,0.4,2.7,1.1s1.1,1.7,1.1,2.7
	C176.1,108.3,174.4,110,172.3,110z M185.7,110c-2.1,0-3.8-1.7-3.8-3.8c0-1.1,0.4-2,1.1-2.7c0.7-0.7,1.7-1.1,2.7-1.1
	c1.1,0,2,0.4,2.7,1.1s1.1,1.7,1.1,2.7C189.5,108.3,187.8,110,185.7,110z M199.1,110c-2.1,0-3.8-1.7-3.8-3.8c0-1.1,0.4-2,1.1-2.7
	c0.7-0.7,1.7-1.1,2.7-1.1c1.1,0,2,0.4,2.7,1.1s1.1,1.7,1.1,2.7C202.9,108.3,201.2,110,199.1,110z M212.5,110c-2.1,0-3.8-1.7-3.8-3.8
	c0-1.1,0.4-2,1.1-2.7c0.7-0.7,1.7-1.1,2.7-1.1c1.1,0,2,0.4,2.7,1.1s1.1,1.7,1.1,2.7C216.4,108.3,214.6,110,212.5,110z M225.9,110
	c-2.1,0-3.8-1.7-3.8-3.8c0-1.1,0.4-2,1.1-2.7c0.7-0.7,1.7-1.1,2.7-1.1c1.1,0,2,0.4,2.7,1.1s1.1,1.7,1.1,2.7
	C229.8,108.3,228,110,225.9,110z M239.3,110c-2.1,0-3.8-1.7-3.8-3.8c0-1.1,0.4-2,1.1-2.7c0.7-0.7,1.7-1.1,2.7-1.1
	c1.1,0,2,0.4,2.7,1.1s1.1,1.7,1.1,2.7C243.2,108.3,241.4,110,239.3,110z M252.7,110c-2.1,0-3.8-1.7-3.8-3.8c0-1.1,0.4-2,1.1-2.7
	c0.7-0.7,1.7-1.1,2.7-1.1c1.1,0,2,0.4,2.7,1.1c0.7,0.7,1.1,1.7,1.1,2.7C256.6,108.3,254.8,110,252.7,110z M266.1,110
	c-2.1,0-3.8-1.7-3.8-3.8c0-1.1,0.4-2,1.1-2.7s1.7-1.1,2.7-1.1c1.1,0,2,0.4,2.7,1.1s1.1,1.7,1.1,2.7C270,108.3,268.2,110,266.1,110z
	 M279.5,110c-2.1,0-3.8-1.7-3.8-3.8c0-1.1,0.4-2,1.1-2.7s1.7-1.1,2.7-1.1c1.1,0,2,0.4,2.7,1.1s1.1,1.7,1.1,2.7
	C283.4,108.3,281.7,110,279.5,110z M292.9,110c-2.1,0-3.8-1.7-3.8-3.8c0-1.1,0.4-2,1.1-2.7s1.7-1.1,2.7-1.1c1.1,0,2,0.4,2.7,1.1
	s1.1,1.7,1.1,2.7C296.8,108.3,295.1,110,292.9,110z M306.3,110c-2.1,0-3.8-1.7-3.8-3.8c0-1.1,0.4-2,1.1-2.7s1.7-1.1,2.7-1.1
	c1.1,0,2,0.4,2.7,1.1s1.1,1.7,1.1,2.7C310.2,108.3,308.5,110,306.3,110z M319.7,110c-2.1,0-3.8-1.7-3.8-3.8c0-1.1,0.4-2,1.1-2.7
	s1.7-1.1,2.7-1.1c1.1,0,2,0.4,2.7,1.1s1.1,1.7,1.1,2.7C323.6,108.3,321.9,110,319.7,110z M333.2,110c-2.1,0-3.8-1.7-3.8-3.8
	c0-1.1,0.4-2,1.1-2.7s1.7-1.1,2.7-1.1c1.1,0,2,0.4,2.7,1.1s1.1,1.7,1.1,2.7C337,108.3,335.3,110,333.2,110z M347.3,106.2
	c0,1.1-0.4,2-1.1,2.7s-1.7,1.1-2.7,1.1c-1.1,0-2-0.4-2.7-1.1s-1.1-1.7-1.1-2.7c0-2.1,1.7-3.8,3.8-3.8S347.3,104,347.3,106.2z
	 M360.7,106.2c0,1.1-0.4,2-1.1,2.7s-1.7,1.1-2.7,1.1c-1.1,0-2-0.4-2.7-1.1s-1.1-1.7-1.1-2.7c0-2.1,1.7-3.8,3.8-3.8
	S360.7,104,360.7,106.2z M374.1,106.2c0,1.1-0.4,2-1.1,2.7s-1.7,1.1-2.7,1.1c-1.1,0-2-0.4-2.7-1.1s-1.1-1.7-1.1-2.7
	c0-2.1,1.7-3.8,3.8-3.8C372.4,102.3,374.1,104,374.1,106.2z M387.5,106.2c0,1.1-0.4,2-1.1,2.7s-1.7,1.1-2.7,1.1
	c-1.1,0-2-0.4-2.7-1.1s-1.1-1.7-1.1-2.7c0-2.1,1.7-3.8,3.8-3.8S387.5,104,387.5,106.2z M400.9,106.2c0,1.1-0.4,2-1.1,2.7
	s-1.7,1.1-2.7,1.1c-1.1,0-2-0.4-2.7-1.1s-1.1-1.7-1.1-2.7c0-2.1,1.7-3.8,3.8-3.8C399.2,102.3,400.9,104,400.9,106.2z M414.3,106.2
	c0,1.1-0.4,2-1.1,2.7s-1.7,1.1-2.7,1.1c-1.1,0-2-0.4-2.7-1.1s-1.1-1.7-1.1-2.7c0-2.1,1.7-3.8,3.8-3.8
	C412.6,102.3,414.3,104,414.3,106.2z M427.7,106.2c0,1.1-0.4,2-1.1,2.7s-1.7,1.1-2.7,1.1c-1.1,0-2-0.4-2.7-1.1s-1.1-1.7-1.1-2.7
	c0-2.1,1.7-3.8,3.8-3.8C426,102.3,427.7,104,427.7,106.2z M441.1,106.2c0,1.1-0.4,2-1.1,2.7s-1.7,1.1-2.7,1.1c-1.1,0-2-0.4-2.7-1.1
	s-1.1-1.7-1.1-2.7c0-2.1,1.7-3.8,3.8-3.8C439.4,102.3,441.1,104,441.1,106.2z M454.5,106.2c0,1.1-0.4,2-1.1,2.7s-1.7,1.1-2.7,1.1
	c-1.1,0-2-0.4-2.7-1.1s-1.1-1.7-1.1-2.7c0-2.1,1.7-3.8,3.8-3.8S454.5,104,454.5,106.2z M467.9,106.2c0,1.1-0.4,2-1.1,2.7
	s-1.7,1.1-2.7,1.1c-1.1,0-2-0.4-2.7-1.1s-1.1-1.7-1.1-2.7c0-2.1,1.7-3.8,3.8-3.8C466.2,102.3,467.9,104,467.9,106.2z M481.3,106.2
	c0,1.1-0.4,2-1.1,2.7s-1.7,1.1-2.7,1.1c-1.1,0-2-0.4-2.7-1.1s-1.1-1.7-1.1-2.7c0-2.1,1.7-3.8,3.8-3.8
	C479.6,102.3,481.3,104,481.3,106.2z M494.7,106.2c0,1.1-0.4,2-1.1,2.7s-1.7,1.1-2.7,1.1c-1.1,0-2-0.4-2.7-1.1s-1.1-1.7-1.1-2.7
	c0-2.1,1.7-3.8,3.8-3.8C493,102.3,494.7,104,494.7,106.2z M508.1,106.2c0,1.1-0.4,2-1.1,2.7s-1.7,1.1-2.7,1.1c-1.1,0-2-0.4-2.7-1.1
	s-1.1-1.7-1.1-2.7c0-2.1,1.7-3.8,3.8-3.8C506.4,102.3,508.1,104,508.1,106.2z M521.5,106.2c0,1.1-0.4,2-1.1,2.7
	c-0.7,0.7-1.7,1.1-2.7,1.1c-1.1,0-2-0.4-2.7-1.1s-1.1-1.7-1.1-2.7c0-2.1,1.7-3.8,3.8-3.8C519.8,102.3,521.5,104,521.5,106.2z
	 M534.9,106.2c0,1.1-0.4,2-1.1,2.7c-0.7,0.7-1.7,1.1-2.7,1.1c-1.1,0-2-0.4-2.7-1.1s-1.1-1.7-1.1-2.7c0-2.1,1.7-3.8,3.8-3.8
	C533.2,102.3,534.9,104,534.9,106.2z M548.4,106.2c0,1.1-0.4,2-1.1,2.7c-0.7,0.7-1.7,1.1-2.7,1.1c-1.1,0-2-0.4-2.7-1.1
	s-1.1-1.7-1.1-2.7c0-2.1,1.7-3.8,3.8-3.8C546.6,102.3,548.4,104,548.4,106.2z M561.8,106.2c0,1.1-0.4,2-1.1,2.7
	c-0.7,0.7-1.7,1.1-2.7,1.1c-1.1,0-2-0.4-2.7-1.1s-1.1-1.7-1.1-2.7c0-2.1,1.7-3.8,3.8-3.8C560,102.3,561.8,104,561.8,106.2z
	 M575.2,106.2c0,1.1-0.4,2-1.1,2.7c-0.7,0.7-1.7,1.1-2.7,1.1c-1.1,0-2-0.4-2.7-1.1s-1.1-1.7-1.1-2.7c0-2.1,1.7-3.8,3.8-3.8
	C573.4,102.3,575.2,104,575.2,106.2z M588.6,106.2c0,1.1-0.4,2-1.1,2.7c-0.7,0.7-1.7,1.1-2.7,1.1c-1.1,0-2-0.4-2.7-1.1
	s-1.1-1.7-1.1-2.7c0-2.1,1.7-3.8,3.8-3.8C586.8,102.3,588.6,104,588.6,106.2z M602,106.2c0,1.1-0.4,2-1.1,2.7
	c-0.7,0.7-1.7,1.1-2.7,1.1c-1.1,0-2-0.4-2.7-1.1s-1.1-1.7-1.1-2.7c0-2.1,1.7-3.8,3.8-3.8C600.2,102.3,602,104,602,106.2z
	 M615.4,106.2c0,1.1-0.4,2-1.1,2.7c-0.7,0.7-1.7,1.1-2.7,1.1s-2-0.4-2.7-1.1s-1.1-1.7-1.1-2.7c0-2.1,1.7-3.8,3.8-3.8
	C613.7,102.3,615.4,104,615.4,106.2z M628.8,106.2c0,1.1-0.4,2-1.1,2.7c-0.7,0.7-1.7,1.1-2.7,1.1s-2-0.4-2.7-1.1s-1.1-1.7-1.1-2.7
	c0-2.1,1.7-3.8,3.8-3.8C627.1,102.3,628.8,104,628.8,106.2z M642.2,106.2c0,1.1-0.4,2-1.1,2.7c-0.7,0.7-1.7,1.1-2.7,1.1
	c-1.1,0-2-0.4-2.7-1.1s-1.1-1.7-1.1-2.7c0-2.1,1.7-3.8,3.8-3.8C640.5,102.3,642.2,104,642.2,106.2z M655.6,106.2
	c0,1.1-0.4,2-1.1,2.7c-0.7,0.7-1.7,1.1-2.7,1.1c-1.1,0-2-0.4-2.7-1.1s-1.1-1.7-1.1-2.7c0-2.1,1.7-3.8,3.8-3.8
	C653.9,102.3,655.6,104,655.6,106.2z M669,106.2c0,1.1-0.4,2-1.1,2.7c-0.7,0.7-1.7,1.1-2.7,1.1c-1.1,0-2-0.4-2.7-1.1
	s-1.1-1.7-1.1-2.7c0-2.1,1.7-3.8,3.8-3.8C667.3,102.3,669,104,669,106.2z M356.9,94.1c1,0,1.9,0.4,2.6,1.1s1.1,1.6,1.1,2.6
	s-0.4,1.9-1.1,2.6s-1.6,1.1-2.6,1.1s-1.9-0.4-2.6-1.1s-1.1-1.6-1.1-2.6s0.4-1.9,1.1-2.6C354.9,94.5,355.8,94.1,356.9,94.1z
	 M370.3,94.1c1,0,1.9,0.4,2.6,1.1s1.1,1.6,1.1,2.6s-0.4,1.9-1.1,2.6s-1.6,1.1-2.6,1.1s-1.9-0.4-2.6-1.1s-1.1-1.6-1.1-2.6
	s0.4-1.9,1.1-2.6C368.3,94.5,369.2,94.1,370.3,94.1z M383.7,94.1c1,0,1.9,0.4,2.6,1.1s1.1,1.6,1.1,2.6s-0.4,1.9-1.1,2.6
	s-1.6,1.1-2.6,1.1s-1.9-0.4-2.6-1.1s-1.1-1.6-1.1-2.6s0.4-1.9,1.1-2.6C381.7,94.5,382.7,94.1,383.7,94.1z M397.1,94.1
	c1,0,1.9,0.4,2.6,1.1s1.1,1.6,1.1,2.6s-0.4,1.9-1.1,2.6s-1.6,1.1-2.6,1.1s-1.9-0.4-2.6-1.1s-1.1-1.6-1.1-2.6s0.4-1.9,1.1-2.6
	C395.1,94.5,396.1,94.1,397.1,94.1z M410.5,94.1c1,0,1.9,0.4,2.6,1.1s1.1,1.6,1.1,2.6s-0.4,1.9-1.1,2.6s-1.6,1.1-2.6,1.1
	s-1.9-0.4-2.6-1.1s-1.1-1.6-1.1-2.6s0.4-1.9,1.1-2.6C408.5,94.5,409.5,94.1,410.5,94.1z M423.9,94.1c1,0,1.9,0.4,2.6,1.1
	s1.1,1.6,1.1,2.6s-0.4,1.9-1.1,2.6s-1.6,1.1-2.6,1.1s-1.9-0.4-2.6-1.1s-1.1-1.6-1.1-2.6s0.4-1.9,1.1-2.6
	C421.9,94.5,422.9,94.1,423.9,94.1z M437.3,94.1c1,0,1.9,0.4,2.6,1.1s1.1,1.6,1.1,2.6s-0.4,1.9-1.1,2.6s-1.6,1.1-2.6,1.1
	s-1.9-0.4-2.6-1.1s-1.1-1.6-1.1-2.6s0.4-1.9,1.1-2.6S436.3,94.1,437.3,94.1z M450.7,94.1c1,0,1.9,0.4,2.6,1.1s1.1,1.6,1.1,2.6
	s-0.4,1.9-1.1,2.6s-1.6,1.1-2.6,1.1s-1.9-0.4-2.6-1.1s-1.1-1.6-1.1-2.6s0.4-1.9,1.1-2.6C448.8,94.5,449.7,94.1,450.7,94.1z
	 M464.1,94.1c1,0,1.9,0.4,2.6,1.1s1.1,1.6,1.1,2.6s-0.4,1.9-1.1,2.6s-1.6,1.1-2.6,1.1s-1.9-0.4-2.6-1.1s-1.1-1.6-1.1-2.6
	s0.4-1.9,1.1-2.6S463.1,94.1,464.1,94.1z M477.5,94.1c1,0,1.9,0.4,2.6,1.1s1.1,1.6,1.1,2.6s-0.4,1.9-1.1,2.6s-1.6,1.1-2.6,1.1
	s-1.9-0.4-2.6-1.1s-1.1-1.6-1.1-2.6s0.4-1.9,1.1-2.6S476.5,94.1,477.5,94.1z M490.9,94.1c1,0,1.9,0.4,2.6,1.1s1.1,1.6,1.1,2.6
	s-0.4,1.9-1.1,2.6s-1.6,1.1-2.6,1.1s-1.9-0.4-2.6-1.1s-1.1-1.6-1.1-2.6s0.4-1.9,1.1-2.6S489.9,94.1,490.9,94.1z M504.3,94.1
	c1,0,1.9,0.4,2.6,1.1s1.1,1.6,1.1,2.6s-0.4,1.9-1.1,2.6s-1.6,1.1-2.6,1.1s-1.9-0.4-2.6-1.1s-1.1-1.6-1.1-2.6s0.4-1.9,1.1-2.6
	S503.3,94.1,504.3,94.1z M517.7,94.1c1,0,1.9,0.4,2.6,1.1c0.7,0.7,1.1,1.6,1.1,2.6s-0.4,1.9-1.1,2.6c-0.7,0.7-1.6,1.1-2.6,1.1
	s-1.9-0.4-2.6-1.1c-0.7-0.7-1.1-1.6-1.1-2.6s0.4-1.9,1.1-2.6S516.7,94.1,517.7,94.1z M531.1,94.1c1,0,1.9,0.4,2.6,1.1
	c0.7,0.7,1.1,1.6,1.1,2.6s-0.4,1.9-1.1,2.6c-0.7,0.7-1.6,1.1-2.6,1.1s-1.9-0.4-2.6-1.1c-0.7-0.7-1.1-1.6-1.1-2.6s0.4-1.9,1.1-2.6
	C529.2,94.5,530.1,94.1,531.1,94.1z M544.5,94.1c1,0,1.9,0.4,2.6,1.1c0.7,0.7,1.1,1.6,1.1,2.6s-0.4,1.9-1.1,2.6
	c-0.7,0.7-1.6,1.1-2.6,1.1s-1.9-0.4-2.6-1.1c-0.7-0.7-1.1-1.6-1.1-2.6s0.4-1.9,1.1-2.6S543.5,94.1,544.5,94.1z M557.9,94.1
	c1,0,1.9,0.4,2.6,1.1c0.7,0.7,1.1,1.6,1.1,2.6s-0.4,1.9-1.1,2.6c-0.7,0.7-1.6,1.1-2.6,1.1s-1.9-0.4-2.6-1.1
	c-0.7-0.7-1.1-1.6-1.1-2.6s0.4-1.9,1.1-2.6S556.9,94.1,557.9,94.1z M571.3,94.1c1,0,1.9,0.4,2.6,1.1c0.7,0.7,1.1,1.6,1.1,2.6
	s-0.4,1.9-1.1,2.6c-0.7,0.7-1.6,1.1-2.6,1.1s-1.9-0.4-2.6-1.1c-0.7-0.7-1.1-1.6-1.1-2.6s0.4-1.9,1.1-2.6
	C569.4,94.5,570.3,94.1,571.3,94.1z M584.7,94.1c1,0,1.9,0.4,2.6,1.1c0.7,0.7,1.1,1.6,1.1,2.6s-0.4,1.9-1.1,2.6
	c-0.7,0.7-1.6,1.1-2.6,1.1s-1.9-0.4-2.6-1.1c-0.7-0.7-1.1-1.6-1.1-2.6s0.4-1.9,1.1-2.6S583.7,94.1,584.7,94.1z M598.1,94.1
	c1,0,1.9,0.4,2.6,1.1c0.7,0.7,1.1,1.6,1.1,2.6s-0.4,1.9-1.1,2.6c-0.7,0.7-1.6,1.1-2.6,1.1s-1.9-0.4-2.6-1.1
	c-0.7-0.7-1.1-1.6-1.1-2.6s0.4-1.9,1.1-2.6C596.2,94.5,597.1,94.1,598.1,94.1z M611.5,94.1c1,0,1.9,0.4,2.6,1.1
	c0.7,0.7,1.1,1.6,1.1,2.6s-0.4,1.9-1.1,2.6c-0.7,0.7-1.6,1.1-2.6,1.1s-1.9-0.4-2.6-1.1c-0.7-0.7-1.1-1.6-1.1-2.6s0.4-1.9,1.1-2.6
	S610.5,94.1,611.5,94.1z M624.9,94.1c1,0,1.9,0.4,2.6,1.1c0.7,0.7,1.1,1.6,1.1,2.6s-0.4,1.9-1.1,2.6c-0.7,0.7-1.6,1.1-2.6,1.1
	s-1.9-0.4-2.6-1.1c-0.7-0.7-1.1-1.6-1.1-2.6s0.4-1.9,1.1-2.6S623.9,94.1,624.9,94.1z M638.3,94.1c1,0,1.9,0.4,2.6,1.1
	c0.7,0.7,1.1,1.6,1.1,2.6s-0.4,1.9-1.1,2.6c-0.7,0.7-1.6,1.1-2.6,1.1s-1.9-0.4-2.6-1.1c-0.7-0.7-1.1-1.6-1.1-2.6s0.4-1.9,1.1-2.6
	C636.4,94.5,637.3,94.1,638.3,94.1z M651.7,94.1c1,0,1.9,0.4,2.6,1.1c0.7,0.7,1.1,1.6,1.1,2.6s-0.4,1.9-1.1,2.6
	c-0.7,0.7-1.6,1.1-2.6,1.1s-1.9-0.4-2.6-1.1c-0.7-0.7-1.1-1.6-1.1-2.6s0.4-1.9,1.1-2.6S650.7,94.1,651.7,94.1z M370.3,85.8
	c1,0,1.8,0.4,2.5,1c0.6,0.6,1,1.5,1,2.5s-0.4,1.8-1,2.5c-0.6,0.6-1.5,1-2.5,1s-1.8-0.4-2.5-1c-0.6-0.6-1-1.5-1-2.5s0.4-1.8,1-2.5
	C368.4,86.2,369.3,85.8,370.3,85.8z M383.7,85.8c1,0,1.8,0.4,2.5,1c0.6,0.6,1,1.5,1,2.5s-0.4,1.8-1,2.5c-0.6,0.6-1.5,1-2.5,1
	s-1.8-0.4-2.5-1c-0.6-0.6-1-1.5-1-2.5s0.4-1.8,1-2.5C381.8,86.2,382.7,85.8,383.7,85.8z M410.5,85.8c1,0,1.8,0.4,2.5,1
	c0.6,0.6,1,1.5,1,2.5s-0.4,1.8-1,2.5c-0.6,0.6-1.5,1-2.5,1s-1.8-0.4-2.5-1c-0.6-0.6-1-1.5-1-2.5s0.4-1.8,1-2.5
	C408.6,86.2,409.5,85.8,410.5,85.8z M423.9,85.8c1,0,1.8,0.4,2.5,1c0.6,0.6,1,1.5,1,2.5s-0.4,1.8-1,2.5c-0.6,0.6-1.5,1-2.5,1
	s-1.8-0.4-2.5-1c-0.6-0.6-1-1.5-1-2.5s0.4-1.8,1-2.5C422,86.2,422.9,85.8,423.9,85.8z M437.3,85.8c1,0,1.8,0.4,2.5,1
	c0.6,0.6,1,1.5,1,2.5s-0.4,1.8-1,2.5c-0.6,0.6-1.5,1-2.5,1s-1.8-0.4-2.5-1c-0.6-0.6-1-1.5-1-2.5s0.4-1.8,1-2.5
	C435.4,86.2,436.3,85.8,437.3,85.8z M450.7,85.8c1,0,1.8,0.4,2.5,1c0.6,0.6,1,1.5,1,2.5s-0.4,1.8-1,2.5c-0.6,0.6-1.5,1-2.5,1
	s-1.8-0.4-2.5-1c-0.6-0.6-1-1.5-1-2.5s0.4-1.8,1-2.5S449.7,85.8,450.7,85.8z M464.1,85.8c1,0,1.8,0.4,2.5,1c0.6,0.6,1,1.5,1,2.5
	s-0.4,1.8-1,2.5c-0.6,0.6-1.5,1-2.5,1s-1.8-0.4-2.5-1c-0.6-0.6-1-1.5-1-2.5s0.4-1.8,1-2.5C462.3,86.2,463.1,85.8,464.1,85.8z
	 M477.5,85.8c1,0,1.8,0.4,2.5,1c0.6,0.6,1,1.5,1,2.5s-0.4,1.8-1,2.5c-0.6,0.6-1.5,1-2.5,1s-1.8-0.4-2.5-1c-0.6-0.6-1-1.5-1-2.5
	s0.4-1.8,1-2.5C475.7,86.2,476.5,85.8,477.5,85.8z M490.9,85.8c1,0,1.8,0.4,2.5,1c0.6,0.6,1,1.5,1,2.5s-0.4,1.8-1,2.5
	c-0.6,0.6-1.5,1-2.5,1s-1.8-0.4-2.5-1c-0.6-0.6-1-1.5-1-2.5s0.4-1.8,1-2.5S489.9,85.8,490.9,85.8z M504.3,85.8c1,0,1.8,0.4,2.5,1
	c0.6,0.6,1,1.5,1,2.5s-0.4,1.8-1,2.5c-0.6,0.6-1.5,1-2.5,1s-1.8-0.4-2.5-1c-0.6-0.6-1-1.5-1-2.5s0.4-1.8,1-2.5
	C502.5,86.2,503.3,85.8,504.3,85.8z M517.7,85.8c1,0,1.8,0.4,2.5,1c0.6,0.6,1,1.5,1,2.5s-0.4,1.8-1,2.5c-0.6,0.6-1.5,1-2.5,1
	s-1.8-0.4-2.5-1c-0.6-0.6-1-1.5-1-2.5s0.4-1.8,1-2.5S516.7,85.8,517.7,85.8z M531.1,85.8c1,0,1.8,0.4,2.5,1c0.6,0.6,1,1.5,1,2.5
	s-0.4,1.8-1,2.5c-0.6,0.6-1.5,1-2.5,1s-1.8-0.4-2.5-1c-0.6-0.6-1-1.5-1-2.5s0.4-1.8,1-2.5S530.1,85.8,531.1,85.8z M544.5,85.8
	c1,0,1.8,0.4,2.5,1c0.6,0.6,1,1.5,1,2.5s-0.4,1.8-1,2.5c-0.6,0.6-1.5,1-2.5,1s-1.8-0.4-2.5-1c-0.6-0.6-1-1.5-1-2.5s0.4-1.8,1-2.5
	S543.6,85.8,544.5,85.8z M557.9,85.8c1,0,1.8,0.4,2.5,1c0.6,0.6,1,1.5,1,2.5s-0.4,1.8-1,2.5c-0.6,0.6-1.5,1-2.5,1s-1.8-0.4-2.5-1
	c-0.6-0.6-1-1.5-1-2.5s0.4-1.8,1-2.5S557,85.8,557.9,85.8z M571.3,85.8c1,0,1.8,0.4,2.5,1c0.6,0.6,1,1.5,1,2.5s-0.4,1.8-1,2.5
	c-0.6,0.6-1.5,1-2.5,1s-1.8-0.4-2.5-1c-0.6-0.6-1-1.5-1-2.5s0.4-1.8,1-2.5S570.4,85.8,571.3,85.8z M584.7,85.8c1,0,1.8,0.4,2.5,1
	c0.6,0.6,1,1.5,1,2.5s-0.4,1.8-1,2.5c-0.6,0.6-1.5,1-2.5,1s-1.8-0.4-2.5-1c-0.6-0.6-1-1.5-1-2.5s0.4-1.8,1-2.5
	C582.9,86.2,583.8,85.8,584.7,85.8z M598.1,85.8c1,0,1.8,0.4,2.5,1c0.6,0.6,1,1.5,1,2.5s-0.4,1.8-1,2.5c-0.6,0.6-1.5,1-2.5,1
	s-1.8-0.4-2.5-1c-0.6-0.6-1-1.5-1-2.5s0.4-1.8,1-2.5C596.3,86.2,597.2,85.8,598.1,85.8z M611.5,85.8c1,0,1.8,0.4,2.5,1s1,1.5,1,2.5
	s-0.4,1.8-1,2.5c-0.6,0.6-1.5,1-2.5,1s-1.8-0.4-2.5-1c-0.6-0.6-1-1.5-1-2.5s0.4-1.8,1-2.5C609.7,86.2,610.6,85.8,611.5,85.8z
	 M624.9,85.8c1,0,1.8,0.4,2.5,1s1,1.5,1,2.5s-0.4,1.8-1,2.5c-0.6,0.6-1.5,1-2.5,1s-1.8-0.4-2.5-1c-0.6-0.6-1-1.5-1-2.5
	s0.4-1.8,1-2.5C623.1,86.2,624,85.8,624.9,85.8z M383.7,77.6c0.9,0,1.7,0.4,2.3,1c0.6,0.6,1,1.4,1,2.3s-0.4,1.7-1,2.3
	c-0.6,0.6-1.4,1-2.3,1s-1.7-0.4-2.3-1c-0.6-0.6-1-1.4-1-2.3s0.4-1.7,1-2.3C381.9,78,382.8,77.6,383.7,77.6z M410.5,77.6
	c0.9,0,1.7,0.4,2.3,1c0.6,0.6,1,1.4,1,2.3s-0.4,1.7-1,2.3c-0.6,0.6-1.4,1-2.3,1s-1.7-0.4-2.3-1c-0.6-0.6-1-1.4-1-2.3s0.4-1.7,1-2.3
	C408.7,78,409.6,77.6,410.5,77.6z M423.9,77.6c0.9,0,1.7,0.4,2.3,1c0.6,0.6,1,1.4,1,2.3s-0.4,1.7-1,2.3c-0.6,0.6-1.4,1-2.3,1
	s-1.7-0.4-2.3-1c-0.6-0.6-1-1.4-1-2.3s0.4-1.7,1-2.3C422.1,78,423,77.6,423.9,77.6z M437.3,77.6c0.9,0,1.7,0.4,2.3,1
	c0.6,0.6,1,1.4,1,2.3s-0.4,1.7-1,2.3c-0.6,0.6-1.4,1-2.3,1s-1.7-0.4-2.3-1c-0.6-0.6-1-1.4-1-2.3s0.4-1.7,1-2.3
	C435.5,78,436.4,77.6,437.3,77.6z M450.7,77.6c0.9,0,1.7,0.4,2.3,1c0.6,0.6,1,1.4,1,2.3s-0.4,1.7-1,2.3c-0.6,0.6-1.4,1-2.3,1
	s-1.7-0.4-2.3-1c-0.6-0.6-1-1.4-1-2.3s0.4-1.7,1-2.3C448.9,78,449.8,77.6,450.7,77.6z M464.1,77.6c0.9,0,1.7,0.4,2.3,1
	c0.6,0.6,1,1.4,1,2.3s-0.4,1.7-1,2.3c-0.6,0.6-1.4,1-2.3,1s-1.7-0.4-2.3-1c-0.6-0.6-1-1.4-1-2.3s0.4-1.7,1-2.3
	C462.3,78,463.2,77.6,464.1,77.6z M477.5,77.6c0.9,0,1.7,0.4,2.3,1c0.6,0.6,1,1.4,1,2.3s-0.4,1.7-1,2.3c-0.6,0.6-1.4,1-2.3,1
	s-1.7-0.4-2.3-1c-0.6-0.6-1-1.4-1-2.3s0.4-1.7,1-2.3C475.8,78,476.6,77.6,477.5,77.6z M490.9,77.6c0.9,0,1.7,0.4,2.3,1
	c0.6,0.6,1,1.4,1,2.3s-0.4,1.7-1,2.3c-0.6,0.6-1.4,1-2.3,1s-1.7-0.4-2.3-1c-0.6-0.6-1-1.4-1-2.3s0.4-1.7,1-2.3
	C489.2,78,490,77.6,490.9,77.6z M504.3,77.6c0.9,0,1.7,0.4,2.3,1c0.6,0.6,1,1.4,1,2.3s-0.4,1.7-1,2.3c-0.6,0.6-1.4,1-2.3,1
	s-1.7-0.4-2.3-1c-0.6-0.6-1-1.4-1-2.3s0.4-1.7,1-2.3C502.6,78,503.4,77.6,504.3,77.6z M517.7,77.6c0.9,0,1.7,0.4,2.3,1s1,1.4,1,2.3
	s-0.4,1.7-1,2.3c-0.6,0.6-1.4,1-2.3,1c-0.9,0-1.7-0.4-2.3-1s-1-1.4-1-2.3s0.4-1.7,1-2.3C516,78,516.8,77.6,517.7,77.6z M531.1,77.6
	c0.9,0,1.7,0.4,2.3,1s1,1.4,1,2.3s-0.4,1.7-1,2.3c-0.6,0.6-1.4,1-2.3,1c-0.9,0-1.7-0.4-2.3-1s-1-1.4-1-2.3s0.4-1.7,1-2.3
	C529.4,78,530.2,77.6,531.1,77.6z M544.5,77.6c0.9,0,1.7,0.4,2.3,1s1,1.4,1,2.3s-0.4,1.7-1,2.3c-0.6,0.6-1.4,1-2.3,1
	c-0.9,0-1.7-0.4-2.3-1s-1-1.4-1-2.3s0.4-1.7,1-2.3C542.8,78,543.6,77.6,544.5,77.6z M557.9,77.6c0.9,0,1.7,0.4,2.3,1s1,1.4,1,2.3
	s-0.4,1.7-1,2.3c-0.6,0.6-1.4,1-2.3,1c-0.9,0-1.7-0.4-2.3-1s-1-1.4-1-2.3s0.4-1.7,1-2.3C556.2,78,557,77.6,557.9,77.6z M571.3,77.6
	c0.9,0,1.7,0.4,2.3,1s1,1.4,1,2.3s-0.4,1.7-1,2.3c-0.6,0.6-1.4,1-2.3,1c-0.9,0-1.7-0.4-2.3-1s-1-1.4-1-2.3s0.4-1.7,1-2.3
	C569.6,78,570.4,77.6,571.3,77.6z M584.7,77.6c0.9,0,1.7,0.4,2.3,1s1,1.4,1,2.3s-0.4,1.7-1,2.3c-0.6,0.6-1.4,1-2.3,1
	c-0.9,0-1.7-0.4-2.3-1s-1-1.4-1-2.3s0.4-1.7,1-2.3C583,78,583.8,77.6,584.7,77.6z M598.1,77.6c0.9,0,1.7,0.4,2.3,1s1,1.4,1,2.3
	s-0.4,1.7-1,2.3c-0.6,0.6-1.4,1-2.3,1c-0.9,0-1.7-0.4-2.3-1s-1-1.4-1-2.3s0.4-1.7,1-2.3C596.4,78,597.2,77.6,598.1,77.6z
	 M611.5,77.6c0.9,0,1.7,0.4,2.3,1s1,1.4,1,2.3s-0.4,1.7-1,2.3c-0.6,0.6-1.4,1-2.3,1s-1.7-0.4-2.3-1s-1-1.4-1-2.3s0.4-1.7,1-2.3
	C609.8,78,610.6,77.6,611.5,77.6z M383.7,69.3c0.9,0,1.6,0.3,2.2,0.9s0.9,1.4,0.9,2.2c0,0.9-0.3,1.6-0.9,2.2s-1.4,0.9-2.2,0.9
	c-0.9,0-1.6-0.3-2.2-0.9s-0.9-1.4-0.9-2.2c0-0.9,0.3-1.6,0.9-2.2C382,69.7,382.8,69.3,383.7,69.3z M410.5,69.3
	c0.9,0,1.6,0.3,2.2,0.9s0.9,1.4,0.9,2.2c0,0.9-0.3,1.6-0.9,2.2s-1.4,0.9-2.2,0.9c-0.9,0-1.6-0.3-2.2-0.9s-0.9-1.4-0.9-2.2
	c0-0.9,0.3-1.6,0.9-2.2C408.8,69.7,409.6,69.3,410.5,69.3z M423.9,69.3c0.9,0,1.6,0.3,2.2,0.9s0.9,1.4,0.9,2.2
	c0,0.9-0.3,1.6-0.9,2.2s-1.4,0.9-2.2,0.9c-0.9,0-1.6-0.3-2.2-0.9s-0.9-1.4-0.9-2.2c0-0.9,0.3-1.6,0.9-2.2
	C422.2,69.7,423,69.3,423.9,69.3z M437.3,69.3c0.9,0,1.6,0.3,2.2,0.9s0.9,1.4,0.9,2.2c0,0.9-0.3,1.6-0.9,2.2s-1.4,0.9-2.2,0.9
	c-0.9,0-1.6-0.3-2.2-0.9s-0.9-1.4-0.9-2.2c0-0.9,0.3-1.6,0.9-2.2C435.6,69.7,436.4,69.3,437.3,69.3z M450.7,69.3
	c0.9,0,1.6,0.3,2.2,0.9s0.9,1.4,0.9,2.2c0,0.9-0.3,1.6-0.9,2.2s-1.4,0.9-2.2,0.9c-0.9,0-1.6-0.3-2.2-0.9s-0.9-1.4-0.9-2.2
	c0-0.9,0.3-1.6,0.9-2.2C449,69.7,449.8,69.3,450.7,69.3z M464.1,69.3c0.9,0,1.6,0.3,2.2,0.9s0.9,1.4,0.9,2.2c0,0.9-0.3,1.6-0.9,2.2
	s-1.4,0.9-2.2,0.9c-0.9,0-1.6-0.3-2.2-0.9s-0.9-1.4-0.9-2.2c0-0.9,0.3-1.6,0.9-2.2C462.4,69.7,463.2,69.3,464.1,69.3z M477.5,69.3
	c0.9,0,1.6,0.3,2.2,0.9s0.9,1.4,0.9,2.2c0,0.9-0.3,1.6-0.9,2.2s-1.4,0.9-2.2,0.9c-0.9,0-1.6-0.3-2.2-0.9s-0.9-1.4-0.9-2.2
	c0-0.9,0.3-1.6,0.9-2.2C475.8,69.7,476.6,69.3,477.5,69.3z M490.9,69.3c0.9,0,1.6,0.3,2.2,0.9s0.9,1.4,0.9,2.2
	c0,0.9-0.3,1.6-0.9,2.2s-1.4,0.9-2.2,0.9c-0.9,0-1.6-0.3-2.2-0.9s-0.9-1.4-0.9-2.2c0-0.9,0.3-1.6,0.9-2.2
	C489.2,69.7,490,69.3,490.9,69.3z M504.3,69.3c0.9,0,1.6,0.3,2.2,0.9s0.9,1.4,0.9,2.2c0,0.9-0.3,1.6-0.9,2.2s-1.4,0.9-2.2,0.9
	c-0.9,0-1.6-0.3-2.2-0.9s-0.9-1.4-0.9-2.2c0-0.9,0.3-1.6,0.9-2.2C502.7,69.7,503.4,69.3,504.3,69.3z M517.7,69.3
	c0.9,0,1.6,0.3,2.2,0.9c0.6,0.6,0.9,1.4,0.9,2.2c0,0.9-0.3,1.6-0.9,2.2c-0.6,0.6-1.4,0.9-2.2,0.9c-0.9,0-1.6-0.3-2.2-0.9
	c-0.6-0.6-0.9-1.4-0.9-2.2c0-0.9,0.3-1.6,0.9-2.2C516.1,69.7,516.8,69.3,517.7,69.3z M531.1,69.3c0.9,0,1.6,0.3,2.2,0.9
	c0.6,0.6,0.9,1.4,0.9,2.2c0,0.9-0.3,1.6-0.9,2.2c-0.6,0.6-1.4,0.9-2.2,0.9c-0.9,0-1.6-0.3-2.2-0.9c-0.6-0.6-0.9-1.4-0.9-2.2
	c0-0.9,0.3-1.6,0.9-2.2C529.5,69.7,530.2,69.3,531.1,69.3z M557.9,69.3c0.9,0,1.6,0.3,2.2,0.9c0.6,0.6,0.9,1.4,0.9,2.2
	c0,0.9-0.3,1.6-0.9,2.2c-0.6,0.6-1.4,0.9-2.2,0.9c-0.9,0-1.6-0.3-2.2-0.9c-0.6-0.6-0.9-1.4-0.9-2.2c0-0.9,0.3-1.6,0.9-2.2
	C556.3,69.7,557.1,69.3,557.9,69.3z M571.3,69.3c0.9,0,1.6,0.3,2.2,0.9c0.6,0.6,0.9,1.4,0.9,2.2c0,0.9-0.3,1.6-0.9,2.2
	c-0.6,0.6-1.4,0.9-2.2,0.9c-0.9,0-1.6-0.3-2.2-0.9c-0.6-0.6-0.9-1.4-0.9-2.2c0-0.9,0.3-1.6,0.9-2.2
	C569.7,69.7,570.5,69.3,571.3,69.3z M598.1,69.3c0.9,0,1.6,0.3,2.2,0.9c0.6,0.6,0.9,1.4,0.9,2.2c0,0.9-0.3,1.6-0.9,2.2
	c-0.6,0.6-1.4,0.9-2.2,0.9c-0.9,0-1.6-0.3-2.2-0.9c-0.6-0.6-0.9-1.4-0.9-2.2c0-0.9,0.3-1.6,0.9-2.2
	C596.5,69.7,597.3,69.3,598.1,69.3z M611.5,69.3c0.9,0,1.6,0.3,2.2,0.9c0.6,0.6,0.9,1.4,0.9,2.2c0,0.9-0.3,1.6-0.9,2.2
	c-0.6,0.6-1.4,0.9-2.2,0.9c-0.9,0-1.6-0.3-2.2-0.9c-0.6-0.6-0.9-1.4-0.9-2.2c0-0.9,0.3-1.6,0.9-2.2
	C609.9,69.7,610.7,69.3,611.5,69.3z M410.5,61.1c0.8,0,1.6,0.3,2.1,0.9c0.5,0.5,0.9,1.3,0.9,2.1c0,0.8-0.3,1.6-0.9,2.1
	c-0.5,0.5-1.3,0.9-2.1,0.9c-0.8,0-1.6-0.3-2.1-0.9c-0.5-0.5-0.9-1.3-0.9-2.1c0-0.8,0.3-1.6,0.9-2.1
	C408.9,61.4,409.7,61.1,410.5,61.1z M437.3,61.1c0.8,0,1.6,0.3,2.1,0.9c0.5,0.5,0.9,1.3,0.9,2.1c0,0.8-0.3,1.6-0.9,2.1
	c-0.5,0.5-1.3,0.9-2.1,0.9c-0.8,0-1.6-0.3-2.1-0.9c-0.5-0.5-0.9-1.3-0.9-2.1c0-0.8,0.3-1.6,0.9-2.1
	C435.7,61.4,436.5,61.1,437.3,61.1z M450.7,61.1c0.8,0,1.6,0.3,2.1,0.9c0.5,0.5,0.9,1.3,0.9,2.1c0,0.8-0.3,1.6-0.9,2.1
	c-0.5,0.5-1.3,0.9-2.1,0.9c-0.8,0-1.6-0.3-2.1-0.9c-0.5-0.5-0.9-1.3-0.9-2.1c0-0.8,0.3-1.6,0.9-2.1
	C449.1,61.4,449.9,61.1,450.7,61.1z M464.1,61.1c0.8,0,1.6,0.3,2.1,0.9c0.5,0.5,0.9,1.3,0.9,2.1c0,0.8-0.3,1.6-0.9,2.1
	c-0.5,0.5-1.3,0.9-2.1,0.9c-0.8,0-1.6-0.3-2.1-0.9c-0.5-0.5-0.9-1.3-0.9-2.1c0-0.8,0.3-1.6,0.9-2.1
	C462.5,61.4,463.3,61.1,464.1,61.1z M477.5,61.1c0.8,0,1.6,0.3,2.1,0.9c0.5,0.5,0.9,1.3,0.9,2.1c0,0.8-0.3,1.6-0.9,2.1
	c-0.5,0.5-1.3,0.9-2.1,0.9c-0.8,0-1.6-0.3-2.1-0.9c-0.5-0.5-0.9-1.3-0.9-2.1c0-0.8,0.3-1.6,0.9-2.1
	C475.9,61.4,476.7,61.1,477.5,61.1z M490.9,61.1c0.8,0,1.6,0.3,2.1,0.9c0.5,0.5,0.9,1.3,0.9,2.1c0,0.8-0.3,1.6-0.9,2.1
	c-0.5,0.5-1.3,0.9-2.1,0.9c-0.8,0-1.6-0.3-2.1-0.9c-0.5-0.5-0.9-1.3-0.9-2.1c0-0.8,0.3-1.6,0.9-2.1
	C489.3,61.4,490.1,61.1,490.9,61.1z M517.7,61.1c0.8,0,1.6,0.3,2.1,0.9c0.5,0.5,0.9,1.3,0.9,2.1c0,0.8-0.3,1.6-0.9,2.1
	c-0.5,0.5-1.3,0.9-2.1,0.9s-1.6-0.3-2.1-0.9c-0.5-0.5-0.9-1.3-0.9-2.1c0-0.8,0.3-1.6,0.9-2.1C516.2,61.4,516.9,61.1,517.7,61.1z
	 M557.9,61.1c0.8,0,1.6,0.3,2.1,0.9c0.5,0.5,0.9,1.3,0.9,2.1c0,0.8-0.3,1.6-0.9,2.1c-0.5,0.5-1.3,0.9-2.1,0.9s-1.6-0.3-2.1-0.9
	c-0.5-0.5-0.9-1.3-0.9-2.1c0-0.8,0.3-1.6,0.9-2.1C556.4,61.4,557.1,61.1,557.9,61.1z M571.3,61.1c0.8,0,1.6,0.3,2.1,0.9
	c0.5,0.5,0.9,1.3,0.9,2.1c0,0.8-0.3,1.6-0.9,2.1c-0.5,0.5-1.3,0.9-2.1,0.9s-1.6-0.3-2.1-0.9c-0.5-0.5-0.9-1.3-0.9-2.1
	c0-0.8,0.3-1.6,0.9-2.1C569.8,61.4,570.5,61.1,571.3,61.1z M598.1,61.1c0.8,0,1.6,0.3,2.1,0.9c0.5,0.5,0.9,1.3,0.9,2.1
	c0,0.8-0.3,1.6-0.9,2.1c-0.5,0.5-1.3,0.9-2.1,0.9s-1.6-0.3-2.1-0.9c-0.5-0.5-0.9-1.3-0.9-2.1c0-0.8,0.3-1.6,0.9-2.1
	C596.6,61.4,597.3,61.1,598.1,61.1z M437.3,52.9c0.8,0,1.5,0.3,2,0.8s0.8,1.2,0.8,2s-0.3,1.5-0.8,2s-1.2,0.8-2,0.8s-1.5-0.3-2-0.8
	s-0.8-1.2-0.8-2s0.3-1.5,0.8-2S436.5,52.9,437.3,52.9z M450.7,52.9c0.8,0,1.5,0.3,2,0.8s0.8,1.2,0.8,2s-0.3,1.5-0.8,2
	s-1.2,0.8-2,0.8s-1.5-0.3-2-0.8s-0.8-1.2-0.8-2s0.3-1.5,0.8-2S449.9,52.9,450.7,52.9z M464.1,52.9c0.8,0,1.5,0.3,2,0.8
	s0.8,1.2,0.8,2s-0.3,1.5-0.8,2s-1.2,0.8-2,0.8s-1.5-0.3-2-0.8s-0.8-1.2-0.8-2s0.3-1.5,0.8-2S463.3,52.9,464.1,52.9z M477.5,52.9
	c0.8,0,1.5,0.3,2,0.8s0.8,1.2,0.8,2s-0.3,1.5-0.8,2s-1.2,0.8-2,0.8s-1.5-0.3-2-0.8s-0.8-1.2-0.8-2s0.3-1.5,0.8-2
	S476.7,52.9,477.5,52.9z M490.9,52.9c0.8,0,1.5,0.3,2,0.8s0.8,1.2,0.8,2s-0.3,1.5-0.8,2s-1.2,0.8-2,0.8s-1.5-0.3-2-0.8
	s-0.8-1.2-0.8-2s0.3-1.5,0.8-2S490.1,52.9,490.9,52.9z M571.3,52.9c0.8,0,1.5,0.3,2,0.8s0.8,1.2,0.8,2s-0.3,1.5-0.8,2
	s-1.2,0.8-2,0.8s-1.5-0.3-2-0.8s-0.8-1.2-0.8-2s0.3-1.5,0.8-2C569.9,53.2,570.6,52.9,571.3,52.9z M598.1,52.9c0.8,0,1.5,0.3,2,0.8
	s0.8,1.2,0.8,2s-0.3,1.5-0.8,2s-1.2,0.8-2,0.8s-1.5-0.3-2-0.8s-0.8-1.2-0.8-2s0.3-1.5,0.8-2C596.7,53.2,597.4,52.9,598.1,52.9z
	 M437.3,44.6c0.7,0,1.4,0.3,1.8,0.8c0.5,0.5,0.8,1.1,0.8,1.8s-0.3,1.4-0.8,1.8c-0.5,0.5-1.1,0.8-1.8,0.8c-0.7,0-1.4-0.3-1.8-0.8
	c-0.5-0.5-0.8-1.1-0.8-1.8s0.3-1.4,0.8-1.8C435.9,44.9,436.6,44.6,437.3,44.6z M450.7,44.6c0.7,0,1.4,0.3,1.8,0.8
	c0.5,0.5,0.8,1.1,0.8,1.8s-0.3,1.4-0.8,1.8c-0.5,0.5-1.1,0.8-1.8,0.8c-0.7,0-1.4-0.3-1.8-0.8c-0.5-0.5-0.8-1.1-0.8-1.8
	s0.3-1.4,0.8-1.8C449.3,44.9,450,44.6,450.7,44.6z M464.1,44.6c0.7,0,1.4,0.3,1.8,0.8c0.5,0.5,0.8,1.1,0.8,1.8s-0.3,1.4-0.8,1.8
	c-0.5,0.5-1.1,0.8-1.8,0.8c-0.7,0-1.4-0.3-1.8-0.8c-0.5-0.5-0.8-1.1-0.8-1.8s0.3-1.4,0.8-1.8C462.7,44.9,463.4,44.6,464.1,44.6z
	 M477.5,44.6c0.7,0,1.4,0.3,1.8,0.8c0.5,0.5,0.8,1.1,0.8,1.8s-0.3,1.4-0.8,1.8c-0.5,0.5-1.1,0.8-1.8,0.8c-0.7,0-1.4-0.3-1.8-0.8
	c-0.5-0.5-0.8-1.1-0.8-1.8s0.3-1.4,0.8-1.8C476.1,44.9,476.8,44.6,477.5,44.6z M571.3,44.6c0.7,0,1.4,0.3,1.8,0.8
	c0.5,0.5,0.8,1.1,0.8,1.8s-0.3,1.4-0.8,1.8c-0.5,0.5-1.1,0.8-1.8,0.8s-1.4-0.3-1.8-0.8c-0.5-0.5-0.8-1.1-0.8-1.8s0.3-1.4,0.8-1.8
	C570,44.9,570.6,44.6,571.3,44.6z M598.1,44.6c0.7,0,1.4,0.3,1.8,0.8c0.5,0.5,0.8,1.1,0.8,1.8s-0.3,1.4-0.8,1.8
	c-0.5,0.5-1.1,0.8-1.8,0.8s-1.4-0.3-1.8-0.8c-0.5-0.5-0.8-1.1-0.8-1.8s0.3-1.4,0.8-1.8C596.8,44.9,597.4,44.6,598.1,44.6z
	 M437.3,36.4c0.7,0,1.3,0.3,1.7,0.7c0.4,0.4,0.7,1.1,0.7,1.7c0,0.7-0.3,1.3-0.7,1.7c-0.4,0.4-1.1,0.7-1.7,0.7
	c-0.7,0-1.3-0.3-1.7-0.7c-0.4-0.4-0.7-1.1-0.7-1.7c0-0.7,0.3-1.3,0.7-1.7C436,36.6,436.6,36.4,437.3,36.4z M464.1,36.4
	c0.7,0,1.3,0.3,1.7,0.7c0.4,0.4,0.7,1.1,0.7,1.7c0,0.7-0.3,1.3-0.7,1.7c-0.4,0.4-1.1,0.7-1.7,0.7c-0.7,0-1.3-0.3-1.7-0.7
	c-0.4-0.4-0.7-1.1-0.7-1.7c0-0.7,0.3-1.3,0.7-1.7C462.8,36.6,463.4,36.4,464.1,36.4z M477.5,36.4c0.7,0,1.3,0.3,1.7,0.7
	c0.4,0.4,0.7,1.1,0.7,1.7c0,0.7-0.3,1.3-0.7,1.7c-0.4,0.4-1.1,0.7-1.7,0.7c-0.7,0-1.3-0.3-1.7-0.7c-0.4-0.4-0.7-1.1-0.7-1.7
	c0-0.7,0.3-1.3,0.7-1.7C476.2,36.6,476.8,36.4,477.5,36.4z M571.3,36.4c0.7,0,1.3,0.3,1.7,0.7s0.7,1.1,0.7,1.7
	c0,0.7-0.3,1.3-0.7,1.7s-1.1,0.7-1.7,0.7c-0.7,0-1.3-0.3-1.7-0.7s-0.7-1.1-0.7-1.7c0-0.7,0.3-1.3,0.7-1.7
	C570.1,36.6,570.7,36.4,571.3,36.4z M464.1,28.1c0.6,0,1.2,0.2,1.6,0.7c0.4,0.4,0.7,1,0.7,1.6s-0.2,1.2-0.7,1.6
	c-0.4,0.4-1,0.7-1.6,0.7s-1.2-0.2-1.6-0.7c-0.4-0.4-0.7-1-0.7-1.6s0.2-1.2,0.7-1.6C462.9,28.4,463.5,28.1,464.1,28.1z M477.5,28.1
	c0.6,0,1.2,0.2,1.6,0.7c0.4,0.4,0.7,1,0.7,1.6s-0.2,1.2-0.7,1.6c-0.4,0.4-1,0.7-1.6,0.7s-1.2-0.2-1.6-0.7c-0.4-0.4-0.7-1-0.7-1.6
	s0.2-1.2,0.7-1.6C476.3,28.4,476.9,28.1,477.5,28.1z M571.3,28.1c0.6,0,1.2,0.2,1.6,0.7c0.4,0.4,0.7,1,0.7,1.6s-0.2,1.2-0.7,1.6
	c-0.4,0.4-1,0.7-1.6,0.7s-1.2-0.2-1.6-0.7c-0.4-0.4-0.7-1-0.7-1.6s0.2-1.2,0.7-1.6C570.1,28.4,570.7,28.1,571.3,28.1z M464.1,19.9
	c0.6,0,1.1,0.2,1.5,0.6s0.6,0.9,0.6,1.5s-0.2,1.1-0.6,1.5s-0.9,0.6-1.5,0.6s-1.1-0.2-1.5-0.6S462,22.6,462,22s0.2-1.1,0.6-1.5
	S463.5,19.9,464.1,19.9z M477.5,19.9c0.6,0,1.1,0.2,1.5,0.6s0.6,0.9,0.6,1.5s-0.2,1.1-0.6,1.5s-0.9,0.6-1.5,0.6s-1.1-0.2-1.5-0.6
	s-0.6-0.9-0.6-1.5s0.2-1.1,0.6-1.5S476.9,19.9,477.5,19.9z M477.5,11.6c0.5,0,1,0.2,1.3,0.6c0.4,0.4,0.6,0.8,0.6,1.3s-0.2,1-0.6,1.3
	c-0.4,0.4-0.8,0.6-1.3,0.6s-1-0.2-1.3-0.6c-0.4-0.4-0.6-0.8-0.6-1.3s0.2-1,0.6-1.3C476.5,11.8,477,11.6,477.5,11.6z M477.5,3.4
	c0.5,0,0.9,0.2,1.2,0.5c0.3,0.3,0.5,0.8,0.5,1.2c0,0.5-0.2,0.9-0.5,1.2c-0.3,0.3-0.8,0.5-1.2,0.5c-0.5,0-0.9-0.2-1.2-0.5
	c-0.3-0.3-0.5-0.8-0.5-1.2c0-0.5,0.2-0.9,0.5-1.2C476.6,3.6,477,3.4,477.5,3.4z M343.4,110c-2.1,0-3.8-1.7-3.8-3.8
	c0-1.1,0.4-2,1.1-2.7s1.7-1.1,2.7-1.1c1.1,0,2,0.4,2.7,1.1s1.1,1.7,1.1,2.7C347.3,108.3,345.6,110,343.4,110z M356.9,110
	c-2.1,0-3.8-1.7-3.8-3.8c0-1.1,0.4-2,1.1-2.7s1.7-1.1,2.7-1.1c1.1,0,2,0.4,2.7,1.1s1.1,1.7,1.1,2.7C360.7,108.3,359,110,356.9,110z
	 M370.3,110c-2.1,0-3.8-1.7-3.8-3.8c0-1.1,0.4-2,1.1-2.7s1.7-1.1,2.7-1.1c1.1,0,2,0.4,2.7,1.1s1.1,1.7,1.1,2.7
	C374.1,108.3,372.4,110,370.3,110z M383.7,110c-2.1,0-3.8-1.7-3.8-3.8c0-1.1,0.4-2,1.1-2.7s1.7-1.1,2.7-1.1c1.1,0,2,0.4,2.7,1.1
	s1.1,1.7,1.1,2.7C387.5,108.3,385.8,110,383.7,110z M397.1,110c-2.1,0-3.8-1.7-3.8-3.8c0-1.1,0.4-2,1.1-2.7s1.7-1.1,2.7-1.1
	c1.1,0,2,0.4,2.7,1.1s1.1,1.7,1.1,2.7C400.9,108.3,399.2,110,397.1,110z M410.5,110c-2.1,0-3.8-1.7-3.8-3.8c0-1.1,0.4-2,1.1-2.7
	s1.7-1.1,2.7-1.1c1.1,0,2,0.4,2.7,1.1s1.1,1.7,1.1,2.7C414.3,108.3,412.6,110,410.5,110z M423.9,110c-2.1,0-3.8-1.7-3.8-3.8
	c0-1.1,0.4-2,1.1-2.7s1.7-1.1,2.7-1.1c1.1,0,2,0.4,2.7,1.1s1.1,1.7,1.1,2.7C427.7,108.3,426,110,423.9,110z M437.3,110
	c-2.1,0-3.8-1.7-3.8-3.8c0-1.1,0.4-2,1.1-2.7s1.7-1.1,2.7-1.1c1.1,0,2,0.4,2.7,1.1s1.1,1.7,1.1,2.7C441.1,108.3,439.4,110,437.3,110
	z M450.7,110c-2.1,0-3.8-1.7-3.8-3.8c0-1.1,0.4-2,1.1-2.7s1.7-1.1,2.7-1.1c1.1,0,2,0.4,2.7,1.1s1.1,1.7,1.1,2.7
	C454.5,108.3,452.8,110,450.7,110z M464.1,110c-2.1,0-3.8-1.7-3.8-3.8c0-1.1,0.4-2,1.1-2.7s1.7-1.1,2.7-1.1c1.1,0,2,0.4,2.7,1.1
	s1.1,1.7,1.1,2.7C467.9,108.3,466.2,110,464.1,110z M477.5,110c-2.1,0-3.8-1.7-3.8-3.8c0-1.1,0.4-2,1.1-2.7s1.7-1.1,2.7-1.1
	c1.1,0,2,0.4,2.7,1.1s1.1,1.7,1.1,2.7C481.3,108.3,479.6,110,477.5,110z M490.9,110c-2.1,0-3.8-1.7-3.8-3.8c0-1.1,0.4-2,1.1-2.7
	s1.7-1.1,2.7-1.1c1.1,0,2,0.4,2.7,1.1s1.1,1.7,1.1,2.7C494.7,108.3,493,110,490.9,110z M504.3,110c-2.1,0-3.8-1.7-3.8-3.8
	c0-1.1,0.4-2,1.1-2.7s1.7-1.1,2.7-1.1c1.1,0,2,0.4,2.7,1.1s1.1,1.7,1.1,2.7C508.1,108.3,506.4,110,504.3,110z M517.7,110
	c-2.1,0-3.8-1.7-3.8-3.8c0-1.1,0.4-2,1.1-2.7c0.7-0.7,1.7-1.1,2.7-1.1c1.1,0,2,0.4,2.7,1.1s1.1,1.7,1.1,2.7
	C521.5,108.3,519.8,110,517.7,110z M531.1,110c-2.1,0-3.8-1.7-3.8-3.8c0-1.1,0.4-2,1.1-2.7c0.7-0.7,1.7-1.1,2.7-1.1
	c1.1,0,2,0.4,2.7,1.1s1.1,1.7,1.1,2.7C534.9,108.3,533.2,110,531.1,110z M544.5,110c-2.1,0-3.8-1.7-3.8-3.8c0-1.1,0.4-2,1.1-2.7
	c0.7-0.7,1.7-1.1,2.7-1.1c1.1,0,2,0.4,2.7,1.1s1.1,1.7,1.1,2.7C548.4,108.3,546.6,110,544.5,110z M557.9,110c-2.1,0-3.8-1.7-3.8-3.8
	c0-1.1,0.4-2,1.1-2.7c0.7-0.7,1.7-1.1,2.7-1.1c1.1,0,2,0.4,2.7,1.1s1.1,1.7,1.1,2.7C561.8,108.3,560,110,557.9,110z M571.3,110
	c-2.1,0-3.8-1.7-3.8-3.8c0-1.1,0.4-2,1.1-2.7c0.7-0.7,1.7-1.1,2.7-1.1c1.1,0,2,0.4,2.7,1.1s1.1,1.7,1.1,2.7
	C575.2,108.3,573.4,110,571.3,110z M584.7,110c-2.1,0-3.8-1.7-3.8-3.8c0-1.1,0.4-2,1.1-2.7c0.7-0.7,1.7-1.1,2.7-1.1
	c1.1,0,2,0.4,2.7,1.1s1.1,1.7,1.1,2.7C588.6,108.3,586.8,110,584.7,110z M598.1,110c-2.1,0-3.8-1.7-3.8-3.8c0-1.1,0.4-2,1.1-2.7
	c0.7-0.7,1.7-1.1,2.7-1.1c1.1,0,2,0.4,2.7,1.1s1.1,1.7,1.1,2.7C602,108.3,600.2,110,598.1,110z M611.5,110c-2.1,0-3.8-1.7-3.8-3.8
	c0-1.1,0.4-2,1.1-2.7c0.7-0.7,1.7-1.1,2.7-1.1s2,0.4,2.7,1.1s1.1,1.7,1.1,2.7C615.4,108.3,613.7,110,611.5,110z M624.9,110
	c-2.1,0-3.8-1.7-3.8-3.8c0-1.1,0.4-2,1.1-2.7c0.7-0.7,1.7-1.1,2.7-1.1s2,0.4,2.7,1.1s1.1,1.7,1.1,2.7
	C628.8,108.3,627.1,110,624.9,110z M638.3,110c-2.1,0-3.8-1.7-3.8-3.8c0-1.1,0.4-2,1.1-2.7c0.7-0.7,1.7-1.1,2.7-1.1
	c1.1,0,2,0.4,2.7,1.1s1.1,1.7,1.1,2.7C642.2,108.3,640.5,110,638.3,110z M651.7,110c-2.1,0-3.8-1.7-3.8-3.8c0-1.1,0.4-2,1.1-2.7
	c0.7-0.7,1.7-1.1,2.7-1.1c1.1,0,2,0.4,2.7,1.1s1.1,1.7,1.1,2.7C655.6,108.3,653.9,110,651.7,110z M665.2,110c-2.1,0-3.8-1.7-3.8-3.8
	c0-1.1,0.4-2,1.1-2.7c0.7-0.7,1.7-1.1,2.7-1.1c1.1,0,2,0.4,2.7,1.1s1.1,1.7,1.1,2.7C669,108.3,667.3,110,665.2,110z M718.4,67
	c-0.8,0-1.6-0.3-2.1-0.9c-0.5-0.5-0.9-1.3-0.9-2.1c0-0.8,0.3-1.6,0.9-2.1c0.5-0.5,1.3-0.9,2.1-0.9s1.6,0.3,2.1,0.9
	c0.5,0.5,0.9,1.3,0.9,2.1c0,0.8-0.3,1.6-0.9,2.1C720,66.7,719.2,67,718.4,67z M745.2,102.3c2.1,0,3.8,1.7,3.8,3.8
	c0,1.1-0.4,2-1.1,2.7c-0.3,0.3-0.7,0.6-1.1,0.8l-0.1,0.1c-0.5,0.2-1,0.3-1.5,0.3s-1-0.1-1.5-0.3c-0.1,0-0.1-0.1-0.2-0.1
	c-0.1-0.1-0.3-0.1-0.4-0.2l0,0c-0.2-0.1-0.4-0.3-0.5-0.5c-0.7-0.7-1.1-1.7-1.1-2.7C741.4,104,743.1,102.3,745.2,102.3z M745.2,84.2
	c-0.9,0-1.7-0.4-2.3-1s-1-1.4-1-2.3s0.4-1.7,1-2.3c0.6-0.6,1.4-1,2.3-1c0.9,0,1.7,0.4,2.3,1s1,1.4,1,2.3s-0.4,1.7-1,2.3
	C747,83.8,746.1,84.2,745.2,84.2z M678.2,102.3c2.1,0,3.8,1.7,3.8,3.8c0,1.1-0.4,2-1.1,2.7c-0.2,0.2-0.4,0.3-0.5,0.5l0,0
	c-0.1,0.1-0.3,0.2-0.4,0.2c-0.1,0-0.1,0.1-0.2,0.1c-0.5,0.2-1,0.3-1.5,0.3c-1.1,0-2-0.4-2.7-1.1s-1.1-1.7-1.1-2.7
	C674.4,104,676.1,102.3,678.2,102.3z M705,102.3c2.1,0,3.8,1.7,3.8,3.8c0,1.1-0.4,2-1.1,2.7c-0.3,0.3-0.7,0.6-1.1,0.8l-0.1,0.1
	c-0.5,0.2-1,0.3-1.5,0.3s-1-0.1-1.5-0.3c0,0,0,0-0.1,0c-0.2-0.1-0.4-0.2-0.6-0.3l0,0c-0.2-0.1-0.4-0.3-0.5-0.5
	c-0.7-0.7-1.1-1.7-1.1-2.7C701.2,104,702.9,102.3,705,102.3z M758.6,102.3c2.1,0,3.8,1.7,3.8,3.8c0,1.1-0.4,2-1.1,2.7
	c-0.2,0.2-0.4,0.3-0.5,0.5l0,0c-0.2,0.1-0.3,0.2-0.5,0.3c-0.1,0-0.1,0.1-0.2,0.1c-0.5,0.2-1,0.3-1.5,0.3s-1-0.1-1.5-0.3
	c-0.1,0-0.1-0.1-0.2-0.1c-0.2-0.1-0.3-0.2-0.5-0.3l0,0c-0.2-0.1-0.4-0.3-0.5-0.5c-0.7-0.7-1.1-1.7-1.1-2.7
	C754.8,104,756.5,102.3,758.6,102.3z M691.6,102.3c2.1,0,3.8,1.7,3.8,3.8c0,1.1-0.4,2-1.1,2.7c-0.3,0.3-0.7,0.6-1.1,0.8l-0.1,0.1
	c-0.5,0.2-1,0.3-1.5,0.3c-1.1,0-2-0.4-2.7-1.1s-1.1-1.7-1.1-2.7C687.8,104,689.5,102.3,691.6,102.3z M731.8,102.3
	c2.1,0,3.8,1.7,3.8,3.8c0,1.1-0.4,2-1.1,2.7c-0.3,0.3-0.7,0.6-1.1,0.8l-0.1,0.1c-0.5,0.2-1,0.3-1.5,0.3s-1-0.1-1.5-0.3l-0.1-0.1
	c-0.4-0.2-0.8-0.4-1.1-0.8c-0.7-0.7-1.1-1.7-1.1-2.7C728,104,729.7,102.3,731.8,102.3z M745.2,101.4c-1,0-1.9-0.4-2.6-1.1
	c-0.7-0.7-1.1-1.6-1.1-2.6s0.4-1.9,1.1-2.6c0.7-0.7,1.6-1.1,2.6-1.1s1.9,0.4,2.6,1.1c0.7,0.7,1.1,1.6,1.1,2.6s-0.4,1.9-1.1,2.6
	C747.1,101,746.2,101.4,745.2,101.4z M772,102.3c2.1,0,3.8,1.7,3.8,3.8c0,1.1-0.4,2-1.1,2.7c-0.2,0.2-0.4,0.3-0.5,0.5l0,0
	c-0.2,0.1-0.3,0.2-0.5,0.3c-0.1,0-0.1,0.1-0.2,0.1c-0.5,0.2-1,0.3-1.5,0.3s-1-0.1-1.5-0.3c-0.1,0-0.1-0.1-0.2-0.1
	c-0.2-0.1-0.3-0.2-0.5-0.3l0,0c-0.2-0.1-0.4-0.3-0.5-0.5c-0.7-0.7-1.1-1.7-1.1-2.7C768.2,104,769.9,102.3,772,102.3z M758.6,92.8
	c-1,0-1.8-0.4-2.5-1s-1-1.5-1-2.5s0.4-1.8,1-2.5s1.5-1,2.5-1s1.8,0.4,2.5,1c0.6,0.6,1,1.5,1,2.5s-0.4,1.8-1,2.5
	C760.5,92.4,759.6,92.8,758.6,92.8z M745.2,92.8c-1,0-1.8-0.4-2.5-1c-0.6-0.6-1-1.5-1-2.5s0.4-1.8,1-2.5c0.6-0.6,1.5-1,2.5-1
	s1.8,0.4,2.5,1c0.6,0.6,1,1.5,1,2.5s-0.4,1.8-1,2.5C747.1,92.4,746.2,92.8,745.2,92.8z M758.6,101.4c-1,0-1.9-0.4-2.6-1.1
	c-0.7-0.7-1.1-1.6-1.1-2.6s0.4-1.9,1.1-2.6c0.7-0.7,1.6-1.1,2.6-1.1s1.9,0.4,2.6,1.1c0.7,0.7,1.1,1.6,1.1,2.6s-0.4,1.9-1.1,2.6
	S759.6,101.4,758.6,101.4z M785.4,102.3c2.1,0,3.8,1.7,3.8,3.8c0,1.1-0.4,2-1.1,2.7c-0.2,0.2-0.4,0.3-0.6,0.5l0,0
	c-0.2,0.1-0.3,0.2-0.5,0.3c-0.1,0-0.1,0.1-0.2,0.1c-0.5,0.2-1,0.3-1.5,0.3s-1-0.1-1.5-0.3c-0.1,0-0.1-0.1-0.2-0.1
	c-0.2-0.1-0.3-0.2-0.5-0.3l0,0c-0.2-0.1-0.4-0.3-0.5-0.5c-0.7-0.7-1.1-1.7-1.1-2.7C781.6,104,783.3,102.3,785.4,102.3z M772,101.4
	c-1,0-1.9-0.4-2.6-1.1c-0.7-0.7-1.1-1.6-1.1-2.6s0.4-1.9,1.1-2.6c0.7-0.7,1.6-1.1,2.6-1.1s1.9,0.4,2.6,1.1c0.7,0.7,1.1,1.6,1.1,2.6
	s-0.4,1.9-1.1,2.6C774,101,773,101.4,772,101.4z M718.4,102.3c2.1,0,3.8,1.7,3.8,3.8c0,1.1-0.4,2-1.1,2.7c-0.3,0.3-0.7,0.6-1.2,0.8
	l0,0c-0.5,0.2-1,0.3-1.5,0.3s-1-0.1-1.5-0.3l-0.1-0.1c-0.4-0.2-0.8-0.4-1.1-0.8c-0.7-0.7-1.1-1.7-1.1-2.7
	C714.6,104,716.3,102.3,718.4,102.3z M678.2,84.2c-0.9,0-1.7-0.4-2.3-1s-1-1.4-1-2.3s0.4-1.7,1-2.3c0.6-0.6,1.4-1,2.3-1
	c0.9,0,1.7,0.4,2.3,1s1,1.4,1,2.3s-0.4,1.7-1,2.3S679.1,84.2,678.2,84.2z M678.2,75.6c-0.9,0-1.6-0.3-2.2-0.9
	c-0.6-0.6-0.9-1.4-0.9-2.2c0-0.9,0.3-1.6,0.9-2.2c0.6-0.6,1.4-0.9,2.2-0.9c0.9,0,1.6,0.3,2.2,0.9c0.6,0.6,0.9,1.4,0.9,2.2
	c0,0.9-0.3,1.6-0.9,2.2C679.8,75.3,679.1,75.6,678.2,75.6z M678.2,92.8c-1,0-1.8-0.4-2.5-1c-0.6-0.6-1-1.5-1-2.5s0.4-1.8,1-2.5
	c0.6-0.6,1.5-1,2.5-1s1.8,0.4,2.5,1s1,1.5,1,2.5s-0.4,1.8-1,2.5S679.2,92.8,678.2,92.8z M691.6,58.4c-0.8,0-1.5-0.3-2-0.8
	s-0.8-1.2-0.8-2s0.3-1.5,0.8-2s1.2-0.8,2-0.8s1.5,0.3,2,0.8s0.8,1.2,0.8,2s-0.3,1.5-0.8,2C693.1,58.1,692.4,58.4,691.6,58.4z
	 M678.2,101.4c-1,0-1.9-0.4-2.6-1.1c-0.7-0.7-1.1-1.6-1.1-2.6s0.4-1.9,1.1-2.6c0.7-0.7,1.6-1.1,2.6-1.1s1.9,0.4,2.6,1.1
	c0.7,0.7,1.1,1.6,1.1,2.6s-0.4,1.9-1.1,2.6C680.1,101,679.2,101.4,678.2,101.4z M691.6,49.8c-0.7,0-1.4-0.3-1.8-0.8
	c-0.5-0.5-0.8-1.1-0.8-1.8s0.3-1.4,0.8-1.8c0.5-0.5,1.1-0.8,1.8-0.8s1.4,0.3,1.8,0.8c0.5,0.5,0.8,1.1,0.8,1.8s-0.3,1.4-0.8,1.8
	C693,49.5,692.3,49.8,691.6,49.8z M691.6,41.2c-0.7,0-1.3-0.3-1.7-0.7s-0.7-1.1-0.7-1.7c0-0.7,0.3-1.3,0.7-1.7s1.1-0.7,1.7-0.7
	c0.7,0,1.3,0.3,1.7,0.7s0.7,1.1,0.7,1.7c0,0.7-0.3,1.3-0.7,1.7C692.9,41,692.3,41.2,691.6,41.2z M678.2,67c-0.8,0-1.6-0.3-2.1-0.9
	c-0.5-0.5-0.9-1.3-0.9-2.1c0-0.8,0.3-1.6,0.9-2.1c0.5-0.5,1.3-0.9,2.1-0.9s1.6,0.3,2.1,0.9c0.5,0.5,0.9,1.3,0.9,2.1
	c0,0.8-0.3,1.6-0.9,2.1C679.7,66.7,679,67,678.2,67z M678.2,58.4c-0.8,0-1.5-0.3-2-0.8s-0.8-1.2-0.8-2s0.3-1.5,0.8-2s1.2-0.8,2-0.8
	s1.5,0.3,2,0.8s0.8,1.2,0.8,2s-0.3,1.5-0.8,2C679.7,58.1,679,58.4,678.2,58.4z M678.2,49.8c-0.7,0-1.4-0.3-1.8-0.8
	c-0.5-0.5-0.8-1.1-0.8-1.8s0.3-1.4,0.8-1.8c0.5-0.5,1.1-0.8,1.8-0.8s1.4,0.3,1.8,0.8c0.5,0.5,0.8,1.1,0.8,1.8s-0.3,1.4-0.8,1.8
	C679.6,49.5,678.9,49.8,678.2,49.8z M718.4,84.2c-0.9,0-1.7-0.4-2.3-1s-1-1.4-1-2.3s0.4-1.7,1-2.3c0.6-0.6,1.4-1,2.3-1
	c0.9,0,1.7,0.4,2.3,1s1,1.4,1,2.3s-0.4,1.7-1,2.3C720.1,83.8,719.3,84.2,718.4,84.2z M718.4,75.6c-0.9,0-1.6-0.3-2.2-0.9
	c-0.6-0.6-0.9-1.4-0.9-2.2c0-0.9,0.3-1.6,0.9-2.2c0.6-0.6,1.4-0.9,2.2-0.9c0.9,0,1.6,0.3,2.2,0.9c0.6,0.6,0.9,1.4,0.9,2.2
	c0,0.9-0.3,1.6-0.9,2.2C720.1,75.3,719.3,75.6,718.4,75.6z M745.2,75.6c-0.9,0-1.6-0.3-2.2-0.9c-0.6-0.6-0.9-1.4-0.9-2.2
	c0-0.9,0.3-1.6,0.9-2.2c0.6-0.6,1.4-0.9,2.2-0.9c0.9,0,1.6,0.3,2.2,0.9c0.6,0.6,0.9,1.4,0.9,2.2c0,0.9-0.3,1.6-0.9,2.2
	C746.9,75.3,746.1,75.6,745.2,75.6z M705,101.4c-1,0-1.9-0.4-2.6-1.1c-0.7-0.7-1.1-1.6-1.1-2.6s0.4-1.9,1.1-2.6
	c0.7-0.7,1.6-1.1,2.6-1.1s1.9,0.4,2.6,1.1c0.7,0.7,1.1,1.6,1.1,2.6s-0.4,1.9-1.1,2.6S706,101.4,705,101.4z M705,92.8
	c-1,0-1.8-0.4-2.5-1c-0.6-0.6-1-1.5-1-2.5s0.4-1.8,1-2.5c0.6-0.6,1.5-1,2.5-1s1.8,0.4,2.5,1s1,1.5,1,2.5s-0.4,1.8-1,2.5
	S706,92.8,705,92.8z M718.4,92.8c-1,0-1.8-0.4-2.5-1c-0.6-0.6-1-1.5-1-2.5s0.4-1.8,1-2.5c0.6-0.6,1.5-1,2.5-1s1.8,0.4,2.5,1
	c0.6,0.6,1,1.5,1,2.5s-0.4,1.8-1,2.5C720.2,92.4,719.4,92.8,718.4,92.8z M731.8,101.4c-1,0-1.9-0.4-2.6-1.1
	c-0.7-0.7-1.1-1.6-1.1-2.6s0.4-1.9,1.1-2.6c0.7-0.7,1.6-1.1,2.6-1.1s1.9,0.4,2.6,1.1c0.7,0.7,1.1,1.6,1.1,2.6s-0.4,1.9-1.1,2.6
	S732.8,101.4,731.8,101.4z M718.4,101.4c-1,0-1.9-0.4-2.6-1.1c-0.7-0.7-1.1-1.6-1.1-2.6s0.4-1.9,1.1-2.6c0.7-0.7,1.6-1.1,2.6-1.1
	s1.9,0.4,2.6,1.1c0.7,0.7,1.1,1.6,1.1,2.6s-0.4,1.9-1.1,2.6C720.3,101,719.4,101.4,718.4,101.4z M691.6,92.8c-1,0-1.8-0.4-2.5-1
	c-0.6-0.6-1-1.5-1-2.5s0.4-1.8,1-2.5c0.6-0.6,1.5-1,2.5-1s1.8,0.4,2.5,1s1,1.5,1,2.5s-0.4,1.8-1,2.5S692.6,92.8,691.6,92.8z
	 M705,84.2c-0.9,0-1.7-0.4-2.3-1s-1-1.4-1-2.3s0.4-1.7,1-2.3c0.6-0.6,1.4-1,2.3-1c0.9,0,1.7,0.4,2.3,1s1,1.4,1,2.3s-0.4,1.7-1,2.3
	S705.9,84.2,705,84.2z M691.6,84.2c-0.9,0-1.7-0.4-2.3-1s-1-1.4-1-2.3s0.4-1.7,1-2.3c0.6-0.6,1.4-1,2.3-1c0.9,0,1.7,0.4,2.3,1
	s1,1.4,1,2.3s-0.4,1.7-1,2.3S692.5,84.2,691.6,84.2z M691.6,75.6c-0.9,0-1.6-0.3-2.2-0.9c-0.6-0.6-0.9-1.4-0.9-2.2
	c0-0.9,0.3-1.6,0.9-2.2c0.6-0.6,1.4-0.9,2.2-0.9c0.9,0,1.6,0.3,2.2,0.9c0.6,0.6,0.9,1.4,0.9,2.2c0,0.9-0.3,1.6-0.9,2.2
	C693.2,75.3,692.5,75.6,691.6,75.6z M691.6,67c-0.8,0-1.6-0.3-2.1-0.9c-0.5-0.5-0.9-1.3-0.9-2.1c0-0.8,0.3-1.6,0.9-2.1
	c0.5-0.5,1.3-0.9,2.1-0.9s1.6,0.3,2.1,0.9c0.5,0.5,0.9,1.3,0.9,2.1c0,0.8-0.3,1.6-0.9,2.1C693.2,66.7,692.4,67,691.6,67z
	 M691.6,101.4c-1,0-1.9-0.4-2.6-1.1c-0.7-0.7-1.1-1.6-1.1-2.6s0.4-1.9,1.1-2.6c0.7-0.7,1.6-1.1,2.6-1.1s1.9,0.4,2.6,1.1
	c0.7,0.7,1.1,1.6,1.1,2.6s-0.4,1.9-1.1,2.6S692.6,101.4,691.6,101.4z M705,75.6c-0.9,0-1.6-0.3-2.2-0.9c-0.6-0.6-0.9-1.4-0.9-2.2
	c0-0.9,0.3-1.6,0.9-2.2c0.6-0.6,1.4-0.9,2.2-0.9c0.9,0,1.6,0.3,2.2,0.9c0.6,0.6,0.9,1.4,0.9,2.2c0,0.9-0.3,1.6-0.9,2.2
	C706.7,75.3,705.9,75.6,705,75.6z"/>
</svg>
